<svg width="32" height="32" viewBox="0 0 32 32" fill="none" xmlns="http://www.w3.org/2000/svg">
<g clip-path="url(#clip0_2756_60716)">
<path d="M31.6926 27.427L18.3593 2.09366C18.1333 1.66336 17.794 1.30302 17.378 1.05157C16.9621 0.800128 16.4853 0.667143 15.9993 0.666992C15.5133 0.667143 15.0365 0.800128 14.6206 1.05157C14.2046 1.30302 13.8653 1.66336 13.6393 2.09366L0.305955 27.427C0.0839493 27.8394 -0.0255395 28.3029 -0.0114959 28.7711C0.00254779 29.2392 0.139629 29.6953 0.385955 30.0937C0.628934 30.4774 0.965907 30.7927 1.36492 31.0098C1.76394 31.2268 2.21177 31.3383 2.66596 31.3337H29.3326C29.7916 31.3335 30.2428 31.2149 30.6425 30.9893C31.0422 30.7637 31.377 30.4387 31.6143 30.0459C31.8516 29.653 31.9835 29.2055 31.9973 28.7467C32.011 28.2879 31.9061 27.8333 31.6926 27.427ZM14.666 11.3337C14.666 10.98 14.8064 10.6409 15.0565 10.3909C15.3065 10.1408 15.6457 10.0003 15.9993 10.0003C16.3529 10.0003 16.6921 10.1408 16.9421 10.3909C17.1921 10.6409 17.3326 10.98 17.3326 11.3337V19.3337C17.3326 19.6873 17.1921 20.0264 16.9421 20.2765C16.6921 20.5265 16.3529 20.667 15.9993 20.667C15.6457 20.667 15.3065 20.5265 15.0565 20.2765C14.8064 20.0264 14.666 19.6873 14.666 19.3337V11.3337ZM16.066 26.667C15.5408 26.664 15.037 26.4585 14.6595 26.0934C14.282 25.7284 14.0599 25.2318 14.0393 24.707C14.0304 24.4434 14.0744 24.1807 14.1687 23.9344C14.2631 23.6882 14.4058 23.4633 14.5885 23.2731C14.7712 23.0829 14.9902 22.9313 15.2325 22.8272C15.4748 22.7231 15.7356 22.6686 15.9993 22.667C16.5244 22.67 17.0282 22.8755 17.4057 23.2405C17.7832 23.6056 18.0054 24.1022 18.026 24.627C18.0349 24.8906 17.9909 25.1533 17.8965 25.3995C17.8022 25.6458 17.6594 25.8707 17.4767 26.0609C17.294 26.2511 17.075 26.4027 16.8327 26.5068C16.5904 26.6109 16.3297 26.6654 16.066 26.667Z" fill="#DEB861"/>
</g>
<defs>
<clipPath id="clip0_2756_60716">
<rect width="32" height="32" fill="white"/>
</clipPath>
</defs>
</svg>
