<svg width="53" height="52" viewBox="0 0 53 52" fill="none" xmlns="http://www.w3.org/2000/svg">
<g filter="url(#filter0_d_18839_2927)">
<circle cx="26.75" cy="25" r="12" fill="#dadada"/>
<circle cx="26.75" cy="25" r="14" stroke="white" stroke-width="4"/>
</g>
<g clip-path="url(#clip0_18839_2927)">
<path d="M25.4165 31.5C25.5012 31.7885 25.677 32.0417 25.9177 32.2219C26.1583 32.4021 26.4509 32.4994 26.7515 32.4994C27.0521 32.4994 27.3447 32.4021 27.5853 32.2219C27.826 32.0417 28.0018 31.7885 28.0865 31.5" stroke="white" stroke-width="1.5" stroke-linecap="round" stroke-linejoin="round"/>
<path d="M26.75 19V17.5" stroke="white" stroke-width="1.5" stroke-linecap="round" stroke-linejoin="round"/>
<path d="M26.75 19C28.0761 19 29.3479 19.5268 30.2855 20.4645C31.2232 21.4021 31.75 22.6739 31.75 24C31.75 28.6973 32.75 29.5 32.75 29.5H20.75C20.75 29.5 21.75 28.2227 21.75 24C21.75 22.6739 22.2768 21.4021 23.2145 20.4645C24.1521 19.5268 25.4239 19 26.75 19V19Z" stroke="white" stroke-width="1.5" stroke-linecap="round" stroke-linejoin="round"/>
</g>
<defs>
<filter id="filter0_d_18839_2927" x="0.75" y="0" width="52" height="52" filterUnits="userSpaceOnUse" color-interpolation-filters="sRGB">
<feFlood flood-opacity="0" result="BackgroundImageFix"/>
<feColorMatrix in="SourceAlpha" type="matrix" values="0 0 0 0 0 0 0 0 0 0 0 0 0 0 0 0 0 0 127 0" result="hardAlpha"/>
<feMorphology radius="1" operator="dilate" in="SourceAlpha" result="effect1_dropShadow_18839_2927"/>
<feOffset dy="1"/>
<feGaussianBlur stdDeviation="4.5"/>
<feComposite in2="hardAlpha" operator="out"/>
<feColorMatrix type="matrix" values="0 0 0 0 0.665972 0 0 0 0 0.72274 0 0 0 0 0.792361 0 0 0 0.28 0"/>
<feBlend mode="normal" in2="BackgroundImageFix" result="effect1_dropShadow_18839_2927"/>
<feBlend mode="normal" in="SourceGraphic" in2="effect1_dropShadow_18839_2927" result="shape"/>
</filter>
<clipPath id="clip0_18839_2927">
<rect width="16" height="16" fill="white" transform="translate(18.75 17)"/>
</clipPath>
</defs>
</svg>
