<svg xmlns="http://www.w3.org/2000/svg" viewBox="0 0 24 24" id="Bathroom-Tub-Towel--Streamline-Streamline--3.0.svg" height="24" width="24">
  <desc>Bathroom Tub Towel Streamline Icon: https://streamlinehq.com</desc>
  <g>
    <path d="M23.73 14.32A1 1 0 0 0 23 14h-0.25a0.5 0.5 0 0 1 -0.5 -0.5V3A3 3 0 0 0 20.48 0.27a3 3 0 0 0 -3.27 0.53l-0.46 0.47a0.49 0.49 0 0 1 -0.5 0.12 2.9 2.9 0 0 0 -2.93 0.67l-0.21 0.2a1 1 0 0 0 0 1.42l2.64 2.64a1 1 0 0 0 1.42 0l0.2 -0.2a2.87 2.87 0 0 0 0.69 -2.94 0.48 0.48 0 0 1 0.12 -0.51l0.41 -0.41a1 1 0 0 1 1.07 -0.17 1 1 0 0 1 0.59 0.91v10.5a0.5 0.5 0 0 1 -0.5 0.5h-5.37a0.5 0.5 0 0 1 -0.48 -0.35 2 2 0 0 0 -1.9 -1.4H7a2 2 0 0 0 -1.9 1.4 0.5 0.5 0 0 1 -0.48 0.35H1a1 1 0 0 0 -0.73 0.32 1 1 0 0 0 -0.27 0.74A9.51 9.51 0 0 0 9.49 24h5A9.51 9.51 0 0 0 24 15.06a1 1 0 0 0 -0.27 -0.74ZM12 19.75a0.5 0.5 0 0 1 -0.5 0.5h-4a0.5 0.5 0 0 1 -0.5 -0.5v-5a0.5 0.5 0 0 1 0.5 -0.5h4a0.5 0.5 0 0 1 0.5 0.5Z" fill="#59B9FF" stroke-width="1"></path>
    <path d="M9 6.09A1.06 1.06 0 0 0 9.42 6l1.82 -0.84a1 1 0 0 0 -0.84 -1.82l-1.82 0.84A1 1 0 0 0 9 6.09Z" fill="#59B9FF" stroke-width="1"></path>
    <path d="M14.12 11.51a1.09 1.09 0 0 0 0.39 0.08 1 1 0 0 0 0.92 -0.61l0.79 -1.84a1 1 0 1 0 -1.84 -0.78l-0.78 1.84a1 1 0 0 0 0.52 1.31Z" fill="#59B9FF" stroke-width="1"></path>
    <path d="M10.49 9.08a1 1 0 0 0 0.71 0.29 1 1 0 0 0 0.7 -0.29l1.42 -1.4a1 1 0 0 0 0 -1.42 1 1 0 0 0 -1.41 0l-1.43 1.4a1 1 0 0 0 0.01 1.42Z" fill="#59B9FF" stroke-width="1"></path>
  </g>
</svg>
