<svg xmlns="http://www.w3.org/2000/svg" viewBox="0 0 1200 1200"><defs><style>.cls-1{fill:#fff;}.cls-2{fill:#f4f8ff;}.cls-3{fill:#e5e5e5;}.cls-4{fill:#f9f9f9;}.cls-5{fill:#767c97;}.cls-6{fill:#bbf9bc;}.cls-7{fill:#def3f9;opacity:0.3;}</style></defs><title>checklist ok</title><g id="Calque_2" data-name="Calque 2"><g id="_ÎÓÈ_1_1_" data-name="—ÎÓÈ_1_1_"><rect class="cls-2" width="1200" height="1200"/><path class="cls-2" d="M349.31,1029c-21.42-4.56-278.82-45.71-259.88-349.17s42.73-394.71,142.81-428.1S575.58,60.34,766.47,210.57s396.87,285,315.13,524.81S986.48,1055.25,773.21,1043,451.18,1050.71,349.31,1029Z"/></g><g id="_ÎÓÈ_2" data-name="—ÎÓÈ_2"><path class="cls-3" d="M808.11,342.38,720.35,342a23.12,23.12,0,0,0-22.94-20.36l-76.33,0V305a21.5,21.5,0,0,0-43,0v16.62l-76.32,0a23.13,23.13,0,0,0-22.85,19.54l-92.21-.38a32.25,32.25,0,0,0-32.36,32.13l-1.79,546.74A32.24,32.24,0,0,0,384.68,952l421.41,1.61a32.23,32.23,0,0,0,32.35-32.12l1.79-546.74A32.25,32.25,0,0,0,808.11,342.38ZM599.59,316a12.13,12.13,0,1,1,12.13-12.12A12.13,12.13,0,0,1,599.59,316Z"/><path class="cls-4" d="M798.77,349.62,711,349.27a23.13,23.13,0,0,0-22.95-20.37l-76.32,0V312.26a21.49,21.49,0,1,0-43,0v16.62l-76.32,0a23.13,23.13,0,0,0-22.85,19.54L377.37,348A32.23,32.23,0,0,0,345,380.14l-1.79,546.74a32.25,32.25,0,0,0,32.12,32.36l421.4,1.6a32.23,32.23,0,0,0,32.36-32.12L830.9,382A32.25,32.25,0,0,0,798.77,349.62ZM590.26,323.23a12.12,12.12,0,1,1,12.12-12.12A12.12,12.12,0,0,1,590.26,323.23Z"/><path class="cls-5" d="M471,347.49l-52.06-.21-31.68-.13c-7.25,0-14.34-.31-21.33,2.13a34,34,0,0,0-23.07,31.45c0,1.25,0,2.51,0,3.76l-.08,25.65q-.17,52.78-.35,105.57-.22,72.43-.47,144.87-.23,71.14-.46,142.27-.18,50.48-.34,101c0,7.26-.06,14.52-.07,21.79,0,19,13.66,34.13,33,34.54,21.58.45,43.2.16,64.78.24l137.3.53,140.37.53c25.68.1,51.36.27,77,.3,19.65,0,37.26-12.83,37.71-33.64.1-4.78,0-9.57.05-14.35q.13-45.15.29-90.3l.46-139.26.48-146.33q.18-57.37.37-114.75Q833,407,833,390.85c0-8.43.48-16.56-3.58-24.4-5.92-11.41-17.6-17.6-30.21-17.73-7.87-.08-15.74-.06-23.61-.1l-61.49-.25q-40.64-.17-81.29-.29l-136.5-.5L471,347.49c-.94,0-4.93,1.79-2.81,1.8l88.16.32,132.23.48,80.56.32,25.85.11c12.83.05,24.57,5.78,30.43,17.68,3.74,7.59,3.31,15.43,3.28,23.53q-.13,40.49-.26,81l-.44,133-.48,145.76-.39,120.43c-.06,18.91,0,37.82-.19,56.72-.18,17.89-13.53,31.35-31.34,31.28l-27.27-.1-116.39-.45-145-.55-109.19-.42c-6.87,0-13.75.05-20.62-.07-18.94-.35-31.73-15.62-31.72-33.91,0-20.91.14-41.82.21-62.74q.19-61.82.4-123.64l.48-146.59q.21-65.19.43-130.38l.24-75.22c0-1.92,0-3.85,0-5.76.17-11.11,5.46-21.67,15.19-27.44,7.63-4.53,16.16-3.73,24.62-3.7l32.59.13,48.59.2C469.12,349.3,473.11,347.5,471,347.49Z"/><path class="cls-3" d="M811.94,488.77V905.46a19.26,19.26,0,0,1-19.29,19.23H399.57a19.26,19.26,0,0,1-19.29-19.23v-68L380.6,800l0-414.3a19.26,19.26,0,0,1,19.29-19.23H781.83a30.11,30.11,0,0,1,30.11,30.12v92.19Z"/><path class="cls-4" d="M803.57,495.05V911.74A19.26,19.26,0,0,1,784.27,931L391.2,931a19.26,19.26,0,0,1-19.29-19.23v-68l.32-37.47,0-414.3a19.26,19.26,0,0,1,19.29-19.23H773.46a30.11,30.11,0,0,1,30.11,30.11v92.2Z"/><path class="cls-1" d="M791.48,493.25v419A18.68,18.68,0,0,1,772.88,931l-382.39,0a18.66,18.66,0,0,1-18.58-18.75V845.88l.31-36.56V405.22a18.68,18.68,0,0,1,18.59-18.76h384a16.59,16.59,0,0,1,16.7,16.47Z"/><path class="cls-5" d="M801.16,495.7V893.26c0,6.19.14,12.4,0,18.59-.2,9.16-6.18,17.74-16,18-1.68,0-3.37,0-5.06,0H448.82c-18.79,0-37.74.7-56.53,0-11.42-.43-17.92-10-18-20.6,0-8.41,0-16.81,0-25.21,0-14.67-.1-29.34,0-44q.25-28.85.3-57.69V400.78c0-9.5-.82-20.07,9.32-25.39,5.44-2.85,14.26-1.55,20.18-1.55H769.21a40,40,0,0,1,9,.66c13.83,3.08,22.73,15.63,22.95,29.44.27,17.84,0,35.72,0,53.57V495.7c0,1,4.83.26,4.83-1.3,0-30.71.6-61.48,0-92.19a31,31,0,0,0-25.37-30,49.19,49.19,0,0,0-9-.54H403.86c-7.17,0-14.87-.76-21.56,2.29a21,21,0,0,0-12.47,19.32c0,2.18,0,4.36,0,6.54V740.29c0,21.8,0,43.61,0,65.42-.05,27.83-.33,55.66-.33,83.49,0,7.56-.17,15.14,0,22.7.27,11.71,9.18,19.9,20.72,20.16,5.36.12,10.74,0,16.11,0H779.6c13,0,25.95-6.22,26.37-21.06.53-18.49,0-37.07,0-55.57V599.63q0-46,0-91.93V494.4C806,493.38,801.16,494.14,801.16,495.7Z"/><rect class="cls-6" x="407.57" y="445.16" width="88.34" height="88.34" rx="12.13"/><path class="cls-5" d="M418.93,478.14l28.14,28.14c1.17,1.17,3.62.21,4.49-.88,11.61-14.46,24.62-29.21,39.86-39.9,2.67-1.88-1.43-2.69-3-1.57-15.83,11.12-29.27,26.26-41.33,41.29l4.49-.87L423.4,476.2c-1.25-1.25-5.83.58-4.47,1.94Z"/><rect class="cls-4" x="518.27" y="445.16" width="129.19" height="25.13" rx="3.95"/><path class="cls-5" d="M528.39,459H634.68c2.74,0,3.73-3.48.45-3.48H528.83c-2.73,0-3.72,3.48-.44,3.48Z"/><path class="cls-5" d="M527.05,488.07H754.39c1.44,0,5.24-2.14,2-2.14H529.09c-1.44,0-5.24,2.14-2,2.14Z"/><path class="cls-5" d="M526.91,521.39H752c2.81,0,3.66-3.69.39-3.69H527.3c-2.81,0-3.66,3.69-.39,3.69Z"/><rect class="cls-6" x="407.57" y="560.26" width="88.34" height="88.34" rx="12.13"/><path class="cls-5" d="M418.93,593.23l28.14,28.15c1.17,1.16,3.62.21,4.49-.88,11.61-14.46,24.62-29.21,39.86-39.9,2.67-1.88-1.43-2.69-3-1.57-15.83,11.11-29.27,26.26-41.33,41.29l4.49-.88L423.4,591.3c-1.25-1.25-5.83.58-4.47,1.93Z"/><rect class="cls-4" x="518.27" y="560.26" width="129.19" height="25.13" rx="3.95"/><path class="cls-5" d="M528.39,574.05H634.68c2.74,0,3.73-3.48.45-3.48H528.83c-2.73,0-3.72,3.48-.44,3.48Z"/><path class="cls-5" d="M527.05,603.17H754.39c1.44,0,5.24-2.14,2-2.14H529.09c-1.44,0-5.24,2.14-2,2.14Z"/><path class="cls-5" d="M526.91,636.49H752c2.81,0,3.66-3.69.39-3.69H527.3c-2.81,0-3.66,3.69-.39,3.69Z"/><rect class="cls-6" x="407.57" y="675.35" width="88.34" height="88.34" rx="12.13"/><path class="cls-5" d="M418.93,708.33l28.14,28.14c1.17,1.17,3.62.22,4.49-.87,11.61-14.46,24.62-29.21,39.86-39.9,2.67-1.88-1.43-2.7-3-1.57-15.83,11.11-29.27,26.26-41.33,41.29l4.49-.88L423.4,706.4c-1.25-1.25-5.83.57-4.47,1.93Z"/><rect class="cls-4" x="518.27" y="675.35" width="129.19" height="25.13" rx="3.95"/><path class="cls-5" d="M528.39,689.15H634.68c2.74,0,3.73-3.48.45-3.48H528.83c-2.73,0-3.72,3.48-.44,3.48Z"/><path class="cls-5" d="M527.05,718.27H754.39c1.44,0,5.24-2.14,2-2.14H529.09c-1.44,0-5.24,2.14-2,2.14Z"/><path class="cls-5" d="M526.91,751.59H752c2.81,0,3.66-3.7.39-3.7H527.3c-2.81,0-3.66,3.7-.39,3.7Z"/><rect class="cls-6" x="407.57" y="790.45" width="88.34" height="88.34" rx="12.13"/><path class="cls-5" d="M418.93,823.43l28.14,28.14c1.17,1.17,3.62.22,4.49-.87,11.61-14.47,24.62-29.21,39.86-39.91,2.67-1.87-1.43-2.69-3-1.56-15.83,11.11-29.27,26.26-41.33,41.29l4.49-.88L423.4,821.5c-1.25-1.25-5.83.57-4.47,1.93Z"/><rect class="cls-4" x="518.27" y="790.45" width="129.19" height="25.13" rx="3.95"/><path class="cls-5" d="M528.39,804.25H634.68c2.74,0,3.73-3.49.45-3.49H528.83c-2.73,0-3.72,3.49-.44,3.49Z"/><path class="cls-5" d="M527.05,833.37H754.39c1.44,0,5.24-2.15,2-2.15H529.09c-1.44,0-5.24,2.15-2,2.15Z"/><path class="cls-5" d="M526.91,866.69H752c2.81,0,3.66-3.7.39-3.7H527.3c-2.81,0-3.66,3.7-.39,3.7Z"/><path class="cls-4" d="M711,349.27a23.13,23.13,0,0,0-22.95-20.37l-76.32,0V312.26a21.49,21.49,0,1,0-43,0v16.62l-76.32,0a23.13,23.13,0,0,0-22.85,19.54,22.27,22.27,0,0,0-.28,3.58v9.35a23.11,23.11,0,0,0,23.11,23.13l195.64.05a23.11,23.11,0,0,0,23.13-23.12V352A22.89,22.89,0,0,0,711,349.27Zm-120.76-26a12.12,12.12,0,1,1,12.12-12.12A12.12,12.12,0,0,1,590.26,323.23Z"/><path class="cls-5" d="M713.19,348.68a24.32,24.32,0,0,0-22.84-20.86c-4-.23-8.05-.05-12.05-.05H612.62l1.3.55c0-7,1.09-15.05-.65-21.91-2.72-10.77-13.19-17.48-24-16.68-10.52.79-20.24,8.2-22.25,18.84-1.27,6.69-.39,14.12-.39,20.9l3-1.71c-25,0-50-.14-75,0-7,0-13.66,1.87-19,6.48-7.58,6.52-8.47,15.08-8.48,24.41,0,9.89,3.16,18.8,12.25,23.88,4.26,2.39,8.95,3.07,13.75,3.09,23.68.1,47.36,0,71,0l97.51,0c8.1,0,16.2.05,24.3,0,15.52-.09,27.32-10.68,27.38-26.47,0-3.48.15-7-.17-10.48-.11-1.25-4.48-.35-4.34,1.17.71,7.78,1,17.16-3.27,23.94-4,6.32-10.42,9.5-17.76,9.58-7.11.08-14.22,0-21.32,0l-88.33,0-76.79,0c-9.42,0-18.32-.05-25-8.36-5.41-6.75-5.19-15.27-4.93-23.45.37-11.43,8.49-21.27,20.36-21.53,25.32-.55,50.72,0,76.05,0,1,0,3-.46,3-1.71,0-5.38-.13-10.77,0-16.14.31-11.69,9.5-22.21,22-19.92,10.09,1.86,16.44,11.07,16.66,20.92.12,5.43,0,10.88,0,16.32,0,.49,1,.54,1.3.54,25,0,50-.26,75,0,11.86.14,21.21,8,23,19.82C709,351.14,713.42,350.16,713.19,348.68Z"/><path class="cls-5" d="M591.13,322.1c-12.33-.67-15.21-21.65-1.74-22,12.54-.32,15,21.27,1.74,22-1.47.08-4.64,2.42-1.75,2.26,7.09-.38,14.24-4.56,15.1-12.23.88-7.89-5.63-14.28-13.34-14.28-6.87,0-13.83,4.54-15,11.6-1.39,8.43,5.32,14.48,13.23,14.91C590.91,324.44,594,322.26,591.13,322.1Z"/><path class="cls-3" d="M853.07,856.14a17.09,17.09,0,0,0-2.85-24L691.41,707a170.1,170.1,0,0,0,27.66-115C708,498.45,622.82,431.34,529.24,442.43s-160.69,96.25-149.6,189.83S475.89,793,569.47,781.86a170,170,0,0,0,93.11-41.79l6.8-6.92L829.05,859A17.11,17.11,0,0,0,853.07,856.14ZM682.4,596.37c8.7,73.37-43.91,140.13-117.28,148.82S425,701.28,416.3,627.91s43.92-140.12,117.28-148.82S673.71,523,682.4,596.37Z"/><path class="cls-5" d="M380.66,573.15c-13.77,59.27,4.87,122.35,49.2,164.1,40.07,37.74,96.79,54,150.82,43.78,31.77-6,64.18-20.86,87.06-44.12,1.06-1.08-3.53-.59-4.39.29-40.63,41.32-105.88,54.07-160.45,37.87A170.51,170.51,0,0,1,385.43,572.34c.27-1.17-4.48-.46-4.77.81Z"/><path class="cls-5" d="M671.51,737.47l62.43,49.2,85.51,67.39c2.43,1.91,4.81,3.92,7.3,5.74,11,8.06,27.53,2.81,31.77-10.12.34-1-4.35-.48-4.78.81-3.33,10.18-13.6,14.11-22.42,7.65-.47-.34-.92-.72-1.38-1.08-3-2.37-6-4.76-9.05-7.13L785,821.66l-88-69.35-21-16.53c-1.07-.84-5.35,1-4.54,1.69Z"/><path class="cls-5" d="M459.46,514.75a130,130,0,0,1,116-32.65A133.58,133.58,0,0,1,680,597c.13,1,5,.06,4.83-1.29a135.57,135.57,0,0,0-57.75-95.08C595.27,479,555.35,472.11,518,481a139.26,139.26,0,0,0-62.92,34c-1.08,1,3.49.55,4.39-.29Z"/><path class="cls-1" d="M859.28,841.72a17.1,17.1,0,0,0-2.85-24L697.63,692.55A170.15,170.15,0,0,0,725.28,577.6C714.19,484,629,416.91,535.45,428s-160.69,96.25-149.6,189.83,96.25,160.69,189.83,149.6a169.94,169.94,0,0,0,93.11-41.79l6.8-6.91L835.27,844.56A17.1,17.1,0,0,0,859.28,841.72ZM688.62,582c8.69,73.36-43.92,140.12-117.28,148.81S431.21,686.85,422.52,613.49,466.43,473.36,539.8,464.67,679.92,508.58,688.62,582Z"/><path class="cls-5" d="M861.57,841.92c6.19-8.62,4.34-19.35-3.76-25.93-2.55-2.08-5.17-4.08-7.75-6.11l-35.49-28-92.84-73.16-22.22-17.52c.14.51.27,1,.41,1.53A171.66,171.66,0,0,0,686,483.82c-44.66-50.6-116.47-70.78-181-51C441.37,452.3,393,508.42,383.82,574.51c-9.38,67.7,23.54,135.91,82.05,171.06,62.9,37.8,145.44,31.09,201.51-16.37,3.62-3.07,6.87-6.48,10.2-9.87l-3.87.72,61.91,48.79,88,69.32c3.09,2.44,6.16,4.93,9.29,7.32a20.61,20.61,0,0,0,28.39-3.16c2-2.27-2.68-2.74-4-1.21-10.62,12.4-22.26.46-31.18-6.57q-18.51-14.58-37-29.17l-90.26-71.12-21.37-16.84c-1.06-.84-3.06-.12-3.87.71C624.83,767.71,547.53,780.64,484.79,751c-59.17-27.92-98-88.9-97.7-154.42.31-65,39.24-125.94,98.43-153.06,60.71-27.82,133.91-15.82,183.11,29.12C722,521.45,739,601.1,709.24,667.26a176.32,176.32,0,0,1-13.9,25.09,1.11,1.11,0,0,0,.41,1.52l57.71,45.48,86.91,68.5,12,9.46c7.72,6.09,10.87,15.49,4.61,24.2C855.54,843.53,860.45,843.47,861.57,841.92Z"/><path class="cls-5" d="M686.2,582.59c6.16,54.36-22.27,108.66-71.3,133.47-49.68,25.13-111.23,15.08-150.9-23.77-39.42-38.59-51-99.39-28.14-149.68S512.08,460.7,567.39,466c54,5.13,100.55,44.55,114.92,96.76a138.57,138.57,0,0,1,3.89,19.88c.25,2,5.1.87,4.83-1.29-7-56.45-49.63-103.69-105.29-116C530.53,453.14,472.11,477,441.16,524.26c-31.48,48.11-28.54,112.83,7.32,157.81,35.43,44.45,96.53,62.25,150.37,44.1,53.07-17.88,91.23-68,93.07-124.2A141.29,141.29,0,0,0,691,581.3C690.8,579.29,686,580.43,686.2,582.59Z"/><circle class="cls-7" cx="555.57" cy="597.72" r="133.98" transform="translate(-259.93 567.91) rotate(-45)"/><path class="cls-5" d="M540.09,463.19C484.41,470.08,437,510.62,423.2,565.3c-14.09,55.76,10,115.55,58.32,146.49,47.79,30.62,111.78,27.74,156.82-6.73,45.25-34.62,64.72-95.21,47-149.57C667.94,502,617.11,464.14,561,462.3a142.48,142.48,0,0,0-20.86.89c-2.47.27-3.92,3.33-.59,3C594,460,648,489,672.77,538s16.4,109.8-20.84,150.13c-38.15,41.32-100,53.62-151,29.79-49.58-23.17-80.65-75.79-76.59-130.43,4-54.15,42.2-102.2,94.58-117.21a134.52,134.52,0,0,1,20.55-4.13C542,465.84,543.42,462.77,540.09,463.19Z"/></g></g></svg>