<svg width="165" height="142" viewBox="0 0 165 142" fill="none" xmlns="http://www.w3.org/2000/svg">
<path d="M28.5795 131.951C14.9778 119.021 6.5 100.762 6.5 80.5263C6.5 41.3221 38.32 9.54077 77.5719 9.54077C116.824 9.54077 148.644 41.3221 148.644 80.5263C148.644 100.778 140.153 119.049 126.533 131.981" stroke="#fbfbfb" stroke-width="7.95069" stroke-linecap="round"/>
<path d="M28.5795 131.951C14.9778 119.021 6.5 100.762 6.5 80.5262C6.5 41.3221 38.32 9.54077 77.5719 9.54077C106.695 9.54077 131.726 27.0357 142.706 52.077" stroke="#e3e3e3" stroke-width="7.95069" stroke-linecap="round"/>
<g filter="url(#filter0_d_19907_1697)">
<circle cx="144.248" cy="105.347" r="9.54083" fill="#ced4da"/>
<circle cx="144.248" cy="105.347" r="11.131" stroke="white" stroke-width="3.18028"/>
</g>
<g clip-path="url(#clip0_19907_1697)">
<path d="M143.188 110.515C143.255 110.744 143.395 110.945 143.586 111.089C143.777 111.232 144.01 111.309 144.249 111.309C144.488 111.309 144.721 111.232 144.912 111.089C145.103 110.945 145.243 110.744 145.31 110.515" stroke="white" stroke-width="1.1926" stroke-linecap="round" stroke-linejoin="round"/>
<path d="M144.246 100.576V99.3838" stroke="white" stroke-width="1.1926" stroke-linecap="round" stroke-linejoin="round"/>
<path d="M144.247 100.576C145.301 100.576 146.312 100.995 147.058 101.741C147.803 102.486 148.222 103.497 148.222 104.552C148.222 108.286 149.017 108.925 149.017 108.925H139.477C139.477 108.925 140.272 107.909 140.272 104.552C140.272 103.497 140.69 102.486 141.436 101.741C142.182 100.995 143.193 100.576 144.247 100.576V100.576Z" stroke="white" stroke-width="1.1926" stroke-linecap="round" stroke-linejoin="round"/>
</g>
<g clip-path="url(#clip1_19907_1697)">
<path d="M71.0477 81.7803H62.232V78.317H71.0477V81.7803Z" fill="#ced4da"/>
<path d="M91.0853 83.2203H89.4634V78.3068C89.4634 77.0506 88.7478 76.51 87.8415 76.51C86.9669 76.51 86.1718 77.0665 86.1718 78.2273V83.2203H84.5499V78.3068C84.5499 77.0506 83.8343 76.51 82.9279 76.51C82.0216 76.51 81.2583 77.0665 81.2583 78.3068V83.2203H79.6363V75.1583H81.2265V75.9693C81.7671 75.381 82.5622 75.0629 83.3732 75.0629C84.375 75.0629 85.1541 75.4605 85.663 76.2396C86.3149 75.4446 87.1259 75.0629 88.1913 75.0629C89.0182 75.0629 89.7496 75.3332 90.2267 75.7944C90.8468 76.3986 91.0853 77.1619 91.0853 78.0683V83.2203ZM97.0953 76.7326C97.0953 78.0842 96.1094 78.7679 94.9486 78.7679C93.8355 78.7679 92.7861 78.1796 92.7701 76.7644H93.9946C94.0105 77.3845 94.4557 77.6708 94.9486 77.6708C95.4893 77.6708 95.8709 77.3209 95.8709 76.7008C95.8709 76.1283 95.537 75.7467 94.9009 75.7467H94.726V74.6972H94.9009C95.5052 74.6972 95.7914 74.3156 95.7914 73.8226C95.7914 73.2343 95.3939 72.9321 94.9327 72.9321C94.4398 72.9321 94.1059 73.2343 94.0741 73.759H92.8656C92.8974 72.5505 93.8037 71.8349 94.9327 71.8349C96.1253 71.8349 96.9999 72.63 96.9999 73.7749C96.9999 74.5064 96.666 74.9516 96.2048 75.1901C96.6978 75.4446 97.0953 75.9057 97.0953 76.7326Z" fill="#ced4da"/>
</g>
<defs>
<filter id="filter0_d_19907_1697" x="123.577" y="85.47" width="41.3428" height="41.3437" filterUnits="userSpaceOnUse" color-interpolation-filters="sRGB">
<feFlood flood-opacity="0" result="BackgroundImageFix"/>
<feColorMatrix in="SourceAlpha" type="matrix" values="0 0 0 0 0 0 0 0 0 0 0 0 0 0 0 0 0 0 127 0" result="hardAlpha"/>
<feMorphology radius="0.795069" operator="dilate" in="SourceAlpha" result="effect1_dropShadow_19907_1697"/>
<feOffset dy="0.795069"/>
<feGaussianBlur stdDeviation="3.57781"/>
<feComposite in2="hardAlpha" operator="out"/>
<feColorMatrix type="matrix" values="0 0 0 0 0.665972 0 0 0 0 0.72274 0 0 0 0 0.792361 0 0 0 0.28 0"/>
<feBlend mode="normal" in2="BackgroundImageFix" result="effect1_dropShadow_19907_1697"/>
<feBlend mode="normal" in="SourceGraphic" in2="effect1_dropShadow_19907_1697" result="shape"/>
</filter>
<clipPath id="clip0_19907_1697">
<rect width="12.7211" height="12.7211" fill="white" transform="translate(137.887 98.9862)"/>
</clipPath>
<clipPath id="clip1_19907_1697">
<rect width="37.7704" height="31" fill="white" transform="translate(60.1367 61.2203)"/>
</clipPath>
</defs>
</svg>
