<svg width="200" height="200" viewBox="0 0 200 200" fill="none" xmlns="http://www.w3.org/2000/svg">
<g clip-path="url(#clip0_2524_31251)">
<mask id="mask0_2524_31251" style="mask-type:alpha" maskUnits="userSpaceOnUse" x="0" y="0" width="200" height="200">
<circle cx="100" cy="100" r="100" fill="#F8F9FA"/>
</mask>
<g mask="url(#mask0_2524_31251)">
<circle cx="100" cy="100" r="100" fill="#E8F3FF"/>
<mask id="mask1_2524_31251" style="mask-type:alpha" maskUnits="userSpaceOnUse" x="0" y="0" width="200" height="200">
<circle cx="100" cy="100" r="100" fill="#F8F9FA"/>
</mask>
<g mask="url(#mask1_2524_31251)">
<ellipse cx="100" cy="156.5" rx="152" ry="68.5" fill="#C7DFFF"/>
</g>
<g clip-path="url(#clip1_2524_31251)">
<rect x="80" y="200" width="200" height="36.6667" transform="rotate(-90 80 200)" fill="#B5C2D1"/>
<rect opacity="0.15" x="103.333" y="196.667" width="193.333" height="10" transform="rotate(-90 103.333 196.667)" fill="white"/>
<rect x="68.3335" y="180" width="160" height="63.3333" rx="11.6667" transform="rotate(-90 68.3335 180)" fill="#EBD0B1"/>
<path d="M166.667 100C166.667 136.828 136.828 166.667 100 166.667C63.1726 166.667 33.3335 136.828 33.3335 100C33.3335 63.1727 63.1726 33.3335 100 33.3335C136.828 33.3335 166.667 63.1727 166.667 100Z" fill="#FFEBD6"/>
<g filter="url(#filter0_i_2524_31251)">
<path d="M158.333 99.9998C158.333 132.198 132.236 158.333 99.9998 158.333C67.764 158.333 41.6665 132.236 41.6665 99.9998C41.6665 67.764 67.764 41.6665 99.9998 41.6665C132.236 41.6665 158.333 67.764 158.333 99.9998Z" fill="white"/>
</g>
<circle cx="118.333" cy="110" r="10" fill="#C2D3E6"/>
<path d="M121.667 109.999C121.667 111.843 120.177 113.332 118.333 113.332C116.49 113.332 115 111.843 115 109.999C115 108.156 116.49 106.667 118.333 106.667C120.177 106.667 121.667 108.156 121.667 109.999Z" fill="#EB1C24"/>
<path d="M117.207 112.5L115.833 105.833L120.833 109.167L117.207 112.5Z" fill="#EB1C24"/>
<path d="M97.2346 105L93.3335 101.107V95.5868L97.2346 91.6667H102.766L106.667 95.5868V101.107L102.766 105H97.2346Z" fill="#C2D3E6"/>
<path d="M139.167 70.0001H60.8335C70.3469 58.7576 84.3479 51.6667 100 51.6667C115.652 51.6667 129.653 58.7943 139.167 70.0001Z" fill="#C2D3E6"/>
<path d="M69.1668 71.667H60.8335V86.667H69.1668V71.667Z" fill="#C2D3E6"/>
<path d="M79.1668 71.6672H70.8335V86.6672H79.1668V71.6672Z" fill="#C2D3E6"/>
<path d="M89.1668 71.6672H80.8335V86.6672H89.1668V71.6672Z" fill="#C2D3E6"/>
<path d="M99.1668 71.6672H90.8335V86.6672H99.1668V71.6672Z" fill="#C2D3E6"/>
<path d="M109.167 71.6672H100.833V86.6672H109.167V71.6672Z" fill="#C2D3E6"/>
<path d="M119.167 71.6672H110.833V86.6672H119.167V71.6672Z" fill="#9DABBA"/>
<path d="M129.167 71.6672H120.833V86.6672H129.167V71.6672Z" fill="#9DABBA"/>
<path d="M139.167 71.6672H130.833V86.6672H139.167V71.6672Z" fill="#9DABBA"/>
<path d="M59.2674 131.615L71.877 122.369C78.1986 128.969 89.0635 134.997 100 134.997C111.149 134.997 121.88 128.972 128.127 122.371L140.733 131.615C138.048 137.64 132.586 142.817 125.501 146.525C118.211 150.341 109.255 152.572 100 152.572C90.7459 152.572 81.7901 150.341 74.4992 146.525C67.4142 142.817 61.9519 137.64 59.2674 131.615Z" stroke="#04103D" stroke-width="1.51514"/>
<g clip-path="url(#clip2_2524_31251)">
<path d="M69.54 138.576L70.1273 136.793L67.3453 134.687L65.7875 135.736L64.6484 134.872L72.5704 129.78L73.4327 130.432L70.6791 139.439L69.54 138.576ZM71.8199 131.719L68.3513 134.015L70.5194 135.656L71.8199 131.717V131.719Z" fill="#04103D"/>
<path d="M74.3338 141.391L77.8095 134.785L75.5758 135.323L76.2287 134.081L78.45 133.566L79.5714 134.157L75.4534 141.983L74.332 141.394L74.3338 141.391Z" fill="#04103D"/>
<path d="M81.0306 144.383L83.6015 137.375L81.4582 138.204L81.9408 136.885L84.0752 136.082L85.2639 136.518L82.2176 144.82L81.0288 144.383H81.0306Z" fill="#04103D"/>
<path d="M91.1096 147.15L90.8895 145.285L87.4777 144.547L86.5072 146.155L85.1108 145.853L90.1479 137.896L91.2036 138.124L92.5023 147.453L91.106 147.152L91.1096 147.15ZM90.2863 139.971L88.1093 143.516L90.7671 144.091L90.2863 139.971Z" fill="#04103D"/>
<path d="M99.6787 147.949L99.1713 146.142L95.6867 145.943L94.9787 147.682L93.5522 147.6L97.2906 138.956L98.3693 139.016L101.103 148.029L99.6769 147.948L99.6787 147.949ZM97.7483 140.986L96.1497 144.825L98.8661 144.979L97.7501 140.986H97.7483Z" fill="#04103D"/>
<path d="M107.646 144.958C107.685 145.354 107.651 145.712 107.545 146.035C107.438 146.358 107.28 146.638 107.071 146.879C106.862 147.121 106.608 147.314 106.31 147.458C106.012 147.602 105.691 147.692 105.345 147.726C104.999 147.759 104.665 147.733 104.346 147.648C104.025 147.563 103.739 147.422 103.487 147.225C103.235 147.03 103.027 146.784 102.866 146.487C102.705 146.191 102.603 145.845 102.566 145.449L102.187 141.542C102.147 141.147 102.179 140.788 102.282 140.467C102.383 140.146 102.54 139.864 102.749 139.623C102.958 139.381 103.212 139.188 103.51 139.043C103.808 138.897 104.129 138.808 104.475 138.775C104.821 138.741 105.155 138.768 105.474 138.853C105.795 138.938 106.081 139.08 106.333 139.275C106.585 139.472 106.794 139.717 106.959 140.013C107.126 140.309 107.227 140.655 107.266 141.049L107.646 144.956V144.958ZM106.01 141.211C105.967 140.783 105.822 140.448 105.57 140.205C105.318 139.963 104.99 139.862 104.585 139.901C104.181 139.94 103.881 140.104 103.684 140.387C103.487 140.673 103.409 141.03 103.452 141.459L103.824 145.291C103.865 145.721 104.01 146.056 104.259 146.297C104.507 146.541 104.834 146.642 105.236 146.601C105.641 146.562 105.943 146.399 106.143 146.113C106.344 145.827 106.423 145.471 106.383 145.041L106.01 141.209V141.211Z" fill="#04103D"/>
<path d="M114.503 143.489C114.594 143.876 114.606 144.236 114.544 144.57C114.482 144.903 114.362 145.203 114.186 145.469C114.01 145.735 113.783 145.961 113.508 146.143C113.231 146.326 112.924 146.457 112.585 146.535C112.247 146.614 111.913 146.631 111.585 146.589C111.257 146.546 110.953 146.443 110.678 146.283C110.403 146.122 110.165 145.906 109.967 145.632C109.768 145.359 109.623 145.029 109.534 144.642L108.647 140.819C108.556 140.432 108.542 140.072 108.601 139.74C108.659 139.408 108.776 139.108 108.954 138.842C109.129 138.576 109.356 138.351 109.631 138.168C109.908 137.985 110.215 137.854 110.554 137.776C110.893 137.698 111.226 137.68 111.555 137.723C111.883 137.765 112.185 137.868 112.461 138.028C112.736 138.189 112.976 138.406 113.18 138.677C113.384 138.949 113.529 139.279 113.62 139.666L114.507 143.489H114.503ZM112.39 139.988C112.293 139.57 112.103 139.256 111.821 139.05C111.539 138.844 111.2 138.786 110.806 138.878C110.41 138.97 110.133 139.171 109.976 139.477C109.818 139.786 109.788 140.15 109.885 140.57L110.756 144.321C110.854 144.74 111.042 145.054 111.319 145.262C111.597 145.469 111.933 145.528 112.328 145.435C112.724 145.343 113.002 145.143 113.164 144.834C113.325 144.523 113.357 144.16 113.26 143.741L112.389 139.99L112.39 139.988Z" fill="#04103D"/>
<path d="M121.105 141.165C121.243 141.538 121.302 141.893 121.282 142.231C121.263 142.57 121.181 142.883 121.041 143.168C120.901 143.454 120.704 143.706 120.454 143.922C120.204 144.139 119.914 144.307 119.588 144.43C119.262 144.55 118.933 144.611 118.602 144.611C118.27 144.611 117.957 144.547 117.663 144.423C117.368 144.298 117.106 144.112 116.873 143.867C116.641 143.622 116.456 143.314 116.318 142.941L114.95 139.263C114.812 138.89 114.75 138.536 114.766 138.199C114.782 137.861 114.86 137.549 115.002 137.264C115.142 136.978 115.339 136.726 115.589 136.509C115.839 136.293 116.128 136.124 116.455 136.002C116.781 135.881 117.109 135.821 117.441 135.821C117.773 135.821 118.085 135.885 118.38 136.009C118.674 136.133 118.939 136.318 119.175 136.561C119.411 136.804 119.599 137.113 119.737 137.485L121.105 141.163V141.165ZM118.563 137.963C118.413 137.56 118.185 137.272 117.879 137.104C117.574 136.935 117.23 136.921 116.85 137.063C116.471 137.205 116.221 137.437 116.103 137.764C115.986 138.09 116.002 138.456 116.153 138.859L117.494 142.467C117.645 142.87 117.871 143.158 118.172 143.328C118.474 143.498 118.814 143.512 119.196 143.372C119.576 143.23 119.828 142.996 119.948 142.67C120.069 142.341 120.055 141.976 119.906 141.573L118.564 137.964L118.563 137.963Z" fill="#04103D"/>
<path d="M127.36 137.988C127.547 138.339 127.653 138.683 127.678 139.022C127.703 139.361 127.666 139.68 127.563 139.984C127.462 140.287 127.3 140.562 127.08 140.81C126.86 141.059 126.597 141.265 126.291 141.428C125.984 141.591 125.666 141.694 125.336 141.738C125.006 141.783 124.69 141.761 124.381 141.676C124.074 141.591 123.789 141.444 123.526 141.231C123.264 141.02 123.038 140.738 122.852 140.386L121.009 136.921C120.822 136.57 120.714 136.228 120.686 135.89C120.657 135.553 120.693 135.234 120.796 134.932C120.897 134.629 121.058 134.354 121.278 134.106C121.498 133.857 121.761 133.651 122.068 133.488C122.375 133.325 122.692 133.222 123.021 133.178C123.349 133.133 123.666 133.155 123.975 133.24C124.282 133.325 124.57 133.472 124.837 133.681C125.105 133.891 125.331 134.171 125.517 134.522L127.36 137.988ZM124.417 135.151C124.215 134.771 123.95 134.517 123.626 134.389C123.301 134.262 122.958 134.294 122.6 134.485C122.242 134.675 122.027 134.941 121.953 135.28C121.88 135.619 121.944 135.979 122.146 136.359L123.954 139.758C124.156 140.138 124.419 140.393 124.74 140.521C125.061 140.651 125.402 140.619 125.76 140.429C126.118 140.239 126.335 139.973 126.413 139.632C126.489 139.292 126.427 138.931 126.225 138.55L124.417 135.151Z" fill="#04103D"/>
<path d="M133.129 133.903C133.366 134.223 133.523 134.547 133.597 134.877C133.673 135.207 133.682 135.53 133.627 135.844C133.572 136.158 133.455 136.455 133.274 136.733C133.093 137.012 132.864 137.255 132.586 137.462C132.307 137.67 132.007 137.819 131.69 137.911C131.372 138.003 131.055 138.03 130.737 137.993C130.419 137.956 130.116 137.851 129.825 137.681C129.534 137.51 129.27 137.265 129.032 136.948L126.69 133.799C126.452 133.479 126.294 133.156 126.216 132.828C126.136 132.5 126.126 132.179 126.181 131.865C126.236 131.551 126.353 131.254 126.534 130.976C126.715 130.697 126.944 130.454 127.222 130.246C127.501 130.039 127.801 129.89 128.118 129.798C128.436 129.705 128.753 129.679 129.071 129.716C129.389 129.753 129.694 129.856 129.988 130.025C130.283 130.193 130.549 130.436 130.787 130.754L133.129 133.903ZM129.793 131.538C129.536 131.192 129.238 130.981 128.897 130.905C128.556 130.828 128.223 130.91 127.898 131.153C127.574 131.396 127.4 131.689 127.378 132.035C127.357 132.381 127.474 132.727 127.731 133.073L130.027 136.164C130.285 136.51 130.581 136.721 130.918 136.801C131.255 136.88 131.587 136.799 131.913 136.556C132.238 136.314 132.414 136.018 132.439 135.67C132.463 135.323 132.348 134.975 132.091 134.629L129.793 131.538Z" fill="#04103D"/>
</g>
</g>
</g>
</g>
<defs>
<filter id="filter0_i_2524_31251" x="41.6665" y="41.6665" width="116.667" height="116.667" filterUnits="userSpaceOnUse" color-interpolation-filters="sRGB">
<feFlood flood-opacity="0" result="BackgroundImageFix"/>
<feBlend mode="normal" in="SourceGraphic" in2="BackgroundImageFix" result="shape"/>
<feColorMatrix in="SourceAlpha" type="matrix" values="0 0 0 0 0 0 0 0 0 0 0 0 0 0 0 0 0 0 127 0" result="hardAlpha"/>
<feOffset dy="2.68531"/>
<feComposite in2="hardAlpha" operator="arithmetic" k2="-1" k3="1"/>
<feColorMatrix type="matrix" values="0 0 0 0 0.321569 0 0 0 0 0.352941 0 0 0 0 0.380392 0 0 0 0.3 0"/>
<feBlend mode="normal" in2="shape" result="effect1_innerShadow_2524_31251"/>
</filter>
<clipPath id="clip0_2524_31251">
<rect width="200" height="200" fill="white"/>
</clipPath>
<clipPath id="clip1_2524_31251">
<rect width="200" height="200" fill="white"/>
</clipPath>
<clipPath id="clip2_2524_31251">
<rect width="69.0162" height="18.3333" fill="white" transform="translate(64.6484 129.698)"/>
</clipPath>
</defs>
</svg>
