<svg width="200" height="200" viewBox="0 0 200 200" fill="none" xmlns="http://www.w3.org/2000/svg">
<g clip-path="url(#clip0_2524_31250)">
<mask id="mask0_2524_31250" style="mask-type:alpha" maskUnits="userSpaceOnUse" x="0" y="0" width="200" height="200">
<circle cx="100" cy="100" r="100" fill="#F8F9FA"/>
</mask>
<g mask="url(#mask0_2524_31250)">
<circle cx="100" cy="100" r="100" fill="#E8F3FF"/>
<mask id="mask1_2524_31250" style="mask-type:alpha" maskUnits="userSpaceOnUse" x="0" y="0" width="200" height="200">
<circle cx="100" cy="100" r="100" fill="#F8F9FA"/>
</mask>
<g mask="url(#mask1_2524_31250)">
<ellipse cx="100" cy="156.5" rx="152" ry="68.5" fill="#C7DFFF"/>
</g>
<rect x="15.1475" y="158.235" width="200" height="36.6667" transform="rotate(-45 15.1475 158.235)" fill="#B5C2D1"/>
<rect opacity="0.15" x="34.0029" y="172.377" width="193.333" height="10" transform="rotate(-45 34.0029 172.377)" fill="white"/>
<rect x="21.04" y="135.843" width="160" height="63.3333" rx="11.6667" transform="rotate(-45 21.04 135.843)" fill="#046ACE"/>
<path d="M166.667 100C166.667 136.828 136.828 166.667 100 166.667C63.1726 166.667 33.3335 136.828 33.3335 100C33.3335 63.1727 63.1726 33.3335 100 33.3335C136.828 33.3335 166.667 63.1727 166.667 100Z" fill="#0475E5"/>
<g filter="url(#filter0_i_2524_31250)">
<path d="M158.333 99.9998C158.333 132.198 132.236 158.333 99.9998 158.333C67.764 158.333 41.6665 132.236 41.6665 99.9998C41.6665 67.764 67.764 41.6665 99.9998 41.6665C132.236 41.6665 158.333 67.764 158.333 99.9998Z" fill="white"/>
</g>
<path d="M105 113.333H58.3335V116.667H105V113.333Z" fill="#C2D3E6"/>
<path d="M100.334 120.833H58.3335V124.166H100.334V120.833Z" fill="#C2D3E6"/>
<path d="M93.3335 128.333H58.3335V131.666H93.3335V128.333Z" fill="#C2D3E6"/>
<g clip-path="url(#clip1_2524_31250)">
<path d="M124.166 143.333C132.91 143.333 139.999 136.245 139.999 127.5C139.999 118.756 132.91 111.667 124.166 111.667C115.422 111.667 108.333 118.756 108.333 127.5C108.333 136.245 115.422 143.333 124.166 143.333Z" fill="#C2D3E5"/>
<path d="M124.167 113.333V141.667" stroke="#777C95" stroke-width="0.833333" stroke-linecap="round"/>
<path d="M138.333 127.5L110 127.5" stroke="#777C95" stroke-width="0.833333" stroke-linecap="round"/>
<path d="M134.184 137.517L114.149 117.483" stroke="#777C95" stroke-width="0.833333" stroke-linecap="round"/>
<path d="M114.151 137.518L134.186 117.483" stroke="#777C95" stroke-width="0.833333" stroke-linecap="round"/>
<path d="M135.833 127.502C135.833 133.932 130.596 139.17 124.167 139.17C117.737 139.17 112.5 133.932 112.5 127.502C112.5 121.072 117.737 115.833 124.167 115.833C130.596 115.833 135.833 121.072 135.833 127.502Z" fill="white"/>
<path d="M128.333 127.502C128.333 129.808 126.471 131.671 124.167 131.671C121.862 131.671 120 129.808 120 127.502C120 125.196 121.862 123.333 124.167 123.333C126.471 123.333 128.333 125.196 128.333 127.502Z" fill="#CE1C04"/>
<path d="M121.191 128.291L118.333 121.625L125 124.482L123.095 126.386L121.191 128.291Z" fill="#CE1C04"/>
</g>
<path d="M67.0835 91.6667H58.3335V106.667H67.0835V91.6667Z" fill="#C2D3E6"/>
<path d="M77.4805 91.6667H68.7305V106.667H77.4805V91.6667Z" fill="#C2D3E6"/>
<path d="M87.8774 91.6667H79.1274V106.667H87.8774V91.6667Z" fill="#C2D3E6"/>
<path d="M98.2749 91.6667H89.5249V106.667H98.2749V91.6667Z" fill="#C2D3E6"/>
<path d="M108.672 91.6667H99.9219V106.667H108.672V91.6667Z" fill="#C2D3E6"/>
<path d="M119.069 91.6667H110.319V106.667H119.069V91.6667Z" fill="#9DABBA"/>
<path d="M129.466 91.6667H120.716V106.667H129.466V91.6667Z" fill="#9DABBA"/>
<path d="M140 91.6667H131.25V106.667H140V91.6667Z" fill="#9DABBA"/>
<path d="M69.1902 81.5L68.6185 79.8317H65.3402L64.7685 81.5H63.4268L66.4718 73.1933H67.4868L70.5318 81.5H69.1902ZM67.0085 75.0717L65.7135 78.7583H68.2685L67.0085 75.0717ZM73.5768 81.5V74.4883L71.9552 75.9117V74.5933L73.5768 73.1933H74.7668V81.5H73.5768ZM79.7975 81.5V74.4883L78.1759 75.9117V74.5933L79.7975 73.1933H80.9875V81.5H79.7975ZM88.9232 81.5L88.3516 79.8317H85.0732L84.5016 81.5H83.1599L86.2049 73.1933H87.2199L90.2649 81.5H88.9232ZM86.7416 75.0717L85.4466 78.7583H88.0016L86.7416 75.0717ZM96.2149 81.5L95.6432 79.8317H92.3649L91.7932 81.5H90.4516L93.4966 73.1933H94.5116L97.5566 81.5H96.2149ZM94.0332 75.0717L92.7382 78.7583H95.2932L94.0332 75.0717ZM103.157 79.19C103.157 79.5633 103.09 79.8978 102.958 80.1933C102.834 80.4811 102.663 80.73 102.445 80.94C102.227 81.1422 101.97 81.2978 101.675 81.4067C101.387 81.5156 101.08 81.57 100.753 81.57C100.427 81.57 100.115 81.5156 99.8199 81.4067C99.5321 81.2978 99.2793 81.1422 99.0616 80.94C98.8438 80.73 98.6727 80.4811 98.5482 80.1933C98.4238 79.8978 98.3616 79.5633 98.3616 79.19V75.5033C98.3616 75.13 98.4238 74.7994 98.5482 74.5117C98.6727 74.2161 98.8438 73.9672 99.0616 73.765C99.2793 73.555 99.5321 73.3956 99.8199 73.2867C100.115 73.1778 100.427 73.1233 100.753 73.1233C101.08 73.1233 101.387 73.1778 101.675 73.2867C101.97 73.3956 102.227 73.555 102.445 73.765C102.663 73.9672 102.834 74.2161 102.958 74.5117C103.09 74.7994 103.157 75.13 103.157 75.5033V79.19ZM101.967 75.5383C101.967 75.1339 101.858 74.8072 101.64 74.5583C101.43 74.3094 101.134 74.185 100.753 74.185C100.372 74.185 100.077 74.3094 99.8666 74.5583C99.6566 74.8072 99.5516 75.1339 99.5516 75.5383V79.155C99.5516 79.5594 99.6566 79.8861 99.8666 80.135C100.077 80.3839 100.372 80.5083 100.753 80.5083C101.134 80.5083 101.43 80.3839 101.64 80.135C101.858 79.8861 101.967 79.5594 101.967 79.155V75.5383ZM109.377 79.19C109.377 79.5633 109.311 79.8978 109.179 80.1933C109.054 80.4811 108.883 80.73 108.666 80.94C108.448 81.1422 108.191 81.2978 107.896 81.4067C107.608 81.5156 107.301 81.57 106.974 81.57C106.647 81.57 106.336 81.5156 106.041 81.4067C105.753 81.2978 105.5 81.1422 105.282 80.94C105.064 80.73 104.893 80.4811 104.769 80.1933C104.644 79.8978 104.582 79.5633 104.582 79.19V75.5033C104.582 75.13 104.644 74.7994 104.769 74.5117C104.893 74.2161 105.064 73.9672 105.282 73.765C105.5 73.555 105.753 73.3956 106.041 73.2867C106.336 73.1778 106.647 73.1233 106.974 73.1233C107.301 73.1233 107.608 73.1778 107.896 73.2867C108.191 73.3956 108.448 73.555 108.666 73.765C108.883 73.9672 109.054 74.2161 109.179 74.5117C109.311 74.7994 109.377 75.13 109.377 75.5033V79.19ZM108.187 75.5383C108.187 75.1339 108.078 74.8072 107.861 74.5583C107.651 74.3094 107.355 74.185 106.974 74.185C106.593 74.185 106.297 74.3094 106.087 74.5583C105.877 74.8072 105.772 75.1339 105.772 75.5383V79.155C105.772 79.5594 105.877 79.8861 106.087 80.135C106.297 80.3839 106.593 80.5083 106.974 80.5083C107.355 80.5083 107.651 80.3839 107.861 80.135C108.078 79.8861 108.187 79.5594 108.187 79.155V75.5383ZM115.598 79.19C115.598 79.5633 115.532 79.8978 115.4 80.1933C115.275 80.4811 115.104 80.73 114.886 80.94C114.669 81.1422 114.412 81.2978 114.116 81.4067C113.829 81.5156 113.521 81.57 113.195 81.57C112.868 81.57 112.557 81.5156 112.261 81.4067C111.974 81.2978 111.721 81.1422 111.503 80.94C111.285 80.73 111.114 80.4811 110.99 80.1933C110.865 79.8978 110.803 79.5633 110.803 79.19V75.5033C110.803 75.13 110.865 74.7994 110.99 74.5117C111.114 74.2161 111.285 73.9672 111.503 73.765C111.721 73.555 111.974 73.3956 112.261 73.2867C112.557 73.1778 112.868 73.1233 113.195 73.1233C113.521 73.1233 113.829 73.1778 114.116 73.2867C114.412 73.3956 114.669 73.555 114.886 73.765C115.104 73.9672 115.275 74.2161 115.4 74.5117C115.532 74.7994 115.598 75.13 115.598 75.5033V79.19ZM114.408 75.5383C114.408 75.1339 114.299 74.8072 114.081 74.5583C113.871 74.3094 113.576 74.185 113.195 74.185C112.814 74.185 112.518 74.3094 112.308 74.5583C112.098 74.8072 111.993 75.1339 111.993 75.5383V79.155C111.993 79.5594 112.098 79.8861 112.308 80.135C112.518 80.3839 112.814 80.5083 113.195 80.5083C113.576 80.5083 113.871 80.3839 114.081 80.135C114.299 79.8861 114.408 79.5594 114.408 79.155V75.5383ZM121.819 79.19C121.819 79.5633 121.753 79.8978 121.62 80.1933C121.496 80.4811 121.325 80.73 121.107 80.94C120.889 81.1422 120.633 81.2978 120.337 81.4067C120.049 81.5156 119.742 81.57 119.415 81.57C119.089 81.57 118.778 81.5156 118.482 81.4067C118.194 81.2978 117.941 81.1422 117.724 80.94C117.506 80.73 117.335 80.4811 117.21 80.1933C117.086 79.8978 117.024 79.5633 117.024 79.19V75.5033C117.024 75.13 117.086 74.7994 117.21 74.5117C117.335 74.2161 117.506 73.9672 117.724 73.765C117.941 73.555 118.194 73.3956 118.482 73.2867C118.778 73.1778 119.089 73.1233 119.415 73.1233C119.742 73.1233 120.049 73.1778 120.337 73.2867C120.633 73.3956 120.889 73.555 121.107 73.765C121.325 73.9672 121.496 74.2161 121.62 74.5117C121.753 74.7994 121.819 75.13 121.819 75.5033V79.19ZM120.629 75.5383C120.629 75.1339 120.52 74.8072 120.302 74.5583C120.092 74.3094 119.796 74.185 119.415 74.185C119.034 74.185 118.739 74.3094 118.529 74.5583C118.319 74.8072 118.214 75.1339 118.214 75.5383V79.155C118.214 79.5594 118.319 79.8861 118.529 80.135C118.739 80.3839 119.034 80.5083 119.415 80.5083C119.796 80.5083 120.092 80.3839 120.302 80.135C120.52 79.8861 120.629 79.5594 120.629 79.155V75.5383ZM128.039 79.19C128.039 79.5633 127.973 79.8978 127.841 80.1933C127.717 80.4811 127.545 80.73 127.328 80.94C127.11 81.1422 126.853 81.2978 126.558 81.4067C126.27 81.5156 125.963 81.57 125.636 81.57C125.309 81.57 124.998 81.5156 124.703 81.4067C124.415 81.2978 124.162 81.1422 123.944 80.94C123.727 80.73 123.555 80.4811 123.431 80.1933C123.307 79.8978 123.244 79.5633 123.244 79.19V75.5033C123.244 75.13 123.307 74.7994 123.431 74.5117C123.555 74.2161 123.727 73.9672 123.944 73.765C124.162 73.555 124.415 73.3956 124.703 73.2867C124.998 73.1778 125.309 73.1233 125.636 73.1233C125.963 73.1233 126.27 73.1778 126.558 73.2867C126.853 73.3956 127.11 73.555 127.328 73.765C127.545 73.9672 127.717 74.2161 127.841 74.5117C127.973 74.7994 128.039 75.13 128.039 75.5033V79.19ZM126.849 75.5383C126.849 75.1339 126.74 74.8072 126.523 74.5583C126.313 74.3094 126.017 74.185 125.636 74.185C125.255 74.185 124.959 74.3094 124.749 74.5583C124.539 74.8072 124.434 75.1339 124.434 75.5383V79.155C124.434 79.5594 124.539 79.8861 124.749 80.135C124.959 80.3839 125.255 80.5083 125.636 80.5083C126.017 80.5083 126.313 80.3839 126.523 80.135C126.74 79.8861 126.849 79.5594 126.849 79.155V75.5383ZM134.26 79.19C134.26 79.5633 134.194 79.8978 134.062 80.1933C133.937 80.4811 133.766 80.73 133.548 80.94C133.331 81.1422 133.074 81.2978 132.778 81.4067C132.491 81.5156 132.183 81.57 131.857 81.57C131.53 81.57 131.219 81.5156 130.923 81.4067C130.636 81.2978 130.383 81.1422 130.165 80.94C129.947 80.73 129.776 80.4811 129.652 80.1933C129.527 79.8978 129.465 79.5633 129.465 79.19V75.5033C129.465 75.13 129.527 74.7994 129.652 74.5117C129.776 74.2161 129.947 73.9672 130.165 73.765C130.383 73.555 130.636 73.3956 130.923 73.2867C131.219 73.1778 131.53 73.1233 131.857 73.1233C132.183 73.1233 132.491 73.1778 132.778 73.2867C133.074 73.3956 133.331 73.555 133.548 73.765C133.766 73.9672 133.937 74.2161 134.062 74.5117C134.194 74.7994 134.26 75.13 134.26 75.5033V79.19ZM133.07 75.5383C133.07 75.1339 132.961 74.8072 132.743 74.5583C132.533 74.3094 132.238 74.185 131.857 74.185C131.476 74.185 131.18 74.3094 130.97 74.5583C130.76 74.8072 130.655 75.1339 130.655 75.5383V79.155C130.655 79.5594 130.76 79.8861 130.97 80.135C131.18 80.3839 131.476 80.5083 131.857 80.5083C132.238 80.5083 132.533 80.3839 132.743 80.135C132.961 79.8861 133.07 79.5594 133.07 79.155V75.5383Z" fill="#04103D"/>
<rect x="59.1668" y="67.5001" width="80" height="18.3333" stroke="#04103D" stroke-width="1.66667"/>
</g>
</g>
<defs>
<filter id="filter0_i_2524_31250" x="41.6665" y="41.6665" width="116.667" height="116.667" filterUnits="userSpaceOnUse" color-interpolation-filters="sRGB">
<feFlood flood-opacity="0" result="BackgroundImageFix"/>
<feBlend mode="normal" in="SourceGraphic" in2="BackgroundImageFix" result="shape"/>
<feColorMatrix in="SourceAlpha" type="matrix" values="0 0 0 0 0 0 0 0 0 0 0 0 0 0 0 0 0 0 127 0" result="hardAlpha"/>
<feOffset dy="2.68531"/>
<feComposite in2="hardAlpha" operator="arithmetic" k2="-1" k3="1"/>
<feColorMatrix type="matrix" values="0 0 0 0 0.321569 0 0 0 0 0.352941 0 0 0 0 0.380392 0 0 0 0.3 0"/>
<feBlend mode="normal" in2="shape" result="effect1_innerShadow_2524_31250"/>
</filter>
<clipPath id="clip0_2524_31250">
<rect width="200" height="200" fill="white"/>
</clipPath>
<clipPath id="clip1_2524_31250">
<rect width="31.6667" height="31.6667" fill="white" transform="translate(108.333 111.667)"/>
</clipPath>
</defs>
</svg>
