<svg width="32" height="32" viewBox="0 0 32 32" fill="none" xmlns="http://www.w3.org/2000/svg">
<g clip-path="url(#clip0_18331_3375)">
<g clip-path="url(#clip1_18331_3375)">
<path d="M16 0C12.8355 0 9.74207 0.938384 7.11088 2.69649C4.4797 4.45459 2.42894 6.95345 1.21793 9.87707C0.00693258 12.8007 -0.309921 16.0177 0.307443 19.1214C0.924806 22.2251 2.44866 25.0761 4.6863 27.3137C6.92394 29.5514 9.77487 31.0752 12.8786 31.6926C15.9823 32.3099 19.1993 31.9931 22.1229 30.7821C25.0466 29.5711 27.5454 27.5203 29.3035 24.8891C31.0616 22.2579 32 19.1645 32 16C32 11.7565 30.3143 7.68687 27.3137 4.68629C24.3131 1.68571 20.2435 0 16 0V0ZM18.6667 11.1867C19.1087 11.1867 19.5326 11.3623 19.8452 11.6748C20.1577 11.9874 20.3333 12.4113 20.3333 12.8533C20.3333 13.2954 20.1577 13.7193 19.8452 14.0318C19.5326 14.3444 19.1087 14.52 18.6667 14.52H12.84C12.7573 14.5163 12.6763 14.5447 12.6142 14.5994C12.552 14.6541 12.5135 14.7308 12.5067 14.8133C12.4858 15.2086 12.4858 15.6047 12.5067 16V16.4667C12.5101 16.5527 12.5468 16.6341 12.6089 16.6938C12.671 16.7535 12.7539 16.7867 12.84 16.7867H17.08C17.522 16.7867 17.946 16.9623 18.2585 17.2748C18.5711 17.5874 18.7467 18.0113 18.7467 18.4533C18.7467 18.8954 18.5711 19.3193 18.2585 19.6318C17.946 19.9444 17.522 20.12 17.08 20.12H13.9867C13.9235 20.1207 13.8619 20.14 13.8097 20.1756C13.7575 20.2112 13.717 20.2614 13.6933 20.32C13.6584 20.371 13.6397 20.4315 13.6397 20.4933C13.6397 20.5552 13.6584 20.6156 13.6933 20.6667C15.0267 22.2933 17.32 23 21 23C21.442 23 21.866 23.1756 22.1785 23.4882C22.4911 23.8007 22.6667 24.2246 22.6667 24.6667C22.6667 25.1087 22.4911 25.5326 22.1785 25.8452C21.866 26.1577 21.442 26.3333 21 26.3333C18.5467 26.3333 11.9467 26.3333 9.78667 20.3467C9.76488 20.2821 9.72379 20.2257 9.66896 20.1852C9.61412 20.1446 9.54817 20.1219 9.48001 20.12H8.36001C7.91798 20.12 7.49406 19.9444 7.1815 19.6318C6.86894 19.3193 6.69334 18.8954 6.69334 18.4533C6.69334 18.0113 6.86894 17.5874 7.1815 17.2748C7.49406 16.9623 7.91798 16.7867 8.36001 16.7867H8.80001C8.84751 16.7888 8.89489 16.7804 8.93871 16.7619C8.98253 16.7435 9.02169 16.7155 9.05334 16.68C9.08298 16.648 9.10545 16.61 9.11924 16.5686C9.13304 16.5272 9.13784 16.4834 9.13334 16.44C9.13334 16.2933 9.13334 16.1467 9.13334 16C9.13334 15.6 9.13334 15.24 9.13334 14.88C9.1439 14.8047 9.12477 14.7282 9.08001 14.6667C9.04931 14.6336 9.01221 14.607 8.97095 14.5887C8.9297 14.5704 8.88515 14.5606 8.84001 14.56H8.41334C7.97131 14.56 7.54739 14.3844 7.23483 14.0718C6.92227 13.7593 6.74667 13.3354 6.74667 12.8933C6.74667 12.4513 6.92227 12.0274 7.23483 11.7148C7.54739 11.4023 7.97131 11.2267 8.41334 11.2267H9.74667C9.81173 11.2269 9.87543 11.2081 9.92992 11.1725C9.98442 11.137 10.0273 11.0863 10.0533 11.0267C12.4267 5.69333 18.6533 5.69333 21.0133 5.69333C21.4554 5.69333 21.8793 5.86893 22.1919 6.18149C22.5044 6.49405 22.68 6.91797 22.68 7.36C22.68 7.80203 22.5044 8.22595 22.1919 8.53851C21.8793 8.85107 21.4554 9.02667 21.0133 9.02667C17.9467 9.02667 15.8267 9.50667 14.4533 10.6133C14.3971 10.6553 14.3562 10.7145 14.3369 10.782C14.3176 10.8494 14.3211 10.9214 14.3467 10.9867C14.3685 11.0513 14.4096 11.1077 14.4644 11.1482C14.5192 11.1887 14.5852 11.2115 14.6533 11.2133L18.6667 11.1867Z" fill="#59B9FF"/>
</g>
</g>
<defs>
<clipPath id="clip0_18331_3375">
<rect width="32" height="32" fill="white"/>
</clipPath>
<clipPath id="clip1_18331_3375">
<rect width="32" height="32" fill="white"/>
</clipPath>
</defs>
</svg>
