<svg width="24" height="24" viewBox="0 0 24 24" fill="none" xmlns="http://www.w3.org/2000/svg">
<path d="M0.75 20.25C0.75 21.0456 1.06607 21.8087 1.62868 22.3713C2.19129 22.9339 2.95435 23.25 3.75 23.25C4.54565 23.25 5.30871 22.9339 5.87132 22.3713C6.43393 21.8087 6.75 21.0456 6.75 20.25C6.75 19.4544 6.43393 18.6913 5.87132 18.1287C5.30871 17.5661 4.54565 17.25 3.75 17.25C2.95435 17.25 2.19129 17.5661 1.62868 18.1287C1.06607 18.6913 0.75 19.4544 0.75 20.25V20.25Z" stroke="#030F40" stroke-width="1.5" stroke-linecap="round" stroke-linejoin="round"/>
<path d="M6.75 20.25H14.25V22.5" stroke="#030F40" stroke-width="1.5" stroke-linecap="round" stroke-linejoin="round"/>
<path d="M11.25 20.25V21.75" stroke="#030F40" stroke-width="1.5" stroke-linecap="round" stroke-linejoin="round"/>
<path d="M6.75 15V11.25C6.75 10.8522 6.90804 10.4706 7.18934 10.1893C7.47064 9.90804 7.85218 9.75 8.25 9.75H21.75C22.1478 9.75 22.5294 9.90804 22.8107 10.1893C23.092 10.4706 23.25 10.8522 23.25 11.25V21.75C23.25 22.1478 23.092 22.5294 22.8107 22.8107C22.5294 23.092 22.1478 23.25 21.75 23.25H17.25" stroke="#030F40" stroke-width="1.5" stroke-linecap="round" stroke-linejoin="round"/>
<path d="M9.75 9.75V6C9.75 4.60761 10.3031 3.27226 11.2877 2.28769C12.2723 1.30312 13.6076 0.75 15 0.75C16.3924 0.75 17.7277 1.30312 18.7123 2.28769C19.6969 3.27226 20.25 4.60761 20.25 6V9.75" stroke="#030F40" stroke-width="1.5" stroke-linecap="round" stroke-linejoin="round"/>
<path d="M12.914 17.3429C12.76 16.9622 12.7131 16.5466 12.7784 16.1411C12.8437 15.7356 13.0188 15.3558 13.2846 15.0427C13.5505 14.7296 13.8969 14.4953 14.2865 14.3651C14.676 14.2349 15.0937 14.2138 15.4944 14.3041C15.895 14.3943 16.2633 14.5926 16.5593 14.8772C16.8554 15.1619 17.0678 15.5222 17.1737 15.919C17.2796 16.3158 17.2748 16.7341 17.1599 17.1284C17.0451 17.5227 16.8244 17.878 16.522 18.1559" stroke="#030F40" stroke-width="1.5" stroke-linecap="round" stroke-linejoin="round"/>
</svg>
