<svg width="40" height="40" viewBox="0 0 40 40" fill="none" xmlns="http://www.w3.org/2000/svg">
<path d="M17.5 37.5H22.5" stroke="#030F40" stroke-width="2.5" stroke-linecap="round" stroke-linejoin="round"/>
<path d="M29.9999 19.9999C30.0066 18.128 29.4878 16.2919 28.5025 14.7004C27.5172 13.1088 26.105 11.8258 24.4265 10.9972C22.748 10.1686 20.8707 9.82776 19.0081 10.0134C17.1455 10.1991 15.3723 10.9038 13.8905 12.0475C12.4086 13.1911 11.2774 14.7277 10.6257 16.4824C9.97397 18.2371 9.82783 20.1396 10.2039 21.9732C10.58 23.8069 11.4632 25.4982 12.753 26.8548C14.0428 28.2113 15.6875 29.1786 17.4999 29.6466V32.4999H22.4999V29.6466C24.6426 29.0975 26.542 27.8519 27.8996 26.1058C29.2572 24.3596 29.996 22.2117 29.9999 19.9999V19.9999Z" stroke="#030F40" stroke-width="2.5" stroke-linecap="round" stroke-linejoin="round"/>
<path d="M20 5V2.5" stroke="#030F40" stroke-width="2.5" stroke-linecap="round" stroke-linejoin="round"/>
<path d="M35 17.5H37.5" stroke="#030F40" stroke-width="2.5" stroke-linecap="round" stroke-linejoin="round"/>
<path d="M2.5 20H5" stroke="#030F40" stroke-width="2.5" stroke-linecap="round" stroke-linejoin="round"/>
<path d="M30.6074 29.3567L32.3758 31.125" stroke="#030F40" stroke-width="2.5" stroke-linecap="round" stroke-linejoin="round"/>
<path d="M7.625 6.375L9.39333 8.14333" stroke="#030F40" stroke-width="2.5" stroke-linecap="round" stroke-linejoin="round"/>
<path d="M30.6074 8.14333L32.3758 6.375" stroke="#030F40" stroke-width="2.5" stroke-linecap="round" stroke-linejoin="round"/>
<path d="M7.625 31.125L9.39333 29.3567" stroke="#030F40" stroke-width="2.5" stroke-linecap="round" stroke-linejoin="round"/>
</svg>
