<svg width="40" height="40" viewBox="0 0 40 40" fill="none" xmlns="http://www.w3.org/2000/svg">
<path d="M20 11.25C22.7614 11.25 25 9.01142 25 6.25C25 3.48858 22.7614 1.25 20 1.25C17.2386 1.25 15 3.48858 15 6.25C15 9.01142 17.2386 11.25 20 11.25Z" stroke="#3D466C" stroke-width="2.5"/>
<path d="M16.6839 30.1647C16.6331 29.6416 16.2604 29.2061 15.7513 29.0751L12.9167 28.3458V18.0952C12.9167 16.1264 14.4668 14.5833 16.2963 14.5833H23.7037C25.5332 14.5833 27.0833 16.1264 27.0833 18.0952V28.3458L24.2487 29.0751C23.7396 29.2061 23.3669 29.6416 23.316 30.1647L22.4814 38.75H17.5186L16.6839 30.1647Z" stroke="#3D466C" stroke-width="2.5" stroke-linejoin="round"/>
</svg>
