<svg xmlns="http://www.w3.org/2000/svg" xmlns:xlink="http://www.w3.org/1999/xlink" viewBox="0 0 1497.63 1400"><defs><style>.cls-1{fill:none;}.cls-2{fill:#f2f2f2;}.cls-3{fill:#fff;}.cls-4{fill:#767c97;}.cls-5{fill:#f0f9fc;}.cls-6{clip-path:url(#clip-path);}.cls-7{fill:#bbdff5;}.cls-8{fill:#ff9c81;}.cls-9{fill:#ddd;}</style><clipPath id="clip-path"><rect class="cls-1" x="491.91" y="647.85" width="662.08" height="391.76"/></clipPath></defs><title>server-error</title><g id="Calque_2" data-name="Calque 2"><g id="ëÎÓÈ_3" data-name="ëÎÓÈ 3"><rect class="cls-1" width="1400" height="1400"/></g><g id="ëÎÓÈ_4" data-name="ëÎÓÈ 4"><path class="cls-2" d="M1081.52,797.21a203.18,203.18,0,0,0,31.74-19l48.11,21.51,45.36-55.15L1176.65,702a203.87,203.87,0,0,0,13.68-37.64L1240,650.19l-.7-71.4L1190.85,566a202.41,202.41,0,0,0-14-39.1c-.14-.29-.3-.57-.44-.87l27.72-40.95-46.44-54.25-43.44,20.46a203.11,203.11,0,0,0-38.85-22.36l-4.9-47.28L1000.06,370l-19.51,42.27a201.14,201.14,0,0,0-45.65,8.3l-33.24-32.2-61.48,36.31,12.2,44.86a201.82,201.82,0,0,0-29,35.81L776.61,502,752.85,569.3l39.37,27.34a201.1,201.1,0,0,0,.91,44.31l-39.27,28.44,25.08,66.86,49.86-4.56a200.19,200.19,0,0,0,27.6,31.4l-12.35,49.19,62.19,35.09,36.7-37a204,204,0,0,0,39.16,6.26L1005,863.76l70.2-13.09,4.4-52.59C1080.23,797.78,1080.88,797.52,1081.52,797.21ZM907.64,583.37A93.64,93.64,0,1,1,964.8,702.82,93.64,93.64,0,0,1,907.64,583.37Z"/><path class="cls-2" d="M648,660.28a96.86,96.86,0,0,0,16.69-5.62l20.22,14.87,26.68-21.09-9.7-22.87a96.89,96.89,0,0,0,10.17-16.13l24.55-1.58,6.88-33.3-21.26-10.84a96.27,96.27,0,0,0-2.57-19.62c0-.15-.08-.29-.12-.44l17-16.27-16.13-29.93-22.29,5.13a96.77,96.77,0,0,0-15.82-14.33l2.49-22.49-31.6-12.57-13.35,17.71a95.58,95.58,0,0,0-22.08-.75l-12.22-18.34L573.3,462.51l1.15,22.11a96.42,96.42,0,0,0-17.14,13.73l-21.4-6.27L518.05,521l15.56,16.7a96.09,96.09,0,0,0-4.05,20.72l-21.15,9.27,4.92,33.65L537,604.27a95,95,0,0,0,9.67,17.4L536,643.32l25.4,22.61,20.82-13.51a95.8,95.8,0,0,0,17.59,6.87l5.89,24.24,34,1,7.35-24ZM588.67,543.2a44.6,44.6,0,1,1,14.54,61.37A44.59,44.59,0,0,1,588.67,543.2Z"/><path class="cls-2" d="M501.13,949.49a149.4,149.4,0,0,0,23.46-14l35.56,15.9,33.54-40.77-22.24-31.5a150.49,150.49,0,0,0,10.11-27.82l36.73-10.47L617.77,788,582,778.58a149.73,149.73,0,0,0-10.35-28.91l-.33-.64,20.49-30.28-34.32-40.1-32.12,15.13a150.12,150.12,0,0,0-28.72-16.53l-3.61-35-52.08-8.65L426.49,664.9A147.58,147.58,0,0,0,392.75,671l-24.58-23.81-45.45,26.84,9,33.17a149,149,0,0,0-21.47,26.46l-34.54-2.47L258.17,781l29.1,20.21a149.13,149.13,0,0,0,.67,32.76l-29,21,18.54,49.43,36.86-3.37a147.85,147.85,0,0,0,20.4,23.21l-9.12,36.36,46,25.94,27.13-27.34a150.88,150.88,0,0,0,28.95,4.63l16.92,34.83L496.45,989l3.25-38.88C500.17,949.91,500.65,949.72,501.13,949.49ZM372.59,791.41a69.22,69.22,0,1,1,42.26,88.31A69.21,69.21,0,0,1,372.59,791.41Z"/><path class="cls-2" d="M309.46,1093.12c4,3,5.83,6.51,4.86,10.62-6.72,28.55-58.81,27.24-84,27-31.7-.3-64.54.18-94.26-7-12.43-3-39.94-5.93-46.21-15.66-16.45-25.57,68.71-31.86,82.63-32.09C195.68,1075.58,286.81,1076,309.46,1093.12Z"/><path class="cls-2" d="M392.9,1113.9c-14.37-3-19.66-6.49-12.76-10.7,48-29.26,263.56-29.18,368.13-29.54,131.52-.45,268.36-1.72,386.79,4.92,49.56,2.78,161.87,5.08,181.09,14.85,50.43,25.67-308,34.12-366,34.68C853.51,1129.06,475,1130.81,392.9,1113.9Z"/><path class="cls-3" d="M1231.85,1105.67H417a40.49,40.49,0,0,1-40.45-40.45v-2.42a2.38,2.38,0,0,1,2.37-2.38H1270a2.39,2.39,0,0,1,2.38,2.38v2.37A40.55,40.55,0,0,1,1231.85,1105.67Z"/><path class="cls-4" d="M1230.76,1103.85H421.65a70.84,70.84,0,0,1-11.92-.53c-16.55-2.82-28.67-17.78-30.08-34.15-.25-2.9-1.18-6,1.42-6.93,2.9-1,7.89,0,10.91,0h869.35c2.45,0,7-.89,9.28,0,.1,0,.37-.06.44,0-2.32-2-1.89,6-1.93,6.36a39.33,39.33,0,0,1-38.36,35.25c-4.08.09-.23,3.69,2.17,3.64,13.89-.29,27-6.5,35-18.06a41.07,41.07,0,0,0,7.16-19c.46-4.32,1.36-9.32-3.44-11.26-2.46-1-5.71-.57-8.3-.57H389c-3.45,0-7-.23-10.44,0-2.65.18-4.46.8-5.08,3.73-2.58,12.36,6.46,27.19,15.46,34.68,13.73,11.43,29.63,10.48,46,10.48h798C1237,1107.49,1233.15,1103.85,1230.76,1103.85Z"/><path class="cls-2" d="M1194.67,1060.1V627.72a14.27,14.27,0,0,0-14.23-14.23h-712a14.27,14.27,0,0,0-14.23,14.23V1060.1Z"/><path class="cls-4" d="M466.51,611.13c-12.36.72-14.68,10.78-14.68,20.64V1037c0,5.76-.78,12.15,0,17.88a5.34,5.34,0,0,1,0,.8c0,1.84,4.69,5.08,4.69,3.82V674.82c0-15-.78-30.21,0-45.18.41-7.87,6-13.34,13.79-13.8,1.34-.08-1.94-4.81-3.8-4.71Z"/><path class="cls-3" d="M1207.15,1060.1V627.72a14.27,14.27,0,0,0-14.23-14.23h-712a14.27,14.27,0,0,0-14.23,14.23V1060.1Z"/><path class="cls-4" d="M1210.23,1059.58V637.16c0-3.3.17-6.65,0-9.95-.54-10.47-9-14.85-18.31-14.91-37.54-.24-75.08,0-112.62,0H496.18c-12.66,0-31.66-1.86-32.6,16-.67,12.84,0,25.9,0,38.75v393.61c0,.59,1.35.67,1.68.67h649.43c29.93,0,59.92.56,89.85,0h1.21c1.71,0,6.77-2.37,2.8-2.37H479.33c-3.14,0-7-.6-10.05,0a7.1,7.1,0,0,1-1.22,0l1.68.67V639.76c0-4.1-.24-8.28,0-12.38.47-8,5.75-12.71,13-12.71h693.3c11.28,0,27.25-2.6,28,13.87.63,14,0,28.25,0,42.29v389.78C1204.07,1061.92,1210.23,1061.35,1210.23,1059.58Z"/><path class="cls-3" d="M1244.33,1105.67H429.43A40.49,40.49,0,0,1,389,1065.22v-2.42a2.39,2.39,0,0,1,2.38-2.38h891.1a2.38,2.38,0,0,1,2.37,2.38v2.37A40.55,40.55,0,0,1,1244.33,1105.67Z"/><path class="cls-4" d="M1244.66,1103h-809a74.91,74.91,0,0,1-11.21-.42,38.55,38.55,0,0,1-31.76-30.48,39.5,39.5,0,0,1-.67-5.63c0-.25.14-4.49-1-3.35,0,0,.11,0,.13,0s.66.06.83,0c2.81-1,7.66,0,10.58,0h869.24c1.94,0,8-1.1,9.73,0,2,1.32-.73,11.69-1.53,14.17-5,15.47-19.29,25.37-35.35,25.71-3.46.07-4.73,5.45-.66,5.36a44.9,44.9,0,0,0,35.14-17.72,43.59,43.59,0,0,0,7.92-17.9c.69-3.54,2.6-12.08-1.66-14.4-2.11-1.15-5.87-.59-8.15-.59H402.91c-3.44,0-7-.26-10.44,0-3,.23-5.47,1.42-6.29,4.54-3,11.56,4.93,26.44,12.94,34.13,13.48,13,30,11.94,46.92,11.94h798C1247.47,1108.35,1248.72,1103,1244.66,1103Z"/><path class="cls-4" d="M731.21,1059.17c3,13.21,16.16,14.85,27.33,14.85H910.41c11.72,0,28.76,3,32.23-12.14.26-1.13-4.51-3-5.36-3H731.34c.45,0,3.43,3,5.2,3H942.47l-5.36-3c-3.09,13.52-15.56,12-26.09,12H750.37c-6.55,0-11.91-1.45-13.7-9.27C736.35,1060.28,731.17,1059,731.21,1059.17Z"/><rect class="cls-5" x="494.85" y="647.85" width="671.62" height="391.76"/><g class="cls-6"><polygon class="cls-3" points="173.35 1047.53 73.94 1001.47 1118.88 517.32 1218.29 563.38 173.35 1047.53"/><polygon class="cls-3" points="300.51 1102.96 250.8 1079.93 1295.74 595.78 1345.45 618.81 300.51 1102.96"/><polygon class="cls-3" points="452.69 1173.47 368.9 1134.64 1413.84 650.5 1497.63 689.32 452.69 1173.47"/></g><rect class="cls-2" x="1153.99" y="647.85" width="12.48" height="391.76"/><path class="cls-4" d="M1150.88,651.35v384.24c0,1.68,6.22,2,6.22.52V651.87c0-1.68-6.22-2-6.22-.52Z"/><path class="cls-4" d="M1166,645.6H521.67c-8.65,0-17.52-.57-26.15,0-.38,0-.78,0-1.16,0-.89,0-2.59.63-2.59,1.77v391.77c0,1.9,1.9,2.72,3.58,2.72h644.31c8.65,0,17.52.57,26.15,0,.38,0,.78,0,1.16,0,.89,0,2.59-.63,2.59-1.77V648.32c0-3-6.17-3.84-6.17-1v391.77l2.59-1.78H504.6c-2.8,0-6.32-.57-9.08,0a5.62,5.62,0,0,1-1.16,0l3.58,2.73V648.32l-2.59,1.78h644.31c8.65,0,17.52.56,26.15,0,.38,0,.78,0,1.16,0C1171.08,650.1,1169.43,645.6,1166,645.6Z"/><path class="cls-4" d="M537.39,862.13h174.9c.53,0,.78-.5.88-.92q11.45-46,22.88-92.07L731.81,766V984.93c0,1.49,3.69,6,4.24,3.13q9.66-50.38,19.33-100.77l2.73-14.23-3.46-1,12.48,19c.28.42,2.69,3.18,3.31,1.48l7.28-20c1.16-3.17,2.42-6.33,3.47-9.54.65-2-.81-.57.54-.87,3.08-.7,7.13,0,10.26,0H948.23l-3-2.67,10.24,21.93c.42.9,3.43,4.36,3.86,1.75q3.3-20,6.61-40l-3.86-1.75,8.12,18c.5,1.11,1.59,2.67,3,2.67h143.56c2.26,0-.28-5.56-2.45-5.56H970.75l3,2.67-8.11-18c-.41-.91-3.43-4.35-3.86-1.75q-3.3,20-6.61,40l3.86,1.75-10.25-21.93c-.51-1.12-1.58-2.67-3-2.67H778.5a.87.87,0,0,0-.73.45l-11.23,30.85,3.31,1.49q-6.24-9.51-12.49-19c-.54-.82-3-3.28-3.46-1q-9.67,50.38-19.34,100.78l-2.73,14.23,4.24,3.14V768.55c0-1.48-3.52-6-4.24-3.14q-6.62,26.64-13.24,53.28-4,16-7.94,32c-.5,2-.71,4.68-1.63,6.56.6-1.23.83-.37-1.24-.65-5.89-.82-12.48,0-18.42,0H534.94c-2.26,0,.28,5.56,2.45,5.56Z"/><path class="cls-3" d="M283.72,966.22c-9.51-77.6-26.84-273.66-105.79-246.53-73.58,25.28-69.77,165.64-85,259.41,0,0,78.17,4,104.09,2C219,979.48,283.72,966.22,283.72,966.22Z"/><path class="cls-4" d="M286.68,966c-4.52-36.92-8.53-73.9-15.2-110.51-6.73-37-14.81-76.87-34.54-109.42-7-11.56-16.15-22.8-28.81-28.39-12.48-5.52-26.16-3.64-38.24,2-36.45,17.14-50.17,61.07-58.06,97.39C100.28,870.29,98.56,925,89.92,978.64A3.31,3.31,0,0,0,92.75,982c24.35,1.23,48.73,2.17,73.1,2.5,12.8.18,25.7.41,38.44-1.14,15.53-1.88,31-4.78,46.32-7.65q16.88-3.15,33.71-6.57c3.89-.79,2.37-6.54-1.19-5.81-24.64,5-49.4,9.95-74.3,13.46-28.27,4-57.48,1.83-85.89.74-10-.38-19.9-.79-29.84-1.3l2.83,3.35c7.41-46,9.78-92.66,17.53-138.62,3.61-21.47,8.3-43,16.32-63.29,6.71-17,16.16-33.78,30.84-45.14C228.44,680,255.74,804.84,264,847.59c7.61,39.35,11.91,79.17,16.77,118.91C281.21,970.11,287.16,969.89,286.68,966Z"/><path class="cls-3" d="M150,660.76c0-40,17.6-72.4,39.32-72.4s39.32,32.42,39.32,72.4v7.17c0,22.17-1.88,37.62-5.18,48.37-6.78,22.11-33.32,31.33-33.32,31.33s-27.17-9-34.13-28.81c-3.81-10.81-6-26.92-6-50.89Z"/><path class="cls-4" d="M176.88,739.65a20.08,20.08,0,0,0,18.83,1.73c3.11-1.24,3.08-5.74-.77-4.22a14.57,14.57,0,0,1-13.61-1.7c-2.19-1.46-6.94,2.54-4.45,4.19Z"/><path class="cls-4" d="M215.85,734.08c17.09-18,15.91-46.9,15.91-70,0-23-3.61-49.17-19.61-67-11.67-13-29.27-14.95-42.42-2.86-17.65,16.23-22.63,43.77-22.79,66.6-.17,24-2.07,55.57,16.23,73.91,2.28,2.28,7.3-1.1,4.64-3.75-15.52-15.56-14.64-42.68-14.7-63.07-.06-21.16,1.84-43.67,13.85-61.84,4.49-6.8,11-13.69,19.47-14.93,7.84-1.14,14.93,3.16,20.13,8.66,15,15.85,19,40.86,19,61.76.06,22.76,2,52.3-14.87,70.06-2.69,2.83,2.9,4.82,5.13,2.48Z"/><path class="cls-4" d="M200.12,692.81c7.56-1.66,10.74,9.52,3.36,11.84-.35.11-.71.21-1.07.29s-.67.13-1,.17c-7.67,1-9.47-10.51-1.9-12.17Z"/><path class="cls-3" d="M112.09,1004.47c-1.48-14.79-3.56-30.53-4.34-45.76a203.5,203.5,0,0,1,.07-24.82c.4-5.74,0-19.25,3.79-23.79,4.89-5.8,25.42-.63,32.49-.17,11.51.74,23.2,1.69,34.74,1.13,22.59-1.11,90-14,90-14,2.42,0,9.28,78.49,10.1,85.65,2.68,23.23,6.58,46.25,8,69.63.77,12.56,5.14,39.7-4.11,50.55-1,1.15-1.82,2.27-3.38,2.62-7,1.54-13.29-11.22-15.82-15.72-16.27-29-22-62.58-37-92.33-3.37-6.67-7.26-13.39-13.34-17.74-5.89-4.2-15.35-8.78-22-4.28-14.32,9.71-21.62,31.79-27.8,47.36a277,277,0,0,0-12.54,40.31c-3,12.92-4.61,26.08-10.54,38.13-2.44,4.94-5.37,10.87-11.24,11.78-7.13,1.11-10-18.74-10.71-22.53-4.6-25.63-3.59-52-5.57-77.87Q112.49,1008.55,112.09,1004.47Z"/><path class="cls-4" d="M115.2,1004.3c-2.08-20.58-5-41.17-4.64-61.9a222.71,222.71,0,0,1,1.16-22.66c.37-3,.81-7.9,3.83-9.61,2.85-1.6,7.74-.78,10.77-.5,15.68,1.45,31,3.73,46.85,3.57,11.17-.11,22.28-1.75,33.31-3.38,12.38-1.83,24.72-3.92,37-6.1,7.83-1.38,17.13-1.78,24.63-4.5.28-.09,1.37-.05,1.55-.29-.74,1-2.94-2-3.47-.55-.09.27.35,1,.35,1.29,0,2.94,1.09,6.3,1.49,9.24,1.4,10.32,2.46,20.7,3.52,31.06,2.08,20.31,3.77,40.64,6.45,60.89,2.54,19.27,4.53,38.48,6.25,57.83.61,6.84,1.23,13.69,1.2,20.56,0,6.54-.09,15.42-4.16,21-1.37,1.85-2.81,3.2-5.12,2.31-1.37-.52-2.69-2.5-3.56-3.59a62.19,62.19,0,0,1-5.37-8.57,210.68,210.68,0,0,1-11.86-25.33c-7-17.87-12.2-36.4-19.49-54.17-6.27-15.26-13.5-31.79-30.16-37.78-14.74-5.29-24.87,6.47-31.68,18.17-8.15,14-13.82,30.17-19,45.49a275.39,275.39,0,0,0-8,29.21c-2.09,9.66-3.69,19.5-7.2,28.78a51.58,51.58,0,0,1-5.77,11.76c-1.2,1.68-2.42,3.54-4.62,3.7s-2.49-.92-3.44-2.74c-2.5-4.77-3.41-10.4-4.34-15.64-3.4-19.23-4-38.66-4.71-58.13-.37-9.82-.9-19.62-1.85-29.4-.26-2.71-6.49-2.32-6.23.35,2.13,22,1.78,44.09,3.71,66.07a233,233,0,0,0,3.44,24.67c1,5.14,2.16,10.95,5.12,15.38a8.71,8.71,0,0,0,10.68,3.62c6.53-2.18,9.77-9,12.39-14.82,4.23-9.42,6.11-19.6,8.2-29.64a286.41,286.41,0,0,1,8.7-32.45c5.64-16.85,11.75-35.94,22.2-50.49a40.66,40.66,0,0,1,8.76-9.33c5.92-4.31,13.57-.32,18.75,3.53,8.35,6.21,12.81,16.72,16.89,26,8.48,19.28,14,39.67,21.66,59.26a211.6,211.6,0,0,0,12.42,26.34c2.86,5.11,6.31,11.49,12,13.93,26.06,11.25,15.78-61.41,14.74-71.43-2.84-27.45-6.75-54.74-9.43-82.21-1.17-11.93-2.36-23.85-3.77-35.75-.55-4.59-1.1-9.19-1.83-13.75-.3-1.9-.36-5.13-1.47-6.8-2.35-3.5-10.27-.45-13.49.15-12,2.2-23.93,4.33-35.92,6.31-12.74,2.1-25.54,4.23-38.4,5.42-16.49,1.54-33.36.26-49.71-2.09-10.37-1.5-25.49-4.19-28.41,9.09-1.57,7.17-1.33,14.82-1.68,22.13a254.4,254.4,0,0,0,1.15,34.91c1,10.67,2.25,21.3,3.33,32C109.24,1007.35,115.47,1007,115.2,1004.3Z"/><path class="cls-2" d="M107.74,910.79c27.29.94,55,2.52,82.24.63,16.57-1.15,32.94-4.34,49.19-7.88,8-1.74,15.89-3.71,23.88-5.33,2.12-.43,9.69-2.17,7.79,2.91-1.33,3.57-9.53,5.85-12.58,6.91-6.36,2.21-13.39,3.11-20,4.47a306.21,306.21,0,0,1-40,5.89c-28.26,2-56.9.39-85.17-.58-2.49-.08-7.52-1.23-8.79-3.87S105.54,910.72,107.74,910.79Z"/><path class="cls-2" d="M238.85,927.18a28.48,28.48,0,0,0,12.58,17.22c1.92,1.21,2.73,3.72.7,5.19-2.2,1.6-5.73.52-7.76-.76a37.68,37.68,0,0,1-16.48-22.64c-1.24-4.84,9.81-3.45,11,1Z"/><path class="cls-4" d="M234.07,924.82A35.93,35.93,0,0,0,250,946.26c2.65,1.67,6.44-.29,2.91-2.52a30.25,30.25,0,0,1-13.15-18.43c-.56-2.18-6.46-3.56-5.67-.49Z"/><path class="cls-7" d="M153.54,734.47C105,779.72,106.23,897.18,92.93,979.1c0-.25,15.17.71,16,.75,7.75.33,16.3,2.43,22.68-3,7.57-6.43,12.85-19,17-27.8,10.06-21.33,15.66-44.6,18.19-68,2.64-24.53,2-49.27.48-73.85-.68-10.7-3.62-23.34-1.62-33.77,1.67-8.73,8.95-18,2.42-26.59-1.27-1.68-3.15-2.31-4.89-3.42C162.28,742.84,152.8,735.17,153.54,734.47Z"/><path class="cls-4" d="M151.19,732.42c-21.53,20.42-31.31,50.66-37.85,78.81-8.21,35.31-11.66,71.57-15.56,107.55-2.13,19.61-4.29,39.22-7.43,58.69-.34,2.17,2.54,4.43,4.54,4,4.1-1,10.43.55,14.83.81,7.51.43,16.08,2.26,22.78-2.2,7.67-5.1,12-15,15.79-23a229.3,229.3,0,0,0,13-32.94c7-23.54,9.58-48.13,9.92-72.62.18-13.14-.29-26.29-1.07-39.42-.7-11.76-4-24.18-2.05-35.94,1.59-9.59,8.86-19,2.75-28.45-2-3.11-4.71-4.26-7.61-6.34-1.36-1-2.63-2.12-3.89-3.2-.62-.53-1.23-1.18-1.88-1.65-1.21-.9-1.21-2.5-1.38-.35.18-2.28-5-5.6-5.15-3.26-.31,3.89,5.9,7.76,8.46,9.84,1.84,1.49,4.23,2.58,6,4.09,5.34,4.63,1.85,12.6-.08,18-3.68,10.29-2.93,20.19-1.66,30.9,1.44,12.05,2,24.2,2.27,36.33.62,25.32-.65,50.82-6.29,75.58a197.34,197.34,0,0,1-10.74,33.63c-4,9.44-8.22,19.5-14.32,27.79-3.9,5.31-8.35,8.85-15.19,9.08-4.19.14-8.4-.45-12.57-.7-4.9-.28-11.06-1.71-15.85-.59l4.54,4c5.57-34.63,8.25-69.66,12.6-104.45,4.21-33.64,9.22-68.19,22-99.79,6-14.81,14.09-28.9,25.76-40C157.57,734.93,153,730.73,151.19,732.42Z"/><path class="cls-7" d="M220.62,729.57c-4.56,9.89-20,11.57-15.24,23.42,8.77,22.06,22,41,28.18,64.59,9.21,35.25,17.87,71.5,26.93,106.52,3.79,14.66,6,37.52,23.23,42.13C276.24,905.21,263.92,771,220.62,729.57Z"/><path class="cls-4" d="M218.44,727.4c-5.2,9.94-20.19,12.47-15.4,26.14,6.7,19.11,18.59,36,25.31,55.2,7.54,21.54,11.85,44.61,17.37,66.74,4.94,19.81,10.15,39.56,14.77,59.44,3.19,13.75,8.07,29.49,23.08,34.06,1.83.55,2.92-.81,2.7-2.56-3.95-32.35-7.49-64.75-12.83-96.91-5.8-34.92-12.91-70.6-26.9-103.28-6-14-13.49-27.88-24.5-38.6-2.93-2.85-5.38,1.39-2.84,3.87C240.56,752.27,249.71,785,256.84,813c8.74,34.3,14,69.43,18.49,104.51,2.06,16.17,3.87,32.36,5.84,48.54l2.71-2.56c-13.76-4.18-16.52-20.24-19.27-32.46-4.06-18.07-9-36-13.5-53.94-5-20.13-9.79-40.35-15.29-60.35-4.63-16.87-13-32.11-20.63-47.72-3.21-6.52-11.63-18-5.48-24.46,4.35-4.54,10.06-7,13.09-12.81C224.16,729.12,219.93,724.55,218.44,727.4Z"/><path class="cls-3" d="M102.34,854.87h0l3.82,9.76-6.54,8.19-10.37-1.57-3.82-9.77L84,857.94a16,16,0,0,0,13.31,24.5l18.8,48A14.29,14.29,0,1,0,127.72,926l-18.87-48.23a16,16,0,0,0-8.08-26.86Zm29.35,79,2.95,7.55-5.06,6.33-8-1.22-3-7.55,5.06-6.33Z"/><path class="cls-4" d="M100.36,856.89c-1.35-.2-.4-.32-.26.76a14.56,14.56,0,0,0,1.17,3c.36.92,2,5.65,2.17,4.68s-2.49,2.63-3.07,3.36l-3.27,4.09,4.49-2-6.94-1.06a12.29,12.29,0,0,1-2.76-.42c-.86-.42.64.91-.4-.85-2.08-3.51-3.19-8.16-4.69-12-.76-2-4.67.35-5.27,1.42-5.5,9.91-1.92,22.62,9.64,25.92,3.71,1.06,2.8-.67,4.28,2.27,1.36,2.7,2.25,5.76,3.35,8.58l14.59,37.27c.22-.67.45-1.35.67-2-10.81,13.22,1.36,31.65,17.81,25.46,5.82-2.19,10.56-7.22,11.66-13.43a15.39,15.39,0,0,0-2.6-11.62c-2.65-3.7-6-4-9.48-6.14-2.34-1.42-.07.86-1.19-.24-.33-.33-.39-1.17-.62-1.58a47.75,47.75,0,0,1-2.19-5.62L121.27,901l-9.66-24.69c-.23.67-.45,1.35-.68,2,9.12-10.33,5.66-25.77-8.18-29.45-1.64-.44-5.58,1.34-4.74,3.48l1.57,4c.82,2.1,6.4-.64,5.51-2.91l-1.56-4-4.74,3.49c10.72,2.85,15.71,15.49,8,24.26a2,2,0,0,0-.68,2L125,927.41a1.19,1.19,0,0,0,.78.57c5.15.72,9.51,3.52,11.44,8.48,2,5.13.51,12.09-4.63,14.85-12.09,6.51-21.87-11-14.32-20.26.49-.59,1-1.22.67-2l-18.79-48c-.2-.5-1-.62-1.38-.64A14.93,14.93,0,0,1,86.56,858l-5.27,1.42,5.2,13.31a1.21,1.21,0,0,0,.78.56c3.3.5,6.87,1.53,10.19,1.55S102,873,104,870.58c1.68-2.1,4.9-4.74,4.94-7.49s-2.76-7-3.79-9.68a1.19,1.19,0,0,0-.78-.57h0C102.24,852.53,97.56,856.47,100.36,856.89Z"/><path class="cls-4" d="M128.93,935.34c1,2.51,2,5,2.95,7.55l.24-1.5-5.06,6.33,4.5-2-3.69-.56-3-.45c-.51-.08-1.54-.48-1,0s0-.72-.13-1c-.33-.83-.65-1.65-1-2.48-.5-1.26-1-2.52-1.48-3.78l-.24,1.5,5.06-6.33-4.5,2,8,1.22a4.73,4.73,0,0,0,4.06-1.45c.6-.65,1.4-2.37-.11-2.6-3-.45-7.54-2.11-10.41-.87s-5.22,5.55-7.16,8a1.57,1.57,0,0,0-.24,1.5q1.49,3.78,3,7.55a1.19,1.19,0,0,0,.79.57c2.53.38,5.07.86,7.62,1.15,3.29.38,4.8-1.82,6.63-4.11,1.28-1.59,3.9-3.72,3.47-5.88-.49-2.45-1.95-5-2.86-7.31C133.63,930.32,128,933.06,128.93,935.34Z"/><path class="cls-7" d="M144.57,913.9c-13.9,4.49-27.63,4-41.81,1.28,4.18,5.13,4.74,13.21,5.88,19.48a143.34,143.34,0,0,1,2.26,25.22c5.59,1.71,11.3,3.43,16.93,2.21s11.29-6,13.59-14c1.12-3.88,1.38-8.21,2.17-12.28C144.44,931.5,160.06,908.89,144.57,913.9Z"/><path class="cls-4" d="M101,917.17a142.77,142.77,0,0,1,6.75,42.59A2.7,2.7,0,0,0,110,962.2c9.59,2.91,20,4.76,28-2.75a23.92,23.92,0,0,0,6.64-11.55c1.58-6.1.56-15.67,6-19.88,3.11-2.39-1.76-5.56-4.27-3.63-7.06,5.44-5.7,15.25-8,23C137,952.2,134,957,129.15,959c-5.6,2.39-11.84.22-17.32-1.45L114,960a147,147,0,0,0-6.92-43.9c-.95-3-7.12-2.21-6.06,1.06Z"/><path class="cls-4" d="M102.09,916.85a88.83,88.83,0,0,0,45.6-2.62c3.71-1.19-2.07-.94-3.33-.54-12.09,3.87-24.78,4-37.13,1.38-1.29-.27-6.35,1.52-5.14,1.78Z"/><path class="cls-2" d="M145.07,656.19c10.66,3,23.36,2.45,34.34,2A138.27,138.27,0,0,0,200,655.54a161,161,0,0,0,22-5.49c4.56-1.56,10.43-3.4,13.07-7.8,2.91-4.84-8.08-4.45-10.26-.81-1,1.68-7.62,3-9.66,3.61a185.71,185.71,0,0,1-18.31,4.17,120.84,120.84,0,0,1-14.92,1.83c-9.42.45-21.17,1.05-30.34-1.57-4.15-1.18-12.81,4.89-6.43,6.71Z"/><path class="cls-8" d="M233.18,634.16a7.36,7.36,0,0,0,.18-2.43c-.87-8.91-5.78-18.54-10.93-25.69-9.55-13.28-25.26-22.73-42-20.1-17.1,2.68-29.26,17-34.13,32.89a73.59,73.59,0,0,0-3.18,16c-.41,5.45-1,13.09,5.19,15.49,2.59,1,5.48.91,8.19,1.18s5.74.43,8.6.56c5.8.26,11.62.28,17.42,0a116.67,116.67,0,0,0,33.91-6.43q1.93-.71,3.84-1.5c.87-.37,1.74-.75,2.61-1.15a52.85,52.85,0,0,0,7-3.63A9.16,9.16,0,0,0,233.18,634.16Z"/><path class="cls-4" d="M236,635.53c1.36-8.4-4.24-18.36-8.58-25.14a59.12,59.12,0,0,0-17.53-17.89c-13.47-8.77-30.63-11.85-45.06-3.4-15.92,9.33-23.49,28.06-24.63,45.78-.4,6.21.21,11.86,6,15.22,7.11,4.12,17,3.41,24.88,3.62,12.74.34,25.62-.5,38-3.58,8.27-2.06,23.84-5.39,26.9-14.61.4-1.21-5.34-3.56-5.61-2.74-2.68,8.08-15.75,11.35-23.18,13.47a128.65,128.65,0,0,1-34.43,4.5c-5.47,0-10.95-.17-16.4-.57s-9.86-.67-10.58-6.78c-1.1-9.18,1.57-19.66,5-28.09,6.55-15.93,21.37-29.36,39.5-28.25,12.38.75,22.47,8.35,29.53,18.12,5.07,7,12,18.54,10.53,27.6C230.13,634.26,235.89,636.08,236,635.53Z"/><path class="cls-4" d="M148.59,641.63a144.6,144.6,0,0,0,81.51-8.52c3.77-1.56-.23-5.23-3.19-4a135.92,135.92,0,0,1-76.7,8c-3.48-.64-5.66,3.78-1.62,4.52Z"/><path class="cls-4" d="M172.22,594.7a91.54,91.54,0,0,1,10.5,38.73c.14,3.08,6.38,2.76,6.24-.33a94.81,94.81,0,0,0-10.79-40c-1.37-2.62-7.46-1.34-5.95,1.55Z"/><path class="cls-4" d="M183.55,589.47a59.13,59.13,0,0,1,11.78,38c-.06,1.52,5,4.21,5,3.36a61.56,61.56,0,0,0-12.6-39.58c-.7-.93-5.87-4-4.19-1.81Z"/><path class="cls-4" d="M145.72,745.52c13.08,15.15,6.05,39,5.93,57.09-.05,7.31-.27,15.57,3.42,22.13,3.58,6.37,8.5,10.19,10.55,17.62.72,2.63,6.93,2.56,6.11-.42-1.89-6.85-5.71-11-9.69-16.57-5.71-8-4.41-19.64-4-29,.78-17.09,5.59-38.11-6.73-52.37-1.7-2-7.78-1-5.6,1.51Z"/><path class="cls-4" d="M220,742.19c-10,9.45-3.55,22.75,2.18,32.59,3.46,5.94,6,11.65,6.74,18.55.78,7.15.3,14.4.69,21.57,0,.44,5.81-.89,5.72-2.5-.67-12.42.87-24.92-5.22-36.3-5.5-10.27-16-24.84-4.87-35.38.88-.83-4.24.52-5.24,1.47Z"/><path class="cls-3" d="M373.05,890.38c-7.73,4.33-43.14-63.33-43.14-63.33,18-10.21,98.85-80.61,120-108.53,0,0,56.92,47,51.43,56.86C480.2,813.27,387.51,882.28,373.05,890.38Z"/><path class="cls-4" d="M371.84,888c1.16-.51.65.38-.1-.59-.63-.81-1.71-1.5-2.44-2.27a68.5,68.5,0,0,1-5.85-7.3c-5.05-7-9.53-14.4-13.91-21.82q-8.75-14.84-16.76-30.09c-.33,1.07-.65,2.13-1,3.2,15.48-8.91,29.23-21.93,42.7-33.5,19.2-16.5,38-33.51,55.94-51.43,7.66-7.67,15.32-15.49,21.91-24.11l-4.93.2q13.85,11.44,26.86,23.87A208.76,208.76,0,0,1,492,762.69c3,3.63,8,8.69,5.47,13.41-8.79,16.18-24.4,29.89-37.7,42.25-16.2,15.06-33.29,29.18-50.76,42.74-12.15,9.44-24.47,19.62-37.89,27.25-3.52,2,.74,5.83,3.81,4.08,12.24-6.95,23.5-16.15,34.62-24.71,18-13.86,35.57-28.33,52.32-43.68,14.58-13.36,29.67-27.54,40.3-44.38,3.29-5.22,2.87-8.63-.4-13.85-4.19-6.69-9.87-12.52-15.39-18.11a459.32,459.32,0,0,0-34.05-30.91c-1.37-1.13-3.7-1.41-4.93.2-17.34,22.68-39.95,42-61.18,60.92-11.49,10.23-23.15,20.28-35.11,30-7.39,6-14.86,12.38-23.14,17.14a2.56,2.56,0,0,0-1,3.2c6.48,12.37,13.33,24.57,20.6,36.48,4.5,7.36,9.11,14.84,14.63,21.49,2.65,3.2,7.17,8.76,12,6.63C378,891.17,375.31,886.43,371.84,888Z"/><path class="cls-4" d="M450.53,753.38l16.83,15.78c1.35,1.27,7-.6,5.81-1.7l-16.83-15.78c-1.35-1.26-7,.6-5.81,1.7Z"/><path class="cls-4" d="M431.77,753.3,474,796.2c.42.42-1.49-3.93-2.4-4.85l-42.19-42.89c-.42-.43,1.49,3.92,2.4,4.84Z"/><path class="cls-4" d="M417,762.19l41,45.38c2.51,2.78,7.05-.17,4.32-3.18q-20.5-22.7-41-45.38c-2.51-2.78-7,.16-4.32,3.18Z"/><path class="cls-4" d="M405,772.22l39.74,48c2.1,2.54,7.23-.14,4.72-3.17l-39.74-48c-2.1-2.53-7.22.15-4.72,3.18Z"/><path class="cls-4" d="M393.48,781.45l38.34,50.82c1.77,2.35,5.93,2.48,3.4-.89l-38.34-50.82c-1.77-2.35-5.94-2.48-3.4.89Z"/><path class="cls-4" d="M380.39,790.9l36.81,53.81c.79,1.15,6.07,4.13,4.37,1.65q-18.39-26.91-36.8-53.81c-.79-1.15-6.07-4.13-4.38-1.65Z"/><path class="cls-4" d="M367,804.6l35.13,57c1.55,2.51,6.71-1,5.13-3.55l-35.12-57c-1.55-2.5-6.71,1-5.14,3.56Z"/><path class="cls-4" d="M373.62,851.9q6.3,11.45,12.61,22.87c.77,1.4,6.26-.2,6.24-.23q-6.3-11.44-12.61-22.87c-.77-1.4-6.26.2-6.24.23Z"/><path class="cls-4" d="M353.47,816.05q5.07,9.16,10.12,18.33c.64,1.17,6-2.08,5.17-3.49l-10.11-18.33c-.64-1.17-5.95,2.08-5.18,3.49Z"/><path class="cls-4" d="M246.48,773.37c13.63,13.64,27.39,27.39,43.59,38,15.41,10.13,34.32,18.14,52.72,11.74,1.46-.51-1.14-6.12-3-5.48-17.88,6.22-36.27-1.74-51.21-11.59-15.48-10.21-28.68-23.45-41.73-36.5-2.85-2.85-1.76,2.42-.38,3.8Z"/><path class="cls-4" d="M126.21,788.59c23.33,7.33,50.88,11,66.53-12.15,3.59-5.33,5.64-11.34,8.16-17.21,2.89-6.73,5.18-13.27,6-20.6.41-3.77.35-7.55.6-11.32.19-2.87,1-6.08.07-8.91-1.4-4.24-6.26-6.2-9.75-8.37-1.07-.66-7.07-1.28-4.59.26,5.57,3.45,8.94,5.51,8.47,12.68-.34,5.12-.36,10.31-1,15.41-1.31,10.47-5.88,20.83-10.4,30.31-4.3,9-11.32,16.78-20.65,20.69-13.44,5.64-28.09,2.06-41.4-2.12-2.27-.71-6.13,0-2,1.33Z"/><path class="cls-9" d="M364.65,549.82a10.68,10.68,0,0,1-9.6-11.68h0a80,80,0,0,1,5-22.35,63.94,63.94,0,0,1,9.05-15.86,59.1,59.1,0,0,1,11.69-11.27q6.38-4.59,12.92-8.53l12.85-7.76A62.51,62.51,0,0,0,418,463.53a43.18,43.18,0,0,0,13.13-28.42A64.93,64.93,0,0,0,430,413.5a43,43,0,0,0-7.57-16.38,37.71,37.71,0,0,0-13.32-10.86,51.72,51.72,0,0,0-18.23-5,48.5,48.5,0,0,0-11.23.09,40.83,40.83,0,0,0-9.41,2.48,47.61,47.61,0,0,0-8.5,4.47l-.19.13A10.73,10.73,0,0,1,347.11,386l-1.41-1.85A10.66,10.66,0,0,1,349,368.34a82.51,82.51,0,0,1,15.14-6.4,76.85,76.85,0,0,1,30.53-2.78,74.16,74.16,0,0,1,27.75,8,66.74,66.74,0,0,1,20.37,16.29,64.85,64.85,0,0,1,14.53,47.89q-1.57,16.13-6.54,26.54a65.21,65.21,0,0,1-11.83,17.49,73.86,73.86,0,0,1-14.83,11.91q-8,4.83-15.72,9.6A104.65,104.65,0,0,0,394,507.57a43.28,43.28,0,0,0-10.71,15,47.92,47.92,0,0,0-3.09,12.19q-.4,2.89-.79,6a10.7,10.7,0,0,1-11.65,9.36ZM344.86,592.3a18.25,18.25,0,0,1,2-6.76,19.63,19.63,0,0,1,4.25-5.51,18.08,18.08,0,0,1,6.05-3.6,16.28,16.28,0,0,1,7.19-.88,15.44,15.44,0,0,1,6.74,2.24,17.69,17.69,0,0,1,5,4.68,18.82,18.82,0,0,1,2.94,6.29,19.27,19.27,0,0,1,.59,6.93,18.19,18.19,0,0,1-2,6.76,20.57,20.57,0,0,1-4.18,5.52,17.69,17.69,0,0,1-5.8,3.62,15,15,0,0,1-6.89.91,16.53,16.53,0,0,1-6.82-2.17,17.41,17.41,0,0,1-5.16-4.61,21.39,21.39,0,0,1-3.18-6.24A17.77,17.77,0,0,1,344.86,592.3Z"/><path class="cls-7" d="M354.67,547.8a10.69,10.69,0,0,1-9.61-11.68h0a80.69,80.69,0,0,1,5-22.35,64,64,0,0,1,9.06-15.86,59.1,59.1,0,0,1,11.69-11.27q6.38-4.59,12.92-8.53l12.85-7.76a62.85,62.85,0,0,0,11.45-8.84,43.18,43.18,0,0,0,13.13-28.42,65.46,65.46,0,0,0-1.13-21.61,43.1,43.1,0,0,0-7.57-16.38,37.89,37.89,0,0,0-13.32-10.86,51.77,51.77,0,0,0-18.24-5,48.5,48.5,0,0,0-11.23.09,40.75,40.75,0,0,0-9.4,2.48,47.27,47.27,0,0,0-8.5,4.47l-.2.13A10.73,10.73,0,0,1,337.12,384l-1.41-1.85A10.67,10.67,0,0,1,339,366.32a82.42,82.42,0,0,1,15.13-6.4,76.89,76.89,0,0,1,30.54-2.78,74.11,74.11,0,0,1,27.74,8,66.66,66.66,0,0,1,20.38,16.29,64.85,64.85,0,0,1,14.53,47.89q-1.59,16.13-6.55,26.54A65,65,0,0,1,429,473.35a74.14,74.14,0,0,1-14.83,11.91q-8,4.83-15.72,9.61A103.28,103.28,0,0,0,384,505.55a43.28,43.28,0,0,0-10.71,15,47.54,47.54,0,0,0-3.08,12.19c-.27,1.93-.54,3.94-.79,6a10.7,10.7,0,0,1-11.66,9.36Zm-19.79,42.48a18.25,18.25,0,0,1,2-6.76,19.78,19.78,0,0,1,4.25-5.51,18,18,0,0,1,6-3.6,16.33,16.33,0,0,1,7.2-.88,15.4,15.4,0,0,1,6.73,2.24,17.73,17.73,0,0,1,5,4.68,19.22,19.22,0,0,1,2.94,6.29,19.5,19.5,0,0,1,.59,6.93,18.34,18.34,0,0,1-2,6.76,20.54,20.54,0,0,1-4.17,5.52,17.79,17.79,0,0,1-5.8,3.62,15,15,0,0,1-6.89.91,16.53,16.53,0,0,1-6.82-2.17,17.41,17.41,0,0,1-5.16-4.61,20.91,20.91,0,0,1-3.18-6.24A17.59,17.59,0,0,1,334.88,590.28Z"/><path class="cls-4" d="M353.16,545.19c-11.47-2.06-3.82-22.51-1.2-29.05A61.57,61.57,0,0,1,370.24,491c15.21-12.27,36.11-18.52,46.64-35.92,8.76-14.46,8.78-35.4,2-50.68a46.26,46.26,0,0,0-35.06-27.24c-8.48-1.48-17.25-1.19-25.31,2-3.6,1.43-6.62,4-10.15,5.41-5.81,2.4-13.81-.62-12.88-8.05,1.12-8.89,14.21-12.24,21.39-14.35a78.27,78.27,0,0,1,32.55-2.07c23.23,3.15,45.08,17,52.92,39.94,6.7,19.6,3.37,43.51-7.63,61-12.95,20.59-37,26.73-53.8,43.1a43.1,43.1,0,0,0-12.11,23.12c-.95,5.14-.48,11.48-4.49,15.36-3.16,3.06-7.12,2.92-11.18,2.53-.76-.08,1.39,5.07,3,5.23,7.84.76,14-1.85,15.25-10.33,1.7-11.15,3.76-20.9,11.77-29.47,16.22-17.33,41.06-22.94,54.47-43.49,23.09-35.34,10.92-84.71-26.41-104.46-19.27-10.19-43.48-11.33-63.79-3.62-7.64,2.89-17.6,6.86-15.56,16.88a22.79,22.79,0,0,0,8.76,12.81c8.11,5.38,14.83-1.95,22.29-4.71,10.77-4,23.45-3,34,1.18,14.74,5.83,21.84,19.11,22.64,34.46.66,12.67-1.74,25.39-9.86,35.44s-19.93,15.47-30.56,22.14c-11,6.92-20.83,14.7-27.23,26.27-6.59,11.89-17.54,43,4.19,46.9C356.8,550.53,354.82,545.49,353.16,545.19Z"/><path class="cls-4" d="M336.75,592.64c.93-6.42,4.51-12.13,10.51-14.95,10-4.71,21.64,1.92,20.49,13.62a19.08,19.08,0,0,1-9.51,14.56c-10,5.57-22.08-1.34-21.49-13.23.08-1.72-3.73-5.13-3.75-4.73-.46,9.32,5,19.69,13.68,23.68,11,5,23-3.23,24.69-14.66,1.36-9.33-4.4-20.34-13-24.47-11.68-5.63-23.7,3.73-25.4,15.45C332.76,589.58,336.67,593.21,336.75,592.64Z"/><path class="cls-4" d="M508.47,384.91a155.28,155.28,0,0,0-36.82,18.24c-2.93,2-2.43,2.91.59.89a135,135,0,0,1,32-15.71c1.21-.41,5-3.69,4.2-3.42Z"/><path class="cls-4" d="M462.8,326.32a147.14,147.14,0,0,0-22,32.1c-.73,1.44,4.42-.81,5.06-2.07a143.06,143.06,0,0,1,21.33-31.29c1.91-2.12-3.58.36-4.4,1.26Z"/><path class="cls-4" d="M384.05,291.13a143.64,143.64,0,0,1-2.29,37.71c-.53,2.7,4.9,5.74,5.48,2.73a148.06,148.06,0,0,0,2.41-38.91c-.19-2.67-5.85-5-5.6-1.53Z"/><path class="cls-4" d="M310.41,295.89a137.32,137.32,0,0,1,9.76,34.82c.19,1.36,3.66,6.33,3.23,3.36A153.62,153.62,0,0,0,312.32,295c-1.44-3.35-3.36-2.47-1.91.9Z"/></g></g></svg>