<svg width="17" height="16" viewBox="0 0 17 16" fill="none" xmlns="http://www.w3.org/2000/svg">
<path d="M1 8C1 9.98912 1.79018 11.8968 3.1967 13.3033C4.60322 14.7098 6.51088 15.5 8.5 15.5C10.4891 15.5 12.3968 14.7098 13.8033 13.3033C15.2098 11.8968 16 9.98912 16 8C16 6.01088 15.2098 4.10322 13.8033 2.6967C12.3968 1.29018 10.4891 0.5 8.5 0.5C6.51088 0.5 4.60322 1.29018 3.1967 2.6967C1.79018 4.10322 1 6.01088 1 8Z" stroke="#3D466C" stroke-linecap="round" stroke-linejoin="round"/>
<path d="M11.5146 10.2427L5.33301 10.2427" stroke="#3D466C" stroke-linecap="round" stroke-linejoin="round"/>
<path d="M6.87891 8.69727L5.33354 10.2426L6.87891 11.788" stroke="#3D466C" stroke-linecap="round" stroke-linejoin="round"/>
<path d="M5.33301 5.75757L11.5146 5.75757" stroke="#3D466C" stroke-linecap="round" stroke-linejoin="round"/>
<path d="M9.96875 4.2124L11.514 5.75765L9.96875 7.3029" stroke="#3D466C" stroke-linecap="round" stroke-linejoin="round"/>
</svg>
