<?xml version="1.0" encoding="UTF-8"?>
<svg width="400px" height="386px" viewBox="0 0 400 386" version="1.1" xmlns="http://www.w3.org/2000/svg" xmlns:xlink="http://www.w3.org/1999/xlink">
    <title>Combined Shape</title>
    <g id="Desktop" stroke="none" stroke-width="1" fill="none" fill-rule="evenodd">
        <g id="023100_depart" transform="translate(-519.000000, -380.000000)" fill="#FFE094">
            <g id="Oval" transform="translate(280.000000, 278.000000)">
                <path d="M514.46861,103.108337 C616.596133,144.687417 665.825786,261.5293 624.212112,363.571923 C592.636422,440.99886 517.682301,487.995736 438.746276,488 C413.653451,488 388.165849,483.251699 363.531817,473.22206 C261.406427,431.642981 212.17464,314.801097 253.788315,212.760607 C273.870684,163.516444 311.910034,124.962886 360.902821,104.199998 C368.497461,100.98045 377.263625,104.524085 380.485852,112.112411 C383.708079,119.700737 380.161495,128.461746 372.566856,131.681295 C330.893432,149.341903 298.536725,182.13652 281.454654,224.024761 C246.059238,310.822503 287.935385,410.212729 374.805343,445.578721 C395.754086,454.107325 417.445436,458.147752 438.784687,458.147752 C505.935043,458.152016 569.683923,418.174182 596.545773,352.305636 C631.943323,265.507894 590.065042,166.1198 503.195083,130.751677 C495.555631,127.640868 491.88528,118.931031 494.998677,111.29793 C498.112074,103.664828 506.829158,99.9953963 514.46861,103.108337 Z M492.430498,157.154318 C564.730016,186.590797 599.581281,269.309733 570.120311,341.547014 C555.848619,376.542011 528.794716,403.888982 493.939183,418.551786 C476.257479,425.988729 457.636849,429.711465 439.01195,429.711465 C420.922667,429.711465 402.831249,426.201944 385.574197,419.176506 C350.550083,404.916679 323.180359,377.883134 308.505356,343.056577 C293.832487,308.227888 293.610559,269.776674 307.880116,234.781677 C322.06645,199.995631 348.9283,172.729682 383.514959,158.011443 C391.109598,154.776969 399.880031,158.312076 403.110793,165.894005 C406.34369,173.478067 402.812044,182.24334 395.221672,185.47355 C367.933037,197.087377 346.738893,218.59865 335.546456,246.045832 C324.287867,273.657189 324.462848,303.995568 336.041526,331.474732 C347.61807,358.951764 369.213393,380.281804 396.845589,391.533166 C424.482054,402.784528 454.847808,402.609691 482.345568,391.038507 C509.849729,379.471587 531.195382,357.894217 542.453971,330.28286 C565.698818,273.288327 538.201058,208.02318 481.156972,184.797658 C473.515386,181.686849 469.847168,172.977012 472.960565,165.34391 C476.073962,157.710809 484.791046,154.045641 492.430498,157.154318 Z M470.388118,211.200725 C512.85963,228.492471 533.336776,277.086328 516.030643,319.526797 C507.646451,340.084998 491.750843,356.150757 471.273697,364.762516 C460.887884,369.133426 449.949383,371.318881 439.008749,371.318881 C428.381802,371.318881 417.752721,369.254958 407.614442,365.129246 C387.039136,356.752024 370.96001,340.871762 362.338953,320.41164 C353.717895,299.951517 353.587726,277.363508 361.971918,256.805306 C370.142717,236.769482 385.543255,220.916938 405.33541,212.16659 C412.88097,208.831905 421.702616,212.239083 425.040075,219.776237 C428.379668,227.315524 424.967522,236.129836 417.424096,239.464521 C404.742179,245.072078 394.874909,255.229646 389.638257,268.069461 C384.265034,281.241891 384.350391,295.717065 389.872989,308.827662 C395.397721,321.940392 405.702445,332.117149 418.885835,337.485906 C432.071358,342.850398 446.556442,342.769377 459.682216,337.249237 C472.805855,331.733362 482.99108,321.435072 488.364304,308.262642 C499.454313,281.067054 486.332807,249.924854 459.114592,238.844065 C451.47514,235.735388 447.804789,227.025551 450.918185,219.39245 C454.029448,211.759349 462.735863,208.087784 470.388118,211.200725 Z" id="Combined-Shape"></path>
            </g>
        </g>
    </g>
</svg>