<svg xmlns="http://www.w3.org/2000/svg" viewBox="0 0 2000 2000"><defs><style>.cls-1{fill:#fff;}.cls-2{fill:#cacede;}.cls-3{fill:#767c97;}.cls-4{fill:#96e296;}.cls-5{fill:#b9f7ba;}</style></defs><title>success</title><g id="Calque_2" data-name="Calque 2"><g id="_2" data-name="2"><rect class="cls-1" width="2000" height="2000"/><path class="cls-2" d="M860.86,1346.71c.15.45.29.9.43,1.36,2,6.49,3.61,13.31,5.49,19.89q6.08,21.22,11.34,42.68c6.9,28.19,12.65,56.68,17,85.38,6.17,41.25,8.09,77.71,1.63,118.18-7.34,46-17.09,91.51-24.76,137.43-1.67,10-3.18,20.42-.56,30.23s10.45,19,20.57,19.89c11.67,1.07,21.35-8.44,29-17.31,33.28-38.5,63.82-78.92,87.91-123.65q13.38-24.86,26.18-50,10.95-21.62,21.2-43.58c5.84-12.59,11.46-25.3,16.73-38.15,29.25-71.27,45.56-141.4,46.31-220.24,0-4.27.88-8.51,1.33-12.77.23-2.24-.81-32-.22-34.11,2.56-9.39-20.3-16.12-30-24.66-27.5-24.09-70.56-3.21-100.13,7.11-40.59,14.15-79.5,32.71-117.34,53-5.6,3-11.39,6.22-14.95,11.48-3.85,5.68-4.52,13.05-3.3,19.81C855.82,1335,858.84,1340.69,860.86,1346.71Z"/><path class="cls-3" d="M873.77,1411.8c16.34,67,29.27,137,18.13,205.92-5.66,35-12.65,69.67-19,104.49-2.94,16.09-7.35,32.93-7.27,49.36.07,12.52,5.47,26.55,18.2,31.12,12.17,4.37,24.82-2,33.61-10.28,11.35-10.73,21-23.69,30.81-35.85,20.37-25.36,39.36-51.9,55.79-80,17.18-29.4,32.57-60.06,47.42-90.7,14.23-29.35,27.61-59.2,38.07-90.13A680.26,680.26,0,0,0,1124.37,1310q.5-10.8.6-21.61c0-2.31-8.65-.82-8.69,2.33-.67,60.49-10.22,121.16-27,179.25-17.62,61.08-46,118.28-75.59,174.3-15.09,28.55-31.43,56.06-50.42,82.22-9.21,12.69-18.85,25.07-28.79,37.2q-7.49,9.12-15.18,18.07c-4.74,5.52-9.6,11.47-15.92,15.27-14.09,8.44-26.22-7-28.43-19.77-2.72-15.71,2.4-33,5.17-48.47,6-33.55,12.78-67,18.49-100.58,5.44-32,7.77-63.67,5.17-96.12-2.65-33-8.58-65.77-15.65-98.06q-2.68-12.29-5.68-24.51c-.66-2.7-9.38-.47-8.7,2.33Z"/><path class="cls-2" d="M469.34,1736.41c-17.69-29.17,34.71-85.21,59.73-108C581,1581.2,651.14,1542,658.69,1476.12c8.79-76.82-8.55-145.73,11.08-225.27,6.35-25.7,15.52-52.74,36.21-73.91,55-56.26,161,5.54,178.52,51,14.72,38.13,29.86,85.7,20.22,129.73-14,64-40,132.45-88.17,190.52-44.45,53.52-112.33,90.68-173.89,123.11C614,1686.44,486.57,1764.81,469.34,1736.41Z"/><path class="cls-3" d="M898.69,1394.26c-12.94,34.18-30.34,67-48.74,98.51a501.18,501.18,0,0,1-30.06,46.42c-12.35,16.62-27,31.48-42.68,45-34.52,29.68-74.18,52.79-114.11,74.32-22.61,12.18-45,24.7-67.52,37-25.77,14.15-52.05,28.24-79.74,38.29-9.34,3.39-19.59,7-29.66,6.92-9.22-.11-14.27-5.34-15.72-14.45-2.28-14.41,5.82-29.39,13.19-41.15,9.27-14.82,20.75-28.25,32.84-40.84,25.73-26.79,56.17-48.27,84.08-72.63,27.36-23.88,54.61-52.52,61.41-89.57,4-21.89,3.82-44.94,3.74-67.13-.09-24.67-1.12-49.33-1.39-74-.13-11.36-.07-22.72.35-34.07.06-1.41-8.59-.3-8.69,2.33-1.88,49.72,3.14,99.48,0,149.18-1.3,20.6-4.46,39.73-14.55,58C632.09,1533.3,619,1547.81,605,1561c-28.34,26.84-60.95,48.79-88.83,76.14a312.59,312.59,0,0,0-33.57,38.31c-9.32,12.76-18.85,27.52-20.88,43.54-1.12,8.9.66,20.51,10.17,24,8.47,3.07,18.67,1,27.13-1,27.91-6.54,54.4-20.27,79.66-33.44,21.74-11.35,42.84-23.85,64.41-35.5,38.94-21,78.15-41.54,114.09-67.55,17.93-13,35.06-27.18,50.4-43.18,12.84-13.39,23.89-28.11,34-43.62a748.91,748.91,0,0,0,56.87-104.83c3.1-7,6.07-14,8.77-21.11.63-1.66-7.72-.8-8.59,1.49Z"/><path class="cls-1" d="M1114.93,1276.47c7.54-3.24,3-46.91,2.92-53.91-.84-78.93-16.3-164.65-44.74-239.15-30.5-79.86-63.46-142-95.09-219.47-16.16-39.59-19.92-87.68-28.34-129.62-8-39.77-12.63-74.73-33.55-110.08-20-33.72-55.16-55.42-98.17-49-57.64,8.56-92.92,70.17-78.79,165.26.34,2.32,2,13.28,2.53,17,4.3,28.94,5.75,56.52,10.74,85.35,1.32,7.6,1.67,40.94,1.43,43.81-4.76,57.21-128.59,361.89-99.18,506.11C654.69,1292.79,917.52,1360.13,1114.93,1276.47Z"/><path class="cls-1" d="M1119.17,1222.56c-.85-78.93-16.3-164.65-44.74-239.15-27.81-72.81-60.3-137.15-89.33-205.55-14.3,42.08-42.12,58.28-77,64.36-51.68,9-111.19-7-157.79-30.29C728.46,899.81,629.75,1164,656,1292.79c0,0,262.82,67.34,460.24-16.32C1123.78,1273.23,1119.24,1229.56,1119.17,1222.56Z"/><path class="cls-4" d="M876.74,437.14c-10.31-12.58-26.18-20.71-42.5-20.8a55.14,55.14,0,0,0-30.41,8.83c-3.56,2.39-21.84,20.77-17.61,25.06-15.15-15.37-42.36-11.53-55.82,4.28-8.82,10.35-11.13,26.88-3.9,38.69-13.35-1-30.36,4.38-38.84,16.21-8.87,12.37-14.1,27.68-9.65,42.53A43.54,43.54,0,0,0,704.67,580c-19.08,22.64-16.58,62.07,11.49,75.88,12.92,6.35,34.69,7,47.28-.92a40.16,40.16,0,0,0,17.81-39.78c1.74,10.19,27.19,4.24,32,1.71,12-6.28,20.39-20.15,22.24-33.41,1.19-8.49.24-32.36-5.55-38.6,16.49,17.78,45.79,19.53,51.91,20.19,28.26,3,54.9-4.67,72-27.48,15.88-21.12,15.89-49.81-2.65-70.5-16-17.85-43.69-24.07-65.79-14.77A52.72,52.72,0,0,0,876.74,437.14Z"/><path class="cls-3" d="M758.19,796.77c1.71-7.75,1.53-15.46,1.41-23.37-.14-10.07,0-20.38-1.31-30.39-2.28-17.8-4.9-35.5-6.82-53.35-1.72-15.89-3.86-31.69-6.21-47.49-7.2-48.47-6.19-111.12,34.58-145.76a78.78,78.78,0,0,1,66-17.2c31.91,6.28,57.58,30.87,72.67,58.7,16.62,30.65,22,66.25,28.61,100,6.66,34.07,10.09,68.82,19.46,102.33,4.92,17.6,12.2,34.32,19.39,51.08s14.64,33.44,22.17,50.06c15,33.13,30.33,66.14,44.44,99.67,14.28,33.93,27.39,68.25,37.07,103.8a723.21,723.21,0,0,1,20.66,107.89c3.23,28.31,3.72,56.67,5.3,85.08.57,10.23,1.35,20.94-.3,31.1a16.48,16.48,0,0,1-1.16,4.42c-.15.31-.63,1.11-.05.46-.46.52-3.56,1.45-4.86,2q-11,4.47-22.16,8.32c-58.44,20.15-120.4,28.68-182,30.53-53,1.6-106.13-1.79-158.65-8.92-28.45-3.85-56.87-8.65-84.82-15.27l-3-.72c-.73-.17-1.76-.44-.14,0l1.87,1.89c-5.89-29.25-5.06-59.61-2.4-89.17,3.18-35.25,9.47-70.2,17-104.76,15.15-69.71,35.73-138.07,56.54-206.25,8.09-26.48,16.55-52.93,23.26-79.81L747,814.52c6.59,3.66,12.87,7.16,19.91,9.89a400.07,400.07,0,0,0,43.31,14.23c23.06,6.08,46.8,10,70.7,9.53,30.18-.53,62.59-8.51,84.72-30.23,7.69-7.55,13.89-16.69,16.62-27.19,1.13-4.35-7.79-3.44-8.83.57-4.95,19.07-23.33,32.73-40.52,40.17-34.36,14.89-74.64,11.28-110.13,2.94-23.85-5.6-47.69-13.2-69.12-25.1-2.83-1.57-6.91-.46-7.75,2.88-5.86,23.47-13.18,46.58-20.24,69.71-9.77,32-19.57,64.08-28.79,96.29-20.16,70.4-39,142.12-46.79,215.11-3.55,33.25-5.06,67.66,1.57,100.64a3,3,0,0,0,1.87,1.89c20.55,5.25,41.54,9,62.47,12.43a1023.21,1023.21,0,0,0,150.62,13.4c62.84.84,126.31-4.59,187.21-20.63q23.31-6.15,45.94-14.53,5.3-2,10.54-4.07c3-1.21,6.71-2.14,9.35-4.13s3.67-5.57,4.3-8.76c2-10.13,1.11-21,.56-31.26-.59-10.9-.93-21.75-1.33-32.66-2.67-74.24-16.66-148.76-42.55-218.45-26.53-71.37-61.25-139.28-90.73-209.41-7.1-16.87-13.37-33.69-17.64-51.52-4.22-17.62-7.14-35.52-10-53.4-3-18.37-6.3-36.62-9.89-54.88-3.47-17.59-7.05-35.22-12.55-52.31-10-31-27.53-60-55.24-78.22-24.43-16-54.72-21.19-82.53-11.32-47.83,17-67,68.21-68.89,115.26-1.26,31.37,5.34,62,8.81,93,3.31,29.69,8.37,59.12,8.82,89,.11,8.07.34,16-1.41,23.89-1,4.44,7.93,3.5,8.83-.57Z"/><path class="cls-3" d="M886.44,703.5c-.12-.46-.25-.92-.38-1.37a23.37,23.37,0,0,1-1.28-8.5,9.07,9.07,0,0,1,4.11-7.22c5.24-3,12.09,1.75,17.77-.31,2.12-.77,3.79-2.41,5.62-3.74s4.1-2.43,6.28-1.86c3.12.8,4.47,4.43,5.06,7.59,2.79,15.1-1,38-21.35,36.39C891.21,723.57,889.05,712.87,886.44,703.5Z"/><path class="cls-3" d="M700.3,1387.33c25.3-4.3,47.55-22.26,53.65-47.72.4-1.68-8.06-.53-8.56,1.58-5,20.79-21.85,39.43-43.42,43.1-1,.17-5.05,1-5.12,2.31s2.62.88,3.45.73Z"/><path class="cls-3" d="M1044.06,1317c.72,20.45,3.09,45,24.36,54.45,2,.89,9.92-2.3,7.09-3.55-20.3-9-22.08-34-22.76-53.23-.06-1.76-8.79-.32-8.69,2.33Z"/><path class="cls-3" d="M510.92,665.77c9.06,13.07,6.65,30.3,4,45s-4.85,29-5.49,44c-1.4,32.84,1.16,66.68,12.26,97.83,11.35,31.86,32.54,58.16,62.51,74.27,25.38,13.64,54.37,19.8,83,14.86,14.1-2.43,28-7.52,39.61-16.07,13.74-10.15,21.26-24.12,26.07-40.23.49-1.64-7.92-.64-8.57,1.55-4.13,13.85-10,26.35-21.1,36-9.71,8.42-21.79,13.46-34.38,15.64-28.06,4.84-57.12-3.19-81.31-17.44-27.84-16.4-47.09-42-57.6-72.31-10.09-29.13-12.82-60.54-11.94-91.2.47-16.5,2.68-32.25,5.55-48.46,2.65-15,5.31-32.5-3.92-45.81-1.44-2.09-9.34,1.39-8.69,2.33Z"/><path class="cls-3" d="M911.36,883.42c41.32,103.86,48.52,218.58,52.85,329.1,1.19,30.52,2,61,3.1,91.58.15,4.24,8.89,2.67,8.77-.82-3.87-111.48-4.69-224.51-29.22-333.87a584.16,584.16,0,0,0-26.81-88.31c-1.43-3.59-10-1.09-8.69,2.32Z"/><path class="cls-3" d="M758.22,870.41c25.51,9.33,51.14,18.38,76.4,28.35,10.83,4.27,22.73,9.37,34.51,10,9.68.53,16-7.3,20.54-14.88,4.38-7.41,7.85-15.35,12.94-22.33,1.94-2.66,4.82-6.86,8.32-7.61,4.23-.9,9.83,2.29,13.44,4.14a126.14,126.14,0,0,1,20.71,13.55c5.53,4.35,11.13,8.54,18.31,5.42,7.45-3.24,12.85-10.81,17.41-17.22,5-7,9.13-14.43,14.18-21.31,3.3-4.51-4.83-6.36-7.37-2.89-4.08,5.56-7.54,11.57-11.4,17.29-4,6-8.5,13.35-14.64,17.4-2.11,1.39-2.43,1.23-4.59-.09-3.61-2.19-6.78-5.12-10.09-7.72a103,103,0,0,0-20.12-11.86c-7.19-3.33-15.32-5.4-22.5-1-6.83,4.23-11.21,11.79-15.09,18.58s-7,14.89-12.51,20.65c-4.25,4.43-9.47,2.68-14.87,1.31a154.72,154.72,0,0,1-17.28-5.73c-27-10.31-54.19-20.33-81.37-30.28-4-1.46-10.17,4.27-4.93,6.19Z"/><path class="cls-3" d="M1660.24,578.74c-9.41-10.33-25.6-10.86-38.52-9.33-13.08,1.55-27,5.34-30.49,19.75-3.27,13.35,4.63,31.3,20.7,24.92,17.72-7,7.94-28.16-2.45-37.19-13-11.29-30.83-13.55-46.85-8.31-1.05.34-3.42,1.45-2.5,2.81s4.68,0,5.65-.3c13-4.26,28.18,1.43,37.57,10.79,5.09,5.07,9.78,12.33,9.89,19.75,0,3.55-2.15,11.93-7.15,8.59-3.25-2.17-5.15-6-6.13-9.71a25.55,25.55,0,0,1,1.82-18c3.2-6.22,8.17-7.73,14.63-8.81,12-2,26.89-1.51,35.68,8.14,1.64,1.8,9.82-1.27,8.15-3.1Z"/><path class="cls-3" d="M1722.07,216.54c-14.22,1.37-24.89,10.6-32.45,22.22-3.69,5.68-8,12.86-8.6,19.76s3.14,13.39,8.09,17.87a26,26,0,0,0,20,6.83c6.08-.66,13.38-3.7,14.3-10.53,2.31-17.22-22.6-18.84-34-16.59-16.53,3.27-31.46,14.17-37,30.45-.71,2.1,7.79,1.06,8.62-1.38,4.33-12.75,15.34-23.66,29-25.7,7.22-1.08,16.58,0,21.68,5.82,2.42,2.74,4,7.18,2.62,10.75-1.58,4.23-4.9,3.63-8.54,2.4A25.09,25.09,0,0,1,1691,264.55c-2.46-6.14-.84-11.62,1.79-17.36,4.41-9.63,13.69-25.52,25.61-26.68,1.44-.13,5.15-.56,5.79-2.17s-.5-2-2.15-1.8Z"/><path class="cls-3" d="M1299,303.91c-7.17-8.79-10.55-20.58-10.93-31.8-.35-10.3,2-23,10.78-29.49,4.8-3.56,10.7-3.86,16.45-3.24,8.17.88,17.59,3,23.14,9.56,5.39,6.37,4.47,17.68-5.54,18.37-9.82.67-18.29-8.17-23.25-15.62-11.81-17.71-12.14-41.82,0-59.38,2.42-3.51-6.37-3.1-8.18-.48-13.06,18.89-12.45,44.43.14,63.42,5.94,9,15.21,16.79,26.37,17.49,8.62.54,19.07-3.57,22.08-12.34,3.4-9.89-5.32-18.53-13.65-22.16a56.33,56.33,0,0,0-27.88-4.35c-14.92,1.77-25.22,12.58-28.21,27-3.23,15.62.47,34.12,10.64,46.58,2.1,2.57,10.44-.6,8-3.56Z"/><path class="cls-3" d="M1431.09,422.93c16.46-9.19,30.08-26.08,32.63-45.15.75-5.64-.18-14.9-6.69-17.14-4.69-1.62-10.84.76-14.47,3.78-8.06,6.7-11.86,21.29-4.62,29.81,5.82,6.86,16.6,7,24.83,6A55.33,55.33,0,0,0,1487.3,391a44.37,44.37,0,0,0,13.59-57.33c-1.18-2.18-9.44.95-8.7,2.33,7.23,13.4,7.28,30.06-.75,43.17a39,39,0,0,1-17.33,15.21c-7.38,3.24-18,4.39-25-.39-8.24-5.63-7.32-17.22-2.9-25a40.11,40.11,0,0,1,3.68-4.7c1-1.27,1.48-.25.23-.66-2-.67.59.91.63,1,4.86,5.5,5.29,11.93,3.56,19.06a61.67,61.67,0,0,1-29.88,39c-1.68.94-.81,1.67.52,2,1.88.43,4.55-.75,6.15-1.65Z"/><path class="cls-3" d="M1197.5,444.3a120.81,120.81,0,0,0-9.6-32.21c-4-8.7-9.31-17.56-17.61-22.79-11.27-7.09-34-6-38.38,9.25-1.74,6,.12,13.6,5.52,17.17,6.06,4,14.86,2,20.35-2.09,17.14-12.81,2.47-35.89-8.75-47.26a79.77,79.77,0,0,0-54.92-23.28c-2.86-.06-9.36,4.14-3.56,4.27a72.69,72.69,0,0,1,38.93,12.71c11.35,7.72,22.37,19.34,26.3,32.78,1.81,6.18,1.81,18.27-6.24,20.28-5.77,1.44-9.21-6.36-9.51-11-.42-6.43,3.64-12.53,10.41-12.88,7.15-.37,13.6,3.72,18.33,8.74,11.87,12.57,17.45,32,20,48.63.37,2.39,9.12.44,8.69-2.33Z"/><path class="cls-5" d="M1150.73,808.79c-4.94-6-3.37-20,4.52-22.7,7.33-2.46,17.35,1.65,21.58,8.11s3.49,16-3.29,20.51S1155.5,814.56,1150.73,808.79Z"/><path class="cls-2" d="M1291.11,461c-4.94-6-3.37-20.05,4.52-22.7,7.33-2.46,17.35,1.65,21.57,8.11s3.5,16-3.28,20.51S1295.87,466.76,1291.11,461Z"/><path class="cls-5" d="M1707.24,442.39c-4.93-6-3.36-20,4.53-22.69,7.33-2.47,17.35,1.64,21.57,8.1s3.5,16-3.28,20.51S1712,448.16,1707.24,442.39Z"/><path class="cls-5" d="M967.77,324.63c-4.94-6-3.37-20,4.52-22.69,7.33-2.47,17.35,1.64,21.57,8.1s3.5,16-3.28,20.51S972.53,330.4,967.77,324.63Z"/><path class="cls-2" d="M1465.79,690.4c-4.93-6-3.36-20,4.53-22.7,7.33-2.46,17.35,1.65,21.57,8.11s3.5,16-3.29,20.51S1470.56,696.17,1465.79,690.4Z"/><path class="cls-2" d="M1032.29,612.87c-4.94-6-3.37-20,4.52-22.69,7.33-2.47,17.35,1.64,21.57,8.1s3.5,16-3.28,20.51S1037.06,618.64,1032.29,612.87Z"/><path class="cls-5" d="M1473.24,226.36c-4.93-6-3.36-20,4.53-22.69,7.33-2.46,17.35,1.64,21.57,8.1s3.5,16-3.29,20.52S1478,232.13,1473.24,226.36Z"/><path class="cls-2" d="M1147.84,173.42c-4.93-6-3.36-20,4.53-22.7,7.32-2.46,17.35,1.65,21.57,8.11s3.49,16-3.29,20.51S1152.61,179.19,1147.84,173.42Z"/><path class="cls-1" d="M260,866.06c78.15,77.07,186.55,80.1,186.55,80.1,103.18-97.57,133.18-254.29,133.18-254.29-92,1.87-189.88-82.31-189.88-82.31C397.94,738.18,260,866.06,260,866.06Z"/><path class="cls-3" d="M256,868c32.77,32.1,73.57,54.62,117.31,67.95,22.74,6.94,46.89,12.33,70.75,13.3,6.29.26,10.63-6.12,14.71-10.26q12.54-12.77,23.75-26.74a443.49,443.49,0,0,0,38.6-56.77,576.41,576.41,0,0,0,47.43-107.21c6.12-18.55,11.88-37.5,15.57-56.71.42-2.2-2.49-2.77-4-2.74-36,.56-71.56-11.64-103.51-27.47a442.56,442.56,0,0,1-70.71-44.09c-4.31-3.27-8.6-6.59-12.71-10.11-1.86-1.6-7.93-.19-7.76,2.82,3,50.25-15.41,99-40.15,141.94-20,34.68-44.69,66.73-72.05,95.9-5.46,5.83-11,11.64-16.87,17.08-1.56,1.44-.56,3.4,1.09,4.09,2.11.87,4.62-.22,6.15-1.65,16.89-15.67,32.17-33.37,46.53-51.34,29.66-37.12,55.85-78.34,71.34-123.48,9.19-26.76,14.43-54.9,12.76-83.25L386.49,612c12.44,10.68,26.05,20.19,39.77,29.14,28.56,18.62,59.38,34.72,92.11,44.62,19.78,6,40.25,9.5,61,9.18l-4-2.75c-3.77,19.63-9.66,39-16,57.92-14.58,43.49-33.78,85.71-58.64,124.32a381.83,381.83,0,0,1-57.76,70.47l5.15-1.86c-13.5-.39-27.1-2.7-40.3-5.4a308.78,308.78,0,0,1-89.29-32.85A258.8,258.8,0,0,1,264,864.17C261.25,861.5,253,865,256,868Z"/><path class="cls-3" d="M458.37,882.41c-26.93.56-51.89-12-73.05-27.65-2.63-1.94-10.51,1.84-6.82,4.57,23.07,17.06,49.7,29.2,78.87,28.58,4.62-.09,7-5.63,1-5.5Z"/><path class="cls-3" d="M488.12,839.57c-28.25,2.14-54.85-9.58-77.76-25.18-2.27-1.55-10,1.93-8.12,3.21,24.29,16.53,52.41,28.52,82.33,26.26,1.49-.12,5.12-.56,5.77-2.24s-.51-2.18-2.22-2Z"/><path class="cls-3" d="M526.8,742.78c-26.46,1.9-51.41-8.48-73.18-22.72-3.42-2.23-10.9,2.44-6.65,5.21,23.57,15.41,50.55,26.29,79.15,24.24,5-.36,6.59-7.16.68-6.73Z"/><path class="cls-3" d="M508.41,791.39c-28.16,2.64-54.93-8.67-78.08-23.79-2.14-1.4-9.62,2.11-8.16,3.06,24.54,16,52.78,27.32,82.55,24.52,1.4-.13,5.18-.58,5.8-2.13s-.5-1.81-2.11-1.66Z"/><path class="cls-3" d="M399.16,697.37c5.42,5.09,1,16.7,10.91,18.21,4.72.71,9-2.14,12.94-4.25l16.47-8.79c5.23-2.79.51-7.15-3.78-4.86l-11.27,6c-1.55.83-9.6,6.44-11.47,5.38-2.12-1.2-2.06-5.93-2.39-8-.47-2.89-1.25-5.45-3.44-7.5-2.74-2.57-11,1-8,3.75Z"/><path class="cls-3" d="M383.22,743.36c-.06,5.1,3.74,16.71,9.72,17.5,5.59.74,11.83-3.26,16.64-5.47l22.06-10.13c1.42-.65,2.28-1.47,1-2.48s-4.94.52-6.09,1.05l-15,6.89c-2.52,1.16-11.58,6.54-13.29,5.86-2.09-.82-3.75-6-4.47-7.87a21.46,21.46,0,0,1-1.89-7.68c0-1.62-8.66-.36-8.69,2.33Z"/><path class="cls-3" d="M319.24,833.4c-.06,5.1,3.75,16.72,9.72,17.51,5.59.73,11.84-3.26,16.65-5.47l22.06-10.13c1.41-.65,2.28-1.48,1-2.48s-4.93.52-6.09,1l-15,6.89c-2.51,1.15-11.58,6.54-13.29,5.86-2.09-.83-3.75-6-4.46-7.87a21.26,21.26,0,0,1-1.89-7.69c0-1.62-8.66-.36-8.7,2.33Z"/><path class="cls-3" d="M354.36,782.73l3.54,18.44c.39,2,3.63,2.42,5.16,1.86l37.09-13.53c5.13-1.88,3.66-8-1.62-6.06L361.44,797l5.16,1.86-3.54-18.44c-.78-4.07-9.5-1.84-8.7,2.33Z"/><path class="cls-4" d="M1117.31,561.73c32,54,73.8,101.81,123.86,139.76,3.58,2.72,8.77,3.7,13.1,4.2,8.72,1,17.67-.39,26.16-2.21a112.12,112.12,0,0,0,22.23-7.15c6.68-3,14.08-6.63,19-12.23q46.21-52.71,97.33-100.82,12.69-11.92,25.65-23.55,6.31-5.65,12.7-11.25c1.64-1.43,8.82-7.42,1.5-1.32,2.51-2.1,5-4.27,7.46-6.4q26.84-22.86,54.78-44.42,31.11-24,63.49-46.28c3.84-2.65,11.22-9,9.64-14.93s-11.16-7.72-15.81-8.11c-20.66-1.74-44.39,4.7-61.48,16.47a1499.24,1499.24,0,0,0-220.13,185.33q-28.11,28.71-54.6,58.94l80.48-17.39a474.47,474.47,0,0,1-102.86-107.29l2.71,3.92q-9.63-14-18.27-28.57c-3.53-5.95-9.08-7.34-15.82-8.11-10.17-1.15-22.3.69-32,3.46-10.12,2.9-21.07,6.45-29.45,13-3.33,2.61-12.77,9.66-9.65,14.94Z"/><path class="cls-3" d="M421.92,1706.45a44.4,44.4,0,0,0-3.32,46.42c1.68,3.16,10.15.4,8.69-2.33a41.38,41.38,0,0,1,2.79-43.68c2.42-3.38-6.35-2.93-8.16-.41Z"/><path class="cls-3" d="M386.1,1694.32c-17.17,27.86-14.73,65.28,6,90.6,2.08,2.53,10.43-.63,8-3.54-19.82-24.15-22.33-60-5.93-86.62,2.26-3.66-6.51-3.13-8.16-.44Z"/><path class="cls-3" d="M945.34,1815.76a64.68,64.68,0,0,1-34.09,32.66c-5.64,2.29-.45,4.69,3.32,3.16a73.71,73.71,0,0,0,39.43-37c1.07-2.28-7.43-1.43-8.66,1.21Z"/><path class="cls-3" d="M1016.68,858.16c21.76,57.08,81.46,116.06,147.54,102.51,34.81-7.15,62-34.27,80.11-63.63,19.21-31.26,29.05-67.44,33.19-103.66,2.43-21.25,2-42,.79-63.32-1.3-23-1.87-47.2,9.34-68.1,1.89-3.52-6.76-2.52-8.07-.09-18.26,34-7,72.93-8.82,109.48-1.73,35-8.17,70.3-22.36,102.44-13.79,31.22-37.28,64.17-69.66,77.91-28.93,12.28-60.69,4.3-86.27-12-30.45-19.44-54.28-50.21-67.1-83.83-1.11-2.91-9.71-.34-8.69,2.33Z"/><path class="cls-3" d="M484.3,679.77a30.82,30.82,0,0,1,9.87-14.19c5.9-5,11.65-6,17,.49,1.3,1.6,9.47-1.38,8.2-2.94-13-15.85-39.22,3.58-43.64,18.19-.5,1.64,7.9.64,8.57-1.55Z"/></g></g></svg>