<svg width="80" height="80" viewBox="0 0 80 80" fill="none" xmlns="http://www.w3.org/2000/svg">
<circle cx="45" cy="46" r="12" fill="#E8F6B1"/>
<path d="M58.75 28.75H28.75V23.75C28.75 23.087 29.0134 22.4511 29.4822 21.9822C29.9511 21.5134 30.587 21.25 31.25 21.25H58.75" stroke="#2E88FF" stroke-width="2.5" stroke-linecap="round" stroke-linejoin="round"/>
<path d="M28.75 28.75H38.75V32.0833C38.75 32.5254 38.5743 32.9493 38.2618 33.2618C37.9493 33.5744 37.5253 33.75 37.0833 33.75H30.4167C29.9746 33.75 29.5507 33.5744 29.2382 33.2618C28.9256 32.9493 28.75 32.5254 28.75 32.0833V28.75Z" stroke="#2E88FF" stroke-width="2.5" stroke-linecap="round" stroke-linejoin="round"/>
<path d="M43.75 38.75L41.5233 56.56C41.4478 57.1645 41.1542 57.7207 40.6975 58.124C40.2408 58.5272 39.6525 58.7498 39.0433 58.75H25.9567C25.3474 58.7498 24.7592 58.5272 24.3026 58.124C23.8459 57.7207 23.5522 57.1645 23.4767 56.56L21.25 38.75" stroke="#2E88FF" stroke-width="2.5" stroke-linecap="round" stroke-linejoin="round"/>
<path d="M32.5 43.125C32.1548 43.125 31.875 42.8452 31.875 42.5C31.875 42.1548 32.1548 41.875 32.5 41.875" stroke="#2E88FF" stroke-width="2.5"/>
<path d="M32.5 43.125C32.8452 43.125 33.125 42.8452 33.125 42.5C33.125 42.1548 32.8452 41.875 32.5 41.875" stroke="#2E88FF" stroke-width="2.5"/>
<path d="M28.75 50.625C28.4048 50.625 28.125 50.3452 28.125 50C28.125 49.6548 28.4048 49.375 28.75 49.375" stroke="#2E88FF" stroke-width="2.5"/>
<path d="M28.75 50.625C29.0952 50.625 29.375 50.3452 29.375 50C29.375 49.6548 29.0952 49.375 28.75 49.375" stroke="#2E88FF" stroke-width="2.5"/>
<path d="M36.25 50.625C35.9048 50.625 35.625 50.3452 35.625 50C35.625 49.6548 35.9048 49.375 36.25 49.375" stroke="#2E88FF" stroke-width="2.5"/>
<path d="M36.25 50.625C36.5952 50.625 36.875 50.3452 36.875 50C36.875 49.6548 36.5952 49.375 36.25 49.375" stroke="#2E88FF" stroke-width="2.5"/>
</svg>
