<svg width="24" height="20" viewBox="0 0 24 20" fill="none" xmlns="http://www.w3.org/2000/svg">
<path d="M23.15 3.39996L20.35 0.59996C20.2565 0.508346 20.1308 0.457031 20 0.457031C19.8691 0.457031 19.7434 0.508346 19.65 0.59996L7.84996 12.4C7.7565 12.4916 7.63084 12.5429 7.49996 12.5429C7.36908 12.5429 7.24342 12.4916 7.14996 12.4L4.34996 9.59996C4.2565 9.50835 4.13084 9.45703 3.99996 9.45703C3.86908 9.45703 3.74342 9.50835 3.64996 9.59996L0.84996 12.4C0.758346 12.4934 0.707031 12.6191 0.707031 12.75C0.707031 12.8808 0.758346 13.0065 0.84996 13.1L7.14996 19.4C7.24342 19.4916 7.36908 19.5429 7.49996 19.5429C7.63084 19.5429 7.7565 19.4916 7.84996 19.4L23.15 4.09996C23.2416 4.0065 23.2929 3.88084 23.2929 3.74996C23.2929 3.61908 23.2416 3.49342 23.15 3.39996Z" fill="#030F40"/>
</svg>
