<svg width="24" height="24" viewBox="0 0 24 24" fill="none" xmlns="http://www.w3.org/2000/svg">
<path d="M5.25 9C5.25 10.1935 5.72411 11.3381 6.56802 12.182C7.41193 13.0259 8.55653 13.5 9.75 13.5C10.9435 13.5 12.0881 13.0259 12.932 12.182C13.7759 11.3381 14.25 10.1935 14.25 9C14.25 7.80653 13.7759 6.66193 12.932 5.81802C12.0881 4.97411 10.9435 4.5 9.75 4.5C8.55653 4.5 7.41193 4.97411 6.56802 5.81802C5.72411 6.66193 5.25 7.80653 5.25 9V9Z" stroke="#3D466C" stroke-width="1.5" stroke-linecap="round" stroke-linejoin="round"/>
<path d="M8.25 4.756V0.75H11.25V4.757" stroke="#3D466C" stroke-width="1.5" stroke-linecap="round" stroke-linejoin="round"/>
<path d="M11.25 0.75H14.25" stroke="#3D466C" stroke-width="1.5" stroke-linecap="round" stroke-linejoin="round"/>
<path d="M5.25 0.75H8.25" stroke="#3D466C" stroke-width="1.5" stroke-linecap="round" stroke-linejoin="round"/>
<path d="M22.031 21.094C22.031 21.6658 21.8038 22.2142 21.3995 22.6185C20.9952 23.0229 20.4468 23.25 19.875 23.25C19.3032 23.25 18.7548 23.0229 18.3505 22.6185C17.9461 22.2142 17.719 21.6658 17.719 21.094C17.719 19.903 19.156 17.5 19.875 17.5C20.594 17.5 22.031 19.9 22.031 21.094Z" stroke="#3D466C" stroke-width="1.5" stroke-linecap="round" stroke-linejoin="round"/>
<path d="M13.647 6.75H17.247C18.4404 6.75 19.585 7.22411 20.429 8.06802C21.2729 8.91193 21.747 10.0565 21.747 11.25V14.25H18V12.75C18 12.3522 17.8419 11.9706 17.5606 11.6893C17.2793 11.408 16.8978 11.25 16.5 11.25H13.648" stroke="#3D466C" stroke-width="1.5" stroke-linecap="round" stroke-linejoin="round"/>
<path d="M5.853 6.75H0.75V11.25H5.853" stroke="#3D466C" stroke-width="1.5" stroke-linecap="round" stroke-linejoin="round"/>
<path d="M0.75 0.75V17.25" stroke="#3D466C" stroke-width="1.5" stroke-linecap="round" stroke-linejoin="round"/>
</svg>
