<svg width="80" height="80" viewBox="0 0 80 80" fill="none" xmlns="http://www.w3.org/2000/svg">
<circle cx="53" cy="40" r="12" fill="#77B7FC"/>
<path d="M39 22.1935L29.2067 35.5368C27.2852 38.1561 26.2495 41.32 26.25 44.5685V44.5685C26.25 48.2152 27.6987 51.7125 30.2773 54.2912C32.8559 56.8698 36.3533 58.3185 40 58.3185V58.3185C43.6467 58.3185 47.1441 56.8698 49.7227 54.2912C52.3013 51.7125 53.75 48.2152 53.75 44.5685V44.5685C53.7505 41.32 52.7148 38.1561 50.7933 35.5368L41.0083 22.1935C40.8921 22.0366 40.7407 21.9092 40.5663 21.8214C40.3919 21.7336 40.1994 21.6879 40.0042 21.6879C39.8089 21.6879 39.6164 21.7336 39.442 21.8214C39.2677 21.9092 39.1163 22.0366 39 22.1935V22.1935Z" stroke="#030F40" stroke-width="2.5" stroke-linecap="round" stroke-linejoin="round"/>
<path d="M50.605 53.3185H41.25" stroke="#030F40" stroke-width="2.5" stroke-linecap="round" stroke-linejoin="round"/>
<path d="M53.6933 45.8185H41.25" stroke="#030F40" stroke-width="2.5" stroke-linecap="round" stroke-linejoin="round"/>
<path d="M52.4117 38.3185H41.25" stroke="#030F40" stroke-width="2.5" stroke-linecap="round" stroke-linejoin="round"/>
<path d="M47.3333 30.8185H41.25" stroke="#030F40" stroke-width="2.5" stroke-linecap="round" stroke-linejoin="round"/>
</svg>
