<svg width="80" height="80" viewBox="0 0 80 80" fill="none" xmlns="http://www.w3.org/2000/svg">
<circle cx="53" cy="42" r="12" fill="#E8F6B1"/>
<path d="M40 38.75C44.8325 38.75 48.75 34.8325 48.75 30C48.75 25.1675 44.8325 21.25 40 21.25C35.1675 21.25 31.25 25.1675 31.25 30C31.25 34.8325 35.1675 38.75 40 38.75Z" stroke="#2E88FF" stroke-width="2.5" stroke-linecap="round" stroke-linejoin="round"/>
<path d="M23.75 58.75C23.75 54.4402 25.462 50.307 28.5095 47.2595C31.557 44.212 35.6902 42.5 40 42.5C44.3098 42.5 48.443 44.212 51.4905 47.2595C54.538 50.307 56.25 54.4402 56.25 58.75" stroke="#2E88FF" stroke-width="2.5" stroke-linecap="round" stroke-linejoin="round"/>
<path d="M33.75 43.75V45C33.75 46.6576 34.4085 48.2473 35.5806 49.4194C36.7527 50.5915 38.3424 51.25 40 51.25C41.6576 51.25 43.2473 50.5915 44.4194 49.4194C45.5915 48.2473 46.25 46.6576 46.25 45V43.75" stroke="#2E88FF" stroke-width="2.5" stroke-linecap="round" stroke-linejoin="round"/>
<path d="M30 45.9335V58.7501" stroke="#2E88FF" stroke-width="2.5" stroke-linecap="round" stroke-linejoin="round"/>
<path d="M50 45.9335V58.7501" stroke="#2E88FF" stroke-width="2.5" stroke-linecap="round" stroke-linejoin="round"/>
<path d="M37.083 30.8335V21.7501" stroke="#2E88FF" stroke-width="2.5" stroke-linecap="round" stroke-linejoin="round"/>
<path d="M42.917 30.8335V21.7501" stroke="#2E88FF" stroke-width="2.5" stroke-linecap="round" stroke-linejoin="round"/>
<path d="M28.75 30.8334H51.25" stroke="#2E88FF" stroke-width="2.5" stroke-linecap="round" stroke-linejoin="round"/>
</svg>
