<svg width="28" height="28" viewBox="0 0 28 28" fill="none" xmlns="http://www.w3.org/2000/svg">
<circle cx="20" cy="8" r="8" fill="#E8F6B1"/>
<path d="M12 18L12.0008 17.25L11.9992 17.25L12 18ZM11.8929 18.0001L11.8936 18.7501H11.8936L11.8929 18.0001ZM12.1071 18.0001L12.1064 18.7501H12.1064L12.1071 18.0001ZM18.361 19.5377L17.8524 20.0889H17.8524L18.361 19.5377ZM21 25.4068H21.75V25.4059L21 25.4068ZM20.8117 25.8263L21.3203 26.3775L21.3203 26.3775L20.8117 25.8263ZM3.18829 25.8263L2.67969 26.3775L2.6797 26.3775L3.18829 25.8263ZM3 25.4068L2.25 25.4059V25.4068H3ZM5.63905 19.5377L6.14764 20.0889L5.63905 19.5377ZM12 15.75C14.8995 15.75 17.25 13.3995 17.25 10.5H15.75C15.75 12.5711 14.0711 14.25 12 14.25V15.75ZM6.75 10.5C6.75 13.3995 9.1005 15.75 12 15.75V14.25C9.92893 14.25 8.25 12.5711 8.25 10.5H6.75ZM12 5.25C9.1005 5.25 6.75 7.6005 6.75 10.5H8.25C8.25 8.42893 9.92893 6.75 12 6.75V5.25ZM17.25 10.5C17.25 7.6005 14.8995 5.25 12 5.25V6.75C14.0711 6.75 15.75 8.42893 15.75 10.5H17.25ZM11.9992 17.25C11.9636 17.25 11.9279 17.2501 11.8922 17.2501L11.8936 18.7501C11.9292 18.7501 11.965 18.75 12.0008 18.75L11.9992 17.25ZM12.1078 17.2501C12.0721 17.2501 12.0364 17.25 12.0008 17.25L11.9992 18.75C12.035 18.75 12.0708 18.7501 12.1064 18.7501L12.1078 17.2501ZM18.8695 18.9865C16.9551 17.2201 14.3851 17.2522 12.1078 17.2501L12.1064 18.7501C14.5238 18.7523 16.4429 18.7884 17.8524 20.0889L18.8695 18.9865ZM21.75 25.4059C21.747 22.9854 20.703 20.6782 18.8695 18.9865L17.8524 20.0889C19.3934 21.5108 20.2475 23.4251 20.25 25.4078L21.75 25.4059ZM21.3203 26.3775C21.5873 26.1311 21.75 25.7834 21.75 25.4068H20.25C20.25 25.3449 20.2772 25.299 20.3031 25.2751L21.3203 26.3775ZM20.3571 26.75C20.7079 26.75 21.0553 26.622 21.3203 26.3775L20.3031 25.2751C20.3155 25.2636 20.327 25.2575 20.3354 25.2543C20.3438 25.2511 20.351 25.25 20.3571 25.25V26.75ZM3.64286 26.75H20.3571V25.25H3.64286V26.75ZM2.6797 26.3775C2.94468 26.622 3.29205 26.75 3.64286 26.75V25.25C3.64898 25.25 3.65624 25.2511 3.6646 25.2543C3.67295 25.2575 3.68445 25.2636 3.69688 25.2751L2.6797 26.3775ZM2.25 25.4068C2.25 25.7834 2.41268 26.1311 2.67969 26.3775L3.69688 25.2751C3.72278 25.299 3.75 25.3449 3.75 25.4068H2.25ZM5.13045 18.9865C3.29698 20.6782 2.25299 22.9854 2.25 25.4059L3.75 25.4078C3.75245 23.4251 4.60663 21.5108 6.14764 20.0889L5.13045 18.9865ZM11.8922 17.2501C9.61487 17.2522 7.0449 17.2201 5.13045 18.9865L6.14764 20.0889C7.55714 18.7884 9.47619 18.7523 11.8936 18.7501L11.8922 17.2501Z" fill="#2E88FF"/>
</svg>
