<svg width="48" height="48" viewBox="0 0 48 48" fill="none" xmlns="http://www.w3.org/2000/svg">
<path d="M17.25 16.5H29.25C29.4489 16.5 29.6397 16.421 29.7803 16.2803C29.921 16.1397 30 15.9489 30 15.75C29.9977 14.0905 29.385 12.4899 28.2784 11.2532C27.1719 10.0166 25.649 9.23027 24 9.04425V8.25C24 6.85761 24.5531 5.52226 25.5377 4.53769C26.5223 3.55312 27.8576 3 29.25 3C30.6424 3 31.9777 3.55312 32.9623 4.53769C33.9469 5.52226 34.5 6.85761 34.5 8.25V25.5C34.5 25.9142 34.8358 26.25 35.25 26.25C35.6642 26.25 36 25.9142 36 25.5V8.25C36 6.45979 35.2888 4.7429 34.023 3.47703C32.7571 2.21116 31.0402 1.5 29.25 1.5C27.4598 1.5 25.7429 2.21116 24.477 3.47703C23.2112 4.7429 22.5 6.45979 22.5 8.25V9.04425C20.851 9.23027 19.3281 10.0166 18.2216 11.2532C17.115 12.4899 16.5022 14.0905 16.5 15.75C16.5 15.9489 16.579 16.1397 16.7197 16.2803C16.8603 16.421 17.0511 16.5 17.25 16.5Z" fill="#9BCD41"/>
<path d="M18 20.25V22.5C18 22.6989 18.079 22.8897 18.2197 23.0303C18.3603 23.171 18.5511 23.25 18.75 23.25C18.9489 23.25 19.1397 23.171 19.2803 23.0303C19.421 22.8897 19.5 22.6989 19.5 22.5V20.25C19.5 20.0511 19.421 19.8603 19.2803 19.7197C19.1397 19.579 18.9489 19.5 18.75 19.5C18.5511 19.5 18.3603 19.579 18.2197 19.7197C18.079 19.8603 18 20.0511 18 20.25Z" fill="#59B9FF"/>
<path d="M22.5 21.75V24C22.5 24.1989 22.579 24.3897 22.7197 24.5303C22.8603 24.671 23.0511 24.75 23.25 24.75C23.4489 24.75 23.6397 24.671 23.7803 24.5303C23.921 24.3897 24 24.1989 24 24V21.75C24 21.5511 23.921 21.3603 23.7803 21.2197C23.6397 21.079 23.4489 21 23.25 21C23.0511 21 22.8603 21.079 22.7197 21.2197C22.579 21.3603 22.5 21.5511 22.5 21.75Z" fill="#59B9FF"/>
<path d="M27 20.25V22.5C27 22.6989 27.079 22.8897 27.2197 23.0303C27.3603 23.171 27.5511 23.25 27.75 23.25C27.9489 23.25 28.1397 23.171 28.2803 23.0303C28.421 22.8897 28.5 22.6989 28.5 22.5V20.25C28.5 20.0511 28.421 19.8603 28.2803 19.7197C28.1397 19.579 27.9489 19.5 27.75 19.5C27.5511 19.5 27.3603 19.579 27.2197 19.7197C27.079 19.8603 27 20.0511 27 20.25Z" fill="#59B9FF"/>
<path d="M45.75 27.75H2.25C2.05109 27.75 1.86032 27.829 1.71967 27.9697C1.57902 28.1103 1.5 28.3011 1.5 28.5V34.5C1.50258 36.6872 2.3726 38.7842 3.91922 40.3308C5.46583 41.8774 7.56276 42.7474 9.75 42.75H11.7502L10.5 46.5H12.75L14.0002 42.75H33.9997L35.25 46.5H37.5L36.2497 42.75H38.25C40.4372 42.7474 42.5342 41.8774 44.0808 40.3308C45.6274 38.7842 46.4974 36.6872 46.5 34.5V28.5C46.5 28.3011 46.421 28.1103 46.2803 27.9697C46.1397 27.829 45.9489 27.75 45.75 27.75Z" fill="#9BCD41"/>
</svg>
