<svg width="48" height="48" viewBox="0 0 48 48" fill="none" xmlns="http://www.w3.org/2000/svg">
<path fill-rule="evenodd" clip-rule="evenodd" d="M11 4.5C11 3.67157 11.6716 3 12.5 3C13.3284 3 14 3.67157 14 4.5V6H34V4.5C34 3.67157 34.6716 3 35.5 3C36.3284 3 37 3.67157 37 4.5V6H39C42.3137 6 45 8.68629 45 12V14H3V12C3 8.68629 5.68629 6 9 6H11V4.5Z" fill="#A2C617"/>
<path fill-rule="evenodd" clip-rule="evenodd" d="M4 17C3.44772 17 3 17.4477 3 18V39C3 42.3137 5.68629 45 9 45H39C42.3137 45 45 42.3137 45 39V18C45 17.4477 44.5523 17 44 17H4ZM19.4141 36.1916V38.9996H29.8061V36.1916H23.2061L27.9821 30.6476C28.2701 30.3116 28.5261 29.9996 28.7501 29.7116C28.9901 29.4076 29.1821 29.1036 29.3261 28.7996C29.4861 28.4956 29.6061 28.1836 29.6861 27.8636C29.7661 27.5276 29.8061 27.1516 29.8061 26.7356C29.8061 25.9676 29.6781 25.2796 29.4221 24.6716C29.1661 24.0476 28.8061 23.5276 28.3421 23.1116C27.8941 22.6796 27.3501 22.3516 26.7101 22.1276C26.0701 21.8876 25.3741 21.7676 24.6221 21.7676C23.8861 21.7676 23.1981 21.8796 22.5581 22.1036C21.9341 22.3276 21.3821 22.6556 20.9021 23.0876C20.4381 23.5196 20.0701 24.0476 19.7981 24.6716C19.5421 25.2796 19.4141 25.9756 19.4141 26.7596H22.5341C22.5341 26.3436 22.5901 25.9996 22.7021 25.7276C22.8301 25.4396 22.9901 25.2156 23.1821 25.0556C23.3901 24.8796 23.6141 24.7596 23.8541 24.6956C24.1101 24.6156 24.3661 24.5756 24.6221 24.5756C25.2941 24.5756 25.8061 24.7756 26.1581 25.1756C26.5101 25.5596 26.6861 26.0716 26.6861 26.7116C26.6861 27.1116 26.6141 27.4636 26.4701 27.7676C26.3421 28.0716 26.1181 28.4076 25.7981 28.7756L19.4141 36.1916Z" fill="#A2C617"/>
</svg>
