<svg width="157" height="158" viewBox="0 0 157 158" fill="none" xmlns="http://www.w3.org/2000/svg">
<mask id="path-1-outside-1_6109_91206" maskUnits="userSpaceOnUse" x="0" y="39.5" width="101" height="118" fill="black">
<rect fill="white" y="39.5" width="101" height="118"/>
<path fill-rule="evenodd" clip-rule="evenodd" d="M12.2204 42.5L78.2372 78.8276L97 152.128C91.0021 153.676 84.7152 154.5 78.2371 154.5C36.6848 154.5 3 120.62 3 78.8275C3 65.6626 6.34247 53.2829 12.2204 42.5Z"/>
</mask>
<path fill-rule="evenodd" clip-rule="evenodd" d="M12.2204 42.5L78.2372 78.8276L97 152.128C91.0021 153.676 84.7152 154.5 78.2371 154.5C36.6848 154.5 3 120.62 3 78.8275C3 65.6626 6.34247 53.2829 12.2204 42.5Z" fill="#034A96"/>
<path d="M12.2204 42.5L13.6668 39.8717C12.9679 39.4871 12.1446 39.3967 11.3789 39.6204C10.6132 39.8442 9.96818 40.3637 9.58638 41.0641L12.2204 42.5ZM78.2372 78.8276L81.1435 78.0837C80.938 77.2808 80.4095 76.5988 79.6835 76.1992L78.2372 78.8276ZM97 152.128L97.7499 155.033C99.3518 154.619 100.317 152.987 99.9063 151.384L97 152.128ZM10.7741 45.1283L76.7909 81.4559L79.6835 76.1992L13.6668 39.8717L10.7741 45.1283ZM75.3309 79.5715L94.0937 152.872L99.9063 151.384L81.1435 78.0837L75.3309 79.5715ZM96.25 149.223C90.495 150.709 84.46 151.5 78.2371 151.5V157.5C84.9704 157.5 91.5093 156.644 97.7499 155.033L96.25 149.223ZM78.2371 151.5C38.358 151.5 6 118.98 6 78.8275H0C0 122.261 35.0117 157.5 78.2371 157.5V151.5ZM6 78.8275C6 66.1761 9.21093 54.2888 14.8545 43.9359L9.58638 41.0641C3.47401 52.277 0 65.1491 0 78.8275H6Z" fill="white" mask="url(#path-1-outside-1_6109_91206)"/>
<mask id="path-3-outside-2_6109_91206" maskUnits="userSpaceOnUse" x="9" y="0.5" width="72" height="81" fill="black">
<rect fill="white" x="9" y="0.5" width="72" height="81"/>
<path fill-rule="evenodd" clip-rule="evenodd" d="M78 3.5L78 78.5L12 42.5366C24.7677 19.2744 49.537 3.5 78 3.5Z"/>
</mask>
<path fill-rule="evenodd" clip-rule="evenodd" d="M78 3.5L78 78.5L12 42.5366C24.7677 19.2744 49.537 3.5 78 3.5Z" fill="#A2C617"/>
<path d="M78 78.5L76.5645 81.1343C77.4941 81.6408 78.6217 81.6199 79.5319 81.0793C80.4421 80.5388 81 79.5586 81 78.5H78ZM78 3.5L81 3.5C81 2.70435 80.6839 1.94129 80.1213 1.37868C79.5587 0.816071 78.7957 0.5 78 0.5V3.5ZM12 42.5366L9.37009 41.0932C8.9865 41.7921 8.89686 42.6149 9.12098 43.38C9.34509 44.1451 9.86452 44.7895 10.5646 45.1709L12 42.5366ZM81 78.5L81 3.5L75 3.5L75 78.5H81ZM10.5646 45.1709L76.5645 81.1343L79.4354 75.8657L13.4354 39.9023L10.5646 45.1709ZM14.6299 43.9801C26.8907 21.6415 50.6727 6.5 78 6.5V0.5C48.4012 0.5 22.6448 16.9073 9.37009 41.0932L14.6299 43.9801Z" fill="white" mask="url(#path-3-outside-2_6109_91206)"/>
<mask id="path-5-outside-3_6109_91206" maskUnits="userSpaceOnUse" x="75" y="0.5" width="82" height="156" fill="black">
<rect fill="white" x="75" y="0.5" width="82" height="156"/>
<path fill-rule="evenodd" clip-rule="evenodd" d="M96.8712 152.5C129.716 144.144 154 114.484 154 79.1756C154 37.3811 119.974 3.5 78 3.5V79.1757L96.8712 152.5Z"/>
</mask>
<path fill-rule="evenodd" clip-rule="evenodd" d="M96.8712 152.5C129.716 144.144 154 114.484 154 79.1756C154 37.3811 119.974 3.5 78 3.5V79.1757L96.8712 152.5Z" fill="#59B9FF"/>
<path d="M96.8712 152.5L93.9658 153.248C94.378 154.849 96.0083 155.815 97.6108 155.407L96.8712 152.5ZM78 3.5V0.5C76.3431 0.5 75 1.84315 75 3.5L78 3.5ZM78 79.1757H75C75 79.428 75.0318 79.6792 75.0947 79.9235L78 79.1757ZM151 79.1756C151 113.071 127.687 141.565 96.1315 149.593L97.6108 155.407C131.745 146.723 157 115.896 157 79.1756H151ZM78 6.5C118.329 6.5 151 39.0501 151 79.1756H157C157 35.7122 121.618 0.5 78 0.5V6.5ZM81 79.1757V3.5H75V79.1757H81ZM99.7765 151.752L80.9053 78.428L75.0947 79.9235L93.9658 153.248L99.7765 151.752Z" fill="white" mask="url(#path-5-outside-3_6109_91206)"/>
</svg>
