<svg width="40" height="40" viewBox="0 0 40 40" fill="none" xmlns="http://www.w3.org/2000/svg">
<path d="M35 35H7.66667C6.73325 35 6.26654 35 5.91002 34.8183C5.59641 34.6586 5.34144 34.4036 5.18166 34.09C5 33.7335 5 33.2668 5 32.3333V5M33.3333 13.3333L26.8019 20.3044C26.5544 20.5686 26.4306 20.7007 26.2813 20.769C26.1495 20.8293 26.0043 20.8541 25.8599 20.8411C25.6964 20.8264 25.5358 20.743 25.2145 20.5761L19.7855 17.7572C19.4642 17.5904 19.3036 17.507 19.1401 17.4922C18.9957 17.4792 18.8505 17.5041 18.7187 17.5643C18.5694 17.6326 18.4456 17.7647 18.1981 18.0289L11.6667 25" stroke="#A2C617" stroke-width="1.5" stroke-linecap="round" stroke-linejoin="round"/>
</svg>
