<svg width="48" height="48" viewBox="0 0 48 48" fill="none" xmlns="http://www.w3.org/2000/svg">
<g clip-path="url(#clip0_6109_91217)">
<path fill-rule="evenodd" clip-rule="evenodd" d="M33 36C41.2843 36 48 29.2843 48 21C48 12.7157 41.2843 6 33 6C24.7157 6 18 12.7157 18 21C18 29.2843 24.7157 36 33 36ZM36.6696 14.4329C37.599 14.365 38.2975 13.5565 38.2295 12.627C38.1616 11.6976 37.3531 10.9991 36.4236 11.0671C33.8673 11.2539 31.4764 12.4012 29.7313 14.2785C28.7757 15.3065 28.0525 16.5117 27.5937 17.8126H26.4532C25.5212 17.8126 24.7657 18.5681 24.7657 19.5C24.7657 20.4319 25.5212 21.1874 26.4532 21.1874H27.0161C27.0161 21.5644 27.0371 21.9393 27.0785 22.3106H26.4532C25.5212 22.3106 24.7658 23.0661 24.7658 23.998C24.7658 24.93 25.5212 25.6855 26.4532 25.6855H28.0677C28.4992 26.558 29.0575 27.3709 29.7313 28.0957C31.4764 29.973 33.8673 31.1204 36.4236 31.3072C37.3531 31.3751 38.1616 30.6767 38.2295 29.7472C38.2975 28.8178 37.599 28.0092 36.6696 27.9413C34.9635 27.8166 33.3678 27.0509 32.2031 25.798C32.1685 25.7608 32.1344 25.7233 32.1008 25.6855H35.4528C36.3847 25.6855 37.1402 24.93 37.1402 23.998C37.1402 23.0661 36.3847 22.3106 35.4528 22.3106H30.4848C30.4227 21.9417 30.391 21.5661 30.391 21.1874H35.4528C36.3847 21.1874 37.1402 20.4319 37.1402 19.5C37.1402 18.5681 36.3847 17.8126 35.4528 17.8126H31.2916C31.5457 17.3705 31.8507 16.9553 32.2031 16.5763C33.3678 15.3233 34.9635 14.5576 36.6696 14.4329Z" fill="#9BCD41"/>
<path fill-rule="evenodd" clip-rule="evenodd" d="M31.3979 38.1766C22.6221 37.3684 15.75 29.9867 15.75 21C15.75 15.5668 18.2619 10.7203 22.1876 7.55841C19.6729 3.95764 17.6885 1.43826 17.6568 1.39803L17.6567 1.39791L16.5524 0L15.4482 1.398C15.41 1.44647 11.5749 6.31453 7.79484 12.217C2.62247 20.2931 0 26.4082 0 30.3923C0 40.1012 7.42537 48 16.5525 48C23.0541 48 28.6922 43.9919 31.3979 38.1766Z" fill="#77B7FC"/>
</g>
<defs>
<clipPath id="clip0_6109_91217">
<rect width="48" height="48" fill="white"/>
</clipPath>
</defs>
</svg>
