<svg width="32" height="32" viewBox="0 0 32 32" fill="none" xmlns="http://www.w3.org/2000/svg">
<path d="M11.9997 14L14.6663 16.6667L20.6663 10.6667M26.6663 28V10.4C26.6663 8.15979 26.6663 7.03969 26.2304 6.18404C25.8469 5.43139 25.235 4.81947 24.4823 4.43597C23.6267 4 22.5066 4 20.2663 4H11.733C9.4928 4 8.37269 4 7.51705 4.43597C6.7644 4.81947 6.15248 5.43139 5.76898 6.18404C5.33301 7.03969 5.33301 8.15979 5.33301 10.4V28L8.99967 25.3333L12.333 28L15.9997 25.3333L19.6663 28L22.9997 25.3333L26.6663 28Z" stroke="white" stroke-width="2" stroke-linecap="round" stroke-linejoin="round"/>
</svg>
