<svg width="255" height="90" viewBox="0 0 255 90" fill="none" xmlns="http://www.w3.org/2000/svg">
<rect x="0.5" y="0.5" width="254" height="89" rx="3.5" stroke="#D5D6DE"/>
<path d="M22.688 18.768L21.84 19.632C21.408 19.2 21.088 19.056 20.48 19.056C19.328 19.056 18.592 19.968 18.592 21.168V26H17.44V18.128H18.592V19.088C19.024 18.432 19.888 18.032 20.8 18.032C21.552 18.032 22.128 18.208 22.688 18.768ZM29.722 22.368H24.41C24.41 24.096 25.21 25.088 26.73 25.088C27.642 25.088 28.17 24.816 28.794 24.192L29.578 24.88C28.778 25.68 28.026 26.096 26.698 26.096C24.602 26.096 23.258 24.848 23.258 22.064C23.258 19.504 24.49 18.032 26.49 18.032C28.538 18.032 29.722 19.488 29.722 21.856V22.368ZM28.586 21.504C28.538 20.864 28.522 20.608 28.33 20.192C27.994 19.472 27.338 19.008 26.49 19.008C25.642 19.008 24.986 19.472 24.65 20.192C24.458 20.608 24.442 20.864 24.41 21.504H28.586ZM28.522 14.048L26.842 16.496H25.738L27.194 14.048H28.522ZM35.2624 19.008H33.5824V26H32.4304V19.008H31.4224V18.128H32.4304V16.688C32.4304 15.52 33.0864 14.576 34.4304 14.576H35.2624V15.568H34.6384C33.9024 15.568 33.5824 16 33.5824 16.72V18.128H35.2624V19.008ZM37.8808 26H36.3768V24.496H37.8808V26ZM50.3536 24.928C49.5376 25.808 48.8496 26.096 47.7616 26.096C45.7776 26.096 44.2736 24.752 44.2736 22.064C44.2736 19.376 45.7776 18.032 47.7616 18.032C48.8496 18.032 49.5376 18.32 50.3536 19.2L49.5696 19.936C48.9776 19.28 48.5136 19.056 47.7616 19.056C46.9936 19.056 46.3536 19.36 45.9376 19.952C45.5696 20.464 45.4256 21.072 45.4256 22.064C45.4256 23.056 45.5696 23.664 45.9376 24.176C46.3536 24.768 46.9936 25.072 47.7616 25.072C48.5136 25.072 48.9776 24.832 49.5696 24.176L50.3536 24.928ZM55.3494 26H54.5174C53.1414 26 52.5174 25.104 52.5174 23.904V14.608H53.6694V23.856C53.6694 24.624 53.9254 25.008 54.7254 25.008H55.3494V26ZM58.4045 26H57.2525V18.128H58.4045V26ZM58.4845 15.888H57.1885V14.592H58.4845V15.888ZM67.3158 22.368H62.0038C62.0038 24.096 62.8038 25.088 64.3238 25.088C65.2358 25.088 65.7638 24.816 66.3878 24.192L67.1718 24.88C66.3718 25.68 65.6198 26.096 64.2918 26.096C62.1957 26.096 60.8518 24.848 60.8518 22.064C60.8518 19.504 62.0838 18.032 64.0838 18.032C66.1318 18.032 67.3158 19.488 67.3158 21.856V22.368ZM66.1798 21.504C66.1318 20.864 66.1158 20.608 65.9238 20.192C65.5878 19.472 64.9318 19.008 64.0838 19.008C63.2358 19.008 62.5798 19.472 62.2438 20.192C62.0518 20.608 62.0358 20.864 62.0038 21.504H66.1798ZM75.9601 26H74.8081V21.152C74.8081 19.76 74.0561 19.056 72.8721 19.056C71.6881 19.056 70.9201 19.776 70.9201 21.152V26H69.7681V18.128H70.9201V18.992C71.4801 18.352 72.2481 18.032 73.1281 18.032C73.9761 18.032 74.6641 18.288 75.1441 18.768C75.7041 19.312 75.9601 20.048 75.9601 20.96V26ZM81.7765 26H80.9605C79.6165 26 78.9445 25.056 78.9445 23.888V19.008H77.9525V18.128H78.9445V15.712H80.0965V18.128H81.7765V19.008H80.0965V23.856C80.0965 24.576 80.4325 25.008 81.1685 25.008H81.7765V26ZM89.9534 21.184H88.4494V19.68H89.9534V21.184ZM89.9534 26H88.4494V24.496H89.9534V26Z" fill="#3D466C"/>
<path d="M123.92 20.032C123.92 21.072 123.488 22.032 122.976 23.072L120.56 28H118.304L120.672 23.296C120.4 23.408 120.096 23.44 119.824 23.44C118.288 23.44 116.816 22.176 116.816 20.064C116.816 17.824 118.352 16.512 120.368 16.512C122.384 16.512 123.92 17.776 123.92 20.032ZM121.84 20.048C121.84 18.992 121.216 18.384 120.368 18.384C119.52 18.384 118.896 18.992 118.896 20.048C118.896 21.056 119.488 21.712 120.368 21.712C121.216 21.712 121.84 21.104 121.84 20.048ZM132.688 24.688C132.688 26.896 131.056 28.096 129.04 28.096C127.024 28.096 125.392 26.896 125.392 24.688C125.392 23.296 126.192 22.544 126.816 22.128C126.24 21.728 125.536 20.976 125.536 19.76C125.536 17.744 127.136 16.512 129.04 16.512C130.944 16.512 132.528 17.744 132.528 19.76C132.528 20.976 131.824 21.728 131.248 22.128C131.872 22.544 132.688 23.296 132.688 24.688ZM130.608 24.656C130.608 23.776 129.92 23.072 129.04 23.072C128.16 23.072 127.472 23.776 127.472 24.656C127.472 25.536 128.16 26.224 129.04 26.224C129.92 26.224 130.608 25.536 130.608 24.656ZM130.448 19.824C130.448 19.008 129.856 18.384 129.04 18.384C128.224 18.384 127.616 19.008 127.616 19.824C127.616 20.656 128.224 21.264 129.04 21.264C129.856 21.264 130.448 20.656 130.448 19.824ZM139.247 24.4H134.319V22.464H139.247V24.4ZM149.677 28H147.133L144.925 24.032L142.733 28H140.189L143.725 22.16L140.413 16.608H142.941L144.925 20.288L146.925 16.608H149.437L146.125 22.16L149.677 28ZM159.318 28H156.774L154.566 24.032L152.374 28H149.83L153.366 22.16L150.054 16.608H152.582L154.566 20.288L156.566 16.608H159.078L155.766 22.16L159.318 28ZM168.959 28H166.415L164.207 24.032L162.015 28H159.471L163.007 22.16L159.695 16.608H162.223L164.207 20.288L166.207 16.608H168.719L165.407 22.16L168.959 28ZM178.599 28H176.055L173.847 24.032L171.655 28H169.111L172.647 22.16L169.335 16.608H171.863L173.847 20.288L175.847 16.608H178.359L175.047 22.16L178.599 28ZM188.24 28H185.696L183.488 24.032L181.296 28H178.752L182.288 22.16L178.976 16.608H181.504L183.488 20.288L185.488 16.608H188L184.688 22.16L188.24 28ZM197.881 28H195.337L193.129 24.032L190.937 28H188.393L191.929 22.16L188.617 16.608H191.145L193.129 20.288L195.129 16.608H197.641L194.329 22.16L197.881 28ZM207.521 28H204.977L202.769 24.032L200.577 28H198.033L201.569 22.16L198.257 16.608H200.785L202.769 20.288L204.769 16.608H207.281L203.969 22.16L207.521 28ZM217.162 28H214.618L212.41 24.032L210.218 28H207.674L211.21 22.16L207.898 16.608H210.426L212.41 20.288L214.41 16.608H216.922L213.61 22.16L217.162 28ZM226.802 28H224.258L222.05 24.032L219.858 28H217.314L220.85 22.16L217.538 16.608H220.066L222.05 20.288L224.05 16.608H226.562L223.25 22.16L226.802 28ZM236.443 28H233.899L231.691 24.032L229.499 28H226.955L230.491 22.16L227.179 16.608H229.707L231.691 20.288L233.691 16.608H236.203L232.891 22.16L236.443 28Z" fill="#030F40"/>
<rect x="16" y="38" width="65" height="16" rx="8" fill="#D5D6DE"/>
<rect x="16" y="58" width="84" height="16" rx="8" fill="#D5D6DE"/>
<rect x="159" y="38" width="80" height="16" rx="8" fill="#767C97"/>
<rect x="137" y="58" width="102" height="16" rx="8" fill="#767C97"/>
</svg>
