<svg width="48" height="48" viewBox="0 0 48 48" fill="none" xmlns="http://www.w3.org/2000/svg">
<g clip-path="url(#clip0_5953_84145)">
<path d="M32.1927 23.2978C32.1906 22.353 31.4241 21.5882 30.4792 21.5882C30.4792 15.2028 25.6923 9.94001 19.505 9.16726V9.02898C19.505 5.77529 22.1509 3.13167 25.4155 3.13167H38.9623C42.2187 3.13167 44.8646 5.77529 44.8646 9.02898V46.4369C44.8646 47.3002 45.5644 48 46.4277 48C47.291 48 47.9908 47.3002 47.9908 46.4369V9.02898C47.9908 7.19878 47.4372 5.49873 46.501 4.06711C44.8809 1.61871 42.1129 0 38.9623 0H25.4155C20.4331 0 16.3788 4.05084 16.3788 9.02898V9.16726C10.1916 9.94001 5.40462 15.2028 5.40462 21.5882C4.46491 21.5882 3.70312 22.35 3.70312 23.2897V23.4021C3.70312 24.4039 4.51525 25.2161 5.51706 25.2161H30.379C31.3824 25.2161 32.1952 24.4015 32.1929 23.3981L32.1927 23.2978Z" fill="#9BCD41"/>
<path d="M9.14359 31.9594C9.14359 30.9833 7.37697 28.0713 7.37697 28.0713C7.37697 28.0713 7.25486 28.2746 7.07575 28.5919C6.571 29.4704 5.61035 31.2436 5.61035 31.9676C5.61035 32.8542 6.26978 33.5863 7.1246 33.7083C7.20601 33.7164 7.29556 33.7327 7.37697 33.7327C8.35391 33.7327 9.14359 32.9437 9.14359 31.9676V31.9594Z" fill="#59B9FF"/>
<path d="M15.6153 31.9594C15.6153 30.9833 13.8487 28.0713 13.8487 28.0713C13.8487 28.0713 12.082 30.9833 12.082 31.9594C12.082 32.9356 12.8717 33.7246 13.8487 33.7246C14.8256 33.7246 15.6153 32.9356 15.6153 31.9594Z" fill="#59B9FF"/>
<path d="M20.3203 33.7324C21.2973 33.7324 22.087 32.9434 22.087 31.9673C22.087 30.9911 20.3203 28.0791 20.3203 28.0791C20.3203 28.0791 18.5537 30.9911 18.5537 31.9673C18.5537 32.9434 19.3434 33.7324 20.3203 33.7324Z" fill="#59B9FF"/>
<path d="M26.792 33.7324C27.7689 33.7324 28.5586 32.9434 28.5586 31.9673C28.5586 30.9911 26.792 28.0791 26.792 28.0791C26.792 28.0791 25.0254 30.9911 25.0254 31.9673C25.0254 32.9434 25.8151 33.7324 26.792 33.7324Z" fill="#59B9FF"/>
<path d="M6.34281 38.5561C6.34281 37.7264 5.0728 35.5139 4.69017 34.8551C4.6395 34.7665 4.51623 34.7677 4.46445 34.8557C4.07623 35.515 2.80957 37.7296 2.80957 38.5561C2.80957 39.3858 3.38759 40.0854 4.161 40.2724C4.29939 40.305 4.42965 40.3294 4.57619 40.3294C5.55313 40.3294 6.34281 39.5404 6.34281 38.5643V38.5561Z" fill="#59B9FF"/>
<path d="M9.85927 39.8578C10.0384 40.0286 10.2582 40.1506 10.5024 40.2319C10.6734 40.2889 10.8525 40.3295 11.0479 40.3295C12.0248 40.3295 12.8145 39.5405 12.8145 38.5644C12.8145 37.5883 11.0479 34.6763 11.0479 34.6763C11.0479 34.6763 10.4861 35.5954 9.99767 36.5797C9.61504 37.3443 9.28125 38.1414 9.28125 38.5644C9.28125 39.0199 9.46035 39.4266 9.73715 39.7439C9.77786 39.7846 9.81856 39.8252 9.85927 39.8659V39.8578Z" fill="#59B9FF"/>
<path d="M15.7441 38.5561C15.7441 39.5322 16.5338 40.3212 17.5108 40.3212C18.4877 40.3212 19.2774 39.5322 19.2774 38.5561C19.2774 37.58 17.5108 34.668 17.5108 34.668C17.5108 34.668 15.7441 37.58 15.7441 38.5561Z" fill="#59B9FF"/>
<path d="M22.2158 38.5561C22.2158 39.5322 23.0055 40.3212 23.9824 40.3212C24.9594 40.3212 25.7491 39.5322 25.7491 38.5561C25.7491 37.58 23.9824 34.668 23.9824 34.668C23.9824 34.668 22.2158 37.58 22.2158 38.5561Z" fill="#59B9FF"/>
<path d="M28.6904 38.5561C28.6904 39.5322 29.4801 40.3212 30.457 40.3212C31.434 40.3212 32.2237 39.5322 32.2237 38.5561C32.2237 37.58 30.457 34.668 30.457 34.668C30.457 34.668 28.6904 37.58 28.6904 38.5561Z" fill="#59B9FF"/>
<path d="M3.54203 45.1538C3.54203 44.1777 1.77541 41.2656 1.77541 41.2656C1.77541 41.2656 0.00878906 44.1777 0.00878906 45.1538C0.00878906 45.9184 0.489115 46.561 1.16483 46.805C1.35207 46.8782 1.5556 46.9189 1.77541 46.9189C2.75234 46.9189 3.54203 46.1299 3.54203 45.1538Z" fill="#59B9FF"/>
<path d="M10.0049 45.1538C10.0049 44.1777 8.2383 41.2656 8.2383 41.2656C8.2383 41.2656 7.644 42.2417 7.14739 43.2585C6.78918 43.9906 6.47168 44.7471 6.47168 45.1538C6.47168 45.9509 7.00899 46.6179 7.73355 46.8376C7.89637 46.8864 8.06734 46.9189 8.2383 46.9189C9.21523 46.9189 10.0049 46.1299 10.0049 45.1538Z" fill="#59B9FF"/>
<path d="M12.9434 45.1538C12.9434 46.1299 13.733 46.9189 14.71 46.9189C15.6869 46.9189 16.4766 46.1299 16.4766 45.1538C16.4766 44.1777 14.71 41.2656 14.71 41.2656C14.71 41.2656 12.9434 44.1777 12.9434 45.1538Z" fill="#59B9FF"/>
<path d="M19.418 45.1538C19.418 46.1299 20.2077 46.9189 21.1846 46.9189C22.1615 46.9189 22.9512 46.1299 22.9512 45.1538C22.9512 44.1777 21.1846 41.2656 21.1846 41.2656C21.1846 41.2656 19.418 44.1777 19.418 45.1538Z" fill="#59B9FF"/>
<path d="M25.8896 45.1538C25.8896 46.1299 26.6793 46.9189 27.6563 46.9189C28.6332 46.9189 29.4229 46.1299 29.4229 45.1538C29.4229 44.1777 27.6563 41.2656 27.6563 41.2656C27.6563 41.2656 25.8896 44.1777 25.8896 45.1538Z" fill="#59B9FF"/>
<path d="M32.3613 45.1538C32.3613 46.1299 33.151 46.9189 34.1279 46.9189C35.1049 46.9189 35.8946 46.1299 35.8946 45.1538C35.8946 44.1777 34.1279 41.2656 34.1279 41.2656C34.1279 41.2656 32.3613 44.1777 32.3613 45.1538Z" fill="#59B9FF"/>
</g>
<defs>
<clipPath id="clip0_5953_84145">
<rect width="48" height="48" fill="white"/>
</clipPath>
</defs>
</svg>
