<svg width="32" height="32" viewBox="0 0 32 32" fill="none" xmlns="http://www.w3.org/2000/svg">
<path d="M15.9993 14.6667C18.9449 14.6667 21.3327 12.2789 21.3327 9.33333C21.3327 6.38781 18.9449 4 15.9993 4C13.0538 4 10.666 6.38781 10.666 9.33333C10.666 12.2789 13.0538 14.6667 15.9993 14.6667Z" fill="#A2C617"/>
<path d="M15.9992 17.3335C13.1712 17.3368 10.46 17.3081 8.46028 19.3838C6.46059 21.4595 5.33575 24.2738 5.33252 27.2093C5.33252 27.419 5.41279 27.6202 5.55568 27.7685C5.69856 27.9168 5.89235 28.0002 6.09442 28.0002H25.9039C26.106 28.0002 26.2998 27.9168 26.4427 27.7685C26.5856 27.6202 26.6659 27.419 26.6659 27.2093C26.6626 24.2738 25.5378 21.4595 23.5381 19.3838C21.5384 17.3081 18.8272 17.3368 15.9992 17.3335Z" fill="#59B9FF"/>
</svg>
