<svg width="48" height="48" viewBox="0 0 48 48" fill="none" xmlns="http://www.w3.org/2000/svg">
<path d="M9.99951 13C12.7609 13 14.9995 10.7614 14.9995 8C14.9995 5.23858 12.7609 3 9.99951 3C7.23809 3 4.99951 5.23858 4.99951 8C4.99951 10.7614 7.23809 13 9.99951 13Z" fill="#9BCD41"/>
<path d="M13.9995 16H5.99951C3.24251 16 0.999512 18.243 0.999512 21V32C0.999512 32.459 1.31151 32.858 1.75651 32.97L5.07451 33.8L6.00451 43.1C6.05551 43.61 6.48551 44 6.99951 44H12.9995C13.5135 44 13.9435 43.61 13.9945 43.1L14.9245 33.8L18.2425 32.97C18.6875 32.858 18.9995 32.459 18.9995 32V21C18.9995 18.243 16.7565 16 13.9995 16Z" fill="#9BCD41"/>
<path d="M34.9995 13C37.7609 13 39.9995 10.7614 39.9995 8C39.9995 5.23858 37.7609 3 34.9995 3C32.2381 3 29.9995 5.23858 29.9995 8C29.9995 10.7614 32.2381 13 34.9995 13Z" fill="#59B9FF"/>
<path d="M45.9622 34.732L41.3692 18.197C41.0102 16.904 39.8222 16 38.4792 16H31.5192C30.1762 16 28.9882 16.904 28.6292 18.197L24.0362 34.732C23.9522 35.033 24.0142 35.356 24.2032 35.605C24.3922 35.854 24.6872 36 24.9992 36H30.1162L31.0072 43.124C31.0692 43.624 31.4952 44 31.9992 44H37.9992C38.5032 44 38.9292 43.624 38.9912 43.124L39.8822 36H44.9992C45.3112 36 45.6062 35.854 45.7952 35.605C45.9842 35.356 46.0462 35.033 45.9622 34.732Z" fill="#59B9FF"/>
</svg>
