<svg xmlns="http://www.w3.org/2000/svg" viewBox="0 0 1200 1200"><defs><style>.cls-1{fill:#fff;}.cls-2{fill:#f4f8ff;}.cls-3{fill:#ddd;}.cls-4{fill:#767c97;}.cls-5{fill:#f2f2f2;}.cls-6{fill:#bbdff5;}.cls-7{fill:#ff9c81;}.cls-8{fill:#ea8571;}.cls-9{fill:#fce897;opacity:0.3;}.cls-10{fill:#def3f9;}</style></defs><title>404-error</title><g id="Calque_2" data-name="Calque 2"><g id="_ÎÓÈ_1_1_" data-name="—ÎÓÈ_1_1_"><rect class="cls-1" width="1200" height="1200"/></g><g id="_ÎÓÈ_2_1_" data-name="—ÎÓÈ_2_1_"><path class="cls-2" d="M311.57,1126c-25.36-5.51-330-55.15-307.57-421.25S54.57,228.56,173,188.28,579.35-42.6,805.27,138.63s469.69,343.77,373,633.15-112.58,385.9-365,371.13S432.13,1152.21,311.57,1126Z"/><path class="cls-3" d="M385.51,791.78h113.3c38.73,0,61.14-43.91,38.41-75.27L441.38,584.26a29.82,29.82,0,0,0-24.16-12.33H229.67a29.85,29.85,0,0,0-26.14,44.25l55.66,101A144.26,144.26,0,0,0,385.51,791.78Z"/><path class="cls-3" d="M282.86,474.71l-146.37,42c-9.48,2.72-19.8-2.22-23.05-11l-21.06-57c-3.25-8.8,1.8-18.15,11.28-20.87l146.37-42c9.48-2.72,19.8,2.21,23.06,11l21.05,57C297.39,462.65,292.34,472,282.86,474.71Z"/><path class="cls-3" d="M169.63,648.21q-24.12-65.85-48.26-131.72l-6.75-18.44c-.35-1-3.77.08-3.46.93q24.12,65.87,48.26,131.73l6.75,18.43c.35,1,3.77-.08,3.46-.93Z"/><path class="cls-3" d="M938.51,997.77c36.83.57,91.14-6.44,125.68,7.71,6.81,2.79,12.61,9.25,12.48,16.39,0,.41,0,.82-.08,1.23-.74,6.49-6.31,11.66-12.52,14-27.68,10.36-65.14,4.92-94,3.5-11.2-.55-21.57-2-33-1.9-24.27.17-47.92,3.29-70-8.26-7.33-3.84-14.73-7.72-21-13.12-3.73-3.22-22.8-27.58-7.06-25.55,5.2.67,9.89,4.37,15,5.9,6.35,1.91,12.79,3.76,19.45,4C895,1002.58,916.73,997.44,938.51,997.77Z"/><path class="cls-3" d="M842.23,988c-3.07-3.33-7.81-5.33-12.62-6.83-18.24-5.69-28.8-16.72-42.74-29.11-11.39-10.12-23.89,1.41-28.53,12.22-2.94,6.85-5.43,17.18-.39,23.68,6.34,8.2,21.76,5.83,30.94,7.31a140.67,140.67,0,0,1,36.73,11.27c2.76,1.28,5.54,2.68,8.57,3,7.17.82,11.38-5.57,11.5-12.09A13,13,0,0,0,842.23,988Z"/><path class="cls-1" d="M884.55,887.64c9.11-74.27,25.7-261.93,101.27-236,70.41,24.2,66.77,158.54,81.35,248.29,0,0-74.83,3.81-99.63,1.94C946.53,900.33,884.55,887.64,884.55,887.64Z"/><path class="cls-4" d="M886.28,887.18c4.1-33.53,7.76-67.11,13.59-100.41C906,752,913.31,715.35,930,683.85c6.08-11.46,14-23.28,25.58-29.83,12.75-7.23,27.42-3.74,39.52,3.19,32.57,18.66,43.85,61.09,50.72,95.25,9.84,48.85,11.68,98.84,19.59,148l2.87-1.11c-23.06,1.17-46.14,2.06-69.23,2.38-12.51.17-25.1.36-37.53-1.2-14.74-1.86-29.38-4.59-44-7.32q-15.83-3-31.59-6.17c-.77-.15-3.71,1.09-2.87,1.26,24,4.9,48,9.72,72.27,13.05,26.8,3.69,54.52,1.59,81.45.57,9.73-.37,19.46-.77,29.19-1.27.46,0,3-.35,2.87-1.11-7.46-46.35-9.57-93.41-18-139.62-6.54-35.92-16.86-81.33-50.08-102.36C935.06,615.9,908.9,724.89,900.2,767.61c-8.11,39.82-12.45,80.2-17.38,120.5C882.79,888.4,886.17,888.15,886.28,887.18Z"/><path class="cls-1" d="M1005,589c-6.68-37.69-28.68-65.3-49.15-61.68s-31.65,37.11-25,74.8c.16.87.93,5.22,1.2,6.76,3.7,20.89,8,35.14,13,44.72,10.07,19.7,36.63,24,36.63,24s24.1-13.07,27.36-32.85c1.78-10.83,1.17-26.38-2.83-49C1006,594.27,1005.18,589.93,1005,589Z"/><path class="cls-4" d="M959.05,666.86c-17.08-12.61-21.2-36.49-24.82-56.14-3.77-20.5-6-42.05,1.75-62,3.21-8.22,8.83-17.53,17.84-20.22,8.11-2.42,16.46,1.72,22.56,6.85,15.84,13.3,23.48,35.08,27,54.81,3.85,21.37,10.94,50.07-2.53,69.38-.76,1.09,2.63.66,3.17-.12,13.06-18.71,7.18-45.52,3.5-66.36-3.79-21.5-11.06-45.69-29-59.83-11.56-9.13-26.89-9.5-37.32,1.58-15.07,16-15.67,43.21-12.75,63.59a257.72,257.72,0,0,0,8.62,39.93c3.69,11.81,8.48,22.22,18.7,29.76.85.63,3.94-.74,3.24-1.26Z"/><path class="cls-1" d="M1048.83,924.25c1.41-14.16,3.41-29.22,4.15-43.8a194.18,194.18,0,0,0-.07-23.76c-.38-5.49,0-18.42-3.63-22.77-4.68-5.54-24.32-.59-31.09-.16-11,.71-22.2,1.62-33.25,1.08-21.62-1.05-86.09-13.4-86.1-13.4-2.31,0-8.87,75.12-9.66,82-2.57,22.24-6.3,44.27-7.67,66.65-.74,12-4.92,38,3.93,48.38.94,1.1,1.74,2.18,3.25,2.51,6.68,1.47,12.71-10.74,15.13-15.05,15.58-27.78,21.08-59.9,35.47-88.37,3.22-6.38,6.94-12.82,12.76-17,5.64-4,14.69-8.41,21.05-4.1,13.7,9.29,20.69,30.42,26.61,45.32a265.47,265.47,0,0,1,12,38.58c2.83,12.37,4.41,25,10.09,36.5,2.33,4.73,5.14,10.41,10.75,11.28,6.83,1.06,9.6-17.94,10.26-21.57,4.4-24.53,3.43-49.73,5.33-74.53C1048.34,929.44,1048.57,926.85,1048.83,924.25Z"/><path class="cls-4" d="M1050.55,924c2.07-20.54,5.07-41.12,4.39-61.82-.24-7.51,0-15.67-1.62-23-1.08-4.89-3.22-7.56-8.22-8.33-6-.91-12.3.21-18.21,1.09a242.65,242.65,0,0,1-25.7,2.15c-13.56.54-26.66-.88-40-2.85-12.91-1.9-25.76-4.09-38.6-6.37-7.06-1.26-14.94-3.89-22.12-4.06-4.49-.11-4.31,3.69-4.9,7.37-1.59,10-2.57,20.1-3.62,30.16-2.21,21.27-3.95,42.57-6.76,63.78-2.54,19.19-4.47,38.35-6.14,57.64-1,11.85-3.36,28.09,4.08,38.43,7.3,10.15,16.92-2.73,20.64-9.25,9.42-16.49,15.6-34.29,21.69-52.2,3.3-9.71,6.64-19.41,10.68-28.84s8.62-20.85,17.29-27.16c6-4.38,13.47-7,20-2.21a40.2,40.2,0,0,1,9.07,10.08c4.69,6.93,8.05,14.69,11.15,22.42,7.32,18.3,13.72,36.72,17.74,56,2.08,10,4,20.05,8.31,29.34,2.29,4.91,5.5,11.82,11.68,12.53,9,1,11.16-11.73,12.41-18.06,3.54-17.92,4.25-36.16,4.91-54.36.4-10.85.88-21.68,1.93-32.49.1-1.05-3.34-.37-3.43.55-1.87,19.22-1.76,38.54-3.13,57.79-.91,12.78-1.4,29-7.2,40.94-4.79,9.85-11.9-3.76-14.17-8.8-3.9-8.68-5.72-18.06-7.63-27.33-3.79-18.34-9.63-35.77-16.42-53.18-5.09-13-10.81-28.63-22.58-37.21-9.7-7.07-23.66.64-30.48,8.49C934,918.45,928.58,938,923,954.22c-6.1,17.85-12,35.76-21.13,52.35-2.6,4.71-9.53,18.74-15.47,10.37-3.75-5.29-4.49-12.27-4.74-18.58-.62-15.45,1.49-31.7,3.15-47,2.65-24.52,6.12-48.9,8.5-73.45,1-10.72,2.1-21.44,3.31-32.15.52-4.61,1.06-9.22,1.69-13.82.39-2.8,1.45-6,1.46-8.84,0-1.75,1.55-1.36-.89-1.29-3.46.1-.37.52,0,.67,2.6.95,5.82,1.09,8.53,1.59q16,3,32.11,5.65c11.73,1.95,23.49,3.86,35.31,5.16,14.38,1.59,29,1,43.41-.37,5.92-.57,11.73-1.91,17.67-2.26,8-.47,12.71.87,14.16,9.27,3,17.32,1.66,36.2.08,53.56-.9,9.84-2.1,19.65-3.09,29.48C1047,925.57,1050.45,924.9,1050.55,924Z"/><path class="cls-5" d="M1053,834.59c-26.12.89-52.6,2.41-78.71.6-15.86-1.1-31.53-4.15-47.08-7.55-7.63-1.66-15.22-3.55-22.86-5.09-2-.41-9.28-2.09-7.46,2.78,1.28,3.42,9.13,5.6,12,6.61,6.08,2.12,12.81,3,19.15,4.28a292,292,0,0,0,38.3,5.64c27,1.88,54.47.37,81.52-.55,2.38-.09,7.19-1.18,8.41-3.71S1055.09,834.52,1053,834.59Z"/><path class="cls-5" d="M927.51,850.27a27.32,27.32,0,0,1-12,16.49c-1.84,1.16-2.61,3.56-.67,5,2.11,1.52,5.48.49,7.42-.74A36,36,0,0,0,938,849.32c1.19-4.62-9.39-3.3-10.48.95Z"/><path class="cls-4" d="M927.64,848.5a30.48,30.48,0,0,1-13.22,18.44c-2,1.24,1.1,1.39,2.08.77A32.79,32.79,0,0,0,931.09,848c.26-1-3.18-.52-3.45.51Z"/><path class="cls-6" d="M1009.15,665.83c46.45,43.3,45.28,155.73,58,234.14,0-.24-14.52.67-15.37.71-7.41.32-15.6,2.33-21.7-2.84-7.25-6.16-12.31-18.2-16.28-26.62-9.63-20.41-15-42.68-17.41-65.06-2.54-23.48-2-47.16-.47-70.69.65-10.23,3.48-22.33,1.56-32.31-1.6-8.36-8.57-17.27-2.32-25.46,1.22-1.6,3-2.21,4.68-3.27C1000.79,673.84,1009.86,666.49,1009.15,665.83Z"/><path class="cls-4" d="M1007.56,666.58c20.85,19.77,30,49.07,36.25,76.33,7.64,33.59,10.9,68,14.62,102.21,2,18.48,4.06,37,7,55.31l2.74-1.59c-3.87-.91-8.79.19-12.72.42-7.84.45-17.38,2.84-24-2.4-7.41-5.85-11.37-16.41-15.22-24.67a195.88,195.88,0,0,1-11.52-31.11c-6.34-23.3-8.37-47.49-8.28-71.57.05-12,.4-24.13,1.42-36.12.81-9.53,3-19.21,1.7-28.8-.7-5.14-3.1-9.72-4.4-14.69-.83-3.16-1.41-7.48.61-10.38,1.39-2,3.68-3.11,5.54-4.54,2.26-1.75,9.86-6.3,9.59-9.62-.12-1.5-3.59-.69-3.46.93.08,1-5.59,5-6.56,5.73-1.94,1.51-4.29,2.53-6.11,4.16-6.8,6.12-2.86,15.26-.44,22.37,3.71,10.89,1.32,22,.21,33.15-1.25,12.61-1.55,25.43-1.6,38.1-.09,23.56,1.8,47.24,7.76,70.09a191.12,191.12,0,0,0,11.74,32.51c3.74,8,7.29,16.59,13.2,23.3,6.5,7.38,14.3,7,23.42,6.37,2.75-.2,5.5-.34,8.25-.5,2.55-.14,6.39-1.05,8.87-.47,1,.24,3-.21,2.74-1.59-5.42-33.73-8-67.85-12.28-101.72-4.09-32.3-9-65.59-21.71-95.79-5.75-13.66-13.35-26.66-24.17-36.92C1009.65,664,1006.37,665.45,1007.56,666.58Z"/><path class="cls-6" d="M945,661.13c4.37,9.47,19.1,11.08,14.59,22.42-8.4,21.12-21.09,39.29-27,61.83-8.81,33.73-17.1,68.42-25.77,101.94-3.63,14-5.73,35.92-22.24,40.32C891.71,829.24,903.5,700.76,945,661.13Z"/><path class="cls-4" d="M943.22,661.6c2.49,4.75,6.75,7.33,10.74,10.68,6,5,4.75,9.65,1.88,16.27-6.89,15.89-16,30.77-21.9,47.11-6.54,18.2-10.22,37.71-14.9,56.47s-9.62,37.75-14.28,56.67c-3.23,13.14-5.06,33.44-20.41,38.1l1.93.49c3.68-30.17,7-60.39,11.89-90.4,5.42-33.13,12-66.84,24.87-98,5.67-13.73,12.75-27.43,23.51-37.89.91-.89-2.48-.65-3.19,0C923,681,913.9,711.7,906.9,738.42,898.17,771.72,893,805.89,888.61,840c-2.05,16-3.83,31.93-5.78,47.89-.11.88,1.49.63,1.92.5,11.77-3.58,16.88-14,19.93-25.14,4.61-16.92,8.44-34.12,12.69-51.14,5.31-21.22,10.54-42.44,16-63.61,4.91-18.89,14.14-35.51,22.48-53,2.68-5.62,8.68-14.16,5-20.46-3.44-6-10.95-8.06-14.25-14.36C946.13,659.61,942.79,660.77,943.22,661.6Z"/><path class="cls-1" d="M1059.66,777.23a15.27,15.27,0,0,0-7.73,25.7l-18.06,46.17a13.68,13.68,0,1,0,11.08,4.33l18-46A15.28,15.28,0,0,0,1075.67,784l-1.32,3.39-3.66,9.35-9.92,1.5-6.27-7.83,3.66-9.35h0Zm-21.92,78.29,4.85,6.06-2.83,7.23-7.67,1.16-4.85-6.06,2.83-7.23Z"/><path class="cls-4" d="M1059.43,776.35c-9.93,2.64-16.85,12.67-12.21,22.78.54,1.17,2.83,3.38,2.89,4.24,0,.51-.58,1.32-.71,1.82a83.26,83.26,0,0,1-3.14,8l-14.13,36.1,2-1.18c-6.5.91-12.42,4.67-14.15,11.36a14.4,14.4,0,0,0,8.6,16.84c12.1,4.85,27.5-8.1,20-20.74-1.33-2.25-1.59-1.65-1.43-3.58.12-1.47,1.33-3.39,1.87-4.76q3.11-8,6.22-15.91,4.71-12.06,9.43-24.11l-2,1.19c12.6-.82,21.21-13.16,14.7-24.88-.64-1.16-3.06-.36-3.46.68L1069,797l2-1.18c-2.55.39-5.14.67-7.68,1.16a7.16,7.16,0,0,1-1.84.28c-.56-.1,1.37.85.58-.15l-2.74-3.42c-1.94-2.42-2.91-2.72-2.35-5.14.61-2.58,2-5.17,3-7.65l-2,1.18h0a2.39,2.39,0,0,0,2-1.18c.5-1.28,1-2.56,1.49-3.84s-3-.73-3.46.43l-1.5,3.83,2-1.18h0a2.36,2.36,0,0,0-2,1.18c-1,2.44-3.37,6.17-3.43,8.75,0,2.2,2.3,4.08,3.74,5.88s1.89,3,4.19,3.25c2.92.3,6.61-1,9.53-1.44a2.36,2.36,0,0,0,2-1.19l5-12.73-3.46.68c5.1,9.19.79,21.26-10.77,22a2.32,2.32,0,0,0-2,1.18l-18,46a.51.51,0,0,0,.13.47c7.76,9.49-.46,26.82-13.49,19.86-10.27-5.5-8.65-22.17,3.78-23.91a2.39,2.39,0,0,0,2-1.18l18.06-46.17a.5.5,0,0,0-.12-.47c-7.12-8.07-4.88-21.15,6.36-24.14C1062,777.55,1061.52,775.79,1059.43,776.35Z"/><path class="cls-4" d="M1036.14,856.2l2.23,2.79c.55.69,2.48,2.82,2.52,3,0,.06-1.2,2.74-1.45,3.38L1038,869l2-1.18-7.67,1.16,1.38.29-2.24-2.79c-.55-.7-2.48-2.82-2.52-3,0-.06,1.2-2.74,1.45-3.38l1.41-3.61-2,1.18,7.67-1.16c1.67-.25,2.86-2.3.47-1.94l-4.74.72c-1.18.18-3.23.14-4.25.89s-1.3,2.39-1.73,3.5-1.82,3.24-1.75,4.46,1.7,2.44,2.36,3.26,1.75,2.93,2.84,3.43,2.77-.12,3.79-.27l5-.76a2.41,2.41,0,0,0,2-1.19c.94-2.41,1.89-4.82,2.83-7.22a.48.48,0,0,0-.13-.47l-4.84-6.06C1038.6,853.9,1035.27,855.11,1036.14,856.2Z"/><path class="cls-6" d="M1017.74,837.56c13.31,4.3,26.44,3.84,40,1.23-4,4.9-4.53,12.64-5.62,18.64a138.82,138.82,0,0,0-2.17,24.14c-5.34,1.64-10.81,3.29-16.2,2.11s-10.8-5.72-13-13.37c-1.07-3.71-1.32-7.85-2.08-11.74C1017.86,854.41,1002.91,832.77,1017.74,837.56Z"/><path class="cls-4" d="M1054.76,840.36a139.1,139.1,0,0,0-6.54,41.39l1.47-1.19c-6,1.81-12.68,3.87-18.57.7-4.41-2.37-7.21-6.73-8.64-11.41-2.14-7.06-.72-16.45-7.18-21.42-1-.81-4.17.7-2.71,1.82,5.29,4.08,4.59,12.75,6,18.64a22,22,0,0,0,7.1,12.31c7.23,6,16.38,3.88,24.59,1.39.46-.14,1.46-.55,1.46-1.19a138.69,138.69,0,0,1,6.55-41.39c.45-1.39-3.06-1-3.49.35Z"/><path class="cls-4" d="M1056.19,837.72a74.15,74.15,0,0,1-38.2-1.89c-2.09-.67-6.62,2.52-3.28,3.59a79.93,79.93,0,0,0,41,1.92c2.88-.61,4.42-4.44.5-3.62Z"/><path class="cls-5" d="M1001.87,575.35c-7,4.67-17.1,7.2-25.16,9.42a107.61,107.61,0,0,1-15,2.78,164.57,164.57,0,0,1-17.31,1.39c-3,.07-8.71.79-11.22-1.43-2.23-2-11.69,2-9.75,3.68,3.21,2.83,9.43,2.4,13.37,2.41a173.86,173.86,0,0,0,23.12-1.71,130.72,130.72,0,0,0,20.8-4.25c9.71-2.89,20.7-6,29.2-11.62,1.9-1.26,1-2.2-.71-2.64-2.18-.56-5.56.78-7.34,2Z"/><path class="cls-7" d="M923.05,583.3a6.92,6.92,0,0,1-.88-2.16c-1.79-8.38-.11-18.59,2.51-26.61,4.86-14.87,16.44-28.06,32.49-30.53,16.38-2.52,31.62,7,40.69,20.09a70.69,70.69,0,0,1,7.55,13.68c2,4.86,4.71,11.65-.24,15.64-2.07,1.66-4.73,2.41-7.13,3.45s-5.1,2.06-7.68,3c-5.21,1.92-10.51,3.63-15.89,5a111.76,111.76,0,0,1-32.79,4c-1.32,0-2.63-.14-3.94-.25-.9-.08-1.81-.18-2.71-.29a49.37,49.37,0,0,1-7.45-1.28A8.68,8.68,0,0,1,923.05,583.3Z"/><path class="cls-4" d="M924.78,582.84c-3.89-7.68-1.26-19,1.07-26.84a50.17,50.17,0,0,1,12.46-21.47c15.55-15.37,38-11.37,52.28,3.31a64,64,0,0,1,13.91,22.48c1.23,3.39,2.67,7.45.94,10.95-2.24,4.55-12.89,7.13-17.66,8.83-11.06,3.94-22.59,6.93-34.33,7.81-7.89.59-23.51,2-28.78-5.22-.52-.72-3.85.39-3.25,1.23,4.46,6.13,14.49,5.67,21.36,5.8a114.26,114.26,0,0,0,28.64-3.39A190.89,190.89,0,0,0,999.58,577c6.64-2.72,11.47-5.87,9.6-13.83-3.69-15.71-16.47-31.53-31.49-37.52a39.47,39.47,0,0,0-40,6.74A49.47,49.47,0,0,0,923.24,554c-2.85,8.25-6.13,21.44-1.93,29.75C921.79,584.7,925.12,583.51,924.78,582.84Z"/><path class="cls-4" d="M1000,563.44a130.29,130.29,0,0,1-72.42,15c-.82-.07-4,1.36-2.22,1.51A138.42,138.42,0,0,0,1002,564c2-1.08-1.14-1-2-.58Z"/><path class="cls-4" d="M962.5,530a90,90,0,0,0,1.73,39.25c.36,1.36,3.83.44,3.46-.92A88.85,88.85,0,0,1,966,529.59c.26-1.5-3.24-1-3.48.36Z"/><path class="cls-4" d="M951.94,529.76a58.36,58.36,0,0,0,.16,39.2c.47,1.3,3.91.31,3.47-.93a57.4,57.4,0,0,1-.15-38.66c.44-1.27-3-.84-3.48.39Z"/><path class="cls-4" d="M1012.38,675.74c-11.65,13.48-7,33.3-6.31,49.46.42,9.25,1.59,20.4-4,28.41-3.72,5.38-7.35,9-9.15,15.55-.27,1,3.16.46,3.43-.54,1.87-6.8,6.12-10.62,9.7-16.32,3.92-6.22,3.7-14.28,3.64-21.37-.15-17.5-6.86-40.64,5.82-55.31.82-1-2.55-.61-3.17.12Z"/><path class="cls-4" d="M941.46,673.26c11.27,10.68-.39,24.75-5.42,35.23s-3.56,22.07-4.17,33.27c-.09,1.73,3.42,1.19,3.5-.3.36-6.57,0-13.19.58-19.75.71-7.61,3.74-13.64,7.5-20.16,5.19-9,10.1-21.34,1.19-29.79-1.09-1-4.36.38-3.18,1.5Z"/><path class="cls-4" d="M954.48,638.82a15.54,15.54,0,0,1,6.71-2.11,12.6,12.6,0,0,1,4.17.15,5.28,5.28,0,0,1,4.11,3.73,6,6,0,0,1-1.67,5C962,652.35,946.6,643.91,954.48,638.82Z"/><path class="cls-1" d="M313.43,467.51V755a12.69,12.69,0,0,0,12.71,12.67h259A12.69,12.69,0,0,0,597.87,755v-44.8l-.22-24.69v-273a12.69,12.69,0,0,0-12.71-12.67H381.12l-67.68,67.63Z"/><path class="cls-4" d="M311.7,467.71V736.25c0,11.9-3.39,31.56,13.83,32.47,12.38.65,25,0,37.36,0H581.7c7.55,0,15.44-2.48,17.52-10.81,1-4,.38-8.67.38-12.7V723.74c0-31.51-.21-63-.21-94.54q0-85,0-169.92c0-15.18.17-30.38,0-45.56-.19-17.44-17.65-15-29.79-15H386c-3.46,0-5.34-.23-7.89,2.28-17.79,17.58-35.39,35.36-53.08,53l-9.79,9.79c-.69.69-3.55,2.68-3.57,3.84,0,1.54,3.45.88,3.47-.39,0,.67,0,.21.74-.58,1.13-1.15,2.28-2.27,3.42-3.41L330,452.7l29.87-29.84c6.93-6.93,15.39-13.61,21.39-21.37.16-.22,1.3-1,1.29-1.3.07,2.54-3.31.09-1.13.7,1.66.46,4.16,0,5.87,0H537c15.58,0,31.37-.76,46.94,0,15.95.78,12,23.13,12,33.94V592.09c0,34.32-.21,68.64.08,103,.18,19.92,1.31,40.21.14,60.07-.62,10.53-8.6,11.46-16.5,11.46H336.06c-3.07,0-6.19.18-9.26,0-10.33-.59-11.62-9.14-11.62-17.06V615.24q0-70,0-139.91v-8C315.17,465.77,311.7,466.44,311.7,467.71Z"/><path class="cls-4" d="M379.53,400V449.8a39.27,39.27,0,0,1-.22,7c-1.24,6.69-6.7,9.78-13,9.83-9.31.06-18.61,0-27.92,0H314.1l.73,1.29,67.82-67.83c1.43-1.43-1.95-1.42-2.78-.59L312,467.36c-.69.7-.14,1.29.72,1.29,17.64,0,35.29.19,52.92,0,9.08-.1,16.89-5.08,17.32-14.85.38-8.75,0-17.6,0-26.36V399.61C383,398.16,379.53,398.88,379.53,400Z"/><path class="cls-4" d="M392.49,602.46H511.84c1.42,0,3.64-2.15,1.3-2.15H393.79c-1.42,0-3.63,2.15-1.3,2.15Z"/><path class="cls-4" d="M339.81,681.4H564.46c1.25,0,3.69-1.9,1.37-1.9H341.17c-1.25,0-3.69,1.9-1.36,1.9Z"/><path class="cls-4" d="M339.37,649.53H564c.73,0,3.91-1.41,2.25-1.41H341.61c-.73,0-3.91,1.41-2.24,1.41Z"/><path class="cls-4" d="M339.84,713.15H453c1.42,0,3.63-2.14,1.3-2.14H341.14c-1.42,0-3.63,2.14-1.3,2.14Z"/><path class="cls-4" d="M412.78,536.68c21.36-21.33,63.52-21.62,85.57-1.16,1.09,1,4.36-.4,3.18-1.5-23.79-22.07-68.68-21.19-91.62,1.72-1.51,1.51,1.83,2,2.87.94Z"/><path class="cls-4" d="M404.43,499.6a6.51,6.51,0,1,0-6.5,6.51A6.5,6.5,0,0,0,404.43,499.6Z"/><path class="cls-4" d="M518.11,499.6a6.51,6.51,0,1,0-6.51,6.51A6.51,6.51,0,0,0,518.11,499.6Z"/><rect class="cls-8" x="228.07" y="249.84" width="216.89" height="114.95" rx="17.25" transform="translate(-34.06 42.06) rotate(-6.81)"/><rect class="cls-7" x="240.13" y="263.11" width="205.61" height="100.96" rx="17.25" transform="translate(-34.76 42.86) rotate(-6.81)"/><path class="cls-4" d="M430.64,352.68,315.46,366.43l-55.41,6.62c-10.59,1.26-21.35-2.12-24.56-13.67-2-7.19-2.07-15.28-3-22.64Q230.29,317.84,228,299c-1-8.57-3.93-19.25.24-27.3,4.33-8.37,12.26-9.62,20.42-10.6l24.23-2.89L409,241.91c6.89-.82,13.43-2.1,19.86,1.8,9.32,5.67,9.38,16.23,10.52,25.76,2.45,20.57,5.62,41.19,7.38,61.83.88,10.37-5.56,19.71-16.11,21.38-1.86.29-2.68,2.83-.33,2.45C443.6,353,451.5,342.24,450.05,329c-1.18-10.72-2.56-21.41-3.84-32.12L442,261.22c-1.42-11.89-8.13-22.24-21.3-22.81-4.65-.2-9.54.84-14.14,1.39l-29.38,3.5-82,9.79c-17.24,2.06-34.52,3.9-51.73,6.17-11.78,1.56-21.44,10.63-20.89,23.1.37,8.29,1.93,16.67,2.91,24.91q2.37,19.77,4.72,39.55c1.19,9.89,1.69,20,11.2,25.92,6.46,4,13.19,3.38,20.24,2.53l25.86-3.08L427,355.52l3.28-.39C432.2,354.91,433,352.4,430.64,352.68Z"/><path class="cls-1" d="M285.45,340.21l-1.08-9.09-24.52,2.93c-3.09.37-5.5-.05-7.21-1.27a7.35,7.35,0,0,1-3-5.44,5.48,5.48,0,0,1,.11-1.92,10.32,10.32,0,0,1,.79-2.12c.37-.76.76-1.49,1.18-2.2s.91-1.58,1.52-2.61L275,280.77a40.05,40.05,0,0,1,3.58-5.45,5.56,5.56,0,0,1,3.75-2q7.43-.88,8.44,7.61l4.52,37.8,2.1-.25a15,15,0,0,1,6.15.31c1.6.5,2.53,1.91,2.81,4.22a4.73,4.73,0,0,1-1.36,4.35,9.86,9.86,0,0,1-5.42,2l-3,.36,1.09,9.08c.3,2.51,0,4.44-1,5.79a6.27,6.27,0,0,1-8.87,1A8.18,8.18,0,0,1,285.45,340.21Zm-23.39-17.52,21-2.51-3.38-28.38Z"/><path class="cls-1" d="M361.13,301.85a84.37,84.37,0,0,1,.67,13.89,32.07,32.07,0,0,1-2.37,10.88,24.22,24.22,0,0,1-7.53,9.92,23.55,23.55,0,0,1-25.17,1.91,25.76,25.76,0,0,1-10.25-10.57,43.51,43.51,0,0,1-3.29-8.69,76.36,76.36,0,0,1-2-10.54,104.15,104.15,0,0,1-.8-13.38,44.07,44.07,0,0,1,1.23-10.45,22,22,0,0,1,19.77-17,24.54,24.54,0,0,1,9.33.55,20.78,20.78,0,0,1,7.77,3.93,27.46,27.46,0,0,1,6.18,7.16Q359.37,287.1,361.13,301.85Zm-13.5.62a81.58,81.58,0,0,0-2.82-14.5q-1.76-5.57-4.64-8.17a9,9,0,0,0-7.38-2.07q-6.45.78-8.19,7.57t-.12,20.33a85.86,85.86,0,0,0,2.87,14.91q1.77,5.74,4.67,8.44a9.51,9.51,0,0,0,13.91-1.79q2.16-3.42,2.49-9.36A91.74,91.74,0,0,0,347.63,302.47Z"/><path class="cls-1" d="M404.34,326l-1.08-9.09-24.52,2.93q-4.65.56-7.21-1.27a7.38,7.38,0,0,1-3-5.44,5.72,5.72,0,0,1,.12-1.92,10,10,0,0,1,.79-2.13q.56-1.12,1.17-2.19l1.52-2.61,21.76-37.72a40,40,0,0,1,3.58-5.46,5.64,5.64,0,0,1,3.75-2q7.43-.89,8.44,7.62l4.51,37.8,2.1-.25a14.83,14.83,0,0,1,6.16.31c1.59.5,2.53,1.91,2.8,4.22a4.68,4.68,0,0,1-1.36,4.35,9.86,9.86,0,0,1-5.41,2l-3,.35,1.08,9.09q.45,3.76-1,5.79a5.75,5.75,0,0,1-4.23,2.36,5.67,5.67,0,0,1-4.64-1.35A8.13,8.13,0,0,1,404.34,326ZM381,308.5,402,306l-3.39-28.38Z"/><path class="cls-4" d="M596,541.73c.18,7.69,5.19,16.09,9.73,21.94,10.77,13.9,27.44,20.53,44.47,22.63,1,.12,4-1.55,2.15-1.79-17.06-2.09-33.51-8.85-44-23-4.13-5.55-8.7-13.53-8.88-20.74,0-1-3.5-.35-3.46.92Z"/><path class="cls-4" d="M314.55,542.15c-7.85-.44-16.27-4.48-23.07-8-15.81-8.25-28.94-20.59-39.26-35.06-.62-.87-3.77.5-3.46.93,10.64,14.91,24.19,27.62,40.61,35.92,6.88,3.48,15.11,7.27,22.95,7.71.78,0,4-1.37,2.23-1.47Z"/><path class="cls-4" d="M256.26,540.15,236.55,371.62l-2.82-24.13c-.14-1.19-3.62-.41-3.47.93q9.86,84.25,19.72,168.52l2.82,24.14c.14,1.18,3.62.41,3.46-.93Z"/><path class="cls-4" d="M442.11,767.85v30.31c0,1.5,3.47.79,3.47-.41v-30.3c0-1.5-3.47-.8-3.47.4Z"/><path class="cls-4" d="M465.73,767.86v30.3c0,1.49,3.46.78,3.46-.41V767.44c0-1.48-3.46-.77-3.46.42Z"/><path class="cls-9" d="M809.62,726.88,657.14,548.05A68.47,68.47,0,0,0,640.3,535.9l-2.08-1.5L638,535a60.86,60.86,0,0,0-6.93-2.87C579.2,515.27,515.72,567.7,489.3,649.2s-5.75,161.21,46.15,178a64,64,0,0,0,7.3,1.74l-.18.56h2.56a68.86,68.86,0,0,0,20.77,0l231.72-59.75Z"/><path class="cls-10" d="M866.83,756.64,834.62,746.2l-28.3-20.57a10,10,0,0,0-2.56-1.86l-.31-.23,0,.08c-.35-.15-.69-.31-1.06-.43-7.89-2.56-17.59,5.54-21.66,18.1s-1,24.8,6.93,27.36a10.56,10.56,0,0,0,1.11.27l0,.08h.39a10.21,10.21,0,0,0,3.17,0l35-.07,32.21,10.44c3.95,1.28,8.8-2.77,10.84-9S870.78,757.92,866.83,756.64Z"/><path class="cls-4" d="M868.58,770.58c-1.43,3.92-7.41,12.21-10.81,5-1.46-3.11-1.08-7,0-10.12s5.38-11.37,9.83-6.55c2.78,3,2,8.2,1,11.7-.28,1,3.15.52,3.44-.51,1.45-5.16,1.52-14.26-5.78-14.49-5.9-.18-10.3,5.24-12,10.37s-1.49,13.81,5.33,14.46c6.19.6,10.54-5.22,12.41-10.34C872.35,769.15,869,769.56,868.58,770.58Z"/><path class="cls-4" d="M828.25,767.76c-7.68-3.35-2.41-22.14,5.77-20.3,1.7.39,3.48-2,1.19-2.52-11.8-2.66-20.2,20.25-9,25.16,1.45.64,4-1.45,2-2.34Z"/><path class="cls-4" d="M860.85,778.58l-15.54-5c-5.37-1.74-11.06-4.39-16.62-5.39-4-.71-8.51-.11-12.53-.11l-22.6,0c-25.8,0-8.68-52.22,8.61-43.64,5.37,2.66,10.42,7.57,15.25,11.09s9.81,8,15.12,11c4.16,2.34,9.46,3.32,14,4.79l18.9,6.13c1,.32,4.11-1.16,2.78-1.59l-18.9-6.13c-4.46-1.45-10.46-2.75-14-4.84-6.45-3.79-12.4-9-18.46-13.42-4-2.92-8.38-7.37-13.11-9.07-8.17-2.94-16.54,4.07-20.66,10.42-5.78,8.91-9.84,25.69-.92,34.14,4.13,3.91,9.25,3,14.47,2.95l25,0c1.39,0,2.84-.11,4.23,0s-.49-.18.48,0a99.6,99.6,0,0,1,9.61,3.11l22.15,7.18c1,.32,4.11-1.16,2.78-1.59Z"/><path class="cls-1" d="M851.48,763c-.3.9-1.87,1.2-3.52.67s-2.74-1.7-2.45-2.6,1.86-1.21,3.51-.67S851.77,762.07,851.48,763Z"/><path class="cls-1" d="M840.11,759.29c-.29.9-1.87,1.2-3.51.66s-2.75-1.7-2.46-2.6,1.87-1.2,3.52-.67S840.4,758.38,840.11,759.29Z"/><path class="cls-4" d="M850,763.74c-.29.9-1.86,1.2-3.51.66s-2.75-1.69-2.46-2.6,1.87-1.2,3.52-.66S850.26,762.84,850,763.74Z"/><path class="cls-4" d="M838.6,760.05c-.29.91-1.86,1.2-3.51.67s-2.75-1.7-2.45-2.6,1.86-1.2,3.51-.67S838.9,759.15,838.6,760.05Z"/><path class="cls-4" d="M1029.61,723.77l0-.07c-.44-.91-2.52,0-3.08.33l-.13.09c-.13.08-.47.37-.39.59,1,2.6-2.82,8.95-4.08,11.12a48.39,48.39,0,0,1-8.33,10.52c-6.49,6.3-14.31,10.76-22.64,14.16-19.12,7.78-38.33,9.24-58.66,7.19-18.72-1.89-36.81-4.52-53.75-13.17-4.51-2.29-25-11.58-25.17.17,0,.72,3.45.19,3.46-.93.12-8,17.33,1.45,19.33,2.45,3.19,1.61,6.4,3.16,9.74,4.46a119.46,119.46,0,0,0,24.48,6.22c16.56,2.62,33.93,4.85,50.65,2.78,15.1-1.88,30.75-6.46,43.83-14.37a61.72,61.72,0,0,0,16.81-14.56,46.21,46.21,0,0,0,5-7.85c.49-1,3.07-8.93,2.57-8.61l-3.08.34,0,.06c.46,1,3.81-.2,3.46-.92Z"/><path class="cls-4" d="M817.65,771.72c-4.44-2.57-7.52-9.24-3.57-13.55,1.44-1.58-1.89-2-2.87-.9-4.75,5.19-1.86,13.11,3.75,16.36,1.21.7,4.3-1,2.69-1.91Z"/><path class="cls-3" d="M223.12,641.39c-6.59,2-14.88,1.11-21.52.21-15.9-2.14-30.79-8.39-44.35-16.82-.95-.58-4.15.81-2.76,1.67,14.53,9,30.63,15.52,47.73,17.35,6.73.72,14.74,1.34,21.36-.7,2-.63,1.61-2.35-.46-1.71Z"/><path class="cls-4" d="M915,711.67c-8.06,19.8-19.5,38-37.43,50.14-16.72,11.3-40.55,21.77-59.69,10.23-.94-.57-3.95.84-3.24,1.27,18.58,11.2,41.77,3.16,59-6.95,21.64-12.71,35.43-32.14,44.81-55.21.36-.87-3-.5-3.44.52Z"/></g></g></svg>