<svg width="200" height="179" viewBox="0 0 200 179" fill="none" xmlns="http://www.w3.org/2000/svg">
<path d="M37.7705 165.962C20.663 149.698 10 126.734 10 101.282C10 51.973 50.0216 12 99.3908 12C148.76 12 188.782 51.973 188.782 101.282C188.782 126.754 178.102 149.734 160.971 166" stroke="#C0F1CC" stroke-width="10" stroke-linecap="round"/>
<path d="M87 95C87 98.1826 88.2643 101.235 90.5147 103.485C92.7652 105.736 95.8174 107 99 107C102.183 107 105.235 105.736 107.485 103.485C109.736 101.235 111 98.1826 111 95C111 91.8174 109.736 88.7652 107.485 86.5147C105.235 84.2643 102.183 83 99 83C95.8174 83 92.7652 84.2643 90.5147 86.5147C88.2643 88.7652 87 91.8174 87 95V95Z" stroke="#30D158" stroke-width="4" stroke-linecap="round" stroke-linejoin="round"/>
<path d="M95 83.6827V73H103V83.6853" stroke="#30D158" stroke-width="4" stroke-linecap="round" stroke-linejoin="round"/>
<path d="M103 73H111H103Z" fill="#30D158"/>
<path d="M103 73H111" stroke="#30D158" stroke-width="4" stroke-linecap="round" stroke-linejoin="round"/>
<path d="M87 73H95H87Z" fill="#30D158"/>
<path d="M87 73H95" stroke="#30D158" stroke-width="4" stroke-linecap="round" stroke-linejoin="round"/>
<path d="M109.391 89H118.991C122.173 89 125.225 90.2643 127.476 92.5147C129.726 94.7652 130.991 97.8174 130.991 101V109H120.999V105C120.999 103.939 120.577 102.922 119.827 102.172C119.077 101.421 118.059 101 116.999 101H109.393" stroke="#30D158" stroke-width="4" stroke-linecap="round" stroke-linejoin="round"/>
<path d="M88.608 89H75V101H88.608" stroke="#30D158" stroke-width="4" stroke-linecap="round" stroke-linejoin="round"/>
<path d="M75 73V117" stroke="#30D158" stroke-width="4" stroke-linecap="round" stroke-linejoin="round"/>
</svg>
