<svg width="40" height="40" viewBox="0 0 40 40" fill="none" stroke="white" xmlns="http://www.w3.org/2000/svg">
<g clip-path="url(#clip0_5700_2168)">
<path d="M20 31.25C19.8764 31.25 19.7555 31.2867 19.6528 31.3553C19.55 31.424 19.4699 31.5216 19.4226 31.6358C19.3753 31.75 19.3629 31.8757 19.387 31.9969C19.4111 32.1182 19.4706 32.2295 19.5581 32.3169C19.6455 32.4044 19.7568 32.4639 19.8781 32.488C19.9993 32.5121 20.125 32.4997 20.2392 32.4524C20.3534 32.4051 20.451 32.325 20.5197 32.2222C20.5883 32.1195 20.625 31.9986 20.625 31.875C20.625 31.7092 20.5592 31.5503 20.4419 31.4331C20.3247 31.3158 20.1658 31.25 20 31.25Z" stroke="white" stroke-width="2.5" stroke-linecap="round" stroke-linejoin="round"/>
<path d="M20 26.25V13.75" stroke="white" stroke-width="2.5" stroke-linecap="round"/>
<path d="M22.7017 2.93343C22.4536 2.42845 22.069 2.0031 21.5915 1.70563C21.114 1.40817 20.5626 1.25049 20 1.25049C19.4374 1.25049 18.8861 1.40817 18.4085 1.70563C17.931 2.0031 17.5464 2.42845 17.2983 2.93343L1.51002 35.0968C1.31997 35.4834 1.23158 35.912 1.25319 36.3423C1.27481 36.7725 1.40572 37.1902 1.63356 37.5558C1.86141 37.9214 2.17867 38.223 2.55539 38.4319C2.93212 38.6409 3.35588 38.7504 3.78668 38.7501H36.2133C36.6441 38.7504 37.0679 38.6409 37.4446 38.4319C37.8214 38.223 38.1386 37.9214 38.3665 37.5558C38.5943 37.1902 38.7252 36.7725 38.7468 36.3423C38.7685 35.912 38.6801 35.4834 38.49 35.0968L22.7017 2.93343Z" stroke="white" stroke-width="2.5" stroke-linecap="round" stroke-linejoin="round"/>
</g>
<defs>
<clipPath id="clip0_5700_2168">
<rect width="40" height="40" fill="white"/>
</clipPath>
</defs>
</svg>
