<svg width="200" height="179" viewBox="0 0 200 179" fill="none" xmlns="http://www.w3.org/2000/svg">
<path d="M37.7705 165.962C20.663 149.698 10 126.734 10 101.282C10 51.973 50.0216 12 99.3908 12C148.76 12 188.782 51.973 188.782 101.282C188.782 126.754 178.102 149.734 160.971 166" stroke="#E9ECEF" stroke-width="10" stroke-linecap="round"/>
<g clip-path="url(#clip0_19289_2094)">
<path d="M86 93C86 96.1826 87.2643 99.2348 89.5147 101.485C91.7652 103.736 94.8174 105 98 105C101.183 105 104.235 103.736 106.485 101.485C108.736 99.2348 110 96.1826 110 93C110 89.8174 108.736 86.7652 106.485 84.5147C104.235 82.2643 101.183 81 98 81C94.8174 81 91.7652 82.2643 89.5147 84.5147C87.2643 86.7652 86 89.8174 86 93V93Z" stroke="#ced4da" stroke-width="4" stroke-linecap="round" stroke-linejoin="round"/>
<path d="M94 81.6827V71H102V81.6853" stroke="#ced4da" stroke-width="4" stroke-linecap="round" stroke-linejoin="round"/>
<path d="M102 71H110Z" fill="#ced4da"/>
<path d="M102 71H110" stroke="#ced4da" stroke-width="4" stroke-linecap="round" stroke-linejoin="round"/>
<path d="M86 71H94Z" fill="#ced4da"/>
<path d="M86 71H94" stroke="#ced4da" stroke-width="4" stroke-linecap="round" stroke-linejoin="round"/>
<path d="M130.749 125.251C130.749 126.775 130.143 128.238 129.065 129.316C127.987 130.394 126.524 131 124.999 131C123.475 131 122.012 130.394 120.934 129.316C119.856 128.238 119.25 126.775 119.25 125.251C119.25 122.075 123.082 115.667 124.999 115.667C126.917 115.667 130.749 122.067 130.749 125.251Z" stroke="#ced4da" stroke-width="4" stroke-linecap="round" stroke-linejoin="round"/>
<path d="M108.391 87H117.991C121.173 87 124.225 88.2643 126.476 90.5147C128.726 92.7652 129.991 95.8174 129.991 99V107H119.999V103C119.999 101.939 119.577 100.922 118.827 100.172C118.077 99.4214 117.059 99 115.999 99H108.393" stroke="#ced4da" stroke-width="4" stroke-linecap="round" stroke-linejoin="round"/>
<path d="M87.608 87H74V99H87.608" stroke="#ced4da" stroke-width="4" stroke-linecap="round" stroke-linejoin="round"/>
<path d="M74 71V115" stroke="#ced4da" stroke-width="4" stroke-linecap="round" stroke-linejoin="round"/>
</g>
<defs>
<clipPath id="clip0_19289_2094">
<rect width="64" height="64" fill="white" transform="translate(72 69)"/>
</clipPath>
</defs>
</svg>
