<svg width="80" height="80" viewBox="0 0 80 80" fill="none" xmlns="http://www.w3.org/2000/svg">
<circle cx="28" cy="38" r="12" fill="#E8F6B1"/>
<path d="M56.25 56.25C56.25 56.913 55.9866 57.5489 55.5178 58.0178C55.0489 58.4866 54.413 58.75 53.75 58.75H26.25C25.587 58.75 24.9511 58.4866 24.4822 58.0178C24.0134 57.5489 23.75 56.913 23.75 56.25V23.75C23.75 23.087 24.0134 22.4511 24.4822 21.9822C24.9511 21.5134 25.587 21.25 26.25 21.25H43.965C44.6276 21.2501 45.263 21.5133 45.7317 21.9817L55.5183 31.7683C55.9867 32.237 56.2499 32.8724 56.25 33.535V56.25Z" stroke="#2E88FF" stroke-width="2.5" stroke-linecap="round" stroke-linejoin="round"/>
<path d="M56.25 33.75H46.25C45.587 33.75 44.9511 33.4866 44.4822 33.0178C44.0134 32.5489 43.75 31.913 43.75 31.25V21.25" stroke="#2E88FF" stroke-width="2.5" stroke-linecap="round" stroke-linejoin="round"/>
<path d="M35.8099 40.8334C34.2312 40.718 32.7546 40.0094 31.6768 38.85C30.5991 37.6906 30 36.1663 30 34.5834C30 33.0004 30.5991 31.4761 31.6768 30.3167C32.7546 29.1573 34.2312 28.4487 35.8099 28.3334" stroke="#2E88FF" stroke-width="2.5" stroke-linecap="round" stroke-linejoin="round"/>
<path d="M28.333 33.3334H34.9997" stroke="#2E88FF" stroke-width="2.5" stroke-linecap="round" stroke-linejoin="round"/>
<path d="M28.333 36.6666H34.9997" stroke="#2E88FF" stroke-width="2.5" stroke-linecap="round" stroke-linejoin="round"/>
<path d="M40 45H50" stroke="#2E88FF" stroke-width="2.5" stroke-linecap="round" stroke-linejoin="round"/>
<path d="M31.25 52.5H50" stroke="#2E88FF" stroke-width="2.5" stroke-linecap="round" stroke-linejoin="round"/>
</svg>
