<svg xmlns="http://www.w3.org/2000/svg" viewBox="0 0 1200 1200"><defs><style>.cls-1{fill:#fff;}.cls-2{fill:#f4f8ff;}.cls-3{fill:#e3e3e3;}.cls-4{fill:#f9f9f9;}.cls-5{fill:#767ca8;}.cls-6{fill:#767c97;}.cls-7{fill:#efefef;}.cls-8{fill:#ef8f7f;}.cls-9{fill:#f9ab98;}.cls-10{fill:#ffeea7;}</style></defs><title>contract</title><g id="Calque_2" data-name="Calque 2"><g id="_ÎÓÈ_1_1_" data-name="—ÎÓÈ_1_1_"><rect class="cls-1" width="1200" height="1200"/><path class="cls-2" d="M357.89,1034.74C336.71,1030.16,82.25,988.9,101,684.56S143.23,288.69,242.16,255.2,581.57,63.27,770.28,213.93s392.34,285.78,311.53,526.34-94,320.81-304.87,308.53S458.6,1056.53,357.89,1034.74Z"/></g><g id="_ÎÓÈ_2" data-name="—ÎÓÈ_2"><path class="cls-3" d="M329,999.28c-8.59-1.12-11.78-2.45-7.73-4,28.21-10.82,156.55-10.44,218.8-10.4,78.3,0,159.76-.2,230.35,2.47,29.55,1.11,96.44,2.16,108,5.83,30.34,9.64-182.92,12.2-217.45,12.31C603.44,1005.69,378.1,1005.71,329,999.28Z"/><path class="cls-3" d="M434.67,901.72c-5.4,19.8-15.26,32.28-31.12,32.22l1.62,0a31.19,31.19,0,0,1-21.45-10c-10.06-10.65-10.35-22.15-10.35-35.3V439.41q0-30.89,0-61.77V346.19c0-12.74,2.15-27.64-1.35-40-3.26-11.57-12.59-24.81-26.45-24.81l451.72-.06c12.19-.17,24.89,8.34,27.46,31.5l.53,90V902.48Z"/><path class="cls-1" d="M423.34,893.17c1.18,0-.83,10.72-1,11.69-1,5.4-2.31,10.52-7.32,13.6-7.09,4.35-15.63,1.2-20.83-4.55-8.27-9.16-8.95-22-8.95-33.67V338.49c0-3.86-.11-7.72-.12-11.57,0-5.52.52-11-.42-16.44a40.62,40.62,0,0,0-11.95-22.78c-3.82-3.55-9.24-6.34-14.58-6.34L798,281.3c11.87-.17,24.24,8.23,26.74,31.06l.52,88.76v492.8Z"/><path class="cls-3" d="M400.36,933.57c13.31,2.52,28.82-6.51,31.69-31.09H885.11c-2.57,23.16-11.55,31.68-23.74,31.51Z"/><path class="cls-4" d="M423.76,922.91c3,.11,5.42-4.27,8.29-20.43H885.11c-2.57,15.22-11.55,20.82-23.74,20.71Z"/><path class="cls-5" d="M402.81,935.64l70.16-.06,113.22-.12,118.26-.14,87.19-.11,20,0c14.58,0,29.16,0,43.73-.06,11.14,0,21.58-2.22,27-13,3.1-6.16,4.43-13.1,5.21-19.89.1-.84-.8-1.37-1.56-1.37H488.65c-18.28,0-36.66-.56-54.93,0h-.79c-1.1,0-3.13.42-3.31,1.83C427.68,917.58,418.87,935,401.23,932c-2.18-.37-5,2.67-1.75,3.21,20.43,3.46,32.67-14.94,35-32.92l-3.31,1.84h446.2c1.56,0,4.6.6,6.06,0a2.61,2.61,0,0,1,.79,0l-1.56-1.38c-.86,7.53-2.28,15.86-6.76,22.17s-11.41,6.94-18.45,7c-14.63.16-29.28.05-43.92.07l-19.08,0-83.28.1-114.82.14-112,.12-74.84.07h-4.95c-2.12,0-5,3.21-1.75,3.21Z"/><path class="cls-5" d="M342.12,283.16H788.36c10.52,0,20.34-.22,27.45,9.59,6.49,8.94,7,18.72,7,29V901.64c0,2.63,4.9,2,4.9-.31V332c0-6.21.22-12.47,0-18.67-.63-17.76-11.82-33.76-30.41-33.86-24-.13-48,0-72,0H342.5c-2.83,0-3.65,3.73-.38,3.73Z"/><path class="cls-3" d="M372.22,312.78c-2.86-24.58-18.38-33.6-31.69-31.08-14.29,2.72-25.52,16.05-24.67,30.53Z"/><path class="cls-5" d="M361.57,310.57H316.1l2.2,1.45c-.7-22,26.66-39.71,42.85-20.83a38,38,0,0,1,8.64,23.9V866.67c0,16.29-2.25,34.35,5.23,49.12,4.84,9.56,13.34,17,23.92,19.33,1.94.42,5.71-2.48,2.83-3.1-13.48-2.95-22.63-14.65-25.55-27.7-2-9-1.49-18.47-1.56-27.64,0-2.29,0-4.59,0-6.88V314.66a41.85,41.85,0,0,0-6.32-21.78c-9.64-15.42-29.39-16.86-43-5.71a31.47,31.47,0,0,0-11.88,25.28c0,1.22,1.15,1.45,2.19,1.45h45.47c2.68,0,3.78-3.33.49-3.33Z"/><path class="cls-6" d="M421.3,446.32h303c13.91,0,28.23,1,42.12,0a5.8,5.8,0,0,1,.59,0c1.53,0,5.22-2.3,2-2.3H466c-13.91,0-28.22-1-42.11,0h-.6c-1.53,0-5.21,2.3-2,2.3Z"/><path class="cls-6" d="M422.08,490.57H753.53c4.44,0,9.24.51,13.67,0a3.87,3.87,0,0,1,.59,0c2.77,0,3.7-3.57.42-3.57H436.76c-4.44,0-9.24-.51-13.66,0a3.87,3.87,0,0,1-.59,0c-2.77,0-3.7,3.57-.43,3.57Z"/><path class="cls-6" d="M420.73,533.4h303c14,0,28.14.62,42.11,0h.6c1,0,5.46-2,3.12-2h-303c-14,0-28.14-.63-42.12,0h-.59c-1,0-5.47,2-3.13,2Z"/><path class="cls-6" d="M421.3,577.18h303c13.92,0,28.23,1,42.12,0a5.8,5.8,0,0,1,.59,0c1.55,0,5.22-2.32,2-2.32H466c-13.91,0-28.22-1-42.12,0a5.8,5.8,0,0,1-.59,0c-1.54,0-5.21,2.32-2,2.32Z"/><path class="cls-6" d="M421.27,620.7h277.8c1.43,0,5.24-2.13,2-2.13H423.32c-1.43,0-5.25,2.13-2.05,2.13Z"/><path class="cls-6" d="M421.3,664.43h270c1.57,0,5.21-2.35,2-2.35h-270c-1.57,0-5.21,2.35-2,2.35Z"/><path class="cls-6" d="M421.35,708.23h248c1.8,0,5.13-2.72,1.89-2.72h-248c-1.81,0-5.14,2.72-1.89,2.72Z"/><path class="cls-6" d="M421.29,751.61H692c1.51,0,5.23-2.24,2-2.24H423.3c-1.5,0-5.22,2.24-2,2.24Z"/><path class="cls-6" d="M421.29,818.61H598c1.51,0,5.23-2.24,2-2.24H423.3c-1.5,0-5.22,2.24-2,2.24Z"/><rect class="cls-7" x="475.29" y="362.05" width="239.71" height="39" rx="16"/><path class="cls-6" d="M512.34,382.81H676c1.68,0,5.18-2.52,1.94-2.52H514.28c-1.68,0-5.17,2.52-1.94,2.52Z"/><path class="cls-8" d="M889.21,842.68c5.7,9.09-41.92-9.17-41.92-9.17s-9.24,34.87-19.16,34.74c0,0-35.29-54.62-45.11-73.56s-33.41-78-33.41-78L780.15,704l30.54-12.79S835.29,751,845,770,885,836,889.21,842.68Z"/><path class="cls-9" d="M884.77,833.15c5.3,8.56-42.25-8.13-42.25-8.13s-3.34,31.12-12.27,30.82c0,0-32.76-51.49-41.94-69.29s-31.5-73.16-31.5-73.16L784.07,702l27.26-11.34s23.24,56.17,32.35,74S880.89,826.88,884.77,833.15Z"/><path class="cls-6" d="M887,843.75c.72,1.25.44-.88,1.23-.38-.21-.14-1,.11-1.38,0-1.64-.36-3.37-.45-5-.81-4.88-1.06-9.68-2.57-14.42-4.11q-9.45-3.07-18.73-6.62a3,3,0,0,0-3.84,1.82,145,145,0,0,1-5,15.06,80,80,0,0,1-5.07,11c-1.23,2.14-3.57,6.62-6.46,6.76l2,.71c-11.84-18.33-23.54-36.78-34.77-55.49-13.27-22.12-23.08-45.7-32.91-69.5q-5.38-13-10.63-26.09l-1.35,2.07,61.08-25.56-3.49-.79c7.78,18.91,15.7,37.77,24,56.47,10.12,22.92,22.51,44.1,35.75,65.34,6.28,10.08,12.69,20.07,19,30.12,1.16,1.85,5.76,0,4.42-2.14-12.86-20.43-26-40.69-38.09-61.61-12.17-21.1-21.18-44-30.61-66.4q-4.86-11.52-9.62-23.07c-.57-1.4-2.32-1.27-3.48-.79l-61.08,25.57c-.66.28-1.68,1.24-1.34,2.08,8.28,20.72,16.75,41.4,25.82,61.79,10.36,23.29,24.07,44.69,37.65,66.21q7.56,12,15.25,23.92a2.22,2.22,0,0,0,2,.71c8-.4,12.35-10.73,15-16.92a141.9,141.9,0,0,0,6.79-19.77l-3.83,1.81c9,3.44,18.12,6.66,27.39,9.26,2.37.67,23.17,6,18.13-2.79C890.33,839.73,885.73,841.54,887,843.75Z"/><path class="cls-8" d="M670.09,842.68C682,845.35,712,833.51,712,833.51s12.69,16.18,19.16,34.74c0,0,35.29-54.62,45.11-73.56s33.41-78,33.41-78L779.14,704,748.6,691.17S724,751,714.27,770,670.09,842.68,670.09,842.68Z"/><path class="cls-9" d="M675.46,836.43c10.23,2,40.06-10.91,40.06-10.91a116.34,116.34,0,0,1,15,24.5s29.59-44.72,38.87-62.83,32.13-74.25,32.13-74.25l-25.92-10.7-25.92-10.7s-23.76,57-33,75.14S675.46,836.43,675.46,836.43Z"/><path class="cls-6" d="M669.25,844.44c8.51,1.65,18-1.18,26.17-3.52,6-1.72,11.88-3.71,17.66-6l-3.29-.37a125.58,125.58,0,0,1,19,34.33c.75,2.09,3.85,1,4.72-.37,12-18.64,23.94-37.39,35.33-56.43,13-21.78,22.66-45.05,32.35-68.46Q806.64,730.35,812,717a1.4,1.4,0,0,0-.92-1.91L750,689.54a3.16,3.16,0,0,0-3.7,1.35c-8.4,20.45-16.95,40.85-26,61-10.37,23.19-23.66,44.6-37.12,66.11q-7.65,12.22-15.42,24.37c-1.43,2.24,3.48,2.34,4.63.56,12.08-18.84,24-37.79,35.41-57.08,12.84-21.76,22.42-45.12,32.23-68.36q5.49-13,10.87-26.06l-3.7,1.35,61.08,25.57-.92-1.92c-8.29,20.72-16.75,41.4-25.82,61.79-10.3,23.14-24,44.41-37.45,65.8q-7.56,12-15.25,23.92l4.73-.37a128.89,128.89,0,0,0-19.37-35.16c-.77-1-2.27-.76-3.28-.37-5,2-10.14,3.68-15.31,5.2-7.64,2.26-16.67,5.2-24.7,3.65C668.53,840.46,666,843.82,669.25,844.44Z"/><path class="cls-10" d="M866.38,719.42l11.37-11.37a20.66,20.66,0,0,0,0-29.19L866.38,667.5a20.63,20.63,0,0,1-6-14.59V636.84A20.64,20.64,0,0,0,839.7,616.2H823.63a20.65,20.65,0,0,1-14.6-6.05l-11.36-11.36a20.64,20.64,0,0,0-29.19,0l-11.36,11.36a20.65,20.65,0,0,1-14.6,6.05H726.45a20.64,20.64,0,0,0-20.64,20.64v16.07a20.63,20.63,0,0,1-6,14.59L688.4,678.86a20.66,20.66,0,0,0,0,29.19l11.37,11.37a20.63,20.63,0,0,1,6,14.59v16.07a20.64,20.64,0,0,0,20.64,20.64h16.07a20.64,20.64,0,0,1,14.6,6l11.36,11.37a20.64,20.64,0,0,0,29.19,0L809,776.76a20.64,20.64,0,0,1,14.6-6H839.7a20.64,20.64,0,0,0,20.64-20.64V734A20.63,20.63,0,0,1,866.38,719.42Z"/><path class="cls-6" d="M868.39,720.08c6.26-6.26,14.88-12.64,17.17-21.59,3.25-12.71-5.56-20.63-13.61-28.68-4.56-4.56-8.53-9-9.08-15.85-.36-4.44-.09-9-.09-13.44,0-4.76-.08-9.24-2.25-13.64A22.33,22.33,0,0,0,845.1,615c-10-2.09-21.57,2.32-30.75-3.43-8.06-5.06-12.56-14.73-21.49-18.62a24,24,0,0,0-19.83.49c-4.22,2-7.31,5.43-10.56,8.68s-6.47,7.31-10.39,9.76c-5.23,3.27-11.48,2.61-17.36,2.61-11.29,0-22.42,1-28.6,12-4.55,8.16-2.34,18.39-2.77,27.31-.57,11.56-11.07,17.45-17.92,25.38a22.32,22.32,0,0,0-5,19.46c1.22,5.32,4.44,9.13,8.18,12.87,3,3,6,5.85,8.9,8.9,4.85,5.14,5.82,10.93,5.82,17.63,0,11.08-1.1,22.59,9,30,8.3,6.08,19.18,4.09,28.8,4.32,11.38.28,17.5,9.54,25,16.7,9.57,9.1,24.08,8.7,33.52-.38,7.44-7.16,13.45-16.19,24.77-16.32,10-.11,21,1.58,29.47-5,9.76-7.58,8.81-18.68,8.81-29.7,0-6.64.83-12.47,5.61-17.61,2.05-2.2-2.59-2.86-4-1.33-7.81,8.39-6.48,19-6.48,29.53,0,6-1.32,11.64-5.88,16S842.22,769,836.45,769c-10.68,0-21.05-1-29.43,7.09-6.41,6.15-12.79,15.69-22.39,16.33-11,.73-18.06-9.69-25.09-16.51-7.82-7.56-17.18-6.91-27.2-6.91-5.59,0-10.81.08-15.68-3.27-5.63-3.87-8.28-10.06-8.4-16.73-.18-9.49,1.74-20.27-4.34-28.4-5.23-7-14.23-11.74-17.63-20-5.33-13,4.55-21.47,12.74-29.67,3.53-3.53,6.74-7,8.24-11.93,1.29-4.18,1-8.56,1-12.87s-.41-8.67.28-12.82a18.15,18.15,0,0,1,17-15.37c8.22-.35,17.41,1.4,25.25-1.67,8.07-3.15,13.5-11,19.65-16.74a17.79,17.79,0,0,1,23.24-1.21c3.34,2.55,6.18,5.94,9.14,8.9,3.2,3.2,6.19,6.53,10.37,8.49s8.67,2.21,13.28,2.21c11.72,0,25.19-1,30.18,12.45,2.94,8,.47,17.14,1.4,25.43,1.17,10.3,10.28,16.77,17,23.68,4.75,4.87,7.24,11.32,5.89,18.14-1.11,5.64-4.74,9.29-8.59,13.14l-8,8C862.26,720.86,866.92,721.55,868.39,720.08Z"/><circle class="cls-7" cx="783.07" cy="693.46" r="63.05" transform="translate(-260.99 756.83) rotate(-45)"/><circle class="cls-1" cx="783.07" cy="693.46" r="54.05" transform="translate(-92.22 120.79) rotate(-8.33)"/><path class="cls-6" d="M848.57,693.27c-.3-27.25-17.39-51.91-43.29-61A67,67,0,0,0,732.93,652a65,65,0,0,0-6.28,74.71c14,23.47,41.9,35.41,68.57,30.35a66.06,66.06,0,0,0,53.35-63.8c0-2.52-4.87-1.8-4.9.37-.27,25.06-15.31,48.2-39,57.23-24.17,9.23-52.16,1.2-68.37-18.75a62.32,62.32,0,0,1-5.82-69.45,60.51,60.51,0,0,1,64.1-29.29c28.44,5.67,48.75,31.59,49.06,60.26C843.7,696.17,848.59,695.44,848.57,693.27Z"/></g></g></svg>