<svg width="32" height="32" viewBox="0 0 32 32" fill="none" xmlns="http://www.w3.org/2000/svg">
<g clip-path="url(#clip0_2756_60487)">
<path d="M16 0C12.8355 0 9.74207 0.938384 7.11088 2.69649C4.4797 4.45459 2.42894 6.95345 1.21793 9.87707C0.00693258 12.8007 -0.309921 16.0177 0.307443 19.1214C0.924806 22.2251 2.44866 25.0761 4.6863 27.3137C6.92394 29.5514 9.77487 31.0752 12.8786 31.6926C15.9823 32.3099 19.1993 31.9931 22.1229 30.7821C25.0466 29.5711 27.5454 27.5203 29.3035 24.8891C31.0616 22.2579 32 19.1645 32 16C32 11.7565 30.3143 7.68687 27.3137 4.68629C24.3131 1.68571 20.2435 0 16 0V0ZM23.32 21.4267C23.5711 21.676 23.7128 22.0148 23.7141 22.3686C23.7153 22.7224 23.576 23.0623 23.3267 23.3133C23.0774 23.5644 22.7385 23.7062 22.3847 23.7074C22.0309 23.7087 21.6911 23.5693 21.44 23.32L16.24 18.12C16.2089 18.0877 16.1716 18.0621 16.1304 18.0446C16.0892 18.027 16.0448 18.018 16 18.018C15.9552 18.018 15.9109 18.027 15.8696 18.0446C15.8284 18.0621 15.7911 18.0877 15.76 18.12L10.56 23.32C10.4357 23.4434 10.2883 23.5412 10.1262 23.6077C9.96409 23.6741 9.79049 23.708 9.61529 23.7074C9.4401 23.7068 9.26674 23.6717 9.10512 23.6041C8.9435 23.5364 8.79678 23.4377 8.67334 23.3133C8.5499 23.189 8.45215 23.0416 8.38568 22.8795C8.31921 22.7174 8.28531 22.5438 8.28593 22.3686C8.28655 22.1934 8.32167 22.0201 8.38929 21.8585C8.4569 21.6968 8.55569 21.5501 8.68001 21.4267L13.88 16.24C13.9123 16.2089 13.9379 16.1716 13.9555 16.1304C13.973 16.0892 13.982 16.0448 13.982 16C13.982 15.9552 13.973 15.9108 13.9555 15.8696C13.9379 15.8284 13.9123 15.7911 13.88 15.76L8.68001 10.56C8.46157 10.3049 8.34743 9.97683 8.36039 9.64126C8.37335 9.3057 8.51246 8.98738 8.74992 8.74992C8.98738 8.51246 9.3057 8.37335 9.64127 8.36039C9.97684 8.34742 10.3049 8.46157 10.56 8.68L15.76 13.88C15.7911 13.9123 15.8284 13.9379 15.8696 13.9555C15.9109 13.973 15.9552 13.982 16 13.982C16.0448 13.982 16.0892 13.973 16.1304 13.9555C16.1716 13.9379 16.2089 13.9123 16.24 13.88L21.44 8.68C21.6951 8.46157 22.0232 8.34742 22.3587 8.36039C22.6943 8.37335 23.0126 8.51246 23.2501 8.74992C23.4876 8.98738 23.6267 9.3057 23.6396 9.64126C23.6526 9.97683 23.5384 10.3049 23.32 10.56L18.12 15.76C18.0877 15.7911 18.0621 15.8284 18.0446 15.8696C18.027 15.9108 18.018 15.9552 18.018 16C18.018 16.0448 18.027 16.0892 18.0446 16.1304C18.0621 16.1716 18.0877 16.2089 18.12 16.24L23.32 21.4267Z" fill="#EB4A65"/>
</g>
<defs>
<clipPath id="clip0_2756_60487">
<rect width="32" height="32" fill="white"/>
</clipPath>
</defs>
</svg>
