<svg width="80" height="80" viewBox="0 0 80 80" fill="none" xmlns="http://www.w3.org/2000/svg">
<circle cx="40" cy="48" r="12" fill="#77B7FC"/>
<path d="M26.25 58.7501L22.9167 54.7834C21.8449 53.4571 21.257 51.8052 21.25 50.1001V41.4834C21.25 40.8204 21.5134 40.1845 21.9822 39.7156C22.4511 39.2468 23.087 38.9834 23.75 38.9834V38.9834C24.413 38.9834 25.0489 39.2468 25.5178 39.7156C25.9866 40.1845 26.25 40.8204 26.25 41.4834V47.9334" stroke="#030F40" stroke-width="2.5" stroke-linecap="round" stroke-linejoin="round"/>
<path d="M33.7502 58.7501V53.7501C33.7534 52.2659 33.3122 50.8147 32.4835 49.5834L30.5835 46.6667C30.4223 46.3892 30.2053 46.1483 29.9461 45.9591C29.687 45.7699 29.3913 45.6366 29.078 45.5677C28.7646 45.4987 28.4403 45.4956 28.1257 45.5586C27.811 45.6215 27.5129 45.7492 27.2502 45.9334V45.9334C26.779 46.2502 26.4395 46.728 26.2953 47.2772C26.1511 47.8264 26.2121 48.4093 26.4668 48.9167L28.7168 52.6667" stroke="#030F40" stroke-width="2.5" stroke-linecap="round" stroke-linejoin="round"/>
<path d="M53.75 58.7501L57.0833 54.7834C58.1551 53.4571 58.743 51.8052 58.75 50.1001V41.4834C58.75 40.8204 58.4866 40.1845 58.0178 39.7156C57.5489 39.2468 56.913 38.9834 56.25 38.9834C55.587 38.9834 54.9511 39.2468 54.4822 39.7156C54.0134 40.1845 53.75 40.8204 53.75 41.4834V47.9334" stroke="#030F40" stroke-width="2.5" stroke-linecap="round" stroke-linejoin="round"/>
<path d="M46.25 58.7501V53.7501C46.2468 52.2659 46.688 50.8147 47.5167 49.5834L49.4167 46.6667C49.5778 46.3892 49.7949 46.1483 50.054 45.9591C50.3132 45.7699 50.6088 45.6366 50.9222 45.5677C51.2356 45.4987 51.5599 45.4956 51.8745 45.5586C52.1892 45.6215 52.4873 45.7492 52.75 45.9334V45.9334C53.2212 46.2502 53.5607 46.728 53.7049 47.2772C53.8491 47.8264 53.7881 48.4093 53.5334 48.9167L51.2834 52.6667" stroke="#030F40" stroke-width="2.5" stroke-linecap="round" stroke-linejoin="round"/>
<path d="M47.4331 35C47.4331 36.9714 46.6499 38.8621 45.2559 40.2562C43.8619 41.6502 41.9712 42.4333 39.9997 42.4333C38.0283 42.4333 36.1376 41.6502 34.7436 40.2562C33.3496 38.8621 32.5664 36.9714 32.5664 35C32.5664 28.6833 38.9331 21.25 39.9997 21.25C41.0664 21.25 47.4331 28.6833 47.4331 35Z" stroke="#030F40" stroke-width="2.5" stroke-linecap="round" stroke-linejoin="round"/>
<path d="M40 37.5C39.337 37.5 38.7011 37.2366 38.2322 36.7678C37.7634 36.2989 37.5 35.663 37.5 35" stroke="#030F40" stroke-width="2.5" stroke-linecap="round" stroke-linejoin="round"/>
</svg>
