<svg width="8" height="12" viewBox="0 0 8 12" fill="none" xmlns="http://www.w3.org/2000/svg">
<path d="M7.75 3.50975C7.75 1.18663 5.97545 0 4 0C1.97433 0 0.25 1.25348 0.25 3.52646H2.99554C2.99554 2.92479 3.29688 2.47354 4 2.47354C4.66964 2.47354 5.00446 2.90808 5.00446 3.49304C5.00446 3.76045 4.80357 4.14485 4.55246 4.42897L3.38058 5.79944C2.87835 6.3844 2.6942 6.90251 2.6942 7.6546V8.039H5.43973V7.88858C5.43973 7.60446 5.5904 7.28691 5.74107 7.10306L6.89621 5.64902C7.36496 5.04735 7.75 4.37883 7.75 3.50975ZM5.47321 12V9.30919H2.66071V12H5.47321Z" fill="#030F40"/>
</svg>
