<svg width="120" height="43" viewBox="0 0 120 43" fill="none" xmlns="http://www.w3.org/2000/svg">
<path d="M33.189 32.308C33.131 32.308 33.189 32.0192 33.189 31.7303V30.9782C33.2092 30.837 33.1961 30.693 33.1508 30.5576C33.1055 30.4223 33.0292 30.2993 32.9279 30.1984C32.8266 30.0975 32.7031 30.0215 32.5672 29.9764C32.4314 29.9312 32.2868 29.9182 32.145 29.9383H31.159C31.0171 29.918 30.8724 29.9309 30.7364 29.976C30.6004 30.0211 30.4768 30.0971 30.3754 30.198C30.274 30.2989 30.1976 30.4219 30.1522 30.5574C30.1068 30.6928 30.0937 30.8369 30.114 30.9782V41.4969C30.0945 41.6379 30.108 41.7814 30.1537 41.9162C30.1993 42.0511 30.2757 42.1735 30.3769 42.2739C30.4781 42.3743 30.6013 42.45 30.7369 42.4949C30.8724 42.5398 31.0166 42.5528 31.158 42.5328H32.258C32.3998 42.553 32.5444 42.5399 32.6802 42.4948C32.8161 42.4497 32.9396 42.3736 33.0409 42.2728C33.1422 42.1719 33.2185 42.0489 33.2638 41.9135C33.3091 41.7782 33.3222 41.6342 33.302 41.4929V36.8741C33.302 34.7933 34.346 32.4813 36.551 32.4813C38.06 32.4813 38.234 33.6368 38.234 35.0243V41.4989C38.2147 41.64 38.2286 41.7836 38.2745 41.9184C38.3204 42.0533 38.3972 42.1756 38.4987 42.2759C38.6002 42.3761 38.7237 42.4515 38.8595 42.4961C38.9952 42.5407 39.1395 42.5533 39.281 42.5328H40.381C40.5228 42.553 40.6674 42.5399 40.8032 42.4948C40.9391 42.4497 41.0626 42.3736 41.1639 42.2728C41.2652 42.1719 41.3415 42.0489 41.3868 41.9135C41.4321 41.7782 41.4452 41.6342 41.425 41.4929V36.8741C41.425 34.6827 42.525 32.4813 44.616 32.4813C46.067 32.4813 46.357 33.577 46.357 35.0243V41.4989C46.3378 41.6396 46.3517 41.7828 46.3974 41.9173C46.4431 42.0518 46.5195 42.1739 46.6205 42.274C46.7216 42.3742 46.8445 42.4497 46.9798 42.4946C47.115 42.5395 47.2588 42.5526 47.4 42.5328H48.5C48.6418 42.553 48.7864 42.5399 48.9222 42.4948C49.0581 42.4497 49.1816 42.3736 49.2829 42.2728C49.3842 42.1719 49.4605 42.0489 49.5058 41.9135C49.5511 41.7782 49.5642 41.6342 49.544 41.4929V34.4466C49.544 31.1526 48.035 29.6495 45.424 29.6495C44.5396 29.6582 43.6739 29.9044 42.9182 30.3621C42.1625 30.8199 41.5447 31.4721 41.13 32.2502H41.08C40.8615 31.4542 40.3711 30.7589 39.6934 30.2842C39.0157 29.8095 38.193 29.585 37.367 29.6495C36.4967 29.6846 35.6513 29.9492 34.9172 30.4162C34.1832 30.8833 33.5868 31.5362 33.189 32.308ZM14.448 41.4969V26.0656C14.4683 25.9239 14.4552 25.7795 14.4097 25.6438C14.3642 25.5081 14.2875 25.3849 14.1857 25.2839C14.084 25.1829 13.9599 25.107 13.8235 25.0622C13.6871 25.0173 13.5421 25.0048 13.4 25.0256H12.3C12.1582 25.0055 12.0136 25.0185 11.8777 25.0637C11.7418 25.1088 11.6184 25.1848 11.5171 25.2857C11.4158 25.3866 11.3395 25.5096 11.2942 25.645C11.2488 25.7803 11.2358 25.9243 11.256 26.0656V32.307C10.0626 32.9597 8.72903 33.3164 7.36799 33.3469C5.89786 33.3322 4.4573 32.9338 3.18999 32.1915V26.0656C3.18999 25.3683 2.84199 25.0256 2.20399 25.0256H1.04399C0.90218 25.0055 0.757615 25.0185 0.621732 25.0637C0.48585 25.1088 0.36238 25.1848 0.261094 25.2857C0.159807 25.3866 0.0834849 25.5096 0.0381662 25.645C-0.00715257 25.7803 -0.0202236 25.9243 -1.25738e-05 26.0656V41.4969C-0.019536 41.6379 -0.00595023 41.7814 0.0396753 41.9162C0.0853008 42.0511 0.161721 42.1735 0.26292 42.2739C0.364119 42.3743 0.487336 42.45 0.622871 42.4949C0.758406 42.5398 0.90256 42.5528 1.04399 42.5328H2.19999C2.34179 42.5537 2.48652 42.5413 2.62271 42.4968C2.7589 42.4523 2.8828 42.3767 2.98459 42.2762C3.08639 42.1757 3.16328 42.0529 3.20917 41.9177C3.25506 41.7824 3.26869 41.6383 3.24899 41.4969V35.1399C4.54937 35.7772 5.97775 36.113 7.42699 36.122C8.77081 36.1181 10.0976 35.8223 11.315 35.2554V41.4969C11.2955 41.6379 11.309 41.7814 11.3547 41.9162C11.4003 42.0511 11.4767 42.1735 11.5779 42.2739C11.6791 42.3743 11.8023 42.45 11.9379 42.4949C12.0734 42.5398 12.2176 42.5528 12.359 42.5328H13.459C14.097 42.5328 14.445 42.1862 14.445 41.4929L14.448 41.4969ZM26.11 36.2376C26.1376 36.7441 26.0612 37.251 25.8856 37.7271C25.71 38.2033 25.4388 38.6388 25.0885 39.0071C24.7383 39.3754 24.3164 39.6688 23.8486 39.8692C23.3807 40.0697 22.8768 40.1731 22.3675 40.1731C21.8582 40.1731 21.3543 40.0697 20.8864 39.8692C20.4186 39.6688 19.9967 39.3754 19.6464 39.0071C19.2962 38.6388 19.025 38.2033 18.8494 37.7271C18.6738 37.251 18.5974 36.7441 18.625 36.2376C18.5999 35.7343 18.6771 35.2311 18.8518 34.7583C19.0266 34.2854 19.2954 33.8525 19.642 33.4855C19.9887 33.1185 20.4062 32.825 20.8694 32.6225C21.3326 32.42 21.8321 32.3127 22.338 32.307C22.8469 32.3112 23.3499 32.417 23.817 32.6182C24.2842 32.8194 24.7061 33.1119 25.0578 33.4784C25.4095 33.8449 25.6838 34.2779 25.8645 34.7518C26.0453 35.2257 26.1287 35.7309 26.11 36.2376ZM22.339 29.6485C21.4422 29.6032 20.5454 29.74 19.7033 30.0507C18.8612 30.3613 18.0914 30.8393 17.4405 31.4556C16.7897 32.0718 16.2714 32.8135 15.9173 33.6355C15.5632 34.4575 15.3805 35.3426 15.3805 36.2371C15.3805 37.1316 15.5632 38.0167 15.9173 38.8387C16.2714 39.6607 16.7897 40.4023 17.4405 41.0186C18.0914 41.6348 18.8612 42.1128 19.7033 42.4235C20.5454 42.7342 21.4422 42.871 22.339 42.8257C23.2358 42.871 24.1325 42.7342 24.9746 42.4235C25.8167 42.1128 26.5866 41.6348 27.2375 41.0186C27.8883 40.4023 28.4066 39.6607 28.7607 38.8387C29.1148 38.0167 29.2974 37.1316 29.2974 36.2371C29.2974 35.3426 29.1148 34.4575 28.7607 33.6355C28.4066 32.8135 27.8883 32.0718 27.2375 31.4556C26.5866 30.8393 25.8167 30.3613 24.9746 30.0507C24.1325 29.74 23.2358 29.6032 22.339 29.6485ZM47.753 18.0939C46.7818 19.2349 45.5729 20.1517 44.2103 20.7805C42.8476 21.4092 41.3638 21.7349 39.862 21.7349C38.3602 21.7349 36.8764 21.4092 35.5137 20.7805C34.151 20.1517 32.9421 19.2349 31.971 18.0939C31.8999 18.0055 31.8477 17.9034 31.8178 17.7941C31.7879 17.6848 31.7808 17.5705 31.797 17.4584C31.8025 17.3473 31.8312 17.2386 31.8811 17.1392C31.931 17.0397 32.0011 16.9517 32.087 16.8807C32.2396 16.7721 32.4215 16.7117 32.609 16.7073C32.73 16.7063 32.8498 16.7316 32.9601 16.7815C33.0703 16.8314 33.1682 16.9047 33.247 16.9962C34.0574 17.9387 35.0631 18.6952 36.1948 19.2139C37.3266 19.7327 38.5577 20.0013 39.8035 20.0013C41.0493 20.0013 42.2804 19.7327 43.4121 19.2139C44.5439 18.6952 45.5495 17.9387 46.36 16.9962C46.5031 16.8347 46.7021 16.7331 46.9172 16.7117C47.1323 16.6903 47.3477 16.7506 47.52 16.8807C47.6107 16.9473 47.6842 17.0344 47.7346 17.1348C47.785 17.2352 47.8109 17.3461 47.81 17.4584C47.859 17.5596 47.8795 17.6722 47.8693 17.7841C47.8591 17.8961 47.8185 18.0031 47.752 18.0939H47.753ZM52.742 12.4879C52.7451 12.2914 52.7052 12.0966 52.625 11.917C52.5449 11.7375 52.4265 11.5774 52.278 11.448L40.848 0.404411C40.5794 0.154965 40.229 0.0112408 39.862 4.93097e-09C39.4926 -3.09123e-05 39.1382 0.145328 38.876 0.404411L34.582 4.56605V3.86879C34.584 3.67844 34.5478 3.4896 34.4756 3.31334C34.4034 3.13708 34.2966 2.97696 34.1615 2.84234C34.0263 2.70773 33.8656 2.60135 33.6886 2.52942C33.5117 2.4575 33.3221 2.42148 33.131 2.42348H31.506C31.3149 2.42148 31.1253 2.4575 30.9483 2.52942C30.7714 2.60135 30.6106 2.70773 30.4755 2.84234C30.3404 2.97696 30.2336 3.13708 30.1614 3.31334C30.0891 3.4896 30.053 3.67844 30.055 3.86879V8.95481L27.444 11.4978C27.183 11.7818 27.0382 12.1527 27.038 12.5377C27.036 12.7281 27.0721 12.9169 27.1444 13.0932C27.2166 13.2694 27.3234 13.4296 27.4585 13.5642C27.5936 13.6988 27.7544 13.8052 27.9313 13.8771C28.1083 13.949 28.2979 13.985 28.489 13.983H29.94V23.4618C29.938 23.6521 29.9741 23.841 30.0464 24.0172C30.1186 24.1935 30.2254 24.3536 30.3605 24.4882C30.4956 24.6229 30.6564 24.7292 30.8333 24.8012C31.0103 24.8731 31.1999 24.9091 31.391 24.9071H48.275C48.4661 24.9091 48.6557 24.8731 48.8326 24.8012C49.0096 24.7292 49.1703 24.6229 49.3055 24.4882C49.4406 24.3536 49.5474 24.1935 49.6196 24.0172C49.6918 23.841 49.728 23.6521 49.726 23.4618V13.8705H51.293C51.4821 13.884 51.6719 13.8577 51.8502 13.7936C52.0285 13.7294 52.1913 13.6286 52.328 13.4979C52.4648 13.3671 52.5725 13.2092 52.6441 13.0344C52.7158 12.8595 52.7498 12.6717 52.744 12.4829L52.742 12.4879ZM53.266 35.5433C53.1269 34.7956 53.2762 34.0232 53.6841 33.3803C54.0919 32.7375 54.7283 32.2717 55.466 32.0759C55.8094 31.9878 56.1674 31.9708 56.5177 32.0262C56.868 32.0815 57.2031 32.2079 57.5023 32.3976C57.8015 32.5873 58.0584 32.8362 58.257 33.1289C58.4556 33.4215 58.5918 33.7517 58.657 34.099C57.7418 33.9851 56.8127 34.0638 55.93 34.3301C54.9696 34.5577 54.063 34.9698 53.261 35.5433H53.266ZM62.49 40.0526C62.5927 39.962 62.6749 39.8508 62.7312 39.7262C62.7875 39.6016 62.8166 39.4665 62.8166 39.3299C62.8166 39.1933 62.7875 39.0582 62.7312 38.9337C62.6749 38.8091 62.5927 38.6978 62.49 38.6073L62.084 38.2029C61.62 37.7407 61.384 37.6829 60.866 38.1451C60.2169 38.9351 59.3494 39.5179 58.371 39.8215C57.9028 39.9801 57.4072 40.0428 56.9141 40.0058C56.4209 39.9688 55.9404 39.8328 55.5013 39.606C55.0623 39.3793 54.6738 39.0664 54.3593 38.6863C54.0447 38.3062 53.8106 37.8666 53.671 37.394C55.0767 37.5538 56.5004 37.4159 57.849 36.9896C59.2312 36.7172 60.514 36.0781 61.562 35.1399C61.6975 35.0057 61.7996 34.8417 61.86 34.6611C61.9205 34.4805 61.9376 34.2883 61.91 34.1C61.04 30.7481 58.429 28.8407 54.947 29.765C54.1007 29.9612 53.3051 30.3321 52.6117 30.8537C51.9183 31.3753 51.3424 32.0359 50.9213 32.793C50.5003 33.5501 50.2433 34.3868 50.1671 35.249C50.0909 36.1112 50.1972 36.9797 50.479 37.7984C50.6902 38.6557 51.0756 39.4607 51.6113 40.1639C52.147 40.867 52.8217 41.4533 53.5938 41.8866C54.3658 42.3199 55.2189 42.591 56.1002 42.6831C56.9815 42.7752 57.8724 42.6865 58.718 42.4223C60.1866 42.0297 61.5016 41.2036 62.49 40.0526ZM66.668 29.6495C66.668 28.494 67.712 27.6842 69.337 27.6842C70.4196 27.6977 71.4723 28.0403 72.354 28.6663C72.876 28.9552 73.398 29.013 73.747 28.3197L74.211 27.5109C74.2894 27.3999 74.3429 27.2734 74.3678 27.14C74.3927 27.0066 74.3886 26.8695 74.3555 26.7378C74.3225 26.6062 74.2615 26.4832 74.1765 26.3771C74.0915 26.2711 73.9846 26.1845 73.863 26.1233C72.514 25.2559 70.9426 24.7942 69.337 24.7936C65.972 24.7936 63.419 26.8166 63.419 29.8796C63.419 35.3122 71.6 34.6189 71.6 37.9708C71.6 39.1262 70.614 39.9938 68.989 39.9938C67.7011 39.9695 66.4571 39.5228 65.45 38.7228C64.812 38.3762 64.406 38.3762 63.999 38.9539L63.477 39.7627C63.3744 39.8603 63.2961 39.9803 63.2482 40.1133C63.2003 40.2462 63.1841 40.3885 63.201 40.5287C63.2179 40.669 63.2673 40.8034 63.3454 40.9213C63.4236 41.0392 63.5282 41.1374 63.651 41.208C65.2135 42.363 67.1053 42.9912 69.051 43.001C72.764 43.001 74.851 40.6313 74.851 37.7994C74.851 32.0779 66.67 32.8867 66.67 29.6505L66.668 29.6495ZM84.309 34.6787C83.4352 34.3708 82.5054 34.2526 81.582 34.3321C80.6068 34.3494 79.6431 34.5453 78.739 34.9098C78.78 34.157 79.0987 33.4457 79.6339 32.9126C80.1692 32.3795 80.8832 32.062 81.639 32.0211C81.9939 32.0047 82.3483 32.0622 82.6796 32.19C83.0109 32.3177 83.3118 32.513 83.563 32.7632C83.8142 33.0135 84.0102 33.3132 84.1385 33.6432C84.2668 33.9732 84.3245 34.3262 84.308 34.6797L84.309 34.6787ZM87.441 35.377C87.267 31.9096 85.178 29.4821 81.581 29.6554C77.81 29.8288 75.315 32.6606 75.489 36.5284C75.5095 37.4146 75.7125 38.2872 76.0854 39.092C76.4583 39.8969 76.9932 40.6169 77.6568 41.2075C78.3205 41.798 79.0988 42.2465 79.9436 42.5252C80.7884 42.8039 81.6816 42.9069 82.568 42.8277C84.0917 42.7755 85.5651 42.272 86.8 41.3814C86.9146 41.3129 87.0138 41.2215 87.0913 41.113C87.1687 41.0045 87.2228 40.8812 87.25 40.7508C87.2773 40.6205 87.2771 40.4859 87.2496 40.3556C87.222 40.2253 87.1677 40.1022 87.09 39.9938L86.8 39.5316C86.452 38.9539 86.22 38.8961 85.582 39.185C84.7705 39.7948 83.8078 40.1735 82.797 40.2807C82.3092 40.3271 81.817 40.2771 81.3486 40.1336C80.8802 39.9901 80.4449 39.756 80.0675 39.4446C79.6902 39.1332 79.3782 38.7507 79.1496 38.319C78.9209 37.8873 78.78 37.4149 78.735 36.9289C80.0791 37.3801 81.5005 37.5583 82.915 37.4528C84.3124 37.4868 85.6935 37.1477 86.915 36.4707C87.0831 36.3424 87.2181 36.1762 87.3089 35.9856C87.3997 35.7951 87.4436 35.5858 87.437 35.375L87.441 35.377ZM96.024 31.8498V30.8677C96.024 30.1704 95.792 29.8278 95.096 29.8278C93.296 29.8278 91.905 31.5042 91.441 33.0063H91.383C91.4206 32.7189 91.44 32.4295 91.441 32.1397V30.9782C91.4611 30.8373 91.4481 30.6936 91.4029 30.5585C91.3577 30.4234 91.2817 30.3006 91.1808 30.1998C91.0798 30.099 90.9568 30.0229 90.8213 29.9775C90.6858 29.9321 90.5416 29.9187 90.4 29.9383H89.414C88.714 29.9383 88.428 30.285 88.428 30.9782V41.4969C88.428 42.1942 88.776 42.5368 89.414 42.5368H90.514C91.214 42.5368 91.558 42.1902 91.5 41.4969V37.4528C91.5 35.1409 92.6 32.8867 94.923 32.8867C95.0675 32.9077 95.2149 32.8957 95.354 32.8518C95.4932 32.8078 95.6205 32.7329 95.7264 32.6328C95.8323 32.5326 95.914 32.4099 95.9654 32.2738C96.0168 32.1376 96.0365 31.9917 96.023 31.8468L96.024 31.8498ZM108.614 31.1496C108.846 30.4523 108.556 29.9941 107.744 29.9941H106.584C106.319 29.9787 106.057 30.0573 105.845 30.2159C105.632 30.3746 105.483 30.603 105.424 30.8607L103.045 37.7965C102.813 38.5475 102.581 39.704 102.581 39.704H102.523C102.523 39.704 102.291 38.5485 102.059 37.7965L99.68 30.8607C99.6206 30.603 99.4716 30.3746 99.2592 30.2159C99.0469 30.0573 98.785 29.9787 98.52 29.9941H97.36C96.606 29.9941 96.316 30.4563 96.548 31.1496L100.436 41.726C100.495 41.9837 100.644 42.2121 100.857 42.3708C101.069 42.5294 101.331 42.608 101.596 42.5926H103.569C103.836 42.6193 104.104 42.5451 104.319 42.3846C104.533 42.2241 104.68 41.989 104.729 41.726L108.614 31.1496ZM116.853 34.6747C115.979 34.3668 115.049 34.2486 114.126 34.3281C113.151 34.3454 112.187 34.5413 111.283 34.9058C111.324 34.153 111.643 33.4417 112.178 32.9086C112.713 32.3755 113.427 32.058 114.183 32.0172C114.538 32.0007 114.892 32.0582 115.224 32.186C115.555 32.3138 115.856 32.509 116.107 32.7592C116.358 33.0095 116.554 33.3092 116.683 33.6392C116.811 33.9692 116.869 34.3222 116.852 34.6757L116.853 34.6747ZM119.985 35.373C119.811 31.9056 117.722 29.4781 114.125 29.6515C110.354 29.8248 107.859 32.6567 108.033 36.5244C108.054 37.4106 108.257 38.2832 108.629 39.0881C109.002 39.8929 109.537 40.6129 110.201 41.2035C110.864 41.794 111.643 42.2425 112.488 42.5212C113.332 42.7999 114.226 42.9029 115.112 42.8237C116.637 42.7726 118.112 42.2694 119.348 41.3784C119.463 41.3099 119.562 41.2186 119.639 41.11C119.717 41.0015 119.771 40.8782 119.798 40.7479C119.825 40.6175 119.825 40.4829 119.798 40.3526C119.77 40.2224 119.716 40.0992 119.638 39.9908L119.348 39.5286C119 38.9509 118.768 38.8931 118.13 39.182C117.318 39.7918 116.356 40.1706 115.345 40.2777C114.857 40.3241 114.365 40.2741 113.897 40.1306C113.428 39.9871 112.993 39.753 112.616 39.4416C112.238 39.1302 111.926 38.7477 111.698 38.316C111.469 37.8843 111.328 37.4119 111.283 36.9259C112.627 37.3755 114.047 37.5523 115.461 37.4458C116.858 37.4798 118.24 37.1407 119.461 36.4637C119.629 36.3355 119.764 36.1692 119.855 35.9787C119.946 35.7881 119.99 35.5788 119.983 35.368" fill="white"/>
</svg>
