<svg width="80" height="80" viewBox="0 0 80 80" fill="none" xmlns="http://www.w3.org/2000/svg">
<circle cx="55" cy="53" r="12" fill="#E8F6B1"/>
<path d="M56.25 21.25H23.75C22.3693 21.25 21.25 22.3693 21.25 23.75V56.25C21.25 57.6307 22.3693 58.75 23.75 58.75H56.25C57.6307 58.75 58.75 57.6307 58.75 56.25V23.75C58.75 22.3693 57.6307 21.25 56.25 21.25Z" stroke="#2E88FF" stroke-width="2.5" stroke-linecap="round" stroke-linejoin="round"/>
<path d="M40 53.75C46.2132 53.75 51.25 48.7132 51.25 42.5C51.25 36.2868 46.2132 31.25 40 31.25C33.7868 31.25 28.75 36.2868 28.75 42.5C28.75 48.7132 33.7868 53.75 40 53.75Z" stroke="#2E88FF" stroke-width="2.5" stroke-linecap="round" stroke-linejoin="round"/>
<path d="M58.75 31.25H51.725C50.2085 29.6694 48.3882 28.4116 46.3732 27.5525C44.3583 26.6933 42.1905 26.2504 40 26.2504C37.8095 26.2504 35.6417 26.6933 33.6268 27.5525C31.6118 28.4116 29.7915 29.6694 28.275 31.25H21.25" stroke="#2E88FF" stroke-width="2.5" stroke-linecap="round" stroke-linejoin="round"/>
<path d="M53.75 26.875C53.4048 26.875 53.125 26.5952 53.125 26.25C53.125 25.9048 53.4048 25.625 53.75 25.625" stroke="#2E88FF" stroke-width="2.5"/>
<path d="M53.75 26.875C54.0952 26.875 54.375 26.5952 54.375 26.25C54.375 25.9048 54.0952 25.625 53.75 25.625" stroke="#2E88FF" stroke-width="2.5"/>
<path d="M40 48.75C43.4518 48.75 46.25 45.9518 46.25 42.5C46.25 39.0482 43.4518 36.25 40 36.25C36.5482 36.25 33.75 39.0482 33.75 42.5C33.75 45.9518 36.5482 48.75 40 48.75Z" stroke="#2E88FF" stroke-width="2.5" stroke-linecap="round" stroke-linejoin="round"/>
</svg>
