<svg width="24" height="24" viewBox="0 0 24 24" fill="none" xmlns="http://www.w3.org/2000/svg">
<circle cx="12" cy="12" r="12" fill="#ABAFBF"/>
<path d="M11.6097 11.3919C11.5066 11.2888 11.4487 11.149 11.4487 11.0032V5.82461C11.4487 5.67881 11.5066 5.53898 11.6097 5.43589C11.7128 5.33279 11.8526 5.27487 11.9984 5.27487C12.1442 5.27487 12.2841 5.33279 12.3872 5.43589C12.4903 5.53898 12.5482 5.67881 12.5482 5.82461V11.0032C12.5482 11.149 12.4903 11.2888 12.3872 11.3919C12.2841 11.495 12.1442 11.5529 11.9984 11.5529C11.8526 11.5529 11.7128 11.495 11.6097 11.3919Z" fill="#030F40" stroke="#030F40" stroke-width="0.549743"/>
<path d="M16.0481 16.2454L16.0477 16.2457C15.1967 17.0942 14.1005 17.6535 12.9141 17.8446C11.7278 18.0357 10.5113 17.8489 9.43699 17.3105C8.36266 16.7722 7.48482 15.9096 6.9277 14.8449C6.37064 13.7803 6.16245 12.5674 6.3326 11.378C6.46294 10.4813 6.80255 9.62785 7.32396 8.88676C7.84198 8.15047 8.525 7.54562 9.31836 7.12047C9.43851 7.07767 9.56998 7.07794 9.69018 7.12152C9.81508 7.1668 9.91935 7.25577 9.98372 7.37199C10.0481 7.48821 10.0682 7.62381 10.0403 7.7537C10.0138 7.87739 9.94542 7.98794 9.8471 8.06692C9.19883 8.41376 8.64144 8.90874 8.22036 9.51171C7.7951 10.1207 7.52114 10.8222 7.42118 11.5582C7.31404 12.2699 7.37619 12.9969 7.60259 13.6802C7.82914 14.3639 8.21379 14.9846 8.72527 15.4917C9.5933 16.3594 10.7704 16.8469 11.9978 16.8469C13.2252 16.8469 14.4023 16.3594 15.2703 15.4916C15.7814 14.9843 16.1658 14.3636 16.3923 13.68C16.6187 12.9968 16.6811 12.2699 16.5744 11.5582C16.4738 10.8216 16.199 10.1196 15.7726 9.51055C15.3459 8.90097 14.7798 8.40211 14.1214 8.05546L14.1074 8.04808L14.0926 8.04235C14.0194 8.01401 13.9531 7.97031 13.8982 7.9142C13.8433 7.85809 13.801 7.79087 13.7742 7.71706C13.7475 7.64326 13.7368 7.56457 13.743 7.48631C13.7492 7.40805 13.7721 7.33202 13.8102 7.26334C13.8482 7.19466 13.9005 7.13493 13.9636 7.08816C14.0266 7.04139 14.099 7.00866 14.1757 6.99219C14.2525 6.97572 14.3319 6.97587 14.4086 6.99265C14.4853 7.00943 14.5575 7.04244 14.6203 7.08947L14.6374 7.10221L14.6562 7.11217C15.4572 7.53712 16.1469 8.14483 16.6693 8.88604C17.1917 9.62725 17.5321 10.4811 17.663 11.3784L17.6631 11.3793C17.7944 12.2602 17.7166 13.1596 17.436 14.005C17.1555 14.8503 16.68 15.6177 16.0481 16.2454Z" fill="#030F40" stroke="#030F40" stroke-width="0.549743"/>
</svg>
