<svg width="32" height="32" viewBox="0 0 32 32" fill="none" xmlns="http://www.w3.org/2000/svg">
<g clip-path="url(#clip0_3751_35524)">
<g clip-path="url(#clip1_3751_35524)">
<path d="M26.4 0H22.4C21.0745 0 20 1.07452 20 2.4V30.6C20 31.9255 21.0745 33 22.4 33H28.6C29.9255 33 31 31.9255 31 30.6V13.1781C31 11.6352 30.6202 10.116 29.8941 8.7546L29.0824 7.23254C28.897 6.88494 28.8 6.49706 28.8 6.10313V2.4C28.8 1.07452 27.7255 0 26.4 0Z" fill="#77B7FC" stroke="white" stroke-width="1.6"/>
<path d="M17.6 0H14.4C13.0745 0 12 1.07452 12 2.4V30.6C12 31.9255 13.0745 33 14.4 33H19.6C20.9255 33 22 31.9255 22 30.6V12.9867C22 11.5662 21.678 10.164 21.0583 8.88577L20.2404 7.19905C20.0822 6.87268 20 6.51469 20 6.15199V2.4C20 1.07452 18.9255 0 17.6 0Z" fill="#77B7FC" stroke="white" stroke-width="1.6"/>
<path fill-rule="evenodd" clip-rule="evenodd" d="M5.00117 0H4.68117C3.35569 0 2.28117 1.07452 2.28117 2.4V6.08862C2.28117 6.46593 2.19221 6.83794 2.0215 7.17443L1.21822 8.75784C0.549614 10.0758 0.201172 11.5328 0.201172 13.0106V30.4004C0.201172 31.7258 1.27569 32.8004 2.60117 32.8004H5.00117H8.20117H10.6012C11.9267 32.8004 13.0012 31.7258 13.0012 30.4004V13.0106C13.0012 11.5328 12.6527 10.0758 11.9841 8.75784L11.1808 7.17443C11.0101 6.83794 10.9212 6.46593 10.9212 6.08862V2.4C10.9212 1.07452 9.84665 0 8.52117 0H8.20117H5.00117Z" fill="#77B7FC"/>
<path d="M2.0215 7.17443L1.30806 6.81249L1.30806 6.81249L2.0215 7.17443ZM1.21822 8.75784L0.504774 8.39591L1.21822 8.75784ZM11.9841 8.75784L12.6976 8.39591L11.9841 8.75784ZM11.1808 7.17443L11.8943 6.81249V6.81249L11.1808 7.17443ZM4.68117 0.8H5.00117V-0.8H4.68117V0.8ZM3.08117 2.4C3.08117 1.51634 3.79752 0.8 4.68117 0.8V-0.8C2.91386 -0.8 1.48117 0.632688 1.48117 2.4H3.08117ZM3.08117 6.08862V2.4H1.48117V6.08862H3.08117ZM2.73494 7.53637C2.96255 7.08771 3.08117 6.59171 3.08117 6.08862H1.48117C1.48117 6.34016 1.42186 6.58816 1.30806 6.81249L2.73494 7.53637ZM1.93166 9.11978L2.73494 7.53637L1.30806 6.81249L0.504774 8.39591L1.93166 9.11978ZM1.00117 13.0106C1.00117 11.6586 1.31996 10.3256 1.93166 9.11978L0.504774 8.39591C-0.220731 9.826 -0.598828 11.407 -0.598828 13.0106H1.00117ZM1.00117 30.4004V13.0106H-0.598828V30.4004H1.00117ZM2.60117 32.0004C1.71752 32.0004 1.00117 31.284 1.00117 30.4004H-0.598828C-0.598828 32.1677 0.83386 33.6004 2.60117 33.6004V32.0004ZM5.00117 32.0004H2.60117V33.6004H5.00117V32.0004ZM5.00117 33.6004H8.20117V32.0004H5.00117V33.6004ZM8.20117 33.6004H10.6012V32.0004H8.20117V33.6004ZM10.6012 33.6004C12.3685 33.6004 13.8012 32.1677 13.8012 30.4004H12.2012C12.2012 31.284 11.4848 32.0004 10.6012 32.0004V33.6004ZM13.8012 30.4004V13.0106H12.2012V30.4004H13.8012ZM13.8012 13.0106C13.8012 11.407 13.4231 9.826 12.6976 8.39591L11.2707 9.11978C11.8824 10.3256 12.2012 11.6586 12.2012 13.0106H13.8012ZM12.6976 8.39591L11.8943 6.81249L10.4674 7.53637L11.2707 9.11978L12.6976 8.39591ZM11.8943 6.81249C11.7805 6.58816 11.7212 6.34016 11.7212 6.08862H10.1212C10.1212 6.59171 10.2398 7.08771 10.4674 7.53637L11.8943 6.81249ZM11.7212 6.08862V2.4H10.1212V6.08862H11.7212ZM11.7212 2.4C11.7212 0.632688 10.2885 -0.8 8.52117 -0.8V0.8C9.40483 0.8 10.1212 1.51634 10.1212 2.4H11.7212ZM8.52117 -0.8H8.20117V0.8H8.52117V-0.8ZM8.20117 -0.8H5.00117V0.8H8.20117V-0.8Z" fill="white"/>
<path d="M0.599609 18.126H30.9996" stroke="white" stroke-width="1.6"/>
<path d="M0.599609 6.9043H30.9996" stroke="white" stroke-width="1.6"/>
<path d="M0.599609 22.4419H30.9996" stroke="white" stroke-width="1.6"/>
<path d="M0.599609 26.7578H30.9996" stroke="white" stroke-width="1.6"/>
</g>
</g>
<defs>
<clipPath id="clip0_3751_35524">
<rect width="32" height="32" fill="white"/>
</clipPath>
<clipPath id="clip1_3751_35524">
<rect width="32" height="32" fill="white"/>
</clipPath>
</defs>
</svg>
