<svg width="80" height="80" viewBox="0 0 80 80" fill="none" xmlns="http://www.w3.org/2000/svg">
<circle cx="37" cy="39" r="12" fill="#E8F6B1"/>
<path d="M21.25 43.75V58.75" stroke="#2E88FF" stroke-width="2.5" stroke-linecap="round" stroke-linejoin="round"/>
<path d="M21.25 56.25H48.75C48.75 54.9239 48.2232 53.6521 47.2855 52.7145C46.3479 51.7768 45.0761 51.25 43.75 51.25H37.5C37.5 49.9239 36.9732 48.6521 36.0355 47.7145C35.0979 46.7768 33.8261 46.25 32.5 46.25H21.25" stroke="#2E88FF" stroke-width="2.5" stroke-linecap="round" stroke-linejoin="round"/>
<path d="M31.25 51.25H37.5" stroke="#2E88FF" stroke-width="2.5" stroke-linecap="round" stroke-linejoin="round"/>
<path d="M38.75 26.25C38.75 27.5761 39.8036 28.8479 41.6789 29.7855C43.5543 30.7232 46.0978 31.25 48.75 31.25C51.4022 31.25 53.9457 30.7232 55.8211 29.7855C57.6964 28.8479 58.75 27.5761 58.75 26.25C58.75 24.9239 57.6964 23.6521 55.8211 22.7145C53.9457 21.7768 51.4022 21.25 48.75 21.25C46.0978 21.25 43.5543 21.7768 41.6789 22.7145C39.8036 23.6521 38.75 24.9239 38.75 26.25V26.25Z" stroke="#2E88FF" stroke-width="2.5" stroke-linecap="round" stroke-linejoin="round"/>
<path d="M38.75 26.25V38.75C38.75 41.5117 43.2267 43.75 48.75 43.75C54.2733 43.75 58.75 41.5117 58.75 38.75V26.25" stroke="#2E88FF" stroke-width="2.5" stroke-linecap="round" stroke-linejoin="round"/>
<path d="M58.75 32.5C58.75 35.2617 54.2733 37.5 48.75 37.5C43.2267 37.5 38.75 35.2617 38.75 32.5" stroke="#2E88FF" stroke-width="2.5" stroke-linecap="round" stroke-linejoin="round"/>
</svg>
