<svg width="24" height="24" viewBox="0 0 24 24" fill="none" xmlns="http://www.w3.org/2000/svg">
<path d="M13.045 14.136L9.33301 14.667L9.86301 10.954L19.409 1.40804C19.831 0.986078 20.4033 0.749023 21 0.749023C21.2955 0.749023 21.5881 0.807222 21.8611 0.920296C22.134 1.03337 22.3821 1.1991 22.591 1.40804C22.7999 1.61697 22.9657 1.86501 23.0787 2.13799C23.1918 2.41098 23.25 2.70356 23.25 2.99904C23.25 3.29451 23.1918 3.5871 23.0787 3.86008C22.9657 4.13306 22.7999 4.3811 22.591 4.59004L13.045 14.136Z" stroke="#030F40" stroke-width="1.5" stroke-linecap="round" stroke-linejoin="round"/>
<path d="M18.3477 2.46924L21.5297 5.65124" stroke="#030F40" stroke-width="1.5" stroke-linecap="round" stroke-linejoin="round"/>
<path d="M18.75 14.25V21.75C18.75 22.1478 18.592 22.5294 18.3107 22.8107C18.0294 23.092 17.6478 23.25 17.25 23.25H2.25C1.85218 23.25 1.47064 23.092 1.18934 22.8107C0.908035 22.5294 0.75 22.1478 0.75 21.75V6.75C0.75 6.35218 0.908035 5.97064 1.18934 5.68934C1.47064 5.40804 1.85218 5.25 2.25 5.25H9.75" stroke="#3D466C" stroke-width="1.5" stroke-linecap="round" stroke-linejoin="round"/>
</svg>
