<svg width="32" height="32" viewBox="0 0 32 32" fill="none" xmlns="http://www.w3.org/2000/svg">
<path d="M16 8C18.2091 8 20 6.20914 20 4C20 1.79086 18.2091 0 16 0C13.7909 0 12 1.79086 12 4C12 6.20914 13.7909 8 16 8Z" fill="#59B9FF"/>
<path d="M18.9631 10.6667H13.0372C10.995 10.6667 9.3335 12.3756 9.3335 14.4762V22.8572C9.3335 23.2069 9.56461 23.5109 9.89424 23.5962L12.352 24.2286L13.0409 31.3143C13.0787 31.7029 13.3972 32 13.7779 32H18.2224C18.6031 32 18.9216 31.7029 18.9594 31.3143L19.6483 24.2286L22.1061 23.5962C22.4357 23.5109 22.6668 23.2069 22.6668 22.8572V14.4762C22.6668 12.3756 21.0053 10.6667 18.9631 10.6667Z" fill="#59B9FF"/>
</svg>
