<svg xmlns="http://www.w3.org/2000/svg" viewBox="0 0 2000 2000"><defs><style>.cls-1{fill:#fff;}.cls-2{fill:#96e296;}.cls-3{fill:#eee;}.cls-4{fill:#ff988d;}.cls-5{fill:#767c97;}</style></defs><g id="Calque_2" data-name="Calque 2"><g id="_1" data-name="1"><rect class="cls-1" width="2000" height="2000"/></g><g id="_2" data-name="2"><path class="cls-2" d="M565.18,422.17,882.85,419c-9.85-21.2-9.77-46.44-2.2-68.68C778,350.89,676,351.65,575.3,352.7a118,118,0,0,1,1.29,33C575.32,398.26,572.09,411.54,565.18,422.17Z"/><path class="cls-3" d="M1431.32,413.79c-9.8-19.71-11.67-43.24-6.34-64.79-100.65.05-201.86.18-303,.46,3.59,22.66-2.9,46.05-11.2,67.52Z"/><path class="cls-2" d="M415.39,269a124.2,124.2,0,0,0-66.89,70.41c-7.33,19.92-9.32,42.22-3,62.47,6.9,21.94,23.22,40.17,42.75,52.3,32.4,20.11,74.71,23.9,109.61,8.55s61-49.9,64.81-87.85C571.09,292,489,237.58,415.39,269Z"/><path class="cls-4" d="M962.88,269A124.2,124.2,0,0,0,896,339.44c-7.33,19.92-9.32,42.22-3,62.47,6.9,21.94,23.22,40.17,42.75,52.3,32.39,20.11,74.71,23.9,109.61,8.55s61-49.9,64.81-87.85C1118.58,292,1036.47,237.58,962.88,269Z"/><path class="cls-5" d="M1058.8,403.29a4,4,0,0,1-2.31-.74L951.22,327.9a4,4,0,1,1,4.63-6.53L1061.12,396a4,4,0,0,1-2.32,7.27Z"/><path class="cls-5" d="M958.74,418.38a4,4,0,0,1-2.83-6.83l88.2-88.21a4,4,0,1,1,5.66,5.66l-88.21,88.21A4,4,0,0,1,958.74,418.38Z"/><path class="cls-3" d="M1510.37,269a124.2,124.2,0,0,0-66.89,70.41c-7.33,19.92-9.33,42.22-3,62.47,6.89,21.94,23.21,40.17,42.75,52.3,32.39,20.11,74.71,23.9,109.6,8.55s61-49.9,64.82-87.85C1666.07,292,1584,237.58,1510.37,269Z"/><path class="cls-5" d="M452.51,400c-7.32,0-17.09-5.71-29.77-17.4A216.35,216.35,0,0,1,399.1,356.9a4,4,0,1,1,6.42-4.77,207.84,207.84,0,0,0,22.64,24.61c4.15,3.82,18.24,16.23,25.07,15.24,1.89-.28,3.74-1.78,6-3.73l69.17-60.32a4,4,0,0,1,5.26,6l-69.17,60.32c-2.41,2.1-5.7,5-10.07,5.61A12.77,12.77,0,0,1,452.51,400Z"/><path class="cls-1" d="M521.13,736.61c-110-52.68-201.74-18.16-201.74-18.16-119,153-48.81,334.17-48.81,334.17,67.47-56.87,206,5.27,206,5.27C421.89,924.18,521.13,736.61,521.13,736.61Z"/><path class="cls-5" d="M476.62,1061.89a4.05,4.05,0,0,1-1.63-.35,398.56,398.56,0,0,0-77-23.72c-38.4-7.49-91.22-10.47-124.83,17.86a4,4,0,0,1-6.31-1.62c-.73-1.87-17.83-46.65-20.51-111a366.84,366.84,0,0,1,11.33-108.89A327.4,327.4,0,0,1,316.24,716,4,4,0,0,1,318,714.7c1-.36,23.95-8.86,60.83-10.92,33.94-1.89,86.48,1.64,144.05,29.23a4,4,0,0,1,1.81,5.47c-.25.47-24.87,47.37-42.51,109.87-10.33,36.61-16.28,71.33-17.68,103.2-1.74,39.62,3.59,74.89,15.85,104.82a4,4,0,0,1-3.71,5.52Zm-128-37.25a267.26,267.26,0,0,1,51,5.36,415.19,415.19,0,0,1,69.91,20.65c-10.32-29.07-14.73-62.5-13.09-99.55,1.44-32.5,7.5-67.85,18-105.08a649.91,649.91,0,0,1,41.2-107.54C461.12,713.22,411.53,710,379.25,711.77c-31.38,1.75-52.62,8.42-57.42,10.06a319.43,319.43,0,0,0-56.38,114.22,358.82,358.82,0,0,0-11.12,106.4c2.07,50.79,13.65,90,18.17,103.56,15.41-11.38,35-18.29,58.35-20.54Q339.42,1024.65,348.65,1024.64Z"/><path class="cls-5" d="M451.59,818.11a4,4,0,0,1-1.18-.18c-37.18-11.53-106.38-27-152-.9a4,4,0,0,1-4-6.95c21.05-12,48.41-17.05,81.33-14.93,23.59,1.52,49.49,6.61,77,15.14a4,4,0,0,1-1.19,7.82Z"/><path class="cls-5" d="M436.28,975.14a3.82,3.82,0,0,1-1.19-.18c-37.18-11.52-106.37-27-152-.89a4,4,0,0,1-4-7c21.05-12,48.42-17,81.34-14.93,23.58,1.52,49.48,6.61,77,15.13a4,4,0,0,1-1.18,7.82Z"/><path class="cls-5" d="M440.1,900.37a4,4,0,0,1-1.18-.18c-37.19-11.53-106.38-27-152-.9a4,4,0,1,1-4-6.94c21-12,48.41-17.06,81.33-14.94,23.59,1.52,49.49,6.62,77,15.14a4,4,0,0,1-1.19,7.82Z"/><path class="cls-1" d="M1296,1048.62c34.78-40.14,51.3-95.54,44.18-148.19-2.34-17.34-7.11-34.37-8-51.84s2.56-36.18,14.48-49c16.6-17.84,43.87-19.31,68.23-19.56l224.69-2.35c20.83-.21,44,.45,59,14.92C1711.29,805,1714.45,824,1716,841.74a509.27,509.27,0,0,1-3.94,120.86c-1.81,11.81-1.07,26.72-10.23,34.39s-21.14,11-32.88,13.22c-41.45,7.78-84.13,3.69-126-1.51s-84-11.47-126-8S1325.27,1018.24,1296,1048.62Z"/><path class="cls-5" d="M1296,1052.62a4,4,0,0,1-3-6.62c34-39.29,50.2-93.51,43.24-145-.9-6.61-2.18-13.34-3.42-19.85-2-10.49-4.07-21.34-4.65-32.31-1.15-21.48,4.37-39.92,15.54-51.92,17.43-18.73,44.69-20.57,71.12-20.84l224.68-2.35c22.64-.23,46,.81,61.8,16,13.62,13.16,17,32.6,18.68,51.65a512.61,512.61,0,0,1-4,121.82c-.37,2.4-.63,4.94-.9,7.63-1.06,10.37-2.25,22.13-10.72,29.22-10.34,8.65-24,12.07-34.7,14.09-42.37,7.94-86.08,3.63-127.21-1.48q-6.12-.75-12.25-1.54c-37.08-4.69-75.43-9.54-112.94-6.43-72,6-106.79,34.65-118.4,46.7A4,4,0,0,1,1296,1052.62Zm348.14-270.95-4.56,0L1414.89,784c-24.69.25-50.08,1.88-65.35,18.29-13,14-14,34.87-13.4,46,.55,10.43,2.57,21,4.52,31.24,1.26,6.62,2.56,13.46,3.48,20.28,5.92,43.75-4.15,89.36-27.24,126.93a177.4,177.4,0,0,1,33.42-16,260,260,0,0,1,66.3-14.09c38.35-3.18,77.11,1.72,114.6,6.47l12.23,1.53c40.51,5,83.51,9.29,124.76,1.55,10.37-1.94,22.17-4.94,31-12.36,6-5,7-14.6,7.89-23.89.27-2.67.55-5.43.95-8A504.45,504.45,0,0,0,1712,842.08c-1.52-17.5-4.54-35.26-16.27-46.59C1683.12,783.31,1663.62,781.67,1644.14,781.67Z"/><path class="cls-5" d="M1666.07,862.43h-.18l-253.46-10.76a4,4,0,0,1,.34-8l253.46,10.77a4,4,0,0,1-.16,8Z"/><path class="cls-5" d="M1582.78,901a3.93,3.93,0,0,1-1.48-.28c-5.7-.65-45.6-1.8-70.6-1.73h0a4,4,0,0,1,0-8c11.64,0,29.08.22,45.55.67,7.66.21,14.22.44,19,.66,2.51.12,4.47.24,5.82.35,2.23.18,5,.4,5.7,3.39a4.07,4.07,0,0,1-2.19,4.54A3.88,3.88,0,0,1,1582.78,901Z"/><path class="cls-5" d="M1609.25,961H1609L1424.2,948a4,4,0,1,1,.57-8l184.76,13.06a4,4,0,0,1-.28,8Z"/><path class="cls-1" d="M1389,1637.36c-12.17,72.11,43.24,93.41,43.24,93.41,176.64,35.09,317.75-41.17,317.75-41.17-73.14-26-61.65-116-61.65-116C1585.16,1631.5,1389,1637.36,1389,1637.36Z"/><path class="cls-5" d="M1526.64,1743.93a488.12,488.12,0,0,1-95.16-9.24,4,4,0,1,1,1.55-7.84c90.51,18,171.41,5.91,223.34-7.38,40.83-10.45,70.54-23.23,83.89-29.52-26.62-12.28-44.65-35.32-52.4-67.14a154.52,154.52,0,0,1-4-42.19,324.88,324.88,0,0,1-34.43,15.3,4,4,0,1,1-2.84-7.48,301.58,301.58,0,0,0,39.85-18.31,4,4,0,0,1,5.92,4,145,145,0,0,0,3.37,47c8,32.65,26.74,54.41,55.65,64.68a4,4,0,0,1,.56,7.29c-1.46.79-36.37,19.47-93.54,34.1A535.68,535.68,0,0,1,1526.64,1743.93Z"/><path class="cls-5" d="M1670,1707a4,4,0,0,1-2.78-1.12,89.09,89.09,0,0,1-15.85-20.47,4,4,0,0,1,7-3.91,80.82,80.82,0,0,0,14.43,18.62A4,4,0,0,1,1670,1707Z"/><path class="cls-1" d="M1306.87,1649.55c-6.59,83.53,96.56,86.27,96.56,86.27,178.46,20.48,279.29-94,279.29-94-74.78-21.54-82.68-116.41-82.68-116.41C1485.22,1622.86,1306.87,1649.55,1306.87,1649.55Z"/><path class="cls-5" d="M1445.74,1742.27a376,376,0,0,1-42.6-2.45c-4-.14-54.59-2.41-82.62-33.56-13.51-15-19.44-34.19-17.64-57a4,4,0,0,1,3.4-3.64c.44-.07,45.06-6.86,103-25.42,53.39-17.08,129.37-47.92,188.14-97.78a4,4,0,0,1,6.57,2.72,177.47,177.47,0,0,0,13.08,49.09c14.53,33.78,37,55.24,66.72,63.81a4,4,0,0,1,1.89,6.49c-1,1.19-26.22,29.44-73.8,55.53a342.29,342.29,0,0,1-88.68,33.65A349.2,349.2,0,0,1,1445.74,1742.27ZM1310.66,1653c-.87,19.17,4.43,35.27,15.78,47.9,26.26,29.21,76.59,30.93,77.1,30.94l.35,0a349.59,349.59,0,0,0,117.58-6,333.91,333.91,0,0,0,86.6-32.87c35.37-19.39,58.33-40.35,67.34-49.32-28.81-10.33-51.45-33.21-65.75-66.54a189.27,189.27,0,0,1-12.65-44c-59,48-133,77.89-185.39,94.66A771.25,771.25,0,0,1,1310.66,1653Z"/><path class="cls-5" d="M1462.4,1719.64h-.1c-35.67-.85-65.94-21.45-90-61.24a4,4,0,0,1,6.85-4.14c22.53,37.3,50.56,56.6,83.31,57.39a4,4,0,0,1-.09,8Z"/><path class="cls-5" d="M1611.72,1667.12a4.09,4.09,0,0,1-1-.12c-49.47-12.29-69.5-51.78-77-74.22a4,4,0,1,1,7.58-2.55c7,20.89,25.61,57.63,71.38,69a4,4,0,0,1-1,7.88Z"/><path class="cls-5" d="M1539.66,1694.86a4,4,0,0,1-.69-.06c-39-6.76-68.88-30.49-82-65.11a4,4,0,1,1,7.48-2.83c12.08,31.9,39.74,53.79,75.88,60.06a4,4,0,0,1-.68,7.94Z"/><path class="cls-1" d="M521.13,1347.91a15,15,0,0,1,14.47-15,152.21,152.21,0,0,0,37.44-6.39c90.68-26.88,167.45-117.39,214.87-196.78,29-48.53,22.07-94.5,21.5-150.62-.44-44.08-.84-88.62,8.7-131.66,19.61-88.58,98.65-170.66,192.49-112.27,131,81.53,3,285.39,91.89,398.89,17.29,22.07,111.29,105.19,134.44,129.83,2.77,2.7,5.51,5.43,8.21,8.22,62,64,141.17,168,130.45,263-2.78,24.6-13.81,48-31.77,65.19-16.94,16.17-42.77,30.41-66.41,31.33-17,.66-33.92-3.55-50.07-9-12.13-4.11-24.36-9-37.16-9s-26.63,6.52-30.84,18.62l-.54,58.49L529.17,1361.2a15,15,0,0,1-8-13.29Z"/><path class="cls-2" d="M1037.17,684.27c12.09,13.85,17.61,33.63,13.15,51.56,29.28-11.94,66.34.07,83.07,26.92s11.18,65.44-12.44,86.48c12.45-11.09,20,56.39,19.24,61.56-3.53,22.73-13.89,46.39-38.06,53.74-18.32,5.57-39-2-52.32-15.69-21.13-21.71-23-45.54-16.57-72.71-38.63.52-68.72-5.8-77.68-47.63,4.21,10.92-102.71,33.72-97.91-6.85-8.19,69.29-96.6,53.36-100.25-10.34-1.9-33.24,26.32-77.26,64.05-67-12.47-3.39,4.09-49.57,7.57-55.83,10.53-19,28.24-33.45,49.88-37.68,28.5-5.56,59.76,8,75.22,32.56,17-18.11,46.56-22.84,68.36-10.94A53.73,53.73,0,0,1,1037.17,684.27Z"/><path class="cls-5" d="M921.56,1217.45c-49.5,0-98.35-23.26-133.25-64.15a4,4,0,0,1,6.09-5.19c37,43.34,90.26,66,142.51,60.55s101.47-38.75,131.5-89.12a4,4,0,1,1,6.87,4.1c-31.32,52.53-82.74,87.28-137.54,93A156.56,156.56,0,0,1,921.56,1217.45Z"/><path class="cls-5" d="M886.22,1028.28h-.33a4,4,0,0,1-3.66-4.32c1.11-13.51,12.9-24.85,26.29-25.29s25.87,10.12,27.84,23.53a4,4,0,0,1-7.92,1.16c-1.37-9.35-10.36-17-19.66-16.69s-17.8,8.52-18.58,17.95A4,4,0,0,1,886.22,1028.28Z"/><path class="cls-5" d="M980,1286.18a5.11,5.11,0,0,1-4.28-2.13l-36-51.1-40.8,47.66a4,4,0,0,1-4.52,1.11c-7.2-2.87-14.6-5.67-21.75-8.37-45.52-17.23-92.59-35-118.37-82.5a4,4,0,1,1,7-3.82c24.36,44.86,68,61.36,114.17,78.84,6.31,2.38,12.81,4.84,19.22,7.37l42.29-49.4a4,4,0,0,1,3.23-1.4,4,4,0,0,1,3.08,1.7l37.77,53.64c5.87-2.61,24.87-17.28,62-51.86,29.43-27.39,56-54.07,59.24-58.75a4,4,0,1,1,6.59,4.54c-4,5.79-33.25,34.86-61.38,61-57.52,53.44-64.8,53.48-67.54,53.49Z"/><path class="cls-5" d="M1159.34,1636.37a4.06,4.06,0,0,1-1.32-.22,4,4,0,0,1-2.46-5.1c5.07-14.55,21.49-21.24,34.6-21.3h.23c11.76,0,22.86,3.84,33.59,7.56l4.64,1.6c19.6,6.63,34.59,9.34,48.63,8.8,20.36-.79,45.41-12.65,63.81-30.22,17-16.2,27.81-38.48,30.55-62.74,4.7-41.63-7.9-89-37.45-140.71-27.84-48.74-65.34-91.68-91.9-119.11-2.44-2.53-5.1-5.19-8.12-8.14l-.12-.12c-9.6-10.21-31.77-30.84-55.25-52.67-34-31.64-69.18-64.35-79.43-77.44-41.52-53-36.8-124.94-32.23-194.48,5.42-82.51,10.53-160.44-58.63-203.47-33-20.52-66.79-24.47-97.79-11.43-41.43,17.42-76.24,65-88.68,121.16-9.48,42.81-9,87.52-8.6,130.76.09,8.71.33,17.22.57,25.46,1.3,45.76,2.43,85.27-22.64,127.25-29.28,49-109.06,166.52-217.17,198.57-27.06,8-53,8.79-77.09,2.29-22.12-6-42.21-17.88-59.71-35.41-50.74-50.86-71.49-141.62-49.32-215.81,1.22-4.11,2.6-8.24,3.93-12.23,3.77-11.34,7.34-22.06,8.21-33.35,1-12.72-2.63-30.36-16-38.18a4,4,0,1,1,4-6.91c16.59,9.69,21.13,30.68,20,45.7-.95,12.27-4.84,24-8.6,35.27-1.31,3.93-2.67,8-3.86,12-10.23,34.25-11.16,74-2.6,112,8.6,38.2,26.34,72.25,49.93,95.9,24.34,24.39,66.46,49.59,128.86,31.1,105.4-31.25,183.77-146.78,212.57-195,23.88-40,22.78-78.41,21.51-122.92-.23-8.27-.48-16.83-.57-25.61-.44-43.69-.89-88.87,8.79-132.57,13-58.63,49.64-108.41,93.39-126.81,33.49-14.09,69.85-9.93,105.12,12,33,20.51,52.86,50.58,60.79,91.91,7,36.45,4.25,78.35,1.59,118.87-4.47,68-9.09,138.41,30.55,189,9.86,12.59,46.37,46.55,78.58,76.51,23.53,21.89,45.76,42.57,55.57,53,3,3,5.74,5.67,8.22,8.23,54.06,55.84,143,164.69,131.55,266.28-3,26.12-14.66,50.14-33,67.63-15,14.31-42,31.39-69,32.44-19.28.74-37.66-4.54-51.5-9.23-1.57-.52-3.13-1.07-4.7-1.61-10.11-3.5-20.55-7.12-31-7.12h-.2c-10.38,0-23.29,5-27.08,15.94A4,4,0,0,1,1159.34,1636.37Z"/><path class="cls-3" d="M1263.07,1660.42c-15-8.33-34.58-8.8-51.73-8.9-39.65-.25-84.88,0-110.57.18-30.67-82.71-71.42-214.53-90.47-275.7-5.51-17.72-21.83-24.5-40.38-24.76-39.78-.53-418-4.22-453.49-2.44a28.53,28.53,0,0,0-26.28,35.36q6.84,27.54,14,55c15.12,58.18,30.77,116.34,49.29,173.55,7.11,22,13.75,45.54,24.71,66,12.55,23.42,42.87,21.18,65.24,20.9,0,0,326.94.23,442.34,1.3l194.55,1.81C1287,1686.94,1278.07,1668.75,1263.07,1660.42Zm-183-8.74,0,0Q1080,1651.7,1080.08,1651.68Z"/><path class="cls-5" d="M1280.27,1706.7h0l-194.54-1.81c-114.07-1.06-439.05-1.3-442.31-1.3l-4.5.07c-21.69.4-51.4.93-64.27-23.08-9.42-17.6-15.66-37.28-21.69-56.31-1.1-3.48-2.19-6.93-3.3-10.34-17.64-54.5-32.49-108.88-49.36-173.77-5-19.29-9.59-37.3-14-55a32.55,32.55,0,0,1,30-40.32c35.83-1.79,419.1,2,453.74,2.44,23,.32,38.71,10.1,44.15,27.57l3.14,10.08c23.17,74.47,71.39,229.43,100.83,300.28a4,4,0,0,1-7.38,3.08c-29.59-71.21-77.88-226.4-101.09-301l-3.14-10.09c-5.54-17.8-23-21.75-36.62-21.94-34.62-.46-417.55-4.23-453.23-2.45A24.55,24.55,0,0,0,494,1383.2c4.4,17.71,9,35.68,14,54.94,16.83,64.76,31.64,119,49.23,173.32,1.11,3.43,2.2,6.9,3.31,10.39,5.92,18.69,12,38,21.12,55,10.56,19.71,36.34,19.24,57.06,18.87l4.6-.08c3.32,0,328.33.24,442.43,1.3l191.72,1.78c3.32-11.24-1.56-26.54-16.35-34.75-13.6-7.56-31.33-8.29-49.82-8.4-40.82-.26-70.17.19-84.28.41l-6.89.1c-2.57,0-6.08,0-6.37-3.72a4,4,0,0,1,3.54-4.3,3.73,3.73,0,0,1,1.25,0l8.35-.11c14.13-.22,43.54-.67,84.45-.41,19.57.12,38.4.93,53.66,9.4,17.77,9.88,26.09,30.68,18.92,47.36A4,4,0,0,1,1280.27,1706.7Zm-161.84-50.77h0Z"/><path class="cls-1" d="M743.37,1514.46c1.3,17.54,11.88,34.72,28.06,42.52,13.93,6.71,31.4,6.88,44.34-1.58,29.88-19.52,18.65-66.16-10.12-80.46C775.32,1459.85,740.78,1479.63,743.37,1514.46Z"/></g></g></svg>