<svg width="80" height="81" viewBox="0 0 80 81" fill="none" xmlns="http://www.w3.org/2000/svg">
<mask id="mask0_5536_1759" style="mask-type:alpha" maskUnits="userSpaceOnUse" x="0" y="0" width="80" height="81">
<circle cx="40" cy="40.8154" r="40" fill="white"/>
</mask>
<g mask="url(#mask0_5536_1759)">
<rect x="-8.75" y="45.8154" width="97.5" height="35" fill="#BBDBFD"/>
<path d="M56.5797 27.2845L40.5356 11.2467C40.4 11.11 40.2387 11.0016 40.0609 10.9276C39.8832 10.8535 39.6925 10.8154 39.5 10.8154C39.3075 10.8154 39.1168 10.8535 38.9391 10.9276C38.7613 11.0016 38.6 11.11 38.4644 11.2467L22.4203 27.2845C22.2179 27.4895 22.0809 27.7499 22.0263 28.0327C21.9718 28.3155 22.0023 28.6082 22.114 28.8737C22.2235 29.1399 22.4093 29.3679 22.6481 29.5287C22.8869 29.6896 23.168 29.7762 23.4559 29.7776H25.2791C25.3758 29.7776 25.4686 29.816 25.5369 29.8844C25.6053 29.9528 25.6437 30.0455 25.6437 30.1421V44.3575C25.6437 44.7441 25.7974 45.115 26.0709 45.3884C26.3445 45.6618 26.7155 45.8154 27.1023 45.8154H35.489C35.5857 45.8154 35.6784 45.777 35.7468 45.7087C35.8152 45.6403 35.8536 45.5476 35.8536 45.4509V38.5255C35.8536 37.5588 36.2378 36.6317 36.9216 35.9482C37.6054 35.2646 38.5329 34.8806 39.5 34.8806C40.4671 34.8806 41.3946 35.2646 42.0784 35.9482C42.7622 36.6317 43.1464 37.5588 43.1464 38.5255V45.4509C43.1464 45.5476 43.1848 45.6403 43.2532 45.7087C43.3216 45.777 43.4143 45.8154 43.511 45.8154H51.8977C52.2845 45.8154 52.6555 45.6618 52.9291 45.3884C53.2026 45.115 53.3563 44.7441 53.3563 44.3575V30.1421C53.3563 30.0455 53.3947 29.9528 53.4631 29.8844C53.5314 29.816 53.6242 29.7776 53.7209 29.7776H55.5441C55.8321 29.7762 56.1131 29.6896 56.3519 29.5287C56.5907 29.3679 56.7765 29.1399 56.886 28.8737C56.9977 28.6082 57.0282 28.3155 56.9737 28.0327C56.9191 27.7499 56.7821 27.4895 56.5797 27.2845Z" fill="#030F40"/>
<path d="M95.5797 27.2845L79.5356 11.2467C79.4 11.11 79.2387 11.0016 79.0609 10.9276C78.8832 10.8535 78.6925 10.8154 78.5 10.8154C78.3075 10.8154 78.1168 10.8535 77.9391 10.9276C77.7613 11.0016 77.6 11.11 77.4644 11.2467L61.4203 27.2845C61.2179 27.4895 61.0809 27.7499 61.0263 28.0327C60.9718 28.3155 61.0023 28.6082 61.114 28.8737C61.2235 29.1399 61.4093 29.3679 61.6481 29.5287C61.8869 29.6896 62.168 29.7762 62.4559 29.7776H64.2791C64.3758 29.7776 64.4686 29.816 64.5369 29.8844C64.6053 29.9528 64.6437 30.0455 64.6437 30.1421V44.3575C64.6437 44.7441 64.7974 45.115 65.0709 45.3884C65.3445 45.6618 65.7155 45.8154 66.1023 45.8154H74.489C74.5857 45.8154 74.6784 45.777 74.7468 45.7087C74.8152 45.6403 74.8536 45.5476 74.8536 45.4509V38.5255C74.8536 37.5588 75.2378 36.6317 75.9216 35.9482C76.6054 35.2646 77.5329 34.8806 78.5 34.8806C79.4671 34.8806 80.3946 35.2646 81.0784 35.9482C81.7622 36.6317 82.1464 37.5588 82.1464 38.5255V45.4509C82.1464 45.5476 82.1848 45.6403 82.2532 45.7087C82.3216 45.777 82.4143 45.8154 82.511 45.8154H90.8977C91.2845 45.8154 91.6555 45.6618 91.9291 45.3884C92.2026 45.115 92.3563 44.7441 92.3563 44.3575V30.1421C92.3563 30.0455 92.3947 29.9528 92.4631 29.8844C92.5314 29.816 92.6242 29.7776 92.7209 29.7776H94.5441C94.8321 29.7762 95.1131 29.6896 95.3519 29.5287C95.5907 29.3679 95.7765 29.1399 95.886 28.8737C95.9977 28.6082 96.0282 28.3155 95.9737 28.0327C95.9191 27.7499 95.7821 27.4895 95.5797 27.2845Z" fill="#030F40"/>
<path d="M17.5797 27.2845L1.53557 11.2467C1.39998 11.11 1.23866 11.0016 1.06093 10.9276C0.883188 10.8535 0.692547 10.8154 0.5 10.8154C0.307453 10.8154 0.116814 10.8535 -0.0609264 10.9276C-0.238665 11.0016 -0.399982 11.11 -0.535574 11.2467L-16.5797 27.2845C-16.7821 27.4895 -16.9191 27.7499 -16.9737 28.0327C-17.0282 28.3155 -16.9977 28.6082 -16.886 28.8737C-16.7765 29.1399 -16.5907 29.3679 -16.3519 29.5287C-16.1131 29.6896 -15.832 29.7762 -15.5441 29.7776H-13.7209C-13.6242 29.7776 -13.5314 29.816 -13.4631 29.8844C-13.3947 29.9528 -13.3563 30.0455 -13.3563 30.1421V44.3575C-13.3563 44.7441 -13.2026 45.115 -12.9291 45.3884C-12.6555 45.6618 -12.2845 45.8154 -11.8977 45.8154H-3.51102C-3.41431 45.8154 -3.32157 45.777 -3.25318 45.7087C-3.1848 45.6403 -3.14639 45.5476 -3.14639 45.4509V38.5255C-3.14639 37.5588 -2.76221 36.6317 -2.07838 35.9482C-1.39455 35.2646 -0.467081 34.8806 0.5 34.8806C1.46708 34.8806 2.39455 35.2646 3.07838 35.9482C3.76221 36.6317 4.14639 37.5588 4.14639 38.5255V45.4509C4.14639 45.5476 4.1848 45.6403 4.25319 45.7087C4.32157 45.777 4.41432 45.8154 4.51102 45.8154H12.8977C13.2845 45.8154 13.6555 45.6618 13.9291 45.3884C14.2026 45.115 14.3563 44.7441 14.3563 44.3575V30.1421C14.3563 30.0455 14.3947 29.9528 14.4631 29.8844C14.5314 29.816 14.6242 29.7776 14.7209 29.7776H16.5441C16.8321 29.7762 17.1131 29.6896 17.3519 29.5287C17.5907 29.3679 17.7765 29.1399 17.886 28.8737C17.9977 28.6082 18.0282 28.3155 17.9737 28.0327C17.9191 27.7499 17.7821 27.4895 17.5797 27.2845Z" fill="#030F40"/>
<path d="M32.6504 49.8154V52.8154C32.6504 53.2133 32.8084 53.5948 33.0897 53.8761C33.371 54.1574 33.7526 54.3154 34.1504 54.3154H37.6504H39.6504" stroke="#030F40" stroke-linecap="round" stroke-linejoin="round"/>
<path d="M40 57.3154H43.5C43.8978 57.3154 44.2794 57.4735 44.5607 57.7548C44.842 58.0361 45 58.4176 45 58.8154V61.8154H4.5" stroke="#030F40" stroke-linecap="round" stroke-linejoin="round"/>
<path d="M37.6504 57.3154H34.1504C32.9569 57.3154 31.8123 56.8413 30.9684 55.9974C30.1245 55.1535 29.6504 54.0089 29.6504 52.8154V49.8154" stroke="#030F40" stroke-linecap="round" stroke-linejoin="round"/>
<path d="M36 54.3154H43.5C44.6935 54.3154 45.8381 54.7895 46.682 55.6334C47.5259 56.4774 48 57.622 48 58.8154V61.8154H66.5M77 61.8154H69.5" stroke="#030F40" stroke-linecap="round" stroke-linejoin="round"/>
<path d="M-4 70.2445C-4 70.2445 2.32116 68.1489 11 70.0973C18.1399 71.7002 26.8756 73.656 35 71.8154C53 67.7374 55 66.4932 63 66.4932C71 66.4932 76 71.2492 76 71.2492V85.3154L-4 86.3154V70.2445Z" fill="#70B8F9"/>
<circle cx="40" cy="40.8154" r="39.5" stroke="#3D466C"/>
</g>
<path d="M32.6504 47.8154V45.3154" stroke="#030F40" stroke-linecap="round" stroke-linejoin="round"/>
<path d="M29.6504 45.3154V47.8154" stroke="#030F40" stroke-linecap="round" stroke-linejoin="round"/>
<path d="M28.6504 47.8154H33.6504" stroke="#030F40" stroke-linecap="round" stroke-linejoin="round"/>
</svg>
