<svg width="80" height="81" viewBox="0 0 80 81" fill="none" xmlns="http://www.w3.org/2000/svg">
<mask id="mask0_5823_3014" style="mask-type:alpha" maskUnits="userSpaceOnUse" x="0" y="0" width="80" height="81">
<circle cx="40" cy="40.8154" r="40" fill="white"/>
</mask>
<g mask="url(#mask0_5823_3014)">
<rect x="-8.75" y="45.8154" width="97.5" height="35" fill="#BBDBFD"/>
<circle cx="40" cy="40.8154" r="39.5" stroke="#3D466C"/>
<path d="M57.5797 27.2845L41.5356 11.2467C41.4 11.11 41.2387 11.0016 41.0609 10.9276C40.8832 10.8535 40.6925 10.8154 40.5 10.8154C40.3075 10.8154 40.1168 10.8535 39.9391 10.9276C39.7613 11.0016 39.6 11.11 39.4644 11.2467L23.4203 27.2845C23.2179 27.4895 23.0809 27.7499 23.0263 28.0327C22.9718 28.3155 23.0023 28.6082 23.114 28.8737C23.2235 29.1399 23.4093 29.3679 23.6481 29.5287C23.8869 29.6896 24.168 29.7762 24.4559 29.7776H26.2791C26.3758 29.7776 26.4686 29.816 26.5369 29.8844C26.6053 29.9528 26.6437 30.0455 26.6437 30.1421V44.3575C26.6437 44.7441 26.7974 45.115 27.0709 45.3884C27.3445 45.6618 27.7155 45.8154 28.1023 45.8154H36.489C36.5857 45.8154 36.6784 45.777 36.7468 45.7087C36.8152 45.6403 36.8536 45.5476 36.8536 45.4509V38.5255C36.8536 37.5588 37.2378 36.6317 37.9216 35.9482C38.6054 35.2646 39.5329 34.8806 40.5 34.8806C41.4671 34.8806 42.3946 35.2646 43.0784 35.9482C43.7622 36.6317 44.1464 37.5588 44.1464 38.5255V45.4509C44.1464 45.5476 44.1848 45.6403 44.2532 45.7087C44.3216 45.777 44.4143 45.8154 44.511 45.8154H52.8977C53.2845 45.8154 53.6555 45.6618 53.9291 45.3884C54.2026 45.115 54.3563 44.7441 54.3563 44.3575V30.1421C54.3563 30.0455 54.3947 29.9528 54.4631 29.8844C54.5314 29.816 54.6242 29.7776 54.7209 29.7776H56.5441C56.832 29.7762 57.1131 29.6896 57.3519 29.5287C57.5907 29.3679 57.7765 29.1399 57.886 28.8737C57.9977 28.6082 58.0282 28.3155 57.9737 28.0327C57.9191 27.7499 57.782 27.4895 57.5797 27.2845Z" fill="#030F40"/>
</g>
<g clip-path="url(#clip0_5823_3014)">
<path d="M34 47.8154V45.3154" stroke="#030F40" stroke-linecap="round" stroke-linejoin="round"/>
<path d="M26 56.3154H25.5C25.1022 56.3154 24.7206 56.1574 24.4393 55.8761C24.158 55.5948 24 55.2133 24 54.8154C24 54.4176 24.158 54.0361 24.4393 53.7548C24.7206 53.4735 25.1022 53.3154 25.5 53.3154H29C30.0637 53.3141 31.0994 52.9742 31.957 52.345C32.8146 51.7157 33.4496 50.8297 33.77 49.8154" stroke="#030F40" stroke-linecap="round" stroke-linejoin="round"/>
<path d="M33.5 56.3154H26" stroke="#030F40" stroke-linecap="round" stroke-linejoin="round"/>
<path d="M26 59.3154H33.5" stroke="#030F40" stroke-linecap="round" stroke-linejoin="round"/>
<path d="M30.3213 49.8154C29.9569 50.1381 29.4868 50.316 29 50.3154H25.5C24.3065 50.3154 23.1619 50.7895 22.318 51.6334C21.4741 52.4774 21 53.622 21 54.8154C21 56.0089 21.4741 57.1535 22.318 57.9974C23.1619 58.8413 24.3065 59.3154 25.5 59.3154H26" stroke="#030F40" stroke-linecap="round" stroke-linejoin="round"/>
<path d="M31 45.3154V47.8154" stroke="#030F40" stroke-linecap="round" stroke-linejoin="round"/>
<path d="M33.5 60.3154V55.3154" stroke="#030F40" stroke-linecap="round" stroke-linejoin="round"/>
<path d="M30 47.8154H35" stroke="#030F40" stroke-linecap="round" stroke-linejoin="round"/>
</g>
<rect x="36" y="61.8154" width="24" height="6" fill="#59B9FF"/>
<path d="M60 58.3154V66.8154C60 67.3677 59.5523 67.8154 59 67.8154H37C36.4477 67.8154 36 67.3677 36 66.8154V54.8154C36 54.2631 36.4477 53.8154 37 53.8154H59C59.5523 53.8154 60 54.2631 60 54.8154V56.0654" stroke="#030F40" stroke-linecap="round"/>
<defs>
<clipPath id="clip0_5823_3014">
<rect width="16" height="16" fill="white" transform="matrix(1 0 0 -1 20 60.8154)"/>
</clipPath>
</defs>
</svg>
