<svg width="24" height="24" viewBox="0 0 24 24" fill="none" xmlns="http://www.w3.org/2000/svg">
<path d="M14.0699 20.75C14.0699 20.75 15.2899 23.25 17.3399 23.06C21.4999 22.68 21.2199 17.15 22.7399 15.2C21.4529 14.56 20.0326 14.2336 18.5953 14.2475C17.158 14.2614 15.7443 14.6152 14.4699 15.28C12.3199 16.49 12.1699 18.55 14.0699 20.75Z" stroke="#3D466C" stroke-width="1.5" stroke-linecap="round" stroke-linejoin="round"/>
<path d="M16.9999 18.22C16.9999 18.22 14.2999 18.55 12.3799 23.22" stroke="#3D466C" stroke-width="1.5" stroke-linecap="round" stroke-linejoin="round"/>
<path d="M6.51001 21.75H10.26" stroke="#3D466C" stroke-width="1.5" stroke-linecap="round" stroke-linejoin="round"/>
<path d="M9.51001 23.25V21.75" stroke="#3D466C" stroke-width="1.5" stroke-linecap="round" stroke-linejoin="round"/>
<path d="M7.26001 12L9.51001 14.25V18.75" stroke="#3D466C" stroke-width="1.5" stroke-linecap="round" stroke-linejoin="round"/>
<path d="M9.51001 14.25L11.76 12" stroke="#3D466C" stroke-width="1.5" stroke-linecap="round" stroke-linejoin="round"/>
<path d="M17.45 11.2501C17.6551 10.5177 17.7594 9.7607 17.76 9.0001C17.7591 7.49913 17.3488 6.02685 16.5732 4.7418C15.7976 3.45676 14.6861 2.40766 13.3585 1.70749C12.0308 1.00733 10.5373 0.682622 9.03879 0.768354C7.54028 0.854086 6.09354 1.347 4.85441 2.19402C3.61528 3.04104 2.63069 4.21006 2.00671 5.57517C1.38272 6.94029 1.14298 8.44976 1.3133 9.94103C1.48362 11.4323 2.05754 12.8489 2.97327 14.0381C3.88899 15.2274 5.1118 16.1443 6.51001 16.6901V18.7501H9.51001" stroke="#3D466C" stroke-width="1.5" stroke-linecap="round" stroke-linejoin="round"/>
</svg>
