<svg width="16" height="17" viewBox="0 0 16 17" fill="none" xmlns="http://www.w3.org/2000/svg">
<path fill-rule="evenodd" clip-rule="evenodd" d="M2.5 9.29248C2.77614 9.29248 3 9.51634 3 9.79248V14.7925H6V11.2925C6 10.8947 6.15804 10.5131 6.43934 10.2318C6.72064 9.95052 7.10218 9.79248 7.5 9.79248H8.5C8.89782 9.79248 9.27936 9.95052 9.56066 10.2318C9.84196 10.5131 10 10.8947 10 11.2925V14.7925H13V9.79248C13 9.51634 13.2239 9.29248 13.5 9.29248C13.7761 9.29248 14 9.51634 14 9.79248V15.2925C14 15.5686 13.7761 15.7925 13.5 15.7925H9.5C9.22386 15.7925 9 15.5686 9 15.2925V11.2925C9 11.1599 8.94732 11.0327 8.85355 10.9389C8.75979 10.8452 8.63261 10.7925 8.5 10.7925H7.5C7.36739 10.7925 7.24021 10.8452 7.14645 10.9389C7.05268 11.0327 7 11.1599 7 11.2925V15.2925C7 15.5686 6.77614 15.7925 6.5 15.7925H2.5C2.22386 15.7925 2 15.5686 2 15.2925V9.79248C2 9.51634 2.22386 9.29248 2.5 9.29248Z" fill="#030F40"/>
<path fill-rule="evenodd" clip-rule="evenodd" d="M8 2.20679C7.93431 2.20679 7.86927 2.21973 7.80858 2.24488C7.7479 2.27003 7.69277 2.30688 7.64633 2.35335L7.64622 2.35346L0.853553 9.14613C0.658291 9.34139 0.341709 9.34139 0.146447 9.14613C-0.0488155 8.95087 -0.0488155 8.63428 0.146447 8.43902L6.939 1.64647C7.0783 1.50708 7.2437 1.3965 7.42575 1.32106C7.6078 1.24562 7.80294 1.20679 8 1.20679C8.19706 1.20679 8.3922 1.24562 8.57425 1.32106C8.7563 1.3965 8.9217 1.50708 9.061 1.64647L15.8536 8.43902C16.0488 8.63428 16.0488 8.95087 15.8536 9.14613C15.6583 9.34139 15.3417 9.34139 15.1464 9.14613L8.35378 2.35346L8.35367 2.35335C8.30723 2.30688 8.2521 2.27003 8.19142 2.24488C8.13073 2.21973 8.06569 2.20679 8 2.20679Z" fill="#030F40"/>
</svg>
