<svg width="12" height="16" viewBox="0 0 12 16" fill="none" xmlns="http://www.w3.org/2000/svg">
<path fill-rule="evenodd" clip-rule="evenodd" d="M5.10247 3.50474C5.36813 3.68501 5.68046 3.78123 5.99997 3.78123C6.42828 3.78077 6.83891 3.60777 7.14177 3.30019C7.44462 2.99262 7.61497 2.57559 7.61543 2.14062C7.61543 1.81613 7.52068 1.49894 7.34317 1.22914C7.16567 0.959342 6.91337 0.74906 6.61818 0.624885C6.32299 0.500711 5.99818 0.468221 5.68481 0.531525C5.37144 0.594828 5.0836 0.751082 4.85767 0.980526C4.63174 1.20997 4.47789 1.5023 4.41555 1.82055C4.35322 2.1388 4.38521 2.46867 4.50748 2.76845C4.62975 3.06824 4.83681 3.32447 5.10247 3.50474ZM11.0642 3.80828L11.0771 3.80476C11.6252 3.65857 12 4.22488 12 4.74138C12 5.25788 11.5384 5.50104 11.0768 5.67682C11.0615 5.6827 11.0459 5.68778 11.0301 5.69206L8.45461 6.60641C8.12345 6.73268 7.98152 6.86393 7.95036 6.92252C7.9497 6.92404 7.94893 6.92551 7.94805 6.92691C7.91517 6.98639 7.81795 7.2401 7.93882 8.00796L8.10585 9.32632L9.04714 14.4453C9.0558 14.484 9.06301 14.5238 9.06907 14.5643C9.13772 15.0389 8.79559 15.5 8.14595 15.5C7.58054 15.5 7.33101 15.1036 7.22283 14.5643C7.22283 14.5643 6.39087 9.94799 5.987 9.94799C5.58314 9.94799 4.77541 14.5643 4.77541 14.5643C4.66723 15.1036 4.4177 15.5 3.85229 15.5C3.20438 15.5 2.86225 15.0409 2.92917 14.5678L2.93581 14.5306C2.93811 14.5159 2.94071 14.5016 2.9436 14.4875L3.8722 9.32573L4.03951 8.00738C4.07326 7.79293 4.16846 7.17857 4.04932 6.86832C4.01268 6.77164 3.93768 6.66002 3.65699 6.55075L0.910137 5.67946V5.67126C0.452905 5.49636 0 5.25261 0 4.74079C0 4.224 0.375017 3.65857 0.923119 3.80506C1.0014 3.82578 1.07845 3.85101 1.1539 3.88064C1.91201 4.09949 4.28183 4.74402 5.98758 4.74402C7.82314 4.74402 10.4286 3.99812 10.9655 3.83816C10.9943 3.82908 11.0232 3.82029 11.052 3.81209L11.0642 3.80828Z" fill="#030F40"/>
</svg>
