<svg width="24" height="24" viewBox="0 0 24 24" fill="none" xmlns="http://www.w3.org/2000/svg">
<path fill-rule="evenodd" clip-rule="evenodd" d="M16 7C16 9.20914 14.2091 11 12 11C9.79086 11 8 9.20914 8 7C8 4.79086 9.79086 3 12 3C14.2091 3 16 4.79086 16 7ZM11.9048 13.0001C11.9365 13.0001 11.9682 13 12 13C12.0318 13 12.0635 13.0001 12.0952 13.0001C14.1818 13.0022 16.1769 13.0042 17.6542 14.5377C19.1539 16.0945 19.9976 18.2052 20 20.4068C20 20.5642 19.9398 20.715 19.8326 20.8263C19.7255 20.9375 19.5801 21 19.4286 21H4.57143C4.41988 21 4.27453 20.9375 4.16737 20.8263C4.0602 20.715 4 20.5642 4 20.4068C4.00242 18.2052 4.84605 16.0945 6.34582 14.5377C7.82313 13.0042 9.81824 13.0022 11.9048 13.0001Z" fill="#030F40"/>
</svg>
