<svg width="16" height="16" viewBox="0 0 16 16" fill="none" xmlns="http://www.w3.org/2000/svg">
<path d="M8 9.33337L8.00053 8.83337L7.99947 8.83337L8 9.33337ZM7.9286 9.33344L7.92905 9.83344L7.9286 9.33344ZM8.0714 9.33344L8.07095 9.83344L8.0714 9.33344ZM12.2406 10.3585L11.9016 10.726L12.2406 10.3585ZM14 14.2713H14.5V14.2707L14 14.2713ZM13.8745 14.5509L13.5354 14.1834L13.5354 14.1834L13.8745 14.5509ZM2.12553 14.5509L2.46459 14.1834L2.46459 14.1834L2.12553 14.5509ZM2 14.2713L1.5 14.2707V14.2713H2ZM3.75936 10.3585L3.4203 9.99105L3.75936 10.3585ZM8 7.83337C9.933 7.83337 11.5 6.26637 11.5 4.33337H10.5C10.5 5.71409 9.38071 6.83337 8 6.83337V7.83337ZM4.5 4.33337C4.5 6.26637 6.067 7.83337 8 7.83337V6.83337C6.61929 6.83337 5.5 5.71409 5.5 4.33337H4.5ZM8 0.833374C6.067 0.833374 4.5 2.40038 4.5 4.33337H5.5C5.5 2.95266 6.61929 1.83337 8 1.83337V0.833374ZM11.5 4.33337C11.5 2.40038 9.933 0.833374 8 0.833374V1.83337C9.38071 1.83337 10.5 2.95266 10.5 4.33337H11.5ZM7.99947 8.83337C7.9757 8.8334 7.95194 8.83342 7.92815 8.83344L7.92905 9.83344C7.95283 9.83342 7.97667 9.8334 8.00053 9.83337L7.99947 8.83337ZM8.07185 8.83344C8.04806 8.83342 8.0243 8.8334 8.00053 8.83337L7.99947 9.83337C8.02333 9.8334 8.04717 9.83342 8.07095 9.83344L8.07185 8.83344ZM12.5797 9.99105C11.3034 8.81343 9.59009 8.83481 8.07185 8.83344L8.07095 9.83344C9.68254 9.8349 10.9619 9.85898 11.9016 10.726L12.5797 9.99105ZM14.5 14.2707C14.498 12.657 13.802 11.1188 12.5797 9.99105L11.9016 10.726C12.9289 11.6739 13.4984 12.9501 13.5 14.2719L14.5 14.2707ZM14.2135 14.9184C14.3915 14.7541 14.5 14.5223 14.5 14.2713H13.5C13.5 14.23 13.5181 14.1993 13.5354 14.1834L14.2135 14.9184ZM13.5714 15.1667C13.8053 15.1667 14.0369 15.0814 14.2135 14.9184L13.5354 14.1834C13.5437 14.1758 13.5514 14.1717 13.5569 14.1696C13.5625 14.1674 13.5673 14.1667 13.5714 14.1667V15.1667ZM2.42857 15.1667H13.5714V14.1667H2.42857V15.1667ZM1.78646 14.9184C1.96312 15.0814 2.1947 15.1667 2.42857 15.1667V14.1667C2.43265 14.1667 2.43749 14.1674 2.44306 14.1696C2.44864 14.1717 2.4563 14.1758 2.46459 14.1834L1.78646 14.9184ZM1.5 14.2713C1.5 14.5223 1.60845 14.7541 1.78647 14.9184L2.46459 14.1834C2.48185 14.1993 2.5 14.23 2.5 14.2713H1.5ZM3.4203 9.99105C2.19799 11.1188 1.502 12.657 1.5 14.2707L2.5 14.2719C2.50163 12.9501 3.07109 11.6739 4.09842 10.726L3.4203 9.99105ZM7.92815 8.83344C6.40991 8.83481 4.6966 8.81343 3.4203 9.99105L4.09842 10.726C5.03809 9.85898 6.31746 9.8349 7.92905 9.83344L7.92815 8.83344Z" fill="#030F40"/>
</svg>
