<svg width="40" height="40" viewBox="0 0 40 40" fill="none" xmlns="http://www.w3.org/2000/svg">
<g clip-path="url(#clip0_21651_287)">
<path d="M6.25 38.75L2.91667 34.7833C1.84486 33.4571 1.257 31.8052 1.25 30.1V21.4833C1.25 20.8203 1.51339 20.1844 1.98223 19.7156C2.45107 19.2467 3.08696 18.9833 3.75 18.9833V18.9833C4.41304 18.9833 5.04893 19.2467 5.51777 19.7156C5.98661 20.1844 6.25 20.8203 6.25 21.4833V27.9333" stroke="#3D466C" stroke-width="2.5" stroke-linecap="round" stroke-linejoin="round"/>
<path d="M13.75 38.75V33.75C13.7532 32.2658 13.3121 30.8146 12.4833 29.5833L10.5833 26.6667C10.4222 26.3892 10.2051 26.1482 9.94598 25.959C9.68682 25.7698 9.39117 25.6365 9.07779 25.5676C8.76441 25.4987 8.44013 25.4956 8.12549 25.5585C7.81085 25.6215 7.51272 25.7491 7.25 25.9333V25.9333C6.7788 26.2501 6.43929 26.7279 6.29508 27.2771C6.15088 27.8263 6.21189 28.4092 6.46667 28.9167L8.71667 32.6667" stroke="#3D466C" stroke-width="2.5" stroke-linecap="round" stroke-linejoin="round"/>
<path d="M33.75 38.75L37.0833 34.7833C38.1551 33.4571 38.743 31.8052 38.75 30.1V21.4833C38.75 20.8203 38.4866 20.1844 38.0178 19.7156C37.5489 19.2467 36.913 18.9833 36.25 18.9833C35.587 18.9833 34.9511 19.2467 34.4822 19.7156C34.0134 20.1844 33.75 20.8203 33.75 21.4833V27.9333" stroke="#3D466C" stroke-width="2.5" stroke-linecap="round" stroke-linejoin="round"/>
<path d="M26.25 38.75V33.75C26.2468 32.2658 26.6879 30.8146 27.5167 29.5833L29.4167 26.6667C29.5778 26.3892 29.7949 26.1482 30.054 25.959C30.3132 25.7698 30.6088 25.6365 30.9222 25.5676C31.2356 25.4987 31.5599 25.4956 31.8745 25.5585C32.1892 25.6215 32.4873 25.7491 32.75 25.9333V25.9333C33.2212 26.2501 33.5607 26.7279 33.7049 27.2771C33.8491 27.8263 33.7881 28.4092 33.5333 28.9167L31.2833 32.6667" stroke="#3D466C" stroke-width="2.5" stroke-linecap="round" stroke-linejoin="round"/>
<path d="M27.4333 15C27.4333 16.9714 26.6502 18.8621 25.2562 20.2562C23.8621 21.6502 21.9714 22.4333 20 22.4333C18.0286 22.4333 16.1379 21.6502 14.7438 20.2562C13.3498 18.8621 12.5667 16.9714 12.5667 15C12.5667 8.68333 18.9333 1.25 20 1.25C21.0667 1.25 27.4333 8.68333 27.4333 15Z" stroke="#3D466C" stroke-width="2.5" stroke-linecap="round" stroke-linejoin="round"/>
<path d="M20 17.5C19.337 17.5 18.7011 17.2366 18.2322 16.7678C17.7634 16.2989 17.5 15.663 17.5 15" stroke="#3D466C" stroke-width="2.5" stroke-linecap="round" stroke-linejoin="round"/>
</g>
<defs>
<clipPath id="clip0_21651_287">
<rect width="40" height="40" fill="white"/>
</clipPath>
</defs>
</svg>
