<svg width="35" height="40" viewBox="0 0 35 40" fill="none" xmlns="http://www.w3.org/2000/svg">
<path d="M33.75 36.25C33.75 36.913 33.4866 37.5489 33.0178 38.0178C32.5489 38.4866 31.913 38.75 31.25 38.75H3.75C3.08696 38.75 2.45107 38.4866 1.98223 38.0178C1.51339 37.5489 1.25 36.913 1.25 36.25V3.75C1.25 3.08696 1.51339 2.45107 1.98223 1.98223C2.45107 1.51339 3.08696 1.25 3.75 1.25H21.465C22.1276 1.25014 22.763 1.5133 23.2317 1.98167L33.0183 11.7683C33.4867 12.237 33.7499 12.8724 33.75 13.535V36.25Z" stroke="#A2C617" stroke-width="2.5" stroke-linecap="round" stroke-linejoin="round"/>
<path d="M33.75 13.75H23.75C23.087 13.75 22.4511 13.4866 21.9822 13.0178C21.5134 12.5489 21.25 11.913 21.25 11.25V1.25" stroke="#A2C617" stroke-width="2.5" stroke-linecap="round" stroke-linejoin="round"/>
<path d="M13.3099 20.8335C11.7312 20.7181 10.2546 20.0096 9.17684 18.8502C8.09908 17.6908 7.5 16.1665 7.5 14.5835C7.5 13.0005 8.09908 11.4762 9.17684 10.3168C10.2546 9.15744 11.7312 8.44887 13.3099 8.3335" stroke="#A2C617" stroke-width="2.5" stroke-linecap="round" stroke-linejoin="round"/>
<path d="M5.8335 13.3335H12.5002" stroke="#A2C617" stroke-width="2.5" stroke-linecap="round" stroke-linejoin="round"/>
<path d="M5.8335 16.6665H12.5002" stroke="#A2C617" stroke-width="2.5" stroke-linecap="round" stroke-linejoin="round"/>
<path d="M17.5 25H27.5" stroke="#A2C617" stroke-width="2.5" stroke-linecap="round" stroke-linejoin="round"/>
<path d="M8.75 32.5H27.5" stroke="#A2C617" stroke-width="2.5" stroke-linecap="round" stroke-linejoin="round"/>
</svg>
