<svg width="32" height="32" viewBox="0 0 32 32" fill="none" xmlns="http://www.w3.org/2000/svg">
<path fill-rule="evenodd" clip-rule="evenodd" d="M7.33333 3C7.33333 2.44771 7.78105 2 8.33333 2C8.88562 2 9.33333 2.44772 9.33333 3V4H22.6667V3C22.6667 2.44771 23.1144 2 23.6667 2C24.219 2 24.6667 2.44772 24.6667 3V4H26C28.2091 4 30 5.79086 30 8V9.33333H2V8C2 5.79086 3.79086 4 6 4H7.33333V3Z" fill="#9BCD41"/>
<path fill-rule="evenodd" clip-rule="evenodd" d="M2.66667 11.3335C2.29848 11.3335 2 11.632 2 12.0002V26.0002C2 28.2093 3.79086 30.0002 6 30.0002H26C28.2091 30.0002 30 28.2093 30 26.0002V12.0002C30 11.632 29.7015 11.3335 29.3333 11.3335H2.66667ZM12.9427 24.1279V25.9999H19.8707V24.1279H15.4707L18.6547 20.4319C18.8467 20.2079 19.0174 19.9999 19.1667 19.8079C19.3267 19.6052 19.4547 19.4026 19.5507 19.1999C19.6574 18.9972 19.7374 18.7892 19.7907 18.5759C19.844 18.3519 19.8707 18.1012 19.8707 17.8239C19.8707 17.3119 19.7854 16.8532 19.6147 16.4479C19.444 16.0319 19.204 15.6852 18.8947 15.4079C18.596 15.1199 18.2334 14.9012 17.8067 14.7519C17.38 14.5919 16.916 14.5119 16.4147 14.5119C15.924 14.5119 15.4654 14.5866 15.0387 14.7359C14.6227 14.8852 14.2547 15.1039 13.9347 15.3919C13.6254 15.6799 13.38 16.0319 13.1987 16.4479C13.028 16.8532 12.9427 17.3172 12.9427 17.8399H15.0227C15.0227 17.5626 15.06 17.3332 15.1347 17.1519C15.22 16.9599 15.3267 16.8106 15.4547 16.7039C15.5934 16.5866 15.7427 16.5066 15.9027 16.4639C16.0734 16.4106 16.244 16.3839 16.4147 16.3839C16.8627 16.3839 17.204 16.5172 17.4387 16.7839C17.6734 17.0399 17.7907 17.3812 17.7907 17.8079C17.7907 18.0746 17.7427 18.3092 17.6467 18.5119C17.5614 18.7146 17.412 18.9386 17.1987 19.1839L12.9427 24.1279Z" fill="#77B7FC"/>
</svg>
