<svg width="32" height="32" viewBox="0 0 32 32" fill="none" xmlns="http://www.w3.org/2000/svg">
<path d="M16.8968 1.66849C23.4948 2.17794 28.7649 7.474 29.2204 14.1641C29.3032 14.6791 28.878 15.1046 28.3701 15.1045L16.0189 15.1046L15.9714 2.57766C15.9714 2.0667 16.393 1.6335 16.8968 1.66849Z" fill="#9BCD41"/>
<path d="M13.3679 17.7929V4.51072C13.3679 3.97193 12.9058 3.53212 12.3812 3.60882C5.80369 4.55382 0.77323 10.3806 1.00789 17.3674C1.24944 24.5389 7.34634 30.4228 14.4191 30.3332C17.2002 30.2982 19.7748 29.3882 21.8839 27.8699C22.3256 27.5551 22.3525 26.9048 21.9729 26.5202L13.3679 17.7929Z" fill="#77B7FC"/>
<path d="M30.0965 17.8003L17 17.8003L25.674 26.6457C26.0121 26.9886 26.5568 27.0087 26.9019 26.6868C29.0342 24.6434 30.5046 21.8935 30.9391 18.7987C31.0628 18.2706 30.6321 17.8003 30.0965 17.8003Z" fill="#77B7FC"/>
</svg>
