<svg width="632" height="189" viewBox="0 0 632 189" fill="none" xmlns="http://www.w3.org/2000/svg">
<rect width="632" height="189" rx="8" fill="#6C757D"/>
<path d="M228.831 124.936L226.683 125.512L223.734 114.508L225.882 113.932L228.831 124.936ZM238.532 122.337L231.392 124.25L228.443 113.246L230.591 112.67L233.026 121.758L238.018 120.42L238.532 122.337ZM247.421 119.955L240.281 121.868L237.333 110.864L239.481 110.288L241.916 119.376L246.908 118.038L247.421 119.955ZM255.545 113.736C256.17 116.07 254.788 118.08 252.531 118.685C250.275 119.289 248.072 118.24 247.447 115.906L245.509 108.673L247.657 108.098L249.574 115.253C249.914 116.521 250.859 117.079 252.018 116.768C253.177 116.458 253.731 115.498 253.392 114.23L251.474 107.075L253.607 106.503L255.545 113.736ZM267.186 104.919L264.311 105.689L266.746 114.777L264.598 115.352L262.163 106.265L259.289 107.035L258.775 105.119L266.673 103.002L267.186 104.919ZM279.702 111.305L277.214 111.972L273.889 108.158L272.344 108.572L273.52 112.962L271.372 113.537L268.423 102.533L272.735 101.378C274.976 100.778 276.715 101.951 277.208 103.791C277.622 105.336 276.936 106.547 275.973 107.219L279.702 111.305ZM275.06 104.366C274.832 103.516 274.052 103.079 273.11 103.332L271.085 103.874L271.864 106.78L273.888 106.237C274.831 105.985 275.288 105.216 275.06 104.366ZM289.984 108.55L287.743 109.151L286.572 107.377L282.662 108.425L282.519 110.55L280.278 111.151L281.333 99.0743L283.017 98.6229L289.984 108.55ZM285.516 105.722L283.099 102.08L282.78 106.455L285.516 105.722ZM299.762 105.93L297.846 106.443L291.678 100.858L293.488 107.611L291.339 108.187L288.391 97.1831L290.307 96.6696L296.471 102.24L294.666 95.5018L296.814 94.9262L299.762 105.93ZM309.147 99.7877C309.362 102.198 308.085 103.799 306.045 104.346C304.778 104.685 303.739 104.517 302.783 103.978C301.392 103.174 301.045 101.942 300.482 99.8403C299.918 97.7384 299.603 96.4979 300.406 95.1066C300.964 94.1619 301.78 93.4961 303.047 93.1566C305.103 92.6058 306.994 93.358 308.013 95.5531L305.818 96.1411C305.361 95.3027 304.627 94.7872 303.561 95.0729C302.973 95.2303 302.552 95.5751 302.338 96.0133C302.061 96.5846 302.067 97.1628 302.63 99.2647C303.193 101.367 303.477 101.87 304.003 102.226C304.407 102.499 304.945 102.587 305.532 102.429C306.598 102.144 306.992 101.326 306.968 100.372L309.147 99.7877ZM319.932 100.526L317.783 101.101L316.549 96.4957L312.825 97.4937L314.059 102.099L311.911 102.675L308.962 91.671L311.11 91.0954L312.315 95.5928L316.04 94.5948L314.835 90.0974L316.983 89.5218L319.932 100.526ZM329.739 97.8978L322.49 99.84L319.542 88.8362L326.79 86.894L327.304 88.8104L322.204 90.1769L322.895 92.7579L327.238 91.5942L327.752 93.5106L323.409 94.6743L324.125 97.348L329.225 95.9814L329.739 97.8978ZM340.083 85.3861L337.209 86.1564L339.644 95.2438L337.495 95.8194L335.06 86.732L332.186 87.5022L331.672 85.5858L339.57 83.4697L340.083 85.3861ZM351.683 92.018L349.442 92.6184L348.271 90.8451L344.361 91.8928L344.218 94.0181L341.977 94.6186L343.031 82.5422L344.716 82.0908L351.683 92.018ZM347.214 89.1901L344.797 85.5476L344.479 89.923L347.214 89.1901ZM361.368 89.4228L358.88 90.0895L355.555 86.2759L354.01 86.6901L355.186 91.0792L353.038 91.6548L350.089 80.651L354.401 79.4956C356.642 78.8952 358.381 80.0691 358.874 81.9082C359.288 83.4537 358.602 84.6645 357.639 85.3366L361.368 89.4228ZM356.726 82.4838C356.498 81.6338 355.718 81.1967 354.776 81.4493L352.751 81.9918L353.53 84.8973L355.554 84.3548C356.497 84.1022 356.954 83.3338 356.726 82.4838ZM365.298 88.3697L363.15 88.9453L360.201 77.9415L362.35 77.3659L365.298 88.3697ZM372.672 76.654L367.572 78.0205L368.297 80.7251L372.64 79.5615L373.153 81.4779L368.81 82.6415L370.007 87.108L367.859 87.6836L364.91 76.6797L372.159 74.7376L372.672 76.654ZM384.554 83.2101L382.313 83.8105L381.142 82.0371L377.232 83.0848L377.09 85.2102L374.849 85.8107L375.903 73.7343L377.587 73.2829L384.554 83.2101ZM380.086 80.3821L377.669 76.7396L377.351 81.1151L380.086 80.3821ZM388.058 82.2713L385.91 82.8469L382.961 71.8431L385.109 71.2675L388.058 82.2713ZM398.949 79.3531L396.46 80.0198L393.136 76.2063L391.591 76.6204L392.767 81.0095L390.618 81.5852L387.67 70.5813L391.982 69.426C394.223 68.8255 395.962 69.9994 396.455 71.8385C396.869 73.384 396.183 74.5948 395.22 75.2669L398.949 79.3531ZM394.306 72.4141C394.079 71.5641 393.299 71.127 392.356 71.3796L390.332 71.9221L391.11 74.8276L393.135 74.2851C394.077 74.0325 394.534 73.2641 394.306 72.4141ZM407.979 76.9335L400.73 78.8756L397.782 67.8718L405.03 65.9296L405.544 67.846L400.444 69.2126L401.135 71.7936L405.478 70.6299L405.992 72.5463L401.649 73.7099L402.365 76.3836L407.465 75.0171L407.979 76.9335Z" fill="white"/>
</svg>
