<svg width="32" height="32" viewBox="0 0 32 32" fill="none" xmlns="http://www.w3.org/2000/svg">
<path d="M27.9998 28H6.13309C5.38635 28 5.01298 28 4.72777 27.8547C4.47689 27.7268 4.27291 27.5229 4.14508 27.272C3.99976 26.9868 3.99976 26.6134 3.99976 25.8667V4M26.6664 10.6667L21.4413 16.2435C21.2432 16.4549 21.1442 16.5606 21.0248 16.6152C20.9193 16.6634 20.8032 16.6833 20.6877 16.6729C20.5569 16.6611 20.4284 16.5944 20.1713 16.4609L15.8282 14.2058C15.5711 14.0723 15.4426 14.0056 15.3118 13.9938C15.1963 13.9834 15.0802 14.0033 14.9747 14.0515C14.8553 14.1061 14.7563 14.2118 14.5582 14.4231L9.33309 20" stroke="white" stroke-width="2.66671" stroke-linecap="round" stroke-linejoin="round"/>
</svg>
