<svg width="32" height="32" viewBox="0 0 32 32" fill="none" xmlns="http://www.w3.org/2000/svg">
<g clip-path="url(#clip0_5953_84573)">
<path d="M24.5468 22.4932C23.0802 24.7865 22.3335 26.4132 22.3335 27.3332C22.3335 28.2172 22.6847 29.0651 23.3098 29.6902C23.9349 30.3153 24.7828 30.6665 25.6668 30.6665C26.5509 30.6665 27.3987 30.3153 28.0239 29.6902C28.649 29.0651 29.0002 28.2172 29.0002 27.3332C29.0002 26.4132 28.2535 24.7865 26.7868 22.4932C26.666 22.3061 26.5001 22.1522 26.3045 22.0457C26.1088 21.9391 25.8896 21.8833 25.6668 21.8833C25.4441 21.8833 25.2248 21.9391 25.0292 22.0457C24.8335 22.1522 24.6677 22.3061 24.5468 22.4932Z" fill="#59B9FF"/>
<path d="M28.9998 11.9997H13.3332C13.2492 12 13.1682 11.9686 13.1064 11.9117C13.0446 11.8549 13.0066 11.7768 12.9998 11.6931C12.9685 11.2118 12.8744 10.7366 12.7198 10.2797C12.6879 10.1929 12.6381 10.1137 12.5739 10.0471C12.5096 9.98054 12.4322 9.92808 12.3465 9.89307C12.2631 9.85384 12.172 9.8335 12.0798 9.8335C11.9876 9.8335 11.8966 9.85384 11.8132 9.89307L4.9465 12.8531C4.60978 12.9995 4.24701 13.0766 3.87984 13.0797C3.85182 13.0797 3.82408 13.0852 3.7982 13.096C3.77232 13.1067 3.7488 13.1224 3.72899 13.1422C3.70918 13.162 3.69346 13.1855 3.68274 13.2114C3.67202 13.2373 3.6665 13.2651 3.6665 13.2931V30.6664C3.6665 31.02 3.80698 31.3592 4.05703 31.6092C4.30708 31.8593 4.64622 31.9997 4.99984 31.9997H11.6665C12.0201 31.9997 12.3593 31.8593 12.6093 31.6092C12.8594 31.3592 12.9998 31.02 12.9998 30.6664V22.5331C12.9996 22.4489 13.016 22.3656 13.048 22.2878C13.0801 22.21 13.1271 22.1393 13.1865 22.0797C15.3261 19.6488 18.094 17.8542 21.1865 16.8931C21.2329 16.8733 21.2828 16.863 21.3332 16.863C21.3836 16.863 21.4335 16.8733 21.4798 16.8931C21.5205 16.9248 21.5536 16.9652 21.5766 17.0113C21.5997 17.0575 21.6122 17.1082 21.6132 17.1597V17.3331C21.6132 17.6867 21.7536 18.0258 22.0037 18.2759C22.2537 18.5259 22.5929 18.6664 22.9465 18.6664H28.9465C29.3001 18.6664 29.6393 18.5259 29.8893 18.2759C30.1394 18.0258 30.2798 17.6867 30.2798 17.3331V13.3331C30.2801 12.9885 30.147 12.6572 29.9084 12.4086C29.6697 12.1601 29.3441 12.0135 28.9998 11.9997Z" fill="#A2C617"/>
<path d="M4.42693 11.6265L20.6136 4.62651C21.199 4.36654 21.6579 3.88564 21.8902 3.28868C22.1225 2.69172 22.1093 2.02713 21.8536 1.43984C21.5936 0.854411 21.1127 0.395515 20.5158 0.163227C19.9188 -0.069062 19.2542 -0.0559001 18.6669 0.199842L2.4936 7.19984C2.32427 7.2677 2.17066 7.36959 2.04228 7.4992C1.91391 7.6288 1.81349 7.78338 1.74725 7.95335C1.68101 8.12332 1.65036 8.30508 1.65718 8.48738C1.66401 8.66967 1.70817 8.84863 1.78693 9.01318L2.66693 10.9332C2.77074 11.1784 2.9456 11.3869 3.16898 11.5319C3.39235 11.6768 3.65402 11.7516 3.92027 11.7465C4.0954 11.7402 4.26757 11.6994 4.42693 11.6265Z" fill="#A2C617"/>
</g>
<defs>
<clipPath id="clip0_5953_84573">
<rect width="32" height="32" fill="white"/>
</clipPath>
</defs>
</svg>
