<?xml version="1.0" encoding="UTF-8"?>
<svg width="16px" height="7px" viewBox="0 0 16 7" version="1.1" xmlns="http://www.w3.org/2000/svg" xmlns:xlink="http://www.w3.org/1999/xlink">
    <!-- Generator: sketchtool 59.1 (101010) - https://sketch.com -->
    <title>B3CE18E4-21AE-42AC-9640-C3A3F92DE4BE</title>
    <desc>Created with sketchtool.</desc>
    <g id="Demande-Toulouse" stroke="none" stroke-width="1" fill="none" fill-rule="evenodd">
        <g id="0120030-Demande-/-Conformité-Assainissement" transform="translate(-840.000000, -404.000000)" fill="#030F40">
            <g id="Group" transform="translate(319.000000, 168.000000)">
                <g id="Button-/-Default-Copy-3" transform="translate(505.000000, 216.000000)">
                    <g id="Icon-/-Arrow-Right-(1)" transform="translate(16.000000, 16.000000)">
                        <path d="M2.64644661,4.81111342 C2.84170876,4.61585128 3.15829124,4.61585128 3.35355339,4.81111342 C3.54881554,5.00637557 3.54881554,5.32295806 3.35355339,5.5182202 L3.35355339,5.5182202 L1.707,7.16466681 L15.5,7.16466681 C15.7454599,7.16466681 15.9496084,7.34154197 15.9919443,7.57479118 L16,7.66466681 C16,7.94080919 15.7761424,8.16466681 15.5,8.16466681 L15.5,8.16466681 L1.707,8.16466681 L3.35355339,9.81111342 C3.52711974,9.98467977 3.54640489,10.2541042 3.41140884,10.4489723 L3.35355339,10.5182202 C3.15829124,10.7134823 2.84170876,10.7134823 2.64644661,10.5182202 L2.64644661,10.5182202 L0.146446609,8.0182202 C0.142358996,8.01413259 0.138356953,8.00999181 0.134440479,8.00580009 C0.122939203,7.9934855 0.111920253,7.98042105 0.101582734,7.96681073 C0.0927745354,7.95527597 0.084609348,7.94350145 0.0770070472,7.93147333 C0.0700193356,7.92034928 0.0632933417,7.90871348 0.0570343394,7.89679406 C0.049749608,7.8829425 0.0433514722,7.86920567 0.0376105602,7.85526191 C0.0324084547,7.84269188 0.0275580952,7.82940366 0.0232684231,7.81586598 C0.0184480215,7.80050152 0.0143961337,7.78514106 0.0110856816,7.76965386 C0.00382515486,7.73596748 -5.55111512e-17,7.70076385 -5.55111512e-17,7.66466681 L0.00546187104,7.73858458 C0.00238749635,7.71790415 0.0006109983,7.69706799 0.000132376874,7.67620758 L-5.55111512e-17,7.66466681 C-5.55111512e-17,7.66091673 4.12845186e-05,7.65717629 0.00012342385,7.65344592 C0.000554364655,7.63293383 0.00233820308,7.61176105 0.00546187104,7.59074904 C0.0070279077,7.57998649 0.00890403315,7.56965495 0.0110922303,7.55943916 C0.0143961337,7.54419256 0.0184480215,7.52883211 0.023241345,7.51365517 C0.0275580952,7.49992996 0.0324084547,7.48664174 0.0377922373,7.47363025 C0.0433514722,7.46012795 0.049749608,7.44639112 0.0568049675,7.43290862 C0.0632933417,7.42062014 0.0700193356,7.40898434 0.0771880058,7.39765649 C0.0964658172,7.36707324 0.119612338,7.33794769 0.146446609,7.31111342 L0.101582734,7.36252289 C0.111920253,7.34891258 0.122939203,7.33584813 0.134588748,7.32338038 L0.146446609,7.31111342 Z" id="Combined-Shape"></path>
                    </g>
                </g>
            </g>
        </g>
    </g>
</svg>