<?xml version="1.0" encoding="UTF-8" standalone="no"?>
<!DOCTYPE svg PUBLIC "-//W3C//DTD SVG 1.1//EN"
 "http://www.w3.org/Graphics/SVG/1.1/DTD/svg11.dtd">
<!-- Generated by graphviz version 2.38.0 (20140413.2041)
 -->
<!-- Title: workflow Pages: 1 -->
<svg width="697pt" height="80pt"
 viewBox="0.00 0.00 697.00 80.00" xmlns="http://www.w3.org/2000/svg" xmlns:xlink="http://www.w3.org/1999/xlink">
<g id="graph0" class="graph" transform="scale(1 1) rotate(0) translate(4 76)">
<title>workflow</title>
<polygon fill="white" stroke="none" points="-4,4 -4,-76 693,-76 693,4 -4,4"/>
<!-- place_form_town_choice -->
<g id="node1" class="node"><title>place_form_town_choice</title>
<ellipse fill="lightblue" stroke="#333333" cx="36" cy="-36" rx="36" ry="36"/>
<text text-anchor="middle" x="36" y="-33.8" font-family="Arial" font-size="9.00">form&#45;town&#45;choice</text>
</g>
<!-- place_form_sanitation -->
<g id="node2" class="node"><title>place_form_sanitation</title>
<ellipse fill="none" stroke="#333333" cx="216" cy="-36" rx="36" ry="36"/>
<text text-anchor="middle" x="216" y="-33.8" font-family="Arial" font-size="9.00">form&#45;sanitation</text>
</g>
<!-- place_form_town_choice&#45;&gt;place_form_sanitation -->
<g id="edge1" class="edge"><title>place_form_town_choice&#45;&gt;place_form_sanitation</title>
<path fill="none" stroke="#333333" d="M72.1671,-36C101.666,-36 143.804,-36 174.667,-36"/>
<polygon fill="#333333" stroke="#333333" points="174.906,-37.7501 179.906,-36 174.906,-34.2501 174.906,-37.7501"/>
<text text-anchor="middle" x="126" y="-38.8" font-family="Arial" font-size="9.00">to_an_anc</text>
</g>
<!-- place_form_sanitation&#45;&gt;place_form_town_choice -->
<g id="edge2" class="edge"><title>place_form_sanitation&#45;&gt;place_form_town_choice</title>
<path fill="none" stroke="#333333" d="M181.33,-25.7175C174.967,-24.1713 168.323,-22.8211 162,-22 130.266,-17.8794 121.734,-17.8794 90,-22 85.3563,-22.603 80.5398,-23.4913 75.7885,-24.5331"/>
<polygon fill="#333333" stroke="#333333" points="75.1463,-22.8854 70.6696,-25.7175 75.9354,-26.2953 75.1463,-22.8854"/>
<text text-anchor="middle" x="126" y="-24.8" font-family="Arial" font-size="9.00">previous_an_anc</text>
</g>
<!-- place_form_open_connection -->
<g id="node3" class="node"><title>place_form_open_connection</title>
<ellipse fill="none" stroke="#333333" cx="438" cy="-36" rx="36" ry="36"/>
<text text-anchor="middle" x="438" y="-33.8" font-family="Arial" font-size="9.00">form&#45;open&#45;connection</text>
</g>
<!-- place_form_sanitation&#45;&gt;place_form_open_connection -->
<g id="edge3" class="edge"><title>place_form_sanitation&#45;&gt;place_form_open_connection</title>
<path fill="none" stroke="#333333" d="M252.347,-36C291.717,-36 355.246,-36 396.565,-36"/>
<polygon fill="#333333" stroke="#333333" points="396.741,-37.7501 401.741,-36 396.741,-34.2501 396.741,-37.7501"/>
<text text-anchor="middle" x="327" y="-38.8" font-family="Arial" font-size="9.00">to_water_connection</text>
</g>
<!-- place_form_open_connection&#45;&gt;place_form_sanitation -->
<g id="edge4" class="edge"><title>place_form_open_connection&#45;&gt;place_form_sanitation</title>
<path fill="none" stroke="#333333" d="M403.33,-25.7175C396.967,-24.1713 390.323,-22.8211 384,-22 333.755,-15.4758 320.245,-15.4758 270,-22 265.356,-22.603 260.54,-23.4913 255.788,-24.5331"/>
<polygon fill="#333333" stroke="#333333" points="255.146,-22.8854 250.67,-25.7175 255.935,-26.2953 255.146,-22.8854"/>
<text text-anchor="middle" x="327" y="-24.8" font-family="Arial" font-size="9.00">previous_water_connection</text>
</g>
<!-- place_type_of_request -->
<g id="node4" class="node"><title>place_type_of_request</title>
<ellipse fill="none" stroke="#333333" cx="653" cy="-36" rx="36" ry="36"/>
<text text-anchor="middle" x="653" y="-33.8" font-family="Arial" font-size="9.00">type_of_request</text>
</g>
<!-- place_form_open_connection&#45;&gt;place_type_of_request -->
<g id="edge5" class="edge"><title>place_form_open_connection&#45;&gt;place_type_of_request</title>
<path fill="none" stroke="#333333" d="M474.173,-36C511.942,-36 571.863,-36 611.555,-36"/>
<polygon fill="#333333" stroke="#333333" points="611.775,-37.7501 616.775,-36 611.775,-34.2501 611.775,-37.7501"/>
<text text-anchor="middle" x="545.5" y="-38.8" font-family="Arial" font-size="9.00">to_type_of_request</text>
</g>
<!-- place_type_of_request&#45;&gt;place_form_open_connection -->
<g id="edge6" class="edge"><title>place_type_of_request&#45;&gt;place_form_open_connection</title>
<path fill="none" stroke="#333333" d="M618.33,-25.7175C611.967,-24.1713 605.323,-22.8211 599,-22 551.84,-15.8764 539.16,-15.8764 492,-22 487.356,-22.603 482.54,-23.4913 477.788,-24.5331"/>
<polygon fill="#333333" stroke="#333333" points="477.146,-22.8854 472.67,-25.7175 477.935,-26.2953 477.146,-22.8854"/>
<text text-anchor="middle" x="545.5" y="-24.8" font-family="Arial" font-size="9.00">previous_type_of_request</text>
</g>
</g>
</svg>
