<?xml version="1.0" encoding="UTF-8"?>
<svg width="48px" height="36px" viewBox="0 0 48 36" version="1.1" xmlns="http://www.w3.org/2000/svg" xmlns:xlink="http://www.w3.org/1999/xlink">
    <!-- Generator: Sketch 52.4 (67378) - http://www.bohemiancoding.com/sketch -->
    <title>iconmonstr-download-16</title>
    <desc>Created with Sketch.</desc>
    <g id="Page-1" stroke="none" stroke-width="1" fill-rule="evenodd">
        <g id="Page-/-Souscription-E-Facture-/-Desktop" transform="translate(-706.000000, -345.000000)">
            <path d="M722,365 L728,365 L728,357 L732,357 L732,365 L738,365 L730,373 L722,365 Z M730,345 C721.988,345 715.466,351.282 715.042,359.184 C709.902,360.11 706,364.596 706,370 C706,376.074 710.926,381 717,381 L743,381 C749.074,381 754,376.074 754,370 C754,364.596 750.098,360.11 744.958,359.184 C744.534,351.282 738.012,345 730,345 Z M730,349 C736.906,349 741.782,354.594 741.134,362.56 C744.626,362.468 750,364.062 750,370 C750,373.86 746.86,377 743,377 L717,377 C713.14,377 710,373.86 710,370 C710,364.406 714.958,362.334 718.866,362.56 C718.532,354.124 723.282,349 730,349 Z" id="iconmonstr-download-16"></path>
        </g>
    </g>
</svg>