<?xml version="1.0" encoding="UTF-8"?>
<svg width="24px" height="18px" viewBox="0 0 24 18" version="1.1" xmlns="http://www.w3.org/2000/svg" xmlns:xlink="http://www.w3.org/1999/xlink">
    <!-- Generator: sketchtool 59.1 (101010) - https://sketch.com -->
    <title>1A927703-CC5F-4950-AA1A-D13DE7ADD0B7</title>
    <desc>Created with sketchtool.</desc>
    <g id="Demande-Toulouse" stroke="none" stroke-width="1" fill="none" fill-rule="evenodd">
        <g id="0121032-Demande-/-Conformité-Assainissement" transform="translate(-726.000000, -512.000000)" fill="#00A4B6">
            <g id="Group" transform="translate(318.000000, 228.000000)">
                <g id="Buttons-/-03.Tertiary-/-Left-Icon-+-text-/-state-/-default-Copy" transform="translate(408.000000, 269.000000)">
                    <g id="Group" transform="translate(0.000000, 12.000000)">
                        <g id="icon-left">
                            <path d="M23.251,15 C23.6652136,15 24.001,15.3357864 24.001,15.75 L24.001,15.75 L24.001,17.25 C24.001,19.3210678 22.3220678,21 20.251,21 L20.251,21 L3.751,21 C1.67993219,21 0.001,19.3210678 0.001,17.25 L0.001,17.25 L0.001,15.75 C0.001,15.3357864 0.336786438,15 0.751,15 C1.16521356,15 1.501,15.3357864 1.501,15.75 L1.501,15.75 L1.501,17.25 C1.501,18.4926407 2.50835931,19.5 3.751,19.5 L3.751,19.5 L20.251,19.5 C21.4936407,19.5 22.501,18.4926407 22.501,17.25 L22.501,17.25 L22.501,15.75 C22.501,15.3357864 22.8367864,15 23.251,15 Z M12.001,3 C12.4152136,3 12.751,3.33578644 12.751,3.75 L12.751,3.75 L12.75,13.939 L15.9706699,10.7196699 C16.2369365,10.4534034 16.6536002,10.4291973 16.9472117,10.6470518 L17.0313301,10.7196699 C17.3242233,11.0125631 17.3242233,11.4874369 17.0313301,11.7803301 L17.0313301,11.7803301 L12.5313301,16.2803301 C12.5067302,16.3049299 12.4804294,16.3278288 12.4526193,16.3488352 C12.4421291,16.3568243 12.4316612,16.3643147 12.42105,16.3715034 C12.4046581,16.3825387 12.3875081,16.393187 12.3699158,16.403145 C12.3556244,16.4112981 12.3409909,16.4189416 12.3261715,16.4260696 C12.3085139,16.434555 12.2900942,16.4425505 12.2713089,16.4498114 C12.2604565,16.4539715 12.2500913,16.457697 12.2396647,16.4611871 C12.2182835,16.4684207 12.1958272,16.4748291 12.1729681,16.480192 C12.1607261,16.4829853 12.1490328,16.4854242 12.137298,16.4875819 C12.093688,16.4957051 12.0478456,16.5 12.001,16.5 L12.0753964,16.4963234 C12.0600981,16.4978395 12.0447622,16.4988867 12.0294119,16.499465 L12.001,16.5 C11.9910889,16.5 11.9812228,16.4998078 11.9714051,16.4994268 C11.9569095,16.4988542 11.9422409,16.4978527 11.9276064,16.4964221 C11.905716,16.4943128 11.8846302,16.4913287 11.8638449,16.4874876 C11.8529672,16.4854242 11.8412739,16.4829853 11.829633,16.4802653 C11.8061728,16.4748291 11.7837165,16.4684207 11.7617164,16.4610197 C11.7519087,16.457697 11.7415435,16.4539715 11.7312481,16.4500107 C11.7119058,16.4425505 11.6934861,16.434555 11.6754672,16.4258602 C11.6610091,16.4189416 11.6463756,16.4112981 11.6319547,16.4031392 C11.6144919,16.393187 11.5973419,16.3825387 11.5806709,16.3712371 C11.5420682,16.3451622 11.5051109,16.3147711 11.4706699,16.2803301 L11.5493807,16.3488352 C11.5215706,16.3278288 11.4952698,16.3049299 11.4706699,16.2803301 L6.97066991,11.7803301 C6.6777767,11.4874369 6.6777767,11.0125631 6.97066991,10.7196699 C7.26356313,10.4267767 7.73843687,10.4267767 8.03133009,10.7196699 L8.03133009,10.7196699 L11.25,13.939 L11.251,3.75 C11.251,3.37030423 11.5331539,3.05650904 11.8992294,3.00684662 Z" id="icon-fill-color"></path>
                        </g>
                    </g>
                </g>
            </g>
        </g>
    </g>
</svg>