<?xml version="1.0" encoding="UTF-8"?>
<svg width="48px" height="48px" viewBox="0 0 42 42" version="1.1" xmlns="http://www.w3.org/2000/svg" xmlns:xlink="http://www.w3.org/1999/xlink">
    <!-- Generator: Sketch 52.4 (67378) - http://www.bohemiancoding.com/sketch -->
    <title>Icon / Mess</title>
    <desc>Created with Sketch.</desc>
    <g id="Icon-/-Mess" stroke="none" stroke-width="1" fill="none" fill-rule="evenodd">
        <path d="M34.5918367,20.4039573 C37.2270428,21.9283417 39,24.7775308 39,28.0408163 C39,32.909939 35.0527962,36.8571429 30.1836735,36.8571429 C26.6255591,36.8571429 23.5597461,34.74935 22.1667559,31.7142857 L6.15918367,31.7142857 C4.42163265,31.7142857 3,30.2678571 3,28.5 L3.01579592,9.21428571 C3.01579592,7.44642857 4.42163265,6 6.15918367,6 L31.4326531,6 C33.1702041,6 34.5918367,7.44642857 34.5918367,9.21428571 L34.5918367,20.4039573 Z M21.3790993,28.5000062 C21.3712963,28.3479292 21.3673469,28.194834 21.3673469,28.0408163 C21.3673469,23.1716936 25.3145508,19.2244898 30.1836735,19.2244898 C30.6076559,19.2244898 31.0246483,19.2544182 31.4326531,19.3122777 L31.4326531,12.4285714 L18.7959184,20.4642857 L6.15918367,12.4285714 L6.15918367,28.5 L21.379099,28.5 Z M18.7959184,17.25 L31.4326531,9.21428571 L6.15918367,9.21428571 L18.7959184,17.25 Z M31.2484056,30.778699 C31.2713649,31.0121185 31.3077166,31.1766577 31.3574617,31.2723214 C31.4339927,31.4215569 31.5535706,31.5363516 31.716199,31.6167092 C31.8788273,31.6970667 32.0921543,31.7372449 32.3561862,31.7372449 C33.182721,31.7372449 33.9441929,31.3507692 34.640625,30.5778061 C35.4212411,29.7168324 35.8115434,28.7315107 35.8115434,27.6218112 C35.8115434,26.8450216 35.6259585,26.1256411 35.2547832,25.463648 C34.8185565,24.6945115 34.2225803,24.1157545 33.4668367,23.7273597 C32.7110932,23.3389649 31.858742,23.1447704 30.9097577,23.1447704 C29.6852617,23.1447704 28.6434992,23.4202779 27.7844388,23.971301 C26.9253784,24.5223242 26.2624386,25.3163213 25.7955995,26.3533163 C25.4129445,27.1989838 25.2216199,28.0886433 25.2216199,29.0223214 C25.2216199,29.8603358 25.3823326,30.6409403 25.7037628,31.3641582 C25.9601416,31.9343141 26.3408776,32.4384544 26.8459821,32.8765944 C27.3510867,33.3147343 27.9623689,33.6428561 28.6798469,33.8609694 C29.397325,34.0790827 30.1807993,34.1881378 31.0302934,34.1881378 C31.9524919,34.1881378 32.7407493,34.0666466 33.3950893,33.8236607 C34.0494293,33.5806748 34.6138369,33.2506398 35.0883291,32.8335459 C35.5628212,32.416452 35.8976393,32.0070173 36.0927934,31.6052296 L35.0538903,31.6052296 C34.7171539,32.0873749 34.2101437,32.4968095 33.5328444,32.8335459 C32.8555451,33.1702823 32.01563,33.338648 31.013074,33.338648 C30.0755693,33.338648 29.2213049,33.1769787 28.4502551,32.8536352 C27.6792053,32.5302918 27.0899255,32.0299779 26.682398,31.3526786 C26.2748704,30.6753793 26.0711097,29.8679894 26.0711097,28.9304847 C26.0711097,28.0350721 26.2748704,27.1961136 26.682398,26.4135842 C27.0899255,25.6310548 27.6638994,25.0302955 28.4043367,24.6112883 C29.1447741,24.1922811 29.9626868,23.9827806 30.8580995,23.9827806 C31.6425422,23.9827806 32.3590529,24.149233 33.0076531,24.4821429 C33.6562532,24.8150527 34.144131,25.2589258 34.471301,25.8137755 C34.798471,26.3686252 34.9620536,26.965558 34.9620536,27.6045918 C34.9620536,28.1517885 34.8348227,28.6827143 34.5803571,29.1973852 C34.3258916,29.7120561 33.9805507,30.1224474 33.544324,30.4285714 C33.2152407,30.661991 32.9492995,30.778699 32.7464923,30.778699 C32.6355224,30.778699 32.5408167,30.7413907 32.4623724,30.666773 C32.3839282,30.5921552 32.3447066,30.5031893 32.3447066,30.3998724 C32.3447066,30.3424742 32.402104,30.045921 32.5169005,29.5102041 L33.3434311,25.658801 L32.3160077,25.658801 L32.1208546,26.5484694 C31.9027413,26.1926003 31.6425398,25.9276157 31.3402423,25.7535077 C31.0379449,25.5793996 30.7203461,25.4923469 30.3874362,25.4923469 C29.9512096,25.4923469 29.5015967,25.6454066 29.0385842,25.9515306 C28.5755717,26.2576546 28.1881393,26.7158771 27.8762755,27.3262117 C27.5644117,27.9365464 27.4084821,28.5459153 27.4084821,29.1543367 C27.4084821,29.6479617 27.5089276,30.101401 27.7098214,30.5146684 C27.9107153,30.9279357 28.1718734,31.2340551 28.4933036,31.4330357 C28.8147337,31.6320163 29.1457253,31.7315051 29.4862883,31.7315051 C29.7962388,31.7315051 30.1052281,31.6444524 30.4132653,31.4703444 C30.7213026,31.2962364 30.9996799,31.0656902 31.2484056,30.778699 Z M28.4703444,29.2232143 C28.4703444,28.894131 28.5315683,28.5325275 28.6540179,28.1383929 C28.7764674,27.7442582 28.9390934,27.4094402 29.1419005,27.1339286 C29.3447076,26.858417 29.5542081,26.6584828 29.7704082,26.5341199 C29.9866082,26.409757 30.2171544,26.3475765 30.4620536,26.3475765 C30.8332289,26.3475765 31.1479579,26.49107 31.40625,26.7780612 C31.6645421,27.0650525 31.7936862,27.4687474 31.7936862,27.9891582 C31.7936862,28.3794662 31.7248094,28.7688118 31.5870536,29.1572066 C31.4492978,29.5456014 31.2723225,29.8660702 31.0561224,30.1186224 C30.8399224,30.3711747 30.6132027,30.5615427 30.3759566,30.6897321 C30.1387105,30.8179216 29.9129475,30.8820153 29.6986607,30.8820153 C29.3772305,30.8820153 29.0921569,30.7366086 28.8434311,30.4457908 C28.5947054,30.154973 28.4703444,29.7474516 28.4703444,29.2232143 Z" id="Combined-Shape" fill="#020D41" fill-rule="nonzero"></path>
    </g>
</svg>