<?xml version="1.0" standalone="no"?>
<!DOCTYPE svg PUBLIC "-//W3C//DTD SVG 1.1//EN" "http://www.w3.org/Graphics/SVG/1.1/DTD/svg11.dtd" >
<svg xmlns="http://www.w3.org/2000/svg">
<metadata></metadata>
<defs>
<font id="garagegothic-blackblack" horiz-adv-x="839" >
<font-face units-per-em="2048" ascent="1638" descent="-410" />
<missing-glyph horiz-adv-x="409" />
<glyph horiz-adv-x="2048" />
<glyph horiz-adv-x="2048" />
<glyph unicode="&#xd;" horiz-adv-x="681" />
<glyph unicode=" "  horiz-adv-x="409" />
<glyph unicode="&#x09;" horiz-adv-x="409" />
<glyph unicode="&#xa0;" horiz-adv-x="409" />
<glyph unicode="!" horiz-adv-x="458" d="M76 139q-8 78 41 138.5t119 52.5q92 -12 124.5 -57t26.5 -123q-4 -68 -46 -114t-105 -50q-47 -2 -78 9t-47.5 35.5t-23.5 48t-11 60.5zM76 461v934q0 27 19.5 32t127.5 5q119 0 139.5 -5.5t20.5 -33.5v-928q0 -25 -21.5 -30t-138.5 -5q-109 0 -128 4t-19 27z" />
<glyph unicode="&#x22;" horiz-adv-x="538" d="M43 1161v176q-4 88 33 95q35 6 125 6q12 0 16 -1t10 -10.5t6 -27.5q0 -74 -1 -137.5t-1 -116.5q0 -14 -9 -32.5t-29 -14.5q-35 6 -119 0q-18 -2 -24.5 13t-6.5 50zM305 1161v176q-4 94 33 95q102 0 125 6q14 4 23.5 -3t9.5 -36q0 -74 -1 -137.5t-1 -116.5 q0 -14 -9.5 -32.5t-29.5 -14.5q-35 6 -119 0q-18 -2 -24.5 13t-6.5 50z" />
<glyph unicode="#" horiz-adv-x="1128" d="M24 771q1 81 17 89q29 6 84 -1t57 9q12 8 33 115t12 119q-6 8 -29.5 9t-53 -1t-66.5 6q-16 4 -14 83t18 85q31 10 91 4t69 4q10 8 14 27.5t10 59.5t10 63q2 16 106.5 14t104.5 -20q-16 -135 -8 -144q12 -12 119 -10t121 10q6 6 10 25.5t7 59.5t7 65q2 16 105.5 14 t103.5 -20q2 -23 -3 -61t-9 -56.5t2 -28.5q12 -10 123 -6q16 0 23 -78t-7 -82q-23 -4 -62.5 -5t-66 -4t-32.5 -11q-10 -8 -28 -116.5t-11 -125.5q2 -6 20.5 -6t58 2t64.5 2q10 0 18.5 -41t8.5 -76.5t-9 -42.5q-27 -6 -70.5 -9t-76.5 -5t-37 -6q-8 -6 -14 -44t-12.5 -90 t-16.5 -79q-6 -16 -108.5 -13t-106.5 19q0 14 7 62.5t14.5 89.5t3.5 47q-4 12 -116 13t-122 -13q-4 -4 -6 -36t-8 -76t-19 -73q-6 -16 -108.5 -17t-102.5 17q-2 25 3.5 69t11.5 78t2 38q-8 10 -24.5 11t-39 -1t-57.5 6q-16 2 -15 83zM416 854q4 -10 118.5 -10t124.5 10 q10 20 23.5 132t7.5 124q-4 10 -119.5 10t-128.5 -10q-12 -12 -24 -127t-2 -129z" />
<glyph unicode="$" d="M70 336v115q0 10 22.5 12t114.5 2q170 0 170 -10v-58q0 -82 9 -108.5t42 -26.5q51 0 51 100q0 68 -26.5 125.5t-54 87t-87 81t-84.5 75.5q-96 96 -126.5 169t-30.5 218q0 98 52 172t142 113q12 6 12 31v122q0 23 144 23q164 0 164 -16v-140q0 -23 16 -30q76 -39 121 -111 t45 -164v-106q0 -8 -70 -8h-55q-172 0 -172 10v92q0 33 -15.5 52.5t-36 19.5t-35.5 -18.5t-15 -51.5q0 -102 23.5 -141t141.5 -140q53 -45 74 -63.5t65 -68.5t62.5 -93t35.5 -113.5t17 -152.5q0 -225 -194 -307q-10 -4 -10 -29v-111q0 -27 -162 -26q-143 0 -144 26v107 q0 31 -16 37q-82 31 -136 113.5t-54 189.5z" />
<glyph unicode="%" horiz-adv-x="960" d="M61 1067v197q0 76 50.5 122t128.5 46q82 0 131 -44.5t49 -123.5v-197q0 -78 -49 -123t-131 -45q-78 0 -128.5 47t-50.5 121zM63 23q-2 2 0 4l617 1378q12 27 100 27q41 0 74 -10.5t25 -28.5l-607 -1362q-12 -31 -102 -31q-98 0 -107 23zM215 1074q0 -7 2 -11t4 -7t7 -5 t12 -2q4 0 8 1t7 3t5 5t3 7t2 7t1 9v9.5v10.5v9v113v9v10v9t-1 9.5t-2 7.5t-3 7t-5 5t-7 3t-8 1q-6 0 -11.5 -2t-7.5 -5t-4 -7t-2 -11.5v-11.5v-12v-12v-113v-12v-12.5v-11.5zM541 168v197q0 76 50 121.5t128 45.5q82 0 131 -44t49 -123v-197q0 -78 -49 -123t-131 -45 q-78 0 -128 47t-50 121zM694 175q0 -7 2 -11t4 -7t7.5 -5t11.5 -2q4 0 8 1t7 3t5 5t3 7t2 7t1 9v9.5v10.5v9v113v9v10v9t-1 9.5t-2 7.5t-3 7t-5 5t-7 3t-8 1q-6 0 -11.5 -2t-7.5 -5t-4 -7t-2 -11.5v-11.5v-12v-12v-113v-12.5v-12.5v-11z" />
<glyph unicode="&#x26;" horiz-adv-x="1024" d="M66 336q0 123 33.5 204t101.5 154l10 15q0 8 -4 16q-121 229 -121 315v78q0 143 95 229.5t243 86.5q145 0 241.5 -87t96.5 -229q0 -80 -38 -153.5t-80 -118.5t-126 -123q-8 -8 -8 -12q0 -8 4 -17q33 -59 115 -194q10 -14 16 -15q8 0 10 19q4 37 4 61v78q0 8 11 10h98 t114.5 -2t22.5 -12v-115q0 -150 -78 -270q-10 -14 -10 -23q0 -12 6 -20q115 -151 142 -184q18 -23 -11 -25q-12 -2 -102 -2q-106 0 -137 25q-10 8 -37 34q-16 16 -23 17q-8 0 -34 -15q-106 -61 -197 -61q-164 0 -261 90t-97 246zM344 342q0 -39 23.5 -69.5t56.5 -30.5 q27 0 63 18q11 6 11 14q0 6 -9 19l-114 160l-10 10q-6 2 -7.5 -1t-5.5 -20q-8 -41 -8 -100zM373 1014q0 -27 22 -84q6 -16 11 -17q8 0 16 19q43 104 43 196q0 70 -41 70q-20 0 -35.5 -19.5t-15.5 -52.5v-112z" />
<glyph unicode="'" horiz-adv-x="276" d="M43 1161v176q-4 94 33 95q102 0 125 6q14 4 23 -3t9 -36q0 -74 -1 -137.5t-1 -116.5q0 -14 -9 -32.5t-29 -14.5q-35 6 -119 0q-18 -2 -24.5 13t-6.5 50z" />
<glyph unicode="(" horiz-adv-x="544" d="M59 1227q0 197 102.5 273.5t309.5 76.5q10 0 10 -121q0 -119 -10 -119q-135 0 -135 -125q0 -190 1 -490t1 -501q0 -125 135 -125q10 0 10 -119q0 -121 -10 -120q-207 0 -309.5 76.5t-102.5 273t-1 512t-1 508.5z" />
<glyph unicode=")" horiz-adv-x="544" d="M61 -23q0 119 11 119q135 0 135 125v991q0 125 -135 125q-10 0 -11 119q0 121 11 121q207 0 309 -77t102 -273v-1020q0 -197 -102 -273.5t-309 -76.5q-10 0 -11 120z" />
<glyph unicode="*" horiz-adv-x="608" d="M41 1083.5q-6 28.5 8 38.5q14 4 39 12.5t39 13.5t30.5 11t23.5 12.5t7 12.5q0 8 -17 19t-56 30.5t-56 28.5q-18 14 -14 39.5t25.5 46t40.5 8.5q102 -61 116 -51q6 2 8.5 10t1.5 22.5t-2.5 26.5t-3.5 34.5t-4 35.5q0 16 38 22t76 -2t38 -24q-2 -20 -5 -44t-4 -37.5 t-2 -26.5t2 -20.5t9 -9.5q8 -2 22.5 5.5t47 31t47 33.5t37 -16.5t29.5 -55.5t-5 -39q-133 -47 -133 -69q0 -29 129 -86q16 -12 11 -36t-27.5 -44.5t-40.5 -9.5q-68 37 -90.5 45t-32.5 -2q-16 -12 -6 -107q0 -16 -33 -23.5t-65.5 0t-30.5 23.5q10 100 -11 119q-8 2 -12 2 t-18.5 -6t-23.5 -12.5t-28.5 -16.5t-33.5 -18q-16 -8 -40 18.5t-30 55z" />
<glyph unicode="+" horiz-adv-x="559" d="M53 514q0 72 10 76q14 4 80 1t66 3q4 4 4 31.5t-2 55.5t2 48q2 8 73.5 8t75.5 -10q4 -12 2 -47t-3 -57.5t4 -32.5q4 -4 25.5 -4t53 2t43.5 2q8 0 12.5 -70t-3.5 -74q-14 -6 -75 -5t-61 -5q-4 -14 -3 -34.5l3 -61.5t2 -53q0 -8 -70.5 -12.5t-72.5 4.5q-6 14 -4 83.5 t-2 73.5q-6 6 -38 5t-62.5 -3t-51.5 2q-8 2 -8 74z" />
<glyph unicode="," horiz-adv-x="421" d="M61 125q0 82 36 139.5t98 57.5q78 0 120.5 -41t42.5 -107q0 -121 -28 -190q-100 -244 -209 -226q-16 2 -19.5 21.5t5 48.5t18.5 55.5t20.5 52t12.5 33.5q4 16 -5.5 25.5t-26.5 15.5t-22 10q-43 33 -43 105z" />
<glyph unicode="-" horiz-adv-x="559" d="M61 463q6 35 0 119q-2 18 13.5 24t50.5 6h268q94 4 94 -32q1 -102 7 -125q4 -14 -3.5 -23.5t-35.5 -9.5q-74 0 -183.5 1t-162.5 1q-14 0 -33 9t-15 30z" />
<glyph unicode="." horiz-adv-x="421" d="M61 139q-8 74 39 133.5t113 49.5q76 -6 110.5 -31t34.5 -60.5t-2 -80.5q-4 -63 -43 -107.5t-100 -48.5q-57 -4 -92 18.5t-45 52t-15 74.5z" />
<glyph unicode="/" horiz-adv-x="636" d="M61 27l236 1384q4 20 143 21q47 0 93 -9.5t42 -29.5l-237 -1362q-4 -31 -170 -31q-20 0 -35.5 1t-34 3t-29 8t-8.5 15z" />
<glyph unicode="0" d="M61 336v762q0 150 100.5 243t258.5 93q164 0 261 -90.5t97 -245.5v-762q0 -156 -97 -246t-261 -90q-158 0 -258.5 93t-100.5 243zM369 370.5q0 -8.5 1 -22.5t4 -21.5t9 -15.5t15.5 -11t21.5 -3q10 0 17 2t12.5 7t9.5 10.5t6 13.5t4 15t2 18.5v17.5v19.5v19.5v594v19.5 v19.5v17t-2 18.5t-4 15.5t-6 13t-9.5 10.5t-12.5 7.5t-17 2q-12 0 -21.5 -3.5t-15.5 -11.5t-9 -15t-4 -21.5t-1 -22.5v-25.5v-23.5v-594v-23.5v-26z" />
<glyph unicode="1" horiz-adv-x="755" d="M61 117q0 125 33 125h80q31 0 37 4q10 6 10 61v748q0 49 -8 49q-10 0 -24.5 -8.5t-34 -24.5t-23.5 -18q-2 -2 -7 -7.5t-9 -8.5t-10.5 -8t-10.5 -6l-8 -2t-6 3t-4 10q-18 121 -4 195q2 18 82 84q16 14 35.5 58t27.5 46q51 16 289 17q23 0 22 -62v-1065q0 -47 7 -55 q8 -10 34 -10h107q18 0 18 -123q0 -119 -22 -119h-582q-29 0 -29 117z" />
<glyph unicode="2" d="M61 31v12v14v303q0 106 68 185q49 59 99.5 115.5t82.5 95.5q66 80 119 155q41 55 41 103v19.5v20.5v18t-2 18.5t-4 15.5t-6 12l-9.5 9.5t-12.5 7.5t-17 2q-12 0 -21.5 -4.5t-15.5 -12.5t-9 -16t-4 -22.5t-1 -22.5v-23.5v-21.5v-33q0 -27 -162 -27q-137 0 -137 29v115 q0 152 97 244t253 92q162 0 256 -89.5t94 -246.5v-84q0 -78 -43 -166t-73.5 -126t-90.5 -104l-164 -174q-31 -31 -30 -51v-47q0 -29 10 -39t47 -10h322q30 0 30 -143q0 -154 -35 -154h-618q-39 0 -49 8q-6 4 -9.5 7t-4.5 8.5t-1 7.5z" />
<glyph unicode="3" d="M61 336v135q0 41 148 41q160 0 160 -39v-53q0 -94 22 -115q12 -8 29 -8q18 0 29.5 10t15.5 32.5t5 36t1 44.5v121q0 123 -63 123q-18 0 -29.5 -2.5t-15 -4.5t-10.5 -9l-9 -9q-10 -10 -84 63q-96 96 -86 105l240 280q20 25 4 50q-6 10 -309 10q-27 0 -27 139q0 147 27 148 h641q29 0 28 -60q0 -4 1 -52t1 -82t-4 -70.5t-12 -49.5q-70 -92 -195 -241q-14 -18 2 -21q2 0 26 -3t32 -5t27.5 -7t32.5 -14.5t26 -23.5q63 -70 63 -270v-199q0 -156 -97 -246t-261 -90q-158 0 -258.5 93t-100.5 243z" />
<glyph unicode="4" horiz-adv-x="897" d="M61 303v148q0 37 5 63q6 29 16 57q258 664 326 820q12 27 44.5 37t127.5 10q193 0 192 -27v-858q0 -25 4 -29q6 -6 47 -6q13 0 13 -160q0 -106 -13 -106q-33 0 -43 -8q-6 -6 -6 -25v-194q0 -25 -108 -25q-166 0 -166 27v161q0 39 -4 50q-6 10 -56 10h-340q-29 0 -32 8 q-6 10 -7 47zM387 545q0 -14 6 -17q6 -2 8 -6q4 -6 29 -6q51 0 64 6q6 2 6 37q2 96 3 186.5t3 186.5q0 59 -8 59q-14 0 -25 -59q-14 -61 -35.5 -143t-34.5 -130q-8 -29 -12 -53q-4 -29 -4 -33v-28z" />
<glyph unicode="5" d="M61 717v643q0 41 9 53q14 20 53 21h614q35 0 35 -125q0 -147 -31 -148h-313q-35 0 -47 -14t-12 -43v-135v-14.5v-15.5v-14.5t2 -14.5t5 -10t8 -7t13 -2q4 0 45 16.5t101 16.5q106 0 180 -84q55 -63 55 -162v-201q0 -61 -23.5 -136t-58 -124t-106.5 -100t-144 -72 q-109 -31 -222 -45t-150 2q-10 6 -11 143q0 119 9 127q14 14 34.5 18.5t66.5 7.5t91 13q78 16 139 45q68 31 68 95v100v14q0 41 -2 58.5t-12.5 33t-34.5 15.5q-45 0 -53 -39q0 -4 -11.5 -6t-28 -2h-22.5q-25 -2 -107.5 -3t-131.5 5q-6 2 -7 90z" />
<glyph unicode="6" d="M61 336v563q0 96 14.5 153.5t67.5 129.5q27 37 45.5 58.5t70.5 62t110.5 64.5t161 45.5t227.5 23.5q12 0 12 -129t-12 -131q-178 -23 -239.5 -39.5t-112.5 -67.5q-37 -37 -37 -115v-63q0 -39 8 -39q2 0 7 6t16.5 14.5t28.5 15.5t50 13t74 6q88 0 156.5 -74.5t68.5 -267.5 v-231q0 -156 -97 -245t-261 -89q-158 0 -258.5 93t-100.5 243zM369 370.5q0 -8.5 1 -22.5t4 -21.5t9 -15.5t15.5 -11t21.5 -3q10 0 17 2t12.5 7t9.5 10.5t6 13.5t4 15t2 18.5v17.5v19.5v19.5v139v19.5v19.5v17.5t-2 18.5t-4 15t-6 13.5t-9.5 10.5t-12.5 7t-17 2 q-12 0 -21.5 -3t-15.5 -11.5t-9 -15.5t-4 -21.5t-1 -22.5v-25.5v-23.5v-139v-23.5v-26z" />
<glyph unicode="7" d="M61 1305q0 129 21 129h661q23 0 29 -19q4 -10 4 -78v-104q0 -16 -6 -32.5t-16.5 -35t-38 -70t-56.5 -116.5q-61 -131 -116 -361q-59 -242 -86 -481q-2 -8 -4 -39.5t-5.5 -55.5t-7.5 -28q-18 -14 -164 -14q-98 0 -110 10q-8 8 -4 107q16 274 82 555q57 260 135 405 q10 20 8 45t-10 37q-6 8 -107 8h-184q-25 0 -25 138z" />
<glyph unicode="8" d="M61 336v244q0 90 39 129q33 37 78 51q-31 10 -76 59q-41 41 -41 129v150q0 150 100.5 243t258.5 93q164 0 261 -90.5t97 -245.5v-156q0 -94 -45 -135q-53 -43 -78 -51q23 -8 70 -47q53 -45 53 -152v-221q0 -156 -97 -246t-261 -90q-158 0 -258.5 93t-100.5 243z M369 370.5q0 -8.5 1 -22.5t4 -21.5t9 -15.5t15.5 -11t21.5 -3q10 0 17 2t12.5 7t9.5 10.5t6 13.5t4 15t2 18.5v17.5v19.5v19.5v110v19.5v19.5v17.5t-2 18.5t-4 15.5t-6 13.5t-9.5 10t-12.5 7t-17 2q-12 0 -21.5 -3t-15.5 -11t-9 -15.5t-4 -21.5t-1 -22.5v-25.5v-24v-110 v-23.5v-26zM369 911.5q0 -8.5 1 -23t4 -21.5t9 -15t15.5 -11t21.5 -3q10 0 17 2t12.5 7t9.5 10t6 13.5t4 15.5t2 18v17.5v20v19.5v53v19.5v19.5v17t-2 18.5t-4 15.5t-6 13t-9.5 10.5t-12.5 7.5t-17 2q-12 0 -21.5 -3.5t-15.5 -11.5t-9 -15t-4 -21.5t-1 -22.5v-25.5v-23.5 v-53v-23.5v-26z" />
<glyph unicode="9" d="M61 850v252q0 156 97.5 245t261.5 89q158 0 258 -93.5t100 -242.5v-563q0 -96 -14 -153.5t-68 -129.5q-27 -37 -45 -58.5t-70.5 -62.5t-110.5 -64.5t-160.5 -45t-227.5 -23.5q-12 0 -12 129t12 131q178 23 239.5 39t112.5 68q37 37 37 94v63q0 39 -8 39q-2 0 -6 -6 t-12.5 -13t-25 -15.5t-47 -14.5t-71.5 -6q-33 0 -69.5 15.5t-77.5 50t-67 107.5t-26 169zM369 820q0 -11 2 -18t4 -15.5t6 -13.5t9 -10t12.5 -7t17.5 -2q12 0 21.5 3t15.5 11t9 15.5t4 21.5t1 22.5v26v23.5v139v23.5v25.5t-1 22.5t-4 21.5t-9 15.5t-15.5 11.5t-21.5 3 q-10 0 -17.5 -2t-12.5 -7.5t-9 -10.5t-6 -13t-4 -15.5t-2 -18.5v-17v-19.5v-19.5v-139v-19.5v-20v-17.5z" />
<glyph unicode=":" horiz-adv-x="421" d="M61 139q-8 74 39 133.5t113 49.5q76 -6 110.5 -31t34.5 -60.5t-2 -80.5q-4 -63 -43 -107.5t-100 -48.5q-57 -4 -92 18.5t-45 52t-15 74.5zM61 700q-8 74 39 133.5t113 49.5q76 -6 110.5 -31t34.5 -60.5t-2 -80.5q-4 -63 -43 -107.5t-100 -48.5q-57 -4 -92 18.5t-45 52 t-15 74.5z" />
<glyph unicode=";" horiz-adv-x="421" d="M61 125q0 82 36 139.5t98 57.5q78 0 120.5 -41t42.5 -107q0 -121 -28 -190q-100 -244 -209 -226q-16 2 -19.5 21.5t5 48.5t18.5 55.5t20.5 52t12.5 33.5q4 16 -5.5 25.5t-26.5 15.5t-22 10q-43 33 -43 105zM61 700q-8 74 39 133.5t113 49.5q76 -6 110.5 -31t34.5 -60.5 t-2 -80.5q-4 -63 -43 -107.5t-100 -48.5q-57 -4 -92 18.5t-45 52t-15 74.5z" />
<glyph unicode="&#x3c;" horiz-adv-x="620" d="M55 505.5q0 20.5 182.5 247t194.5 218.5q74 -37 115 -49q43 -11 10 -50q-281 -358 -281 -364q0 -10 269 -369q31 -41 -10 -49q-20 -6 -119 -55q-12 -8 -186.5 221t-174.5 249.5z" />
<glyph unicode="=" horiz-adv-x="600" d="M46 691q-3 75 17 83q12 4 76 4q37 2 157 0t132 -2q18 0 49 -1t49 -1q8 0 12.5 -78t-3.5 -82q-12 -6 -76 -10q-47 -4 -153.5 -5t-155.5 1q-63 0 -89 10q-12 6 -15 81zM51 345q0 77 12.5 85t24.5 9t27.5 -2t23.5 -3q37 2 157 0t132 -2t39 3t42 2t17 -7q8 -23 12.5 -90.5 t-3.5 -69.5q-12 -6 -76 -10q-47 -4 -153.5 -5t-155.5 1q-45 0 -89 10q-10 2 -10 79z" />
<glyph unicode="&#x3e;" horiz-adv-x="620" d="M55 872q-31 39 11 50q41 12 114 49q12 8 194.5 -218.5t182.5 -247t-164 -249.5t-176 -221q-104 51 -115 55q-37 8 -10 49q244 362 244 368.5t-50 73t-135 173t-96 118.5z" />
<glyph unicode="?" horiz-adv-x="831" d="M70 991v115q0 152 97 244t253 92q162 0 256 -89t94 -247v-84q0 -80 -26.5 -147.5t-48 -94t-74.5 -84.5q-25 -27 -40.5 -49t-23.5 -35.5t-12 -38t-5 -33t0 -42t1 -45.5q0 -33 -160 -27h-26.5t-29 1t-26.5 2t-26.5 4t-19.5 7t-14.5 10.5t-5.5 16.5q0 20 1.5 38.5t1.5 47.5 q0 84 12 116.5t63 94.5q4 6 33 40t45.5 53.5t38 52t32.5 60t11 52.5v19.5v20.5v18.5t-2 18.5t-4 15t-6 12l-9.5 9.5t-12.5 7.5t-17 2q-12 0 -21.5 -4t-15.5 -12.5t-9 -16.5t-4 -22.5t-1 -22.5v-23.5v-21.5v-33q0 -27 -162 -26q-137 0 -137 28zM236 139q-8 74 39 133.5 t112 49.5q76 -6 110.5 -31t34.5 -60.5t-2 -80.5q-4 -63 -42.5 -107.5t-100.5 -48.5q-57 -4 -92 18.5t-45 52t-14 74.5z" />
<glyph unicode="@" horiz-adv-x="1134" d="M72 745.5q0 204.5 145 350t350 145.5q217 0 356.5 -129t139.5 -377q0 -92 -20.5 -151.5t-56.5 -83t-60.5 -29.5t-59.5 -6q-53 0 -85.5 20.5t-44 42t-13.5 21.5l-6 -8q-4 -8 -13.5 -20.5t-25.5 -26t-47 -21.5t-72 -8q-104 0 -160.5 71.5t-56.5 145.5v119q0 82 60.5 149.5 t156.5 67.5q18 0 34.5 -3t27 -6t21.5 -10.5t15.5 -11.5t12.5 -11t10 -9q14 -12 14 12q0 39 37 39q49 0 49 -10v-316q0 -57 25.5 -88t52.5 -31q47 0 73.5 36t26.5 143q0 172 -110.5 278.5t-276.5 106.5q-162 0 -276.5 -114t-114.5 -278q0 -158 115 -270.5t276 -112.5h146 q20 0 20 -47q0 -66 -14 -65h-156q-205 0 -350 145.5t-145 350zM442 682q0 -59 39 -88t80 -29t80 29t39 88v121q0 49 -29.5 85t-89 36t-89.5 -40t-30 -81v-121z" />
<glyph unicode="A" horiz-adv-x="802" d="M238 1405q4 31 155 31q143 0 150 -37l239 -1379q4 -18 -112 -20h-49h-19.5h-21h-19.5t-18 1t-15.5 2t-15.5 3t-11 4t-8.5 6t-3.5 9l-38 278q-2 14 -10.5 15t-43.5 1h-16q-43 0 -45 -16q-23 -205 -29 -283q-2 -20 -139 -20q-148 0 -148 18zM352 530q0 -12 6.5 -14t32.5 -2 h15.5h13.5t8 1t6 4t2 9q-4 70 -11 179.5t-11 166.5q0 18 -6.5 53.5t-14.5 35.5t-13 -41t-5 -58q-4 -72 -11.5 -171t-11.5 -163z" />
<glyph unicode="B" horiz-adv-x="849" d="M82 61v1311q0 45 8 53.5t53 8.5h289q164 0 261.5 -90.5t97.5 -245.5v-164q0 -51 -15.5 -89t-38 -57.5t-45 -29.5t-38 -14.5t-15.5 -6.5t16.5 -5t40 -12t47 -26.5t40 -53.5t16.5 -85v-219q0 -156 -97.5 -246t-261.5 -90h-297q-47 0 -54 7t-7 54zM389 322q0 -20 5 -22.5 t46 -2.5q31 0 41.5 17.5t10.5 66.5v82v19.5v19.5v17t-2.5 18.5t-4.5 15.5t-6 13t-9 10.5t-12 7.5t-18 2q-45 0 -49 -11q-2 -4 -2 -14v-239zM389 887q0 -18 8.5 -21.5t34.5 -3.5q51 0 51 68v84v19.5v19.5v17t-2 18.5t-4 15.5t-6 13t-9 10.5t-12.5 7.5t-17.5 2h-6 q-25 0 -31 -3.5t-6 -21.5v-225z" />
<glyph unicode="C" horiz-adv-x="792" d="M51 336v762q0 150 100.5 243t258.5 93q162 0 252 -89.5t90 -246.5v-131q0 -10 -6.5 -15.5t-41 -9.5t-108.5 -4q-117 0 -127 6q-8 4 -8 14v119q0 59 -51 60q-12 0 -21.5 -3.5t-15.5 -11.5t-9.5 -15t-4.5 -21.5t-1 -22.5v-25.5v-23.5v-594q0 -39 2 -59.5t13.5 -42 t36.5 -21.5q51 0 51 59v93q0 27 17.5 30.5t101.5 3.5h36q90 0 113 -10t23 -49v-88q0 -158 -90.5 -247t-251.5 -89q-158 0 -258.5 93t-100.5 243z" />
<glyph unicode="D" horiz-adv-x="849" d="M82 61v1311q0 45 8 53.5t53 8.5h297q164 0 261.5 -90.5t97.5 -245.5v-762q0 -156 -97.5 -246t-261.5 -90h-297q-47 0 -54 7t-7 54zM389 322q0 -20 5 -22.5t46 -2.5q10 0 17.5 2t12.5 7t9 10.5t6 13.5t4.5 15t2.5 18.5v17.5v19.5v19.5v594v19.5v19.5v17t-2.5 18.5 t-4.5 15.5t-6 13t-9 10.5t-12 7.5t-18 2q-41 0 -46 -2t-5 -23v-790z" />
<glyph unicode="E" horiz-adv-x="718" d="M82 78v1294q0 27 14 45q12 16 47 17h510q18 0 21.5 -18.5t3.5 -112.5q0 -113 -3 -134.5t-24 -21.5h-205q-39 0 -47 -10q-10 -14 -10 -39v-150q0 -43 12 -53q12 -8 45 -8h101q18 0 20 -18.5t2 -127.5v-45q0 -94 -22 -94h-92q-39 0 -52 -6q-14 -10 -14 -59v-170 q0 -66 10 -72q14 -8 62 -8h194q18 0 22.5 -19.5t4.5 -117.5q0 -109 -4 -129.5t-21 -20.5h-481q-72 0 -82 8q-12 10 -12 70z" />
<glyph unicode="F" horiz-adv-x="696" d="M82 39v1333q0 27 14 45q12 16 47 17h510q18 0 21.5 -18.5t3.5 -112.5q0 -113 -3 -134.5t-24 -21.5h-205q-39 0 -47 -10q-10 -14 -10 -39v-174q0 -43 12 -54q12 -8 45 -8h101q18 0 20 -18.5t2 -126.5v-45q0 -94 -22 -94h-92q-39 0 -52 -7q-14 -10 -14 -59v-473 q0 -29 -21.5 -34t-129.5 -5h-23q-100 0 -116.5 4t-16.5 35z" />
<glyph unicode="G" horiz-adv-x="815" d="M51 336v762q0 150 100.5 243t258.5 93q164 0 261 -90.5t97 -245.5v-131q0 -29 -172 -29q-117 0 -127 6q-8 4 -8 14v119q0 59 -51 60q-12 0 -21.5 -3.5t-15.5 -11.5t-9.5 -15t-4.5 -21.5t-1 -22.5v-25.5v-23.5v-594v-23.5v-26t1 -22.5t4.5 -21.5t9.5 -15.5t15 -11t22 -3 q51 0 51 59v185q0 14 -5 20t-9.5 7t-14.5 1q-33 0 -33 21v121q0 27 27 30.5t149 3.5q115 0 154 -12t39 -47v-649q0 -37 -20 -37h-41q-14 0 -45 53t-35 53q-6 0 -18.5 -16t-30 -36.5t-62.5 -37t-106 -16.5q-158 0 -258.5 93t-100.5 243z" />
<glyph unicode="H" horiz-adv-x="880" d="M82 31v1364q0 27 18.5 32t128.5 5q119 0 139.5 -5.5t20.5 -33.5v-475q0 -25 5 -31t24 -6h53q8 0 12 1t6.5 8t2.5 21v490q0 23 20 27t133 4q115 0 134.5 -4.5t19.5 -28.5v-1356q0 -33 -18.5 -38t-133.5 -5q-113 0 -134 6t-21 37v524q0 18 -4.5 22.5t-20.5 4.5h-64 q-16 0 -16 -29v-530q0 -25 -20.5 -30t-137.5 -5q-109 0 -128 4t-19 27z" />
<glyph unicode="I" horiz-adv-x="471" d="M82 31v1364q0 27 18.5 32t128.5 5q119 0 139.5 -5.5t20.5 -33.5v-1358q0 -25 -21.5 -30t-138.5 -5q-109 0 -128 4t-19 27z" />
<glyph unicode="J" horiz-adv-x="778" d="M41 336v84q0 45 16.5 53t122.5 8q104 0 121.5 -8t17.5 -53q0 -123 66 -123t66 123v952q0 43 20.5 52.5t110.5 9.5q115 0 131 -7.5t16 -54.5v-1036q0 -158 -91 -247t-253 -89q-156 0 -250 92t-94 244z" />
<glyph unicode="K" horiz-adv-x="927" d="M82 33v1370q0 29 151 29q156 0 156 -31v-496q4 -39 10 -41q4 2 15 39l141 502q4 16 23.5 18t132.5 2q162 -2 161 -20q-117 -330 -186 -504q-20 -57 -20 -67q0 -16 18 -74l223 -735q1 -3 1 -5q0 -6 -3 -8q-4 -4 -40 -8t-107 -4q-141 0 -154 8q-8 6 -12 21l-143 577 q-8 35 -33 -12q-6 -8 -10 -21q-16 -39 -17 -86v-450q0 -37 -153.5 -37t-153.5 33z" />
<glyph unicode="L" horiz-adv-x="724" d="M82 78v1315q0 16 5 23t37 12.5t101 5.5q113 0 138.5 -7.5t25.5 -33.5v-1026q0 -66 10 -72q14 -8 62 -8h194q18 0 22.5 -19.5t4.5 -117.5q0 -109 -4 -129.5t-21 -20.5h-481q-72 0 -82 8q-12 10 -12 70z" />
<glyph unicode="M" horiz-adv-x="1077" d="M82 31v1364q0 27 18.5 32t112.5 5q96 0 125 -7.5t35 -31.5q10 -35 35.5 -121t37.5 -131q70 -252 93 -252q18 0 88 252q12 45 37.5 132t35.5 122q6 23 33 30t115 7q100 0 123.5 -6.5t23.5 -32.5v-1358q0 -27 -16 -31t-131 -4q-109 0 -128.5 4t-19.5 27v717q0 29 -20 32 q-14 4 -16 -14q-43 -246 -62 -287q-12 -29 -37 -28h-49q-25 0 -37 26q-14 33 -59 285q-2 12 -13.5 15t-22.5 -6t-11 -23v-713q0 -25 -21.5 -30t-138.5 -5q-127 18 -131 31z" />
<glyph unicode="N" horiz-adv-x="946" d="M82 31v1364q0 29 16.5 33t122.5 4q88 0 107.5 -6.5t27.5 -32.5q80 -285 164 -533q16 -55 29 -55q16 0 16 84v506q0 27 18.5 32t129.5 5q117 0 134 -5.5t17 -33.5v-1358q0 -25 -14 -29q-18 -6 -137 -6q-82 0 -95 10q-8 6 -12 21q-35 100 -168 547q-27 90 -43 90 q-14 0 -14 -103v-530q0 -25 -21.5 -30t-138.5 -5q-106 0 -122.5 4t-16.5 27z" />
<glyph unicode="O" horiz-adv-x="819" d="M51 336v762q0 150 100.5 243t258.5 93q164 0 261 -90.5t97 -245.5v-762q0 -156 -97.5 -246t-260.5 -90q-158 0 -258.5 93t-100.5 243zM358 370.5q0 -8.5 1 -22.5t4.5 -21.5t9.5 -15.5t15 -11t22 -3q10 0 17 2t12 7t9.5 10.5t6.5 13.5t4 15t2 18.5v17.5v19.5v19.5v594 v19.5v19.5v17t-2 18.5t-4 15.5t-6.5 13t-9.5 10.5t-12 7.5t-17 2q-12 0 -21.5 -3.5t-15.5 -11.5t-9.5 -15t-4.5 -21.5t-1 -22.5v-25.5v-23.5v-594v-23.5v-26z" />
<glyph unicode="P" d="M82 61v1311q0 45 8 53.5t53 8.5h297q164 0 261.5 -90.5t97.5 -245.5v-271q0 -156 -97.5 -245.5t-261.5 -89.5q-27 0 -39 -16.5t-12 -69.5v-371q0 -35 -123 -35h-35q-119 0 -135 14q-14 10 -14 47zM389 793q0 -20 5 -22.5t46 -2.5q10 0 17.5 2t12.5 7t9 10.5t6 13.5 t4.5 15t2.5 18.5v17.5v19.5v19.5v123v19.5v19.5v17t-2.5 18.5t-4.5 15.5t-6 13t-9 10.5t-12 7.5t-18 2q-41 0 -46 -2t-5 -23v-319z" />
<glyph unicode="Q" horiz-adv-x="819" d="M51 336v762q0 150 100.5 243t258.5 93q164 0 261 -90.5t97 -245.5v-762q0 -109 -49 -186.5t-121 -108.5q-35 -16 -35 -31q0 -45 20.5 -58t98.5 -13q31 0 31 -103q0 -86 -17 -92q-4 -2 -8 -2h-74q-70 0 -122 7t-111 29.5t-92 75t-33 132.5q0 39 -41 61q-164 92 -164 289z M358 370.5q0 -8.5 1 -22.5t4.5 -21.5t9.5 -15.5t15 -11t22 -3q10 0 17 2t12 7t9.5 10.5t6.5 13.5t4 15t2 18.5v17.5v19.5v19.5v594v19.5v19.5v17t-2 18.5t-4 15.5t-6.5 13t-9.5 10.5t-12 7.5t-17 2q-12 0 -21.5 -3.5t-15.5 -11.5t-9.5 -15t-4.5 -21.5t-1 -22.5v-25.5v-23.5 v-594v-23.5v-26z" />
<glyph unicode="R" horiz-adv-x="860" d="M82 61v1311q0 45 8 53.5t53 8.5h289q164 0 261.5 -90.5t97.5 -245.5v-164q0 -51 -15.5 -90t-38 -59.5t-45 -33t-38 -17.5t-15.5 -7t16.5 -4t40 -10t47 -23.5t40 -50.5t16.5 -84v-524q0 -23 -19.5 -27t-111.5 -4h-25h-18q-98 0 -115.5 5t-17.5 36v422v19.5v19.5v17 t-2.5 18.5t-4.5 15.5t-6 13t-9 10.5t-12 7.5t-18 2q-45 0 -49 -8q-2 -4 -2 -17v-516q0 -33 -26.5 -39t-139.5 -6h-10q-88 0 -109.5 8t-21.5 53zM389 887q0 -18 7 -21.5t36 -3.5q51 0 51 68v84v19.5v19.5v17t-2 18.5t-4 15.5t-6 13t-9 10.5t-12.5 7.5t-17.5 2q-39 0 -41 -11 q-2 -4 -2 -14v-225z" />
<glyph unicode="S" horiz-adv-x="798" d="M41 336v115q0 10 22.5 12t114.5 2q170 0 170 -10v-58q0 -82 9.5 -108.5t41.5 -26.5q51 0 52 100q0 68 -27 125.5t-54.5 87t-87 81t-83.5 75.5q-96 96 -127 169t-31 218q0 139 101.5 227.5t246.5 88.5q150 0 249 -86t99 -230v-106q0 -8 -69 -8h-56q-172 0 -172 10v92 q0 33 -15 52.5t-35.5 19.5t-36 -18.5t-15.5 -51.5q0 -102 23.5 -141t142.5 -140q53 -45 73.5 -63.5t64.5 -68.5t62.5 -93t36 -113.5t17.5 -152.5q0 -156 -97.5 -246t-261.5 -90q-156 0 -257 91t-101 245z" />
<glyph unicode="T" horiz-adv-x="798" d="M41 1292q0 94 5 118t24 24h661q18 0 22.5 -21.5t4.5 -109.5q0 -106 -4 -131t-21 -25h-88q-68 0 -78 -4q-14 -10 -14 -76v-1047q0 -14 -25.5 -17t-138.5 -3q-102 0 -123.5 3t-21.5 17v1047q0 66 -15 76q-10 4 -75 4h-76q-23 0 -30 25.5t-7 119.5z" />
<glyph unicode="U" d="M61 336v1057q0 31 21.5 36t144.5 5q119 0 133 -15q8 -8 9 -26v-973v-23.5v-26t1 -22.5t4 -21.5t9 -15.5t15.5 -11t21.5 -3q10 0 17 2t12.5 7t9.5 10.5t6 13.5t4 15t2 18.5v17.5v19.5v19.5v973q0 31 19.5 36t121.5 5q80 0 116 -4.5t43 -11.5t7 -25v-1057q0 -156 -97 -246 t-261 -90q-158 0 -258.5 93t-100.5 243z" />
<glyph unicode="V" horiz-adv-x="811" d="M31 1395q-1 4 -1 7q0 20 20 25q24 5 138 5q117 0 135.5 -5.5t24.5 -33.5q4 -23 13 -215.5t20.5 -367.5t20 -175t23.5 175t28.5 368.5t17.5 214.5q4 29 23.5 34t136.5 5q111 0 132 -5q18 -4 18 -24q0 -4 -1 -8q-41 -250 -131 -751t-106 -611q-4 -25 -22.5 -29t-98.5 -4 h-37q-102 0 -128 5t-28 30q-150 1059 -198 1360z" />
<glyph unicode="W" horiz-adv-x="995" d="M41 1409q-2 10 46 17.5t89 7.5q150 0 150 -23q8 -193 26.5 -485.5t24.5 -462.5q0 -20 12 -21q14 0 14 23q6 88 11.5 169t9.5 173t8 154q2 24 61 24h5q76 0 77 -24q2 -45 11.5 -215.5t19.5 -288.5q0 -20 12 -21q14 0 15 23q8 215 23.5 571t17.5 383q0 20 133 21 q135 0 143 -17q2 -2 2 -6l-114 -1388q-2 -23 -105 -23h-18q-129 0 -133 23q-14 57 -32 147t-26 125q-6 23 -14 22q-6 0 -12 -20q-6 -35 -24.5 -129t-29.5 -143q-6 -25 -159 -25q-127 0 -129 23z" />
<glyph unicode="X" horiz-adv-x="868" d="M37 1395q-2 6 -2 11q1 16 21 20q26 6 139 6q117 0 136 -5.5t23 -33.5q31 -182 56 -263q14 -41 20 -40q14 0 21 32q18 68 55 271q4 29 23.5 34t136.5 5q143 0 151 -15q4 -8 -2 -22q-45 -125 -197 -586q-4 -14 -10 -27.5t-9 -20.5t-3 -16q0 -27 12 -63l219 -649q2 -5 2 -10 q1 -16 -23 -19q-30 -4 -144 -4q-100 0 -124 6t-32 29l-55 270q-12 47 -17 47q-14 0 -18 -33q-2 -6 -2 -10q-33 -195 -60 -274q-8 -23 -31.5 -29t-123.5 -6q-143 0 -156 12q-6 6 -2 21q16 49 90 282.5t119 364.5q14 41 14 61q0 6 -18 58z" />
<glyph unicode="Y" horiz-adv-x="835" d="M41 1405q0 15 42 21q46 6 95 6q162 0 166 -33q12 -88 35.5 -247t36.5 -243q0 -18 12 -18q10 0 10 20q14 104 35 266t29 222q4 33 153 33q27 0 47.5 -1t45 -3.5t36.5 -8.5q11 -5 11 -13v-3q-111 -436 -181 -662q-6 -20 -15 -61t-13 -57q-10 -31 -11 -119v-488 q0 -16 -153.5 -16t-153.5 23q0 80 1 230t1 245q0 88 -2 100q0 2 -32 121q-16 57 -87 301q-108 372 -108 385z" />
<glyph unicode="Z" horiz-adv-x="704" d="M41 53q0 299 10 324l311 733q6 14 6 26q0 22 -20 38q-10 4 -43 4h-227q-25 0 -25 116q0 139 25 140h551q27 0 33 -8.5t6 -49.5q0 -215 -6 -231l-324 -807q-8 -27 2 -41t41 -14h258q23 0 23 -152q0 -131 -23 -131h-559q-39 0 -39 53z" />
<glyph unicode="[" horiz-adv-x="550" d="M61 -102v1634q0 18 27 28.5t82 13.5t96 4t114 0t91 -1q8 0 12 -10.5t5 -26.5t1 -31.5t-1 -33t-1 -21.5q0 -117 -16 -117h-18.5h-16.5h-14t-14.5 -1t-11.5 -3t-10 -4t-8 -6t-7 -9t-3 -12.5t-1 -15.5v-1136q0 -18 4 -31t8 -19t17.5 -9t19.5 -4t26.5 0t28.5 1q12 0 12 -104 q0 -127 -12 -127q-27 0 -92.5 -2t-111.5 -2t-98 2t-80 13t-28 30z" />
<glyph unicode="\" horiz-adv-x="636" d="M61 1393q-4 20 42.5 29.5t93.5 9.5q139 0 143 -21l235 -1384q2 -8 -8 -14.5t-28.5 -8.5t-34 -3t-35.5 -1q-166 0 -170 31z" />
<glyph unicode="]" horiz-adv-x="550" d="M59 1508.5q0 15.5 1 31.5t5.5 26.5t12.5 10.5q18 0 91 1t114 0t96 -4t81.5 -13.5t26.5 -28.5v-1634q0 -18 -27.5 -29.5t-79.5 -13.5t-98 -2t-112 2t-92 2q-12 0 -12 127q0 104 12 104q8 0 28.5 -1t26.5 0t19.5 4t17.5 9t8 18.5t4 31.5v1136q0 8 -1 15.5t-3 12.5t-7 9 t-8 6t-10.5 4t-11.5 3t-14 1h-14h-16.5h-18.5q-16 0 -17 117q0 4 -1 21.5t-1 33z" />
<glyph unicode="^" horiz-adv-x="669" d="M43 1075q57 92 147 199q14 16 51.5 65.5t60 73t36.5 23.5q8 0 19.5 -10.5t26.5 -30t28.5 -38t33 -46t31.5 -43.5q138 -190 152 -213q16 -27 -51 -66q-18 -12 -46 -22.5t-34 0.5q-141 250 -162 250q-4 0 -15.5 -14.5t-32 -43.5t-36.5 -55.5t-44 -68.5t-42 -62 q-6 -10 -34 3t-44 28q-57 51 -45 71z" />
<glyph unicode="_" horiz-adv-x="559" d="M-12 -104.5q0 30.5 10 34.5q16 4 119 4q37 2 89 0t75 -2q18 0 142 -1t142 -1q8 0 12 -32.5t-4 -34.5q-12 -6 -70.5 -6t-121 1t-70.5 1q-45 -4 -184 0q-94 0 -131 4q-8 2 -8 32.5z" />
<glyph unicode="`" d="M203 1282q10 20 43 111q6 27 67 8q215 -80 252 -90q41 -16 62.5 -33t15.5 -31q-35 -94 -37 -121q-4 -33 -47 -18l-326 121q-12 2 -26 19.5t-4 33.5z" />
<glyph unicode="a" horiz-adv-x="819" d="M41 336v311q0 176 82 256t201 80q45 0 86 -27.5t59 -60.5q12 -18 12 12v31q0 8 1 15.5t2 12.5t5.5 8t8.5 5t12 3t15 2t20.5 1t26 -1t31 -1h36.5h51q43 2 55.5 -1t12.5 -17v-947q0 -14 -11.5 -17t-56.5 -1h-51h-36.5t-31 -1t-26 -1t-20.5 1t-15 2t-12 3t-8.5 5t-5.5 8.5 t-2 12.5t-1 15q0 43 -4 43q-4 2 -10 -8q-16 -31 -56 -55.5t-85 -24.5q-119 0 -202 80t-83 256zM338 393q0 -8 1 -23.5t3 -23.5t6 -18.5t11.5 -15.5t17.5 -9t22 -4q14 0 25.5 4t19 13.5t11.5 17.5t5 25.5t1 26.5v30.5v29.5v91v29.5v30.5t-1 26.5t-5 25.5t-11.5 17.5 t-18.5 13.5t-26 4q-12 0 -22 -4t-17.5 -9t-11.5 -15.5t-6 -18.5t-3 -23.5t-1 -23.5v-26.5v-26.5v-91v-26.5v-26.5z" />
<glyph unicode="b" horiz-adv-x="819" d="M61 18v1397q0 4 1 7t5.5 5.5t8.5 4.5t11 2t15 1q4 0 8 0.5t10 -0.5q11 -1 21.5 -1h24.5h29h26.5h24.5h22.5h20.5t16 -1t14.5 -2t10.5 -3.5t6 -5.5t2 -7v-477q0 -33 4 -33q4 -2 12 13q14 25 68.5 45t81.5 20q117 0 195.5 -79t78.5 -257v-311q0 -178 -78.5 -257t-195.5 -79 q-27 0 -81 20.5t-69 45.5q-14 6 -16 -21q0 -8 -1 -15t-2 -12.5t-5 -8.5t-8.5 -5t-12.5 -3t-15 -2t-20.5 -1t-25.5 1t-30.5 1h-37.5h-51q-43 -2 -55.5 1t-12.5 17zM358 393q0 -8 1 -23.5t3.5 -23.5t6.5 -18.5t11 -15.5t17.5 -9t22.5 -4q14 0 25.5 4t18.5 13.5t11 17.5t5 25.5 t1 26.5v30.5v29.5v91v29.5v30.5t-1 26.5t-5 25.5t-11 17.5t-18.5 13.5t-25.5 4q-12 0 -22.5 -4t-17.5 -9t-11 -15.5t-6.5 -18.5t-3.5 -23.5t-1 -23.5v-26.5v-26.5v-91v-26.5v-26.5z" />
<glyph unicode="c" horiz-adv-x="788" d="M41 336v311q0 150 100.5 243t257.5 93q164 0 261.5 -90t97.5 -246q0 -25 -23.5 -29t-150.5 -4q-90 0 -106.5 4.5t-16.5 24.5q0 82 -62 82q-14 0 -25.5 -4t-18.5 -13.5t-11 -17.5t-5 -25.5t-1 -26.5v-30.5v-29.5v-172v-30v-31t1 -26.5t5 -25.5t11 -17.5t18.5 -13.5 t25.5 -4q61 0 62 82q0 18 3 23.5t34.5 11.5t103.5 6q109 0 132.5 -7t23.5 -38q0 -156 -97.5 -246t-261.5 -90q-158 0 -258 93t-100 243z" />
<glyph unicode="d" horiz-adv-x="819" d="M41 336v311q0 178 79 257t195 79q27 0 81.5 -20.5t68.5 -44.5q14 -6 16 20v477q0 4 2 7t6.5 5.5t10.5 3.5t14 2t16.5 1h20.5h22.5h24.5h27q115 0 123 -2q10 -6 10 -17v-1397q0 -14 -11.5 -17t-56.5 -1h-51h-36.5t-31 -1t-26 -1t-20.5 1t-15 2t-12 3t-8.5 5t-5.5 8.5 t-2 12.5t-1 15q0 33 -4 33q-4 2 -12 -12q-14 -25 -68.5 -45.5t-81.5 -20.5q-117 0 -195.5 79t-78.5 257zM338 393q0 -8 1 -23.5t3 -23.5t6 -18.5t11.5 -15.5t17.5 -9t22 -4q14 0 25.5 4t19 13.5t11.5 17.5t5 25.5t1 26.5v30.5v29.5v91v29.5v30.5t-1 26.5t-5 25.5t-11.5 17.5 t-18.5 13.5t-26 4q-12 0 -22 -4t-17.5 -9t-11.5 -15.5t-6 -18.5t-3 -23.5t-1 -23.5v-26.5v-26.5v-91v-26.5v-26.5z" />
<glyph unicode="e" horiz-adv-x="798" d="M41 336v311q0 150 100.5 243t257.5 93q164 0 261.5 -90t97.5 -246v-174q0 -20 -6.5 -24.5t-36.5 -4.5h-344h-6q-10 0 -15.5 -1t-8.5 -8t-3 -21v-22.5v-23v-20.5t2 -20t5 -15.5t7 -14.5t11.5 -10t15.5 -7t20 -2q61 0 62 81q0 12 98 13h35h33q131 0 131 -37 q0 -156 -97.5 -246t-261.5 -90q-158 0 -258 93t-100 243zM338 641q0 -49 9 -61.5t52 -12.5t52.5 13.5t9.5 64.5q0 98 -62 98q-31 0 -46 -22.5t-15 -79.5z" />
<glyph unicode="f" horiz-adv-x="606" d="M41 813q0 106 3 129t22 23q53 0 57 4q6 6 6 129q0 150 100.5 243t257.5 93h74q18 0 21.5 -22.5t3.5 -129.5q0 -70 -4 -101.5t-9.5 -37.5t-17.5 -6h-68q-18 0 -29.5 -9.5t-15.5 -33t-5 -35.5t-1 -45q0 -39 6 -45q4 -4 119 -4q18 0 21.5 -23t3.5 -129q0 -27 -1 -46 t-1 -32.5t-2 -20.5t-3 -11.5t-4.5 -5.5t-5.5 -1t-7 1t-7 1q-84 0 -101.5 -6t-17.5 -35v-620q0 -27 -21.5 -32t-129.5 -5h-23q-96 0 -114.5 4t-18.5 29v624q0 31 -7 36t-50 5q-4 0 -9.5 -1t-7.5 -1t-6 5.5t-5 17.5t-2 35.5t-1 58.5z" />
<glyph unicode="g" horiz-adv-x="819" d="M41 -74q0 16 16.5 20.5t63.5 2.5t78 -2q14 0 29.5 1t25.5 1t19.5 1t15.5 2t12 1t9 -1t5 -3t3 -5t1 -10q0 -47 26 -72.5t54 -25.5q82 0 82 174q0 63 -6 66q-2 2 -10 -10q-14 -27 -56 -46.5t-83 -19.5q-119 0 -202 80t-83 256v311q0 176 83 256t202 80q94 0 143 -90 q10 -18 12 10v35q0 8 1 15.5t2 12.5t5.5 8t8.5 5t12 3t15 2t20.5 1t26 -1t31 -1h36.5h51q43 2 55.5 -1t12.5 -17v-1039q0 -156 -97.5 -246t-261.5 -90q-158 0 -258 93.5t-100 242.5zM338 393q0 -8 1 -23.5t3 -23.5t6 -18.5t11.5 -15.5t17.5 -9t22 -4q14 0 25.5 4t19 13.5 t11.5 17.5t5 25.5t1 26.5v30.5v29.5v91v29.5v30.5t-1 26.5t-5 25.5t-11.5 17.5t-18.5 13.5t-26 4q-12 0 -22 -4t-17.5 -9t-11.5 -15.5t-6 -18.5t-3 -23.5t-1 -23.5v-26.5v-26.5v-91v-26.5v-26.5z" />
<glyph unicode="h" d="M61 18v1397q0 4 1 7t5.5 5.5t8.5 4.5t11 2t15 1q4 0 8 0.5t10 -0.5q11 -1 21.5 -1h24.5h29h26.5h24.5h22.5h20.5t16 -1t14.5 -2t10.5 -3.5t6 -5.5t2 -7v-477q0 -33 4 -33q4 -2 12 13q14 25 66.5 45t83.5 20q117 0 195.5 -79t78.5 -257v-624q0 -14 -26.5 -18.5 t-116.5 -4.5q-111 0 -137.5 2t-26.5 14v547v19.5v19.5v17.5t-2 18.5t-4 15.5t-6 13.5t-9.5 10t-12.5 7t-17 2q-12 0 -21.5 -3t-15.5 -11t-9 -15.5t-4 -21.5t-1 -22.5v-26v-23.5v-538q0 -18 -20.5 -21.5t-143.5 -3.5q-102 0 -123 2t-21 16z" />
<glyph unicode="i" horiz-adv-x="430" d="M45 1270q8 78 41 121q30 39 108 39h15q66 -2 109 -50t47 -118q2 -51 2 -89t-38 -65t-120 -33q-11 -2 -22 -2q-58 -1 -101 53q-43 53 -43 118q0 13 2 26zM61 31v915q0 27 18.5 32t129.5 5q119 0 139.5 -5t20.5 -34v-909q0 -25 -21.5 -30t-138.5 -5q-109 0 -128.5 4 t-19.5 27z" />
<glyph unicode="j" horiz-adv-x="430" d="M-88 -258q0 70 4 101.5t9 37.5t18 6h67q18 0 29.5 9.5t15.5 33t5 35.5t1 45v936q0 27 18.5 32t129.5 5q119 0 139.5 -5t20.5 -34v-1018q0 -150 -100.5 -243t-258.5 -93h-73q-18 0 -21.5 22.5t-3.5 129.5zM45 1270q8 78 41 121q30 39 108 39h15q66 -2 109 -50t47 -118 q2 -51 2 -89t-38 -65t-120 -33q-11 -2 -22 -2q-58 0 -101 53q-43 54 -43 118q0 13 2 26z" />
<glyph unicode="k" horiz-adv-x="823" d="M61 33v1370q0 29 148 29q160 0 160 -31v-715q0 -35 10 -35l4 4q14 18 23 43l75 265q6 20 117 20h31.5t40 -1t45 -2t37 -3t27.5 -6t7 -8q-137 -317 -143 -332q-18 -41 -18 -53q0 -29 12 -56q184 -468 184 -500q0 -6 -5 -10q-7 -4 -48 -8t-121 -4q-115 0 -125 29 q-33 94 -80 245q-12 40 -28 40q-6 0 -13 -5q-33 -27 -32 -47v-225q0 -35 -160 -35q-147 0 -148 31z" />
<glyph unicode="l" horiz-adv-x="430" d="M61 31v1364q0 27 18.5 32t129.5 5q119 0 139.5 -5.5t20.5 -33.5v-1358q0 -25 -21.5 -30t-138.5 -5q-109 0 -128.5 4t-19.5 27z" />
<glyph unicode="m" horiz-adv-x="1249" d="M61 18v947q0 14 11.5 17t56.5 1h51h37t31 1t25.5 1t20.5 -1t15 -2t12.5 -3t8.5 -5t5 -8t2 -12.5t1 -15.5q0 -33 4 -33q4 -2 12 13q14 27 60.5 46t89.5 19q63 0 102 -24.5t53.5 -48t16.5 -23.5q6 0 22.5 23.5t62.5 48t122 24.5q123 0 214 -81t91 -255v-624 q0 -14 -26.5 -18.5t-117.5 -4.5q-111 0 -137 2t-26 14v547v19.5v19.5v17.5t-2 18.5t-4.5 15.5t-6.5 13.5t-9 10t-12 7t-18 2q-12 0 -21 -3t-15.5 -11t-9.5 -15.5t-4 -21.5t-1 -22.5v-26v-23.5v-540q0 -14 -26.5 -18.5t-116.5 -4.5q-111 0 -137.5 2t-26.5 14v547v19.5v19.5 v17.5t-2 18.5t-4 15.5t-6 13.5t-9.5 10t-12.5 7t-17 2q-12 0 -21.5 -3t-15.5 -11t-9 -15.5t-4 -21.5t-1 -22.5v-26v-23.5v-538q0 -18 -20.5 -21.5t-143.5 -3.5q-102 0 -123 2t-21 16z" />
<glyph unicode="n" d="M61 18v947q0 14 11.5 17t56.5 1h51h37t31 1t25.5 1t20.5 -1t15 -2t12.5 -3t8.5 -5t5 -8t2 -12.5t1 -15.5q0 -33 4 -33q4 -2 12 13q14 25 68.5 45t81.5 20q117 0 195.5 -79t78.5 -257v-624q0 -14 -26.5 -18.5t-116.5 -4.5q-111 0 -137.5 2t-26.5 14v547v19.5v19.5v17.5 t-2 18.5t-4 15.5t-6 13.5t-9.5 10t-12.5 7t-17 2q-12 0 -21.5 -3t-15.5 -11t-9 -15.5t-4 -21.5t-1 -22.5v-26v-23.5v-538q0 -18 -20.5 -21.5t-143.5 -3.5q-102 0 -123 2t-21 16z" />
<glyph unicode="o" horiz-adv-x="798" d="M41 336v311q0 150 100.5 243t257.5 93q164 0 261.5 -90t97.5 -246v-311q0 -156 -97.5 -246t-261.5 -90q-158 0 -258 93t-100 243zM338 393q0 -8 1 -23.5t3 -23.5t6 -18.5t11.5 -15.5t17.5 -9t22 -4q14 0 25.5 4t19 13.5t11.5 17.5t5 25.5t1 26.5v30.5v29.5v91v29.5v30.5 t-1 26.5t-5 25.5t-11.5 17.5t-18.5 13.5t-26 4q-12 0 -22 -4t-17.5 -9t-11.5 -15.5t-6 -18.5t-3 -23.5t-1 -23.5v-26.5v-26.5v-91v-26.5v-26.5z" />
<glyph unicode="p" horiz-adv-x="819" d="M61 -391v1356q0 14 11.5 17t56.5 1h51h37t31 1t25.5 1t20.5 -1t15 -2t12.5 -3t8.5 -5t5 -8t2 -12.5t1 -15.5q0 -41 6 -43q4 0 10 10q16 31 55.5 54.5t84.5 23.5q119 0 201.5 -80t82.5 -256v-311q0 -152 -87 -244t-197 -92q-23 0 -74 21.5t-66 44.5q-14 6 -16 -21v-438 q0 -12 -4 -15q-8 -2 -129 -2q-102 0 -123 2t-21 17zM358 393q0 -8 1 -23.5t3.5 -23.5t6.5 -18.5t11 -15.5t17.5 -9t22.5 -4q14 0 25.5 4t18.5 13.5t11 17.5t5 25.5t1 26.5v30.5v29.5v91v29.5v30.5t-1 26.5t-5 25.5t-11 17.5t-18.5 13.5t-25.5 4q-12 0 -22.5 -4t-17.5 -9 t-11 -15.5t-6.5 -18.5t-3.5 -23.5t-1 -23.5v-26.5v-26.5v-91v-26.5v-26.5z" />
<glyph unicode="q" horiz-adv-x="819" d="M41 336v311q0 176 83 256t202 80q43 0 83 -24.5t56 -55.5q14 -23 16 12v23q0 8 1 15.5t2 12.5t5.5 8t8.5 5t12 3t15 2t20.5 1t26 -1t31 -1h36.5h51q43 2 55.5 -1t12.5 -17v-1356q0 -14 -20.5 -16.5t-123.5 -2.5q-133 0 -135 7q2 -6 2 10v438q0 33 -4 33q-4 2 -12 -12 q-14 -23 -65.5 -44.5t-73.5 -21.5q-111 0 -198 92t-87 244zM338 393q0 -8 1 -23.5t3 -23.5t6 -18.5t11.5 -15.5t17.5 -9t22 -4q14 0 25.5 4t19 13.5t11.5 17.5t5 25.5t1 26.5v30.5v29.5v91v29.5v30.5t-1 26.5t-5 25.5t-11.5 17.5t-18.5 13.5t-26 4q-12 0 -22 -4t-17.5 -9 t-11.5 -15.5t-6 -18.5t-3 -23.5t-1 -23.5v-26.5v-26.5v-91v-26.5v-26.5z" />
<glyph unicode="r" horiz-adv-x="593" d="M61 18v947q0 14 11.5 17t56.5 1h51h37t31 1t25.5 1t20.5 -1t15 -2t12.5 -3t8.5 -5t5 -8t2 -12.5t1 -15.5q0 -37 6 -37q4 2 10 12q39 70 191 70q10 0 14 -2t8 -18.5t5 -47.5t1 -94q0 -100 -4 -117.5t-24 -17.5h-94q-39 0 -57.5 -24.5t-21.5 -51t-3 -80.5v-505 q0 -18 -20.5 -21.5t-143.5 -3.5q-102 0 -123 2t-21 16z" />
<glyph unicode="s" horiz-adv-x="747" d="M31 336q0 10 19.5 12t107.5 2q160 0 159 -10q0 -59 8.5 -81.5t41.5 -22.5q49 0 49 69q0 33 -39 54.5t-94.5 39t-111.5 44t-95 92t-39 163.5q0 115 100.5 200t231.5 85q133 0 232 -94t99 -242q0 -8 -69 -8h-56q-172 0 -172 10q0 55 -9 77t-34 22q-36 0 -36 -63 q0 -26 41 -45t98 -43t114.5 -56.5t98.5 -99t41 -156.5q0 -117 -96.5 -201t-246 -84t-246.5 90t-97 246z" />
<glyph unicode="t" horiz-adv-x="606" d="M20 815q0 61 4.5 91t9.5 37t17 7q39 0 48.5 6.5t9.5 34.5v131q0 23 24.5 28t130.5 5q104 0 128 -5t24 -32v-127q0 -29 17.5 -35t101.5 -6q12 0 17 -7t9 -36.5t4 -91.5q0 -76 -4 -93t-20 -17q-115 0 -119 -5q-6 -6 -6 -45v-268q0 -41 18.5 -64.5t35.5 -28.5t34 -5h31 q12 0 17 -6.5t9 -38t4 -99.5q0 -96 -4 -120.5t-20 -24.5h-74q-162 0 -260 84t-98 252q0 358 -7 364q-4 4 -57 5q-14 0 -19.5 20t-5.5 90z" />
<glyph unicode="u" d="M61 336v625q0 14 27 18t117 4q53 0 81.5 -1t46 -4t21.5 -6t4 -11v-515v-28.5v-30.5t1 -26.5t6.5 -25.5t11.5 -17.5t17.5 -14.5t25.5 -4t25.5 4t18.5 14.5t11 18.5t5 24.5t1 26.5v30.5v28.5v504q0 25 19.5 29t134.5 4q102 0 122.5 -2t20.5 -16v-947q0 -14 -11 -17t-56 -1 h-52h-36.5t-30.5 -1t-25.5 -1t-20.5 1t-15.5 2t-12.5 3t-8 5t-5 8.5t-2 12.5t-1 15q0 43 -6 43q-4 2 -11 -8q-45 -80 -139 -80q-119 0 -202 80t-83 256z" />
<glyph unicode="v" horiz-adv-x="749" d="M10 956q-2 8 10.5 13.5t35 7.5t42 3t41.5 1q168 0 170 -29q14 -152 45 -518q0 -20 13 -20q14 0 14 22q39 317 59 518q2 29 166 29q25 0 47.5 -1t44 -5t32.5 -11.5t9 -17.5l-250 -915q-10 -33 -131 -33h-47t-36.5 3t-36 12.5t-15.5 23.5z" />
<glyph unicode="w" horiz-adv-x="946" d="M41 944q-2 10 15.5 18.5t46 12.5t61.5 4q135 0 137 -33q16 -172 43 -477q0 -20 12 -20q14 0 15 22q10 279 16 485q0 25 82 25q104 0 104 -25q4 -121 15 -479q0 -20 12 -20q14 0 14 22q20 303 29 482q0 22 100 22h9q29 0 52 -1t48 -4t39 -9.5t12 -14.5l-143 -934 q-2 -20 -40 -22q-13 -1 -25 -1q-24 0 -46 3q-4 0 -22.5 1t-32.5 2t-31.5 3t-28 7t-10.5 14q-10 109 -30 266q-6 23 -15 22q-12 0 -12 -20l-43 -277q-3 -20 -81 -20q-22 0 -50 2q-4 0 -21.5 1t-30 2t-27.5 3t-23.5 7t-10.5 14z" />
<glyph unicode="x" horiz-adv-x="808" d="M31 25l174 424q6 14 6 47q0 39 -8 55l-168 403q-2 4 5 7.5t20.5 6.5t28.5 6t32.5 4t34.5 1q178 0 182 -27l47 -223q6 -18 12 -18q4 0 11 20l47 232q4 16 166 16q18 0 38.5 -1t37 -4t28.5 -6t19.5 -6.5t5.5 -7.5l-168 -401q-8 -18 -9 -55q0 -31 7 -45l198 -430 q2 -4 -10 -9q-39 -16 -117 -16q-172 0 -178 22q-31 111 -63 240q-6 18 -13 19q-8 0 -14 -21q-39 -156 -64 -233q-8 -27 -167 -27q-45 0 -85 7t-36 20z" />
<glyph unicode="y" horiz-adv-x="763" d="M31 961q0 4 6 8t18.5 6t26.5 4t32.5 3t33 1h30.5q141 0 144 -29l47 -510q0 -20 12 -20q14 0 14 22l49 512q2 25 154 25q49 0 94 -7.5t41 -21.5l-338 -1337q-6 -27 -129 -27q-23 0 -41 1t-42.5 4.5t-38 10.5t-11.5 17l80 383q8 35 8 62q0 43 -4 57z" />
<glyph unicode="z" horiz-adv-x="702" d="M38 274q1 22 7 29l279 356q10 14 5 40t-20 36q-10 4 -43 4h-172q-33 0 -33 105q0 139 27 139h526q16 0 24.5 -5t12.5 -22.5t5 -33t1 -50.5q0 -160 -10 -174l-293 -385q-6 -10 -2 -31.5t13 -25.5q10 -6 61 -6h213q31 0 31 -137q0 -94 -17 -109q-6 -4 -14 -4h-561 q-37 0 -37 147q0 17 -2 61q-1 30 -1 49v17z" />
<glyph unicode="{" horiz-adv-x="636" d="M39 713q0 88 10 88q39 0 72 39t33 84v303q0 197 102 273.5t309 76.5q10 0 10 -121q0 -119 -10 -119q-70 0 -103.5 -34.5t-33.5 -90.5v-313q0 -66 -17.5 -107.5t-36 -59t-18.5 -19.5t18.5 -19.5t36 -60.5t17.5 -107q0 -68 1 -126t1 -179q0 -125 135 -125q10 0 10 -119 q0 -121 -10 -120q-207 0 -309 76.5t-102 273.5v299q0 45 -34 84t-71 39q-10 0 -10 84z" />
<glyph unicode="|" horiz-adv-x="430" d="M61 -117v1663q0 31 144 31q164 0 164 -33v-1657q0 -31 -156 -30q-152 0 -152 26z" />
<glyph unicode="}" horiz-adv-x="636" d="M61 -23q0 119 11 119q135 0 135 125q0 121 1 179.5t1 125.5q0 63 18.5 106.5t36 61t17.5 19.5t-17.5 19.5t-36 59.5t-18.5 107v313q0 55 -34 90t-103 35q-10 0 -11 119q0 121 11 121q207 0 309 -77t102 -273v-303q0 -45 33 -84t72 -39q10 0 10 -88q0 -84 -10 -84 q-37 0 -71 -39t-34 -84v-299q0 -197 -102 -273.5t-309 -76.5q-10 0 -11 120z" />
<glyph unicode="~" horiz-adv-x="739" d="M78 674q-18 27 74 100q102 82 157 82q61 0 105 -55q4 -4 9 -11.5t8 -11.5t8 -10t8.5 -9t7.5 -8.5t7 -7.5t7 -4t8 -3t8 -1q25 0 119 82q43 37 62 4q35 -61 49 -88q10 -14 -31 -54t-92 -73q-72 -49 -117 -49q-6 0 -11 1t-11.5 3t-10.5 4t-10 8.5t-9 8.5t-10 10t-11.5 12 t-12.5 14.5t-12 14.5q-23 27 -29 33t-18.5 12t-26.5 6q-20 0 -106 -76q-53 -45 -70 -20q-25 37 -49 86z" />
<glyph unicode="&#xa1;" horiz-adv-x="458" d="M72 1075q4 68 46 114t105 50q47 2 78 -9t47.5 -36t23.5 -48.5t11 -60.5q8 -78 -41 -138t-119 -52q-92 12 -124.5 57t-26.5 123zM76 -168v928q0 25 21.5 30t138.5 5q109 0 128 -4.5t19 -26.5v-934q0 -27 -19.5 -32t-127.5 -5q-119 0 -139.5 5t-20.5 34z" />
<glyph unicode="&#xa2;" d="M61 336v311q0 57 16.5 106.5t32 77t53.5 59.5t48 38t51 30q14 8 14 31v144q0 23 144 22q164 0 164 -16v-160q0 -20 12 -29q39 -23 56.5 -35t54 -49t54 -92t17.5 -127q0 -23 -24.5 -28t-149.5 -5q-96 0 -114.5 3.5t-18.5 17.5q0 8 -3 17.5t-15.5 21.5t-32.5 12 q-12 0 -21.5 -3t-15.5 -11t-9 -15.5t-4 -21.5t-1 -22.5v-26v-23.5v-143v-23.5v-26t1 -22.5t4 -21.5t9 -15.5t15.5 -11t21.5 -3q27 0 39 18.5t12 32.5t6 19.5t40 9.5t106 4q109 0 132 -7t23 -38q0 -217 -186 -309q-10 -6 -10 -27v-111q0 -27 -162 -26q-143 0 -144 26v107 q0 25 -8 29q-84 35 -145.5 113.5t-61.5 197.5z" />
<glyph unicode="&#xa3;" horiz-adv-x="860" d="M82 78v1020q0 150 100.5 243t257.5 93q162 0 252 -89.5t90 -246.5v-131q0 -10 -6 -15.5t-41 -9.5t-108 -4q-111 0 -121 6q-6 4 -6 14v119q0 18 -14.5 43t-45.5 25q-59 0 -59 -131v-137q0 -45 12.5 -53.5t44.5 -8.5h101q18 0 20 -18.5t2 -126.5v-45q0 -94 -22 -95h-93 q-39 0 -51 -6q-14 -10 -14 -59v-98q0 -76 10 -82q14 -8 70 -9h305q18 0 22 -14q5 -16 5 -112q0 -109 -4.5 -129.5t-20.5 -20.5h-592q-72 0 -82 8q-12 10 -12 70z" />
<glyph unicode="&#xa4;" horiz-adv-x="792" d="M51 336v762q0 150 100.5 243t258.5 93q162 0 252 -89.5t90 -246.5v-80q0 -10 -6.5 -15.5t-41 -9.5t-108.5 -4q-117 0 -127 6q-8 4 -8 15v67q0 59 -51 60q-10 0 -18.5 -2t-13.5 -7.5t-9 -10.5t-6.5 -13t-4.5 -14.5t-2 -18.5v-18v-19.5v-19.5v-17q0 -43 13 -53q12 -8 45 -8 q20 0 64 1t50 1q25 0 25 -86v-35q2 -39 -1 -51t-17 -12h-129q-47 0 -52 -2q-14 -6 -14 -29q0 -16 16 -23q6 -2 41 -2h121q29 0 29 -53q0 -76 -4 -102.5t-23 -26.5h-98q-39 0 -51 -6q-14 -10 -15 -59v-31q0 -123 54 -123q51 0 51 59v68q0 27 17.5 31t101.5 4h36 q90 0 113 -10.5t23 -49.5v-63q0 -158 -90 -247t-252 -89q-158 0 -258.5 93t-100.5 243z" />
<glyph unicode="&#xa5;" horiz-adv-x="761" d="M0 1403q-4 16 42 22.5t95 6.5q162 0 166 -33q12 -88 35.5 -247t36.5 -243q0 -18 12 -18q10 0 10 20q14 104 35 266t29 222q4 33 153 33q27 0 47.5 -1t45 -3.5t37 -8.5t10.5 -16q-66 -236 -162 -561q-6 -23 18 -23q88 0 88 -33q0 -84 -2 -92q-2 -12 -4 -16t-13 -10t-30 -6 h-78q-14 0 -18 -1.5t-6 -3.5t-4 -12q0 -2 -4 -35q-2 -2 -1 -20.5t1 -32.5q0 -12 4 -16t24 -4q66 0 95.5 -4.5t36 -10.5t6.5 -18q0 -6 -1.5 -28.5t-1.5 -42t3 -30.5q4 -14 -3.5 -23t-35.5 -9h-115q-16 0 -16 -19v-336q0 -16 -154 -16q-150 0 -150 23q0 90 -1 183t-1 142 q0 16 -3 20.5t-15 4.5h-105q-14 0 -32.5 9t-14.5 30q6 29 0 94q-2 18 11.5 24.5t48.5 6.5h92q14 0 14 20q0 33 -2 43q-2 27 -6 43q-2 18 -27 19h-84q-14 0 -32.5 9t-14.5 29q6 27 0 88q-2 18 18.5 24.5t84.5 6.5q14 0 8 29z" />
<glyph unicode="&#xa6;" horiz-adv-x="890" d="M31 735q0 72 5 88.5t27 16.5h87q18 0 21 6t3 26v283q0 18 19.5 35.5t35.5 17.5h101q16 0 16 15v180q0 31 103 31q37 0 54 -2t29.5 -9.5t12.5 -21.5v-176q0 -16 20 -17h101q18 0 34.5 -18.5t16.5 -44.5v-279q0 -10 1 -15t6 -8t17 -3h88q23 0 27 -15.5t4 -89.5v-14 q0 -80 -26 -80h-91q-18 0 -22 -5t-4 -22v-317q0 -33 -12.5 -52.5t-30.5 -19.5h-115q-14 0 -14 -18v-176q0 -23 -13.5 -27t-82.5 -4q-92 0 -99 8q-4 6 -4 19v184q0 14 -12 14h-103q-25 0 -41 15.5t-16 33.5v340v13.5t-3 7.5t-8 5t-16 1h-86q-20 0 -25 17.5t-5 76.5zM373 459 q0 -35 35 -35h75q35 0 35 35v520q0 31 -22 31h-101q-23 0 -22 -31v-520z" />
<glyph unicode="&#xa7;" horiz-adv-x="821" d="M68 1087q0 170 104 258.5t246 88.5q147 0 242.5 -83t95.5 -247v-105q0 -20 -162 -20q-100 0 -109 8q-4 4 -4 14v37q0 66 -11 94.5t-54 28.5q-45 0 -57.5 -26.5t-12.5 -83.5q0 -37 31 -66t76 -47t98 -48t98 -63.5t76 -97t31 -147.5q0 -66 -37 -108t-66 -42q-6 0 -8 -7 t2 -11q2 -4 38 -29t61.5 -74t25.5 -135q0 -90 -33.5 -156.5t-88 -100.5t-109 -48t-109.5 -14t-113.5 17t-115 54t-93 106.5t-36.5 160.5v79q0 27 155 27q131 0 131 -22v-62q0 -31 17.5 -58.5t56.5 -27.5q78 0 78 80q0 43 -44 74.5t-107.5 57.5t-127 58.5t-107.5 96 t-44 151.5q0 57 36 94t66 37q10 2 -2 19q-57 59 -85.5 120.5t-28.5 167.5zM324 674q0 -61 63.5 -101.5t99.5 -40.5q35 1 35 58q0 41 -67.5 83t-108.5 42q-23 0 -22 -41z" />
<glyph unicode="&#xa8;" d="M129 1237q-6 59 32 106.5t91 38.5q61 -6 89 -25.5t28 -48v-65.5q-4 -51 -36 -87t-81 -38q-68 -6 -92.5 27t-30.5 92zM471 1237q-6 59 32 106.5t91 38.5q61 -6 89 -25.5t28 -48v-65.5q-4 -51 -36 -87t-81 -38q-68 -6 -92.5 27t-30.5 92z" />
<glyph unicode="&#xa9;" horiz-adv-x="1134" d="M70 938q0 205 145 351.5t352 146.5t353.5 -145.5t146.5 -352.5t-146.5 -351.5t-353.5 -144.5t-352 144.5t-145 351.5zM180 940q0 -162 115 -274.5t276.5 -112.5t275.5 112.5t114 274.5t-114 276.5t-275.5 114.5t-276.5 -114.5t-115 -276.5zM399 838v217q0 80 55.5 126 t116.5 46q63 0 117.5 -47t54.5 -117q0 -14 -47 -14q-45 0 -45 6q0 35 -25.5 55t-54.5 20q-27 0 -54.5 -19t-27.5 -56v-215q0 -35 25 -53.5t57 -18.5q31 0 55.5 17.5t24.5 52.5q0 8 45 8q43 0 45 -2t2 -6q0 -72 -52 -122t-119.5 -50t-120 46t-52.5 126z" />
<glyph unicode="&#xaa;" horiz-adv-x="368" d="M41 944q0 47 20 47h261q8 0 8 -49t-6 -49h-265q-18 0 -18 51zM41 1178v125q0 133 111 133q41 0 61 -37q4 10 4 20q0 16 35 17h29q45 -4 47 -6v-379q0 -8 -47 -9h-21q-29 0 -36 2.5t-7 16.5q-4 16 -6 16q-20 -35 -57 -35q-47 0 -80 32t-33 104zM164 1202q-2 -41 20 -41 q4 0 8.5 1t6.5 5t4 6.5t2 8.5v9v10v9v58q0 43 -10 47q-4 2 -10.5 2t-9.5 -1t-5 -4l-4 -6t-2 -8.5v-8.5v-11v-10v-58v-8z" />
<glyph unicode="&#xab;" horiz-adv-x="794" d="M20 505.5q0 20.5 131.5 206t143.5 177.5q6 -4 27.5 -15.5t40 -21.5t26.5 -12q39 -8 10 -49q-178 -270 -178 -283q0 -25 174 -287q27 -41 -10 -49q-8 -2 -29.5 -13.5t-46 -24.5t-30.5 -17q-12 -8 -135.5 180t-123.5 208.5zM362 505.5q0 20.5 131.5 206t143.5 177.5 q6 -4 27.5 -15.5t40 -21.5t26.5 -12q39 -8 10 -49q-178 -270 -178 -283q0 -25 174 -287q27 -41 -10 -49q-8 -2 -29.5 -13.5t-46 -24.5t-30.5 -17q-12 -8 -135.5 180t-123.5 208.5z" />
<glyph unicode="&#xac;" horiz-adv-x="890" d="M31 735q0 72 5 88.5t27 16.5h87q18 0 21 6t3 26v283q0 18 19.5 35.5t35.5 17.5h101q16 0 16 15v180q0 31 103 31q37 0 54 -2t29.5 -9.5t12.5 -21.5v-176q0 -16 20 -17h101q18 0 34.5 -18.5t16.5 -44.5v-279q0 -10 1 -15t6 -8t17 -3h88q23 0 27 -15.5t4 -89.5v-14 q0 -80 -26 -80h-91q-18 0 -22 -5t-4 -22v-317q0 -33 -12.5 -52.5t-30.5 -19.5h-115q-14 0 -14 -18v-176q0 -23 -13.5 -27t-82.5 -4q-92 0 -99 8q-4 6 -4 19v184q0 14 -12 14h-103q-25 0 -41 15.5t-16 33.5v340v13.5t-3 7.5t-8 5t-16 1h-86q-20 0 -25 17.5t-5 76.5zM373 459 q0 -35 35 -35h75q35 0 35 35v520q0 31 -22 31h-101q-23 0 -22 -31v-520z" />
<glyph unicode="&#xad;" horiz-adv-x="559" d="M61 463q6 35 0 119q-2 18 13.5 24t50.5 6h268q94 4 94 -32q1 -102 7 -125q4 -14 -3.5 -23.5t-35.5 -9.5q-74 0 -183.5 1t-162.5 1q-14 0 -33 9t-15 30z" />
<glyph unicode="&#xae;" horiz-adv-x="1134" d="M70 936q0 207 145 353.5t352 146.5t353.5 -146.5t146.5 -353.5q0 -205 -146.5 -350.5t-353.5 -145.5t-352 145.5t-145 350.5zM180 940q0 -162 115 -274.5t276.5 -112.5t275.5 112.5t114 274.5t-114 275.5t-275.5 113.5t-276.5 -113.5t-115 -275.5zM408 682v524q0 14 8 21 q12 4 35 4h129q70 0 111.5 -30t51 -57.5t9.5 -56.5v-28q0 -41 -21.5 -66.5t-42.5 -29.5l-22 -7l22 -4q20 -4 42 -23.5t22 -58.5v-188q0 -12 -49.5 -12t-49.5 12v172q0 18 -19.5 34.5t-53.5 16.5q-76 0 -76 -20v-203q0 -12 -51 -12q-45 0 -45 12zM504 1014q0 -12 6 -15 q8 -2 41 -2q55 0 74.5 10.5t19.5 41.5v34q0 35 -20.5 46.5t-77.5 11.5h-43v-27v-100z" />
<glyph unicode="&#xaf;" d="M141.5 1076q-0.5 36 9 78t19.5 42q4 0 103.5 -1t156.5 -1t150.5 2t99.5 2q8 0 17.5 -42t10 -79t-9.5 -43q-4 0 -39.5 -2t-98 -4t-132.5 -2q-72 0 -133.5 2t-98 4t-44.5 2q-10 6 -10.5 42z" />
<glyph unicode="&#xb0;" horiz-adv-x="587" d="M49 1227q10 111 46 161t87 50h117q94 -6 156.5 -64.5t66.5 -146.5q6 -66 -8 -110t-50 -65.5t-69 -30.5t-84 -15q-109 -12 -194.5 56t-67.5 165zM184 1227q-6 -43 33 -73t84 -26q25 2 37 6.5t28.5 13.5t22.5 28.5t4 50.5q-2 37 -28.5 62.5t-65.5 29.5q-33 0 -43 -1 t-30.5 -8t-29 -27.5t-12.5 -55.5z" />
<glyph unicode="&#xb1;" horiz-adv-x="1572" d="M41 813q0 106 3 129t22 23q53 0 57 4q6 6 6 129q0 150 100.5 243t257.5 93h74q18 0 21.5 -22.5t3.5 -129.5q0 -70 -4 -101.5t-9.5 -37.5t-17.5 -6h-68q-31 0 -41 -26t-10 -97q0 -39 6 -45q4 -4 119 -4h41q53 0 57 4q6 6 7 129q0 150 100 243t258 93h74q18 0 21 -22.5 t3 -129.5q0 -70 -4 -101.5t-9 -37.5t-17 -6h-68q-18 0 -29.5 -9.5t-15.5 -33t-5 -35.5t-1 -45q0 -39 6 -45q6 -4 119 -4q18 0 21 -23t3 -129q0 -27 -1 -46t-1 -32.5t-2 -20.5t-3 -11.5t-4 -5.5t-5 -1t-7 1t-7 1q-84 0 -101.5 -6t-17.5 -35v-620q0 -27 -21.5 -32t-130.5 -5 h-22q-96 0 -114.5 4t-18.5 29v624q0 31 -7.5 36t-50.5 5h-53q-84 0 -101.5 -6t-17.5 -35v-620q0 -27 -21.5 -32t-129.5 -5h-23q-96 0 -114.5 4t-18.5 29v624q0 31 -7 36t-50 5q-4 0 -9.5 -1t-7.5 -1t-6 5.5t-5 17.5t-2 35.5t-1 58.5zM1188 1270q8 78 41 121t123 39 q66 -2 108.5 -50t46.5 -118q2 -51 2 -89t-37.5 -65t-119.5 -33q-72 -12 -123 51.5t-41 143.5zM1204 31v915q0 27 18.5 32t129.5 5q119 0 139 -5t20 -34v-909q0 -25 -21.5 -30t-137.5 -5q-109 0 -128.5 4t-19.5 27z" />
<glyph unicode="&#xb2;" horiz-adv-x="890" d="M31 735q0 72 5 88.5t27 16.5h87q18 0 21 6t3 26v283q0 18 19.5 35.5t35.5 17.5h101q16 0 16 15v180q0 31 103 31q37 0 54 -2t29.5 -9.5t12.5 -21.5v-176q0 -16 20 -17h101q18 0 34.5 -18.5t16.5 -44.5v-279q0 -10 1 -15t6 -8t17 -3h88q23 0 27 -15.5t4 -89.5v-14 q0 -80 -26 -80h-91q-18 0 -22 -5t-4 -22v-317q0 -33 -12.5 -52.5t-30.5 -19.5h-115q-14 0 -14 -18v-176q0 -23 -13.5 -27t-82.5 -4q-92 0 -99 8q-4 6 -4 19v184q0 14 -12 14h-103q-25 0 -41 15.5t-16 33.5v340v13.5t-3 7.5t-8 5t-16 1h-86q-20 0 -25 17.5t-5 76.5zM373 459 q0 -35 35 -35h75q35 0 35 35v520q0 31 -22 31h-101q-23 0 -22 -31v-520z" />
<glyph unicode="&#xb3;" horiz-adv-x="890" d="M31 735q0 72 5 88.5t27 16.5h87q18 0 21 6t3 26v283q0 18 19.5 35.5t35.5 17.5h101q16 0 16 15v180q0 31 103 31q37 0 54 -2t29.5 -9.5t12.5 -21.5v-176q0 -16 20 -17h101q18 0 34.5 -18.5t16.5 -44.5v-279q0 -10 1 -15t6 -8t17 -3h88q23 0 27 -15.5t4 -89.5v-14 q0 -80 -26 -80h-91q-18 0 -22 -5t-4 -22v-317q0 -33 -12.5 -52.5t-30.5 -19.5h-115q-14 0 -14 -18v-176q0 -23 -13.5 -27t-82.5 -4q-92 0 -99 8q-4 6 -4 19v184q0 14 -12 14h-103q-25 0 -41 15.5t-16 33.5v340v13.5t-3 7.5t-8 5t-16 1h-86q-20 0 -25 17.5t-5 76.5zM373 459 q0 -35 35 -35h75q35 0 35 35v520q0 31 -22 31h-101q-23 0 -22 -31v-520z" />
<glyph unicode="&#xb4;" d="M199 1247q-6 14 15.5 30.5t61.5 33.5q37 10 252 90q61 18 68 -8q33 -91 43 -111q10 -16 -4 -33.5t-27 -19.5l-325 -121q-43 -14 -47 18q-2 27 -37 121z" />
<glyph unicode="&#xb6;" horiz-adv-x="1011" d="M61 807v291q0 156 97.5 246t261.5 90h469q27 0 37 -2t17 -15.5t7 -44.5v-1327q0 -33 -20.5 -39t-87.5 -6q-72 0 -84.5 3t-12.5 32v1024q0 57 -5 69.5t-29.5 12.5t-29.5 -12.5t-5 -65.5v-1002q0 -45 -18.5 -53t-84.5 -8h-22q-41 0 -54.5 1t-19.5 8t-6 26v350 q0 53 -12.5 69.5t-38.5 16.5q-164 0 -261.5 90t-97.5 246zM369 834.5q0 -11.5 2 -18.5t4 -15t6 -13.5t9 -10.5t12.5 -7t17.5 -2q41 0 46 2.5t5 22.5v319q0 20 -5 22.5t-46 2.5q-10 0 -17.5 -2t-12.5 -7.5t-9 -10.5t-6 -13t-4 -15.5t-2 -18.5v-17v-19.5v-19.5v-123v-19.5 v-19.5v-17.5z" />
<glyph unicode="&#xb7;" horiz-adv-x="421" d="M61 782q-8 74 39 133.5t113 49.5q76 -6 110.5 -31t34.5 -60.5t-2 -80.5q-4 -63 -43 -107.5t-100 -48.5q-57 -4 -92 18.5t-45 52t-15 74.5z" />
<glyph unicode="&#xb8;" d="M268 -231q0 92 6 92q31 0 59.5 19.5t28.5 51.5v140q0 14 66 14h18.5h19.5h16.5t13.5 -3t4 -9v-137q0 -92 -64.5 -160t-156.5 -68q-10 0 -11 60z" />
<glyph unicode="&#xb9;" horiz-adv-x="890" d="M31 735q0 72 5 88.5t27 16.5h87q18 0 21 6t3 26v283q0 18 19.5 35.5t35.5 17.5h101q16 0 16 15v180q0 31 103 31q37 0 54 -2t29.5 -9.5t12.5 -21.5v-176q0 -16 20 -17h101q18 0 34.5 -18.5t16.5 -44.5v-279q0 -10 1 -15t6 -8t17 -3h88q23 0 27 -15.5t4 -89.5v-14 q0 -80 -26 -80h-91q-18 0 -22 -5t-4 -22v-317q0 -33 -12.5 -52.5t-30.5 -19.5h-115q-14 0 -14 -18v-176q0 -23 -13.5 -27t-82.5 -4q-92 0 -99 8q-4 6 -4 19v184q0 14 -12 14h-103q-25 0 -41 15.5t-16 33.5v340v13.5t-3 7.5t-8 5t-16 1h-86q-20 0 -25 17.5t-5 76.5zM373 459 q0 -35 35 -35h75q35 0 35 35v520q0 31 -22 31h-101q-23 0 -22 -31v-520z" />
<glyph unicode="&#xba;" horiz-adv-x="368" d="M41 944q0 47 20 47h258q9 0 9 -49t-6 -49h-263q-18 0 -18 51zM41 1176v122q0 61 41 98.5t102 37.5q66 0 105 -36t39 -100v-122q0 -63 -39 -99.5t-105 -36.5q-61 0 -102 37t-41 99zM164 1200q-2 -41 20 -41q4 0 8.5 1t6.5 5t4 6.5t2 8.5v9v10v9v58v8q2 41 -21 41 q-4 0 -8 -1t-6 -5t-4 -6.5t-2 -8.5v-9v-10v-9v-58v-8z" />
<glyph unicode="&#xbb;" horiz-adv-x="794" d="M63 217q178 270 179 283q0 25 -174 286q-27 41 10 50q8 2 29.5 13t46 24.5t30.5 17.5q12 8 135 -180.5t123 -209t-131 -205.5t-143 -177q-6 4 -27.5 15t-40 21.5t-26.5 12.5q-39 8 -11 49zM406 217q178 270 178 283q0 25 -174 286q-27 41 10 50q8 2 29.5 13t46 24.5 t30.5 17.5q12 8 135 -180.5t123 -209t-131 -205.5t-143 -177q-6 4 -27.5 15t-40 21.5t-26.5 12.5q-39 8 -10 49z" />
<glyph unicode="&#xbc;" horiz-adv-x="890" d="M31 735q0 72 5 88.5t27 16.5h87q18 0 21 6t3 26v283q0 18 19.5 35.5t35.5 17.5h101q16 0 16 15v180q0 31 103 31q37 0 54 -2t29.5 -9.5t12.5 -21.5v-176q0 -16 20 -17h101q18 0 34.5 -18.5t16.5 -44.5v-279q0 -10 1 -15t6 -8t17 -3h88q23 0 27 -15.5t4 -89.5v-14 q0 -80 -26 -80h-91q-18 0 -22 -5t-4 -22v-317q0 -33 -12.5 -52.5t-30.5 -19.5h-115q-14 0 -14 -18v-176q0 -23 -13.5 -27t-82.5 -4q-92 0 -99 8q-4 6 -4 19v184q0 14 -12 14h-103q-25 0 -41 15.5t-16 33.5v340v13.5t-3 7.5t-8 5t-16 1h-86q-20 0 -25 17.5t-5 76.5zM373 459 q0 -35 35 -35h75q35 0 35 35v520q0 31 -22 31h-101q-23 0 -22 -31v-520z" />
<glyph unicode="&#xbd;" horiz-adv-x="890" d="M31 735q0 72 5 88.5t27 16.5h87q18 0 21 6t3 26v283q0 18 19.5 35.5t35.5 17.5h101q16 0 16 15v180q0 31 103 31q37 0 54 -2t29.5 -9.5t12.5 -21.5v-176q0 -16 20 -17h101q18 0 34.5 -18.5t16.5 -44.5v-279q0 -10 1 -15t6 -8t17 -3h88q23 0 27 -15.5t4 -89.5v-14 q0 -80 -26 -80h-91q-18 0 -22 -5t-4 -22v-317q0 -33 -12.5 -52.5t-30.5 -19.5h-115q-14 0 -14 -18v-176q0 -23 -13.5 -27t-82.5 -4q-92 0 -99 8q-4 6 -4 19v184q0 14 -12 14h-103q-25 0 -41 15.5t-16 33.5v340v13.5t-3 7.5t-8 5t-16 1h-86q-20 0 -25 17.5t-5 76.5zM373 459 q0 -35 35 -35h75q35 0 35 35v520q0 31 -22 31h-101q-23 0 -22 -31v-520z" />
<glyph unicode="&#xbe;" horiz-adv-x="890" d="M31 735q0 72 5 88.5t27 16.5h87q18 0 21 6t3 26v283q0 18 19.5 35.5t35.5 17.5h101q16 0 16 15v180q0 31 103 31q37 0 54 -2t29.5 -9.5t12.5 -21.5v-176q0 -16 20 -17h101q18 0 34.5 -18.5t16.5 -44.5v-279q0 -10 1 -15t6 -8t17 -3h88q23 0 27 -15.5t4 -89.5v-14 q0 -80 -26 -80h-91q-18 0 -22 -5t-4 -22v-317q0 -33 -12.5 -52.5t-30.5 -19.5h-115q-14 0 -14 -18v-176q0 -23 -13.5 -27t-82.5 -4q-92 0 -99 8q-4 6 -4 19v184q0 14 -12 14h-103q-25 0 -41 15.5t-16 33.5v340v13.5t-3 7.5t-8 5t-16 1h-86q-20 0 -25 17.5t-5 76.5zM373 459 q0 -35 35 -35h75q35 0 35 35v520q0 31 -22 31h-101q-23 0 -22 -31v-520z" />
<glyph unicode="&#xbf;" horiz-adv-x="831" d="M70 115v84q0 80 26.5 147.5t48 94t74.5 83.5q25 27 40 49.5t23.5 36t12.5 38t5 32.5t0 42t-1 46q0 33 160 27h26.5t28.5 -1t26.5 -2t27 -4.5t19.5 -7.5t14 -10t5 -16q0 -20 -1 -39t-1 -47q0 -84 -12 -117t-64 -94q-4 -6 -32.5 -40t-45 -53.5t-38 -52t-32.5 -60.5t-11 -52 v-19.5v-20.5v-18.5t2 -18.5t4 -15.5t6 -12.5l9 -9t12.5 -7t17.5 -2q12 0 21.5 4t15.5 12t9 16.5t4 22.5t1 22.5v24v21.5v32q0 27 162 27q137 0 137 -29v-114q0 -152 -97.5 -244t-252.5 -92q-162 0 -256 89t-94 247zM307 990q0 36 2 81q4 63 43 107.5t101 48.5q57 4 92 -18.5 t45 -52.5t14 -75q8 -74 -39 -133t-112 -49q-76 6 -111 30.5t-35 60.5z" />
<glyph unicode="&#xc0;" horiz-adv-x="802" d="M20 18q129 795 218 1387q4 31 155 31q143 0 150 -37l239 -1379q4 -18 -112 -20h-49h-19.5h-21h-19.5t-18 1t-15.5 2t-15.5 3t-11 4t-8.5 6t-3.5 9l-38 278q-2 14 -10.5 15t-43.5 1h-16q-43 0 -45 -16q-23 -205 -29 -283q-2 -20 -139 -20q-150 0 -148 18zM166 1671 q10 20 43 111q6 27 67 8q215 -80 252 -90q41 -16 62.5 -33t15.5 -31q-35 -94 -37 -120q-4 -33 -47 -19l-325 121q-12 2 -26.5 19.5t-4.5 33.5zM352 530q0 -12 6.5 -14t32.5 -2h15.5h13.5t8 1t6 4t2 9q-4 70 -11 179.5t-11 166.5q0 18 -6.5 53.5t-14.5 35.5t-13 -41t-5 -58 q-4 -72 -11.5 -171t-11.5 -163z" />
<glyph unicode="&#xc1;" horiz-adv-x="802" d="M20 18q129 795 218 1387q4 31 155 31q143 0 150 -37l239 -1379q4 -18 -112 -20h-49h-19.5h-21h-19.5t-18 1t-15.5 2t-15.5 3t-11 4t-8.5 6t-3.5 9l-38 278q-2 14 -10.5 15t-43.5 1h-16q-43 0 -45 -16q-23 -205 -29 -283q-2 -20 -139 -20q-150 0 -148 18zM242 1636 q-6 14 15.5 30.5t61.5 33.5q37 10 252 90q61 18 68 -8q33 -91 43 -111q10 -16 -4 -33.5t-27 -19.5l-325 -121q-43 -14 -47 19q-2 27 -37 120zM352 530q0 -12 6.5 -14t32.5 -2h15.5h13.5t8 1t6 4t2 9q-4 70 -11 179.5t-11 166.5q0 18 -6.5 53.5t-14.5 35.5t-13 -41t-5 -58 q-4 -72 -11.5 -171t-11.5 -163z" />
<glyph unicode="&#xc2;" horiz-adv-x="802" d="M20 18q129 795 218 1387q4 31 155 31q143 0 150 -37l239 -1379q4 -18 -112 -20h-49h-19.5h-21h-19.5t-18 1t-15.5 2t-15.5 3t-11 4t-8.5 6t-3.5 9l-38 278q-2 14 -10.5 15t-43.5 1h-16q-43 0 -45 -16q-23 -205 -29 -283q-2 -20 -139 -20q-150 0 -148 18zM123 1622 q14 20 133 102q20 14 46 34t40 31t29.5 19.5t27.5 8.5q8 0 19.5 -6.5t27 -17.5t29.5 -23.5t37 -31t39 -32.5q111 -86 119 -100q6 -8 -5.5 -32t-26.5 -50.5t-17 -32.5q-4 -16 -15.5 -22.5t-34.5 12.5l-43.5 43.5l-44 44t-37 36t-29.5 26.5t-16 9q-10 0 -174 -155 q-39 -37 -49 10q-2 6 -19.5 36t-29.5 56.5t-6 34.5zM352 530q0 -12 6.5 -14t32.5 -2h15.5h13.5t8 1t6 4t2 9q-4 70 -11 179.5t-11 166.5q0 18 -6.5 53.5t-14.5 35.5t-13 -41t-5 -58q-4 -72 -11.5 -171t-11.5 -163z" />
<glyph unicode="&#xc3;" horiz-adv-x="802" d="M20 18q129 795 218 1387q4 31 155 31q143 0 150 -37l239 -1379q4 -18 -112 -20h-49h-19.5h-21h-19.5t-18 1t-15.5 2t-15.5 3t-11 4t-8.5 6t-3.5 9l-38 278q-2 14 -10.5 15t-43.5 1h-16q-43 0 -45 -16q-23 -205 -29 -283q-2 -20 -139 -20q-150 0 -148 18zM168 1614 q-12 20 90 90q61 41 88 41q49 0 74 -23q10 -10 22.5 -25.5t20.5 -20.5t20 -5q20 0 74 64q16 18 30.5 12t18.5 -23q4 -12 27.5 -55t25.5 -45q6 -8 -6 -21.5t-45 -39t-41 -31.5q-45 -37 -84 -37q-49 0 -73 25q-8 8 -17.5 19t-13.5 14t-12.5 6.5t-18.5 3.5q-12 0 -18 -4.5 t-22.5 -21.5t-39.5 -36q-16 -12 -30.5 -8t-18.5 18q-2 8 -12 29t-23.5 44.5t-15.5 29.5zM352 530q0 -12 6.5 -14t32.5 -2h15.5h13.5t8 1t6 4t2 9q-4 70 -11 179.5t-11 166.5q0 18 -6.5 53.5t-14.5 35.5t-13 -41t-5 -58q-4 -72 -11.5 -171t-11.5 -163z" />
<glyph unicode="&#xc4;" horiz-adv-x="802" d="M20 18q129 795 218 1387q4 31 155 31q143 0 150 -37l239 -1379q4 -18 -112 -20h-49h-19.5h-21h-19.5t-18 1t-15.5 2t-15.5 3t-11 4t-8.5 6t-3.5 9l-38 278q-2 14 -10.5 15t-43.5 1h-16q-43 0 -45 -16q-23 -205 -29 -283q-2 -20 -139 -20q-150 0 -148 18zM112.5 1613.5 q-6.5 59.5 31.5 106.5t92 39q61 -6 88.5 -25.5t27.5 -48v-65.5q-4 -51 -35.5 -87t-80.5 -38q-68 -6 -92.5 26.5t-31 92zM352 530q0 -12 6.5 -14t32.5 -2h15.5h13.5t8 1t6 4t2 9q-4 70 -11 179.5t-11 166.5q0 18 -6.5 53.5t-14.5 35.5t-13 -41t-5 -58q-4 -72 -11.5 -171 t-11.5 -163zM455 1613.5q-6 59.5 31.5 106.5t91.5 39q61 -6 88.5 -25.5t27.5 -48v-65.5q-4 -51 -35.5 -87t-80.5 -38q-68 -6 -92.5 26.5t-30.5 92z" />
<glyph unicode="&#xc5;" horiz-adv-x="802" d="M20 18q129 795 218 1387q4 31 155 31q143 0 150 -37l239 -1379q4 -18 -112 -20h-49h-19.5h-21h-19.5t-18 1t-15.5 2t-15.5 3t-11 4t-8.5 6t-3.5 9l-38 278q-2 14 -10.5 15t-43.5 1h-16q-43 0 -45 -16q-23 -205 -29 -283q-2 -20 -139 -20q-150 0 -148 18zM231 1645 q6 74 30 107.5t58.5 33.5h77.5q61 -4 104.5 -43t45.5 -98q6 -82 -32 -111t-109.5 -37t-129 38t-45.5 110zM322 1645q-4 -29 21.5 -49.5t55.5 -16.5q20 2 31.5 6t22 18.5t8.5 41.5q-2 25 -19.5 41t-44.5 20q-27 0 -37 -1t-22 -15.5t-16 -44.5zM352 530q0 -12 6.5 -14t32.5 -2 h15.5h13.5t8 1t6 4t2 9q-4 70 -11 179.5t-11 166.5q0 18 -6.5 53.5t-14.5 35.5t-13 -41t-5 -58q-4 -72 -11.5 -171t-11.5 -163z" />
<glyph unicode="&#xc6;" horiz-adv-x="1132" d="M6 12q0 2 75 359.5t143.5 683t72.5 334.5q18 45 55 45h717q16 0 19.5 -22.5t3.5 -92.5v-21q0 -100 -4.5 -125.5t-24.5 -25.5h-203q-39 0 -47 -10q-10 -14 -10 -39v-150q0 -43 12 -53q12 -8 45 -8h94q18 0 23.5 -22.5t5.5 -108.5v-41q0 -72 -3 -92.5t-19 -20.5h-93 q-39 0 -51 -6q-14 -10 -14 -59v-170q0 -66 10 -72q14 -8 61 -8h195q18 0 22.5 -25t4.5 -115q0 -94 -4.5 -120.5t-20.5 -26.5h-481q-72 0 -82 8q-12 10 -12 70v217q0 23 -74 22q-80 0 -84 -24q-18 -115 -53 -279q0 -6 -71 -11t-140.5 -3t-67.5 12zM360 565q-4 -18 62 -18 q74 0 74 16v473q0 115 -13 115q-14 0 -34 -115q-70 -367 -89 -471z" />
<glyph unicode="&#xc7;" horiz-adv-x="792" d="M51 336v762q0 150 100.5 243t258.5 93q162 0 252 -89.5t90 -246.5v-131q0 -10 -6.5 -15.5t-41 -9.5t-108.5 -4q-117 0 -127 6q-8 4 -8 14v119q0 59 -51 60q-12 0 -21.5 -3.5t-15.5 -11.5t-9.5 -15t-4.5 -21.5t-1 -22.5v-25.5v-23.5v-594v-23.5v-26t1 -22.5t4.5 -21.5 t9.5 -15.5t15 -11t22 -3q51 0 51 59v93q0 27 17.5 30.5t101.5 3.5h36h55.5t38 -4t24.5 -4t14 -8l4 -10v-15v-18v-88q0 -156 -87 -242t-169 -86q-10 0 -11 -71q0 -92 -64.5 -160t-156.5 -68q-10 0 -10 60q0 92 6 92q31 0 59.5 19.5t28.5 51.5q0 70 -6 70q-20 0 -62 15.5 t-96.5 49t-93.5 104.5t-39 165z" />
<glyph unicode="&#xc8;" horiz-adv-x="718" d="M82 78v1294q0 27 14 45q12 16 47 17h510q18 0 21.5 -18.5t3.5 -112.5q0 -113 -3 -134.5t-24 -21.5h-205q-39 0 -47 -10q-10 -14 -10 -39v-150q0 -43 12 -53q12 -8 45 -8h101q18 0 20 -18.5t2 -127.5v-45q0 -94 -22 -94h-92q-39 0 -52 -6q-14 -10 -14 -59v-170 q0 -66 10 -72q14 -8 62 -8h194q18 0 22.5 -19.5t4.5 -117.5q0 -109 -4 -129.5t-21 -20.5h-481q-72 0 -82 8q-12 10 -12 70zM188 1671q10 20 43 111q6 27 68 8q215 -80 252 -90q41 -16 62.5 -33t15.5 -31q-35 -94 -37 -120q-4 -33 -47 -19l-326 121q-12 2 -26.5 19.5 t-4.5 33.5z" />
<glyph unicode="&#xc9;" horiz-adv-x="718" d="M82 78v1294q0 27 14 45q12 16 47 17h510q18 0 21.5 -18.5t3.5 -112.5q0 -113 -3 -134.5t-24 -21.5h-205q-39 0 -47 -10q-10 -14 -10 -39v-150q0 -43 12 -53q12 -8 45 -8h101q18 0 20 -18.5t2 -127.5v-45q0 -94 -22 -94h-92q-39 0 -52 -6q-14 -10 -14 -59v-170 q0 -66 10 -72q14 -8 62 -8h194q18 0 22.5 -19.5t4.5 -117.5q0 -109 -4 -129.5t-21 -20.5h-481q-72 0 -82 8q-12 10 -12 70zM233 1638q-6 14 15.5 31t62.5 33q37 10 252 90q61 18 68 -8q33 -91 43 -111q10 -16 -4.5 -33.5t-26.5 -19.5l-326 -121q-43 -14 -47 19 q-2 27 -37 120z" />
<glyph unicode="&#xca;" horiz-adv-x="718" d="M82 78v1294q0 27 14 45q12 16 47 17h510q18 0 21.5 -18.5t3.5 -112.5q0 -113 -3 -134.5t-24 -21.5h-205q-39 0 -47 -10q-10 -14 -10 -39v-150q0 -43 12 -53q12 -8 45 -8h101q18 0 20 -18.5t2 -127.5v-45q0 -94 -22 -94h-92q-39 0 -52 -6q-14 -10 -14 -59v-170 q0 -66 10 -72q14 -8 62 -8h194q18 0 22.5 -19.5t4.5 -117.5q0 -109 -4 -129.5t-21 -20.5h-481q-72 0 -82 8q-12 10 -12 70zM123 1651q14 20 133 102q20 14 46 33.5t40 31t29.5 19.5t27.5 8q8 0 19.5 -6t27 -17.5t29.5 -23.5t37 -30.5t39 -32.5q111 -87 119 -101 q6 -8 -5.5 -31.5t-26.5 -50t-17 -32.5q-4 -16 -15.5 -22.5t-34.5 11.5q-18 18 -43.5 44t-44 44.5t-37 36t-29.5 26.5t-16 9q-10 0 -174 -156q-39 -37 -49 11q-2 6 -19.5 35.5t-29.5 56t-6 35.5z" />
<glyph unicode="&#xcb;" horiz-adv-x="718" d="M82 78v1294q0 27 14 45q12 16 47 17h510q18 0 21.5 -18.5t3.5 -112.5q0 -113 -3 -134.5t-24 -21.5h-205q-39 0 -47 -10q-10 -14 -10 -39v-150q0 -43 12 -53q12 -8 45 -8h101q18 0 20 -18.5t2 -127.5v-45q0 -94 -22 -94h-92q-39 0 -52 -6q-14 -10 -14 -59v-170 q0 -66 10 -72q14 -8 62 -8h194q18 0 22.5 -19.5t4.5 -117.5q0 -109 -4 -129.5t-21 -20.5h-481q-72 0 -82 8q-12 10 -12 70zM100 1611.5q-6 59.5 32 106.5t91 39q61 -6 89 -25.5t28 -48v-65.5q-4 -51 -36 -87t-81 -38q-68 -6 -92.5 26.5t-30.5 92zM442.5 1611.5 q-6.5 59.5 31.5 106.5t91 39q61 -6 89 -25.5t28 -48v-65.5q-4 -51 -36 -87t-81 -38q-68 -6 -92 26.5t-30.5 92z" />
<glyph unicode="&#xcc;" horiz-adv-x="471" d="M29 1671q10 20 43 111q6 27 67 8q215 -80 252 -90q41 -16 62.5 -33t15.5 -31q-35 -94 -37 -120q-4 -33 -47 -19l-326 121q-12 2 -26.5 19.5t-3.5 33.5zM82 31v1364q0 27 18.5 32t128.5 5q119 0 139.5 -5.5t20.5 -33.5v-1358q0 -25 -21.5 -30t-138.5 -5q-109 0 -128 4 t-19 27z" />
<glyph unicode="&#xcd;" horiz-adv-x="471" d="M82 31v1364q0 27 18.5 32t128.5 5q119 0 139.5 -5.5t20.5 -33.5v-1358q0 -25 -21.5 -30t-138.5 -5q-109 0 -128 4t-19 27zM90 1636q-6 14 15.5 30.5t62.5 33.5q37 10 252 90q61 18 67 -8q33 -91 43 -111q10 -16 -4 -33.5t-26 -19.5l-326 -121q-43 -14 -47 19 q-2 27 -37 120z" />
<glyph unicode="&#xce;" horiz-adv-x="471" d="M-29 1632q14 20 133 103q20 14 46 33.5t40.5 30.5t30 19.5t27.5 8.5q8 0 19.5 -6t26.5 -17.5t29.5 -24t37 -30.5t38.5 -33q111 -86 119 -100q6 -8 -5 -31.5t-26.5 -50.5t-17.5 -33q-4 -16 -15.5 -22t-33.5 12l-44 44t-44.5 44t-37 35.5t-29.5 27t-15 9.5q-10 0 -174 -156 q-39 -37 -49 10q-2 6 -19.5 36t-30 56.5t-6.5 34.5zM82 31v1364q0 27 18.5 32t128.5 5q119 0 139.5 -5.5t20.5 -33.5v-1358q0 -25 -21.5 -30t-138.5 -5q-109 0 -128 4t-19 27z" />
<glyph unicode="&#xcf;" horiz-adv-x="471" d="M-39 1611.5q-6 59.5 32 106.5t91 39q61 -6 89 -25.5t28 -48v-65.5q-4 -51 -36 -87t-81 -38q-68 -6 -92.5 26.5t-30.5 92zM82 31v1364q0 27 18.5 32t128.5 5q119 0 139.5 -5.5t20.5 -33.5v-1358q0 -25 -21.5 -30t-138.5 -5q-109 0 -128 4t-19 27zM303 1611.5 q-6 59.5 32 106.5t91 39q61 -6 89 -25.5t28 -48v-65.5q-4 -51 -36 -87t-81 -38q-68 -6 -92.5 26.5t-30.5 92z" />
<glyph unicode="&#xd0;" horiz-adv-x="870" d="M20 627v200q0 18 12.5 24.5t51.5 6.5q18 0 18 10v504q0 45 8.5 53.5t53.5 8.5h297q164 0 261 -90.5t97 -245.5v-762q0 -156 -97 -246t-261 -90h-297q-47 0 -54.5 7t-7.5 54v512q0 14 -34 15q-29 0 -38.5 8t-9.5 31zM401 322q0 -18 8.5 -21.5t51.5 -3.5q27 0 39 19.5 t14 38t2 55.5v10v594v10q0 37 -2 55.5t-14.5 38t-38.5 19.5h-10q-35 0 -42.5 -3.5t-7.5 -21.5v-256q0 -4 33 -7t33 -24q0 -4 -1 -45t-1 -85t2 -77q0 -33 -39 -32q-27 0 -27 -17v-247z" />
<glyph unicode="&#xd1;" horiz-adv-x="946" d="M82 31v1364q0 29 16.5 33t122.5 4q88 0 107.5 -6.5t27.5 -32.5q80 -285 164 -533q16 -55 29 -55q16 0 16 84v506q0 27 18.5 32t129.5 5q117 0 134 -5.5t17 -33.5v-1358q0 -25 -14 -29q-18 -6 -137 -6q-82 0 -95 10q-8 6 -12 21q-35 100 -168 547q-27 90 -43 90 q-14 0 -14 -103v-530q0 -25 -21.5 -30t-138.5 -5q-106 0 -122.5 4t-16.5 27zM244 1614q-12 20 90 90q61 41 88 41q49 0 74 -23q10 -10 22 -25.5t20.5 -20.5t20.5 -5q20 0 74 64q16 18 30.5 12t18.5 -23q4 -12 27.5 -55t25.5 -45q6 -8 -6 -21.5t-45 -39t-41 -31.5 q-45 -37 -84 -37q-49 0 -74 25q-8 8 -17 19t-13 14t-12.5 6.5t-18.5 3.5q-12 0 -18.5 -4.5t-22.5 -21.5t-39 -36q-16 -12 -30.5 -8t-18.5 18q-2 8 -12.5 29t-23.5 44.5t-15 29.5z" />
<glyph unicode="&#xd2;" horiz-adv-x="819" d="M51 336v762q0 150 100.5 243t258.5 93q164 0 261 -90.5t97 -245.5v-762q0 -156 -97.5 -246t-260.5 -90q-158 0 -258.5 93t-100.5 243zM197 1671q10 20 43 111q6 27 67 8q215 -80 252 -90q41 -16 62.5 -33t15.5 -31q-35 -94 -37 -120q-4 -33 -47 -19l-326 121 q-12 2 -26.5 19.5t-3.5 33.5zM358 370.5q0 -8.5 1 -22.5t4.5 -21.5t9.5 -15.5t15 -11t22 -3q10 0 17 2t12 7t9.5 10.5t6.5 13.5t4 15t2 18.5v17.5v19.5v19.5v594v19.5v19.5v17t-2 18.5t-4 15.5t-6.5 13t-9.5 10.5t-12 7.5t-17 2q-12 0 -21.5 -3.5t-15.5 -11.5t-9.5 -15 t-4.5 -21.5t-1 -22.5v-25.5v-23.5v-594v-23.5v-26z" />
<glyph unicode="&#xd3;" horiz-adv-x="819" d="M51 336v762q0 150 100.5 243t258.5 93q164 0 261 -90.5t97 -245.5v-762q0 -156 -97.5 -246t-260.5 -90q-158 0 -258.5 93t-100.5 243zM178 1636q-6 14 15.5 30.5t62.5 33.5q37 10 252 90q61 18 67 -8q33 -91 43 -111q10 -16 -4 -33.5t-26 -19.5l-326 -121q-43 -14 -47 19 q-2 27 -37 120zM358 370.5q0 -8.5 1 -22.5t4.5 -21.5t9.5 -15.5t15 -11t22 -3q10 0 17 2t12 7t9.5 10.5t6.5 13.5t4 15t2 18.5v17.5v19.5v19.5v594v19.5v19.5v17t-2 18.5t-4 15.5t-6.5 13t-9.5 10.5t-12 7.5t-17 2q-12 0 -21.5 -3.5t-15.5 -11.5t-9.5 -15t-4.5 -21.5 t-1 -22.5v-25.5v-23.5v-594v-23.5v-26z" />
<glyph unicode="&#xd4;" horiz-adv-x="819" d="M51 336v762q0 150 100.5 243t258.5 93q164 0 261 -90.5t97 -245.5v-762q0 -156 -97.5 -246t-260.5 -90q-158 0 -258.5 93t-100.5 243zM145 1630q14 20 134 103q20 14 45.5 33.5t40 30.5t30 19.5t27.5 8.5q8 0 19.5 -6.5t26.5 -17.5t29.5 -23.5t37 -30.5t38.5 -33 q111 -86 119 -100q6 -8 -5 -31.5t-26.5 -50.5t-17.5 -33q-4 -16 -15.5 -22.5t-33.5 12.5l-44 44t-44.5 44t-36.5 35.5t-29.5 27t-15.5 9.5q-10 0 -174 -156q-39 -37 -49 10q-2 6 -19.5 36t-30 56.5t-6.5 34.5zM358 370.5q0 -8.5 1 -22.5t4.5 -21.5t9.5 -15.5t15 -11t22 -3 q10 0 17 2t12 7t9.5 10.5t6.5 13.5t4 15t2 18.5v17.5v19.5v19.5v594v19.5v19.5v17t-2 18.5t-4 15.5t-6.5 13t-9.5 10.5t-12 7.5t-17 2q-12 0 -21.5 -3.5t-15.5 -11.5t-9.5 -15t-4.5 -21.5t-1 -22.5v-25.5v-23.5v-594v-23.5v-26z" />
<glyph unicode="&#xd5;" horiz-adv-x="819" d="M51 336v762q0 150 100.5 243t258.5 93q164 0 261 -90.5t97 -245.5v-762q0 -156 -97.5 -246t-260.5 -90q-158 0 -258.5 93t-100.5 243zM180 1614q-12 20 90 90q61 41 88 41q49 0 74 -23q10 -10 22.5 -25.5t20.5 -20.5t21 -5q20 0 73 64q16 18 30.5 12t18.5 -23 q4 -12 28 -55t26 -45q6 -8 -6.5 -21.5t-45 -39t-40.5 -31.5q-45 -37 -84 -37q-49 0 -74 25q-8 8 -17.5 19t-13.5 14t-12 6.5t-19 3.5q-12 0 -18 -4.5t-22.5 -21.5t-38.5 -36q-16 -12 -30.5 -8t-19.5 18q-2 8 -12 29t-23.5 44.5t-15.5 29.5zM358 370.5q0 -8.5 1 -22.5 t4.5 -21.5t9.5 -15.5t15 -11t22 -3q10 0 17 2t12 7t9.5 10.5t6.5 13.5t4 15t2 18.5v17.5v19.5v19.5v594v19.5v19.5v17t-2 18.5t-4 15.5t-6.5 13t-9.5 10.5t-12 7.5t-17 2q-12 0 -21.5 -3.5t-15.5 -11.5t-9.5 -15t-4.5 -21.5t-1 -22.5v-25.5v-23.5v-594v-23.5v-26z" />
<glyph unicode="&#xd6;" horiz-adv-x="819" d="M51 336v762q0 150 100.5 243t258.5 93q164 0 261 -90.5t97 -245.5v-762q0 -156 -97.5 -246t-260.5 -90q-158 0 -258.5 93t-100.5 243zM123 1613.5q-6 59.5 32 106.5t91 39q61 -6 88.5 -25.5t27.5 -48v-65.5q-4 -51 -35.5 -87t-80.5 -38q-68 -6 -92.5 26.5t-30.5 92z M358 370.5q0 -8.5 1 -22.5t4.5 -21.5t9.5 -15.5t15 -11t22 -3q10 0 17 2t12 7t9.5 10.5t6.5 13.5t4 15t2 18.5v17.5v19.5v19.5v594v19.5v19.5v17t-2 18.5t-4 15.5t-6.5 13t-9.5 10.5t-12 7.5t-17 2q-12 0 -21.5 -3.5t-15.5 -11.5t-9.5 -15t-4.5 -21.5t-1 -22.5v-25.5v-23.5 v-594v-23.5v-26zM465 1613.5q-6 59.5 32 106.5t91 39q61 -6 89 -25.5t28 -48v-65.5q-4 -51 -36 -87t-81 -38q-68 -6 -92.5 26.5t-30.5 92z" />
<glyph unicode="&#xd7;" horiz-adv-x="890" d="M31 735q0 72 5 88.5t27 16.5h87q18 0 21 6t3 26v283q0 18 19.5 35.5t35.5 17.5h101q16 0 16 15v180q0 31 103 31q37 0 54 -2t29.5 -9.5t12.5 -21.5v-176q0 -16 20 -17h101q18 0 34.5 -18.5t16.5 -44.5v-279q0 -10 1 -15t6 -8t17 -3h88q23 0 27 -15.5t4 -89.5v-14 q0 -80 -26 -80h-91q-18 0 -22 -5t-4 -22v-317q0 -33 -12.5 -52.5t-30.5 -19.5h-115q-14 0 -14 -18v-176q0 -23 -13.5 -27t-82.5 -4q-92 0 -99 8q-4 6 -4 19v184q0 14 -12 14h-103q-25 0 -41 15.5t-16 33.5v340v13.5t-3 7.5t-8 5t-16 1h-86q-20 0 -25 17.5t-5 76.5zM373 459 q0 -35 35 -35h75q35 0 35 35v520q0 31 -22 31h-101q-23 0 -22 -31v-520z" />
<glyph unicode="&#xd8;" horiz-adv-x="819" d="M51 336v762q0 150 100.5 243t258.5 93q80 0 141 -21q23 -6 25 -5t8 13q10 27 24.5 72t18.5 55q8 27 63 27q25 0 46.5 -11.5t15.5 -27.5l-60 -178q-8 -29 0 -37q76 -80 76 -223v-762q0 -156 -97.5 -246t-260.5 -90q-76 0 -144 25q-20 8 -28 -13q-10 -27 -24.5 -68.5 t-18.5 -56.5q-10 -31 -66 -30q-14 0 -30.5 3t-29 9t-10.5 14l70 199q8 25 -10 47q-68 86 -68 207zM358 346q0 -18 13.5 -33.5t38.5 -15.5q10 0 17 2t12 7t9.5 10.5t6.5 13.5t4 15t2 18.5v17.5v19.5v19.5v667q0 49 -51 50q-12 0 -21.5 -3.5t-15.5 -11.5t-9.5 -15t-4.5 -21.5 t-1 -22.5v-25.5v-23.5v-668z" />
<glyph unicode="&#xd9;" d="M61 336v1057q0 31 21.5 36t144.5 5q119 0 133 -15q8 -8 9 -26v-973v-23.5v-26t1 -22.5t4 -21.5t9 -15.5t15.5 -11t21.5 -3q10 0 17 2t12.5 7t9.5 10.5t6 13.5t4 15t2 18.5v17.5v19.5v19.5v973q0 31 19.5 36t121.5 5q80 0 116 -4.5t43 -11.5t7 -25v-1057q0 -156 -97 -246 t-261 -90q-158 0 -258.5 93t-100.5 243zM215 1673q10 20 43 111q6 27 68 8q215 -80 252 -90q41 -16 62 -33t15 -31q-35 -94 -37 -120q-4 -33 -47 -19l-325 121q-12 2 -26.5 19.5t-4.5 33.5z" />
<glyph unicode="&#xda;" d="M61 336v1057q0 31 21.5 36t144.5 5q119 0 133 -15q8 -8 9 -26v-973v-23.5v-26t1 -22.5t4 -21.5t9 -15.5t15.5 -11t21.5 -3q10 0 17 2t12.5 7t9.5 10.5t6 13.5t4 15t2 18.5v17.5v19.5v19.5v973q0 31 19.5 36t121.5 5q80 0 116 -4.5t43 -11.5t7 -25v-1057q0 -156 -97 -246 t-261 -90q-158 0 -258.5 93t-100.5 243zM221 1636q-6 14 15.5 30.5t62.5 33.5q37 10 252 90q61 18 67 -8q34 -91 44 -111q10 -16 -4.5 -33.5t-26.5 -19.5l-326 -121q-43 -14 -47 19q-2 27 -37 120z" />
<glyph unicode="&#xdb;" d="M61 336v1057q0 31 21.5 36t144.5 5q119 0 133 -15q8 -8 9 -26v-973v-23.5v-26t1 -22.5t4 -21.5t9 -15.5t15.5 -11t21.5 -3q10 0 17 2t12.5 7t9.5 10.5t6 13.5t4 15t2 18.5v17.5v19.5v19.5v973q0 31 19.5 36t121.5 5q80 0 116 -4.5t43 -11.5t7 -25v-1057q0 -156 -97 -246 t-261 -90q-158 0 -258.5 93t-100.5 243zM145 1626q14 20 134 103q20 14 45.5 33.5t40 30.5t30 19.5t27.5 8.5q8 0 19.5 -6.5t26.5 -17.5t29.5 -23.5t37 -31t38.5 -32.5q111 -86 119 -100q6 -8 -5 -32t-26.5 -50.5t-17.5 -32.5q-4 -16 -15.5 -22.5t-33.5 12.5 q-18 18 -44 43.5t-44.5 44t-36.5 36t-29.5 27t-15.5 9.5q-10 0 -174 -156q-39 -37 -49 10q-2 6 -19.5 36t-30 56.5t-6.5 34.5z" />
<glyph unicode="&#xdc;" d="M61 336v1057q0 31 21.5 36t144.5 5q119 0 133 -15q8 -8 9 -26v-973v-23.5v-26t1 -22.5t4 -21.5t9 -15.5t15.5 -11t21.5 -3q10 0 17 2t12.5 7t9.5 10.5t6 13.5t4 15t2 18.5v17.5v19.5v19.5v973q0 31 19.5 36t121.5 5q80 0 116 -4.5t43 -11.5t7 -25v-1057q0 -156 -97 -246 t-261 -90q-158 0 -258.5 93t-100.5 243zM139 1611.5q-6 59.5 32 106.5t91 39q61 -6 89 -25.5t28 -48v-65.5q-4 -51 -36 -87t-81 -38q-68 -6 -92.5 26.5t-30.5 92zM481 1611.5q-6 59.5 32 106.5t91 39q61 -6 89 -25.5t28 -48v-65.5q-4 -51 -36 -87t-81 -38q-68 -6 -92.5 26.5 t-30.5 92z" />
<glyph unicode="&#xdd;" horiz-adv-x="835" d="M41 1403q-4 16 42 22.5t95 6.5q162 0 166 -33q12 -88 35.5 -247t36.5 -243q0 -18 12 -18q10 0 10 20q14 104 35 266t29 222q4 33 153 33q27 0 47.5 -1t45 -3.5t37 -8.5t10.5 -16q-111 -436 -181 -662q-6 -20 -15 -61t-13 -57q-10 -31 -11 -119v-488q0 -16 -153.5 -16 t-153.5 23q0 80 1 230t1 245q0 88 -2 100q0 2 -32 121q-16 57 -87 301t-108 383zM295 1636q-6 14 15.5 30.5t62.5 33.5q37 10 252 90q61 18 67 -8q33 -91 43 -111q10 -16 -4 -33.5t-26 -19.5l-326 -121q-43 -14 -47 19q-2 27 -37 120z" />
<glyph unicode="&#xde;" d="M82 61v1311q0 45 8 53.5t53 8.5h215q31 0 31 -121q0 -49 8.5 -75t17.5 -30t25 -4q164 0 261.5 -90t97.5 -246v-270q0 -156 -97.5 -246t-261.5 -90q-27 0 -39 -16.5t-12 -69.5v-141q0 -35 -123 -35h-35q-119 0 -135 14q-14 10 -14 47zM389 563q0 -20 5 -22t46 -2 q10 0 17.5 2t12.5 7t9 10t6 13.5t4.5 15.5t2.5 18v17.5v20v19.5v122v19.5v19.5v17.5t-2.5 18.5t-4.5 15.5t-6 13.5t-9 10t-12 7t-18 2q-41 0 -46 -2t-5 -22v-320z" />
<glyph unicode="&#xdf;" horiz-adv-x="872" d="M82 25v1073q0 150 100.5 243t257.5 93q164 0 261.5 -90.5t97.5 -245.5v-176q0 -78 -45 -123q-14 -14 -33 -23.5t-31 -13.5t-14 -6l14 -4q14 -4 32.5 -13.5t33.5 -25.5q43 -47 43 -135v-242q0 -158 -93.5 -247t-254.5 -89q-6 0 -10.5 5t-6.5 21.5t-3 44t-1 79.5 q0 147 21 147q27 0 42 20.5t17 43t2 59.5v110q0 123 -72 123q-12 0 -12 95q0 90 12 90q72 0 72 123v53q0 66 -12.5 94.5t-53.5 28.5q-27 0 -40 -17.5t-15 -39t-2 -66.5v-991q0 -23 -143 -27q-164 -8 -164 29z" />
<glyph unicode="&#xe0;" horiz-adv-x="819" d="M41 336v311q0 176 82 256t201 80q45 0 86 -27.5t59 -60.5q12 -18 12 12v31q0 8 1 15.5t2 12.5t5.5 8t8.5 5t12 3t15 2t20.5 1t26 -1t31 -1h36.5h51q43 2 55.5 -1t12.5 -17v-947q0 -14 -11.5 -17t-56.5 -1h-51h-36.5t-31 -1t-26 -1t-20.5 1t-15 2t-12 3t-8.5 5t-5.5 8.5 t-2 12.5t-1 15q0 43 -4 43q-4 2 -10 -8q-16 -31 -56 -55.5t-85 -24.5q-119 0 -202 80t-83 256zM166 1268q10 20 43 110q6 27 67 8q215 -80 252 -90q41 -16 62.5 -32.5t15.5 -30.5q-35 -94 -37 -121q-4 -33 -47 -18l-325 120q-12 2 -26.5 19.5t-4.5 34.5zM338 393 q0 -8 1 -23.5t3 -23.5t6 -18.5t11.5 -15.5t17.5 -9t22 -4q14 0 25.5 4t19 13.5t11.5 17.5t5 25.5t1 26.5v30.5v29.5v91v29.5v30.5t-1 26.5t-5 25.5t-11.5 17.5t-18.5 13.5t-26 4q-12 0 -22 -4t-17.5 -9t-11.5 -15.5t-6 -18.5t-3 -23.5t-1 -23.5v-26.5v-26.5v-91v-26.5v-26.5 z" />
<glyph unicode="&#xe1;" horiz-adv-x="819" d="M41 336v311q0 176 82 256t201 80q45 0 86 -27.5t59 -60.5q12 -18 12 12v31q0 8 1 15.5t2 12.5t5.5 8t8.5 5t12 3t15 2t20.5 1t26 -1t31 -1h36.5h51q43 2 55.5 -1t12.5 -17v-947q0 -14 -11.5 -17t-56.5 -1h-51h-36.5t-31 -1t-26 -1t-20.5 1t-15 2t-12 3t-8.5 5t-5.5 8.5 t-2 12.5t-1 15q0 43 -4 43q-4 2 -10 -8q-16 -31 -56 -55.5t-85 -24.5q-119 0 -202 80t-83 256zM238 1231q-6 14 15 30.5t62 32.5q37 10 252 90q61 18 68 -8q33 -90 43 -110q10 -16 -4.5 -34t-26.5 -20l-325 -120q-43 -14 -48 18q-2 27 -36 121zM338 393q0 -8 1 -23.5 t3 -23.5t6 -18.5t11.5 -15.5t17.5 -9t22 -4q14 0 25.5 4t19 13.5t11.5 17.5t5 25.5t1 26.5v30.5v29.5v91v29.5v30.5t-1 26.5t-5 25.5t-11.5 17.5t-18.5 13.5t-26 4q-12 0 -22 -4t-17.5 -9t-11.5 -15.5t-6 -18.5t-3 -23.5t-1 -23.5v-26.5v-26.5v-91v-26.5v-26.5z" />
<glyph unicode="&#xe2;" horiz-adv-x="819" d="M41 336v311q0 176 82 256t201 80q45 0 86 -27.5t59 -60.5q12 -18 12 12v31q0 8 1 15.5t2 12.5t5.5 8t8.5 5t12 3t15 2t20.5 1t26 -1t31 -1h36.5h51q43 2 55.5 -1t12.5 -17v-947q0 -14 -11.5 -17t-56.5 -1h-51h-36.5t-31 -1t-26 -1t-20.5 1t-15 2t-12 3t-8.5 5t-5.5 8.5 t-2 12.5t-1 15q0 43 -4 43q-4 2 -10 -8q-16 -31 -56 -55.5t-85 -24.5q-119 0 -202 80t-83 256zM141 1214q14 20 133 103q20 14 46 33.5t40.5 31t30 19.5t27.5 8q8 0 19.5 -6t26.5 -17.5t29.5 -23.5t37 -30.5t38.5 -33.5q111 -86 119 -100q6 -8 -5 -31.5t-26.5 -50 t-17.5 -33.5q-4 -16 -15.5 -22t-33.5 12l-44 44l-44.5 44.5t-37 35.5t-29.5 26.5t-15 9.5q-10 0 -174 -156q-39 -37 -49 10q-2 6 -19.5 36t-30 56.5t-6.5 34.5zM338 393q0 -8 1 -23.5t3 -23.5t6 -18.5t11.5 -15.5t17.5 -9t22 -4q14 0 25.5 4t19 13.5t11.5 17.5t5 25.5 t1 26.5v30.5v29.5v91v29.5v30.5t-1 26.5t-5 25.5t-11.5 17.5t-18.5 13.5t-26 4q-12 0 -22 -4t-17.5 -9t-11.5 -15.5t-6 -18.5t-3 -23.5t-1 -23.5v-26.5v-26.5v-91v-26.5v-26.5z" />
<glyph unicode="&#xe3;" horiz-adv-x="819" d="M41 336v311q0 176 82 256t201 80q45 0 86 -27.5t59 -60.5q12 -18 12 12v31q0 8 1 15.5t2 12.5t5.5 8t8.5 5t12 3t15 2t20.5 1t26 -1t31 -1h36.5h51q43 2 55.5 -1t12.5 -17v-947q0 -14 -11.5 -17t-56.5 -1h-51h-36.5t-31 -1t-26 -1t-20.5 1t-15 2t-12 3t-8.5 5t-5.5 8.5 t-2 12.5t-1 15q0 43 -4 43q-4 2 -10 -8q-16 -31 -56 -55.5t-85 -24.5q-119 0 -202 80t-83 256zM182 1208q-12 20 90 90q61 41 88 41q49 0 74 -22q10 -10 22.5 -25.5t20.5 -20.5t21 -5q20 0 73 63q16 18 30.5 12t19.5 -22q4 -12 27.5 -55t25.5 -45q6 -8 -6.5 -21.5t-45 -39 t-40.5 -32.5q-45 -37 -84 -36q-49 0 -74 24q-8 8 -17.5 19.5t-13.5 14.5t-12 6t-19 3q-12 0 -18 -4t-22.5 -21.5t-38.5 -35.5q-16 -12 -30.5 -8t-19.5 18zM338 393q0 -8 1 -23.5t3 -23.5t6 -18.5t11.5 -15.5t17.5 -9t22 -4q14 0 25.5 4t19 13.5t11.5 17.5t5 25.5t1 26.5 v30.5v29.5v91v29.5v30.5t-1 26.5t-5 25.5t-11.5 17.5t-18.5 13.5t-26 4q-12 0 -22 -4t-17.5 -9t-11.5 -15.5t-6 -18.5t-3 -23.5t-1 -23.5v-26.5v-26.5v-91v-26.5v-26.5z" />
<glyph unicode="&#xe4;" horiz-adv-x="819" d="M41 336v311q0 176 82 256t201 80q45 0 86 -27.5t59 -60.5q12 -18 12 12v31q0 8 1 15.5t2 12.5t5.5 8t8.5 5t12 3t15 2t20.5 1t26 -1t31 -1h36.5h51q43 2 55.5 -1t12.5 -17v-947q0 -14 -11.5 -17t-56.5 -1h-51h-36.5t-31 -1t-26 -1t-20.5 1t-15 2t-12 3t-8.5 5t-5.5 8.5 t-2 12.5t-1 15q0 43 -4 43q-4 2 -10 -8q-16 -31 -56 -55.5t-85 -24.5q-119 0 -202 80t-83 256zM143.5 1208.5q-6.5 59.5 31.5 106.5t91 39q61 -6 89 -25.5t28 -48.5v-66q-4 -51 -36 -86.5t-81 -37.5q-68 -6 -92 26.5t-30.5 92zM338 393q0 -8 1 -23.5t3 -23.5t6 -18.5 t11.5 -15.5t17.5 -9t22 -4q14 0 25.5 4t19 13.5t11.5 17.5t5 25.5t1 26.5v30.5v29.5v91v29.5v30.5t-1 26.5t-5 25.5t-11.5 17.5t-18.5 13.5t-26 4q-12 0 -22 -4t-17.5 -9t-11.5 -15.5t-6 -18.5t-3 -23.5t-1 -23.5v-26.5v-26.5v-91v-26.5v-26.5zM485.5 1208.5 q-6.5 59.5 31.5 106.5t91 39q61 -6 89 -25.5t28 -48.5v-66q-4 -51 -36 -86.5t-81 -37.5q-68 -6 -92 26.5t-30.5 92z" />
<glyph unicode="&#xe5;" horiz-adv-x="819" d="M41 336v311q0 176 82 256t201 80q45 0 86 -27.5t59 -60.5q12 -18 12 12v31q0 8 1 15.5t2 12.5t5.5 8t8.5 5t12 3t15 2t20.5 1t26 -1t31 -1h36.5h51q43 2 55.5 -1t12.5 -17v-947q0 -14 -11.5 -17t-56.5 -1h-51h-36.5t-31 -1t-26 -1t-20.5 1t-15 2t-12 3t-8.5 5t-5.5 8.5 t-2 12.5t-1 15q0 43 -4 43q-4 2 -10 -8q-16 -31 -56 -55.5t-85 -24.5q-119 0 -202 80t-83 256zM252 1239q6 74 29.5 107.5t58.5 33.5h78q61 -4 104 -43t45 -98q6 -82 -31.5 -110.5t-109.5 -37t-129 38t-45 109.5zM338 393q0 -8 1 -23.5t3 -23.5t6 -18.5t11.5 -15.5t17.5 -9 t22 -4q14 0 25.5 4t19 13.5t11.5 17.5t5 25.5t1 26.5v30.5v29.5v91v29.5v30.5t-1 26.5t-5 25.5t-11.5 17.5t-18.5 13.5t-26 4q-12 0 -22 -4t-17.5 -9t-11.5 -15.5t-6 -18.5t-3 -23.5t-1 -23.5v-26.5v-26.5v-91v-26.5v-26.5zM342 1239q-4 -29 21.5 -49.5t56.5 -15.5 q20 2 31.5 6t21.5 18t8 41q-2 25 -19.5 41t-43.5 20q-27 0 -37 -1t-22.5 -15t-16.5 -45z" />
<glyph unicode="&#xe6;" horiz-adv-x="1214" d="M41 311q0 94 66.5 180.5t197.5 86.5q55 0 92 -13.5t46.5 -21.5t9.5 -6v49q0 129 -70 129q-33 0 -47 -24.5t-14 -47.5q0 -10 -69 -14t-137.5 1t-68.5 17q0 135 90 235.5t242 100.5q66 0 113 -16.5t65 -35t31.5 -34.5t17.5 -16q6 0 19.5 16t31 34.5t64.5 35t115 16.5 q160 0 249 -88t89 -248v-174q0 -20 -6.5 -24.5t-37.5 -4.5h-329q-18 0 -22.5 -9t-4.5 -40q0 -47 2 -69q6 -47 60 -47q61 0 61 77q0 12 16.5 14.5t96.5 2.5h32q132 0 132 -37q0 -160 -89.5 -248t-248.5 -88q-68 0 -116 14.5t-67.5 30.5t-33 30.5t-17.5 14.5t-11 -9 t-22.5 -22.5t-39 -27t-65.5 -22.5t-97 -9q-158 0 -242 88t-84 223zM313 301q0 -45 19.5 -71.5t46.5 -26.5q72 0 72 45v96q0 20 -20.5 37.5t-51.5 17.5q-66 0 -66 -98zM774 641q0 -49 9.5 -61.5t52.5 -12.5t52 13.5t9 64.5q0 98 -61 98q-31 0 -46.5 -22.5t-15.5 -79.5z" />
<glyph unicode="&#xe7;" horiz-adv-x="788" d="M41 336v311q0 150 100.5 243t257.5 93q164 0 261.5 -90t97.5 -246q0 -25 -23.5 -29t-150.5 -4q-96 0 -114.5 3.5t-18.5 17.5q0 8 -3.5 17.5t-15.5 21.5t-33 12q-12 0 -21 -3t-15.5 -11t-9.5 -15.5t-4 -21.5t-1 -22.5v-26v-23.5v-143v-23.5v-26t1 -22.5t4 -21.5t9.5 -15.5 t15.5 -11t21 -3q27 0 39.5 18.5t12.5 32.5t6 19.5t39.5 9.5t105.5 4q109 0 132.5 -7t23.5 -38q0 -158 -94.5 -243t-178.5 -85q-10 0 -10 -71q0 -92 -64.5 -160t-156.5 -68q-10 0 -10 60q0 92 6 92q31 0 59.5 19.5t28.5 51.5q0 70 -6 70q-20 0 -62.5 15.5t-96.5 49t-93 104.5 t-39 165z" />
<glyph unicode="&#xe8;" horiz-adv-x="798" d="M41 336v311q0 150 100.5 243t257.5 93q164 0 261.5 -90t97.5 -246v-174q0 -20 -6.5 -24.5t-36.5 -4.5h-344h-6q-10 0 -15.5 -1t-8.5 -8t-3 -21v-22.5v-23v-20.5t2 -20t5 -15.5t7 -14.5t11.5 -10t15.5 -7t20 -2q61 0 62 81q0 12 98 13h35h33q131 0 131 -37 q0 -156 -97.5 -246t-261.5 -90q-158 0 -258 93t-100 243zM172 1251q10 20 43 111q6 27 68 8q215 -80 252 -90q41 -16 62 -32.5t15 -30.5q-35 -94 -37 -121q-4 -33 -47 -19l-325 121q-12 2 -26.5 19.5t-4.5 33.5zM338 641q0 -49 9 -61.5t52 -12.5t52.5 13.5t9.5 64.5 q0 98 -62 98q-31 0 -46 -22.5t-15 -79.5z" />
<glyph unicode="&#xe9;" horiz-adv-x="798" d="M41 336v311q0 150 100.5 243t257.5 93q164 0 261.5 -90t97.5 -246v-174q0 -20 -6.5 -24.5t-36.5 -4.5h-344h-6q-10 0 -15.5 -1t-8.5 -8t-3 -21v-22.5v-23v-20.5t2 -20t5 -15.5t7 -14.5t11.5 -10t15.5 -7t20 -2q61 0 62 81q0 12 98 13h35h33q131 0 131 -37 q0 -156 -97.5 -246t-261.5 -90q-158 0 -258 93t-100 243zM215 1214q-6 14 15.5 31t62.5 33q37 10 252 90q61 18 67 -8q33 -91 43 -111q10 -16 -4 -33.5t-26 -19.5l-326 -121q-43 -14 -47 19q-2 27 -37 120zM338 641q0 -49 9 -61.5t52 -12.5t52.5 13.5t9.5 64.5q0 98 -62 98 q-31 0 -46 -22.5t-15 -79.5z" />
<glyph unicode="&#xea;" horiz-adv-x="798" d="M41 336v311q0 150 100.5 243t257.5 93q164 0 261.5 -90t97.5 -246v-174q0 -20 -6.5 -24.5t-36.5 -4.5h-344h-6q-10 0 -15.5 -1t-8.5 -8t-3 -21v-22.5v-23v-20.5t2 -20t5 -15.5t7 -14.5t11.5 -10t15.5 -7t20 -2q61 0 62 81q0 12 98 13h35h33q131 0 131 -37 q0 -156 -97.5 -246t-261.5 -90q-158 0 -258 93t-100 243zM113 1204q14 20 133 103q20 14 45.5 33.5t40 30.5t30 19.5t27.5 8.5q8 0 19.5 -6.5t27 -17.5t29.5 -23.5t36.5 -30.5t39.5 -33q110 -86 118 -100q6 -8 -5 -31.5t-26.5 -50.5t-17.5 -33q-4 -16 -15 -22.5t-34 12.5 q-18 18 -43.5 44t-44 44t-37 35.5t-30 27t-15.5 9.5q-10 0 -174 -156q-39 -37 -49 10q-2 6 -19.5 36t-30 56.5t-5.5 34.5zM338 641q0 -49 9 -61.5t52 -12.5t52.5 13.5t9.5 64.5q0 98 -62 98q-31 0 -46 -22.5t-15 -79.5z" />
<glyph unicode="&#xeb;" horiz-adv-x="798" d="M41 336v311q0 150 100.5 243t257.5 93q164 0 261.5 -90t97.5 -246v-174q0 -20 -6.5 -24.5t-36.5 -4.5h-344h-6q-10 0 -15.5 -1t-8.5 -8t-3 -21v-22.5v-23v-20.5t2 -20t5 -15.5t7 -14.5t11.5 -10t15.5 -7t20 -2q61 0 62 81q0 12 98 13h35h33q131 0 131 -37 q0 -156 -97.5 -246t-261.5 -90q-158 0 -258 93t-100 243zM106.5 1208.5q-6.5 59.5 31.5 106.5t91 39q61 -6 89 -25.5t28 -48.5v-66q-4 -51 -35.5 -86.5t-81.5 -37.5q-68 -6 -92 26.5t-30.5 92zM338 641q0 -49 9 -61.5t52 -12.5t52.5 13.5t9.5 64.5q0 98 -62 98 q-31 0 -46 -22.5t-15 -79.5zM448.5 1208.5q-6.5 59.5 31.5 106.5t91 39q61 -6 89 -25.5t28 -48.5v-66q-4 -51 -35.5 -86.5t-81.5 -37.5q-68 -6 -92 26.5t-30.5 92z" />
<glyph unicode="&#xec;" horiz-adv-x="430" d="M-4 1266q10 20 43 110q6 27 67 8q215 -80 252 -90q41 -16 62.5 -32.5t15.5 -30.5q-35 -94 -37 -121q-4 -33 -47 -18l-325 120q-12 2 -26.5 19.5t-4.5 34.5zM61 31v915q0 27 18.5 32t129.5 5q119 0 139.5 -5t20.5 -34v-909q0 -25 -21.5 -30t-138.5 -5q-109 0 -128.5 4 t-19.5 27z" />
<glyph unicode="&#xed;" horiz-adv-x="430" d="M61 31v915q0 27 18.5 32t129.5 5q119 0 139.5 -5t20.5 -34v-909q0 -25 -21.5 -30t-138.5 -5q-109 0 -128.5 4t-19.5 27zM61 1231q-6 14 15.5 30.5t62.5 32.5q37 10 252 90q61 18 68 -8q33 -90 43 -110q10 -16 -4.5 -34t-26.5 -20l-326 -120q-43 -14 -47 18q-2 27 -37 121 z" />
<glyph unicode="&#xee;" horiz-adv-x="430" d="M-53 1210q14 20 133 103q20 14 46 33.5t40 31t29.5 19.5t27.5 8q8 0 19.5 -6t27 -17.5t29.5 -23.5t36.5 -30.5t39.5 -33.5q111 -86 119 -100q6 -8 -5.5 -31.5t-27 -50.5t-17.5 -33q-4 -16 -15 -22t-34 12q-18 18 -43.5 44t-44 44.5t-37 35.5t-30 26.5t-15.5 9.5 q-10 0 -174 -156q-39 -37 -49 10q-2 6 -19.5 36t-29.5 56.5t-6 34.5zM61 31v915q0 27 18.5 32t129.5 5q119 0 139.5 -5t20.5 -34v-909q0 -25 -21.5 -30t-138.5 -5q-109 0 -128.5 4t-19.5 27z" />
<glyph unicode="&#xef;" horiz-adv-x="430" d="M-69.5 1208.5q-6.5 59.5 31.5 106.5t91 39q61 -6 89 -25.5t28 -48.5v-66q-4 -51 -36 -86.5t-81 -37.5q-68 -6 -92 26.5t-30.5 92zM61 31v915q0 27 18.5 32t129.5 5q119 0 139.5 -5t20.5 -34v-909q0 -25 -21.5 -30t-138.5 -5q-109 0 -128.5 4t-19.5 27zM272.5 1208.5 q-6.5 59.5 31.5 106.5t91 39q61 -6 89 -25.5t28 -48.5v-66q-4 -51 -36 -86.5t-81 -37.5q-68 -6 -92 26.5t-30.5 92z" />
<glyph unicode="&#xf0;" horiz-adv-x="819" d="M41 336v311q0 178 79 257t195 79q27 0 81.5 -20.5t68.5 -44.5q14 -6 16 20v117q0 10 -67 10q-14 0 -33 9t-14 30q2 18 2 77.5t-2 82.5q-2 18 13 24t50 6q51 0 51 9v112q0 4 2 7t6.5 5.5t10.5 3.5t14 2t16.5 1h20.5h22.5h24.5h27q115 0 123 -2q10 -6 10 -17v-121 q0 -2 55 -5t55 -25q0 -154 4.5 -168.5t-3 -23.5t-35.5 -9q-76 0 -76 -10v-1035q0 -14 -11.5 -17t-56.5 -1h-51h-36.5t-31 -1t-26 -1t-20.5 1t-15 2t-12 3t-8.5 5t-5.5 8.5t-2 12.5t-1 15q0 33 -4 33q-4 2 -12 -12q-14 -25 -68.5 -45.5t-81.5 -20.5q-117 0 -195.5 79 t-78.5 257zM338 393q0 -8 1 -23.5t3 -23.5t6 -18.5t11.5 -15.5t17.5 -9t22 -4q14 0 25.5 4t19 13.5t11.5 17.5t5 25.5t1 26.5v30.5v29.5v91v29.5v30.5t-1 26.5t-5 25.5t-11.5 17.5t-18.5 13.5t-26 4q-12 0 -22 -4t-17.5 -9t-11.5 -15.5t-6 -18.5t-3 -23.5t-1 -23.5v-26.5 v-26.5v-91v-26.5v-26.5z" />
<glyph unicode="&#xf1;" d="M61 18v947q0 14 11.5 17t56.5 1h51h37t31 1t25.5 1t20.5 -1t15 -2t12.5 -3t8.5 -5t5 -8t2 -12.5t1 -15.5q0 -33 4 -33q4 -2 12 13q14 25 68.5 45t81.5 20q117 0 195.5 -79t78.5 -257v-624q0 -14 -26.5 -18.5t-116.5 -4.5q-111 0 -137.5 2t-26.5 14v547v19.5v19.5v17.5 t-2 18.5t-4 15.5t-6 13.5t-9.5 10t-12.5 7t-17 2q-12 0 -21.5 -3t-15.5 -11t-9 -15.5t-4 -21.5t-1 -22.5v-26v-23.5v-538q0 -18 -20.5 -21.5t-143.5 -3.5q-102 0 -123 2t-21 16zM186 1208q-12 20 90 90q61 41 89 41q49 0 73 -22q10 -10 22.5 -25.5t20.5 -20.5t21 -5 q20 0 73 63q16 18 31 12t19 -22q4 -12 27.5 -55t25.5 -45q6 -8 -6.5 -21.5t-45 -39t-40.5 -32.5q-45 -37 -84 -36q-49 0 -74 24q-8 8 -17.5 19.5t-13.5 14.5t-12 6t-18 3q-12 0 -18.5 -4t-23 -21.5t-38.5 -35.5q-16 -12 -30.5 -8t-18.5 18z" />
<glyph unicode="&#xf2;" horiz-adv-x="798" d="M41 336v311q0 150 100.5 243t257.5 93q164 0 261.5 -90t97.5 -246v-311q0 -156 -97.5 -246t-261.5 -90q-158 0 -258 93t-100 243zM203 1245q10 20 43 111q6 27 67 8q215 -80 252 -90q41 -16 62.5 -33t15.5 -31q-35 -94 -37 -120q-4 -33 -47 -19l-326 121q-12 2 -26 19.5 t-4 33.5zM338 393q0 -8 1 -23.5t3 -23.5t6 -18.5t11.5 -15.5t17.5 -9t22 -4q14 0 25.5 4t19 13.5t11.5 17.5t5 25.5t1 26.5v30.5v29.5v91v29.5v30.5t-1 26.5t-5 25.5t-11.5 17.5t-18.5 13.5t-26 4q-12 0 -22 -4t-17.5 -9t-11.5 -15.5t-6 -18.5t-3 -23.5t-1 -23.5v-26.5 v-26.5v-91v-26.5v-26.5z" />
<glyph unicode="&#xf3;" horiz-adv-x="798" d="M41 336v311q0 150 100.5 243t257.5 93q164 0 261.5 -90t97.5 -246v-311q0 -156 -97.5 -246t-261.5 -90q-158 0 -258 93t-100 243zM203 1206q-6 14 15.5 30.5t62.5 33.5q37 10 251 90q61 18 68 -8q33 -91 43 -111q10 -16 -4 -33.5t-27 -19.5l-325 -121q-43 -14 -47 18 q-2 27 -37 121zM338 393q0 -8 1 -23.5t3 -23.5t6 -18.5t11.5 -15.5t17.5 -9t22 -4q14 0 25.5 4t19 13.5t11.5 17.5t5 25.5t1 26.5v30.5v29.5v91v29.5v30.5t-1 26.5t-5 25.5t-11.5 17.5t-18.5 13.5t-26 4q-12 0 -22 -4t-17.5 -9t-11.5 -15.5t-6 -18.5t-3 -23.5t-1 -23.5 v-26.5v-26.5v-91v-26.5v-26.5z" />
<glyph unicode="&#xf4;" horiz-adv-x="798" d="M41 336v311q0 150 100.5 243t257.5 93q164 0 261.5 -90t97.5 -246v-311q0 -156 -97.5 -246t-261.5 -90q-158 0 -258 93t-100 243zM125 1204q14 20 133 103q20 14 46 33.5t40 30.5t29.5 19.5t27.5 8.5q8 0 19.5 -6.5t27 -17.5t30 -23.5t37 -30.5t38.5 -33 q111 -86 119 -100q6 -8 -5.5 -31.5t-26.5 -50.5t-17 -33q-4 -16 -15.5 -22.5t-34.5 12.5q-18 18 -43.5 44t-44 44t-37 35.5t-29.5 27t-16 9.5q-10 0 -174 -156q-39 -37 -49 10q-2 6 -19.5 36t-29.5 56.5t-6 34.5zM338 393q0 -8 1 -23.5t3 -23.5t6 -18.5t11.5 -15.5t17.5 -9 t22 -4q14 0 25.5 4t19 13.5t11.5 17.5t5 25.5t1 26.5v30.5v29.5v91v29.5v30.5t-1 26.5t-5 25.5t-11.5 17.5t-18.5 13.5t-26 4q-12 0 -22 -4t-17.5 -9t-11.5 -15.5t-6 -18.5t-3 -23.5t-1 -23.5v-26.5v-26.5v-91v-26.5v-26.5z" />
<glyph unicode="&#xf5;" horiz-adv-x="798" d="M41 336v311q0 150 100.5 243t257.5 93q164 0 261.5 -90t97.5 -246v-311q0 -156 -97.5 -246t-261.5 -90q-158 0 -258 93t-100 243zM166 1208q-12 20 90 90q61 41 88 41q49 0 74 -22q10 -10 22.5 -25.5t20.5 -20.5t20 -5q20 0 74 63q16 18 30.5 12t18.5 -22q4 -12 27.5 -55 t25.5 -45q6 -8 -6 -21.5t-45 -39t-41 -32.5q-45 -37 -84 -36q-49 0 -73 24q-8 8 -17.5 19.5t-13.5 14.5t-12.5 6t-18.5 3q-12 0 -18 -4t-22.5 -21.5t-39.5 -35.5q-16 -12 -30.5 -8t-18.5 18zM338 393q0 -8 1 -23.5t3 -23.5t6 -18.5t11.5 -15.5t17.5 -9t22 -4q14 0 25.5 4 t19 13.5t11.5 17.5t5 25.5t1 26.5v30.5v29.5v91v29.5v30.5t-1 26.5t-5 25.5t-11.5 17.5t-18.5 13.5t-26 4q-12 0 -22 -4t-17.5 -9t-11.5 -15.5t-6 -18.5t-3 -23.5t-1 -23.5v-26.5v-26.5v-91v-26.5v-26.5z" />
<glyph unicode="&#xf6;" horiz-adv-x="798" d="M41 336v311q0 150 100.5 243t257.5 93q164 0 261.5 -90t97.5 -246v-311q0 -156 -97.5 -246t-261.5 -90q-158 0 -258 93t-100 243zM117 1208.5q-6 59.5 31.5 106.5t91.5 39q61 -6 88.5 -25.5t27.5 -48.5v-66q-4 -51 -35.5 -86.5t-80.5 -37.5q-68 -6 -92.5 26.5t-30.5 92z M338 393q0 -8 1 -23.5t3 -23.5t6 -18.5t11.5 -15.5t17.5 -9t22 -4q14 0 25.5 4t19 13.5t11.5 17.5t5 25.5t1 26.5v30.5v29.5v91v29.5v30.5t-1 26.5t-5 25.5t-11.5 17.5t-18.5 13.5t-26 4q-12 0 -22 -4t-17.5 -9t-11.5 -15.5t-6 -18.5t-3 -23.5t-1 -23.5v-26.5v-26.5v-91 v-26.5v-26.5zM459 1208.5q-6 59.5 31.5 106.5t91.5 39q61 -6 88.5 -25.5t27.5 -48.5v-66q-4 -51 -35.5 -86.5t-80.5 -37.5q-68 -6 -92.5 26.5t-30.5 92z" />
<glyph unicode="&#xf7;" horiz-adv-x="890" d="M31 735q0 72 5 88.5t27 16.5h87q18 0 21 6t3 26v283q0 18 19.5 35.5t35.5 17.5h101q16 0 16 15v180q0 31 103 31q37 0 54 -2t29.5 -9.5t12.5 -21.5v-176q0 -16 20 -17h101q18 0 34.5 -18.5t16.5 -44.5v-279q0 -10 1 -15t6 -8t17 -3h88q23 0 27 -15.5t4 -89.5v-14 q0 -80 -26 -80h-91q-18 0 -22 -5t-4 -22v-317q0 -33 -12.5 -52.5t-30.5 -19.5h-115q-14 0 -14 -18v-176q0 -23 -13.5 -27t-82.5 -4q-92 0 -99 8q-4 6 -4 19v184q0 14 -12 14h-103q-25 0 -41 15.5t-16 33.5v340v13.5t-3 7.5t-8 5t-16 1h-86q-20 0 -25 17.5t-5 76.5zM373 459 q0 -35 35 -35h75q35 0 35 35v520q0 31 -22 31h-101q-23 0 -22 -31v-520z" />
<glyph unicode="&#xf8;" horiz-adv-x="798" d="M41 336v311q0 150 100.5 243t257.5 93q31 0 88 -8q14 -2 21 18q12 35 23.5 69t17.5 50t6 18q8 27 63 27q25 0 46.5 -11t15.5 -28l-57 -172q-6 -20 4 -26q61 -37 96 -110t35 -163v-311q0 -156 -97.5 -246t-261.5 -90q-31 0 -71 6q-27 4 -33 -22q-6 -18 -12.5 -37 t-10.5 -30t-7 -19.5t-3 -10.5q-10 -31 -65 -30q-14 0 -30.5 3t-29 9t-10.5 14q0 2 8 23.5t19.5 54.5t21.5 68q0 2 3 10t3 11t-3 9.5t-13 14.5q-125 92 -125 262zM338 393q0 -8 1 -23.5t3 -23.5t6 -18.5t11.5 -15.5t17.5 -9t22 -4q14 0 25.5 4t19 13.5t11.5 17.5t5 25.5 t1 26.5v30.5v29.5v91v29.5v30.5t-1 26.5t-5 25.5t-11.5 17.5t-18.5 13.5t-26 4q-12 0 -22 -4t-17.5 -9t-11.5 -15.5t-6 -18.5t-3 -23.5t-1 -23.5v-26.5v-26.5v-91v-26.5v-26.5z" />
<glyph unicode="&#xf9;" d="M61 336v625q0 14 27 18t117 4q53 0 81.5 -1t46 -4t21.5 -6t4 -11v-515v-28.5v-30.5t1 -26.5t6.5 -25.5t11.5 -17.5t17.5 -14.5t25.5 -4t25.5 4t18.5 14.5t11 18.5t5 24.5t1 26.5v30.5v28.5v504q0 25 19.5 29t134.5 4q102 0 122.5 -2t20.5 -16v-947q0 -14 -11 -17t-56 -1 h-52h-36.5t-30.5 -1t-25.5 -1t-20.5 1t-15.5 2t-12.5 3t-8 5t-5 8.5t-2 12.5t-1 15q0 43 -6 43q-4 2 -11 -8q-45 -80 -139 -80q-119 0 -202 80t-83 256zM217 1266q10 20 43 110q6 27 68 8q215 -80 252 -90q41 -16 62 -32.5t15 -30.5q-35 -94 -36 -121q-4 -33 -48 -18 l-325 120q-12 2 -26.5 19.5t-4.5 34.5z" />
<glyph unicode="&#xfa;" d="M61 336v625q0 14 27 18t117 4q53 0 81.5 -1t46 -4t21.5 -6t4 -11v-515v-28.5v-30.5t1 -26.5t6.5 -25.5t11.5 -17.5t17.5 -14.5t25.5 -4t25.5 4t18.5 14.5t11 18.5t5 24.5t1 26.5v30.5v28.5v504q0 25 19.5 29t134.5 4q102 0 122.5 -2t20.5 -16v-947q0 -14 -11 -17t-56 -1 h-52h-36.5t-30.5 -1t-25.5 -1t-20.5 1t-15.5 2t-12.5 3t-8 5t-5 8.5t-2 12.5t-1 15q0 43 -6 43q-4 2 -11 -8q-45 -80 -139 -80q-119 0 -202 80t-83 256zM219 1231q-6 14 15.5 30.5t62.5 32.5q37 10 252 90q61 18 67 -8q33 -90 43 -110q10 -16 -4 -34t-26 -20l-326 -120 q-43 -14 -47 18q-2 27 -37 121z" />
<glyph unicode="&#xfb;" d="M61 336v625q0 14 27 18t117 4q53 0 81.5 -1t46 -4t21.5 -6t4 -11v-515v-28.5v-30.5t1 -26.5t6.5 -25.5t11.5 -17.5t17.5 -14.5t25.5 -4t25.5 4t18.5 14.5t11 18.5t5 24.5t1 26.5v30.5v28.5v504q0 25 19.5 29t134.5 4q102 0 122.5 -2t20.5 -16v-947q0 -14 -11 -17t-56 -1 h-52h-36.5t-30.5 -1t-25.5 -1t-20.5 1t-15.5 2t-12.5 3t-8 5t-5 8.5t-2 12.5t-1 15q0 43 -6 43q-4 2 -11 -8q-45 -80 -139 -80q-119 0 -202 80t-83 256zM158 1243q14 20 133 103q20 14 45.5 33.5t40 30.5t30 19.5t27.5 8.5q8 0 19.5 -6.5t27 -17.5t29.5 -23.5t36.5 -31 t39.5 -32.5q111 -86 119 -100q6 -8 -5.5 -32t-27 -50.5t-17.5 -32.5q-4 -16 -15 -22.5t-34 12.5l-43.5 43.5l-44 44t-37 36t-30 27t-15.5 9.5q-10 0 -174 -156q-39 -37 -49 10q-2 6 -19.5 36t-29.5 56.5t-6 34.5z" />
<glyph unicode="&#xfc;" d="M61 336v625q0 14 27 18t117 4q53 0 81.5 -1t46 -4t21.5 -6t4 -11v-515v-28.5v-30.5t1 -26.5t6.5 -25.5t11.5 -17.5t17.5 -14.5t25.5 -4t25.5 4t18.5 14.5t11 18.5t5 24.5t1 26.5v30.5v28.5v504q0 25 19.5 29t134.5 4q102 0 122.5 -2t20.5 -16v-947q0 -14 -11 -17t-56 -1 h-52h-36.5t-30.5 -1t-25.5 -1t-20.5 1t-15.5 2t-12.5 3t-8 5t-5 8.5t-2 12.5t-1 15q0 43 -6 43q-4 2 -11 -8q-45 -80 -139 -80q-119 0 -202 80t-83 256zM133 1206.5q-6 59.5 32 106.5t91 39q61 -6 89 -25.5t28 -48.5v-66q-4 -51 -36 -86.5t-81 -38.5q-68 -6 -92.5 27 t-30.5 92.5zM475 1206.5q-6 59.5 32 106.5t91 39q61 -6 89 -25.5t28 -48.5v-66q-4 -51 -36 -86.5t-81 -38.5q-68 -6 -92.5 27t-30.5 92.5z" />
<glyph unicode="&#xfd;" horiz-adv-x="763" d="M31 961q0 4 6 8t18.5 6t26.5 4t32.5 3t33 1h30.5q141 0 144 -29l47 -510q0 -20 12 -20q14 0 14 22l49 512q2 25 154 25q49 0 94 -7.5t41 -21.5l-338 -1337q-6 -27 -129 -27q-23 0 -41 1t-42.5 4.5t-38 10.5t-11.5 17l80 383q8 35 8 62q0 43 -4 57zM229 1229 q-6 14 15.5 30.5t62.5 32.5q37 10 252 90q61 18 68 -8q33 -90 43 -110q10 -16 -4.5 -34t-26.5 -20l-326 -120q-43 -14 -47 18q-2 27 -37 121z" />
<glyph unicode="&#xfe;" horiz-adv-x="819" d="M61 -391v1806q0 4 1 7t5.5 5.5t8.5 4.5t11 2t14.5 1t18.5 0t21.5 -1h24.5h29h26.5h24.5h22.5h20.5t16 -1t14.5 -2t10.5 -3.5t6 -5.5t2 -7v-477q0 -33 4 -33q4 -2 12 13q14 25 68.5 45t81.5 20q117 0 195.5 -79t78.5 -257v-311q0 -176 -83 -256t-201 -80q-25 0 -75 20.5 t-65 45.5q-14 6 -16 -21v-438q0 -12 -4 -15q-8 -2 -129 -2q-102 0 -123 2t-21 17zM358 393q0 -8 1 -23.5t3.5 -23.5t6.5 -18.5t11 -15.5t17.5 -9t22.5 -4q14 0 25.5 4t18.5 13.5t11 17.5t5 25.5t1 26.5v30.5v29.5v91v29.5v30.5t-1 26.5t-5 25.5t-11 17.5t-18.5 13.5t-25.5 4 q-12 0 -22.5 -4t-17.5 -9t-11 -15.5t-6.5 -18.5t-3.5 -23.5t-1 -23.5v-26.5v-26.5v-91v-26.5v-26.5z" />
<glyph unicode="&#xff;" horiz-adv-x="763" d="M31 961q0 4 6 8t18.5 6t26.5 4t32.5 3t33 1h30.5q141 0 144 -29l47 -510q0 -20 12 -20q14 0 14 22l49 512q2 25 154 25q49 0 94 -7.5t41 -21.5l-338 -1337q-6 -27 -129 -27q-23 0 -41 1t-42.5 4.5t-38 10.5t-11.5 17l80 383q8 35 8 62q0 43 -4 57zM110.5 1208.5 q-6.5 59.5 31.5 106.5t91 39q61 -6 89 -25.5t28 -48.5v-66q-4 -51 -35.5 -86.5t-81.5 -37.5q-68 -6 -92 26.5t-30.5 92zM452.5 1208.5q-6.5 59.5 31.5 106.5t91 39q61 -6 89 -25.5t28 -48.5v-66q-4 -51 -35.5 -86.5t-81.5 -37.5q-68 -6 -92 26.5t-30.5 92z" />
<glyph unicode="&#x152;" horiz-adv-x="1097" d="M51 336v762q0 156 83 246t235 90q66 0 104 -31q41 -33 49 -23q6 6 6 31q0 23 27 23h477q18 0 21.5 -18.5t3.5 -112.5q0 -113 -3 -134.5t-24 -21.5h-205q-47 0 -47 -10q-10 -14 -10 -39v-150q0 -43 12 -53q12 -8 45 -8h101q18 0 20 -18.5t2 -127.5v-45q0 -94 -22 -94h-92 q-12 0 -31 -3t-21 -3q-14 -10 -14 -59v-170q0 -59 8 -68q12 -12 64 -12h194q18 0 22.5 -19.5t4.5 -117.5q0 -109 -4 -129.5t-21 -20.5h-481q-27 0 -27 23q-4 35 -14 34.5t-35 -20.5l-6 -6q-39 -31 -104 -31q-152 0 -235 90t-83 246zM358 420q0 -33 1 -45.5t5.5 -36 t15.5 -32.5t30 -9q25 0 36 21.5t13 42t2 59.5v594v19.5v19.5v17t-2 18.5t-4 15.5t-6.5 13t-9.5 10.5t-12 7.5t-17 2q-12 0 -21.5 -3.5t-15.5 -11.5t-9.5 -15t-4.5 -21.5t-1 -22.5v-25.5v-23.5v-594z" />
<glyph unicode="&#x153;" horiz-adv-x="1208" d="M41 336v311q0 152 92 244t246 92q53 0 95 -9t65.5 -22.5t38 -28t21.5 -23.5t9 -9t9.5 9t21.5 23.5t36.5 28t62.5 22.5t91 9q162 0 250 -88t88 -248v-174q0 -20 -6 -24.5t-37 -4.5h-327q-18 0 -23.5 -10t-5.5 -39v-21.5v-21.5t1 -18t2 -16.5t4 -12.5t7 -12t11.5 -8 t15.5 -5t20 -1q61 0 62 79q0 10 16.5 12.5t96.5 2.5h32q131 0 131 -37q0 -160 -88 -248t-250 -88q-49 0 -89 9t-62.5 22.5t-37.5 27t-23.5 22.5t-10.5 9t-9 -9t-22.5 -22.5t-38 -27t-64.5 -22.5t-93 -9q-154 0 -246 92t-92 244zM317 393q0 -8 1 -23.5t3.5 -23.5t6.5 -18.5 t11 -15.5t17.5 -9t22.5 -4q14 0 25.5 4t18.5 13.5t11 17.5t5 25.5t1 26.5v30.5v29.5v91v29.5v30.5t-1 26.5t-5 25.5t-11 17.5t-18.5 13.5t-25.5 4q-12 0 -22.5 -4t-17.5 -9t-11 -15.5t-6.5 -18.5t-3.5 -23.5t-1 -23.5v-26.5v-26.5v-91v-26.5v-26.5zM768 641q0 -49 9 -61.5 t52 -12.5t52.5 13.5t9.5 64.5q0 98 -62 98q-31 0 -46 -22.5t-15 -79.5z" />
<glyph unicode="&#x178;" horiz-adv-x="835" d="M41 1403q-4 16 42 22.5t95 6.5q162 0 166 -33q12 -88 35.5 -247t36.5 -243q0 -18 12 -18q10 0 10 20q14 104 35 266t29 222q4 33 153 33q27 0 47.5 -1t45 -3.5t37 -8.5t10.5 -16q-111 -436 -181 -662q-6 -20 -15 -61t-13 -57q-10 -31 -11 -119v-488q0 -16 -153.5 -16 t-153.5 23q0 80 1 230t1 245q0 88 -2 100q0 2 -32 121q-16 57 -87 301t-108 383zM143.5 1611.5q-6.5 59.5 31.5 106.5t91 39q61 -6 89 -25.5t28 -48v-65.5q-4 -51 -36 -87t-81 -38q-68 -6 -92 26.5t-30.5 92zM485.5 1611.5q-6.5 59.5 31.5 106.5t91 39q61 -6 89 -25.5 t28 -48v-65.5q-4 -51 -36 -87t-81 -38q-68 -6 -92 26.5t-30.5 92z" />
<glyph unicode="&#x2c6;" d="M143 1192q14 20 133 102q20 14 46 34t40.5 31t30 19t27.5 8q8 0 19.5 -6t26.5 -17t29.5 -23.5t37 -31t38.5 -32.5q111 -86 119 -100q6 -8 -5 -32t-26.5 -50.5t-17.5 -32.5q-4 -16 -15.5 -22.5t-33.5 12.5q-18 18 -44 43.5t-44.5 44t-36.5 36t-29.5 26.5t-15.5 9 q-10 0 -174 -155q-39 -37 -49 10q-2 6 -19.5 35.5t-30 56.5t-6.5 35z" />
<glyph unicode="&#x2dc;" d="M180 1229q-12 20 90 90q61 41 88 41q49 0 74 -23q10 -10 22.5 -25.5t20.5 -20.5t21 -5q20 0 73 64q16 18 30.5 12t18.5 -23q4 -12 28 -55t26 -45q6 -8 -6.5 -21.5t-45 -39t-40.5 -31.5q-45 -37 -84 -37q-49 0 -74 25q-8 8 -17.5 19t-13.5 14t-12 6.5t-19 3.5 q-12 0 -18 -4.5t-22.5 -21.5t-38.5 -36q-16 -12 -30.5 -8t-19.5 18z" />
<glyph unicode="&#x2000;" horiz-adv-x="922" />
<glyph unicode="&#x2001;" horiz-adv-x="1845" />
<glyph unicode="&#x2002;" horiz-adv-x="922" />
<glyph unicode="&#x2003;" horiz-adv-x="1845" />
<glyph unicode="&#x2004;" horiz-adv-x="615" />
<glyph unicode="&#x2005;" horiz-adv-x="461" />
<glyph unicode="&#x2006;" horiz-adv-x="307" />
<glyph unicode="&#x2007;" horiz-adv-x="307" />
<glyph unicode="&#x2008;" horiz-adv-x="230" />
<glyph unicode="&#x2009;" horiz-adv-x="369" />
<glyph unicode="&#x200a;" horiz-adv-x="102" />
<glyph unicode="&#x2010;" horiz-adv-x="559" d="M61 463q6 35 0 119q-2 18 13.5 24t50.5 6h268q94 4 94 -32q1 -102 7 -125q4 -14 -3.5 -23.5t-35.5 -9.5q-74 0 -183.5 1t-162.5 1q-14 0 -33 9t-15 30z" />
<glyph unicode="&#x2011;" horiz-adv-x="559" d="M61 463q6 35 0 119q-2 18 13.5 24t50.5 6h268q94 4 94 -32q1 -102 7 -125q4 -14 -3.5 -23.5t-35.5 -9.5q-74 0 -183.5 1t-162.5 1q-14 0 -33 9t-15 30z" />
<glyph unicode="&#x2012;" horiz-adv-x="559" d="M61 463q6 35 0 119q-2 18 13.5 24t50.5 6h268q94 4 94 -32q1 -102 7 -125q4 -14 -3.5 -23.5t-35.5 -9.5q-74 0 -183.5 1t-162.5 1q-14 0 -33 9t-15 30z" />
<glyph unicode="&#x2013;" horiz-adv-x="1126" d="M61 463q6 35 0 119q-2 18 13.5 24t50.5 6q772 0 840 2q94 4 94 -32q0 -102 6 -125q4 -14 -3 -23.5t-36 -9.5h-917q-14 0 -33 9t-15 30z" />
<glyph unicode="&#x2014;" horiz-adv-x="1703" d="M61 463q6 35 0 119q-2 18 13.5 24t50.5 6q1350 0 1417 2q94 4 94 -32q0 -102 6 -125q4 -14 -3 -23.5t-35 -9.5h-1495q-14 0 -33 9t-15 30z" />
<glyph unicode="&#x2018;" horiz-adv-x="419" d="M61 1018q0 121 29 190q100 244 209 226q16 -2 19.5 -21.5t-5 -48.5t-18.5 -55.5t-20.5 -52t-12.5 -33.5q-4 -16 5 -25.5t26.5 -15.5t21.5 -11q43 -32 43 -104q0 -82 -35.5 -139.5t-97.5 -57.5q-78 0 -121 41t-43 107z" />
<glyph unicode="&#x2019;" horiz-adv-x="419" d="M61 1239q0 82 36 139.5t98 57.5q78 0 120.5 -41t42.5 -107q0 -121 -28 -190q-100 -244 -209 -226q-16 2 -19.5 21.5t5 48.5t18.5 55.5t20.5 52t12.5 33.5q4 16 -5.5 25.5t-26.5 15.5t-22 11q-43 33 -43 104z" />
<glyph unicode="&#x201a;" horiz-adv-x="419" d="M61 125q0 82 36 139.5t98 57.5q78 0 120.5 -41t42.5 -107q0 -121 -28 -190q-100 -244 -209 -226q-16 2 -19.5 21.5t5 48.5t18.5 55.5t20.5 52t12.5 33.5q4 16 -5.5 25.5t-26.5 15.5t-22 10q-43 33 -43 105z" />
<glyph unicode="&#x201c;" horiz-adv-x="770" d="M61 1018q0 121 29 190q100 244 209 226q16 -2 19.5 -21.5t-5 -48.5t-18.5 -55.5t-20.5 -52t-12.5 -33.5q-4 -16 5 -25.5t26.5 -15.5t21.5 -11q43 -32 43 -104q0 -82 -35.5 -139.5t-97.5 -57.5q-78 0 -121 41t-43 107zM410 1018q0 121 28 190q100 244 209 226 q16 -2 19.5 -21.5t-5 -48.5t-18.5 -55.5t-20.5 -52t-12.5 -33.5q-4 -16 5.5 -25.5t26.5 -15.5t22 -11q43 -32 43 -104q0 -82 -36 -139.5t-98 -57.5q-78 0 -120.5 41t-42.5 107z" />
<glyph unicode="&#x201d;" horiz-adv-x="768" d="M61 1239q0 82 36 139.5t98 57.5q78 0 120.5 -41t42.5 -107q0 -121 -28 -190q-100 -244 -209 -226q-16 2 -19.5 21.5t5 48.5t18.5 55.5t20.5 52t12.5 33.5q4 16 -5.5 25.5t-26.5 15.5t-22 11q-43 33 -43 104zM410 1239q0 82 35.5 139.5t97.5 57.5q78 0 121 -41t43 -107 q0 -121 -29 -190q-100 -244 -209 -226q-16 2 -19.5 21.5t5 48.5t18.5 55.5t20.5 52t12.5 33.5q4 16 -5 25.5t-26.5 15.5t-21.5 11q-43 33 -43 104z" />
<glyph unicode="&#x201e;" horiz-adv-x="768" d="M61 125q0 82 36 139.5t98 57.5q78 0 120.5 -41t42.5 -107q0 -121 -28 -190q-100 -244 -209 -226q-16 2 -19.5 21.5t5 48.5t18.5 55.5t20.5 52t12.5 33.5q4 16 -5.5 25.5t-26.5 15.5t-22 10q-43 33 -43 105zM410 125q0 82 35.5 139.5t97.5 57.5q78 0 121 -41t43 -107 q0 -121 -29 -190q-100 -244 -209 -226q-16 2 -19.5 21.5t5 48.5t18.5 55.5t20.5 52t12.5 33.5q4 16 -5 25.5t-26.5 15.5t-21.5 10q-43 33 -43 105z" />
<glyph unicode="&#x2022;" horiz-adv-x="595" d="M63 549q6 55 16.5 93t35 75t73 54t117.5 13q98 -4 164 -75.5t66 -171.5q0 -57 -5.5 -92t-26 -78t-69.5 -69t-129 -36q-104 -12 -179 80t-63 207z" />
<glyph unicode="&#x2026;" horiz-adv-x="1183" d="M61 139q-8 74 39 133.5t113 49.5q76 -6 110.5 -31t34.5 -60.5t-2 -80.5q-4 -63 -43 -107.5t-100 -48.5q-57 -4 -92 18.5t-45 52t-15 74.5zM442 139q-8 74 39 133.5t113 49.5q76 -6 110.5 -31t34.5 -60.5t-2 -80.5q-4 -63 -43 -107.5t-100 -48.5q-57 -4 -92 18.5t-45.5 52 t-14.5 74.5zM823 139q-8 74 39 133.5t113 49.5q76 -6 110.5 -31t34.5 -60.5t-2 -80.5q-4 -63 -43 -107.5t-100 -48.5q-57 -4 -92 18.5t-45.5 52t-14.5 74.5z" />
<glyph unicode="&#x202f;" horiz-adv-x="369" />
<glyph unicode="&#x2039;" horiz-adv-x="452" d="M20 505.5q0 20.5 131.5 206t143.5 177.5q6 -4 27.5 -15.5t40 -21.5t26.5 -12q39 -8 10 -49q-178 -270 -178 -283q0 -25 174 -287q27 -41 -10 -49q-8 -2 -29.5 -13.5t-46 -24.5t-30.5 -17q-12 -8 -135.5 180t-123.5 208.5z" />
<glyph unicode="&#x203a;" horiz-adv-x="452" d="M63 217q178 270 179 283q0 25 -174 286q-27 41 10 50q8 2 29.5 13t46 24.5t30.5 17.5q12 8 135 -180.5t123 -209t-131 -205.5t-143 -177q-6 4 -27.5 15t-40 21.5t-26.5 12.5q-39 8 -11 49z" />
<glyph unicode="&#x205f;" horiz-adv-x="461" />
<glyph unicode="&#x20ac;" horiz-adv-x="792" d="M51 336v762q0 150 100.5 243t258.5 93q162 0 252 -89.5t90 -246.5v-80q0 -10 -6.5 -15.5t-41 -9.5t-108.5 -4q-117 0 -127 6q-8 4 -8 15v67q0 59 -51 60q-10 0 -18.5 -2t-13.5 -7.5t-9 -10.5t-6.5 -13t-4.5 -14.5t-2 -18.5v-18v-19.5v-19.5v-17q0 -43 13 -53q12 -8 45 -8 q20 0 64 1t50 1q25 0 25 -86v-35q2 -39 -1 -51t-17 -12h-129q-47 0 -52 -2q-14 -6 -14 -29q0 -16 16 -23q6 -2 41 -2h121q29 0 29 -53q0 -76 -4 -102.5t-23 -26.5h-98q-39 0 -51 -6q-14 -10 -15 -59v-31q0 -123 54 -123q51 0 51 59v68q0 27 17.5 31t101.5 4h36 q90 0 113 -10.5t23 -49.5v-63q0 -158 -90 -247t-252 -89q-158 0 -258.5 93t-100.5 243z" />
<glyph unicode="&#x2122;" horiz-adv-x="675" d="M41 1399q0 37 20 37h199q8 0 8 -39t-6 -39h-18.5t-16.5 1t-12 0t-10 -1t-7 -3t-4 -6t-1 -10v-393q0 -12 -41 -12q-37 0 -37 10v391q0 6 -1 10.5t-4.5 7.5t-5.5 4t-8 1h-10h-12h-15q-12 0 -15 7t-3 34zM317 944v469q0 23 41 23q20 0 26.5 -5.5t12.5 -23.5 q61 -207 69.5 -207t70.5 213q6 23 38 23q23 0 31 -6.5t8 -22.5v-461q0 -12 -38.5 -12t-38.5 10v252q0 39 -17 -14q-6 -18 -18 -66q-8 -31 -13 -41q-4 -14 -22 -14t-23 16q-37 125 -43 125q-4 0 -4 -14v-242q0 -12 -41 -12q-39 0 -39 10z" />
<glyph unicode="&#xe000;" horiz-adv-x="983" d="M0 0v983h983v-983h-983z" />
<glyph unicode="&#xfb01;" horiz-adv-x="1036" d="M41 813q0 106 3 129t22 23q53 0 57 4q6 6 6 129q0 150 100.5 243t257.5 93h74q18 0 21.5 -22.5t3.5 -129.5q0 -70 -4 -101.5t-9.5 -37.5t-17.5 -6h-68q-18 0 -29.5 -9.5t-15.5 -33t-5 -35.5t-1 -45q0 -39 6 -45q4 -4 119 -4q18 0 21.5 -23t3.5 -129q0 -27 -1 -46 t-1 -32.5t-2 -20.5t-3 -11.5t-4.5 -5.5t-5.5 -1t-7 1t-7 1q-84 0 -101.5 -6t-17.5 -35v-620q0 -27 -21.5 -32t-129.5 -5h-23q-96 0 -114.5 4t-18.5 29v624q0 31 -7 36t-50 5q-4 0 -9.5 -1t-7.5 -1t-6 5.5t-5 17.5t-2 35.5t-1 58.5zM651 1270q8 78 41 121t123 39 q66 -2 109 -50t47 -118q2 -51 2 -89t-38 -65t-120 -33q-72 -12 -123 51.5t-41 143.5zM668 31v915q0 27 18.5 32t128.5 5q119 0 139.5 -5t20.5 -34v-909q0 -25 -21.5 -30t-138.5 -5q-109 0 -128 4t-19 27z" />
<glyph unicode="&#xfb02;" horiz-adv-x="1036" d="M41 813q0 106 3 129t22 23q53 0 57 4q6 6 6 129q0 150 100.5 243t257.5 93h74q18 0 21.5 -22.5t3.5 -129.5q0 -70 -4 -101.5t-9.5 -37.5t-17.5 -6h-68q-18 0 -29.5 -9.5t-15.5 -33t-5 -35.5t-1 -45q0 -39 6 -45q4 -4 119 -4q18 0 21.5 -23t3.5 -129q0 -27 -1 -46 t-1 -32.5t-2 -20.5t-3 -11.5t-4.5 -5.5t-5.5 -1t-7 1t-7 1q-84 0 -101.5 -6t-17.5 -35v-620q0 -27 -21.5 -32t-129.5 -5h-23q-96 0 -114.5 4t-18.5 29v624q0 31 -7 36t-50 5q-4 0 -9.5 -1t-7.5 -1t-6 5.5t-5 17.5t-2 35.5t-1 58.5zM668 31v1366q0 27 18.5 32t128.5 5 q119 0 139.5 -5.5t20.5 -33.5v-1360q0 -25 -21.5 -30t-138.5 -5q-109 0 -128 4t-19 27z" />
</font>
</defs>
</svg>
