<svg xmlns="http://www.w3.org/2000/svg" xmlns:xlink="http://www.w3.org/1999/xlink">
    <symbol id="download" viewBox="0 0 30 30">
        <path d="M23.251,15 C23.6652136,15 24.001,15.3357864 24.001,15.75 L24.001,15.75 L24.001,17.25 C24.001,19.3210678 22.3220678,21 20.251,21 L20.251,21 L3.751,21 C1.67993219,21 0.001,19.3210678 0.001,17.25 L0.001,17.25 L0.001,15.75 C0.001,15.3357864 0.336786438,15 0.751,15 C1.16521356,15 1.501,15.3357864 1.501,15.75 L1.501,15.75 L1.501,17.25 C1.501,18.4926407 2.50835931,19.5 3.751,19.5 L3.751,19.5 L20.251,19.5 C21.4936407,19.5 22.501,18.4926407 22.501,17.25 L22.501,17.25 L22.501,15.75 C22.501,15.3357864 22.8367864,15 23.251,15 Z M12.001,3 C12.4152136,3 12.751,3.33578644 12.751,3.75 L12.751,3.75 L12.75,13.939 L15.9706699,10.7196699 C16.2369365,10.4534034 16.6536002,10.4291973 16.9472117,10.6470518 L17.0313301,10.7196699 C17.3242233,11.0125631 17.3242233,11.4874369 17.0313301,11.7803301 L17.0313301,11.7803301 L12.5313301,16.2803301 C12.5067302,16.3049299 12.4804294,16.3278288 12.4526193,16.3488352 C12.4421291,16.3568243 12.4316612,16.3643147 12.42105,16.3715034 C12.4046581,16.3825387 12.3875081,16.393187 12.3699158,16.403145 C12.3556244,16.4112981 12.3409909,16.4189416 12.3261715,16.4260696 C12.3085139,16.434555 12.2900942,16.4425505 12.2713089,16.4498114 C12.2604565,16.4539715 12.2500913,16.457697 12.2396647,16.4611871 C12.2182835,16.4684207 12.1958272,16.4748291 12.1729681,16.480192 C12.1607261,16.4829853 12.1490328,16.4854242 12.137298,16.4875819 C12.093688,16.4957051 12.0478456,16.5 12.001,16.5 L12.0753964,16.4963234 C12.0600981,16.4978395 12.0447622,16.4988867 12.0294119,16.499465 L12.001,16.5 C11.9910889,16.5 11.9812228,16.4998078 11.9714051,16.4994268 C11.9569095,16.4988542 11.9422409,16.4978527 11.9276064,16.4964221 C11.905716,16.4943128 11.8846302,16.4913287 11.8638449,16.4874876 C11.8529672,16.4854242 11.8412739,16.4829853 11.829633,16.4802653 C11.8061728,16.4748291 11.7837165,16.4684207 11.7617164,16.4610197 C11.7519087,16.457697 11.7415435,16.4539715 11.7312481,16.4500107 C11.7119058,16.4425505 11.6934861,16.434555 11.6754672,16.4258602 C11.6610091,16.4189416 11.6463756,16.4112981 11.6319547,16.4031392 C11.6144919,16.393187 11.5973419,16.3825387 11.5806709,16.3712371 C11.5420682,16.3451622 11.5051109,16.3147711 11.4706699,16.2803301 L11.5493807,16.3488352 C11.5215706,16.3278288 11.4952698,16.3049299 11.4706699,16.2803301 L6.97066991,11.7803301 C6.6777767,11.4874369 6.6777767,11.0125631 6.97066991,10.7196699 C7.26356313,10.4267767 7.73843687,10.4267767 8.03133009,10.7196699 L8.03133009,10.7196699 L11.25,13.939 L11.251,3.75 C11.251,3.37030423 11.5331539,3.05650904 11.8992294,3.00684662 Z" id="icon-fill-color"></path>
    </symbol>
    <symbol id="paperclip" viewBox="0 0 30 30">
        <path d="M15.1464559,6.91312932 L7.82845577,14.2317959 C6.26636391,15.7938878 3.7336865,15.7938878 2.17157854,14.2317798 C0.609470579,12.6696719 0.609470579,10.1369946 2.17157854,8.57488665 L8.18222572,2.5649063 C8.81602223,1.90879775 9.7455308,1.64815772 10.6196044,1.87694632 C11.493678,2.10573492 12.1762904,2.78834731 12.405079,3.66242088 C12.6338676,4.53649446 12.3732276,5.46600301 11.7233361,6.09368918 L5.70704049,12.1132112 C5.32095996,12.4861116 4.69725282,12.4807901 4.31145821,12.0951167 C3.92566359,11.7094433 3.92014595,11.0857379 4.29905697,10.6932995 L10.3036375,4.68682786 C10.4988672,4.49153324 10.4988145,4.17495076 10.3035199,3.9797211 C10.1082253,3.78449144 9.79164277,3.7845441 9.5964131,3.97983872 L3.58574631,9.99250535 C2.82183803,10.783577 2.83287331,12.0309879 3.60446255,12.8023346 C4.37605178,13.5736813 5.62346605,13.5843245 6.40810457,12.8262558 L12.4243434,6.80678863 C13.327896,5.93421674 13.692792,4.63290477 13.372488,3.40920177 C13.0521839,2.18549877 12.0965266,1.22984141 10.8728235,0.909537371 C9.70232497,0.603159594 8.46081934,0.923694557 7.58602399,1.74840357 L1.46449135,7.86776027 C-0.488160516,9.82041208 -0.488160516,12.9862544 1.46447174,14.9388866 C3.417104,16.8915188 6.58294641,16.8915188 8.53557867,14.9388866 L15.8535949,7.62020389 C16.0488482,7.42493285 16.0488338,7.10835036 15.8535627,6.91309711 C15.6582917,6.71784386 15.3417092,6.71785828 15.1464559,6.91312932 Z" id="Path"></path>
    </symbol>
    <symbol id="arrow-left" viewBox="0 0 25 25">
        <path d="M2.64644661,4.81111342 C2.84170876,4.61585128 3.15829124,4.61585128 3.35355339,4.81111342 C3.54881554,5.00637557 3.54881554,5.32295806 3.35355339,5.5182202 L3.35355339,5.5182202 L1.707,7.16466681 L15.5,7.16466681 C15.7454599,7.16466681 15.9496084,7.34154197 15.9919443,7.57479118 L16,7.66466681 C16,7.94080919 15.7761424,8.16466681 15.5,8.16466681 L15.5,8.16466681 L1.707,8.16466681 L3.35355339,9.81111342 C3.52711974,9.98467977 3.54640489,10.2541042 3.41140884,10.4489723 L3.35355339,10.5182202 C3.15829124,10.7134823 2.84170876,10.7134823 2.64644661,10.5182202 L2.64644661,10.5182202 L0.146446609,8.0182202 C0.142358996,8.01413259 0.138356953,8.00999181 0.134440479,8.00580009 C0.122939203,7.9934855 0.111920253,7.98042105 0.101582734,7.96681073 C0.0927745354,7.95527597 0.084609348,7.94350145 0.0770070472,7.93147333 C0.0700193356,7.92034928 0.0632933417,7.90871348 0.0570343394,7.89679406 C0.049749608,7.8829425 0.0433514722,7.86920567 0.0376105602,7.85526191 C0.0324084547,7.84269188 0.0275580952,7.82940366 0.0232684231,7.81586598 C0.0184480215,7.80050152 0.0143961337,7.78514106 0.0110856816,7.76965386 C0.00382515486,7.73596748 -5.55111512e-17,7.70076385 -5.55111512e-17,7.66466681 L0.00546187104,7.73858458 C0.00238749635,7.71790415 0.0006109983,7.69706799 0.000132376874,7.67620758 L-5.55111512e-17,7.66466681 C-5.55111512e-17,7.66091673 4.12845186e-05,7.65717629 0.00012342385,7.65344592 C0.000554364655,7.63293383 0.00233820308,7.61176105 0.00546187104,7.59074904 C0.0070279077,7.57998649 0.00890403315,7.56965495 0.0110922303,7.55943916 C0.0143961337,7.54419256 0.0184480215,7.52883211 0.023241345,7.51365517 C0.0275580952,7.49992996 0.0324084547,7.48664174 0.0377922373,7.47363025 C0.0433514722,7.46012795 0.049749608,7.44639112 0.0568049675,7.43290862 C0.0632933417,7.42062014 0.0700193356,7.40898434 0.0771880058,7.39765649 C0.0964658172,7.36707324 0.119612338,7.33794769 0.146446609,7.31111342 L0.101582734,7.36252289 C0.111920253,7.34891258 0.122939203,7.33584813 0.134588748,7.32338038 L0.146446609,7.31111342 Z" id="Combined-Shape"></path>
    </symbol>
    <symbol id="close" viewBox="0 0 25 25">
        <path d="M0.146446609,0.145779943 C0.341708755,-0.0494822032 0.658291245,-0.0494822032 0.853553391,0.145779943 L0.853553391,0.145779943 L8,7.29233333 L15.1464466,0.145779943 C15.320013,-0.0277864092 15.5894374,-0.0470715594 15.7843055,0.0879244921 L15.8535534,0.145779943 C16.0488155,0.341042089 16.0488155,0.657624578 15.8535534,0.852886724 L15.8535534,0.852886724 L8.707,7.99933333 L15.8535534,15.1457799 C16.0271197,15.3193463 16.0464049,15.5887707 15.9114088,15.7836388 L15.8535534,15.8528867 C15.6582912,16.0481489 15.3417088,16.0481489 15.1464466,15.8528867 L15.1464466,15.8528867 L8,8.70633333 L0.853553391,15.8528867 C0.679987039,16.0264531 0.410562638,16.0457382 0.215694497,15.9107422 L0.146446609,15.8528867 C-0.0488155365,15.6576246 -0.0488155365,15.3410421 0.146446609,15.1457799 L0.146446609,15.1457799 L7.293,7.99933333 L0.146446609,0.852886724 C-0.0271197425,0.679320372 -0.0464048927,0.409895971 0.0885911588,0.21502783 Z" id="icon-fill-color"></path>
    </symbol>
</svg>

