<svg xmlns="http://www.w3.org/2000/svg" xmlns:xlink="http://www.w3.org/1999/xlink">
    <symbol id="building" viewBox="0 0 24 24">
        <path d="M15,11 L15,5 L12,2 L9,5 L9,7 L3,7 L3,21 L21,21 L21,11 L15,11 Z M7,19 L5,19 L5,17 L7,17 L7,19 Z M7,15 L5,15 L5,13 L7,13 L7,15 Z M7,11 L5,11 L5,9 L7,9 L7,11 Z M13,19 L11,19 L11,17 L13,17 L13,19 Z M13,15 L11,15 L11,13 L13,13 L13,15 Z M13,11 L11,11 L11,9 L13,9 L13,11 Z M13,7 L11,7 L11,5 L13,5 L13,7 Z M19,19 L17,19 L17,17 L19,17 L19,19 Z M19,15 L17,15 L17,13 L19,13 L19,15 Z" id="path-1"></path>
    </symbol>
    <symbol id="rapport" viewBox="0 0 24 24">
        <path d="M14.1176471,3.58333333 L4.58823529,3.58333333 L4.58823529,19.4166667 L19.4117647,19.4166667 L19.4117647,6.95737564 L15.7628633,3.58333333 L15.1764706,3.58333333 L15.1764706,8.01207729 L19.3930292,8.01207729 L19.3930292,9.06763285 L14.1176471,9.06763285 L14.1176471,3.58333333 Z M3.52941176,20.4722222 L3.52941176,2.52777778 L16.1783132,2.52777778 L20.4705882,6.49673064 L20.4705882,20.4722222 L3.52941176,20.4722222 Z M14.1838235,15.4333618 L13.125,15.4333618 L13.125,10.7522023 L14.1838235,10.7522023 L14.1838235,15.4333618 Z M16.3014706,15.4333618 L15.2426471,15.4333618 L15.2426471,12.3125888 L16.3014706,12.3125888 L16.3014706,15.4333618 Z M12.0661765,15.4333618 L11.0073529,15.4333618 L11.0073529,8.41162262 L12.0661765,8.41162262 L12.0661765,15.4333618 Z M9.94852941,15.4333618 L8.88970588,15.4333618 L8.88970588,9.58191248 L9.94852941,9.58191248 L9.94852941,15.4333618 Z M7.83088235,15.4333618 L6.77205882,15.4333618 L6.77205882,7.24133276 L7.83088235,7.24133276 L7.83088235,15.4333618 Z M14.1176471,3.58333333 L15.1764706,3.58333333 L15.1764706,3.57601134 L14.1176471,3.57601134 L14.1176471,3.58333333 Z" id="path-1"/>
    </symbol>
    <symbol id="point-interest" viewBox="0 0 24 24">
        <path d="M12,14.7942345 C9.75695497,14.7942345 7.93848112,13.0198845 7.93848112,10.830869 C7.93848112,8.6420308 9.75695497,6.86750337 12,6.86750337 C14.243045,6.86750337 16.0615189,8.6420308 16.0615189,10.830869 C16.0615189,13.0198845 14.243045,14.7942345 12,14.7942345 M11.9998182,5 C8.69161767,5 6,7.6265703 6,10.8550001 C6,12.1960538 7.00042427,14.1332892 8.97363477,16.6131207 C10.4373598,18.4527668 11.9203588,19.9215737 11.9352688,19.9361234 L11.9998182,20 L12.0645494,19.9361234 C12.0794594,19.9213963 13.5626402,18.4525894 15.0263652,16.6132982 C16.9993939,14.133644 18,12.1964087 18,10.8550001 C18,7.6265703 15.3080187,5 11.9998182,5" id="path-1"/>
    </symbol>
    <symbol id="add-icon" viewBox="0 0 24 24">
        <path d="M4,6 L2,6 L2,20 C2,21.1 2.9,22 4,22 L18,22 L18,20 L4,20 L4,6 Z M20,2 L8,2 C6.9,2 6,2.9 6,4 L6,16 C6,17.1 6.9,18 8,18 L20,18 C21.1,18 22,17.1 22,16 L22,4 C22,2.9 21.1,2 20,2 Z M19,11 L15,11 L15,15 L13,15 L13,11 L9,11 L9,9 L13,9 L13,5 L15,5 L15,9 L19,9 L19,11 Z" id="path-1"/>
    </symbol>
</svg>