<?xml version="1.0" encoding="UTF-8"?>
<svg width="24px" height="24px" viewBox="0 0 24 24" version="1.1" xmlns="http://www.w3.org/2000/svg" xmlns:xlink="http://www.w3.org/1999/xlink">
    <!-- Generator: Sketch 52.4 (67378) - http://www.bohemiancoding.com/sketch -->
    <title>Icon / Rapport</title>
    <g id="Icon-Rapport" stroke="none" stroke-width="1" fill-rule="evenodd">
        <mask id="mask-2" fill="white">
            <path d="M14.1176471,3.58333333 L4.58823529,3.58333333 L4.58823529,19.4166667 L19.4117647,19.4166667 L19.4117647,6.95737564 L15.7628633,3.58333333 L15.1764706,3.58333333 L15.1764706,8.01207729 L19.3930292,8.01207729 L19.3930292,9.06763285 L14.1176471,9.06763285 L14.1176471,3.58333333 Z M3.52941176,20.4722222 L3.52941176,2.52777778 L16.1783132,2.52777778 L20.4705882,6.49673064 L20.4705882,20.4722222 L3.52941176,20.4722222 Z M14.1838235,15.4333618 L13.125,15.4333618 L13.125,10.7522023 L14.1838235,10.7522023 L14.1838235,15.4333618 Z M16.3014706,15.4333618 L15.2426471,15.4333618 L15.2426471,12.3125888 L16.3014706,12.3125888 L16.3014706,15.4333618 Z M12.0661765,15.4333618 L11.0073529,15.4333618 L11.0073529,8.41162262 L12.0661765,8.41162262 L12.0661765,15.4333618 Z M9.94852941,15.4333618 L8.88970588,15.4333618 L8.88970588,9.58191248 L9.94852941,9.58191248 L9.94852941,15.4333618 Z M7.83088235,15.4333618 L6.77205882,15.4333618 L6.77205882,7.24133276 L7.83088235,7.24133276 L7.83088235,15.4333618 Z M14.1176471,3.58333333 L15.1764706,3.58333333 L15.1764706,3.57601134 L14.1176471,3.57601134 L14.1176471,3.58333333 Z" id="path-1"/>
        </mask>
        <path d="M14.1176471,3.58333333 L4.58823529,3.58333333 L4.58823529,19.4166667 L19.4117647,19.4166667 L19.4117647,6.95737564 L15.7628633,3.58333333 L15.1764706,3.58333333 L15.1764706,8.01207729 L19.3930292,8.01207729 L19.3930292,9.06763285 L14.1176471,9.06763285 L14.1176471,3.58333333 Z M3.52941176,20.4722222 L3.52941176,2.52777778 L16.1783132,2.52777778 L20.4705882,6.49673064 L20.4705882,20.4722222 L3.52941176,20.4722222 Z M14.1838235,15.4333618 L13.125,15.4333618 L13.125,10.7522023 L14.1838235,10.7522023 L14.1838235,15.4333618 Z M16.3014706,15.4333618 L15.2426471,15.4333618 L15.2426471,12.3125888 L16.3014706,12.3125888 L16.3014706,15.4333618 Z M12.0661765,15.4333618 L11.0073529,15.4333618 L11.0073529,8.41162262 L12.0661765,8.41162262 L12.0661765,15.4333618 Z M9.94852941,15.4333618 L8.88970588,15.4333618 L8.88970588,9.58191248 L9.94852941,9.58191248 L9.94852941,15.4333618 Z M7.83088235,15.4333618 L6.77205882,15.4333618 L6.77205882,7.24133276 L7.83088235,7.24133276 L7.83088235,15.4333618 Z M14.1176471,3.58333333 L15.1764706,3.58333333 L15.1764706,3.57601134 L14.1176471,3.57601134 L14.1176471,3.58333333 Z" id="path-1"/>
        <g id="Color-/-Fill-/-Vert-Vivic" mask="url(#mask-2)" >
            <rect x="0" y="0" width="24" height="25"/>
        </g>
    </g>
</svg>