<?xml version="1.0" encoding="UTF-8"?>
<svg width="310px" height="230px" viewBox="0 0 310 230" version="1.1" xmlns="http://www.w3.org/2000/svg" xmlns:xlink="http://www.w3.org/1999/xlink">
    <!-- Generator: Sketch 52.4 (67378) - http://www.bohemiancoding.com/sketch -->
    <title>Group 16 Copy</title>
    <desc>Created with Sketch.</desc>
    <defs>
        <linearGradient x1="106.895676%" y1="0%" x2="11.5116141%" y2="72.8131493%" id="linearGradient-1">
            <stop stop-color="#E7FF85" offset="0%"></stop>
            <stop stop-color="#BADC32" offset="100%"></stop>
        </linearGradient>
        <ellipse id="path-2" cx="40.2047782" cy="40.2764977" rx="40.2047782" ry="40.2764977"></ellipse>
        <path d="M1.31451029,1.22821938 C1.31451029,1.22821938 1.31451029,8.27001048 0,10.5626867 C1.97176544,13.5104132 4.43647223,15.3118016 4.43647223,15.3118016 C4.43647223,15.3118016 10.1874548,9.74387374 10.1874548,8.92506082 C10.1874548,8.1062479 8.05137553,6.46862206 8.87294446,2.21079488 C9.19664262,0.533538498 8.09212535,0.0252194379 6.63482638,0.0252194379 C4.39260045,0.0252194379 1.31451029,1.22821938 1.31451029,1.22821938" id="path-4"></path>
        <path d="M1.21832661,1.15446393 C1.21832661,1.15446393 1.21832661,7.77339044 0,9.92838977 C1.82748992,12.6991032 4.11185231,14.392317 4.11185231,14.392317 C4.11185231,14.392317 9.44203123,9.15874716 9.44203123,8.38910454 C9.44203123,7.61946192 7.46225049,6.08017668 8.22370462,2.07803507 C8.52371755,0.50149913 7.50001862,0.0237049926 6.14935128,0.0237049926 C4.07119066,0.0237049926 1.21832661,1.15446393 1.21832661,1.15446393" id="path-6"></path>
        <linearGradient x1="26.9596317%" y1="-24.1341535%" x2="76.4836817%" y2="120.934228%" id="linearGradient-8">
            <stop stop-color="#A15444" offset="0%"></stop>
            <stop stop-color="#BC704B" offset="100%"></stop>
        </linearGradient>
    </defs>
    <g id="Page-1" stroke="none" stroke-width="1" fill="none" fill-rule="evenodd">
        <g id="Page-/-Souscription-E-Facture-/-Desktop" transform="translate(-209.000000, -136.000000)">
            <g id="Group-16-Copy" transform="translate(209.000000, 136.000000)">
                <rect id="Rectangle" stroke="#979797" stroke-width="1.0584" fill="url(#linearGradient-1)" fill-rule="nonzero" x="54.4882444" y="73.6628406" width="206.313614" height="138.849434"></rect>
                <path d="M40.2062962,67.8341014 L258.155478,67.8341014 C260.493631,67.8341014 262.389078,69.7295487 262.389078,72.0677014 L262.389078,220.466861 C262.389078,222.805014 260.493631,224.700461 258.155478,224.700461 L40.2062962,224.700461 C37.8681435,224.700461 35.9726962,222.805014 35.9726962,220.466861 L35.9726962,72.0677014 C35.9726962,69.7295487 37.8681435,67.8341014 40.2062962,67.8341014 Z M102.061802,80.0892857 L102.061802,206.317684 L255.045844,206.317684 L255.045844,80.0892857 L102.061802,80.0892857 Z" id="Combined-Shape" fill="#000D42" fill-rule="nonzero"></path>
                <rect id="Rectangle" fill="#FFFFFF" fill-rule="nonzero" x="42.6734926" y="80.0766871" width="59.6018203" height="126.288344"></rect>
                <rect id="Rectangle" fill="#4D4D4D" fill-rule="nonzero" opacity="0.229771205" x="112.150171" y="7.99693252" width="29.6245734" height="45.5760369"></rect>
                <ellipse id="Oval" stroke="#FFFFFF" stroke-width="2.1168" fill="#D8F46A" fill-rule="nonzero" cx="103.686007" cy="52.9758842" rx="40.2047782" ry="40.2764977"></ellipse>
                <g id="Rectangle" transform="translate(63.481229, 12.699387)">
                    <mask id="mask-3" fill="white">
                        <use xlink:href="#path-2"></use>
                    </mask>
                    <g id="Mask" fill-rule="nonzero"></g>
                    <g id="Group-20" mask="url(#mask-3)">
                        <g transform="translate(20.102389, 10.599078)">
                            <g id="Group-12" transform="translate(15.209044, 21.871403)">
                                <mask id="mask-5" fill="white">
                                    <use xlink:href="#path-4"></use>
                                </mask>
                                <g id="Clip-11"></g>
                            </g>
                            <g id="Group-20">
                                <g id="Group-9" transform="translate(0.000000, 0.102055)">
                                    <path d="M13.9619773,36.5580244 C13.9619773,36.5580244 11.898132,31.6904966 10.1781594,28.213713 C8.4583391,24.7369295 6.05046884,13.263713 11.2102343,6.6577165 C16.3698475,0.0518739125 19.4656154,0.0518739125 21.5294607,0.0518739125 C23.593306,0.0518739125 31.1609417,2.4856378 32.1928644,12.568264 C33.2246347,22.6508901 25.3132786,35.5150047 25.3132786,35.5150047 C25.3132786,35.5150047 20.2546342,31.9401687 22.2175107,25.4323785 C22.9195714,23.1043635 18.4336928,25.4323785 18.4336928,25.4323785 C18.4336928,25.4323785 19.4656154,34.471985 13.9619773,36.5580244" id="Fill-1" fill="#5D4B23"></path>
                                    <path d="M29.5444203,56.1069469 C29.5444203,56.1069469 31.8287827,67.1898006 31.5242011,72.4233704 L36.2452167,72.4233704 C36.2452167,72.4233704 35.940635,58.7237318 35.6360534,53.0283764 C35.3314717,47.333021 29.5444203,56.1069469 29.5444203,56.1069469" id="Fill-3" fill="#D98D67"></path>
                                    <path d="M3.07050287,57.6812508 C3.07050287,57.6812508 3.73114047,64.4959744 3.42655882,66.0352597 C3.12197717,67.5745449 3.12197717,74.0395429 3.12197717,74.0395429 L8.14757444,74.0395429 C8.14757444,74.0395429 8.99598663,66.6534366 9.10487457,64.4972059 C9.21361022,62.3409751 13.0208809,57.7231194 13.0208809,57.7231194 C13.0208809,57.7231194 3.62819188,54.2529548 3.07050287,57.6812508" id="Fill-5" fill="#D98D67"></path>
                                    <path d="M17.1937815,33.8149961 C11.9998628,35.7457266 10.2034854,39.0208807 4.87330644,39.9444519 C4.87330644,39.9444519 2.58894405,45.6398073 2.2843624,48.2565922 C1.97978074,50.8733771 0,57.030518 0,57.030518 L9.44203123,59.0315888 C9.44203123,59.0315888 8.6805771,66.2662294 9.44203123,67.3437291 C10.2034854,68.4212288 10.8126487,70.1144425 10.8126487,70.1144425 L28.1738029,71.1919422 C28.1738029,71.1919422 29.6967111,59.3394459 30.0012928,58.2619462 C30.0012928,58.2619462 35.6360534,56.4148039 40.2047782,55.7990898 C40.2047782,55.7990898 37.0066708,46.1015928 36.85438,43.4848079 C36.7020892,40.868023 36.2609026,40.5141413 33.6562726,39.6365948 C28.4022391,37.8664168 23.3766418,31.6951804 22.798514,31.6951804 L20.8240085,33.8149961 L18.5033354,38.789988 C21.092912,34.186173 20.656394,32.5278424 17.1937815,33.8149961 Z" id="Fill-7" fill="#423471"></path>
                                </g>
                                <g id="Group-12" transform="translate(15.076792, 25.038475)">
                                    <mask id="mask-7" fill="white">
                                        <use xlink:href="#path-6"></use>
                                    </mask>
                                    <g id="Clip-11"></g>
                                    <path d="M1.21832661,1.15446393 C1.21832661,1.15446393 1.21832661,7.77339044 0,9.92838977 C1.82748992,12.6991032 4.11185231,14.392317 4.11185231,14.392317 C4.11185231,14.392317 9.44203123,9.15874716 9.44203123,8.38910454 C9.44203123,7.61946192 7.46225049,6.08017668 8.22370462,2.07803507 C8.52371755,0.50149913 7.50001862,0.0237049926 6.14935128,0.0237049926 C4.07119066,0.0237049926 1.21832661,1.15446393 1.21832661,1.15446393" id="Fill-10" fill="url(#linearGradient-8)" mask="url(#mask-7)"></path>
                                </g>
                                <g id="Group-19" transform="translate(12.030975, 7.028838)" fill="#D98D67">
                                    <path d="M4.68279062,0.0441928791 C4.68279062,0.0441928791 0.555100062,3.86870098 0.555100062,9.08379936 C0.555100062,14.2988977 0.211075085,18.1234058 5.37084057,21.2524649 C5.37084057,21.2524649 7.43453356,24.0339533 10.5304538,21.2524649 C13.626374,18.4711304 15.0021693,17.7756813 14.6581443,14.6466223 C14.3141194,11.5175632 8.12258351,8.38850422 4.68279062,0.0441928791" id="Fill-17"></path>
                                </g>
                            </g>
                        </g>
                    </g>
                </g>
                <ellipse id="Oval" stroke="#FFFFFF" stroke-width="2.1168" fill-rule="nonzero" cx="103.686007" cy="52.9758842" rx="40.2047782" ry="40.2764977"></ellipse>
                <rect id="Rectangle" fill="#D8D8D8" fill-rule="nonzero" x="172.457338" y="93.2718894" width="55.0170648" height="5.29953917"></rect>
                <rect id="Rectangle" fill="#9C9C9C" fill-rule="nonzero" x="0" y="221.520737" width="296.245734" height="8.47926267" rx="4.2336"></rect>
                <rect id="Rectangle" fill="#D1D1D1" fill-rule="nonzero" x="0" y="217.281106" width="296.245734" height="7.41935484"></rect>
                <rect id="Rectangle-Copy-104" fill="#D8D8D8" fill-rule="nonzero" transform="translate(84.641638, 133.018433) scale(1, -1) translate(-84.641638, -133.018433) " x="74.0614334" y="131.428571" width="21.1604096" height="3.1797235"></rect>
                <rect id="Rectangle-Copy-105" fill="#D8D8D8" fill-rule="nonzero" transform="translate(79.351536, 142.557604) scale(1, -1) translate(-79.351536, -142.557604) " x="64.5392491" y="140.967742" width="29.6245734" height="3.1797235"></rect>
                <rect id="Rectangle-Copy-106" fill="#D8D8D8" fill-rule="nonzero" transform="translate(79.351536, 152.096774) scale(1, -1) translate(-79.351536, -152.096774) " x="64.5392491" y="150.506912" width="29.6245734" height="3.1797235"></rect>
                <rect id="Rectangle-Copy-107" fill="#D8D8D8" fill-rule="nonzero" transform="translate(79.351536, 162.695853) scale(1, -1) translate(-79.351536, -162.695853) " x="64.5392491" y="161.105991" width="29.6245734" height="3.1797235"></rect>
                <rect id="Rectangle-Copy-108" fill="#D8D8D8" fill-rule="nonzero" transform="translate(79.351536, 170.115207) scale(1, -1) translate(-79.351536, -170.115207) " x="64.5392491" y="168.525346" width="29.6245734" height="3.1797235"></rect>
                <rect id="Rectangle" fill="#EBC36B" fill-rule="nonzero" x="0" y="148.387097" width="87.8156997" height="51.9354839" rx="2.1168"></rect>
                <ellipse id="Oval" fill="#980A01" fill-rule="nonzero" cx="68.2423208" cy="192.373272" rx="4.76109215" ry="4.76958525"></ellipse>
                <ellipse id="Oval-Copy-3" fill="#FF8A01" fill-rule="nonzero" cx="78.8225256" cy="192.373272" rx="4.76109215" ry="4.76958525"></ellipse>
                <rect id="Rectangle" fill="#F9D566" fill-rule="nonzero" x="7.40614334" y="179.124424" width="46.552901" height="2.11981567"></rect>
                <rect id="Rectangle-Copy-83" fill="#F9D566" fill-rule="nonzero" x="7.40614334" y="182.304147" width="21.1604096" height="5.29953917"></rect>
                <rect id="Rectangle" fill="#F4E784" fill-rule="nonzero" x="8.46416382" y="164.285714" width="16.9283276" height="10.5990783" rx="2.1168"></rect>
                <rect id="Rectangle" fill="#C3994F" fill-rule="nonzero" x="7.40614334" y="155.806452" width="57.1331058" height="1.05990783"></rect>
                <rect id="Rectangle-Copy-84" fill="#C3994F" fill-rule="nonzero" x="7.40614334" y="158.986175" width="57.1331058" height="1.05990783"></rect>
                <path d="" id="Path-4" stroke="#979797" stroke-width="1.0584" fill-rule="nonzero"></path>
                <ellipse id="Oval" fill="#FBD789" fill-rule="nonzero" cx="256.040956" cy="131.428571" rx="16.9283276" ry="16.9585253"></ellipse>
                <ellipse id="Oval" stroke="#C3994F" stroke-width="1.0584" fill-rule="nonzero" cx="256.040956" cy="131.428571" rx="14.8122867" ry="14.8387097"></ellipse>
                <ellipse id="Oval-Copy-10" fill="#FBD789" fill-rule="nonzero" cx="278.788396" cy="133.018433" rx="15.3412969" ry="15.3686636"></ellipse>
                <ellipse id="Oval-Copy-10" stroke="#C3994F" stroke-width="1.0584" fill-rule="nonzero" cx="278.788396" cy="133.018433" rx="12.1672355" ry="12.1889401"></ellipse>
                <ellipse id="Oval-Copy-11" fill-rule="nonzero" cx="284.607509" cy="116.589862" rx="12.6962457" ry="12.718894"></ellipse>
                <ellipse id="Oval-Copy-11" fill="#FBD789" fill-rule="nonzero" cx="284.607509" cy="116.589862" rx="12.6962457" ry="12.718894"></ellipse>
                <ellipse id="Oval-Copy-11" stroke="#C3994F" stroke-width="1.0584" fill-rule="nonzero" cx="284.607509" cy="116.589862" rx="9.5221843" ry="9.53917051"></ellipse>
                <ellipse id="Oval-Copy-12" fill="#FBD789" fill-rule="nonzero" cx="294.658703" cy="164.93759" rx="15.3412969" ry="15.3686636"></ellipse>
                <ellipse id="Oval-Copy-12" stroke="#C3994F" stroke-width="1.0584" fill-rule="nonzero" cx="294.482366" cy="164.757146" rx="12.6962457" ry="12.718894"></ellipse>
                <path d="M201.023891,5.1159077e-13 L118.498294,5.1159077e-13 L118.498294,131.893386 C118.925336,140.062772 123.154146,144.147465 131.184724,144.147465 C139.215302,144.147465 162.495024,144.147465 201.023891,144.147465 L201.023891,5.1159077e-13 Z" id="Path-5" fill="#EDEBE6" fill-rule="nonzero"></path>
                <rect id="Rectangle-Copy-89" fill="#BBBBBB" fill-rule="nonzero" x="130.136519" y="11.6589862" width="59.2491468" height="3.1797235"></rect>
                <rect id="Rectangle-Copy-90" fill="#BBBBBB" fill-rule="nonzero" x="130.136519" y="21.1981567" width="30.6825939" height="3.1797235"></rect>
                <rect id="Rectangle-Copy-92" fill="#BBBBBB" fill-rule="nonzero" transform="translate(146.535836, 31.267281) scale(1, -1) translate(-146.535836, -31.267281) " x="130.136519" y="29.6774194" width="32.7986348" height="3.1797235"></rect>
                <rect id="Rectangle-Copy-93" fill="#BBBBBB" fill-rule="nonzero" transform="translate(146.535836, 39.746544) scale(1, -1) translate(-146.535836, -39.746544) " x="130.136519" y="38.156682" width="32.7986348" height="3.1797235"></rect>
                <rect id="Rectangle-Copy-94" fill="#BBBBBB" fill-rule="nonzero" transform="translate(151.296928, 49.285714) scale(1, -1) translate(-151.296928, -49.285714) " x="131.194539" y="47.6958525" width="40.2047782" height="3.1797235"></rect>
                <rect id="Rectangle-Copy-95" fill="#BBBBBB" fill-rule="nonzero" transform="translate(151.296928, 57.764977) scale(1, -1) translate(-151.296928, -57.764977) " x="131.194539" y="56.1751152" width="40.2047782" height="3.1797235"></rect>
                <rect id="Rectangle-Copy-96" fill="#BBBBBB" fill-rule="nonzero" transform="translate(159.761092, 65.184332) scale(1, -1) translate(-159.761092, -65.184332) " x="130.136519" y="63.59447" width="59.2491468" height="3.1797235"></rect>
                <rect id="Rectangle-Copy-97" fill="#BBBBBB" fill-rule="nonzero" transform="translate(159.761092, 74.723502) scale(1, -1) translate(-159.761092, -74.723502) " x="130.136519" y="73.1336406" width="59.2491468" height="3.1797235"></rect>
                <rect id="Rectangle-Copy-98" fill="#BBBBBB" fill-rule="nonzero" transform="translate(135.955631, 83.202765) scale(1, -1) translate(-135.955631, -83.202765) " x="130.136519" y="81.6129032" width="11.6382253" height="3.1797235"></rect>
                <rect id="Rectangle-Copy-99" fill="#BBBBBB" fill-rule="nonzero" transform="translate(134.368601, 91.682028) scale(1, -1) translate(-134.368601, -91.682028) " x="131.194539" y="90.0921659" width="6.34812287" height="3.1797235"></rect>
                <rect id="Rectangle-Copy-100" fill="#BBBBBB" fill-rule="nonzero" transform="translate(134.368601, 100.161290) scale(1, -1) translate(-134.368601, -100.161290) " x="131.194539" y="98.5714286" width="6.34812287" height="3.1797235"></rect>
                <rect id="Rectangle-Copy-101" fill="#BBBBBB" fill-rule="nonzero" transform="translate(134.368601, 107.580645) scale(1, -1) translate(-134.368601, -107.580645) " x="131.194539" y="105.990783" width="6.34812287" height="3.1797235"></rect>
                <rect id="Rectangle-Copy-102" fill="#BBBBBB" fill-rule="nonzero" transform="translate(134.368601, 117.119816) scale(1, -1) translate(-134.368601, -117.119816) " x="131.194539" y="115.529954" width="6.34812287" height="3.1797235"></rect>
                <rect id="Rectangle-Copy-103" fill="#BBBBBB" fill-rule="nonzero" transform="translate(134.368601, 125.599078) scale(1, -1) translate(-134.368601, -125.599078) " x="131.194539" y="124.009217" width="6.34812287" height="3.1797235"></rect>
                <path d="M132.25256,145.207373 L165.051195,145.207373 L165.051195,84.7926267 L153.462739,84.7926267 C147.582326,85.3113651 144.642119,88.0237033 144.642119,92.9296415 C144.642119,100.288549 144.642119,114.089676 144.642119,132.760294 C144.642119,141.058347 140.512266,145.207373 132.25256,145.207373 Z" id="Path-3" fill="#BBBBBB" fill-rule="nonzero"></path>
                <path d="M164.0438,187.345622 L232.764505,187.345622 L232.764155,96.5150703 C232.803318,88.7001079 229.559918,84.7926267 223.033953,84.7926267 C216.507988,84.7926267 192.94832,84.7926267 152.354949,84.7926267 C160.147516,84.0860215 164.0438,87.9935027 164.0438,96.5150703 C164.0438,105.036638 164.0438,135.313488 164.0438,187.345622 Z" id="Path-2" fill="#F5F4F0" fill-rule="nonzero"></path>
                <rect id="Rectangle-Copy-85" fill="#BBBBBB" fill-rule="nonzero" x="172.457338" y="103.870968" width="55.0170648" height="3.1797235"></rect>
                <rect id="Rectangle-Copy-86" fill="#BBBBBB" fill-rule="nonzero" x="172.457338" y="112.35023" width="55.0170648" height="3.1797235"></rect>
                <rect id="Rectangle-Copy-87" fill="#BBBBBB" fill-rule="nonzero" x="172.457338" y="120.829493" width="55.0170648" height="3.1797235"></rect>
                <rect id="Rectangle-Copy-88" fill="#BBBBBB" fill-rule="nonzero" x="172.457338" y="130.368664" width="30.6825939" height="3.1797235"></rect>
            </g>
        </g>
    </g>
</svg>