<?xml version="1.0" standalone="no"?>
<!DOCTYPE svg PUBLIC "-//W3C//DTD SVG 1.1//EN" "http://www.w3.org/Graphics/SVG/1.1/DTD/svg11.dtd" >
<svg xmlns="http://www.w3.org/2000/svg">
<metadata></metadata>
<defs>
<font id="tradegothiclightoblique" horiz-adv-x="1138" >
<font-face units-per-em="2048" ascent="1638" descent="-410" />
<missing-glyph horiz-adv-x="569" />
<glyph horiz-adv-x="2048" />
<glyph horiz-adv-x="2048" />
<glyph unicode="&#xd;" horiz-adv-x="681" />
<glyph unicode=" "  horiz-adv-x="569" />
<glyph unicode="&#x09;" horiz-adv-x="569" />
<glyph unicode="&#xa0;" horiz-adv-x="569" />
<glyph unicode="!" horiz-adv-x="454" d="M139 0l41 184h176l-41 -184h-176zM276 455l191 1024h176l-264 -1024h-103z" />
<glyph unicode="&#x22;" horiz-adv-x="681" d="M401 1016l103 463h102l-102 -463h-103zM629 1016l102 463h103l-103 -463h-102z" />
<glyph unicode="#" d="M158 481l22 99h254l119 321h-242l21 98h254l174 480h102l-174 -480h301l174 480h103l-174 -480h217l-21 -98h-231l-117 -321h217l-22 -99h-232l-174 -481h-100l174 481h-303l-174 -481h-101l174 481h-241zM537 580h301l118 321h-303z" />
<glyph unicode="$" d="M125 299l113 68q25 -117 105.5 -193t201.5 -76l133 609q-78 23 -136.5 52t-111.5 75.5t-72.5 114t-1.5 153.5q41 178 176.5 275.5t317.5 101.5l33 143h98l-33 -143q131 -6 222.5 -79t111.5 -163q-2 0 -50 -33t-54 -37q-59 186 -252 211l-127 -577q39 -12 71.5 -24.5 t71.5 -30t66.5 -35t58.5 -43t47 -53t31.5 -63.5t12.5 -76t-9 -89q-41 -180 -192.5 -282.5t-335.5 -104.5l-54 -244h-98l53 244q-150 6 -256 85t-141 214zM468 997q13 -49 53 -80.5t82.5 -51.5t103.5 -36l120 551q-123 0 -227 -73.5t-131 -194.5q-14 -66 -1 -115zM643 98 q129 2 249 86t146 207q6 25 7.5 48.5t-5 44t-14.5 37t-23.5 31.5t-27.5 27.5t-34.5 24.5t-37 20.5t-40 19.5t-40 16.5t-41.5 15.5q-8 2 -10 4z" />
<glyph unicode="%" horiz-adv-x="1820" d="M420 -20l1204 1519h109l-1207 -1519h-106zM422 1142q31 138 151.5 237.5t259 99.5t215 -98.5t46 -236.5t-151.5 -237.5t-259 -99.5t-215 98.5t-46 236.5zM520 1143q-25 -98 30.5 -168t154 -70t184.5 69.5t106 168.5q23 98 -31.5 167.5t-153.5 69.5t-184 -69.5 t-106 -167.5zM1054.5 335q30.5 138 151.5 237.5t259.5 99.5t215 -98.5t46 -236.5t-150.5 -237.5t-258 -99.5t-216 98.5t-47.5 236.5zM1153 336q-23 -98 31.5 -168t154 -70t185.5 70t104 168q25 98 -30.5 167.5t-153.5 69.5t-184 -69.5t-107 -167.5z" />
<glyph unicode="&#x26;" horiz-adv-x="1366" d="M168 360q35 156 130 255.5t318 230.5q-80 174 -41 344q33 145 131.5 227t239.5 82q129 0 195.5 -75.5t38.5 -206.5q-14 -57 -45 -111.5t-63 -91.5t-90 -83t-94 -69.5t-106 -68.5q20 -43 69.5 -153t88.5 -183.5t82 -134.5q151 171 235 374l123 -24q-106 -242 -284 -436 q94 -125 225 -134l-27 -122q-186 8 -309 161q-213 -162 -457 -161q-186 0 -293.5 99t-66.5 281zM301 352q-27 -123 52 -192.5t206 -69.5q193 0 361 143q-55 63 -137.5 225.5t-127.5 278.5q-154 -76 -238.5 -160t-115.5 -225zM707 1176q-31 -143 30 -271q117 57 203 144.5 t107 175.5q14 74 -18 119t-114 45q-161 0 -208 -213z" />
<glyph unicode="'" horiz-adv-x="454" d="M401 1016l103 463h102l-102 -463h-103z" />
<glyph unicode="(" horiz-adv-x="681" d="M264.5 242.5q-24.5 226.5 22.5 423.5q47 207 168 428t299 405h147q-193 -180 -318.5 -400t-172.5 -433q-29 -139 -30 -278.5t38 -286t114 -269.5h-147q-96 184 -120.5 410.5z" />
<glyph unicode=")" horiz-adv-x="681" d="M76 -168q193 180 318.5 400.5t172.5 433.5q29 139 30 278t-38 285.5t-115 269.5h148q96 -184 120.5 -410.5t-22.5 -422.5q-45 -209 -167 -429.5t-300 -404.5h-147z" />
<glyph unicode="*" horiz-adv-x="1024" d="M442 1188l60 106l248 -104l36 289h111l-86 -289l291 108l8 -102l-301 -70l139 -211l-106 -71l-82 254l-201 -254l-78 61l240 221z" />
<glyph unicode="+" horiz-adv-x="1228" d="M188 477l25 111h477l105 477h110l-104 -477h477l-25 -111h-477l-106 -477h-111l107 477h-478z" />
<glyph unicode="," horiz-adv-x="569" d="M96 -307l187 307h-86l41 184h176l-41 -184l-197 -307h-80z" />
<glyph unicode="-" horiz-adv-x="681" d="M193 477l24 111h510l-25 -111h-509z" />
<glyph unicode="." horiz-adv-x="569" d="M197 0l41 184h176l-41 -184h-176z" />
<glyph unicode="/" horiz-adv-x="569" d="M-29 -20l842 1519h113l-834 -1519h-121z" />
<glyph unicode="0" d="M186 443.5q0 134.5 35 296t95.5 295.5t144.5 239.5t196.5 165t243.5 59.5t218 -59.5t124 -165t37 -239.5t-35 -295.5t-95 -296t-143 -240t-197 -164.5t-245 -59t-218 59t-124 164.5t-37 240zM319.5 400q4.5 -144 73 -227t197.5 -83q193 0 322.5 173t197.5 476 q41 195 37 339.5t-71.5 227.5t-198.5 83q-190 0 -321.5 -173.5t-199.5 -476.5q-41 -195 -36.5 -339z" />
<glyph unicode="1" d="M274 0l25 111h254l274 1241l-290 -41l18 80l354 108h86l-307 -1388h246l-25 -111h-635z" />
<glyph unicode="2" d="M90 0l19 86q20 90 159.5 226.5t474.5 351.5q127 82 198 133t113 100t56 85t29 99q31 139 -32 223.5t-226 84.5q-133 0 -240.5 -85t-181.5 -249l-113 22q80 199 232.5 310.5t341.5 111.5q201 0 293 -111.5t51 -302.5q-33 -143 -133.5 -252.5t-344.5 -259.5 q-506 -309 -548 -462h811l-25 -111h-934z" />
<glyph unicode="3" d="M90 274l121 62q37 -137 114.5 -191.5t227.5 -54.5q365 0 436 324q35 158 -55 236.5t-301 78.5h-135l24 111h111q406 0 469 286q29 135 -40 199t-224 64q-100 0 -190.5 -47.5t-192.5 -145.5l-80 70q246 233 497 233q61 0 118 -11t112 -36t90 -67t51.5 -103t-4.5 -143 q-29 -129 -101.5 -210t-211.5 -138q258 -106 198 -373q-49 -223 -209.5 -330.5t-392.5 -107.5q-375 -1 -432 294z" />
<glyph unicode="4" d="M111 373l24 104l871 1002h180l-221 -998h223l-25 -108h-223l-82 -373h-135l82 373h-694zM270 483h559l193 869h-14z" />
<glyph unicode="5" d="M152 256l124 72q35 -125 108 -181.5t194 -56.5q184 0 305 113.5t157 275.5q39 178 -29.5 286.5t-230.5 108.5q-100 0 -208 -55t-171 -149l-102 18l242 791h735l-25 -111h-635l-155 -514q168 131 362 131q207 0 298 -143.5t44 -352.5q-51 -229 -217 -369t-411 -140 q-143 0 -248 71.5t-137 204.5z" />
<glyph unicode="6" d="M192.5 481q8.5 94 32.5 205q27 115 72 227.5t115.5 219t155.5 187.5t195.5 130t231.5 49q189 0 324 -123l-84 -100q-72 113 -266 113q-96 0 -185.5 -42t-154 -109t-118.5 -156t-87 -177t-53 -176q98 88 213.5 142.5t226.5 54.5q221 0 317.5 -137.5t49.5 -350.5 q-45 -205 -218.5 -331.5t-381.5 -126.5q-119 0 -202 41.5t-123 108.5t-54.5 162t-6 189zM330 526q-45 -199 30.5 -317.5t245.5 -118.5t287 98.5t156 272.5q35 158 -39 256t-246 98q-76 0 -157 -37t-138 -87t-96 -96t-43 -69z" />
<glyph unicode="7" d="M252 0l934 1368h-770l24 111h914l-19 -80l-938 -1399h-145z" />
<glyph unicode="8" d="M133 381q55 244 428 397q-260 100 -205 346q39 182 184.5 278.5t360.5 96.5t317.5 -96t63.5 -279q-55 -246 -360 -346q307 -154 252 -397q-88 -401 -609 -401q-246 0 -362.5 95t-69.5 306zM268 381q-31 -143 59.5 -217t262.5 -74t295 74t153 217q25 113 -50 185.5 t-259 154.5q-221 -82 -328.5 -154.5t-132.5 -185.5zM492 1130q-47 -211 262 -299q346 88 393 299q29 127 -46 193t-224.5 66t-252.5 -66t-132 -193z" />
<glyph unicode="9" d="M127 102l84 105q49 -59 108.5 -88t151.5 -29q123 0 227.5 55.5t177 150.5t120.5 205.5t77 235.5q-98 -90 -215 -145t-227 -55q-145 0 -240.5 67.5t-126.5 174t-4 229.5q49 225 224 358t384 133q119 0 202 -42t123 -108.5t54.5 -161.5t6 -189.5t-32.5 -204.5 q-27 -119 -68 -228.5t-105.5 -218t-144.5 -188.5t-188.5 -129t-231.5 -49q-221 -1 -356 122zM397 1018q-35 -164 38 -267.5t243 -103.5q76 0 156.5 38t139 89t96.5 97.5t44 68.5q45 207 -29.5 328t-244.5 121t-287 -98.5t-156 -272.5z" />
<glyph unicode=":" horiz-adv-x="569" d="M197 0l41 184h176l-41 -184h-176zM334 623l41 184h176l-41 -184h-176z" />
<glyph unicode=";" horiz-adv-x="569" d="M96 -307l187 307h-86l41 184h176l-41 -184l-197 -307h-80zM334 623l41 184h176l-41 -184h-176z" />
<glyph unicode="&#x3c;" horiz-adv-x="1228" d="M186 475l27 115l1173 487l-26 -119l-1020 -426l831 -426l-26 -118z" />
<glyph unicode="=" horiz-adv-x="1228" d="M141 272l25 111h1065l-25 -111h-1065zM233 682l25 111h1065l-25 -111h-1065z" />
<glyph unicode="&#x3e;" horiz-adv-x="1228" d="M80 -12l26 118l1020 426l-831 426l27 119l956 -487l-27 -115z" />
<glyph unicode="?" horiz-adv-x="796" d="M238 0l41 184h176l-41 -184h-176zM336 1247q147 252 393 252q141 0 220 -88t44 -246q-16 -76 -67.5 -143.5t-113.5 -119.5t-124.5 -103t-113 -116t-66.5 -134l-21 -98h-110l33 147q12 57 58 116.5t105.5 112t119 106.5t107.5 121.5t64 137.5q20 92 -25.5 144.5 t-136.5 52.5q-157 0 -276 -193z" />
<glyph unicode="@" horiz-adv-x="1638" d="M264 745q45 205 185.5 379t336 274.5t396.5 100.5q190 0 330.5 -81t200 -226t20.5 -326q-35 -152 -137.5 -290t-227.5 -216.5t-231 -78.5q-55 0 -86 36.5t-21 106.5l-6 -4q-166 -139 -299 -139q-125 0 -182.5 88t-28.5 217q33 147 125 285.5t229.5 229.5t278.5 91 q159 0 184 -174l84 135h111l-336 -604q-43 -80 -51 -115q-12 -59 41 -59q123 0 265 160.5t181 336.5q29 123 2.5 221.5t-91 169t-161 108.5t-209.5 38q-182 0 -353 -93t-288.5 -249t-158.5 -336q-39 -178 14 -330.5t184 -241.5t309 -89q156 0 320 76.5t285 205.5h106 q-131 -172 -331.5 -272t-399.5 -100q-211 0 -363.5 103t-213 278.5t-13.5 383.5zM645 596q-20 -92 18.5 -150.5t114.5 -58.5q92 0 194.5 87t173.5 202t91 211q16 74 -21.5 136t-99.5 62q-102 0 -205.5 -81.5t-173 -193.5t-92.5 -214z" />
<glyph unicode="A" horiz-adv-x="1251" d="M51 0l801 1479h207l139 -1479h-143l-43 483h-559l-258 -483h-144zM512 594h494l-74 774h-4z" />
<glyph unicode="B" horiz-adv-x="1366" d="M205 0l327 1479h414q272 1 379 -89q76 -64 76 -180q0 -47 -12 -102q-27 -119 -92.5 -193.5t-188.5 -126.5q195 -96 195 -286q0 -45 -11 -96q-49 -219 -204.5 -312.5t-411.5 -93.5h-471zM365 111h350q195 0 302 72.5t142 230.5q7 34 7 65q0 91 -63 152q-85 82 -298 82 h-307zM522 823h322q70 0 131 13.5t118.5 42t98.5 85t59 134.5q10 46 10 84q0 89 -58 129q-83 57 -294 57h-266z" />
<glyph unicode="C" horiz-adv-x="1251" d="M263 739q77 346 273.5 553t462.5 207q188 0 279.5 -116.5t99.5 -311.5l-131 -27q-25 344 -284 345q-209 0 -355.5 -180.5t-210.5 -469.5q-31 -137 -30 -251q-1 -118 31 -208t106 -140t186 -50q86 0 157 27.5t125 81t93 113t78 139.5l121 -23q-92 -213 -236.5 -330.5 t-363.5 -117.5q-266 0 -372 206q-61 120 -61 287q0 120 32 266z" />
<glyph unicode="D" horiz-adv-x="1366" d="M205 0l327 1479h418q133 0 233.5 -39t158.5 -108q58 -68 88 -162q28 -88 28 -189v-13q-2 -108 -28 -229q-35 -154 -100.5 -283.5t-163 -233t-238 -163t-305.5 -59.5h-418zM365 111h286q244 0 410 163q165 164 233 465q28 126 29 228q0 142 -55 237q-94 164 -338 164h-287 z" />
<glyph unicode="E" d="M205 0l327 1479h844l-24 -111h-709l-121 -545h510l-24 -110h-510l-133 -602h747l-25 -111h-882z" />
<glyph unicode="F" d="M205 0l327 1479h869l-25 -111h-733l-121 -545h535l-25 -110h-534l-158 -713h-135z" />
<glyph unicode="G" horiz-adv-x="1366" d="M262 739q78 354 286 557t456 203q201 0 305 -117q100 -112 100 -297v-14l-131 -22q-4 154 -78 247t-229 93q-195 0 -351.5 -175.5t-222.5 -474.5q-23 -102 -30 -190q-2 -30 -2 -60q0 -58 9 -115q13 -87 51 -147.5t114.5 -98.5t187.5 -38q154 0 272.5 102.5t151.5 253.5 l31 136h-373l25 110h507l-153 -692h-117l33 145h-4q-88 -88 -188.5 -126.5t-249.5 -38.5q-254 0 -367 200q-66 118 -66 289q0 122 33 270z" />
<glyph unicode="H" horiz-adv-x="1478" d="M205 0l327 1479h136l-146 -656h799l145 656h136l-328 -1479h-135l157 713h-798l-158 -713h-135z" />
<glyph unicode="I" horiz-adv-x="569" d="M217 0l328 1479h135l-328 -1479h-135z" />
<glyph unicode="J" horiz-adv-x="909" d="M39 176l123 64q31 -84 69.5 -117t130.5 -33q199 0 256 262l250 1127h136l-259 -1168q-37 -162 -147.5 -246.5t-267.5 -84.5q-129 0 -191.5 46t-99.5 150z" />
<glyph unicode="K" horiz-adv-x="1251" d="M205 0l327 1479h136l-179 -803l854 803h166l-602 -566l332 -913h-152l-288 815l-350 -321l-109 -494h-135z" />
<glyph unicode="L" horiz-adv-x="1024" d="M205 0l327 1479h136l-303 -1368h659l-25 -111h-794z" />
<glyph unicode="M" horiz-adv-x="1705" d="M205 0l327 1479h238l129 -1254h4l688 1254h238l-328 -1479h-135l303 1368h-4l-747 -1368h-130l-141 1368h-4l-303 -1368h-135z" />
<glyph unicode="N" horiz-adv-x="1478" d="M205 0l327 1479h228l430 -1233h4l272 1233h136l-328 -1479h-139l-488 1368h-4l-303 -1368h-135z" />
<glyph unicode="O" horiz-adv-x="1366" d="M234 436q-3 32 -2 65q0 112 30 238q74 336 278 548t474 212q137 0 235.5 -57.5t147.5 -158.5t60 -241q2 -31 3 -63q0 -112 -30 -240q-74 -336 -278 -547.5t-474 -211.5q-137 0 -235.5 57t-147.5 158.5t-61 240.5zM398 740q-30 -138 -31 -249q0 -136 46 -230 q83 -171 289.5 -171t365.5 171q158 171 226 479q30 138 31 248q0 136 -46 230q-83 171 -290 171t-365 -170.5t-226 -478.5z" />
<glyph unicode="P" horiz-adv-x="1251" d="M205 0l327 1479h447q257 -1 355 -109q69 -76 68 -192q0 -51 -13 -111q-43 -195 -190.5 -303.5t-401.5 -108.5h-312l-145 -655h-135zM510 766h311q365 0 432 301q10 47 10 87q-1 86 -49 138q-72 76 -260 76h-311z" />
<glyph unicode="Q" horiz-adv-x="1366" d="M234 436q-2 32 -2 65q0 111 30 238q74 336 277.5 548t474.5 212q137 0 235.5 -57.5t147.5 -158.5t60 -241q2 -31 2 -63q0 -113 -29 -240q-41 -188 -127 -342.5t-207 -255.5q29 -82 77 -111.5t146 -29.5l-27 -123q-109 0 -190.5 44t-114.5 142q-141 -83 -305 -83h-4 q-137 0 -235.5 57t-147.5 158.5t-61 240.5zM398 740q-31 -138 -31 -249q0 -136 46 -230q83 -171 289 -171q135 0 250 74q-31 82 -64.5 115t-94.5 43l28 133q170 -31 244 -197q160 170 229 481q31 138 31 249q0 135 -46 230q-83 171 -290 171t-365.5 -171t-225.5 -478z" />
<glyph unicode="R" horiz-adv-x="1366" d="M205 0l327 1479h500q216 -1 312 -109q68 -76 67 -189q0 -48 -12 -104q-67 -299 -391 -377l206 -700h-147l-195 676h-383l-149 -676h-135zM514 786h365q147 0 250.5 78t134.5 213q10 45 10 83q0 80 -44 132q-65 76 -222 76h-365z" />
<glyph unicode="S" d="M150 375l133 39q4 -168 89 -246t261 -78q137 0 233.5 80t126.5 215q6 29 6 55q0 39 -13 71q-21 54 -70.5 87t-115 63.5t-135 54t-134 58.5t-111.5 77q-46 41 -66 109q-10 33 -10 72t10 84q37 170 173.5 276.5t336.5 106.5q176 0 279.5 -92t116.5 -262l-125 -35 q-12 129 -85 204t-210 75q-131 0 -226.5 -72t-124.5 -201q-6 -29 -6 -55q-1 -20 3 -38q8 -42 66 -87t177 -94q193 -78 284 -143.5t115 -145.5q11 -37 12 -78q0 -49 -16 -104q-41 -182 -194.5 -286.5t-341.5 -104.5q-211 0 -316.5 96t-121.5 299z" />
<glyph unicode="T" d="M367 1368l24 111h1012l-25 -111h-438l-303 -1368h-135l303 1368h-438z" />
<glyph unicode="U" horiz-adv-x="1478" d="M311 483l221 996h136l-224 -1008q-16 -76 -17 -135q0 -103 50 -159q78 -87 282 -87t321.5 87t162.5 294l223 1008h136l-222 -996q-111 -504 -644 -504l-1 1q-443 0 -443 346q0 71 19 157z" />
<glyph unicode="V" d="M344 1479h143l117 -1286h4l699 1286h143l-819 -1479h-135z" />
<glyph unicode="W" horiz-adv-x="1705" d="M360 1479h138l43 -1233h4l567 1233h135l17 -1233h4l594 1233h137l-723 -1479h-135l-19 1217h-4l-559 -1217h-135z" />
<glyph unicode="X" d="M25 0l632 774l-278 705h160l223 -590l477 590h160l-582 -705l297 -774h-160l-245 647l-525 -647h-159z" />
<glyph unicode="Y" d="M369 1479h151l203 -731l551 731h151l-657 -852l-139 -627h-135l139 627z" />
<glyph unicode="Z" d="M94 0l25 111l1050 1257h-708l24 111h877l-25 -115l-1050 -1253h782l-25 -111h-950z" />
<glyph unicode="[" horiz-adv-x="681" d="M147 -147l361 1626h381l-17 -74h-258l-327 -1479h258l-17 -73h-381z" />
<glyph unicode="\" horiz-adv-x="569" d="M307 1499h113l170 -1519h-121z" />
<glyph unicode="]" horiz-adv-x="681" d="M88 -147l16 73h258l328 1479h-258l17 74h380l-360 -1626h-381z" />
<glyph unicode="^" horiz-adv-x="1228" d="M250 606l637 873h108l254 -873h-135l-209 725l-520 -725h-135z" />
<glyph unicode="_" horiz-adv-x="1024" d="M-57 -256l22 102h1024l-22 -102h-1024z" />
<glyph unicode="`" horiz-adv-x="454" d="M297 1466h158l163 -282h-104z" />
<glyph unicode="a" horiz-adv-x="1024" d="M111 258q16 72 44.5 126t86 97t105.5 70t151.5 56.5t173 46t219.5 46.5l16 74q9 40 9 73q0 57 -28 89q-44 51 -177 51q-188 0 -353 -192l-71 49q183 241 448 241h2q182 1 251 -79q44 -51 44 -141q0 -51 -14 -113l-123 -557q-23 -99 -27 -195h-118l12 129 q-119 -80 -211 -114.5t-209 -34.5q-128 0 -194 74q-45 52 -46 130q0 34 9 74zM233 260q-5 -26 -6 -48q0 -52 30 -86q42 -48 126 -48q88 0 196.5 47t204.5 129l78 348q-186 -39 -308 -78t-187.5 -83t-93 -84t-40.5 -97z" />
<glyph unicode="b" d="M188 0l328 1479h123l-123 -553q100 86 183 122.5t188 36.5q184 -1 267 -155q51 -94 50 -219q0 -80 -20 -172q-59 -272 -201.5 -415.5t-349.5 -143.5q-229 0 -307 159l-52 -139h-86zM371 272q49 -94 110.5 -144t165.5 -50q154 0 260.5 122t149.5 316q21 98 21 177 q0 96 -30 166q-56 128 -217 128q-84 0 -189.5 -63.5t-154.5 -126.5z" />
<glyph unicode="c" horiz-adv-x="1024" d="M193 532q59 268 213.5 410.5t367.5 142.5h2q283 0 322 -288l-119 -31q-25 102 -77 161.5t-150 59.5q-336 0 -437 -455q-20 -90 -20 -164q1 -96 35 -166q62 -124 219 -124q106 0 189 54t180 167l88 -47q-221 -272 -478 -272q-219 0 -305 152q-52 92 -52 220q0 83 22 180z " />
<glyph unicode="d" d="M193 539q53 238 204.5 392t337.5 154q102 0 169 -36.5t128 -122.5l123 553h123l-328 -1479h-86l10 139q-146 -159 -373 -159h-3q-209 0 -287 143q-44 81 -44 203q0 94 26 213zM311 516q-19 -88 -19 -161q0 -89 28 -155q52 -122 204 -122q106 0 190.5 50t172.5 144 l117 525q-20 63 -98.5 126.5t-160.5 63.5q-162 0 -274.5 -128t-159.5 -343z" />
<glyph unicode="e" horiz-adv-x="1024" d="M193 532q55 250 206.5 401.5t354.5 151.5q210 -1 284 -151q42 -85 41 -204q0 -91 -24 -202h-742q-19 -75 -19 -145v-27q4 -82 29 -143t85.5 -98t146.5 -37q104 0 178 44t182 171l89 -53q-119 -143 -224.5 -201.5t-255.5 -58.5q-215 0 -304 139q-52 82 -52 211 q0 89 25 202zM336 627h618q4 42 4 79q0 114 -41 185q-55 94 -190 96q-78 0 -147.5 -36t-117.5 -91t-81 -115.5t-45 -117.5z" />
<glyph unicode="f" horiz-adv-x="569" d="M197 0l215 967h-176l20 98h176l35 152q31 141 107.5 211.5t209.5 70.5q43 0 131 -16l-24 -103q-59 20 -115 21q-74 0 -119 -40t-65 -130l-37 -166h217l-20 -98h-217l-216 -967h-122z" />
<glyph unicode="g" horiz-adv-x="1024" d="M12 -125q18 76 70.5 131t167.5 94v4q-63 14 -93 46q-21 23 -21 61q0 15 3 33q14 63 74.5 115.5t126.5 64.5q-61 49 -86 123q-14 42 -14 86q0 34 8 69q39 176 176 279.5t332 103.5q137 0 231 -73q115 94 244 94l-25 -111q-121 0 -182 -49q36 -61 36 -139q0 -40 -9 -84 q-41 -186 -177.5 -279.5t-316.5 -93.5q-78 0 -166 33q-104 -35 -121 -102q-6 -35 11.5 -52.5t88 -29t210.5 -11.5q233 0 327 -70q71 -54 71 -144q0 -29 -7 -62q-29 -129 -160 -209t-389 -80q-131 0 -221 20.5t-132 58.5t-55 80q-6 23 -6 49q0 21 4 44zM141 -102 q-4 -17 -4 -32q0 -60 57 -98q70 -47 232 -47q381 0 422 183q2 14 2 27q0 21 -6 39q-10 28 -45 53.5t-111.5 40t-191.5 14.5q-166 0 -252 -51.5t-103 -128.5zM373 715q-9 -41 -9 -76q0 -76 44 -123q63 -67 184 -67q276 0 334 266q11 48 11 87q0 74 -37 118q-58 67 -189 67 q-129 0 -219 -73.5t-119 -198.5z" />
<glyph unicode="h" d="M168 0l328 1479h122l-129 -582q117 98 207 143t201 45q252 0 252 -229q0 -57 -16 -129l-162 -727h-123l158 715q15 65 15 115q0 54 -18 90q-34 68 -153 67q-23 0 -42.5 -2t-42 -10t-37.5 -12.5t-40.5 -19.5t-38 -22.5t-43.5 -30t-42 -30.5t-49 -36.5t-50 -39.5l-174 -784 h-123z" />
<glyph unicode="i" horiz-adv-x="454" d="M166 0l235 1065h123l-235 -1065h-123zM455 1298l39 181h122l-38 -181h-123z" />
<glyph unicode="j" horiz-adv-x="454" d="M-121 -365l21 101q47 -14 84 -15q121 0 145 111l272 1233h123l-272 -1235q-25 -111 -91.5 -159t-174.5 -48q-68 0 -107 12zM455 1298l39 181h122l-38 -181h-123z" />
<glyph unicode="k" horiz-adv-x="1024" d="M168 0l328 1479h122l-217 -979l619 565h141l-434 -397l252 -668h-137l-211 582l-264 -238l-76 -344h-123z" />
<glyph unicode="l" horiz-adv-x="454" d="M166 0l328 1479h122l-327 -1479h-123z" />
<glyph unicode="m" horiz-adv-x="1705" d="M168 0l235 1065h123l-34 -162q115 98 196.5 140t198.5 42q90 0 150.5 -53t62.5 -141q102 94 195.5 144t201.5 50q137 1 191 -73q35 -47 35 -122q0 -42 -11 -93l-176 -797h-123l180 809q7 31 7 57q0 121 -152 121q-72 0 -183.5 -62.5t-177.5 -140.5l-174 -784h-122 l180 809q7 31 7 57q0 121 -153 121q-72 0 -183.5 -62.5t-176.5 -140.5l-174 -784h-123z" />
<glyph unicode="n" d="M168 0l235 1065h123l-37 -168q117 98 207 143t201 45q252 0 252 -229q0 -57 -16 -129l-162 -727h-123l158 715q15 65 15 115q0 54 -18 90q-34 68 -153 67q-23 0 -42.5 -2t-42 -10t-37.5 -12.5t-40.5 -19.5t-38 -22.5t-43.5 -30t-42 -30.5t-49 -36.5t-50 -39.5l-174 -784 h-123z" />
<glyph unicode="o" horiz-adv-x="1024" d="M168 324v25q0 88 25 183q25 115 68.5 210.5t110 174t164 123.5t217 45t198.5 -46t107 -123q28 -76 34 -176q1 -16 1 -31q0 -85 -24 -177q-27 -115 -70 -210t-109.5 -173.5t-164.5 -123.5t-218 -45t-198 46t-107.5 122t-33.5 176zM314 532q-25 -111 -24 -194 q0 -260 238 -260q316 0 418 454q25 111 24 195q0 260 -238 260q-316 -1 -418 -455z" />
<glyph unicode="p" d="M104 -377l320 1442h123l-35 -164h4q166 184 363 184q100 0 172.5 -46t106.5 -123.5t42 -177.5q2 -24 2 -48q0 -79 -20 -164q-59 -270 -203.5 -408t-337.5 -138q-104 0 -171 36.5t-128 122.5l-115 -516h-123zM371 268q23 -63 99.5 -126.5t158.5 -63.5q164 0 274.5 123 t159.5 348q19 69 19 136v26q-5 80 -27.5 141t-75.5 98t-129 37q-63 0 -129 -29.5t-109 -62t-125 -102.5z" />
<glyph unicode="q" d="M190 522q59 270 200.5 412.5t350.5 142.5q197 0 308 -157l49 137h86l-318 -1434h-123l115 514q-100 -84 -182 -120.5t-187 -36.5q-184 0 -268 154q-52 94 -52 218q0 79 21 170zM317 545q-21 -97 -21 -176q0 -95 30 -164q57 -127 217 -127q84 0 189.5 63.5t154.5 124.5 l114 520q-47 94 -109.5 143.5t-166.5 49.5q-154 0 -259.5 -121t-148.5 -313z" />
<glyph unicode="r" horiz-adv-x="681" d="M160 0l235 1065h123l-45 -203h4q68 100 163 161.5t196 61.5h55l-27 -118h-55q-109 0 -234.5 -109.5t-158.5 -255.5l-133 -602h-123z" />
<glyph unicode="s" horiz-adv-x="909" d="M94 195l105 63q49 -104 114.5 -142t173.5 -38q102 0 183.5 58.5t99.5 144.5q5 23 5 43q1 35 -15 62q-24 42 -74.5 65.5t-114 41t-126 38t-110.5 49.5q-49 30 -71 84q-13 32 -13 72q0 28 7 59q31 143 144.5 216.5t259.5 73.5q248 0 323 -192l-108 -66q-41 80 -96.5 120 t-145.5 40q-94 0 -163 -47t-89 -139q-4 -17 -4 -31q1 -33 19 -58q26 -36 76 -56.5t113.5 -38t125 -41t109.5 -57.5t68 -94q11 -32 11 -71q0 -34 -8 -73q-29 -137 -156 -219t-278 -82q-269 0 -365 215z" />
<glyph unicode="t" horiz-adv-x="569" d="M217 166l178 801h-159l20 98h160l78 348h122l-77 -348h233l-20 -98h-234l-174 -781q-5 -20 -5 -37q0 -71 87 -71h2q55 0 131 22l-22 -102q-14 -2 -41 -7t-48.5 -8t-39.5 -3q-129 0 -171 44q-28 29 -28 81q0 27 8 61z" />
<glyph unicode="u" d="M244 338l159 727h123l-157 -715q-15 -64 -14 -113q0 -55 18 -91q35 -68 151 -68q23 0 42.5 2t42 10t38 12t41 19.5t37.5 23t43 30t42 30.5t49 36.5t50 39.5l174 784h123l-235 -1065h-123l37 168q-117 -98 -207 -143t-199 -45q-251 0 -251 228q0 57 16 130z" />
<glyph unicode="v" horiz-adv-x="909" d="M264 1065h131l97 -877h4l489 877h131l-602 -1065h-121z" />
<glyph unicode="w" horiz-adv-x="1366" d="M250 1065h125l45 -856h4l432 856h121l49 -856h4l428 856h127l-545 -1065h-120l-50 856h-4l-428 -856h-127z" />
<glyph unicode="x" horiz-adv-x="909" d="M20 0l486 565l-209 500h147l162 -385l330 385h147l-430 -500l236 -565h-148l-186 449l-387 -449h-148z" />
<glyph unicode="y" horiz-adv-x="909" d="M-47 -365l20 101q2 0 47.5 -7.5t73.5 -7.5q72 0 151 71t154 224l-139 1049h135l103 -866h4l487 866h131l-649 -1141q-94 -164 -181 -232.5t-227 -68.5q-72 0 -110 12z" />
<glyph unicode="z" horiz-adv-x="909" d="M51 0l17 78l813 889h-566l21 98h729l-16 -78l-811 -889h630l-22 -98h-795z" />
<glyph unicode="{" horiz-adv-x="681" d="M227 63l88 400q20 80 1 123t-87 43l17 73q68 0 104.5 41t55.5 125l88 400q25 111 85 171t146 60h127l-16 -74h-103q-43 0 -68.5 -26.5t-41.5 -108.5l-91 -403q-23 -98 -70.5 -149.5t-125.5 -69.5v-4q70 -18 95.5 -69.5t2.5 -150.5l-90 -403q-14 -86 -2 -110.5t55 -24.5 h103l-17 -74h-127q-86 0 -119.5 60.5t-9.5 170.5z" />
<glyph unicode="|" horiz-adv-x="454" d="M168 -20l336 1519h110l-335 -1519h-111z" />
<glyph unicode="}" horiz-adv-x="681" d="M125 -168l16 74h103q43 0 68.5 26.5t41.5 108.5l90 403q23 98 71 149.5t126 70.5v4q-70 18 -95.5 69t-2.5 150l90 403q14 86 3 110.5t-56 24.5h-103l17 74h127q86 0 119.5 -60.5t9.5 -170.5l-88 -400q-20 -80 -1 -123t87 -43l-17 -73q-68 0 -104.5 -41t-55.5 -125 l-88 -400q-25 -111 -85 -171t-146 -60h-127z" />
<glyph unicode="~" horiz-adv-x="1228" d="M213 485q135 172 313 172q86 0 230 -65q4 -2 30.5 -13.5t33.5 -14.5t29.5 -12t33 -12t28 -8.5t30.5 -7.5t28 -2q41 0 84 23.5t70.5 49.5t70.5 71l59 -86q-133 -172 -315 -172q-86 0 -229 65q-4 2 -31 13.5t-34 14.5t-29.5 12t-33 12t-27.5 8.5t-30.5 7.5t-25.5 2 q-41 0 -85 -23.5t-72 -49.5t-71 -71z" />
<glyph unicode="&#xa1;" horiz-adv-x="454" d="M47 -414l264 1024h103l-191 -1024h-176zM334 881l41 184h176l-41 -184h-176z" />
<glyph unicode="&#xa2;" d="M227 -246l152 277q-102 63 -136 196t7 305q59 268 213.5 410.5t367.5 142.5q61 0 117 -16l119 219h111l-144 -262q102 -76 121 -229l-119 -31q-20 92 -63 147l-451 -823q37 -12 84 -12q106 0 189.5 54t179.5 167l88 -47q-221 -272 -477 -272q-68 0 -117 14l-131 -240 h-111zM373 532q-64 -282 65 -395l457 834q-39 16 -86 16q-336 0 -436 -455z" />
<glyph unicode="&#xa3;" d="M29 -20l28 126q135 55 217 175t117 270q6 29 19 135h-228l23 98h215q4 25 14 133.5t25 167.5q41 188 178 301t326 113q174 0 267 -101.5t87 -273.5l-125 -28q2 143 -56.5 218t-199.5 75q-143 0 -234.5 -83t-121.5 -227q-23 -102 -33 -295h299l-23 -98h-286 q-4 -16 -8.5 -53t-8.5 -55q-23 -100 -56.5 -177t-94.5 -168q190 -143 323 -143q127 0 211 60.5t160 216.5l108 -25q-74 -176 -195.5 -269t-287.5 -93q-72 0 -127 11t-107.5 39.5t-77 46t-83.5 62.5q-129 -134 -264 -159z" />
<glyph unicode="&#xa4;" d="M129 309l135 111q-82 129 -39 319.5t183 319.5l-86 110l94 78l90 -112q158 113 340 112.5t291 -112.5l139 112l61 -78l-135 -110q82 -129 39 -319.5t-182 -319.5l86 -111l-94 -78l-90 113q-158 -113 -340.5 -113t-290.5 113l-140 -113zM336 739q-37 -166 53 -287.5 t254 -121.5t307.5 121.5t180 287.5t-53.5 288t-252.5 122t-307 -122t-181.5 -288z" />
<glyph unicode="&#xa5;" d="M246 504l20 98h361l6 25l-51 176h-271l23 98h221l-170 578h135l203 -731l551 731h135l-434 -578h215l-23 -98h-266l-133 -176l-6 -25h360l-20 -98h-361l-112 -504h-135l112 504h-360z" />
<glyph unicode="&#xa6;" horiz-adv-x="454" d="M168 -20l127 573h111l-127 -573h-111zM377 926l127 573h110l-127 -573h-110z" />
<glyph unicode="&#xa7;" horiz-adv-x="1024" d="M182 27l99 55q12 -68 60 -112t120 -44q182 0 215 152q12 51 -27 122.5t-100.5 147.5t-122.5 154t-97 160.5t-22 148.5q20 96 102.5 152.5t182.5 56.5l6 4q-109 94 -76 238q23 104 113 170.5t209 66.5q104 0 170.5 -52.5t91.5 -148.5l-94 -51q-45 162 -197 162 q-74 0 -125 -41t-69 -123q-10 -47 29.5 -111.5t102 -133t124 -140.5t98.5 -153.5t20 -153.5q-47 -215 -274 -229q84 -131 55 -261q-25 -113 -122 -170t-216 -57q-94 0 -166.5 52.5t-89.5 138.5zM413.5 831.5q-12.5 -53.5 45 -161t136.5 -194.5t122 -87q63 0 110 40t62 103 q10 47 -43 148.5t-133.5 187.5t-137.5 86q-49 0 -99 -34.5t-62.5 -88z" />
<glyph unicode="&#xa8;" horiz-adv-x="454" d="M266 1204l43 193h135l-43 -193h-135zM586 1204l43 193h135l-43 -193h-135z" />
<glyph unicode="&#xa9;" horiz-adv-x="1638" d="M223 739.5q45 204.5 185.5 379.5t339 277.5t404.5 102.5t358.5 -102.5t215 -277.5t17.5 -379.5t-185.5 -380t-338 -277.5t-404.5 -102t-359.5 102t-215 277.5t-17.5 380zM346 739q-41 -180 8 -331.5t176.5 -238.5t307.5 -87q272 0 496.5 190.5t285.5 466.5q41 180 -8 332 t-176 239t-308 87q-272 0 -496 -190.5t-286 -467.5zM545 741q47 211 199.5 345.5t361.5 134.5q154 0 243 -84t76 -234h-110q0 94 -60.5 154.5t-169.5 60.5q-156 0 -268 -106.5t-149 -268.5q-33 -156 35.5 -269.5t218.5 -113.5q106 0 193 64t128 160h111 q-66 -147 -190 -236.5t-265 -89.5q-207 0 -303 137t-51 346z" />
<glyph unicode="&#xaa;" horiz-adv-x="614" d="M248 1006q10 51 42 92t69.5 64.5t92 44t96.5 29.5t97 21.5t80 18.5l12 51q8 43 -16.5 66.5t-95.5 23.5q-117 0 -211 -100l-58 41q63 76 133 108.5t164 32.5q119 0 161 -46t20 -150l-72 -320q-14 -66 -17 -131h-90l9 78q-68 -49 -125.5 -69.5t-135.5 -20.5q-84 0 -128 45 t-27 121zM350 1008q-8 -37 14.5 -61.5t69.5 -24.5q57 0 124 26.5t110 67.5l39 172q-18 -6 -70.5 -17.5t-91.5 -22.5t-84 -29.5t-74 -47.5t-37 -63z" />
<glyph unicode="&#xab;" horiz-adv-x="1024" d="M287 537l317 311h135l-323 -311l182 -320h-135zM590 537l319 311h135l-325 -311l186 -320h-135z" />
<glyph unicode="&#xac;" horiz-adv-x="1228" d="M233 682l25 111h1065l-117 -521h-110l92 410h-955z" />
<glyph unicode="&#xad;" horiz-adv-x="681" d="M193 477l24 111h510l-25 -111h-509z" />
<glyph unicode="&#xae;" horiz-adv-x="1638" d="M223 739.5q45 204.5 185.5 379.5t339 277.5t404.5 102.5t358.5 -102.5t215 -277.5t17.5 -379.5t-185.5 -380t-338 -277.5t-404.5 -102t-359.5 102t-215 277.5t-17.5 380zM346 739q-41 -180 8 -331.5t176.5 -238.5t307.5 -87q272 0 496.5 190.5t285.5 466.5q41 180 -8 332 t-176 239t-308 87q-272 0 -496 -190.5t-286 -467.5zM600 287l201 903h346q293 0 237 -250q-25 -111 -98.5 -172t-167.5 -80l164 -401h-139l-158 401h-174l-88 -401h-123zM836 791h141h12q39 0 59.5 1t54.5 4t54.5 13t44 26.5t37.5 43t23 63.5q10 45 -0.5 76t-38 45t-56 19 t-69.5 5h-197z" />
<glyph unicode="&#xaf;" horiz-adv-x="454" d="M205 1264l20 90h606l-20 -90h-606z" />
<glyph unicode="&#xb0;" horiz-adv-x="819" d="M375.5 1200q27.5 125 134 212t232.5 87t192.5 -87t39 -212t-133 -212t-231.5 -87t-193.5 87t-40 212zM471.5 1200q-20.5 -92 23.5 -152.5t134 -60.5t160.5 60.5t91 152.5t-23.5 152.5t-134 60.5t-160.5 -60.5t-91 -152.5z" />
<glyph unicode="&#xb1;" horiz-adv-x="1228" d="M82 0l24 111h1065l-24 -111h-1065zM209 575l24 111h478l84 379h110l-84 -379h477l-24 -111h-477l-84 -378h-111l84 378h-477z" />
<glyph unicode="&#xb2;" horiz-adv-x="681" d="M166 598l14 68q14 61 74.5 122.5t243.5 169.5q176 102 238.5 160t76.5 123q18 76 -17.5 122t-111.5 46q-188 0 -270 -178l-90 14q49 119 148 186.5t226 67.5t187.5 -70.5t32.5 -195.5q-10 -49 -34 -88t-66 -75t-73.5 -57.5t-94 -59.5t-91.5 -56q-10 -6 -31 -20 q-131 -84 -179 -120t-58 -69h504l-19 -90h-610z" />
<glyph unicode="&#xb3;" horiz-adv-x="681" d="M172 762l96 49q25 -78 72 -106.5t141 -28.5q106 0 173 45t85 125q18 92 -38 135t-181 43h-88l21 90h71q244 0 279 160q14 61 -28 98t-116 37q-84 0 -134 -19.5t-111 -82.5l-62 47q74 80 150 112.5t168 32.5q117 0 190.5 -56.5t50.5 -160.5q-18 -82 -56 -129t-126 -80 q78 -29 106.5 -82t10.5 -143q-31 -133 -134.5 -197.5t-254.5 -64.5q-242 0 -285 176z" />
<glyph unicode="&#xb4;" horiz-adv-x="454" d="M360 1184l291 282h158l-344 -282h-105z" />
<glyph unicode="&#xb6;" horiz-adv-x="1024" d="M272 1077q41 193 184.5 297.5t360.5 104.5h539l-21 -90h-151l-344 -1553h-103l344 1553h-215l-344 -1553h-102l188 852q-176 0 -274 115t-62 274z" />
<glyph unicode="&#xb7;" horiz-adv-x="569" d="M300 532q9 43 47 73t79 30t64.5 -30t14.5 -73t-47 -72.5t-78 -29.5t-64.5 29.5t-15.5 72.5z" />
<glyph unicode="&#xb8;" horiz-adv-x="454" d="M-86 -385l45 74q80 -33 115 -33q135 0 153 84q8 41 -14.5 62.5t-58.5 21.5q-49 0 -95 -19l-24 27l160 168h77l-110 -102l2 -4q29 12 67 12q74 0 107 -46t14 -126q-16 -76 -94 -118t-156 -42q-116 0 -188 41z" />
<glyph unicode="&#xb9;" horiz-adv-x="681" d="M283 598l18 90h150l157 709l-176 -41l17 76l204 67h84l-180 -811h158l-19 -90h-413z" />
<glyph unicode="&#xba;" horiz-adv-x="614" d="M266 1045.5q-4 60.5 15 123.5q31 145 118.5 237.5t239.5 92.5q78 0 129 -27.5t71.5 -72.5t24.5 -105.5t-12 -124.5q-33 -145 -121 -237t-237 -92q-78 0 -130.5 27.5t-73 72.5t-24.5 105.5zM392 993q28 -59 122 -59t144.5 57.5t78.5 177.5q29 113 2.5 174.5t-121.5 61.5 q-94 0 -145 -58.5t-78 -177.5q-31 -117 -3 -176z" />
<glyph unicode="&#xbb;" horiz-adv-x="1024" d="M217 217l324 311l-185 320h136l178 -320l-318 -311h-135zM520 217l324 311l-182 320h135l176 -320l-318 -311h-135z" />
<glyph unicode="&#xbc;" horiz-adv-x="1708" d="M332 598l18 90h150l157 709l-176 -41l17 76l204 67h84l-180 -811h158l-19 -90h-413zM367 -20l1245 1519h117l-1242 -1519h-120zM993 213l23 98l528 578h137l-129 -586h146l-21 -90h-145l-47 -213h-107l47 213h-432zM1128 303h318l102 463h-8z" />
<glyph unicode="&#xbd;" horiz-adv-x="1708" d="M332 598l18 90h150l157 709l-176 -41l17 76l204 67h84l-180 -811h158l-19 -90h-413zM342 -20l1245 1519h117l-1241 -1519h-121zM1008 0l14 68q14 61 74.5 122.5t242.5 169.5q176 102 239.5 160t78.5 123q16 76 -19.5 122t-111.5 46q-189 0 -269 -178l-92 14 q49 119 148.5 186.5t227.5 67.5t187.5 -70.5t32.5 -195.5q-10 -49 -33.5 -88t-66.5 -75t-74 -57.5t-94 -59.5t-92 -56q-10 -6 -29 -20q-133 -84 -181 -120t-56 -69h503l-20 -90h-610z" />
<glyph unicode="&#xbe;" horiz-adv-x="1708" d="M229 762l97 49q25 -78 71.5 -106.5t141.5 -28.5q106 0 172.5 45t85.5 125q18 92 -38.5 135t-180.5 43h-89l21 90h72q244 0 278 160q14 61 -27.5 98t-115.5 37q-84 0 -134.5 -19.5t-111.5 -82.5l-61 47q74 80 149.5 112.5t167.5 32.5q117 0 190.5 -56.5t51.5 -160.5 q-18 -82 -56.5 -129t-126.5 -80q78 -29 107 -82t10 -143q-31 -133 -134 -197.5t-255 -64.5q-242 0 -285 176zM399 -20l1246 1519h116l-1241 -1519h-121zM993 213l23 98l528 578h137l-129 -586h146l-21 -90h-145l-47 -213h-107l47 213h-432zM1128 303h318l102 463h-8z" />
<glyph unicode="&#xbf;" horiz-adv-x="796" d="M39 -100q16 76 67.5 143.5t114 119.5t125 103t112.5 115.5t66 134.5l23 98h110l-32 -147q-14 -57 -60.5 -116.5t-106 -112t-118.5 -106.5t-107.5 -121.5t-64.5 -137.5q-20 -92 26 -144.5t136 -52.5q157 0 276 193l90 -51q-147 -252 -393 -252q-141 0 -220 88t-44 246z M578 881l40 184h177l-41 -184h-176z" />
<glyph unicode="&#xc0;" horiz-adv-x="1251" d="M51 0l801 1479h207l139 -1479h-143l-43 483h-559l-258 -483h-144zM512 594h494l-74 774h-4zM770 1825h158l164 -283h-105z" />
<glyph unicode="&#xc1;" horiz-adv-x="1251" d="M51 0l801 1479h207l139 -1479h-143l-43 483h-559l-258 -483h-144zM512 594h494l-74 774h-4zM834 1542l290 283h158l-344 -283h-104z" />
<glyph unicode="&#xc2;" horiz-adv-x="1251" d="M51 0l801 1479h207l139 -1479h-143l-43 483h-559l-258 -483h-144zM512 594h494l-74 774h-4zM659 1542l297 283h140l170 -283h-136l-122 207l-213 -207h-136z" />
<glyph unicode="&#xc3;" horiz-adv-x="1251" d="M51 0l801 1479h207l139 -1479h-143l-43 483h-559l-258 -483h-144zM512 594h494l-74 774h-4zM645 1565q25 76 88.5 137t136.5 61q53 0 142 -45q92 -45 131 -45t68.5 30t45.5 71h78q-37 -92 -89 -145.5t-138 -53.5q-39 0 -135 47q-94 45 -131 45q-41 0 -72 -29.5t-47 -72.5 h-78z" />
<glyph unicode="&#xc4;" horiz-adv-x="1251" d="M51 0l801 1479h207l139 -1479h-143l-43 483h-559l-258 -483h-144zM512 594h494l-74 774h-4zM739 1563l43 192h136l-44 -192h-135zM1059 1563l43 192h135l-43 -192h-135z" />
<glyph unicode="&#xc5;" horiz-adv-x="1251" d="M51 0l801 1479h207l139 -1479h-143l-43 483h-559l-258 -483h-144zM512 594h494l-74 774h-4zM800.5 1739q18.5 86 93.5 145.5t158 59.5t130 -59.5t28.5 -145.5t-92.5 -145.5t-157.5 -59.5t-131 59.5t-29 145.5zM870.5 1738.5q-12.5 -57.5 18.5 -96t87 -38.5t104 38.5 t60.5 96t-18 96.5t-86 39t-104.5 -39t-61.5 -96.5z" />
<glyph unicode="&#xc6;" horiz-adv-x="1933" d="M37 0l1151 1479h952l-24 -111h-697l-121 -545h498l-24 -110h-498l-133 -602h735l-25 -111h-870l106 483h-534l-365 -483h-151zM643 594h469l172 770h-35z" />
<glyph unicode="&#xc7;" horiz-adv-x="1251" d="M262 739q78 346 274.5 553t462.5 207q188 0 279.5 -116.5t99.5 -311.5l-131 -27q-25 344 -284 345q-209 0 -355.5 -180.5t-210.5 -469.5q-31 -139 -30.5 -254.5t32 -205t105.5 -139.5t186 -50q86 0 157 27.5t125 81t93 113t78 139.5l121 -23q-92 -213 -236.5 -330.5 t-363.5 -117.5l-89 -82l3 -4q29 12 67 12q74 0 106.5 -46t14.5 -126q-16 -76 -94 -118t-156 -42q-116 0 -188 41l45 74q80 -33 114 -33q135 0 154 84q8 41 -14.5 62.5t-59.5 21.5q-49 0 -94 -19l-24 27l143 152q-227 27 -314.5 230.5t-15.5 524.5z" />
<glyph unicode="&#xc8;" d="M205 0l327 1479h844l-24 -111h-709l-121 -545h510l-24 -110h-510l-133 -602h747l-25 -111h-882zM780 1825h158l164 -283h-105z" />
<glyph unicode="&#xc9;" d="M205 0l327 1479h844l-24 -111h-709l-121 -545h510l-24 -110h-510l-133 -602h747l-25 -111h-882zM844 1542l291 283h157l-344 -283h-104z" />
<glyph unicode="&#xca;" d="M205 0l327 1479h844l-24 -111h-709l-121 -545h510l-24 -110h-510l-133 -602h747l-25 -111h-882zM670 1542l297 283h139l170 -283h-135l-123 207l-213 -207h-135z" />
<glyph unicode="&#xcb;" d="M205 0l327 1479h844l-24 -111h-709l-121 -545h510l-24 -110h-510l-133 -602h747l-25 -111h-882zM750 1563l43 192h135l-43 -192h-135zM1069 1563l43 192h135l-43 -192h-135z" />
<glyph unicode="&#xcc;" horiz-adv-x="569" d="M217 0l328 1479h135l-328 -1479h-135zM420 1825h158l163 -283h-104z" />
<glyph unicode="&#xcd;" horiz-adv-x="569" d="M217 0l328 1479h135l-328 -1479h-135zM483 1542l291 283h158l-344 -283h-105z" />
<glyph unicode="&#xce;" horiz-adv-x="569" d="M217 0l328 1479h135l-328 -1479h-135zM309 1542l297 283h139l170 -283h-135l-123 207l-213 -207h-135z" />
<glyph unicode="&#xcf;" horiz-adv-x="569" d="M217 0l328 1479h135l-328 -1479h-135zM389 1563l43 192h135l-43 -192h-135zM709 1563l43 192h135l-43 -192h-135z" />
<glyph unicode="&#xd0;" horiz-adv-x="1366" d="M178 713l25 110h184l145 656h418q133 0 233.5 -39t159 -107.5t88 -163t27.5 -202t-28 -228.5q-35 -154 -100.5 -283.5t-163 -233t-238 -163t-305.5 -59.5h-418l157 713h-184zM365 111h286q244 0 410 163.5t233.5 464.5t-26.5 465t-338 164h-287l-121 -545h402l-25 -110 h-401z" />
<glyph unicode="&#xd1;" horiz-adv-x="1478" d="M205 0l327 1479h228l430 -1233h4l272 1233h136l-328 -1479h-139l-488 1368h-4l-303 -1368h-135zM764 1565q25 76 88 137t137 61q53 0 141 -45q92 -45 132 -45q39 0 68.5 30t45.5 71h78q-37 -92 -89 -145.5t-138 -53.5q-39 0 -135 47q-94 45 -131 45q-41 0 -72 -29.5 t-47 -72.5h-78z" />
<glyph unicode="&#xd2;" horiz-adv-x="1366" d="M234.5 436q-11.5 139 27.5 303q74 336 278 548t474 212q137 0 235.5 -57.5t147.5 -158.5t60 -240.5t-27 -303.5q-74 -336 -278 -547.5t-474 -211.5q-137 0 -235.5 57t-147.5 158.5t-60.5 240.5zM397.5 739.5q-67.5 -307.5 15.5 -478.5t289.5 -171t365.5 171t226.5 478.5 t-15.5 478.5t-290 171t-365.5 -171t-226 -478.5zM834 1825h157l164 -283h-104z" />
<glyph unicode="&#xd3;" horiz-adv-x="1366" d="M234.5 436q-11.5 139 27.5 303q74 336 278 548t474 212q137 0 235.5 -57.5t147.5 -158.5t60 -240.5t-27 -303.5q-74 -336 -278 -547.5t-474 -211.5q-137 0 -235.5 57t-147.5 158.5t-60.5 240.5zM397.5 739.5q-67.5 -307.5 15.5 -478.5t289.5 -171t365.5 171t226.5 478.5 t-15.5 478.5t-290 171t-365.5 -171t-226 -478.5zM897 1542l291 283h158l-345 -283h-104z" />
<glyph unicode="&#xd4;" horiz-adv-x="1366" d="M234.5 436q-11.5 139 27.5 303q74 336 278 548t474 212q137 0 235.5 -57.5t147.5 -158.5t60 -240.5t-27 -303.5q-74 -336 -278 -547.5t-474 -211.5q-137 0 -235.5 57t-147.5 158.5t-60.5 240.5zM397.5 739.5q-67.5 -307.5 15.5 -478.5t289.5 -171t365.5 171t226.5 478.5 t-15.5 478.5t-290 171t-365.5 -171t-226 -478.5zM723 1542l297 283h139l170 -283h-135l-123 207l-213 -207h-135z" />
<glyph unicode="&#xd5;" horiz-adv-x="1366" d="M234.5 436q-11.5 139 27.5 303q74 336 278 548t474 212q137 0 235.5 -57.5t147.5 -158.5t60 -240.5t-27 -303.5q-74 -336 -278 -547.5t-474 -211.5q-137 0 -235.5 57t-147.5 158.5t-60.5 240.5zM397.5 739.5q-67.5 -307.5 15.5 -478.5t289.5 -171t365.5 171t226.5 478.5 t-15.5 478.5t-290 171t-365.5 -171t-226 -478.5zM709 1565q25 76 88 137t137 61q53 0 141 -45q92 -45 131 -45t69 30t46 71h78q-37 -92 -89.5 -145.5t-138.5 -53.5q-39 0 -135 47q-94 45 -131 45q-41 0 -72 -29.5t-47 -72.5h-77z" />
<glyph unicode="&#xd6;" horiz-adv-x="1366" d="M234.5 436q-11.5 139 27.5 303q74 336 278 548t474 212q137 0 235.5 -57.5t147.5 -158.5t60 -240.5t-27 -303.5q-74 -336 -278 -547.5t-474 -211.5q-137 0 -235.5 57t-147.5 158.5t-60.5 240.5zM397.5 739.5q-67.5 -307.5 15.5 -478.5t289.5 -171t365.5 171t226.5 478.5 t-15.5 478.5t-290 171t-365.5 -171t-226 -478.5zM803 1563l43 192h135l-43 -192h-135zM1122 1563l43 192h135l-43 -192h-135z" />
<glyph unicode="&#xd7;" horiz-adv-x="1228" d="M98 78l557 454l-354 455l94 78l355 -455l555 455l61 -78l-555 -455l352 -454l-94 -78l-354 455l-555 -455z" />
<glyph unicode="&#xd8;" horiz-adv-x="1366" d="M61 -98l242 280q-119 207 -41 557q74 336 277.5 548t474.5 212q203 0 317 -123l172 201h129l-243 -281q119 -205 41 -557q-74 -336 -278 -547.5t-474 -211.5q-199 0 -316 120l-172 -198h-129zM397 739q-61 -278 2 -444l844 979q-84 115 -254 115q-207 0 -365.5 -171 t-226.5 -479zM451 203q82 -113 251 -113q207 0 366 171t226 478q64 283 -2 443z" />
<glyph unicode="&#xd9;" horiz-adv-x="1478" d="M311 483l221 996h136l-224 -1008q-45 -207 33 -294t282 -87t321.5 87t162.5 294l223 1008h136l-222 -996q-111 -504 -645 -503.5t-424 503.5zM879 1825h157l164 -283h-104z" />
<glyph unicode="&#xda;" horiz-adv-x="1478" d="M311 483l221 996h136l-224 -1008q-45 -207 33 -294t282 -87t321.5 87t162.5 294l223 1008h136l-222 -996q-111 -504 -645 -503.5t-424 503.5zM942 1542l291 283h158l-344 -283h-105z" />
<glyph unicode="&#xdb;" horiz-adv-x="1478" d="M311 483l221 996h136l-224 -1008q-45 -207 33 -294t282 -87t321.5 87t162.5 294l223 1008h136l-222 -996q-111 -504 -645 -503.5t-424 503.5zM768 1542l297 283h139l170 -283h-135l-123 207l-213 -207h-135z" />
<glyph unicode="&#xdc;" horiz-adv-x="1478" d="M311 483l221 996h136l-224 -1008q-45 -207 33 -294t282 -87t321.5 87t162.5 294l223 1008h136l-222 -996q-111 -504 -645 -503.5t-424 503.5zM848 1563l43 192h135l-43 -192h-135zM1167 1563l43 192h136l-43 -192h-136z" />
<glyph unicode="&#xdd;" d="M369 1479h151l203 -731l551 731h151l-657 -852l-139 -627h-135l139 627zM782 1542l291 283h158l-344 -283h-105z" />
<glyph unicode="&#xde;" horiz-adv-x="1251" d="M205 0l327 1479h136l-68 -308h311q254 0 352.5 -108.5t55.5 -303t-189.5 -303t-400.5 -108.5h-311l-78 -348h-135zM442 459h312q365 0 430 301q33 150 -38 225.5t-259 75.5h-312z" />
<glyph unicode="&#xdf;" horiz-adv-x="1024" d="M156 0l241 1092q41 178 156 282.5t291 104.5q156 0 231.5 -103.5t40.5 -261.5q-23 -102 -89 -182t-169 -125q127 -43 176 -146.5t19 -248.5q-45 -201 -163 -316.5t-284 -115.5q-109 0 -178 47l64 92q70 -41 141 -41q106 0 183 85t110 234q41 180 -34 260t-263 80l20 99 q141 4 226.5 70.5t117.5 211.5q29 125 -19 193.5t-171 68.5q-117 0 -185.5 -80.5t-95.5 -201.5l-243 -1098h-123z" />
<glyph unicode="&#xe0;" horiz-adv-x="1024" d="M111 258q16 72 44.5 126t86 97t105.5 70t151.5 56.5t173 46t219.5 46.5l16 74q25 111 -19 162t-177 51q-188 0 -353 -192l-71 49q184 242 450 241q182 0 251 -79.5t30 -253.5l-123 -557q-23 -99 -27 -195h-118l12 129q-119 -80 -211 -114.5t-209 -34.5 q-129 0 -194.5 74.5t-36.5 203.5zM233 260q-18 -86 24 -134t126 -48q88 0 196.5 47t204.5 129l78 348q-186 -39 -308 -78t-187.5 -83t-93 -84t-40.5 -97zM582 1466h157l164 -282h-104z" />
<glyph unicode="&#xe1;" horiz-adv-x="1024" d="M111 258q16 72 44.5 126t86 97t105.5 70t151.5 56.5t173 46t219.5 46.5l16 74q25 111 -19 162t-177 51q-188 0 -353 -192l-71 49q184 242 450 241q182 0 251 -79.5t30 -253.5l-123 -557q-23 -99 -27 -195h-118l12 129q-119 -80 -211 -114.5t-209 -34.5 q-129 0 -194.5 74.5t-36.5 203.5zM233 260q-18 -86 24 -134t126 -48q88 0 196.5 47t204.5 129l78 348q-186 -39 -308 -78t-187.5 -83t-93 -84t-40.5 -97zM645 1184l291 282h158l-344 -282h-105z" />
<glyph unicode="&#xe2;" horiz-adv-x="1024" d="M111 258q16 72 44.5 126t86 97t105.5 70t151.5 56.5t173 46t219.5 46.5l16 74q25 111 -19 162t-177 51q-188 0 -353 -192l-71 49q184 242 450 241q182 0 251 -79.5t30 -253.5l-123 -557q-23 -99 -27 -195h-118l12 129q-119 -80 -211 -114.5t-209 -34.5 q-129 0 -194.5 74.5t-36.5 203.5zM233 260q-18 -86 24 -134t126 -48q88 0 196.5 47t204.5 129l78 348q-186 -39 -308 -78t-187.5 -83t-93 -84t-40.5 -97zM471 1184l297 282h139l170 -282h-135l-121 207l-215 -207h-135z" />
<glyph unicode="&#xe3;" horiz-adv-x="1024" d="M111 258q16 72 44.5 126t86 97t105.5 70t151.5 56.5t173 46t219.5 46.5l16 74q25 111 -19 162t-177 51q-188 0 -353 -192l-71 49q184 242 450 241q182 0 251 -79.5t30 -253.5l-123 -557q-23 -99 -27 -195h-118l12 129q-119 -80 -211 -114.5t-209 -34.5 q-129 0 -194.5 74.5t-36.5 203.5zM233 260q-18 -86 24 -134t126 -48q88 0 196.5 47t204.5 129l78 348q-186 -39 -308 -78t-187.5 -83t-93 -84t-40.5 -97zM459 1206q23 76 86 137.5t137 61.5q53 0 141 -45q92 -45 131 -45t69 29.5t46 70.5h78q-37 -92 -89 -145t-136 -53 q-41 0 -138 47q-92 45 -129 45q-43 0 -72.5 -30t-45.5 -73h-78z" />
<glyph unicode="&#xe4;" horiz-adv-x="1024" d="M111 258q16 72 44.5 126t86 97t105.5 70t151.5 56.5t173 46t219.5 46.5l16 74q25 111 -19 162t-177 51q-188 0 -353 -192l-71 49q184 242 450 241q182 0 251 -79.5t30 -253.5l-123 -557q-23 -99 -27 -195h-118l12 129q-119 -80 -211 -114.5t-209 -34.5 q-129 0 -194.5 74.5t-36.5 203.5zM233 260q-18 -86 24 -134t126 -48q88 0 196.5 47t204.5 129l78 348q-186 -39 -308 -78t-187.5 -83t-93 -84t-40.5 -97zM551 1204l43 193h135l-43 -193h-135zM870 1204l43 193h136l-43 -193h-136z" />
<glyph unicode="&#xe5;" horiz-adv-x="1024" d="M111 258q16 72 44.5 126t86 97t105.5 70t151.5 56.5t173 46t219.5 46.5l16 74q25 111 -19 162t-177 51q-188 0 -353 -192l-71 49q184 242 450 241q182 0 251 -79.5t30 -253.5l-123 -557q-23 -99 -27 -195h-118l12 129q-119 -80 -211 -114.5t-209 -34.5 q-129 0 -194.5 74.5t-36.5 203.5zM233 260q-18 -86 24 -134t126 -48q88 0 196.5 47t204.5 129l78 348q-186 -39 -308 -78t-187.5 -83t-93 -84t-40.5 -97zM613.5 1380q19.5 86 93 145.5t156.5 59.5t131 -59.5t29 -145.5t-93 -145t-158 -59t-131 59t-27.5 145zM683 1380.5 q-13 -57.5 18.5 -96.5t87 -39t103.5 39t61.5 96.5t-18.5 96.5t-87 39t-103.5 -39t-61.5 -96.5z" />
<glyph unicode="&#xe6;" horiz-adv-x="1593" d="M111 258q16 70 43.5 124t82 96t99.5 69.5t140 56.5t156.5 45.5t194.5 46.5q12 2 21 4l16 74q20 90 -21.5 151.5t-156.5 61.5q-109 0 -186.5 -49t-137.5 -147l-79 53q82 127 183 184t234 57q242 0 285 -174q160 174 363 174q139 0 214.5 -70.5t86 -194.5t-24.5 -292h-692 q-25 -125 -23 -224t57.5 -162.5t157.5 -63.5q104 0 178 44t183 171l88 -53q-119 -143 -224.5 -201.5t-254.5 -58.5q-207 0 -301 180q-186 -180 -451 -180q-129 0 -194.5 74.5t-36.5 203.5zM233 260q-18 -86 24 -134t126 -48q90 0 193.5 48t171.5 128l77 348 q-172 -39 -286.5 -78t-176 -83t-89 -85t-40.5 -96zM954 627h570q18 174 -28 267t-175 93q-131 0 -226.5 -100t-140.5 -260z" />
<glyph unicode="&#xe7;" horiz-adv-x="1024" d="M193 532q59 268 213.5 410.5t367.5 142.5q285 0 324 -288l-119 -31q-25 102 -77 161.5t-150 59.5q-336 0 -437 -455q-47 -207 14.5 -330.5t219.5 -123.5q106 0 189 54t180 167l88 -47q-219 -266 -471 -272l-89 -82l3 -4q29 12 67 12q74 0 106.5 -46t14.5 -126 q-16 -76 -94 -118t-156 -42q-116 0 -188 41l45 74q80 -33 114 -33q135 0 154 84q8 41 -14.5 62.5t-59.5 21.5q-49 0 -94 -19l-25 27l144 152q-182 23 -252 172t-18 376z" />
<glyph unicode="&#xe8;" horiz-adv-x="1024" d="M193 532q55 250 206.5 401.5t354.5 151.5q209 0 283.5 -150.5t17.5 -406.5h-742q-23 -90 -18.5 -172t29 -143t85 -98t146.5 -37q104 0 178 44t182 171l89 -53q-119 -143 -224.5 -201.5t-255.5 -58.5q-215 0 -304 139t-27 413zM336 627h618q18 170 -37 264t-190 96 q-78 0 -147.5 -36t-117.5 -91t-81 -115.5t-45 -117.5zM582 1466h157l164 -282h-104z" />
<glyph unicode="&#xe9;" horiz-adv-x="1024" d="M193 532q55 250 206.5 401.5t354.5 151.5q209 0 283.5 -150.5t17.5 -406.5h-742q-23 -90 -18.5 -172t29 -143t85 -98t146.5 -37q104 0 178 44t182 171l89 -53q-119 -143 -224.5 -201.5t-255.5 -58.5q-215 0 -304 139t-27 413zM336 627h618q18 170 -37 264t-190 96 q-78 0 -147.5 -36t-117.5 -91t-81 -115.5t-45 -117.5zM645 1184l291 282h158l-344 -282h-105z" />
<glyph unicode="&#xea;" horiz-adv-x="1024" d="M193 532q55 250 206.5 401.5t354.5 151.5q209 0 283.5 -150.5t17.5 -406.5h-742q-23 -90 -18.5 -172t29 -143t85 -98t146.5 -37q104 0 178 44t182 171l89 -53q-119 -143 -224.5 -201.5t-255.5 -58.5q-215 0 -304 139t-27 413zM336 627h618q18 170 -37 264t-190 96 q-78 0 -147.5 -36t-117.5 -91t-81 -115.5t-45 -117.5zM471 1184l297 282h139l170 -282h-135l-121 207l-215 -207h-135z" />
<glyph unicode="&#xeb;" horiz-adv-x="1024" d="M193 532q55 250 206.5 401.5t354.5 151.5q209 0 283.5 -150.5t17.5 -406.5h-742q-23 -90 -18.5 -172t29 -143t85 -98t146.5 -37q104 0 178 44t182 171l89 -53q-119 -143 -224.5 -201.5t-255.5 -58.5q-215 0 -304 139t-27 413zM336 627h618q18 170 -37 264t-190 96 q-78 0 -147.5 -36t-117.5 -91t-81 -115.5t-45 -117.5zM551 1204l43 193h135l-43 -193h-135zM870 1204l43 193h136l-43 -193h-136z" />
<glyph unicode="&#xec;" horiz-adv-x="454" d="M166 0l235 1065h123l-235 -1065h-123zM297 1466h158l163 -282h-104z" />
<glyph unicode="&#xed;" horiz-adv-x="454" d="M166 0l235 1065h123l-235 -1065h-123zM360 1184l291 282h158l-344 -282h-105z" />
<glyph unicode="&#xee;" horiz-adv-x="454" d="M166 0l235 1065h123l-235 -1065h-123zM186 1184l297 282h140l170 -282h-136l-120 207l-215 -207h-136z" />
<glyph unicode="&#xef;" horiz-adv-x="454" d="M166 0l235 1065h123l-235 -1065h-123zM266 1204l43 193h135l-43 -193h-135zM586 1204l43 193h135l-43 -193h-135z" />
<glyph unicode="&#xf0;" horiz-adv-x="1024" d="M168 324.5q-4 99.5 25 207.5q25 115 68.5 210.5t110 174t164 123.5t218.5 45q119 0 192 -45l4 4q-33 106 -94 199l-233 -108l-39 82l213 100q-55 61 -125 108l121 54q72 -55 118 -109l234 109l39 -82l-213 -101q203 -287 98 -764q-27 -115 -70 -210t-109.5 -173.5 t-164.5 -123.5t-218 -45t-198 46t-107.5 122.5t-33.5 176zM314.5 532.5q-101.5 -454.5 214 -454.5t417 454.5t-214 454.5t-417 -454.5z" />
<glyph unicode="&#xf1;" d="M168 0l235 1065h123l-37 -168q117 98 207 143t201 45q315 0 236 -358l-162 -727h-123l158 715q31 137 -3 204.5t-153 67.5q-23 0 -42.5 -2t-42 -10t-37.5 -12.5t-40.5 -19.5t-38 -22.5t-43.5 -30t-42 -30.5t-49 -36.5t-50 -39.5l-174 -784h-123zM502 1206q23 76 86 137.5 t137 61.5q53 0 141 -45q92 -45 131 -45t69 29.5t46 70.5h78q-37 -92 -89 -145t-136 -53q-41 0 -138 47q-92 45 -129 45q-43 0 -72.5 -30t-45.5 -73h-78z" />
<glyph unicode="&#xf2;" horiz-adv-x="1024" d="M168 324.5q-4 99.5 25 207.5q25 115 68.5 210.5t110 174t164 123.5t217 45t198.5 -46t107.5 -122.5t34 -176t-23.5 -208.5q-27 -115 -70 -210t-109.5 -173.5t-164.5 -123.5t-218 -45t-198 46t-107.5 122.5t-33.5 176zM314.5 532.5q-101.5 -454.5 214 -454.5t417 454.5 t-214 454.5t-417 -454.5zM571 1466h158l164 -282h-105z" />
<glyph unicode="&#xf3;" horiz-adv-x="1024" d="M168 324.5q-4 99.5 25 207.5q25 115 68.5 210.5t110 174t164 123.5t217 45t198.5 -46t107.5 -122.5t34 -176t-23.5 -208.5q-27 -115 -70 -210t-109.5 -173.5t-164.5 -123.5t-218 -45t-198 46t-107.5 122.5t-33.5 176zM314.5 532.5q-101.5 -454.5 214 -454.5t417 454.5 t-214 454.5t-417 -454.5zM635 1184l291 282h157l-344 -282h-104z" />
<glyph unicode="&#xf4;" horiz-adv-x="1024" d="M168 324.5q-4 99.5 25 207.5q25 115 68.5 210.5t110 174t164 123.5t217 45t198.5 -46t107.5 -122.5t34 -176t-23.5 -208.5q-27 -115 -70 -210t-109.5 -173.5t-164.5 -123.5t-218 -45t-198 46t-107.5 122.5t-33.5 176zM314.5 532.5q-101.5 -454.5 214 -454.5t417 454.5 t-214 454.5t-417 -454.5zM461 1184l297 282h139l170 -282h-135l-121 207l-215 -207h-135z" />
<glyph unicode="&#xf5;" horiz-adv-x="1024" d="M168 324.5q-4 99.5 25 207.5q25 115 68.5 210.5t110 174t164 123.5t217 45t198.5 -46t107.5 -122.5t34 -176t-23.5 -208.5q-27 -115 -70 -210t-109.5 -173.5t-164.5 -123.5t-218 -45t-198 46t-107.5 122.5t-33.5 176zM314.5 532.5q-101.5 -454.5 214 -454.5t417 454.5 t-214 454.5t-417 -454.5zM449 1206q23 76 86 137.5t137 61.5q53 0 141 -45q92 -45 131 -45t68.5 29.5t46.5 70.5h78q-37 -92 -89.5 -145t-136.5 -53q-41 0 -137 47q-92 45 -129 45q-43 0 -73 -30t-46 -73h-77z" />
<glyph unicode="&#xf6;" horiz-adv-x="1024" d="M168 324.5q-4 99.5 25 207.5q25 115 68.5 210.5t110 174t164 123.5t217 45t198.5 -46t107.5 -122.5t34 -176t-23.5 -208.5q-27 -115 -70 -210t-109.5 -173.5t-164.5 -123.5t-218 -45t-198 46t-107.5 122.5t-33.5 176zM314.5 532.5q-101.5 -454.5 214 -454.5t417 454.5 t-214 454.5t-417 -454.5zM541 1204l43 193h135l-43 -193h-135zM860 1204l43 193h135l-43 -193h-135z" />
<glyph unicode="&#xf7;" horiz-adv-x="1228" d="M188 477l25 111h1065l-25 -111h-1065zM517 88q11 47 53 82t89.5 35t75 -35t16 -82t-53.5 -82t-89 -35t-74.5 35t-16.5 82zM715 977q10 47 52 82t90 35t74.5 -35t16.5 -82t-53 -82t-90 -35t-73.5 35t-16.5 82z" />
<glyph unicode="&#xf8;" horiz-adv-x="1024" d="M-8 -164l229 275q-92 143 -28 421q25 115 68.5 210.5t110 174t164 123.5t218.5 45q143 0 225 -67l176 211h117l-232 -277q90 -141 29 -420q-27 -115 -70 -210t-109.5 -173.5t-164.5 -123.5t-217 -45q-147 0 -225 67l-177 -211h-114zM311 217l592 709q-59 61 -172 61 q-315 0 -416 -455q-47 -204 -4 -315zM358 137q59 -59 170 -59q315 0 418 454q45 208 6 314z" />
<glyph unicode="&#xf9;" d="M244 338l159 727h123l-157 -715q-31 -137 4 -204.5t151 -67.5q23 0 42.5 2t42 10t38 12t41 19.5t37.5 23t43 30t42 30.5t49 36.5t50 39.5l174 784h123l-235 -1065h-123l37 168q-117 -98 -207 -143t-199 -45q-315 0 -235 358zM639 1466h158l164 -282h-105z" />
<glyph unicode="&#xfa;" d="M244 338l159 727h123l-157 -715q-31 -137 4 -204.5t151 -67.5q23 0 42.5 2t42 10t38 12t41 19.5t37.5 23t43 30t42 30.5t49 36.5t50 39.5l174 784h123l-235 -1065h-123l37 168q-117 -98 -207 -143t-199 -45q-315 0 -235 358zM702 1184l291 282h158l-344 -282h-105z" />
<glyph unicode="&#xfb;" d="M244 338l159 727h123l-157 -715q-31 -137 4 -204.5t151 -67.5q23 0 42.5 2t42 10t38 12t41 19.5t37.5 23t43 30t42 30.5t49 36.5t50 39.5l174 784h123l-235 -1065h-123l37 168q-117 -98 -207 -143t-199 -45q-315 0 -235 358zM528 1184l297 282h140l170 -282h-136 l-120 207l-215 -207h-136z" />
<glyph unicode="&#xfc;" d="M244 338l159 727h123l-157 -715q-31 -137 4 -204.5t151 -67.5q23 0 42.5 2t42 10t38 12t41 19.5t37.5 23t43 30t42 30.5t49 36.5t50 39.5l174 784h123l-235 -1065h-123l37 168q-117 -98 -207 -143t-199 -45q-315 0 -235 358zM608 1204l43 193h135l-43 -193h-135z M928 1204l43 193h135l-43 -193h-135z" />
<glyph unicode="&#xfd;" horiz-adv-x="909" d="M-47 -365l20 101q2 0 47.5 -7.5t73.5 -7.5q72 0 151 71t154 224l-139 1049h135l103 -866h4l487 866h131l-649 -1141q-94 -164 -181 -232.5t-227 -68.5q-72 0 -110 12zM588 1184l291 282h157l-344 -282h-104z" />
<glyph unicode="&#xfe;" d="M104 -377l412 1856h123l-127 -578h4q166 184 363 184q100 0 172.5 -46t106.5 -123.5t42 -178t-18 -211.5q-59 -270 -203.5 -408t-337.5 -138q-104 0 -171 36.5t-128 122.5l-115 -516h-123zM371 268q23 -63 99.5 -126.5t158.5 -63.5q164 0 274.5 123t159.5 348 q23 82 18.5 162t-27 141t-75.5 98t-129 37q-63 0 -129 -29.5t-109 -62t-125 -102.5z" />
<glyph unicode="&#xff;" horiz-adv-x="909" d="M-47 -365l20 101q2 0 47.5 -7.5t73.5 -7.5q72 0 151 71t154 224l-139 1049h135l103 -866h4l487 866h131l-649 -1141q-94 -164 -181 -232.5t-227 -68.5q-72 0 -110 12zM494 1204l43 193h135l-43 -193h-135zM813 1204l43 193h135l-43 -193h-135z" />
<glyph unicode="&#x152;" horiz-adv-x="2048" d="M230.5 431q-9.5 140 31.5 308q35 158 107.5 294t176 240.5t245 165t299.5 60.5q61 0 194 -10t174 -10h797l-25 -111h-698l-121 -545h500l-25 -110h-500l-133 -602h738l-25 -111h-827q-72 0 -205 -10t-180 -10q-174 0 -291 55t-170 155.5t-62.5 240.5zM397 739 q-72 -319 29.5 -484t396.5 -165q291 0 336 205l197 889q23 100 -39 152.5t-207 52.5q-281 0 -463 -174.5t-250 -475.5z" />
<glyph unicode="&#x153;" horiz-adv-x="1705" d="M168 324.5q-4 99.5 25 207.5q25 115 68.5 210.5t109 174t161 123.5t213.5 45q131 0 205 -63.5t94 -167.5q61 96 164 163.5t242 67.5q205 0 274.5 -149.5t12.5 -407.5h-699q-20 -94 -22 -173t17.5 -142t71.5 -99t132 -36q104 0 178 44t182 171l89 -53 q-119 -143 -224.5 -201.5t-255.5 -58.5q-246 0 -307 233q-154 -233 -399 -233q-117 0 -194 46t-105.5 122.5t-32.5 176zM314.5 532.5q-101.5 -454.5 205.5 -454.5q147 0 247.5 117.5t150.5 336.5q49 217 0.5 336t-195.5 119q-307 0 -408.5 -454.5zM1061 627h575 q39 360 -211 360q-139 0 -229 -98t-135 -262z" />
<glyph unicode="&#x178;" d="M369 1479h151l203 -731l551 731h151l-657 -852l-139 -627h-135l139 627zM688 1563l43 192h135l-43 -192h-135zM1008 1563l43 192h135l-43 -192h-135z" />
<glyph unicode="&#x2c6;" horiz-adv-x="454" d="M186 1184l297 282h140l170 -282h-136l-120 207l-215 -207h-136z" />
<glyph unicode="&#x2dc;" horiz-adv-x="454" d="M174 1206q23 76 86.5 137.5t136.5 61.5q53 0 142 -45q92 -45 131 -45t68.5 29.5t45.5 70.5h78q-37 -92 -89 -145t-136 -53q-41 0 -137 47q-92 45 -129 45q-43 0 -73 -30t-46 -73h-78z" />
<glyph unicode="&#x2000;" horiz-adv-x="972" />
<glyph unicode="&#x2001;" horiz-adv-x="1944" />
<glyph unicode="&#x2002;" horiz-adv-x="972" />
<glyph unicode="&#x2003;" horiz-adv-x="1944" />
<glyph unicode="&#x2004;" horiz-adv-x="648" />
<glyph unicode="&#x2005;" horiz-adv-x="486" />
<glyph unicode="&#x2006;" horiz-adv-x="324" />
<glyph unicode="&#x2007;" horiz-adv-x="324" />
<glyph unicode="&#x2008;" horiz-adv-x="243" />
<glyph unicode="&#x2009;" horiz-adv-x="388" />
<glyph unicode="&#x200a;" horiz-adv-x="108" />
<glyph unicode="&#x2010;" horiz-adv-x="681" d="M193 477l24 111h510l-25 -111h-509z" />
<glyph unicode="&#x2011;" horiz-adv-x="681" d="M193 477l24 111h510l-25 -111h-509z" />
<glyph unicode="&#x2012;" horiz-adv-x="681" d="M193 477l24 111h510l-25 -111h-509z" />
<glyph unicode="&#x2013;" horiz-adv-x="1024" d="M109 487l20 91h1024l-20 -91h-1024z" />
<glyph unicode="&#x2014;" horiz-adv-x="2048" d="M109 487l20 91h2048l-20 -91h-2048z" />
<glyph unicode="&#x2018;" horiz-adv-x="454" d="M346 1008l41 184l197 307h80l-187 -307h86l-41 -184h-176z" />
<glyph unicode="&#x2019;" horiz-adv-x="454" d="M342 987l186 307h-86l41 185h176l-41 -185l-196 -307h-80z" />
<glyph unicode="&#x201a;" horiz-adv-x="454" d="M55 -307l187 307h-86l41 184h176l-41 -184l-197 -307h-80z" />
<glyph unicode="&#x201c;" horiz-adv-x="909" d="M422 1008l41 184l196 307h80l-186 -307h86l-41 -184h-176zM764 1008l41 184l196 307h80l-186 -307h86l-41 -184h-176z" />
<glyph unicode="&#x201d;" horiz-adv-x="909" d="M379 987l186 307h-86l41 185h176l-41 -185l-196 -307h-80zM721 987l186 307h-86l41 185h176l-41 -185l-196 -307h-80z" />
<glyph unicode="&#x201e;" horiz-adv-x="909" d="M92 -307l187 307h-86l40 184h177l-41 -184l-197 -307h-80zM434 -307l187 307h-86l40 184h177l-41 -184l-197 -307h-80z" />
<glyph unicode="&#x2022;" horiz-adv-x="1024" d="M305 739.5q35 153.5 166 261t284.5 107.5t238.5 -107.5t50.5 -261t-167 -262t-286 -108.5t-237.5 108.5t-49 262z" />
<glyph unicode="&#x2026;" horiz-adv-x="2048" d="M254 0l41 184h176l-41 -184h-176zM936 0l41 184h176l-41 -184h-176zM1618 0l41 184h176l-41 -184h-176z" />
<glyph unicode="&#x202f;" horiz-adv-x="388" />
<glyph unicode="&#x2039;" horiz-adv-x="681" d="M250 537l317 311h135l-323 -311l182 -320h-135z" />
<glyph unicode="&#x203a;" horiz-adv-x="681" d="M217 217l322 311l-183 320h136l176 -320l-316 -311h-135z" />
<glyph unicode="&#x205f;" horiz-adv-x="486" />
<glyph unicode="&#x20ac;" d="M145 504l54 98h96q14 78 22 121q12 53 21 80h-127l57 98h99q78 262 245.5 430t391.5 168q131 0 228 -59t138 -174l-82 -150q-27 115 -109.5 194t-203.5 79q-86 0 -167 -43t-140.5 -115t-102.5 -156t-65 -174h667l-55 -98h-639q-8 -25 -18 -76q-10 -43 -25 -125h567 l-53 -98h-522q-10 -111 13.5 -202t90 -151.5t170.5 -60.5q225 0 414 221l-35 -157q-84 -84 -190.5 -129t-214.5 -45q-113 0 -195 44t-124 120.5t-58.5 166.5t-5.5 193h-142z" />
<glyph unicode="&#x2122;" horiz-adv-x="2027" d="M418 1389l20 90h656l-21 -90h-272l-166 -754h-103l166 754h-280zM1059 635l186 844h174l123 -672l414 672h174l-186 -844h-103l166 754h-4l-471 -754h-62l-139 754h-4l-166 -754h-102z" />
<glyph unicode="&#xe000;" horiz-adv-x="1064" d="M0 0v1065h1065v-1065h-1065z" />
<glyph unicode="&#xfb01;" horiz-adv-x="1024" d="M197 0l215 967h-176l20 98h176l35 152q31 141 107.5 211.5t209.5 70.5q43 0 131 -16l-24 -103q-59 20 -115 21q-74 0 -119 -40t-65 -130l-37 -166h217l-20 -98h-217l-216 -967h-122zM735 0l236 1065h123l-236 -1065h-123zM1024 1298l39 181h123l-39 -181h-123z" />
<glyph unicode="&#xfb02;" horiz-adv-x="1024" d="M197 0l215 967h-176l20 98h176l35 152q31 141 107.5 211.5t209.5 70.5q43 0 131 -16l-24 -103q-59 20 -115 21q-74 0 -119 -40t-65 -130l-37 -166h217l-20 -98h-217l-216 -967h-122zM735 0l328 1479h123l-328 -1479h-123z" />
</font>
</defs>
</svg>
