<?xml version="1.0" standalone="no"?>
<!DOCTYPE svg PUBLIC "-//W3C//DTD SVG 1.1//EN" "http://www.w3.org/Graphics/SVG/1.1/DTD/svg11.dtd" >
<svg xmlns="http://www.w3.org/2000/svg">
<metadata></metadata>
<defs>
<font id="tradegothicboldcondtwentyobl" horiz-adv-x="909" >
<font-face units-per-em="2048" ascent="1638" descent="-410" />
<missing-glyph horiz-adv-x="454" />
<glyph horiz-adv-x="2048" />
<glyph horiz-adv-x="2048" />
<glyph unicode="&#xd;" horiz-adv-x="681" />
<glyph unicode=" "  horiz-adv-x="454" />
<glyph unicode="&#x09;" horiz-adv-x="454" />
<glyph unicode="&#xa0;" horiz-adv-x="454" />
<glyph unicode="!" horiz-adv-x="569" d="M164 0l53 242h242l-53 -242h-242zM297 434l186 1045h258l-276 -1045h-168z" />
<glyph unicode="&#x22;" horiz-adv-x="681" d="M285 918l125 561h192l-125 -561h-192zM610 918l125 561h193l-125 -561h-193z" />
<glyph unicode="#" d="M104 0l148 438h-135l37 160h155l92 283h-135l37 159h156l147 439h182l-147 -439h166l147 439h183l-148 -439h131l-37 -159h-147l-94 -283h127l-37 -160h-148l-145 -438h-184l147 438h-166l-145 -438h-187zM494 598h163l95 283h-164z" />
<glyph unicode="$" d="M113 231l198 129q8 -57 40 -102t85 -61l107 481q-45 33 -79 62.5t-69 70.5t-51 82t-25.5 95t7.5 112q33 147 139 254t256 125l41 180h123l-41 -180q170 -35 243 -187l-186 -133q-10 33 -20.5 52.5t-32 40t-49.5 26.5l-94 -424q37 -27 63.5 -48.5t57 -50t50 -55t38 -61.5 t25.5 -71t7 -80t-10 -91q-35 -160 -147.5 -271.5t-272.5 -125.5l-53 -238h-123l53 238q-98 10 -169.5 73.5t-110.5 157.5zM541 1126q-25 -112 57 -204l78 356q-49 -14 -86 -56t-49 -96zM559 197q125 45 158 190q14 70 -3.5 115t-64.5 98z" />
<glyph unicode="%" horiz-adv-x="1593" d="M299 -20l1174 1519h153l-1173 -1519h-154zM356.5 1143q30.5 139 150.5 237.5t259 98.5t216 -98.5t46 -237.5t-150.5 -237.5t-260 -98.5t-216 98.5t-45 237.5zM519.5 1143.5q-15.5 -70.5 24.5 -121.5t110.5 -51t132 51t77 120.5t-23.5 121t-110 51.5t-133 -50.5 t-77.5 -121zM893 336q31 139 150.5 237.5t260 98.5t216 -98.5t45 -237.5t-150.5 -237.5t-259 -98.5t-216 98.5t-46 237.5zM1057.5 336q-15.5 -70 23.5 -121t110 -51t133 50t77.5 122t-24.5 122t-110.5 50t-132 -51t-77 -121z" />
<glyph unicode="&#x26;" horiz-adv-x="1138" d="M178 326q25 109 103.5 217t183.5 200q-57 260 -25 408q33 156 138.5 252t259.5 96q139 0 201.5 -84t31.5 -223q-6 -31 -16.5 -59.5t-29.5 -58.5t-30.5 -51.5t-41 -53t-41 -46t-49.5 -49t-46 -43t-52 -46t-48 -42.5q45 -168 119 -301q108 181 151 275l197 -55 q-14 -33 -32.5 -69t-33 -61.5t-40 -67.5t-38 -60.5t-43 -67.5t-39.5 -62q51 -57 125 -69l-49 -225q-168 4 -262 112q-76 -59 -148.5 -85.5t-166.5 -26.5q-160 0 -236 96t-43 250zM420 358q-14 -66 17.5 -111.5t97.5 -45.5t124 43q-100 162 -135 297q-49 -55 -70.5 -91.5 t-33.5 -91.5zM662 1206q-27 -113 6 -284q47 49 77.5 83.5t62.5 87t42 99.5q35 160 -57 160q-47 0 -82 -38t-49 -108z" />
<glyph unicode="'" horiz-adv-x="454" d="M334 918l125 561h192l-125 -561h-192z" />
<glyph unicode="(" horiz-adv-x="569" d="M179 218q-15 216 34 444q49 223 161.5 441t264.5 396h197q-324 -375 -427.5 -837.5t56.5 -837.5h-197q-74 178 -89 394z" />
<glyph unicode=")" horiz-adv-x="569" d="M27 -176q324 375 427 837.5t-57 837.5h197q76 -178 91 -394t-34 -443q-51 -223 -162.5 -441.5t-265.5 -396.5h-196z" />
<glyph unicode="*" d="M338 1139l102 182q106 -74 230 -137q18 131 16 295h193q-76 -164 -115 -295q152 63 291 137l20 -182q-47 -2 -98 -7.5t-120 -14.5t-99 -13q100 -141 180 -219l-186 -113q-8 57 -62 287q-156 -229 -188 -287l-137 113q113 78 274 219q-27 4 -91.5 13t-113.5 14.5t-96 7.5z " />
<glyph unicode="+" horiz-adv-x="1228" d="M188 418l45 200h418l92 418h201l-92 -418h418l-45 -200h-418l-92 -418h-201l92 418h-418z" />
<glyph unicode="," horiz-adv-x="454" d="M43 -254l156 254h-93l54 242h241l-53 -242l-196 -254h-109z" />
<glyph unicode="-" horiz-adv-x="681" d="M190 457l43 188h502l-43 -188h-502z" />
<glyph unicode="." horiz-adv-x="454" d="M106 0l54 242h241l-53 -242h-242z" />
<glyph unicode="/" horiz-adv-x="569" d="M-47 -20l790 1519h201l-790 -1519h-201z" />
<glyph unicode="0" d="M180 385l156 709q47 211 154.5 308t297 97t253 -97t16.5 -308l-156 -709q-47 -211 -154.5 -308t-297 -97t-253 97t-16.5 308zM408 322q-31 -141 87.5 -141t149.5 141l184 835q33 141 -85.5 141t-151.5 -141z" />
<glyph unicode="1" d="M362 0l261 1171h-201l31 138q215 98 342 190h129l-332 -1499h-230z" />
<glyph unicode="2" d="M90 0l45 199q156 172 231.5 257t175 202.5t145.5 186t86 145.5t54 140q39 168 -75 168q-61 0 -102.5 -42t-55.5 -111l-23 -101h-241l16 70q37 168 162 276.5t299 108.5q152 0 226.5 -97t45.5 -231q-29 -123 -88 -233.5t-196.5 -279.5t-399.5 -449h449l-47 -209h-707z" />
<glyph unicode="3" d="M170 340l18 88h230l-23 -100q-31 -147 84 -148q121 0 158 174l27 113q25 119 -14.5 164t-157.5 45l45 201q115 0 171 48t85 177q25 104 11.5 150t-69.5 46q-57 0 -94 -33.5t-55 -117.5l-13 -62h-229l14 70q35 154 147.5 249t274.5 95q158 0 219.5 -110.5t26.5 -268.5 q-31 -137 -80 -213t-155 -127q98 -57 117.5 -137t-15.5 -229q-49 -221 -163 -327.5t-302 -106.5q-338 0 -258 360z" />
<glyph unicode="4" d="M113 356l41 189l637 934h245l-207 -934h136l-41 -189h-136l-79 -356h-234l80 356h-442zM348 545h252l127 577h-4z" />
<glyph unicode="5" d="M172 315l25 113h229l-27 -119q-12 -59 11.5 -94t74.5 -35q61 0 102.5 42t61.5 138l74 336q16 68 -6.5 101.5t-69.5 33.5q-96 0 -162 -112h-196q133 516 186 760h617l-56 -209h-399l-84 -320l2 -4q57 53 103.5 69.5t111.5 16.5q141 0 185 -101.5t-1 -287.5l-47 -205 q-51 -238 -156.5 -348t-287.5 -110q-166 0 -248 80.5t-43 254.5z" />
<glyph unicode="6" d="M180 385l156 709q47 211 154.5 308t295.5 97q150 2 219.5 -91t38.5 -237l-20 -90h-221l16 76q16 72 -2 106.5t-74 34.5q-119 0 -151 -141l-76 -346q68 55 114 76.5t115 21.5q121 0 179.5 -74.5t25.5 -228.5l-39 -176q-53 -236 -162.5 -343t-299 -107t-253 97t-16.5 308z M408 322q-31 -141 87.5 -141.5t149.5 141.5l53 245q16 70 -4 106t-69 36q-48 0 -148 -68z" />
<glyph unicode="7" d="M242 0l577 1270h-424l47 209h668l-31 -144l-598 -1335h-239z" />
<glyph unicode="8" d="M184 410q33 145 85.5 233t152.5 145q-53 47 -70.5 129t2.5 166q47 209 159 312.5t273.5 103.5t228 -103.5t19.5 -312.5q-18 -90 -70.5 -168.5t-127.5 -126.5q78 -57 91 -152t-22 -226q-45 -209 -161.5 -319.5t-294 -110.5t-244 110.5t-21.5 319.5zM406.5 245.5 q17.5 -65.5 88 -65.5t114.5 62.5t71 183.5q29 115 11.5 180.5t-88.5 65.5t-115 -62.5t-70 -183.5q-29 -115 -11.5 -180.5zM578.5 940q15.5 -47 74 -47t95 48t60 155.5t8.5 154.5t-73.5 47t-95.5 -48t-60.5 -155.5t-8 -154.5z" />
<glyph unicode="9" d="M193 307l20 90h221l-16 -75q-16 -72 2 -107t76 -35q119 0 149 142l76 346q-68 -55 -113 -77t-116 -22q-121 0 -179.5 75t-25.5 228l41 177q51 236 160.5 343t299 107t253 -97t16.5 -308l-156 -709q-47 -211 -154.5 -308t-295.5 -97q-150 -2 -219.5 91t-38.5 236zM539 911 q-16 -70 4 -105.5t69 -35.5q48 0 148 68l69 319q33 141 -85.5 141t-151.5 -141z" />
<glyph unicode=":" horiz-adv-x="454" d="M106 0l54 242h241l-53 -242h-242zM233 569l54 242h241l-53 -242h-242z" />
<glyph unicode=";" horiz-adv-x="454" d="M43 -254l156 254h-93l54 242h241l-53 -242l-196 -254h-109zM233 569l54 242h241l-53 -242h-242z" />
<glyph unicode="&#x3c;" horiz-adv-x="1228" d="M193 432l36 172l1133 432l-47 -213l-815 -305l680 -305l-47 -213z" />
<glyph unicode="=" horiz-adv-x="1228" d="M141 205l45 201h1037l-45 -201h-1037zM236 631l45 200h1036l-45 -200h-1036z" />
<glyph unicode="&#x3e;" horiz-adv-x="1228" d="M96 0l47 213l815 305l-679 305l47 213l940 -432l-37 -172z" />
<glyph unicode="?" horiz-adv-x="796" d="M254 0l53 242h242l-53 -242h-242zM338 1229q78 137 182.5 203.5t247.5 66.5q119 0 189.5 -79t46.5 -195q-12 -53 -31 -97.5t-53.5 -89.5t-49 -61t-65.5 -70q-51 -55 -83 -94t-69 -110.5t-55 -157.5l-25 -111h-196l39 172q35 158 184 355q10 12 37 46.5t37 48t29.5 41 t28.5 44t18.5 38t13.5 40.5q8 37 -10.5 64.5t-55.5 27.5q-106 0 -180 -156z" />
<glyph unicode="@" horiz-adv-x="1638" d="M237.5 428q-30.5 139 8.5 311q47 215 190.5 390.5t341 272.5t406.5 97q137 0 254.5 -45t197.5 -125t113 -197.5t2 -252.5q-27 -119 -88 -221.5t-134 -167t-153 -111.5t-146.5 -66.5t-113.5 -19.5q-49 0 -75.5 27.5t-16.5 82.5l-4 3q-55 -49 -122 -81t-124 -32 q-131 0 -202.5 100.5t-39.5 239.5q45 203 204 359.5t349 156.5q158 0 211 -133l56 106h166l-244 -526q-29 -57 -33 -80q-12 -55 21 -55q90 0 187 108.5t132 266.5q53 238 -72 370.5t-362 132.5q-260 0 -460 -171t-257 -433q-59 -262 76 -429t399 -167q266 0 473 170h170 q-137 -158 -318 -243.5t-372 -85.5q-162 0 -293 54t-214 154.5t-113.5 239.5zM741 659q-16 -78 16.5 -130t104.5 -52q106 0 200.5 98.5t119.5 210.5q16 76 -16.5 127.5t-102.5 51.5q-104 0 -200.5 -98.5t-121.5 -207.5z" />
<glyph unicode="A" d="M25 0l600 1479h315l-55 -1479h-246l27 328h-279l-117 -328h-245zM473 549h205l41 635h-4z" />
<glyph unicode="B" horiz-adv-x="1024" d="M123 0l328 1479h376q323 0 323 -265q0 -57 -15 -127q-23 -102 -86.5 -188t-159.5 -121q140 -69 140 -237q0 -52 -13 -113q-43 -197 -165 -312.5t-327 -115.5h-401zM424 209h106q98 0 153.5 56.5t80.5 170.5q11 49 11 88q0 52 -21 84q-37 56 -148 56h-82zM569 872h93 q76 0 134 49.5t78 139.5q10 45 10 80q0 129 -130 129h-97z" />
<glyph unicode="C" horiz-adv-x="1024" d="M203 358l168 762q37 166 159.5 272.5t313.5 106.5q182 -1 254 -115q46 -74 46 -173q0 -54 -14 -117l-22 -109h-254l25 115q9 39 9 69q0 39 -14 64q-26 45 -79 45q-74 0 -113 -39t-57 -125l-168 -749q-8 -40 -8 -69q0 -35 11 -56q21 -39 97 -39q66 0 102.5 36.5 t53.5 112.5l39 178h254l-37 -170q-37 -166 -158 -272t-303 -106q-190 0 -266 106q-51 72 -51 170q0 48 12 102z" />
<glyph unicode="D" horiz-adv-x="1024" d="M123 0l328 1479h376q322 0 323 -289q0 -71 -20 -158l-131 -586q-98 -446 -499 -446h-377zM424 209h88q100 0 150.5 45t76.5 162l144 647q13 54 13 93q0 45 -17 69q-31 45 -134 45h-88z" />
<glyph unicode="E" d="M123 0l328 1479h679l-49 -222h-426l-84 -380h328l-49 -222h-328l-96 -434h455l-50 -221h-708z" />
<glyph unicode="F" d="M123 0l328 1479h708l-49 -222h-455l-84 -380h340l-49 -222h-340l-145 -655h-254z" />
<glyph unicode="G" horiz-adv-x="1024" d="M203 358l168 762q37 166 157.5 272.5t298.5 106.5q182 0 256 -115q48 -74 48 -176q0 -53 -13 -114l-20 -95h-242q22 107 22 168q0 34 -6 55q-20 56 -100 56q-113 0 -147 -162l-168 -760q-8 -35 -8 -63q0 -92 90 -92h2q76 0 117.5 47t66.5 158l31 143h-162l45 201h416 l-166 -750h-123l-23 111q-76 -72 -137 -101.5t-147 -29.5q-154 0 -225 102q-45 66 -45 161q0 53 14 115z" />
<glyph unicode="H" horiz-adv-x="1024" d="M123 0l328 1479h254l-134 -602h271l133 602h254l-328 -1479h-254l146 655h-271l-145 -655h-254z" />
<glyph unicode="I" horiz-adv-x="569" d="M158 0l327 1479h254l-327 -1479h-254z" />
<glyph unicode="J" horiz-adv-x="569" d="M2 -20l49 221h53q72 0 109 29.5t51 93.5l256 1155h254l-262 -1184q-35 -154 -131 -234.5t-295 -80.5h-84z" />
<glyph unicode="K" d="M111 0l327 1479h254l-121 -547h4l388 547h254l-398 -551l105 -928h-258l-56 688h-4l-125 -164l-116 -524h-254z" />
<glyph unicode="L" horiz-adv-x="796" d="M111 0l327 1479h254l-278 -1258h399l-49 -221h-653z" />
<glyph unicode="M" horiz-adv-x="1251" d="M109 0l327 1479h334l-10 -865h4l371 865h333l-327 -1479h-221l256 1155h-5l-485 -1155h-123l27 1155h-4l-256 -1155h-221z" />
<glyph unicode="N" horiz-adv-x="1024" d="M123 0l328 1479h235l123 -846h4l186 846h230l-328 -1479h-221l-119 924h-4l-205 -924h-229z" />
<glyph unicode="O" horiz-adv-x="1024" d="M203 358l168 762q37 166 159.5 272.5t313.5 106.5q190 -1 266 -107q51 -72 51 -170q0 -48 -12 -102l-168 -762q-37 -166 -160 -272t-313 -106t-266 106q-51 71 -51 169q0 48 12 103zM457 365q-8 -40 -8 -69q0 -35 11 -56q21 -39 96 -39t114 39t57 125l168 749q8 39 8 69 q1 35 -11 56q-22 39 -96.5 39t-113.5 -39t-57 -125z" />
<glyph unicode="P" horiz-adv-x="1024" d="M123 0l328 1479h364q240 1 327 -101q55 -64 54 -180q0 -70 -18 -156q-52 -234 -185 -335t-370 -101h-111l-135 -606h-254zM557 815h98q125 0 183 48q58 47 86 179q13 59 12 101q0 52 -20 79q-36 48 -160 48h-99z" />
<glyph unicode="Q" horiz-adv-x="1024" d="M203 358l168 762q37 166 159.5 272.5t313 106.5t266.5 -107q51 -71 51 -170q0 -48 -12 -102l-168 -762q-25 -106 -86 -190q51 -53 106 -57l-49 -222q-80 0 -132 27t-95 111q-96 -47 -217 -47q-190 0 -266 106q-51 72 -51 170q0 48 12 102zM457 365q-8 -40 -8 -69 q0 -35 11 -56q21 -39 97 -39q57 0 90 22q-14 49 -49 80l49 225q61 -37 96 -90l152 676q8 39 8 69q0 35 -11 56q-22 39 -96.5 39t-113.5 -39t-57 -125z" />
<glyph unicode="R" horiz-adv-x="1024" d="M123 0l328 1479h356q219 -1 302 -103q51 -63 51 -176q0 -70 -19 -158q-66 -293 -262 -372l67 -670h-258l-45 612q-49 -6 -131 -6l-135 -606h-254zM557 815h90q104 0 157.5 49t81.5 178q14 62 14 106q0 46 -16 72q-30 50 -136 50h-91z" />
<glyph unicode="S" d="M143 389l250 35q-6 -40 -6 -73q-1 -57 17 -93q28 -57 92 -57q68 0 114.5 34.5t61.5 100.5q6 27 6 53q0 31 -8 61q-16 54 -52 97t-81 91t-89.5 94t-77.5 106q-32 62 -44 130q-5 27 -5 58q0 47 11 104q39 176 164 272.5t311 96.5q152 0 221 -98q55 -78 54 -196 q0 -31 -3 -64l-245 -27q3 25 3 45q0 53 -22 81q-31 38 -82 38q-61 0 -102 -38t-56 -107q-5 -20 -5 -41q0 -37 16 -76q26 -60 73.5 -108t100.5 -107.5t97 -119.5q43 -60 63 -143q10 -41 10 -85q0 -46 -10 -95q-41 -180 -172.5 -279t-313.5 -99q-170 0 -246 118 q-54 84 -54 197q0 45 9 94z" />
<glyph unicode="T" horiz-adv-x="796" d="M270 0l279 1257h-246l49 222h746l-49 -222h-246l-279 -1257h-254z" />
<glyph unicode="U" horiz-adv-x="1024" d="M205 373l246 1106h254l-248 -1117q-7 -33 -7 -60q0 -102 106 -102h1q135 0 170 162l248 1117h254l-246 -1106q-41 -188 -167 -290.5t-309 -102.5t-263 102q-53 68 -53 173q0 54 14 118z" />
<glyph unicode="V" d="M328 0l18 1479h250l-43 -1026h4l412 1026h250l-637 -1479h-254z" />
<glyph unicode="W" horiz-adv-x="1366" d="M281 0l47 1479h237l-53 -942h4l375 942h209l-37 -942h4l350 942h238l-588 -1479h-213l33 977h-4l-389 -977h-213z" />
<glyph unicode="X" d="M29 0l463 774l-115 705h250l51 -469h4l246 469h250l-412 -705l115 -774h-250l-53 539h-5l-294 -539h-250z" />
<glyph unicode="Y" d="M328 0l137 614l-117 865h258l53 -564h5l294 564h259l-498 -865l-137 -614h-254z" />
<glyph unicode="Z" d="M90 0l53 242l699 1015h-416l49 222h672l-53 -242l-693 -1016h467l-49 -221h-729z" />
<glyph unicode="[" horiz-adv-x="569" d="M39 -156l362 1635h439l-23 -99h-242l-317 -1437h242l-23 -99h-438z" />
<glyph unicode="\" horiz-adv-x="569" d="M289 1499h200l119 -1519h-200z" />
<glyph unicode="]" horiz-adv-x="569" d="M23 -156l22 99h242l317 1437h-242l23 99h438l-362 -1635h-438z" />
<glyph unicode="^" horiz-adv-x="1228" d="M252 618l579 861h222l198 -861h-223l-141 619l-416 -619h-219z" />
<glyph unicode="_" horiz-adv-x="1024" d="M-57 -256l22 102h1024l-22 -102h-1024z" />
<glyph unicode="`" horiz-adv-x="454" d="M272 1528h277l96 -295h-170z" />
<glyph unicode="a" d="M121 227q39 176 180 289t420 211l14 66q7 30 7 54q0 87 -89 87q-74 0 -110 -39t-56 -117h-229q47 166 165 255t279 89q164 0 233 -74q47 -50 47 -136q0 -41 -11 -89l-156 -706q-8 -31 -12 -117h-219q2 16 3 45t3 41q-80 -55 -146.5 -80.5t-144.5 -25.5q-113 0 -158 68 q-29 44 -29 106q0 34 9 73zM358 268q-4 -18 -4 -32q0 -68 88 -68q82 0 176 102l66 289q-170 -86 -239.5 -150.5t-86.5 -140.5z" />
<glyph unicode="b" d="M111 0l327 1479h230l-105 -471q68 47 96.5 64.5t73.5 33.5t92 16q111 0 155 -80q25 -45 25 -113q0 -51 -14 -114l-117 -528q-33 -147 -112.5 -227t-188.5 -80q-84 0 -129 29.5t-88 105.5h-4l-24 -115h-217zM389 225q68 -57 120 -57t90 39t58 139l93 410q12 52 12 88 q0 33 -10 51q-21 39 -73 39t-144 -57z" />
<glyph unicode="c" d="M184 389l72 324q90 409 444 409h2q285 0 284 -261q0 -61 -15 -136h-230l9 29q9 42 9 75q0 105 -97 105q-127 0 -166 -180l-90 -406q-10 -44 -10 -77q0 -103 96 -103q126 0 167 180l15 70h229l-6 -29q-90 -410 -446 -410l-1 1q-285 0 -284 261q0 66 18 148z" />
<glyph unicode="d" d="M162 287l117 528q33 147 112.5 227t188.5 80q49 0 87 -16t58 -33.5t68 -64.5l104 471h229l-327 -1479h-217l24 115h-4q-76 -76 -134 -105.5t-140 -29.5q-111 0 -155 80q-25 45 -25 113q0 51 14 114zM403 346q-10 -49 -10 -84q1 -35 11 -55q20 -39 72 -39t142 57l146 652 q-66 57 -118 57t-90 -39t-60 -139z" />
<glyph unicode="e" d="M184 389l72 324q90 410 446 410q285 0 285 -261q0 -66 -18 -149l-45 -205h-484l-34 -160q-10 -44 -10 -77q0 -103 96 -103q126 0 167 180l5 25h229q-94 -393 -442 -393q-285 0 -285 262q0 65 18 147zM481 696h254l15 58q9 42 9 75q0 105 -97 105q-127 0 -166 -180z" />
<glyph unicode="f" horiz-adv-x="569" d="M156 0l202 913h-135l41 189h135l31 137q57 260 313 260h115l-41 -188h-65q-41 0 -62.5 -16.5t-30.5 -57.5l-30 -135h131l-41 -189h-131l-203 -913h-229z" />
<glyph unicode="g" d="M-2 -172q14 61 68.5 109.5t119.5 62.5v4q-76 33 -76 103q0 17 5 36q10 51 62 99.5t116 79.5q-76 61 -88 130q-3 15 -3 38q0 75 31 227q49 225 149.5 315t295.5 90q154 0 229 -118q63 72 104 95t109 23l-41 -190q-12 2 -37 2q-68 0 -118 -35q1 -19 1 -38q0 -68 -16 -136 q-53 -244 -158.5 -343t-285.5 -99h-74q-49 -10 -57 -52q-6 -31 23.5 -44t80.5 -16t113.5 -4t123 -12.5t107.5 -34t68 -74.5q11 -29 11 -67q0 -30 -7 -65q-59 -262 -530 -262q-172 0 -258 45q-71 37 -71 102q0 14 3 29zM256 -102q-2 -10 -2 -18q0 -31 28 -46q37 -18 150 -18 t158 18.5t55 63.5q2 9 2 18q0 31 -29 46q-38 18 -150 18t-157 -18.5t-55 -63.5zM435 517q16 -46 75 -46q68 0 101.5 46t64.5 185q22 97 22 149q0 22 -4 37q-14 46 -82 46q-59 0 -98 -49t-68 -183q-17 -87 -17 -138q0 -30 6 -47z" />
<glyph unicode="h" d="M111 0l327 1479h230l-107 -480q68 49 95.5 67.5t82 37t115.5 18.5q92 0 129 -62q22 -37 22 -89q0 -36 -10 -80l-196 -891h-230l189 854q3 14 3 26q0 54 -67 54q-51 0 -162 -70l-192 -864h-229z" />
<glyph unicode="i" horiz-adv-x="454" d="M113 0l243 1102h230l-244 -1102h-229zM393 1270l47 209h230l-47 -209h-230z" />
<glyph unicode="j" horiz-adv-x="454" d="M-78 -348l47 209h39q86 0 105 86l256 1153h229l-258 -1163q-63 -285 -330 -285h-88zM406 1270l47 209h229l-47 -209h-229z" />
<glyph unicode="k" d="M111 0l327 1479h230l-170 -766h4l338 389h245l-315 -348l98 -754h-231l-64 547h-4l-143 -162l-86 -385h-229z" />
<glyph unicode="l" horiz-adv-x="454" d="M113 0l327 1479h230l-328 -1479h-229z" />
<glyph unicode="m" horiz-adv-x="1366" d="M111 0l243 1102h217l-24 -111q8 6 24 17q61 45 91 64.5t75 34.5t92 15q82 0 116 -28.5t56 -102.5q98 78 159 104.5t126 26.5q106 0 148 -62q26 -38 25 -94q0 -34 -9 -75l-197 -891h-229l188 854q10 39 -8 59.5t-55 20.5q-53 0 -160 -70l-192 -864h-230l189 854 q10 39 -7.5 59.5t-54.5 20.5q-51 0 -162 -70l-192 -864h-229z" />
<glyph unicode="n" d="M111 0l243 1102h217l-24 -111q8 4 20 15q63 45 95 64.5t82.5 35.5t109.5 16q92 0 129 -62q22 -37 22 -89q0 -36 -10 -80l-196 -891h-230l189 854q3 14 3 26q0 54 -67 54q-51 0 -162 -70l-192 -864h-229z" />
<glyph unicode="o" d="M184 389l72 324q90 410 446 410q285 0 285 -262q0 -66 -18 -148l-72 -324q-91 -410 -447 -410q-285 0 -284 261q0 66 18 149zM406 348q-10 -44 -10 -77q0 -103 96 -103q126 0 167 180l91 406q9 42 9 75q0 105 -97 105q-127 0 -166 -180z" />
<glyph unicode="p" d="M33 -348l321 1450h217l-24 -115h4q76 76 134 105.5t140 29.5q111 0 155 -80q25 -45 25 -113q0 -51 -14 -114l-117 -528q-33 -147 -112.5 -227t-188.5 -80q-49 0 -85.5 16t-58 33.5t-69.5 64.5l-98 -442h-229zM389 225q68 -57 120 -57t90 39t58 139l93 410q12 52 12 88 q0 32 -10 51q-21 39 -73 39t-144 -57z" />
<glyph unicode="q" d="M162 287l117 528q33 147 112.5 227t188.5 80q84 0 129 -29.5t88 -105.5h4l24 115h217l-321 -1450h-229l98 442q-68 -47 -96.5 -64.5t-73.5 -33.5t-92 -16q-111 0 -155 80q-25 45 -25 113q0 51 14 114zM403 346q-10 -49 -10 -84t11 -55q20 -39 72 -39t142 57l146 652 q-66 57 -118 57t-90 -39t-60 -139z" />
<glyph unicode="r" horiz-adv-x="681" d="M111 0l243 1102h219l-28 -129h4q57 70 135 109.5t158 39.5h47l-51 -239q-82 22 -139 22h-5q-63 0 -116.5 -39t-69.5 -108l-168 -758h-229z" />
<glyph unicode="s" horiz-adv-x="796" d="M119 287l213 55q-1 -16 -1 -31q1 -58 19 -96q24 -47 94 -47q45 0 80 25.5t45 70.5q2 12 2 25q0 32 -15 62q-21 42 -62 76t-87.5 77t-84.5 86q-38 44 -56 106q-10 34 -9 68q0 31 7 63q29 129 135.5 212t235.5 83q133 0 203 -80q69 -78 69 -206v-7l-202 -32v14 q0 123 -101 123q-45 0 -77.5 -22.5t-41.5 -65.5q-3 -12 -3 -23q0 -28 16 -56q24 -40 64 -72.5t87 -74.5t84 -88t55 -112q9 -33 8 -70q0 -35 -8 -74q-33 -143 -138 -219.5t-249 -76.5q-147 0 -217 80q-65 73 -65 204v23z" />
<glyph unicode="t" horiz-adv-x="569" d="M199 227l151 686h-127l41 189h127l66 297h229l-65 -297h153l-41 -189h-153l-142 -634q-4 -18 -4 -33q0 -57 62 -58h75l-43 -196q-49 -12 -116 -12q-222 0 -222 170q0 35 9 77z" />
<glyph unicode="u" d="M158 211l196 891h230l-189 -854q-3 -14 -3 -26q0 -54 67 -54q53 0 164 70l190 864h229l-243 -1102h-217l24 111q-6 -4 -20 -15q-63 -45 -94 -64.5t-82.5 -35.5t-110.5 -16q-90 0 -128 61q-23 37 -23 91q0 36 10 79z" />
<glyph unicode="v" horiz-adv-x="796" d="M264 1102h234l-23 -737h4l307 737h234l-510 -1102h-223z" />
<glyph unicode="w" horiz-adv-x="1138" d="M225 0l31 1102h221l-51 -688h4l297 686h170l-29 -686h4l277 688h221l-498 -1102h-184l29 696h-4l-303 -696h-185z" />
<glyph unicode="x" horiz-adv-x="796" d="M25 0l374 584l-112 518h237l49 -307l191 307h237l-350 -514l119 -588h-238l-51 373h-4l-215 -373h-237z" />
<glyph unicode="y" horiz-adv-x="796" d="M2 -346l41 188h55q84 0 127 43t64 135q9 40 9 102q0 21 -1 44l-33 936h234l-9 -705h5l294 705h232l-551 -1184q-68 -147 -154 -205.5t-217 -58.5h-96z" />
<glyph unicode="z" horiz-adv-x="796" d="M61 0l41 188l582 725h-391l41 189h645l-41 -189l-590 -725h428l-41 -188h-674z" />
<glyph unicode="{" horiz-adv-x="569" d="M119 20l94 422q18 82 -6.5 123t-71.5 41l25 119q49 0 91 41t60 123l92 414q23 102 80.5 149t175.5 47h226l-21 -98h-168q-74 0 -96 -103l-88 -397q-25 -111 -90.5 -169t-118.5 -64v-6q20 -4 41 -16.5t42.5 -40t25.5 -72t-6 -111.5l-89 -397q-23 -102 52 -103h168l-23 -98 h-225q-119 0 -156 47t-14 149z" />
<glyph unicode="|" horiz-adv-x="454" d="M123 -20l336 1519h200l-335 -1519h-201z" />
<glyph unicode="}" horiz-adv-x="569" d="M-23 -176l23 98h168q74 0 96 103l88 397q25 111 89.5 169t117.5 64l2 7q-23 4 -43 16t-41.5 39.5t-26 72t8.5 111.5l88 397q23 102 -51 103h-168l20 98h225q119 0 156 -47t14 -149l-94 -422q-16 -82 7.5 -123t72.5 -41l-27 -119q-49 0 -91 -41t-60 -123l-92 -414 q-23 -102 -80 -149t-176 -47h-226z" />
<glyph unicode="~" horiz-adv-x="1228" d="M242 526q45 41 64.5 57.5t63.5 46t88 43t91 13.5q82 0 213 -65q10 -4 32.5 -15.5t33 -16.5t30 -13.5t32.5 -11.5t31.5 -6t34.5 -3q39 0 80 22.5t64.5 44t64.5 64.5l52 -176q-14 -10 -53.5 -42t-61 -46t-55 -34.5t-67.5 -29t-71 -8.5q-86 0 -194 68q-96 63 -221 63 q-104 0 -201 -131z" />
<glyph unicode="&#xa1;" horiz-adv-x="569" d="M72 -377l276 1045h168l-186 -1045h-258zM354 860l54 242h241l-53 -242h-242z" />
<glyph unicode="&#xa2;" d="M94 -238l148 297q-129 94 -74 351l72 323q92 410 471 410q25 0 63 -4l131 262h152l-154 -307q137 -93 84 -349h-213l6 29q16 78 -4 121l-340 -690q20 -16 62 -17q145 0 186 181l14 69h230l-6 -28q-90 -410 -465 -410q-53 0 -86 8l-123 -246h-154zM387 303h4l309 649 q-10 2 -32 2q-68 0 -118 -44t-71 -136l-90 -405q-2 -10 -2 -66z" />
<glyph unicode="&#xa3;" d="M68 -20l49 219q100 31 153.5 128t104.5 326h-158l37 172h129q-2 250 18 336q35 162 138.5 250t273.5 88q168 0 226.5 -101.5t13.5 -312.5h-209q20 135 3.5 180.5t-81.5 45.5q-102 0 -131 -131q-12 -53 -15.5 -116t-2.5 -115t-3 -124h203l-37 -172h-184q-29 -113 -45 -169 t-47 -124.5t-72 -121.5q59 -49 131 -50q61 0 96 58.5t58 161.5h205l-27 -121q-33 -145 -122 -226t-218 -81q-139 0 -242 98q-149 -88 -245 -98z" />
<glyph unicode="&#xa4;" d="M106 408l117 94q-51 104 -22.5 237t129.5 238l-76 94l127 109l74 -99q123 74 256 74q131 0 221 -74l121 99l77 -109l-116 -94q51 -104 22.5 -237.5t-129.5 -237.5l76 -94l-127 -109l-76 98q-123 -74 -254 -73q-133 0 -223 73l-119 -98zM389.5 739.5 q-22.5 -100.5 28.5 -170t147.5 -69.5t178 69.5t104 170t-28.5 170t-147.5 69.5t-178 -69.5t-104 -170z" />
<glyph unicode="&#xa5;" d="M154 451l36 172h304l-19 163h-248l39 172h178l-71 521h205l71 -613h4l334 613h205l-301 -521h178l-39 -172h-248l-92 -163h303l-37 -172h-303l-100 -451h-197l101 451h-303z" />
<glyph unicode="&#xa6;" horiz-adv-x="454" d="M123 -20l139 626h201l-139 -626h-201zM319 872l140 627h200l-139 -627h-201z" />
<glyph unicode="&#xa7;" horiz-adv-x="1024" d="M180 2l176 117q39 -123 136 -123q53 0 91 25.5t50 76.5q10 49 -28 115t-96 134.5t-116.5 140t-91.5 155.5t-16 158q23 100 98.5 161.5t179.5 71.5q-86 78 -55 215q25 113 116 181.5t234 68.5q90 0 158.5 -46t103.5 -118l-166 -102q0 2 -12 19.5t-15 21.5t-14.5 18.5 t-18.5 19.5t-19.5 13t-24.5 11t-27 3q-106 0 -127 -94q-10 -47 27 -109.5t96.5 -125t117.5 -130t91 -149.5t16 -158q-23 -102 -96.5 -170.5t-177.5 -70.5q41 -51 53.5 -95t-0.5 -126q-27 -121 -120 -198t-211 -77q-104 0 -173 41t-139 125zM475 817q-6 -31 43 -118 t115.5 -161.5t103.5 -74.5q39 0 73 26.5t42 63.5q6 29 -41 114t-115.5 160.5t-109.5 75.5t-72 -25.5t-39 -60.5z" />
<glyph unicode="&#xa8;" horiz-adv-x="454" d="M233 1257l50 222h221l-49 -222h-222zM557 1257l49 222h221l-49 -222h-221z" />
<glyph unicode="&#xa9;" horiz-adv-x="1638" d="M198.5 425q-32.5 140 6.5 314q49 223 197.5 399.5t345 268.5t403.5 92q156 0 285 -54t214 -153.5t117.5 -240t-6.5 -312.5q-49 -223 -197.5 -399t-345 -268t-403.5 -92q-156 0 -285 53t-214 152.5t-117.5 239.5zM405.5 739q-57.5 -260 70.5 -430t374 -170 q244 0 448.5 170t262 430t-71.5 430t-373 170q-246 0 -449.5 -170t-261 -430zM578 743q45 199 189 326t341 127q145 0 228 -82t71 -233h-160q2 76 -45 115.5t-129 39.5q-113 0 -192.5 -78.5t-108.5 -209.5q-29 -125 20.5 -211t155.5 -86q84 0 149.5 42.5t90.5 118.5h166 q-57 -150 -180 -235.5t-263 -85.5q-193 0 -284.5 129t-48.5 323z" />
<glyph unicode="&#xaa;" horiz-adv-x="544" d="M242 961q23 104 111.5 172.5t262.5 128.5l9 38q8 41 -4.5 58.5t-49.5 17.5q-73 0 -96 -84h-160q29 98 107 152.5t188 54.5q106 0 151.5 -45t26.5 -135l-94 -426q-4 -12 -6 -70h-143q2 8 2 20.5v22.5q-88 -55 -187 -55q-74 0 -103.5 41t-14.5 109zM408 987q-12 -53 47 -53 q61 0 102 61l33 150q-100 -45 -136 -79t-46 -79z" />
<glyph unicode="&#xab;" horiz-adv-x="1024" d="M252 553l305 313h203l-309 -315l161 -315h-196zM594 553l305 313h203l-309 -315l161 -315h-196z" />
<glyph unicode="&#xac;" horiz-adv-x="1228" d="M236 631l45 200h1036l-139 -628h-201l94 428h-835z" />
<glyph unicode="&#xad;" horiz-adv-x="681" d="M190 457l43 188h502l-43 -188h-502z" />
<glyph unicode="&#xae;" horiz-adv-x="1638" d="M198.5 425q-32.5 140 6.5 314q49 223 197.5 399.5t345 268.5t403.5 92q156 0 285 -54t214 -153.5t117.5 -240t-6.5 -312.5q-49 -223 -197.5 -399t-345 -268t-403.5 -92q-156 0 -285 53t-214 152.5t-117.5 239.5zM405.5 739q-57.5 -260 70.5 -430t374 -170 q244 0 448.5 170t262 430t-71.5 430t-373 170q-246 0 -449.5 -170t-261 -430zM586 315l188 850h322q166 0 234.5 -58t39.5 -194q-25 -109 -93.5 -164t-162.5 -63l123 -371h-186l-111 363h-106l-80 -363h-168zM864 809h146q90 0 134 28.5t56 90.5q14 59 -20.5 82.5 t-128.5 23.5h-138z" />
<glyph unicode="&#xaf;" horiz-adv-x="454" d="M215 1305l29 131h602l-29 -131h-602z" />
<glyph unicode="&#xb0;" horiz-adv-x="819" d="M382 1206q28 123 132 208t228 85t190.5 -85t39 -208t-131 -208t-228.5 -85t-191.5 85t-38.5 208zM509 1206q-17 -76 19.5 -127t109.5 -51t131 51t75.5 127t-19.5 127t-109.5 51t-131 -51t-75.5 -127z" />
<glyph unicode="&#xb1;" horiz-adv-x="1228" d="M96 0l45 201h1037l-45 -201h-1037zM219 555l45 201h418l61 280h201l-61 -280h417l-45 -201h-417l-62 -281h-201l62 281h-418z" />
<glyph unicode="&#xb2;" horiz-adv-x="544" d="M162 598l37 166q195 178 293 299t118 215q14 57 -43 57q-29 0 -52 -20.5t-30 -48.5l-8 -39h-176l8 41q23 98 112 164.5t204 66.5q98 0 148 -57.5t32 -138.5q-27 -125 -105.5 -243t-279.5 -298h258l-35 -164h-481z" />
<glyph unicode="&#xb3;" horiz-adv-x="544" d="M219 805l12 51h177l-11 -43q-14 -63 41.5 -63t73.5 79l10 52q16 68 -5 89t-87 21l35 152q61 0 92 23.5t47 95.5q16 82 -37 81q-25 0 -41 -16t-22 -41l-8 -35h-172l10 41q20 92 95 149.5t181 57.5q115 0 160 -65.5t25 -161.5q-18 -80 -49 -126t-93 -77q57 -35 68.5 -83 t-8.5 -138q-31 -133 -106 -197.5t-210 -64.5q-106 0 -154 54t-24 165z" />
<glyph unicode="&#xb4;" horiz-adv-x="454" d="M354 1233l228 295h276l-334 -295h-170z" />
<glyph unicode="&#xb6;" horiz-adv-x="1024" d="M254 1094q86 385 512 385h590l-29 -131h-115l-335 -1512h-168l335 1512h-178l-336 -1512h-168l197 885q-176 0 -258 104.5t-47 268.5z" />
<glyph unicode="&#xb7;" horiz-adv-x="454" d="M205 518q12 57 61 97t107 40q57 0 88 -40t18 -97q-12 -57 -61 -97t-107 -40q-57 0 -87.5 40t-18.5 97z" />
<glyph unicode="&#xb8;" horiz-adv-x="454" d="M-115 -436l58 102q61 -35 125 -35q53 0 92 25t47 59q8 39 -19.5 57.5t-65.5 16.5t-71 -14l-37 37l181 188h98l-111 -123q29 4 43 4q74 -4 121 -44t31 -111q-20 -94 -108.5 -151.5t-190.5 -57.5q-103 0 -193 47z" />
<glyph unicode="&#xb9;" horiz-adv-x="544" d="M326 598l151 686h-106l22 98q121 43 228 117h100l-199 -901h-196z" />
<glyph unicode="&#xba;" horiz-adv-x="544" d="M276 1059l43 194q53 246 285 246t178 -246l-43 -194q-55 -248 -286.5 -248t-176.5 248zM440 1042q-23 -100 40.5 -100t86.5 100l49 226q23 100 -40.5 100t-86.5 -100z" />
<glyph unicode="&#xbb;" horiz-adv-x="1024" d="M172 236l305 315l-170 315h203l166 -313l-307 -317h-197zM514 236l305 315l-170 315h203l166 -313l-307 -317h-197z" />
<glyph unicode="&#xbc;" horiz-adv-x="1363" d="M147 -20l1176 1519h186l-1175 -1519h-187zM342 598l152 686h-107l23 98q119 43 227 115h100l-198 -899h-197zM803 205l37 164l379 518h194l-117 -527h78l-35 -155h-77l-45 -205h-168l45 205h-291zM997 360h131l62 273h-4z" />
<glyph unicode="&#xbd;" horiz-adv-x="1363" d="M131 -20l1176 1519h186l-1176 -1519h-186zM338 598l151 686h-106l23 98q121 43 227 117h100l-198 -901h-197zM815 0l37 166q197 178 294 299t120 215q12 57 -45 57q-29 0 -52.5 -20.5t-29.5 -48.5l-9 -39h-176l9 41q23 98 111.5 164.5t205.5 66.5q98 0 147.5 -57.5 t30.5 -138.5q-27 -125 -105.5 -243t-277.5 -298h258l-37 -164h-481z" />
<glyph unicode="&#xbe;" horiz-adv-x="1363" d="M186 -20l1176 1519h186l-1175 -1519h-187zM240 805l12 51h176l-10 -43q-14 -63 41 -63t73 79l11 52q16 68 -5.5 89t-86.5 21l34 152q61 0 92 23.5t48 95.5q16 82 -37 81q-25 0 -41.5 -16t-22.5 -41l-8 -35h-172l10 41q20 92 95 149.5t182 57.5q115 0 160 -65.5t24 -161.5 q-18 -80 -49 -126t-92 -77q57 -35 68.5 -83t-9.5 -138q-31 -133 -105.5 -197.5t-209.5 -64.5q-106 0 -154.5 54t-23.5 165zM803 205l37 164l379 518h194l-117 -527h78l-35 -155h-77l-45 -205h-168l45 205h-291zM997 360h131l62 273h-4z" />
<glyph unicode="&#xbf;" horiz-adv-x="796" d="M39 -123q12 53 29.5 97t53.5 89.5t49 61.5t65 70q53 55 83.5 94t67.5 110.5t55 157.5l25 111h197l-37 -172q-35 -158 -187 -355q-8 -12 -34.5 -47t-37 -48t-30 -41t-28.5 -44t-19 -37.5t-15 -40.5q-8 -37 10.5 -64.5t55.5 -27.5q106 0 180 156l180 -74 q-78 -137 -182 -203.5t-248 -66.5q-119 0 -189.5 78.5t-43.5 195.5zM492 860l53 242h241l-53 -242h-241z" />
<glyph unicode="&#xc0;" d="M25 0l600 1479h315l-55 -1479h-246l27 328h-279l-117 -328h-245zM473 549h205l41 635h-4zM571 1851h277l96 -295h-170z" />
<glyph unicode="&#xc1;" d="M25 0l600 1479h315l-55 -1479h-246l27 328h-279l-117 -328h-245zM473 549h205l41 635h-4zM653 1556l228 295h276l-334 -295h-170z" />
<glyph unicode="&#xc2;" d="M25 0l600 1479h315l-55 -1479h-246l27 328h-279l-117 -328h-245zM473 549h205l41 635h-4zM489 1556l263 295h225l131 -295h-188l-80 183l-162 -183h-189z" />
<glyph unicode="&#xc3;" d="M25 0l600 1479h315l-55 -1479h-246l27 328h-279l-117 -328h-245zM469 1573q100 242 264 242q47 0 125 -39q6 -2 21.5 -10.5t23.5 -12.5t20.5 -9t25 -7t24.5 -2q45 0 69.5 21.5t36.5 68.5h115q-100 -242 -266 -242q-51 0 -123 41q-70 39 -115 39t-69.5 -21.5t-36.5 -68.5 h-115zM473 549h205l41 635h-4z" />
<glyph unicode="&#xc4;" d="M25 0l600 1479h315l-55 -1479h-246l27 328h-279l-117 -328h-245zM473 549h205l41 635h-4zM532 1581l50 221h221l-49 -221h-222zM856 1581l49 221h221l-49 -221h-221z" />
<glyph unicode="&#xc5;" d="M25 0l600 1479h315l-55 -1479h-246l27 328h-279l-117 -328h-245zM473 549h205l41 635h-4zM636.5 1765q18.5 86 94.5 147.5t162 61.5t133 -61.5t28.5 -147.5t-94 -147.5t-161.5 -61.5t-133.5 61.5t-29 147.5zM739.5 1765q-10.5 -45 14 -75.5t68.5 -30.5t82 30.5t48.5 75.5 t-14.5 76t-69 31t-81.5 -31t-48 -76z" />
<glyph unicode="&#xc6;" horiz-adv-x="1478" d="M25 0l804 1479h871l-49 -222h-434l-84 -380h335l-49 -222h-336l-96 -434h463l-49 -221h-717l78 348h-295l-184 -348h-258zM586 569h225l160 725h-4z" />
<glyph unicode="&#xc7;" horiz-adv-x="1024" d="M170 -436l57 102q61 -35 125 -35q53 0 92 25t48 59q8 39 -20 57.5t-65.5 16.5t-70.5 -14l-37 37l162 170q-166 12 -229.5 116.5t-28.5 259.5l168 762q37 166 159.5 272.5t313.5 106.5q182 0 253.5 -114.5t32.5 -290.5l-22 -109h-254l25 115q20 88 -5.5 133t-78.5 45 q-74 0 -113 -39t-57 -125l-168 -749q-18 -86 3 -125t97 -39q66 0 102.5 36.5t53.5 112.5l39 178h254l-37 -170q-35 -154 -141.5 -257t-266.5 -117l-94 -107q29 4 43 4q74 -4 121 -44t31 -111q-20 -94 -108.5 -151.5t-191.5 -57.5q-102 0 -192 47z" />
<glyph unicode="&#xc8;" d="M123 0l328 1479h679l-49 -222h-426l-84 -380h328l-49 -222h-328l-96 -434h455l-50 -221h-708zM596 1851h276l97 -295h-170z" />
<glyph unicode="&#xc9;" d="M123 0l328 1479h679l-49 -222h-426l-84 -380h328l-49 -222h-328l-96 -434h455l-50 -221h-708zM678 1556l227 295h277l-334 -295h-170z" />
<glyph unicode="&#xca;" d="M123 0l328 1479h679l-49 -222h-426l-84 -380h328l-49 -222h-328l-96 -434h455l-50 -221h-708zM514 1556l262 295h225l132 -295h-189l-80 183l-162 -183h-188z" />
<glyph unicode="&#xcb;" d="M123 0l328 1479h679l-49 -222h-426l-84 -380h328l-49 -222h-328l-96 -434h455l-50 -221h-708zM557 1581l49 221h221l-49 -221h-221zM881 1581l49 221h221l-49 -221h-221z" />
<glyph unicode="&#xcc;" horiz-adv-x="569" d="M158 0l327 1479h254l-327 -1479h-254zM401 1851h277l96 -295h-170z" />
<glyph unicode="&#xcd;" horiz-adv-x="569" d="M158 0l327 1479h254l-327 -1479h-254zM483 1556l228 295h276l-334 -295h-170z" />
<glyph unicode="&#xce;" horiz-adv-x="569" d="M158 0l327 1479h254l-327 -1479h-254zM319 1556l263 295h225l131 -295h-188l-80 183l-162 -183h-189z" />
<glyph unicode="&#xcf;" horiz-adv-x="569" d="M158 0l327 1479h254l-327 -1479h-254zM362 1581l50 221h221l-49 -221h-222zM686 1581l49 221h221l-49 -221h-221z" />
<glyph unicode="&#xd0;" horiz-adv-x="1024" d="M123 0l145 655h-82l50 222h81l134 602h376q401 0 303 -447l-131 -586q-98 -446 -499 -446h-377zM424 209h88q100 0 150.5 45t76.5 162l144 647q27 117 -4 162t-134 45h-88l-86 -393h152l-49 -222h-152z" />
<glyph unicode="&#xd1;" horiz-adv-x="1024" d="M123 0l328 1479h235l123 -846h4l186 846h230l-328 -1479h-221l-119 924h-4l-205 -924h-229zM526 1573q100 242 265 242q47 0 124 -39q6 -2 21.5 -10.5t24 -12.5t20.5 -9t24.5 -7t24.5 -2q45 0 70 21.5t37 68.5h114q-100 -242 -266 -242q-51 0 -123 41q-70 39 -114 39 q-45 0 -70 -21.5t-37 -68.5h-115z" />
<glyph unicode="&#xd2;" horiz-adv-x="1024" d="M203 358l168 762q37 166 159.5 272.5t313 106.5t266.5 -106.5t39 -272.5l-168 -762q-37 -166 -160 -272t-313.5 -106t-266 106t-38.5 272zM457 365q-18 -86 3 -125t96 -39t114 39t57 125l168 749q18 86 -3.5 125t-96 39t-113.5 -39t-57 -125zM629 1851h276l96 -295h-170z " />
<glyph unicode="&#xd3;" horiz-adv-x="1024" d="M203 358l168 762q37 166 159.5 272.5t313 106.5t266.5 -106.5t39 -272.5l-168 -762q-37 -166 -160 -272t-313.5 -106t-266 106t-38.5 272zM457 365q-18 -86 3 -125t96 -39t114 39t57 125l168 749q18 86 -3.5 125t-96 39t-113.5 -39t-57 -125zM711 1556l227 295h276 l-333 -295h-170z" />
<glyph unicode="&#xd4;" horiz-adv-x="1024" d="M203 358l168 762q37 166 159.5 272.5t313 106.5t266.5 -106.5t39 -272.5l-168 -762q-37 -166 -160 -272t-313.5 -106t-266 106t-38.5 272zM457 365q-18 -86 3 -125t96 -39t114 39t57 125l168 749q18 86 -3.5 125t-96 39t-113.5 -39t-57 -125zM547 1556l262 295h225 l131 -295h-188l-80 183l-162 -183h-188z" />
<glyph unicode="&#xd5;" horiz-adv-x="1024" d="M203 358l168 762q37 166 159.5 272.5t313 106.5t266.5 -106.5t39 -272.5l-168 -762q-37 -166 -160 -272t-313.5 -106t-266 106t-38.5 272zM457 365q-18 -86 3 -125t96 -39t114 39t57 125l168 749q18 86 -3.5 125t-96 39t-113.5 -39t-57 -125zM526 1573q100 242 265 242 q47 0 124 -39q6 -2 21.5 -10.5t24 -12.5t20.5 -9t24.5 -7t24.5 -2q45 0 70 21.5t37 68.5h114q-100 -242 -266 -242q-51 0 -123 41q-70 39 -114 39q-45 0 -70 -21.5t-37 -68.5h-115z" />
<glyph unicode="&#xd6;" horiz-adv-x="1024" d="M203 358l168 762q37 166 159.5 272.5t313 106.5t266.5 -106.5t39 -272.5l-168 -762q-37 -166 -160 -272t-313.5 -106t-266 106t-38.5 272zM457 365q-18 -86 3 -125t96 -39t114 39t57 125l168 749q18 86 -3.5 125t-96 39t-113.5 -39t-57 -125zM590 1581l49 221h221 l-49 -221h-221zM913 1581l50 221h221l-49 -221h-222z" />
<glyph unicode="&#xd7;" horiz-adv-x="1228" d="M129 143l459 375l-293 377l172 141l293 -377l461 377l110 -141l-459 -377l293 -375l-174 -143l-293 377l-460 -377z" />
<glyph unicode="&#xd8;" horiz-adv-x="1024" d="M2 -246l221 361q-53 96 -20 243l168 762q37 166 159.5 272.5t313.5 106.5q125 0 200 -49l121 197h166l-188 -312q35 -90 6 -215l-168 -762q-37 -166 -160 -272t-313 -106q-106 -1 -176 34l-162 -260h-168zM459 248q14 -47 98 -47q74 0 113 39t57 125l113 503h-4zM494 526 h4l405 666q-2 86 -108 86q-74 0 -113 -39t-57 -125z" />
<glyph unicode="&#xd9;" horiz-adv-x="1024" d="M205 373l246 1106h254l-248 -1117q-35 -162 100 -161.5t170 161.5l248 1117h254l-246 -1106q-41 -188 -167 -290.5t-309 -102.5t-263 102.5t-39 290.5zM629 1851h276l96 -295h-170z" />
<glyph unicode="&#xda;" horiz-adv-x="1024" d="M205 373l246 1106h254l-248 -1117q-35 -162 100 -161.5t170 161.5l248 1117h254l-246 -1106q-41 -188 -167 -290.5t-309 -102.5t-263 102.5t-39 290.5zM711 1556l227 295h276l-333 -295h-170z" />
<glyph unicode="&#xdb;" horiz-adv-x="1024" d="M205 373l246 1106h254l-248 -1117q-35 -162 100 -161.5t170 161.5l248 1117h254l-246 -1106q-41 -188 -167 -290.5t-309 -102.5t-263 102.5t-39 290.5zM547 1556l262 295h225l131 -295h-188l-80 183l-162 -183h-188z" />
<glyph unicode="&#xdc;" horiz-adv-x="1024" d="M205 373l246 1106h254l-248 -1117q-35 -162 100 -161.5t170 161.5l248 1117h254l-246 -1106q-41 -188 -167 -290.5t-309 -102.5t-263 102.5t-39 290.5zM590 1581l49 221h221l-49 -221h-221zM913 1581l50 221h221l-49 -221h-222z" />
<glyph unicode="&#xdd;" d="M328 0l137 614l-117 865h258l53 -564h5l294 564h259l-498 -865l-137 -614h-254zM653 1556l228 295h276l-334 -295h-170z" />
<glyph unicode="&#xde;" horiz-adv-x="1024" d="M123 0l328 1479h254l-64 -287h111q240 0 326.5 -101.5t35.5 -335t-184 -335t-371 -101.5h-110l-72 -319h-254zM494 528h98q125 0 182 48.5t86 179.5t-7 179t-161 48h-98z" />
<glyph unicode="&#xdf;" d="M111 0l245 1106q41 190 147.5 287.5t262.5 97.5q100 0 163.5 -32t88 -86t27 -128t-18.5 -158q-57 -254 -211 -274v-4q90 -31 114.5 -123t-14.5 -268q-51 -231 -129.5 -324.5t-199.5 -93.5h-135l43 195q23 -6 53 -7q45 0 69.5 33t40.5 105l48 206q35 160 -93 160l41 189 q63 10 87 37.5t42 109.5l33 143q14 70 -4 101t-74 31q-57 0 -91 -36t-50 -116l-256 -1151h-229z" />
<glyph unicode="&#xe0;" d="M121 227q39 176 180 289t420 211l14 66q31 141 -82 141q-74 0 -110 -39t-56 -117h-229q47 166 165 255t279 89q164 0 233 -74.5t36 -224.5l-156 -706q-8 -31 -12 -117h-219q2 16 3 45t3 41q-80 -55 -146.5 -80.5t-144.5 -25.5q-113 0 -158 68.5t-20 178.5zM358 268 q-23 -100 84 -100q82 0 176 102l66 289q-170 -86 -239.5 -150.5t-86.5 -140.5zM500 1528h276l96 -295h-170z" />
<glyph unicode="&#xe1;" d="M121 227q39 176 180 289t420 211l14 66q31 141 -82 141q-74 0 -110 -39t-56 -117h-229q47 166 165 255t279 89q164 0 233 -74.5t36 -224.5l-156 -706q-8 -31 -12 -117h-219q2 16 3 45t3 41q-80 -55 -146.5 -80.5t-144.5 -25.5q-113 0 -158 68.5t-20 178.5zM358 268 q-23 -100 84 -100q82 0 176 102l66 289q-170 -86 -239.5 -150.5t-86.5 -140.5zM582 1233l227 295h276l-333 -295h-170z" />
<glyph unicode="&#xe2;" d="M121 227q39 176 180 289t420 211l14 66q31 141 -82 141q-74 0 -110 -39t-56 -117h-229q47 166 165 255t279 89q164 0 233 -74.5t36 -224.5l-156 -706q-8 -31 -12 -117h-219q2 16 3 45t3 41q-80 -55 -146.5 -80.5t-144.5 -25.5q-113 0 -158 68.5t-20 178.5zM358 268 q-23 -100 84 -100q82 0 176 102l66 289q-170 -86 -239.5 -150.5t-86.5 -140.5zM418 1233l262 295h225l131 -295h-188l-80 182l-162 -182h-188z" />
<glyph unicode="&#xe3;" d="M121 227q39 176 180 289t420 211l14 66q31 141 -82 141q-74 0 -110 -39t-56 -117h-229q47 166 165 255t279 89q164 0 233 -74.5t36 -224.5l-156 -706q-8 -31 -12 -117h-219q2 16 3 45t3 41q-80 -55 -146.5 -80.5t-144.5 -25.5q-113 0 -158 68.5t-20 178.5zM358 268 q-23 -100 84 -100q82 0 176 102l66 289q-170 -86 -239.5 -150.5t-86.5 -140.5zM397 1249q100 242 265 242q47 0 124 -39q6 -2 21.5 -10t24 -12.5t20.5 -9.5t24.5 -7t24.5 -2q45 0 70 21.5t37 68.5h114q-100 -242 -266 -241q-51 0 -123 40q-70 39 -115 39t-69.5 -21.5 t-36.5 -68.5h-115z" />
<glyph unicode="&#xe4;" d="M121 227q39 176 180 289t420 211l14 66q31 141 -82 141q-74 0 -110 -39t-56 -117h-229q47 166 165 255t279 89q164 0 233 -74.5t36 -224.5l-156 -706q-8 -31 -12 -117h-219q2 16 3 45t3 41q-80 -55 -146.5 -80.5t-144.5 -25.5q-113 0 -158 68.5t-20 178.5zM358 268 q-23 -100 84 -100q82 0 176 102l66 289q-170 -86 -239.5 -150.5t-86.5 -140.5zM461 1257l49 222h221l-49 -222h-221zM784 1257l50 222h221l-49 -222h-222z" />
<glyph unicode="&#xe5;" d="M121 227q39 176 180 289t420 211l14 66q31 141 -82 141q-74 0 -110 -39t-56 -117h-229q47 166 165 255t279 89q164 0 233 -74.5t36 -224.5l-156 -706q-8 -31 -12 -117h-219q2 16 3 45t3 41q-80 -55 -146.5 -80.5t-144.5 -25.5q-113 0 -158 68.5t-20 178.5zM358 268 q-23 -100 84 -100q82 0 176 102l66 289q-170 -86 -239.5 -150.5t-86.5 -140.5zM565.5 1442q18.5 86 94 147.5t161.5 61.5t133 -61.5t29 -147.5t-94 -147.5t-162 -61.5t-133 61.5t-28.5 147.5zM667.5 1442q-10.5 -45 14.5 -76t69 -31t81.5 31t48 76t-14 75.5t-68.5 30.5 t-82 -30.5t-48.5 -75.5z" />
<glyph unicode="&#xe6;" horiz-adv-x="1366" d="M121 227q39 176 179 289t419 211l14 66q31 141 -80 141q-74 0 -109.5 -39t-56.5 -117h-229q45 164 158.5 254t253.5 90q178 0 241 -102q102 102 267 102q176 0 233 -108.5t14 -300.5l-45 -205h-481l-35 -160q-41 -180 84 -180q127 0 168 180l4 25h230q-94 -393 -443 -393 q-195 0 -248 143q-119 -88 -194.5 -115.5t-140.5 -27.5q-129 0 -179.5 67.5t-23.5 179.5zM358 268q-23 -100 84 -100q84 0 174 102l66 289q-168 -86 -237.5 -150.5t-86.5 -140.5zM940 696h252l14 58q39 180 -88 180q-125 0 -164 -180z" />
<glyph unicode="&#xe7;" d="M113 -436l57 102q61 -35 125 -35q53 0 92 25t47 59q8 39 -19.5 57.5t-65.5 16.5t-70 -14l-37 37l161 170q-303 25 -219 407l72 324q90 410 446 409q350 0 269 -397h-230l9 29q39 180 -88 180t-166 -180l-90 -406q-41 -180 85.5 -180t167.5 180l15 70h229l-6 -29 q-84 -377 -393 -405l-94 -107q29 4 43 4q74 -4 121 -44t30 -111q-20 -94 -108 -151.5t-191 -57.5q-102 0 -192 47z" />
<glyph unicode="&#xe8;" d="M184 389l72 324q90 410 446.5 410t266.5 -410l-45 -205h-484l-34 -160q-41 -180 85.5 -180t167.5 180l5 25h229q-94 -393 -442 -393q-356 0 -267 409zM481 696h254l15 58q39 180 -88 180t-166 -180zM500 1528h276l96 -295h-170z" />
<glyph unicode="&#xe9;" d="M184 389l72 324q90 410 446.5 410t266.5 -410l-45 -205h-484l-34 -160q-41 -180 85.5 -180t167.5 180l5 25h229q-94 -393 -442 -393q-356 0 -267 409zM481 696h254l15 58q39 180 -88 180t-166 -180zM582 1233l227 295h276l-333 -295h-170z" />
<glyph unicode="&#xea;" d="M184 389l72 324q90 410 446.5 410t266.5 -410l-45 -205h-484l-34 -160q-41 -180 85.5 -180t167.5 180l5 25h229q-94 -393 -442 -393q-356 0 -267 409zM418 1233l262 295h225l131 -295h-188l-80 182l-162 -182h-188zM481 696h254l15 58q39 180 -88 180t-166 -180z" />
<glyph unicode="&#xeb;" d="M184 389l72 324q90 410 446.5 410t266.5 -410l-45 -205h-484l-34 -160q-41 -180 85.5 -180t167.5 180l5 25h229q-94 -393 -442 -393q-356 0 -267 409zM461 1257l49 222h221l-49 -222h-221zM481 696h254l15 58q39 180 -88 180t-166 -180zM784 1257l50 222h221l-49 -222 h-222z" />
<glyph unicode="&#xec;" horiz-adv-x="454" d="M113 0l243 1102h230l-244 -1102h-229zM272 1528h277l96 -295h-170z" />
<glyph unicode="&#xed;" horiz-adv-x="454" d="M113 0l243 1102h230l-244 -1102h-229zM354 1233l228 295h276l-334 -295h-170z" />
<glyph unicode="&#xee;" horiz-adv-x="454" d="M113 0l243 1102h230l-244 -1102h-229zM190 1233l263 295h225l131 -295h-188l-80 182l-162 -182h-189z" />
<glyph unicode="&#xef;" horiz-adv-x="454" d="M113 0l243 1102h230l-244 -1102h-229zM233 1257l50 222h221l-49 -222h-222zM557 1257l49 222h221l-49 -222h-221z" />
<glyph unicode="&#xf0;" d="M178 356l64 287q82 377 438 377q18 0 76 -4q8 68 -23 164l-233 -82l-23 147l207 72q-33 70 -72 113l187 49q43 -37 75 -95l242 86l31 -143l-213 -76q94 -272 20 -608l-63 -287q-84 -377 -440.5 -376.5t-272.5 376.5zM401 334q-37 -166 90 -166t164 166l74 332 q37 166 -90 165.5t-164 -165.5z" />
<glyph unicode="&#xf1;" d="M111 0l243 1102h217l-24 -111q8 4 20 15q63 45 95 64.5t82.5 35.5t109.5 16q92 0 129 -61.5t12 -169.5l-196 -891h-230l189 854q18 80 -64 80q-51 0 -162 -70l-192 -864h-229zM397 1249q100 242 265 242q47 0 124 -39q6 -2 21.5 -10t24 -12.5t20.5 -9.5t24.5 -7t24.5 -2 q45 0 70 21.5t37 68.5h114q-100 -242 -266 -241q-51 0 -123 40q-70 39 -115 39t-69.5 -21.5t-36.5 -68.5h-115z" />
<glyph unicode="&#xf2;" d="M184 389l72 324q90 410 446.5 409.5t266.5 -409.5l-72 -324q-90 -410 -446.5 -410t-266.5 410zM406 348q-41 -180 85.5 -180t167.5 180l91 406q39 180 -88 180t-166 -180zM500 1528h276l96 -295h-170z" />
<glyph unicode="&#xf3;" d="M184 389l72 324q90 410 446.5 409.5t266.5 -409.5l-72 -324q-90 -410 -446.5 -410t-266.5 410zM406 348q-41 -180 85.5 -180t167.5 180l91 406q39 180 -88 180t-166 -180zM582 1233l227 295h276l-333 -295h-170z" />
<glyph unicode="&#xf4;" d="M184 389l72 324q90 410 446.5 409.5t266.5 -409.5l-72 -324q-90 -410 -446.5 -410t-266.5 410zM406 348q-41 -180 85.5 -180t167.5 180l91 406q39 180 -88 180t-166 -180zM418 1233l262 295h225l131 -295h-188l-80 182l-162 -182h-188z" />
<glyph unicode="&#xf5;" d="M184 389l72 324q90 410 446.5 409.5t266.5 -409.5l-72 -324q-90 -410 -446.5 -410t-266.5 410zM397 1249q100 242 265 242q47 0 124 -39q6 -2 21.5 -10t24 -12.5t20.5 -9.5t24.5 -7t24.5 -2q45 0 70 21.5t37 68.5h114q-100 -242 -266 -241q-51 0 -123 40q-70 39 -115 39 t-69.5 -21.5t-36.5 -68.5h-115zM406 348q-41 -180 85.5 -180t167.5 180l91 406q39 180 -88 180t-166 -180z" />
<glyph unicode="&#xf6;" d="M184 389l72 324q90 410 446.5 409.5t266.5 -409.5l-72 -324q-90 -410 -446.5 -410t-266.5 410zM406 348q-41 -180 85.5 -180t167.5 180l91 406q39 180 -88 180t-166 -180zM461 1257l49 222h221l-49 -222h-221zM784 1257l50 222h221l-49 -222h-222z" />
<glyph unicode="&#xf7;" horiz-adv-x="1228" d="M188 418l45 200h1037l-45 -200h-1037zM472 94.5q15 67.5 73.5 115.5t126 48t105.5 -48t22.5 -115.5t-74.5 -116t-127 -48.5t-104.5 48.5t-21.5 116zM659.5 942q14.5 68 74 116t127 48t104 -48t22.5 -116t-73.5 -116t-127 -48t-104.5 48t-22.5 116z" />
<glyph unicode="&#xf8;" d="M31 -246l188 314q-82 104 -35 321l72 324q90 410 446 409q78 0 142 -22l133 223h139l-174 -293q74 -104 27 -317l-72 -324q-90 -410 -446 -409q-81 -1 -138 22l-147 -248h-135zM406 354h4l327 551q-23 29 -75 29q-127 0 -166 -180zM420 193q29 -25 72 -25q127 0 167 180 l82 375h-4z" />
<glyph unicode="&#xf9;" d="M158 211l196 891h230l-189 -854q-18 -80 64 -80q53 0 164 70l190 864h229l-243 -1102h-217l24 111q-6 -4 -20 -15q-63 -45 -94 -64.5t-82.5 -35.5t-110.5 -16q-90 0 -128 61t-13 170zM500 1528h276l96 -295h-170z" />
<glyph unicode="&#xfa;" d="M158 211l196 891h230l-189 -854q-18 -80 64 -80q53 0 164 70l190 864h229l-243 -1102h-217l24 111q-6 -4 -20 -15q-63 -45 -94 -64.5t-82.5 -35.5t-110.5 -16q-90 0 -128 61t-13 170zM582 1233l227 295h276l-333 -295h-170z" />
<glyph unicode="&#xfb;" d="M158 211l196 891h230l-189 -854q-18 -80 64 -80q53 0 164 70l190 864h229l-243 -1102h-217l24 111q-6 -4 -20 -15q-63 -45 -94 -64.5t-82.5 -35.5t-110.5 -16q-90 0 -128 61t-13 170zM418 1233l262 295h225l131 -295h-188l-80 182l-162 -182h-188z" />
<glyph unicode="&#xfc;" d="M158 211l196 891h230l-189 -854q-18 -80 64 -80q53 0 164 70l190 864h229l-243 -1102h-217l24 111q-6 -4 -20 -15q-63 -45 -94 -64.5t-82.5 -35.5t-110.5 -16q-90 0 -128 61t-13 170zM461 1257l49 222h221l-49 -222h-221zM784 1257l50 222h221l-49 -222h-222z" />
<glyph unicode="&#xfd;" horiz-adv-x="796" d="M2 -346l41 188h55q84 0 127 43t64 135q12 53 8 146l-33 936h234l-9 -705h5l294 705h232l-551 -1184q-68 -147 -154 -205.5t-217 -58.5h-96zM526 1233l228 295h276l-334 -295h-170z" />
<glyph unicode="&#xfe;" d="M33 -348l405 1827h230l-107 -482h4q66 68 122 96.5t138 28.5q111 0 155 -79.5t11 -227.5l-117 -528q-33 -147 -112.5 -227t-188.5 -80q-49 0 -85.5 16t-58 33.5t-69.5 64.5l-98 -442h-229zM389 225q68 -57 120 -57t90 39t58 139l93 410q23 100 2 139t-73 39t-144 -57z " />
<glyph unicode="&#xff;" horiz-adv-x="796" d="M2 -346l41 188h55q84 0 127 43t64 135q12 53 8 146l-33 936h234l-9 -705h5l294 705h232l-551 -1184q-68 -147 -154 -205.5t-217 -58.5h-96zM406 1257l49 222h221l-49 -222h-221zM729 1257l49 222h221l-49 -222h-221z" />
<glyph unicode="&#x152;" horiz-adv-x="1478" d="M223 451l127 577q49 219 184.5 335t346.5 116h819l-49 -222h-443l-84 -380h344l-49 -222h-344l-96 -434h471l-49 -221h-848q-211 0 -295 115.5t-35 335.5zM469 420q-43 -195 115 -195q141 0 176 154l162 727q33 154 -109 154q-158 0 -201 -195z" />
<glyph unicode="&#x153;" horiz-adv-x="1366" d="M184 389l72 324q43 190 147.5 299.5t274.5 109.5q104 0 160.5 -30.5t74.5 -94.5q100 125 271.5 125t227.5 -109.5t13 -299.5l-45 -205h-469l-34 -160q-23 -94 -6.5 -137t77.5 -43q127 0 168 180l4 25h230q-43 -184 -147.5 -288.5t-270.5 -104.5q-176 0 -219 126 q-98 -127 -287 -126q-172 0 -228.5 109.5t-13.5 299.5zM406 348q-41 -180 86 -180q114 0 155 180l90 406q39 180 -75 180q-127 0 -166 -180zM952 696h240l14 58q39 180 -88 180q-61 0 -96 -42t-55 -138z" />
<glyph unicode="&#x178;" d="M328 0l137 614l-117 865h258l53 -564h5l294 564h259l-498 -865l-137 -614h-254zM532 1581l50 221h221l-49 -221h-222zM856 1581l49 221h221l-49 -221h-221z" />
<glyph unicode="&#x2c6;" horiz-adv-x="454" d="M190 1233l263 295h225l131 -295h-188l-80 182l-162 -182h-189z" />
<glyph unicode="&#x2dc;" horiz-adv-x="454" d="M170 1249q100 242 264 242q47 0 125 -39q6 -2 21.5 -10t23.5 -12.5t20.5 -9.5t25 -7t24.5 -2q45 0 69.5 21.5t36.5 68.5h115q-100 -242 -266 -241q-51 0 -123 40q-70 39 -115 39t-69.5 -21.5t-36.5 -68.5h-115z" />
<glyph unicode="&#x2000;" horiz-adv-x="987" />
<glyph unicode="&#x2001;" horiz-adv-x="1974" />
<glyph unicode="&#x2002;" horiz-adv-x="987" />
<glyph unicode="&#x2003;" horiz-adv-x="1974" />
<glyph unicode="&#x2004;" horiz-adv-x="658" />
<glyph unicode="&#x2005;" horiz-adv-x="493" />
<glyph unicode="&#x2006;" horiz-adv-x="329" />
<glyph unicode="&#x2007;" horiz-adv-x="329" />
<glyph unicode="&#x2008;" horiz-adv-x="246" />
<glyph unicode="&#x2009;" horiz-adv-x="394" />
<glyph unicode="&#x200a;" horiz-adv-x="109" />
<glyph unicode="&#x2010;" horiz-adv-x="681" d="M190 457l43 188h502l-43 -188h-502z" />
<glyph unicode="&#x2011;" horiz-adv-x="681" d="M190 457l43 188h502l-43 -188h-502z" />
<glyph unicode="&#x2012;" horiz-adv-x="681" d="M190 457l43 188h502l-43 -188h-502z" />
<glyph unicode="&#x2013;" horiz-adv-x="1024" d="M106 477l33 148h1024l-33 -148h-1024z" />
<glyph unicode="&#x2014;" horiz-adv-x="2048" d="M106 477l33 148h2048l-33 -148h-2048z" />
<glyph unicode="&#x2018;" horiz-adv-x="454" d="M330 1004l53 241l197 254h108l-156 -254h93l-54 -241h-241z" />
<glyph unicode="&#x2019;" horiz-adv-x="454" d="M315 983l158 254h-92l53 242h242l-53 -242l-199 -254h-109z" />
<glyph unicode="&#x201a;" horiz-adv-x="454" d="M43 -254l156 254h-93l54 242h241l-53 -242l-196 -254h-109z" />
<glyph unicode="&#x201c;" d="M367 1004l53 241l196 254h109l-156 -254h93l-54 -241h-241zM745 1004l54 241l196 254h109l-156 -254h92l-53 -241h-242z" />
<glyph unicode="&#x201d;" d="M354 983l158 254h-92l53 242h242l-53 -242l-199 -254h-109zM733 983l158 254h-92l53 242h242l-54 -242l-198 -254h-109z" />
<glyph unicode="&#x201e;" d="M82 -254l156 254h-93l54 242h241l-53 -242l-197 -254h-108zM461 -254l155 254h-92l54 242h241l-53 -242l-197 -254h-108z" />
<glyph unicode="&#x2022;" horiz-adv-x="1024" d="M305 739.5q35 153.5 166 261t284.5 107.5t238.5 -107.5t50.5 -261t-167 -262t-286 -108.5t-237.5 108.5t-49 262z" />
<glyph unicode="&#x2026;" horiz-adv-x="2048" d="M225 0l54 242h233l-53 -242h-234zM907 0l54 242h233l-53 -242h-234zM1589 0l53 242h234l-53 -242h-234z" />
<glyph unicode="&#x202f;" horiz-adv-x="394" />
<glyph unicode="&#x2039;" horiz-adv-x="681" d="M252 553l305 313h203l-309 -315l161 -315h-196z" />
<glyph unicode="&#x203a;" horiz-adv-x="681" d="M172 236l305 315l-170 315h203l166 -313l-307 -317h-197z" />
<glyph unicode="&#x205f;" horiz-adv-x="493" />
<glyph unicode="&#x20ac;" horiz-adv-x="1024" d="M190 473l86 172h76l37 164h-123l84 172h76l31 139q39 174 185 276.5t314 102.5q190 0 295 -117l-116 -233q-33 63 -90.5 96t-126.5 33q-74 0 -132.5 -41t-74.5 -123l-31 -133h371l-84 -172h-324l-37 -164h283l-86 -172h-236l-20 -98q-20 -88 19.5 -132t117.5 -44 q143 0 260 90l-51 -238q-137 -72 -287 -71q-168 0 -262 103t-55 275l24 115h-123z" />
<glyph unicode="&#x2122;" horiz-adv-x="2027" d="M362 1325l35 154h688l-34 -154h-246l-152 -690h-196l151 690h-246zM1008 635l186 844h279l88 -555l333 555h277l-186 -844h-189l137 618h-4l-362 -618h-142l-88 618h-4l-137 -618h-188z" />
<glyph unicode="&#xe000;" horiz-adv-x="1105" d="M0 0v1106h1106v-1106h-1106z" />
<glyph unicode="&#xfb01;" d="M127 0l203 913h-135l41 189h135l30 137q57 260 314 260h114l-41 -188h-65q-41 0 -62.5 -16.5t-29.5 -57.5l-31 -135h131l-41 -189h-131l-203 -913h-229zM567 0l244 1102h229l-243 -1102h-230zM848 1270l47 209h229l-47 -209h-229z" />
<glyph unicode="&#xfb02;" d="M127 0l203 913h-135l41 189h135l30 137q57 260 314 260h114l-41 -188h-65q-41 0 -62.5 -16.5t-29.5 -57.5l-31 -135h131l-41 -189h-131l-203 -913h-229zM567 0l328 1479h229l-327 -1479h-230z" />
</font>
</defs>
</svg>
