<?xml version="1.0" standalone="no"?>
<!DOCTYPE svg PUBLIC "-//W3C//DTD SVG 1.1//EN" "http://www.w3.org/Graphics/SVG/1.1/DTD/svg11.dtd" >
<svg xmlns="http://www.w3.org/2000/svg">
<metadata></metadata>
<defs>
<font id="tradegothicboldtwooblique" horiz-adv-x="1251" >
<font-face units-per-em="2048" ascent="1638" descent="-410" />
<missing-glyph horiz-adv-x="624" />
<glyph horiz-adv-x="2048" />
<glyph horiz-adv-x="2048" />
<glyph unicode="&#xd;" horiz-adv-x="681" />
<glyph unicode=" "  horiz-adv-x="624" />
<glyph unicode="&#x09;" horiz-adv-x="624" />
<glyph unicode="&#xa0;" horiz-adv-x="624" />
<glyph unicode="!" horiz-adv-x="681" d="M199 0l63 291h283l-64 -291h-282zM352 500l164 979h303l-270 -979h-197z" />
<glyph unicode="&#x22;" horiz-adv-x="681" d="M254 922l123 557h229l-123 -557h-229zM608 922l123 557h230l-123 -557h-230z" />
<glyph unicode="#" d="M221 432l41 184h191l88 246h-164l41 185h188l154 432h192l-151 -432h196l154 432h192l-151 -432h164l-41 -185h-189l-88 -246h164l-41 -184h-190l-154 -432h-192l151 432h-196l-154 -432h-193l152 432h-164zM647 616h197l88 246h-197z" />
<glyph unicode="$" d="M139 244l211 151q37 -84 91.5 -127t142.5 -63l98 444q-180 43 -281.5 146.5t-64.5 265.5q43 197 193.5 305.5t336.5 112.5l33 147h152l-33 -147q117 -2 206 -51.5t169 -151.5l-195 -158q-57 70 -105.5 108t-119.5 48l-90 -410q213 -68 301 -175t47 -292 q-43 -193 -190.5 -290t-350.5 -107l-55 -246h-152l56 246q-287 31 -400 244zM569 1079q-16 -68 24 -104.5t146 -69.5l82 369q-213 -14 -252 -195zM735 205q94 0 169 43t95 143q18 84 -28 134t-148 79z" />
<glyph unicode="%" horiz-adv-x="1820" d="M316.5 1110q33.5 152 164.5 260.5t285 108.5t237.5 -108.5t50 -260.5t-165.5 -260.5t-285.5 -108.5t-236.5 108.5t-49.5 260.5zM399 -20l1186 1519h174l-1186 -1519h-174zM516 1110q-14 -68 25 -118t106.5 -50t129 50t75.5 118t-23.5 118t-106.5 50t-130.5 -50 t-75.5 -118zM1094.5 368.5q33.5 151.5 166 260t286 108.5t236.5 -108.5t49 -260t-165 -260t-284.5 -108.5t-237.5 108.5t-50.5 260zM1296.5 368.5q-14.5 -67.5 23.5 -117.5t106.5 -50t130 50t76 117.5t-24.5 118t-106.5 50.5t-129 -50.5t-76 -118z" />
<glyph unicode="&#x26;" horiz-adv-x="1366" d="M172 410q29 127 112 218t220 171q-43 96 -54.5 167.5t9.5 188.5q35 156 160.5 250t289.5 94q147 0 229.5 -95t51.5 -235q-12 -55 -43 -107t-60.5 -88t-87 -83t-88 -67.5t-98.5 -67.5q92 -178 195 -293q110 120 200 278l213 -61q-139 -231 -262 -363q88 -98 189 -100 l-54 -237q-109 0 -171 27.5t-162 127.5q-184 -156 -410 -155q-217 0 -321.5 108.5t-57.5 321.5zM442 422q-18 -82 33 -143.5t139 -61.5q113 0 213 82q-139 133 -223 317q-53 -37 -76.5 -56t-49.5 -56t-36 -82zM700 1174q-27 -121 25 -240q203 129 229 246q14 66 -9 108.5 t-85 42.5q-47 0 -95.5 -42.5t-64.5 -114.5z" />
<glyph unicode="'" horiz-adv-x="454" d="M317 922l123 557h230l-123 -557h-230z" />
<glyph unicode="(" horiz-adv-x="681" d="M215 427q6 110 35 237q53 244 159.5 426t303.5 409h248q-381 -383 -481.5 -835.5t110.5 -835.5h-248q-47 113 -73.5 200t-43 188t-10.5 211z" />
<glyph unicode=")" horiz-adv-x="681" d="M14 -172q383 383 483.5 835.5t-112.5 835.5h248q47 -113 74.5 -200t44 -188t10.5 -210.5t-35 -236.5q-55 -244 -160.5 -426.5t-304.5 -409.5h-248z" />
<glyph unicode="*" horiz-adv-x="1024" d="M385 1128l94 183l242 -140l10 11l2 297h203l-119 -299l8 -11l295 152l21 -184l-310 -47l170 -218l-176 -118l-77 272l-15 -2l-190 -268l-129 108l264 215l-2 13z" />
<glyph unicode="+" horiz-adv-x="1228" d="M176 422l49 221h422l92 422h222l-93 -422h422l-49 -221h-422l-94 -422h-221l94 422h-422z" />
<glyph unicode="," horiz-adv-x="624" d="M121 -307l172 307h-123l63 291h283l-63 -291l-199 -307h-133z" />
<glyph unicode="-" horiz-adv-x="681" d="M184 422l49 221h502l-49 -221h-502z" />
<glyph unicode="." horiz-adv-x="624" d="M170 0l63 291h283l-63 -291h-283z" />
<glyph unicode="/" horiz-adv-x="569" d="M-61 -20l796 1519h223l-796 -1519h-223z" />
<glyph unicode="0" d="M213 441q0 134 37 298t96.5 298t145.5 239.5t204.5 164t261 58.5t235.5 -58.5t132 -164t39 -239.5t-37 -298t-96.5 -298t-145.5 -239.5t-204.5 -163.5t-261 -58t-235.5 58t-132 163.5t-39 239.5zM516 739.5q-119 -538.5 153.5 -538.5t391.5 538.5t-153.5 538.5 t-391.5 -538.5z" />
<glyph unicode="1" d="M299 0l45 205h229l228 1020h-262l36 172q229 10 345 102h206l-286 -1294h227l-45 -205h-723z" />
<glyph unicode="2" d="M115 0l53 244q27 63 126 147t222 168t245 170t213 177t107 167q23 96 -24 150.5t-150 54.5q-104 0 -186 -63.5t-131 -170.5l-225 52q61 172 230 287.5t366 115.5q205 0 318.5 -113.5t68.5 -312.5q-18 -88 -63.5 -166t-102 -137t-144.5 -129t-166.5 -123t-198.5 -136 t-212 -153h700l-51 -229h-995z" />
<glyph unicode="3" d="M123 266l239 121q70 -186 271 -186q104 0 193 60.5t112 162.5q14 70 -5.5 119t-56 73.5t-102 39t-111.5 16.5t-116 2l49 221q90 0 156.5 8t130 28.5t102.5 63.5t53 107q18 80 -31 128t-143 48q-84 0 -158.5 -39t-156.5 -109l-139 160q244 209 495 209q213 0 329 -100.5 t75 -280.5q-25 -109 -100.5 -190.5t-194.5 -128.5q123 -41 172 -138.5t18 -236.5q-33 -147 -134 -250.5t-226 -148.5t-262 -45q-164 0 -290 74.5t-169 211.5z" />
<glyph unicode="4" d="M125 340l57 260l826 879h288l-206 -934h208l-45 -205h-209l-75 -340h-254l76 340h-666zM375 545h461l145 659h-4z" />
<glyph unicode="5" d="M168 256l246 115q16 -76 80.5 -121t144.5 -47q135 -4 222 79t120 226q27 117 -25.5 193.5t-167.5 76.5q-152 0 -249 -127l-205 41l229 787h799l-51 -230h-598l-95 -336q100 86 295 86q129 0 216.5 -72.5t116 -184t1.5 -234.5q-55 -246 -227 -387t-434 -141 q-170 0 -276.5 73.5t-141.5 202.5z" />
<glyph unicode="6" d="M246 651q86 391 305 619.5t516 228.5q188 1 342 -110l-164 -213q-94 102 -227 102q-150 0 -287 -131t-180 -320q162 119 356 119q197 0 296.5 -134t53.5 -345q-53 -227 -228 -357t-402 -130q-242 0 -348.5 172t-32.5 499zM489 557q-39 -176 25 -266t182 -90 q106 0 187 70.5t104 185.5q31 125 -20.5 196.5t-173.5 71.5q-178 0 -304 -168z" />
<glyph unicode="7" d="M231 0l875 1249h-711l51 230h1014l-35 -154l-901 -1325h-293z" />
<glyph unicode="8" d="M160 381q61 276 387 405q-104 63 -148.5 142.5t-17.5 201.5q39 168 194.5 268.5t382 100.5t338 -100.5t72.5 -268.5q-27 -123 -104.5 -201.5t-212.5 -142.5q268 -129 206 -405q-39 -178 -219 -289.5t-417.5 -111.5t-368.5 111.5t-92 289.5zM430 399q-23 -98 37.5 -156.5 t198 -58.5t222.5 58.5t107 156.5q14 61 -34 127t-109 104t-98 38q-63 0 -182 -84t-142 -185zM647 1126q-20 -92 45.5 -158.5t132.5 -66.5q61 0 160.5 75t116.5 150q16 78 -28 123t-165 45q-225 0 -262 -168z" />
<glyph unicode="9" d="M145 90l164 213q94 -102 228 -102q150 0 287 131t182 319q-164 -119 -359 -119q-197 0 -296 134.5t-52 345.5q51 227 226 357t403 130q242 0 348 -172t35 -500q-88 -391 -307.5 -619t-516.5 -228q-188 -1 -342 110zM567 1022q-31 -125 20.5 -196.5t174.5 -71.5 q178 0 303 168q39 176 -24.5 266t-182.5 90q-106 0 -187 -70.5t-104 -185.5z" />
<glyph unicode=":" horiz-adv-x="624" d="M170 0l63 291h283l-63 -291h-283zM307 614l64 291h282l-63 -291h-283z" />
<glyph unicode=";" horiz-adv-x="624" d="M121 -307l172 307h-123l63 291h283l-63 -291l-199 -307h-133zM307 614l64 291h282l-63 -291h-283z" />
<glyph unicode="&#x3c;" horiz-adv-x="1228" d="M178 438l43 189l1165 454l-51 -227l-831 -322l690 -321l-51 -227z" />
<glyph unicode="=" horiz-adv-x="1228" d="M125 197l49 221h1065l-49 -221h-1065zM225 647l49 221h1065l-49 -221h-1065z" />
<glyph unicode="&#x3e;" horiz-adv-x="1228" d="M78 -16l51 227l834 321l-693 322l52 227l964 -454l-43 -189z" />
<glyph unicode="?" horiz-adv-x="909" d="M268 0l64 291h282l-63 -291h-283zM283 1180q72 152 199.5 235.5t291.5 83.5q158 0 245 -87t54 -241q-14 -63 -52 -123.5t-72 -97.5t-93 -92q-53 -51 -71.5 -68.5t-56.5 -60.5t-55.5 -79t-27.5 -77l-16 -75h-226l25 112q18 78 68.5 149.5t132.5 160.5q4 6 14 16 q53 57 80 88t56.5 77t37.5 83q10 45 -21.5 77.5t-82.5 32.5q-68 0 -126.5 -54t-82.5 -126z" />
<glyph unicode="@" horiz-adv-x="1638" d="M249 434q-32 139 7 303q47 211 188.5 387t337 275.5t402.5 99.5q133 0 247.5 -44t193.5 -123t111.5 -196.5t2.5 -254.5q-27 -127 -91.5 -232.5t-139 -169t-156.5 -107.5t-144.5 -61.5t-103.5 -17.5q-45 0 -70.5 27.5t-15.5 76.5l-4 2q-49 -45 -109.5 -75.5t-111.5 -30.5 q-129 0 -203 107.5t-41 250.5q41 193 189.5 338.5t328.5 145.5q156 0 211 -127l45 102h180l-211 -500q-27 -61 -28 -73q-10 -45 18 -45q78 0 160 89t114 242q53 240 -64.5 372t-350.5 132q-248 0 -435.5 -166t-244.5 -424q-59 -266 67.5 -425.5t382.5 -159.5q227 0 426 143 h185q-139 -152 -310.5 -233.5t-353.5 -81.5q-158 0 -287 56t-209.5 157.5t-112.5 240.5zM778 682q-16 -76 14.5 -124t100.5 -48q94 0 172 74.5t100 171.5q16 74 -17.5 121t-103.5 47q-92 0 -167.5 -71t-98.5 -171z" />
<glyph unicode="A" d="M27 0l753 1481h353l92 -1481h-281l-10 319h-467l-160 -319h-280zM580 553h344l-25 643h-4z" />
<glyph unicode="B" horiz-adv-x="1366" d="M160 0l327 1479h549q231 0 342 -86q87 -67 87 -199q0 -37 -7 -78q-55 -248 -301 -336q135 -59 172 -142q18 -42 18.5 -104t-18.5 -145q-39 -180 -195.5 -284.5t-428.5 -104.5h-545zM494 229h282q236 0 283 215q8 36 8 65q0 150 -197 150h-282zM639 889h283q98 0 162 50 q62 50 80 130q5 24 6 45q0 50 -29 85q-41 50 -140 50h-282z" />
<glyph unicode="C" d="M225 740q80 362 280 560.5t482 198.5q211 0 316.5 -96t113.5 -293l-268 -61q-12 98 -66.5 155.5t-154.5 57.5q-145 0 -254 -133.5t-166 -389.5q-34 -145 -34 -250q0 -272 231 -272q98 0 172.5 46t162.5 173l248 -69q-109 -190 -271.5 -288.5t-365.5 -98.5 q-283 0 -395 198q-65 116 -64 287q0 124 33 275z" />
<glyph unicode="D" horiz-adv-x="1366" d="M160 0l327 1479h490q307 1 445 -181q86 -114 85 -305q0 -114 -30 -254q-84 -377 -302.5 -558t-525.5 -181h-489zM496 238h188q117 0 207 39.5t148.5 113.5t94 158t60.5 190q18 84 24 154q2 21 1 42q-1 49 -9 95q-12 66 -46 111t-99.5 72.5t-159.5 27.5h-188z" />
<glyph unicode="E" d="M172 0l328 1479h979l-54 -238h-696l-78 -352h506l-51 -238h-506l-92 -413h719l-53 -238h-1002z" />
<glyph unicode="F" horiz-adv-x="1138" d="M160 0l327 1479h943l-54 -238h-659l-78 -352h494l-52 -238h-493l-146 -651h-282z" />
<glyph unicode="G" horiz-adv-x="1366" d="M192 426q-2 26 -2 54q0 112 31 237q25 119 68 226.5t110.5 210.5t152.5 178t202.5 121t255.5 46q213 0 324.5 -102.5t127.5 -274.5l-276 -69q-27 113 -84.5 161t-165.5 48q-154 0 -264.5 -142.5t-167.5 -394.5q-25 -116 -25 -207q0 -96 27 -165q53 -136 199 -136 q137 0 239.5 82t134.5 211h-280l53 238h553l-166 -748h-205l33 152q-106 -96 -203.5 -134t-218.5 -38q-147 0 -248.5 56t-148.5 155.5t-56 234.5z" />
<glyph unicode="H" horiz-adv-x="1478" d="M172 0l328 1479h282l-131 -590h570l131 590h282l-327 -1479h-283l141 635h-569l-141 -635h-283z" />
<glyph unicode="I" horiz-adv-x="681" d="M199 0l327 1479h283l-328 -1479h-282z" />
<glyph unicode="J" horiz-adv-x="909" d="M29 178l227 146q23 -59 52.5 -83t76.5 -24q119 0 158 176l239 1086h283l-240 -1080q-45 -207 -170 -313t-321 -106h-2q-217 0 -303 198z" />
<glyph unicode="K" horiz-adv-x="1366" d="M160 0l327 1479h283l-145 -658l639 658h325l-542 -555l282 -924h-313l-211 702l-264 -258l-99 -444h-282z" />
<glyph unicode="L" horiz-adv-x="1138" d="M160 0l327 1479h283l-274 -1241h643l-54 -238h-925z" />
<glyph unicode="M" horiz-adv-x="1705" d="M166 0l328 1479h397l55 -1033h4l516 1033h402l-328 -1479h-246l258 1163h-4l-590 -1163h-215l-69 1163h-4l-258 -1163h-246z" />
<glyph unicode="N" horiz-adv-x="1478" d="M166 0l328 1479h294l359 -1008h4l223 1008h266l-327 -1479h-273l-370 1053h-4l-234 -1053h-266z" />
<glyph unicode="O" horiz-adv-x="1366" d="M225 740q80 364 284 561.5t505 197.5q300 1 416 -197q68 -117 69 -292q0 -120 -33 -270q-80 -364 -283.5 -562t-504.5 -198t-417 198q-69 117 -69 292q0 121 33 270zM508 739q-32 -137 -33 -239q0 -283 254 -283q174 0 286 130t169 392q31 136 31 236q0 91 -26 155 q-54 132 -227.5 132t-285 -130.5t-168.5 -392.5z" />
<glyph unicode="P" d="M139 0l328 1479h541q248 -1 362 -109q79 -75 78 -205q0 -59 -16 -127q-50 -224 -210.5 -332t-408.5 -108h-258l-133 -598h-283zM606 827h225q152 0 223.5 53.5t95.5 157.5q8 34 8 63q0 59 -34 95q-50 53 -200 53h-226z" />
<glyph unicode="Q" horiz-adv-x="1366" d="M225 740q80 364 284 561.5t505 197.5t416 -197q69 -117 69 -292q0 -122 -33 -271q-76 -344 -268 -544q68 -66 172 -68l-53 -238q-94 0 -145.5 15.5t-81 44t-82.5 104.5q-143 -73 -325 -73h-5q-301 0 -417 198q-69 116 -69 292q0 121 33 270zM508 739q-32 -137 -32 -239 q0 -283 253 -283q106 0 189 49q-50 109 -148 129l55 252q102 -10 162 -56t100 -132q57 104 97 280q31 136 31 236q0 93 -26 155q-54 132 -227.5 132t-285 -130.5t-168.5 -392.5z" />
<glyph unicode="R" horiz-adv-x="1366" d="M160 0l327 1479h590q123 0 208 -34t126 -93.5t53 -139.5q4 -28 5 -57q0 -55 -15 -115q-31 -139 -123 -241.5t-233 -139.5l180 -659h-313l-146 602h-244l-133 -602h-282zM627 831h209q160 0 235.5 50.5t99.5 158.5q7 33 7 61q0 148 -201 148h-258z" />
<glyph unicode="S" d="M147 330l256 102q29 -113 90.5 -172t180.5 -59q113 0 191.5 47t101.5 149q3 16 3 31q0 40 -23 74q-32 46 -91 79t-134 65t-147.5 70t-128.5 85t-82 119q-14 41 -15 88q0 37 9 77q41 190 204 302t364 112q180 0 299.5 -87t148.5 -247l-274 -80q-14 90 -70.5 141.5 t-152.5 51.5t-162 -41t-84 -123q-3 -14 -3 -27q0 -35 24 -65q32 -41 92.5 -70.5t135 -59.5t147.5 -69t129 -88t82 -126q14 -41 14 -88q0 -41 -11 -87q-49 -225 -210 -339.5t-408 -114.5q-184 0 -316.5 95t-159.5 255z" />
<glyph unicode="T" horiz-adv-x="1138" d="M317 1243l52 238h1056l-51 -238h-387l-276 -1243h-283l277 1243h-388z" />
<glyph unicode="U" horiz-adv-x="1478" d="M276 328q-3 26 -4 54q0 77 23 171l205 926h282l-207 -938q-17 -75 -17 -132q0 -76 30 -118q52 -74 199 -74t233 74t125 250l207 938h282l-204 -926q-35 -156 -106 -270.5t-166 -179t-199.5 -94t-223.5 -29.5q-94 0 -171 18t-142.5 59t-99.5 108t-46 163z" />
<glyph unicode="V" horiz-adv-x="1138" d="M348 1479h279l20 -1090h4l516 1090h279l-719 -1479h-315z" />
<glyph unicode="W" horiz-adv-x="1705" d="M350 0l19 1479h264l-35 -998h4l432 998h291l-27 -998h5l423 998h265l-635 -1479h-287l18 1053h-4l-446 -1053h-287z" />
<glyph unicode="X" horiz-adv-x="1138" d="M16 0l568 758l-215 721h307l121 -457l321 457h307l-534 -721l231 -758h-307l-135 502l-356 -502h-308z" />
<glyph unicode="Y" horiz-adv-x="1138" d="M348 1479h295l125 -586l383 586h295l-604 -889l-131 -590h-283l131 590z" />
<glyph unicode="Z" horiz-adv-x="1138" d="M33 0l53 240l911 1001h-643l54 238h999l-49 -226l-940 -1015h721l-54 -238h-1052z" />
<glyph unicode="[" horiz-adv-x="681" d="M74 -152l360 1631h477l-26 -123h-256l-307 -1385h260l-27 -123h-481z" />
<glyph unicode="\" horiz-adv-x="569" d="M274 1499h224l125 -1519h-224z" />
<glyph unicode="]" horiz-adv-x="681" d="M61 -152l27 123h260l307 1385h-256l27 123h477l-360 -1631h-482z" />
<glyph unicode="^" horiz-adv-x="1228" d="M301 711l539 768h204l199 -768h-225l-127 538l-367 -538h-223z" />
<glyph unicode="_" horiz-adv-x="1024" d="M-57 -256l22 102h1024l-22 -102h-1024z" />
<glyph unicode="`" horiz-adv-x="569" d="M274 1499h316l127 -299h-209z" />
<glyph unicode="a" horiz-adv-x="1024" d="M94 262q41 180 212 280.5t493 137.5l18 90q4 17 4 31q1 37 -25 62q-36 34 -106 34q-137 0 -262 -131l-137 125q69 83 197 141q117 53 226 53h19q217 -4 291 -99q44 -56 44 -162q0 -73 -21 -169l-111 -501q-16 -70 -16 -120q0 -18 2 -34h-248l4 92q-188 -112 -353 -112h-3 q-136 0 -194 82q-41 58 -41 134q0 32 7 66zM356 293q-5 -20 -5 -38q-1 -33 17 -54q26 -33 83 -33q100 0 258 113l51 229q-51 -10 -77 -15.5t-74 -16.5t-73.5 -20t-61.5 -26.5t-56.5 -36t-38 -45t-23.5 -57.5z" />
<glyph unicode="b" horiz-adv-x="1138" d="M131 0l328 1479h254l-113 -512h4q47 49 132 83.5t153 34.5q98 0 171 -45t107.5 -118.5t44.5 -167.5q3 -28 4 -57q0 -67 -18 -136q-57 -258 -203.5 -419.5t-351.5 -161.5q-84 0 -144.5 32.5t-115.5 102.5l-53 -115h-199zM446 279q6 -6 30 -31t36 -34t42 -19.5t69 -10.5 q115 0 195 90q81 90 119 258q18 80 18 142q0 68 -22 116q-42 90 -157 91q-98 0 -215 -90z" />
<glyph unicode="c" horiz-adv-x="1024" d="M167 532q56 254 213 403.5t374 149.5q150 0 245 -75.5t111 -208.5l-229 -82q-18 80 -54 121t-120 41q-106 0 -176 -85q-70 -86 -110 -264q-22 -96 -21 -165q0 -59 15 -98q34 -85 146 -85q76 0 138.5 45t123.5 125l170 -108q-109 -141 -225 -205q-110 -61 -247 -61h-13 q-215 0 -306 150q-56 93 -56 224q0 81 21 178z" />
<glyph unicode="d" horiz-adv-x="1138" d="M171 262q-5 39 -5 83q0 98 24 216q29 135 104 252t190.5 194.5t248.5 77.5q66 0 135.5 -34.5t96.5 -83.5h4l112 512h254l-327 -1479h-215l12 115q-168 -135 -318 -135q-137 0 -219 76.5t-97 205.5zM437 532q-18 -80 -18 -141q0 -69 22 -117q42 -90 157 -90q39 0 74 10.5 t51 19.5t50 34t42 31l115 512q-78 90 -178 90q-113 0 -195 -90.5t-120 -258.5z" />
<glyph unicode="e" horiz-adv-x="1024" d="M168 532q55 254 212 403.5t374 149.5q100 0 175 -39.5t113 -107.5q36 -68 48 -157q4 -30 5 -60q0 -61 -16 -125l-24 -104h-643q-13 -65 -13 -116q0 -73 26 -117q44 -75 140 -75q82 0 138.5 31t127.5 96l158 -114q-188 -217 -493 -217q-207 0 -296 150q-54 91 -54 220 q0 83 22 182zM451 664h409q7 37 7 68q1 63 -27 104q-40 61 -133 61t-161 -61t-95 -172z" />
<glyph unicode="f" horiz-adv-x="681" d="M172 0l190 860h-147l45 205h146l28 131q39 168 124 235.5t245 67.5h168l-45 -205h-70q-78 0 -117 -26.5t-51 -87.5l-26 -115h215l-46 -205h-215l-190 -860h-254z" />
<glyph unicode="g" horiz-adv-x="1024" d="M-6 -135q20 94 90 145t147 51v5q-6 4 -37.5 22t-48 32.5t-29.5 45.5q-8 17 -8 37q0 17 5 35q14 68 84.5 124t124.5 70q-61 61 -88 127q-16 40 -16 88q0 32 7 68q35 152 171 261t333 109q68 0 134.5 -25.5t105.5 -68.5q92 94 253 94h19l-39 -172q-125 0 -170 -24 q26 -49 26 -112q0 -36 -9 -77q-35 -156 -160 -250t-318 -94q-102 0 -153 -12t-62 -53q-6 -31 20.5 -48.5t75 -21.5t110 -9t127 -8t124.5 -20.5t102 -45t61 -82.5q9 -28 9 -62q0 -32 -8 -68q-29 -127 -177.5 -221t-385.5 -94q-221 0 -334 65q-91 53 -91 144q0 21 5 45z M236 -102q-3 -12 -3 -23q0 -46 46 -68q57 -28 213 -28q109 0 173 40t72 79q4 16 -2 31.5t-26.5 33t-53 29.5t-87 20t-126.5 8q-92 0 -144 -39.5t-62 -82.5zM460 721q-4 -21 -4 -41q0 -48 29 -84q41 -51 121 -51q72 0 134.5 51t79.5 125q4 22 4 41q0 48 -28 84 q-40 51 -112 51q-80 0 -143.5 -51t-80.5 -125z" />
<glyph unicode="h" horiz-adv-x="1138" d="M131 0l328 1479h254l-117 -529q190 135 338 135q156 0 214 -94q35 -57 36 -142q0 -54 -15 -120l-161 -729h-254l153 692q12 53 12 89q1 35 -11 57q-22 42 -91 43q-139 0 -262 -113l-170 -768h-254z" />
<glyph unicode="i" horiz-adv-x="569" d="M158 0l235 1065h254l-235 -1065h-254zM438 1262l51 237h254l-51 -237h-254z" />
<glyph unicode="j" horiz-adv-x="569" d="M-76 -373l45 207q78 -6 82 -6q49 0 79 28.5t46 102.5l244 1106h254l-254 -1147q-35 -162 -122 -234.5t-245 -72.5q-72 0 -129 16zM465 1262l51 237h254l-51 -237h-254z" />
<glyph unicode="k" horiz-adv-x="1024" d="M131 0l328 1479h254l-183 -826h9l403 412h291l-402 -397l189 -668h-270l-129 477l-164 -149l-72 -328h-254z" />
<glyph unicode="l" horiz-adv-x="569" d="M158 0l327 1479h254l-327 -1479h-254z" />
<glyph unicode="m" horiz-adv-x="1705" d="M131 0l236 1065h231l-25 -115q94 72 170 103.5t181 31.5q84 0 146.5 -40.5t80.5 -114.5q90 76 184.5 115.5t216.5 39.5q45 0 84 -14t74 -50q35 -37 42 -99q2 -19 2 -40q0 -50 -11 -116l-170 -766h-254l164 743q7 27 7 50q0 31 -14 51q-22 35 -90 37q-90 0 -237 -115 l-170 -766h-254l164 743q7 27 7 50q0 31 -14 51q-22 35 -89 37q-90 0 -238 -115l-170 -766h-254z" />
<glyph unicode="n" horiz-adv-x="1138" d="M131 0l236 1065h233l-25 -115q68 41 116 65.5t115.5 47t127.5 22.5q156 0 214 -94q35 -57 36 -142q0 -54 -15 -120l-161 -729h-254l153 692q12 53 12 89q1 35 -11 57q-22 42 -91 43q-139 0 -262 -113l-170 -768h-254z" />
<glyph unicode="o" horiz-adv-x="1024" d="M167 532q56 254 213 403.5t373 149.5q216 1 306 -149q55 -92 55 -223q0 -83 -22 -181q-56 -254 -212.5 -403t-371.5 -149t-306 150q-56 93 -56 224q0 81 21 178zM414 269q32 -85 138.5 -85t176.5 85t110 263q22 98 22 168q0 58 -15 96q-33 85 -139.5 85t-176.5 -85 q-69 -86 -109 -264q-22 -98 -22 -168q0 -57 15 -95z" />
<glyph unicode="p" horiz-adv-x="1138" d="M45 -389l322 1454h243l-20 -98q146 118 296 118h3q137 0 218 -76.5t97 -205.5q4 -41 4 -87q0 -96 -22 -212q-31 -135 -104.5 -252t-190.5 -194.5t-248 -77.5q-68 0 -136.5 34.5t-94.5 83.5h-4l-109 -487h-254zM446 274q78 -90 177 -90q115 0 195.5 90.5t118.5 257.5 q18 80 18 142q0 69 -22 116q-42 91 -157 91q-37 0 -71.5 -10.5t-51 -19.5t-50.5 -34t-44 -31z" />
<glyph unicode="q" horiz-adv-x="1138" d="M163 312q-3 28 -3 56q0 67 18 136q57 258 202.5 419.5t352.5 161.5q82 0 142.5 -32.5t115.5 -102.5l53 115h199l-321 -1454h-254l108 487h-4q-49 -49 -134 -83.5t-151 -34.5q-100 0 -172.5 45t-106.5 118.5t-45 168.5zM437 532q-18 -79 -18 -141q0 -69 22 -117 q42 -90 157 -90q98 0 217 90l113 512q-6 6 -30 31t-36 34t-41.5 19.5t-68.5 10.5q-113 0 -195 -90.5t-120 -258.5z" />
<glyph unicode="r" horiz-adv-x="681" d="M115 0l235 1065h234l-39 -182h4q70 98 151.5 149t192.5 53l-62 -268q-10 2 -43 2q-57 0 -124.5 -38t-107.5 -77.5t-44 -56.5l-143 -647h-254z" />
<glyph unicode="s" horiz-adv-x="909" d="M88 195l199 127q78 -154 213 -154q68 0 117 34t61 87q2 10 2 19q0 26 -16 46q-22 28 -65.5 46t-95.5 40.5t-103.5 46t-90.5 63.5t-55 92q-8 26 -8 59.5t8 74.5q31 143 152.5 226t269.5 83q109 0 199 -40.5t139 -120.5l-191 -140q-80 113 -174 113q-143 0 -166 -104 q-2 -9 -2 -18q-1 -26 17 -47q24 -28 66 -45t95.5 -38.5t103.5 -45.5t90 -63q39 -40 55 -96q7 -25 7 -57q0 -38 -10 -84q-35 -160 -159.5 -239.5t-301.5 -79.5q-258 0 -356 215z" />
<glyph unicode="t" horiz-adv-x="681" d="M215 860l45 205h148l77 352h254l-77 -352h208l-45 -205h-209l-133 -602q-10 -41 8.5 -57.5t67.5 -16.5q25 0 121 21l-45 -209q-143 -16 -205 -16q-218 0 -218 169q0 34 9 76l141 635h-147z" />
<glyph unicode="u" horiz-adv-x="1138" d="M205 336l162 729h254l-154 -692q-12 -53 -11 -89q0 -36 10 -58q22 -42 91 -42q139 0 262 113l170 768h254l-235 -1065h-234l25 115q-68 -41 -115 -65.5t-115.5 -47t-126.5 -22.5q-156 0 -215 94q-36 58 -36 143q0 54 14 119z" />
<glyph unicode="v" horiz-adv-x="909" d="M256 1065h254l16 -721h4l340 721h254l-540 -1065h-267z" />
<glyph unicode="w" horiz-adv-x="1366" d="M256 1065h242l-2 -664h4l301 664h235v-664h4l299 664h242l-510 -1065h-229l-11 664h-4l-303 -664h-229z" />
<glyph unicode="x" horiz-adv-x="909" d="M8 0l436 553l-188 512h281l84 -295l217 295h274l-412 -512l201 -553h-270l-105 332l-245 -332h-273z" />
<glyph unicode="y" horiz-adv-x="909" d="M-63 -381l45 209q37 -8 104 -8q125 0 188 84q59 86 68 125q4 29 4 40t-4 42.5t-4 44.5l-84 909h256l31 -655h4l327 655h254l-571 -1067q-135 -227 -237.5 -307t-260.5 -80q-61 0 -120 8z" />
<glyph unicode="z" horiz-adv-x="909" d="M37 0l41 180l663 680h-471l45 205h789l-39 -180l-664 -680h517l-46 -205h-835z" />
<glyph unicode="{" horiz-adv-x="681" d="M150 602l26 123q63 0 111.5 37t62.5 96l88 397q27 121 112 182.5t204 61.5h145l-27 -123h-100q-41 0 -69.5 -29.5t-38.5 -72.5l-86 -389q-23 -100 -70 -149.5t-135 -69.5v-4q78 -20 103.5 -69.5t2.5 -150.5l-86 -389q-10 -43 6.5 -72.5t57.5 -29.5h100l-29 -123h-145 q-119 0 -176 61.5t-31 182.5l88 397q12 59 -19.5 96t-94.5 37z" />
<glyph unicode="|" horiz-adv-x="454" d="M113 -20l336 1519h221l-336 -1519h-221z" />
<glyph unicode="}" horiz-adv-x="681" d="M76 -172l28 123h101q41 0 69.5 29.5t38.5 72.5l86 389q23 100 69 149.5t136 70.5v4q-80 20 -104.5 69t-1.5 150l86 389q10 43 -6.5 72.5t-57.5 29.5h-100l26 123h146q119 0 177 -61.5t32 -182.5l-88 -397q-14 -61 18.5 -97t93.5 -36l-26 -123q-61 0 -110.5 -36t-61.5 -97 l-88 -397q-27 -121 -112 -182.5t-206 -61.5h-145z" />
<glyph unicode="~" horiz-adv-x="1228" d="M262 532q127 176 293 177q63 0 143 -35t150 -70t113 -35q37 0 78.5 24.5t66.5 50.5t68 73l30 -185q-51 -55 -86 -86.5t-95 -61.5t-126 -30q-33 0 -65.5 10.5t-51 19.5t-54.5 31.5t-50 30.5q-86 49 -172 50q-111 0 -211 -148z" />
<glyph unicode="&#xa1;" horiz-adv-x="681" d="M109 -369l270 979h196l-163 -979h-303zM383 819l63 291h283l-63 -291h-283z" />
<glyph unicode="&#xa2;" d="M231 -256l172 297q-94 63 -124.5 190t8.5 301q55 254 211.5 403.5t373.5 149.5q70 0 132 -16l124 217h119l-151 -262q115 -72 133 -223l-230 -82q-10 47 -30 88l-355 -612q23 -10 66 -11q76 0 138.5 45t123.5 125l170 -108q-109 -141 -224.5 -205t-260.5 -61 q-66 0 -127 16l-150 -252h-119zM520 532q-43 -186 10 -274l357 614q-23 8 -62 9q-109 0 -188.5 -87t-116.5 -262z" />
<glyph unicode="&#xa3;" d="M102 -20l56 253q55 4 101 33t76 73t48 90t31 95q14 68 18 119h-194l41 193h165q6 145 31 256q45 199 183.5 303t357.5 104q203 0 294 -117.5t46 -318.5h-246q12 106 -21.5 160.5t-136.5 54.5q-90 0 -143 -60.5t-74 -152.5q-20 -96 -16 -229h266l-41 -193h-237 q-18 -84 -55.5 -184.5t-78.5 -155.5q59 -43 110.5 -64.5t115.5 -21.5q29 0 54.5 8t42.5 16.5t34.5 32t26 34.5t20.5 45t15 44.5t16 48.5h245q-45 -203 -162.5 -334.5t-283.5 -131.5q-137 0 -216 28.5t-173 97.5q-66 -59 -148 -94t-168 -32z" />
<glyph unicode="&#xa4;" d="M166 336l131 106q-63 137 -28.5 297t159.5 297l-82 107l156 131l90 -105q154 90 312.5 90.5t273.5 -90.5l135 105l98 -131l-131 -107q63 -137 28.5 -296.5t-159.5 -297.5l82 -106l-156 -131l-90 104q-152 -90 -311.5 -90t-274.5 90l-135 -104zM501.5 739 q-28.5 -131 34 -217t186.5 -86t224.5 86t129 217t-34 217t-186.5 86t-224.5 -86t-129 -217z" />
<glyph unicode="&#xa5;" d="M231 414l43 192h361l-39 139h-291l43 193h195l-158 541h254l172 -635l457 635h254l-396 -541h193l-43 -193h-289l-102 -139h360l-43 -192h-368l-93 -414h-233l92 414h-369z" />
<glyph unicode="&#xa6;" horiz-adv-x="454" d="M113 -20l127 577h221l-127 -577h-221zM322 922l127 577h221l-127 -577h-221z" />
<glyph unicode="&#xa7;" horiz-adv-x="1024" d="M182 2l164 109q49 -115 146 -115q121 0 143 102q10 51 -27 119t-97 136.5t-119.5 139t-94.5 151.5t-18 151q23 98 99.5 164.5t176.5 72.5q-37 61 -48 106.5t3 123.5q23 109 114 173t212 64q111 0 171 -35t119 -129l-165 -112q-18 33 -35 52t-46.5 37.5t-62.5 18.5 q-41 0 -75.5 -24.5t-43.5 -61.5q-10 -45 28 -106.5t97.5 -126t116.5 -135t90 -154.5t17 -160q-18 -80 -86 -146.5t-187 -86.5q80 -111 51 -240q-27 -123 -128 -192.5t-226 -69.5q-178 0 -289 174zM475 815q-10 -47 96 -190q115 -156 172 -156q39 0 70 22.5t39 59.5 q4 23 -7 51.5t-26.5 53t-54.5 77.5q-8 12 -14 19q-59 84 -96.5 114.5t-72 30.5t-66.5 -23.5t-40 -58.5z" />
<glyph unicode="&#xa8;" horiz-adv-x="569" d="M238 1221l53 237h246l-54 -237h-245zM627 1221l53 237h246l-54 -237h-245z" />
<glyph unicode="&#xa9;" horiz-adv-x="1638" d="M194.5 420q-32.5 141 6.5 319q39 174 135 319.5t226 241t282.5 147.5t307.5 52t284 -51t216 -149.5t119.5 -239.5t-6.5 -320q-39 -174 -135 -319.5t-226 -240.5t-282.5 -147t-307.5 -52t-284 51t-216 149.5t-119.5 239.5zM401.5 739.5q-59.5 -268.5 69.5 -440.5t377 -172 q242 0 449.5 173t267 439.5t-71.5 439.5t-375 173q-246 0 -451.5 -172t-265 -440.5zM588 745q43 195 185 319t337 124q139 0 220 -81t73 -230h-176q2 68 -42 99.5t-116 31.5q-98 0 -168 -69t-96 -189q-25 -115 16 -191t135 -76q168 1 215 142h185q-57 -152 -179 -237 t-259 -85q-190 0 -281.5 126t-48.5 316z" />
<glyph unicode="&#xaa;" horiz-adv-x="614" d="M236 1006q25 109 132 168t308 81l10 48q8 33 -11.5 49t-64.5 16q-96 0 -166 -61l-88 75q43 51 126 85t157 32q143 -4 192.5 -60.5t16.5 -197.5l-66 -301q-14 -59 -6 -92h-172l2 57q-109 -70 -223 -69q-88 0 -126 49t-21 121zM416 1024q-12 -57 55 -57q39 0 85.5 14.5 t66.5 34.5l30 137q-53 -8 -80.5 -15.5t-67.5 -21.5t-61.5 -36.5t-27.5 -55.5z" />
<glyph unicode="&#xab;" horiz-adv-x="1138" d="M240 526l319 334h229l-325 -334l180 -321h-229zM657 526l320 334h229l-325 -334l180 -321h-230z" />
<glyph unicode="&#xac;" horiz-adv-x="1228" d="M225 647l49 221h1065l-149 -671h-221l100 450h-844z" />
<glyph unicode="&#xad;" horiz-adv-x="681" d="M184 422l49 221h502l-49 -221h-502z" />
<glyph unicode="&#xae;" horiz-adv-x="1638" d="M194.5 420q-32.5 141 6.5 319q39 174 135 319.5t226 241t282.5 147.5t307.5 52t284 -51t216 -149.5t119.5 -239.5t-6.5 -320q-39 -174 -135 -319.5t-226 -240.5t-282.5 -147t-307.5 -52t-284 51t-216 149.5t-119.5 239.5zM401.5 739.5q-59.5 -268.5 69.5 -440.5t377 -172 q242 0 449.5 173t267 439.5t-71.5 439.5t-375 173q-246 0 -451.5 -172t-265 -440.5zM582 324l184 833h313q172 0 244 -57.5t41 -194.5q-47 -209 -279 -221l138 -360h-183l-116 350h-84l-78 -350h-180zM870 813h158q135 0 160 111q12 53 -19.5 73.5t-103.5 20.5h-150z" />
<glyph unicode="&#xaf;" horiz-adv-x="569" d="M211 1266l33 151h708l-32 -151h-709z" />
<glyph unicode="&#xb0;" horiz-adv-x="819" d="M384 1206q28 123 131 208t226 85t189.5 -85t39 -208t-131 -208t-226.5 -85t-189.5 85t-38.5 208zM515 1206.5q-15 -67.5 21.5 -119t103.5 -51.5t125 51.5t73.5 119t-20.5 118.5t-103.5 51t-126 -51t-73.5 -118.5z" />
<glyph unicode="&#xb1;" horiz-adv-x="1228" d="M82 0l49 221h1065l-49 -221h-1065zM209 573l49 222h422l59 270h222l-60 -270h422l-49 -222h-422l-59 -272h-222l60 272h-422z" />
<glyph unicode="&#xb2;" horiz-adv-x="749" d="M174 598l33 147q18 45 109.5 113t187.5 126t181 127t95 120q14 59 -14.5 90t-93.5 31q-135 0 -205 -138l-145 31q39 111 147.5 182.5t237.5 71.5q135 0 209.5 -68.5t48.5 -187.5q-14 -61 -48 -113.5t-93.5 -100.5t-114 -85t-145.5 -95t-152 -104h442l-33 -147h-647z" />
<glyph unicode="&#xb3;" horiz-adv-x="749" d="M197 772l153 72q49 -111 178 -111q68 0 121 36t68 97q8 39 -5.5 65.5t-36 40t-64.5 21.5t-70.5 9.5t-71.5 1.5l29 135q119 0 187.5 23.5t82.5 88.5q10 43 -18.5 71t-87.5 30q-98 -2 -203 -88l-94 98q86 76 163.5 106.5t171.5 30.5q137 0 207 -59.5t47 -167.5 q-31 -137 -186 -191v-4q80 -23 112.5 -81t12.5 -142q-29 -129 -143.5 -198.5t-255.5 -69.5q-104 0 -186.5 48t-110.5 138z" />
<glyph unicode="&#xb4;" horiz-adv-x="569" d="M385 1200l258 299h315l-364 -299h-209z" />
<glyph unicode="&#xb6;" horiz-adv-x="1269" d="M291 1110q23 104 76 179t124.5 115t148.5 57.5t163 17.5h725l-39 -172h-150l-319 -1446h-209l319 1446h-182l-319 -1446h-209l198 895q-182 0 -272 95t-55 259z" />
<glyph unicode="&#xb7;" horiz-adv-x="624" d="M274 532q14 63 68.5 109.5t116.5 46.5q66 0 103.5 -46.5t23.5 -109.5q-14 -66 -71.5 -110.5t-123.5 -44.5t-98.5 45t-18.5 110z" />
<glyph unicode="&#xb8;" horiz-adv-x="569" d="M-49 -416l55 86q86 -33 154 -32q53 0 83.5 18t41.5 68q8 37 -13.5 50t-60.5 13q-25 0 -88 -12l-33 41l162 184h108l-116 -129q43 10 75 10q76 0 120 -40t26 -115q-20 -94 -111.5 -144.5t-191.5 -50.5q-90 0 -211 53z" />
<glyph unicode="&#xb9;" horiz-adv-x="749" d="M287 598l28 135h138l131 590h-158l27 115q147 6 221 61h137l-170 -766h143l-28 -135h-469z" />
<glyph unicode="&#xba;" horiz-adv-x="614" d="M265 1167.5q34 153.5 134.5 242.5t239.5 89t199.5 -89t26.5 -242.5t-134 -242.5t-239 -89t-200 89t-27 242.5zM441 1167.5q-44 -200.5 81 -200.5q123 0 167 200.5t-79 200.5q-125 0 -169 -200.5z" />
<glyph unicode="&#xbb;" horiz-adv-x="1138" d="M168 205l326 334l-181 321h230l174 -321l-320 -334h-229zM586 205l325 334l-180 321h230l174 -321l-320 -334h-229z" />
<glyph unicode="&#xbc;" horiz-adv-x="1875" d="M307 598l29 135h137l131 590h-158l27 115q147 6 221 61h137l-169 -766h143l-29 -135h-469zM428 -20l1182 1519h180l-1180 -1519h-182zM1130 205l39 172l506 512h211l-121 -549h129l-30 -135h-129l-45 -205h-189l45 205h-416zM1317 340h260l80 360h-4z" />
<glyph unicode="&#xbd;" horiz-adv-x="1875" d="M307 598l29 135h137l131 590h-158l27 115q147 6 221 61h137l-169 -766h143l-29 -135h-469zM395 -20l1182 1519h180l-1179 -1519h-183zM1090 0l32 147q20 45 110.5 113t188 126t181.5 127t96 120q12 59 -15.5 90t-93.5 31q-137 0 -205 -138l-147 31q41 111 149.5 182.5 t237.5 71.5q133 0 208 -68.5t48 -187.5q-14 -61 -48 -113.5t-92.5 -100.5t-113.5 -85t-145 -95t-154 -104h442l-32 -147h-647z" />
<glyph unicode="&#xbe;" horiz-adv-x="1875" d="M229 772l154 72q49 -111 178 -111q68 0 121 36t68 97q8 39 -5.5 65.5t-36 40t-64.5 21.5t-70.5 9.5t-71.5 1.5l28 135q119 0 187.5 23.5t83.5 88.5q10 43 -18.5 71t-88.5 30q-98 -2 -202 -88l-95 98q86 76 164 106.5t172 30.5q137 0 207 -59.5t47 -167.5 q-31 -137 -186 -191v-4q80 -23 112.5 -81t12.5 -142q-29 -129 -143.5 -198.5t-256.5 -69.5q-104 0 -186 48t-111 138zM457 -20l1181 1519h181l-1180 -1519h-182zM1130 205l39 172l506 512h211l-121 -549h129l-30 -135h-129l-45 -205h-189l45 205h-416zM1317 340h260l80 360 h-4z" />
<glyph unicode="&#xbf;" horiz-adv-x="909" d="M82 -61q14 63 52 123.5t73 97.5t92 92q53 51 71.5 68.5t56.5 60.5t56.5 79t26.5 77l16 75h226l-25 -112q-16 -78 -66.5 -149.5t-132.5 -160.5l-16 -16q-53 -57 -79.5 -88t-56.5 -77t-38 -83q-10 -45 21.5 -77.5t82.5 -32.5q68 0 126.5 54t84.5 126l219 -66 q-72 -152 -199.5 -235.5t-291.5 -83.5q-158 0 -245 87t-54 241zM541 819l63 291h283l-64 -291h-282z" />
<glyph unicode="&#xc0;" d="M27 0l753 1481h353l92 -1481h-281l-10 319h-467l-160 -319h-280zM580 553h344l-25 643h-4zM696 1860h316l127 -299h-209z" />
<glyph unicode="&#xc1;" d="M27 0l753 1481h353l92 -1481h-281l-10 319h-467l-160 -319h-280zM580 553h344l-25 643h-4zM807 1561l258 299h315l-364 -299h-209z" />
<glyph unicode="&#xc2;" d="M27 0l753 1481h353l92 -1481h-281l-10 319h-467l-160 -319h-280zM580 553h344l-25 643h-4zM612 1561l297 299h254l170 -299h-231l-92 168l-168 -168h-230z" />
<glyph unicode="&#xc3;" d="M27 0l753 1481h353l92 -1481h-281l-10 319h-467l-160 -319h-280zM580 553h344l-25 643h-4zM602 1577q39 104 114 177t175 73q61 0 151.5 -38t118.5 -38q35 0 67 25.5t48 62.5h133q-109 -250 -283 -250q-53 0 -149 36t-135 36q-66 0 -113 -84h-127z" />
<glyph unicode="&#xc4;" d="M27 0l753 1481h353l92 -1481h-281l-10 319h-467l-160 -319h-280zM580 553h344l-25 643h-4zM659 1581l54 238h245l-53 -238h-246zM1049 1581l53 238h246l-54 -238h-245z" />
<glyph unicode="&#xc5;" d="M27 0l753 1481h353l92 -1481h-281l-10 319h-467l-160 -319h-280zM580 553h344l-25 643h-4zM800.5 1780q20.5 92 99.5 156.5t171 64.5t142.5 -64.5t30 -156.5t-99.5 -156.5t-171 -64.5t-142.5 64.5t-30 156.5zM911.5 1781q-10.5 -46 14 -79t70.5 -33t86 32t50.5 78 t-15 78.5t-72 32.5t-85 -31.5t-49 -77.5z" />
<glyph unicode="&#xc6;" horiz-adv-x="1933" d="M14 0l1071 1479h1076l-54 -238h-620l-78 -352h430l-51 -238h-430l-92 -413h643l-54 -238h-925l76 346h-451l-240 -346h-301zM725 584h334l153 690h-4z" />
<glyph unicode="&#xc7;" d="M225 739q80 362 280 561t482 199q211 0 316.5 -96t113.5 -293l-268 -61q-12 98 -66.5 155.5t-154.5 57.5q-145 0 -254 -133.5t-166 -389.5q-123 -522 197 -522q98 0 172.5 46t162.5 173l248 -69q-203 -360 -586 -385l-98 -111q43 10 76 10q76 0 120 -40t25 -115 q-20 -94 -111 -144.5t-192 -50.5q-90 0 -211 53l56 86q86 -33 153 -32q53 0 84 18t41 68q8 37 -13.5 50t-60.5 13q-25 0 -88 -12l-32 41l145 166q-254 18 -350 215.5t-21 541.5z" />
<glyph unicode="&#xc8;" d="M172 0l328 1479h979l-54 -238h-696l-78 -352h506l-51 -238h-506l-92 -413h719l-53 -238h-1002zM735 1860h316l127 -299h-209z" />
<glyph unicode="&#xc9;" d="M172 0l328 1479h979l-54 -238h-696l-78 -352h506l-51 -238h-506l-92 -413h719l-53 -238h-1002zM846 1561l258 299h315l-364 -299h-209z" />
<glyph unicode="&#xca;" d="M172 0l328 1479h979l-54 -238h-696l-78 -352h506l-51 -238h-506l-92 -413h719l-53 -238h-1002zM651 1561l297 299h254l170 -299h-231l-92 168l-168 -168h-230z" />
<glyph unicode="&#xcb;" d="M172 0l328 1479h979l-54 -238h-696l-78 -352h506l-51 -238h-506l-92 -413h719l-53 -238h-1002zM698 1581l54 238h245l-53 -238h-246zM1087 1581l54 238h245l-53 -238h-246z" />
<glyph unicode="&#xcc;" horiz-adv-x="681" d="M199 0l327 1479h283l-328 -1479h-282zM406 1860h315l127 -299h-209z" />
<glyph unicode="&#xcd;" horiz-adv-x="681" d="M199 0l327 1479h283l-328 -1479h-282zM516 1561l258 299h316l-365 -299h-209z" />
<glyph unicode="&#xce;" horiz-adv-x="681" d="M199 0l327 1479h283l-328 -1479h-282zM322 1561l296 299h254l170 -299h-231l-92 168l-168 -168h-229z" />
<glyph unicode="&#xcf;" horiz-adv-x="681" d="M199 0l327 1479h283l-328 -1479h-282zM369 1581l53 238h246l-54 -238h-245zM758 1581l53 238h246l-53 -238h-246z" />
<glyph unicode="&#xd0;" horiz-adv-x="1366" d="M160 0l141 635h-137l55 254h137l131 590h490q307 0 444.5 -181.5t55.5 -558.5q-84 -377 -302.5 -558t-525.5 -181h-489zM496 238h188q117 0 207 39.5t148.5 113.5t94 158t60.5 190q18 84 23.5 154t-7 136.5t-46.5 111.5t-99.5 72.5t-159.5 27.5h-188l-78 -352h305 l-55 -254h-305z" />
<glyph unicode="&#xd1;" horiz-adv-x="1478" d="M166 0l328 1479h294l359 -1008h4l223 1008h266l-327 -1479h-273l-370 1053h-4l-234 -1053h-266zM715 1577q39 104 113.5 177t175.5 73q61 0 151 -38t119 -38q35 0 67 25.5t48 62.5h133q-109 -250 -283 -250q-53 0 -149.5 36t-135.5 36q-66 0 -112 -84h-127z" />
<glyph unicode="&#xd2;" horiz-adv-x="1366" d="M225 739.5q80 364.5 284 562t505 197.5t416.5 -197.5t35.5 -562t-283.5 -562t-504.5 -197.5t-417 197.5t-36 562zM508 739q-123 -522 221 -522q174 0 286 130t169 392q59 260 5 391.5t-227.5 131.5t-285 -130.5t-168.5 -392.5zM754 1860h315l127 -299h-209z" />
<glyph unicode="&#xd3;" horiz-adv-x="1366" d="M225 739.5q80 364.5 284 562t505 197.5t416.5 -197.5t35.5 -562t-283.5 -562t-504.5 -197.5t-417 197.5t-36 562zM508 739q-123 -522 221 -522q174 0 286 130t169 392q59 260 5 391.5t-227.5 131.5t-285 -130.5t-168.5 -392.5zM864 1561l258 299h316l-365 -299h-209z" />
<glyph unicode="&#xd4;" horiz-adv-x="1366" d="M225 739.5q80 364.5 284 562t505 197.5t416.5 -197.5t35.5 -562t-283.5 -562t-504.5 -197.5t-417 197.5t-36 562zM508 739q-123 -522 221 -522q174 0 286 130t169 392q59 260 5 391.5t-227.5 131.5t-285 -130.5t-168.5 -392.5zM670 1561l297 299h254l170 -299h-232 l-92 168l-168 -168h-229z" />
<glyph unicode="&#xd5;" horiz-adv-x="1366" d="M225 739.5q80 364.5 284 562t505 197.5t416.5 -197.5t35.5 -562t-283.5 -562t-504.5 -197.5t-417 197.5t-36 562zM508 739q-123 -522 221 -522q174 0 286 130t169 392q59 260 5 391.5t-227.5 131.5t-285 -130.5t-168.5 -392.5zM659 1577q39 104 114 177t175 73 q61 0 151.5 -38t119.5 -38q35 0 66.5 25.5t47.5 62.5h133q-109 -250 -282 -250q-53 0 -149.5 36t-135.5 36q-66 0 -113 -84h-127z" />
<glyph unicode="&#xd6;" horiz-adv-x="1366" d="M225 739.5q80 364.5 284 562t505 197.5t416.5 -197.5t35.5 -562t-283.5 -562t-504.5 -197.5t-417 197.5t-36 562zM508 739q-123 -522 221 -522q174 0 286 130t169 392q59 260 5 391.5t-227.5 131.5t-285 -130.5t-168.5 -392.5zM717 1581l53 238h246l-53 -238h-246z M1106 1581l53 238h246l-53 -238h-246z" />
<glyph unicode="&#xd7;" horiz-adv-x="1228" d="M117 160l458 375l-292 374l192 156l293 -373l457 373l123 -156l-457 -374l291 -375l-193 -160l-291 377l-458 -377z" />
<glyph unicode="&#xd8;" horiz-adv-x="1366" d="M-53 -135l301 338q-98 195 -23 536q80 365 284 562.5t505 197.5q195 0 311 -86l129 148h236l-248 -279q102 -195 24 -543q-80 -365 -283.5 -562t-504.5 -197q-203 0 -318 88l-180 -203h-233zM477 463l660 741q-61 57 -174 58q-174 0 -286 -130.5t-169 -392.5 q-39 -178 -31 -276zM549 279q63 -61 180 -62q174 0 285.5 130t169.5 392q38 172 26 283z" />
<glyph unicode="&#xd9;" horiz-adv-x="1478" d="M275.5 327.5q-11.5 96.5 19.5 225.5l205 926h282l-207 -938q-39 -176 13.5 -250t199 -74t232.5 74t125 250l207 938h282l-204 -926q-35 -156 -106 -270.5t-166 -179t-199.5 -94t-223.5 -29.5q-94 0 -171 18t-142.5 59t-100 107.5t-46 163zM803 1860h315l127 -299h-209z " />
<glyph unicode="&#xda;" horiz-adv-x="1478" d="M275.5 327.5q-11.5 96.5 19.5 225.5l205 926h282l-207 -938q-39 -176 13.5 -250t199 -74t232.5 74t125 250l207 938h282l-204 -926q-35 -156 -106 -270.5t-166 -179t-199.5 -94t-223.5 -29.5q-94 0 -171 18t-142.5 59t-100 107.5t-46 163zM913 1561l258 299h316 l-365 -299h-209z" />
<glyph unicode="&#xdb;" horiz-adv-x="1478" d="M275.5 327.5q-11.5 96.5 19.5 225.5l205 926h282l-207 -938q-39 -176 13.5 -250t199 -74t232.5 74t125 250l207 938h282l-204 -926q-35 -156 -106 -270.5t-166 -179t-199.5 -94t-223.5 -29.5q-94 0 -171 18t-142.5 59t-100 107.5t-46 163zM719 1561l297 299h254l170 -299 h-232l-92 168l-168 -168h-229z" />
<glyph unicode="&#xdc;" horiz-adv-x="1478" d="M275.5 327.5q-11.5 96.5 19.5 225.5l205 926h282l-207 -938q-39 -176 13.5 -250t199 -74t232.5 74t125 250l207 938h282l-204 -926q-35 -156 -106 -270.5t-166 -179t-199.5 -94t-223.5 -29.5q-94 0 -171 18t-142.5 59t-100 107.5t-46 163zM766 1581l53 238h246l-53 -238 h-246zM1155 1581l53 238h246l-53 -238h-246z" />
<glyph unicode="&#xdd;" horiz-adv-x="1138" d="M348 1479h295l125 -586l383 586h295l-604 -889l-131 -590h-283l131 590zM750 1561l258 299h315l-365 -299h-208z" />
<glyph unicode="&#xde;" d="M139 0l328 1479h283l-60 -273h258q248 0 360.5 -108.5t63.5 -331.5t-211 -331.5t-409 -108.5h-258l-72 -326h-283zM545 555h225q152 0 224.5 53.5t95 157.5t-25.5 157.5t-200 53.5h-225z" />
<glyph unicode="&#xdf;" horiz-adv-x="1024" d="M109 0l249 1126q35 158 155 255.5t306 97.5q199 0 279 -95.5t43 -265.5q-25 -115 -75 -187.5t-148 -115.5v-4q106 -33 149 -134.5t6 -270.5q-51 -229 -168 -327.5t-293 -98.5q-35 0 -84 14t-71 35l102 180q39 -25 86 -25q125 0 176 234q16 78 16.5 137t-34.5 96t-107 37 h-53l47 205h33q57 0 100 46t62 136q45 199 -107 199q-133 0 -168 -156l-248 -1118h-253z" />
<glyph unicode="&#xe0;" horiz-adv-x="1024" d="M94 262q41 180 212 280.5t493 137.5l18 90q14 59 -21.5 93t-105.5 34q-137 0 -262 -131l-137 125q70 84 197.5 141.5t244.5 52.5q217 -4 291 -99t23 -331l-111 -501q-22 -95 -14 -154h-248l4 92q-190 -113 -356 -112q-137 0 -194.5 82.5t-33.5 199.5zM356 293 q-14 -59 12.5 -92t82.5 -33q100 0 258 113l51 229q-51 -10 -77 -15.5t-74 -16.5t-73.5 -20t-61.5 -26.5t-56.5 -36t-38 -45t-23.5 -57.5zM502 1499h315l127 -299h-209z" />
<glyph unicode="&#xe1;" horiz-adv-x="1024" d="M94 262q41 180 212 280.5t493 137.5l18 90q14 59 -21.5 93t-105.5 34q-137 0 -262 -131l-137 125q70 84 197.5 141.5t244.5 52.5q217 -4 291 -99t23 -331l-111 -501q-22 -95 -14 -154h-248l4 92q-190 -113 -356 -112q-137 0 -194.5 82.5t-33.5 199.5zM356 293 q-14 -59 12.5 -92t82.5 -33q100 0 258 113l51 229q-51 -10 -77 -15.5t-74 -16.5t-73.5 -20t-61.5 -26.5t-56.5 -36t-38 -45t-23.5 -57.5zM612 1200l258 299h316l-365 -299h-209z" />
<glyph unicode="&#xe2;" horiz-adv-x="1024" d="M94 262q41 180 212 280.5t493 137.5l18 90q14 59 -21.5 93t-105.5 34q-137 0 -262 -131l-137 125q70 84 197.5 141.5t244.5 52.5q217 -4 291 -99t23 -331l-111 -501q-22 -95 -14 -154h-248l4 92q-190 -113 -356 -112q-137 0 -194.5 82.5t-33.5 199.5zM356 293 q-14 -59 12.5 -92t82.5 -33q100 0 258 113l51 229q-51 -10 -77 -15.5t-74 -16.5t-73.5 -20t-61.5 -26.5t-56.5 -36t-38 -45t-23.5 -57.5zM418 1200l297 299h254l170 -299h-232l-92 168l-168 -168h-229z" />
<glyph unicode="&#xe3;" horiz-adv-x="1024" d="M94 262q41 180 212 280.5t493 137.5l18 90q14 59 -21.5 93t-105.5 34q-137 0 -262 -131l-137 125q70 84 197.5 141.5t244.5 52.5q217 -4 291 -99t23 -331l-111 -501q-22 -95 -14 -154h-248l4 92q-190 -113 -356 -112q-137 0 -194.5 82.5t-33.5 199.5zM356 293 q-14 -59 12.5 -92t82.5 -33q100 0 258 113l51 229q-51 -10 -77 -15.5t-74 -16.5t-73.5 -20t-61.5 -26.5t-56.5 -36t-38 -45t-23.5 -57.5zM408 1217q39 104 113.5 176.5t174.5 72.5q59 0 150.5 -37.5t120.5 -37.5q35 0 66.5 25.5t47.5 62.5h133q-109 -250 -282 -250 q-53 0 -149.5 35.5t-135.5 35.5q-66 0 -112 -83h-127z" />
<glyph unicode="&#xe4;" horiz-adv-x="1024" d="M94 262q41 180 212 280.5t493 137.5l18 90q14 59 -21.5 93t-105.5 34q-137 0 -262 -131l-137 125q70 84 197.5 141.5t244.5 52.5q217 -4 291 -99t23 -331l-111 -501q-22 -95 -14 -154h-248l4 92q-190 -113 -356 -112q-137 0 -194.5 82.5t-33.5 199.5zM356 293 q-14 -59 12.5 -92t82.5 -33q100 0 258 113l51 229q-51 -10 -77 -15.5t-74 -16.5t-73.5 -20t-61.5 -26.5t-56.5 -36t-38 -45t-23.5 -57.5zM465 1221l53 237h246l-53 -237h-246zM854 1221l53 237h246l-53 -237h-246z" />
<glyph unicode="&#xe5;" horiz-adv-x="1024" d="M94 262q41 180 212 280.5t493 137.5l18 90q14 59 -21.5 93t-105.5 34q-137 0 -262 -131l-137 125q70 84 197.5 141.5t244.5 52.5q217 -4 291 -99t23 -331l-111 -501q-22 -95 -14 -154h-248l4 92q-190 -113 -356 -112q-137 0 -194.5 82.5t-33.5 199.5zM356 293 q-14 -59 12.5 -92t82.5 -33q100 0 258 113l51 229q-51 -10 -77 -15.5t-74 -16.5t-73.5 -20t-61.5 -26.5t-56.5 -36t-38 -45t-23.5 -57.5zM606.5 1419q20.5 92 99 156.5t171 64.5t142.5 -64.5t29.5 -156.5t-99.5 -156.5t-171 -64.5t-142 64.5t-29.5 156.5zM717 1418 q-10 -46 14.5 -77.5t70.5 -31.5t86 32.5t50 78.5t-15.5 78t-71.5 32t-85 -33t-49 -79z" />
<glyph unicode="&#xe6;" horiz-adv-x="1593" d="M94 262q41 180 213 280.5t500 137.5l18 90q14 59 -24.5 93t-110.5 34q-137 0 -262 -131l-137 125q70 84 197.5 141.5t244.5 52.5q217 -6 283 -114q133 115 315 114q104 0 182 -39.5t116 -107.5t51.5 -157t-11.5 -185l-24 -104h-648l-22 -107q-20 -90 29 -145.5t147 -55.5 q84 0 141.5 31t128.5 96l158 -114q-188 -217 -494 -217q-227 0 -297 165q-162 -100 -265 -132.5t-201 -32.5q-137 0 -194.5 82.5t-33.5 199.5zM356 293q-14 -59 12.5 -92t82.5 -33q88 0 266 113l51 229q-61 -10 -94 -17.5t-86 -20.5t-84 -27.5t-66 -36t-54 -50t-28 -65.5z M1036 664h414q20 111 -20.5 172t-133.5 61q-94 0 -163.5 -61t-96.5 -172z" />
<glyph unicode="&#xe7;" horiz-adv-x="1024" d="M168 532q55 254 212 403.5t374 149.5q150 0 245 -75.5t111 -208.5l-229 -82q-18 80 -54 121t-120 41q-106 0 -176 -85t-110 -263.5t-6 -263.5t146 -85q76 0 138.5 45t123.5 125l170 -108q-98 -127 -198.5 -189.5t-223.5 -72.5l-100 -113q43 10 76 10q76 0 120 -40 t25 -115q-20 -94 -111.5 -144.5t-191.5 -50.5q-90 0 -211 53l55 86q86 -33 154 -32q53 0 84 18t41 68q8 37 -13.5 50t-60.5 13q-25 0 -88 -12l-33 41l146 166q-193 14 -271.5 161.5t-23.5 388.5z" />
<glyph unicode="&#xe8;" horiz-adv-x="1024" d="M168 532q55 254 212 403.5t374 149.5q100 0 175 -39.5t112.5 -107.5t49 -157t-11.5 -185l-24 -104h-643q-31 -158 13 -233t140 -75q82 0 138.5 31t127.5 96l158 -114q-188 -217 -493 -217q-207 0 -296 149.5t-32 402.5zM451 664h409q20 111 -20.5 172t-133 61t-160.5 -61 t-95 -172zM502 1499h315l127 -299h-209z" />
<glyph unicode="&#xe9;" horiz-adv-x="1024" d="M168 532q55 254 212 403.5t374 149.5q100 0 175 -39.5t112.5 -107.5t49 -157t-11.5 -185l-24 -104h-643q-31 -158 13 -233t140 -75q82 0 138.5 31t127.5 96l158 -114q-188 -217 -493 -217q-207 0 -296 149.5t-32 402.5zM451 664h409q20 111 -20.5 172t-133 61t-160.5 -61 t-95 -172zM612 1200l258 299h316l-365 -299h-209z" />
<glyph unicode="&#xea;" horiz-adv-x="1024" d="M168 532q55 254 212 403.5t374 149.5q100 0 175 -39.5t112.5 -107.5t49 -157t-11.5 -185l-24 -104h-643q-31 -158 13 -233t140 -75q82 0 138.5 31t127.5 96l158 -114q-188 -217 -493 -217q-207 0 -296 149.5t-32 402.5zM418 1200l297 299h254l170 -299h-232l-92 168 l-168 -168h-229zM451 664h409q20 111 -20.5 172t-133 61t-160.5 -61t-95 -172z" />
<glyph unicode="&#xeb;" horiz-adv-x="1024" d="M168 532q55 254 212 403.5t374 149.5q100 0 175 -39.5t112.5 -107.5t49 -157t-11.5 -185l-24 -104h-643q-31 -158 13 -233t140 -75q82 0 138.5 31t127.5 96l158 -114q-188 -217 -493 -217q-207 0 -296 149.5t-32 402.5zM451 664h409q20 111 -20.5 172t-133 61t-160.5 -61 t-95 -172zM465 1221l53 237h246l-53 -237h-246zM854 1221l53 237h246l-53 -237h-246z" />
<glyph unicode="&#xec;" horiz-adv-x="569" d="M158 0l235 1065h254l-235 -1065h-254zM279 1499h315l127 -299h-209z" />
<glyph unicode="&#xed;" horiz-adv-x="569" d="M158 0l235 1065h254l-235 -1065h-254zM389 1200l258 299h316l-365 -299h-209z" />
<glyph unicode="&#xee;" horiz-adv-x="569" d="M158 0l235 1065h254l-235 -1065h-254zM195 1200l297 299h253l170 -299h-231l-92 168l-168 -168h-229z" />
<glyph unicode="&#xef;" horiz-adv-x="569" d="M158 0l235 1065h254l-235 -1065h-254zM242 1221l53 237h246l-54 -237h-245zM631 1221l53 237h246l-53 -237h-246z" />
<glyph unicode="&#xf0;" horiz-adv-x="1024" d="M160 499.5q51 231.5 207.5 376t369.5 144.5q43 0 84 -10q-14 76 -51 151l-231 -100l-45 131l206 90q-38 59 -104 127l235 70q47 -39 93 -99l227 99l45 -131l-201 -88q84 -162 108.5 -365t-18.5 -395q-51 -231 -207.5 -375.5t-369.5 -144.5t-306 144t-42 375.5z M413.5 499.5q-69.5 -315.5 139.5 -315.5t278.5 315.5t-139.5 315.5t-278.5 -315.5z" />
<glyph unicode="&#xf1;" horiz-adv-x="1138" d="M131 0l236 1065h233l-25 -115q68 41 116 65.5t115.5 47t127.5 22.5q156 0 214 -94t21 -262l-161 -729h-254l153 692q23 104 0.5 146.5t-90.5 42.5q-139 0 -262 -113l-170 -768h-254zM455 1217q39 104 113.5 176.5t174.5 72.5q59 0 150.5 -37.5t120.5 -37.5 q35 0 66.5 25.5t47.5 62.5h134q-109 -250 -283 -250q-53 0 -149.5 35.5t-135.5 35.5q-66 0 -112 -83h-127z" />
<glyph unicode="&#xf2;" horiz-adv-x="1024" d="M167 532.5q56 253.5 213 403t373 149.5t306 -149.5t33.5 -403t-213 -403t-371.5 -149.5t-306 149.5t-35 403zM413.5 269q32.5 -85 139 -85t176.5 85t110 263.5t7 263.5t-139.5 85t-176 -85t-109.5 -263.5t-7.5 -263.5zM496 1499h315l127 -299h-209z" />
<glyph unicode="&#xf3;" horiz-adv-x="1024" d="M167 532.5q56 253.5 213 403t373 149.5t306 -149.5t33.5 -403t-213 -403t-371.5 -149.5t-306 149.5t-35 403zM413.5 269q32.5 -85 139 -85t176.5 85t110 263.5t7 263.5t-139.5 85t-176 -85t-109.5 -263.5t-7.5 -263.5zM606 1200l258 299h316l-365 -299h-209z" />
<glyph unicode="&#xf4;" horiz-adv-x="1024" d="M167 532.5q56 253.5 213 403t373 149.5t306 -149.5t33.5 -403t-213 -403t-371.5 -149.5t-306 149.5t-35 403zM412 1200l297 299h254l170 -299h-232l-92 168l-168 -168h-229zM413.5 269q32.5 -85 139 -85t176.5 85t110 263.5t7 263.5t-139.5 85t-176 -85t-109.5 -263.5 t-7.5 -263.5z" />
<glyph unicode="&#xf5;" horiz-adv-x="1024" d="M167 532.5q56 253.5 213 403t373 149.5t306 -149.5t33.5 -403t-213 -403t-371.5 -149.5t-306 149.5t-35 403zM401 1217q39 104 114 176.5t175 72.5q59 0 150.5 -37.5t120.5 -37.5q35 0 66.5 25.5t47.5 62.5h133q-109 -250 -282 -250q-53 0 -149.5 35.5t-135.5 35.5 q-66 0 -113 -83h-127zM413.5 269q32.5 -85 139 -85t176.5 85t110 263.5t7 263.5t-139.5 85t-176 -85t-109.5 -263.5t-7.5 -263.5z" />
<glyph unicode="&#xf6;" horiz-adv-x="1024" d="M167 532.5q56 253.5 213 403t373 149.5t306 -149.5t33.5 -403t-213 -403t-371.5 -149.5t-306 149.5t-35 403zM413.5 269q32.5 -85 139 -85t176.5 85t110 263.5t7 263.5t-139.5 85t-176 -85t-109.5 -263.5t-7.5 -263.5zM459 1221l53 237h246l-53 -237h-246zM848 1221 l53 237h246l-53 -237h-246z" />
<glyph unicode="&#xf7;" horiz-adv-x="1228" d="M176 422l49 221h1065l-49 -221h-1065zM466 144.5q15 68.5 81.5 125t136.5 56.5q74 0 117 -56.5t27.5 -126t-83 -125t-141.5 -55.5q-70 0 -111.5 56.5t-26.5 125zM638 920.5q15 68.5 81.5 125t136.5 56.5q74 0 117 -56.5t27.5 -126t-83 -125t-141.5 -55.5 q-70 0 -111.5 56.5t-26.5 125z" />
<glyph unicode="&#xf8;" horiz-adv-x="1024" d="M-25 -205l242 314q-111 150 -49 423q55 254 212 403.5t374 149.5q111 0 186 -41l162 209h186l-235 -305q100 -150 41 -416q-57 -254 -214 -403t-372 -149q-98 -1 -176 34l-170 -219h-187zM399 346l398 512q-37 23 -90 23q-106 0 -176 -85t-109 -264q-27 -112 -23 -186z M475 201q33 -16 78 -17q106 0 176 85t111 263q20 92 20 168z" />
<glyph unicode="&#xf9;" horiz-adv-x="1138" d="M205 336l162 729h254l-154 -692q-23 -104 -0.5 -146.5t90.5 -42.5q139 0 262 113l170 768h254l-235 -1065h-234l25 115q-68 -41 -115 -65.5t-115.5 -47t-126.5 -22.5q-156 0 -215 94t-22 262zM559 1499h315l127 -299h-208z" />
<glyph unicode="&#xfa;" horiz-adv-x="1138" d="M205 336l162 729h254l-154 -692q-23 -104 -0.5 -146.5t90.5 -42.5q139 0 262 113l170 768h254l-235 -1065h-234l25 115q-68 -41 -115 -65.5t-115.5 -47t-126.5 -22.5q-156 0 -215 94t-22 262zM670 1200l258 299h315l-364 -299h-209z" />
<glyph unicode="&#xfb;" horiz-adv-x="1138" d="M205 336l162 729h254l-154 -692q-23 -104 -0.5 -146.5t90.5 -42.5q139 0 262 113l170 768h254l-235 -1065h-234l25 115q-68 -41 -115 -65.5t-115.5 -47t-126.5 -22.5q-156 0 -215 94t-22 262zM475 1200l297 299h254l170 -299h-231l-93 168l-167 -168h-230z" />
<glyph unicode="&#xfc;" horiz-adv-x="1138" d="M205 336l162 729h254l-154 -692q-23 -104 -0.5 -146.5t90.5 -42.5q139 0 262 113l170 768h254l-235 -1065h-234l25 115q-68 -41 -115 -65.5t-115.5 -47t-126.5 -22.5q-156 0 -215 94t-22 262zM522 1221l53 237h246l-53 -237h-246zM911 1221l54 237h245l-53 -237h-246z " />
<glyph unicode="&#xfd;" horiz-adv-x="909" d="M-63 -381l45 209q37 -8 104 -8q125 0 188 84q59 86 68 125q4 29 4 40t-4 42.5t-4 44.5l-84 909h256l31 -655h4l327 655h254l-571 -1067q-135 -227 -237.5 -307t-260.5 -80q-61 0 -120 8zM555 1200l258 299h315l-364 -299h-209z" />
<glyph unicode="&#xfe;" horiz-adv-x="1138" d="M45 -389l414 1868h243l-112 -512q147 119 299 118q137 0 218 -76.5t96.5 -205.5t-17.5 -299q-31 -135 -104.5 -252t-190.5 -194.5t-248 -77.5q-68 0 -136.5 34.5t-94.5 83.5h-4l-109 -487h-254zM446 274q78 -90 177 -90q115 0 195.5 90.5t118.5 258t-4 258t-157 90.5 q-37 0 -71.5 -10.5t-51 -19.5t-50.5 -34t-44 -31z" />
<glyph unicode="&#xff;" horiz-adv-x="909" d="M-63 -381l45 209q37 -8 104 -8q125 0 188 84q59 86 68 125q4 29 4 40t-4 42.5t-4 44.5l-84 909h256l31 -655h4l327 655h254l-571 -1067q-135 -227 -237.5 -307t-260.5 -80q-61 0 -120 8zM408 1221l53 237h246l-54 -237h-245zM797 1221l53 237h246l-54 -237h-245z" />
<glyph unicode="&#x152;" horiz-adv-x="1933" d="M190 739q84 381 288 570.5t554 189.5q39 0 147.5 -10t172.5 -10h825l-53 -238h-627l-78 -352h443l-52 -238h-442l-92 -413h661l-53 -238h-825q-59 0 -181 -10t-182 -10q-352 0 -471 189t-35 570zM441 515q-3 -95 14.5 -151.5t57.5 -90t84 -45t108 -11.5q158 0 235.5 69 t120.5 259l86 389q43 190 -5 259t-206 69q-80 0 -141.5 -20.5t-124 -74t-112.5 -161t-85 -267.5q-29 -129 -32 -224z" />
<glyph unicode="&#x153;" horiz-adv-x="1593" d="M142.5 532.5q56.5 253.5 211 403t363.5 149.5q219 0 299 -137q139 137 332 137q98 0 172.5 -39.5t111.5 -107.5t48.5 -157t-11.5 -185l-24 -104h-623q-33 -164 5 -236t153 -72q66 0 118 31t123 96l158 -114q-188 -217 -461 -217q-203 0 -282 141q-139 -141 -365 -141 q-207 0 -296 149.5t-32.5 403zM396 532.5q-77 -348.5 124 -348.5t277.5 348.5t-124 348.5t-277.5 -348.5zM1061 664h389q20 109 -18.5 171t-124.5 62t-152.5 -62t-93.5 -171z" />
<glyph unicode="&#x178;" horiz-adv-x="1138" d="M348 1479h295l125 -586l383 586h295l-604 -889l-131 -590h-283l131 590zM602 1581l53 238h246l-53 -238h-246zM991 1581l53 238h246l-53 -238h-246z" />
<glyph unicode="&#x2c6;" horiz-adv-x="569" d="M190 1200l297 299h254l170 -299h-231l-92 168l-168 -168h-230z" />
<glyph unicode="&#x2dc;" horiz-adv-x="569" d="M180 1217q39 104 114 176.5t175 72.5q59 0 150.5 -37.5t119.5 -37.5q35 0 67 25.5t48 62.5h133q-109 -250 -282 -250q-53 0 -149.5 35.5t-135.5 35.5q-66 0 -113 -83h-127z" />
<glyph unicode="&#x2000;" horiz-adv-x="1000" />
<glyph unicode="&#x2001;" horiz-adv-x="2001" />
<glyph unicode="&#x2002;" horiz-adv-x="1000" />
<glyph unicode="&#x2003;" horiz-adv-x="2001" />
<glyph unicode="&#x2004;" horiz-adv-x="667" />
<glyph unicode="&#x2005;" horiz-adv-x="500" />
<glyph unicode="&#x2006;" horiz-adv-x="333" />
<glyph unicode="&#x2007;" horiz-adv-x="333" />
<glyph unicode="&#x2008;" horiz-adv-x="250" />
<glyph unicode="&#x2009;" horiz-adv-x="400" />
<glyph unicode="&#x200a;" horiz-adv-x="111" />
<glyph unicode="&#x2010;" horiz-adv-x="681" d="M184 422l49 221h502l-49 -221h-502z" />
<glyph unicode="&#x2011;" horiz-adv-x="681" d="M184 422l49 221h502l-49 -221h-502z" />
<glyph unicode="&#x2012;" horiz-adv-x="681" d="M184 422l49 221h502l-49 -221h-502z" />
<glyph unicode="&#x2013;" horiz-adv-x="1024" d="M98 446l39 172h1024l-39 -172h-1024z" />
<glyph unicode="&#x2014;" horiz-adv-x="2048" d="M98 446l39 172h2048l-39 -172h-2048z" />
<glyph unicode="&#x2018;" horiz-adv-x="569" d="M344 901l64 291l198 307h133l-172 -307h123l-63 -291h-283z" />
<glyph unicode="&#x2019;" horiz-adv-x="569" d="M356 881l174 307h-122l63 291h283l-64 -291l-201 -307h-133z" />
<glyph unicode="&#x201a;" horiz-adv-x="569" d="M94 -307l172 307h-123l64 291h282l-63 -291l-199 -307h-133z" />
<glyph unicode="&#x201c;" horiz-adv-x="909" d="M287 901l63 291l199 307h133l-172 -307h123l-64 -291h-282zM743 901l64 291l199 307h133l-172 -307h123l-64 -291h-283z" />
<glyph unicode="&#x201d;" horiz-adv-x="909" d="M297 881l174 307h-123l64 291h282l-63 -291l-201 -307h-133zM754 881l174 307h-123l63 291h283l-64 -291l-200 -307h-133z" />
<glyph unicode="&#x201e;" horiz-adv-x="909" d="M35 -307l172 307h-123l63 291h283l-63 -291l-199 -307h-133zM492 -307l172 307h-123l63 291h283l-64 -291l-198 -307h-133z" />
<glyph unicode="&#x2022;" horiz-adv-x="1024" d="M305 739.5q35 153.5 166 261t284.5 107.5t238.5 -107.5t50.5 -261t-167 -262t-286 -108.5t-237.5 108.5t-49 262z" />
<glyph unicode="&#x2026;" horiz-adv-x="2048" d="M197 0l63 291h291l-64 -291h-290zM879 0l63 291h291l-64 -291h-290zM1561 0l63 291h291l-64 -291h-290z" />
<glyph unicode="&#x202f;" horiz-adv-x="400" />
<glyph unicode="&#x2039;" horiz-adv-x="681" d="M201 526l319 334h230l-326 -334l180 -321h-229z" />
<glyph unicode="&#x203a;" horiz-adv-x="681" d="M168 205l324 321l-179 334h230l172 -334l-318 -321h-229z" />
<glyph unicode="&#x205f;" horiz-adv-x="500" />
<glyph unicode="&#x20ac;" d="M96 522l99 160h110l25 115h-174l100 159h125q39 109 98 203q68 102 146 170q98 88 198 127q104 43 228 43q100 0 166 -24q68 -23 116 -68q57 -55 80 -123q29 -74 25 -154l-252 -61q-6 94 -58 148q-49 53 -137 53q-61 0 -121 -31q-57 -27 -106 -86q-45 -53 -70 -96 q-29 -49 -45 -101h676l-100 -159h-631l-25 -115h578l-98 -160h-500q-6 -94 0 -131q10 -37 22 -65q29 -63 76 -90t119 -27q51 0 94 14q47 14 86 47q29 23 62 66q39 43 61 80l219 -70q-49 -98 -119 -172q-72 -74 -149 -117q-78 -43 -158 -59q-88 -18 -160 -18q-156 0 -251 59 q-92 59 -136 186q-23 66 -28 133q-8 72 -2 164h-189z" />
<glyph unicode="&#x2122;" horiz-adv-x="2048" d="M334 1307l39 172h698l-39 -172h-248l-147 -672h-205l148 672h-246zM1053 635l186 844h305l74 -529h4l305 529h305l-186 -844h-205l127 575l-8 4l-332 -579h-158l-77 577h-9l-127 -577h-204z" />
<glyph unicode="&#xe000;" horiz-adv-x="1064" d="M0 0v1065h1065v-1065h-1065z" />
<glyph unicode="&#xfb01;" horiz-adv-x="1138" d="M172 0l190 860h-147l45 205h146l28 131q39 168 124 235.5t245 67.5h168l-45 -205h-70q-78 0 -117 -26.5t-51 -87.5l-26 -115h215l-46 -205h-215l-190 -860h-254zM754 0l235 1065h254l-235 -1065h-254zM1034 1262l51 237h254l-51 -237h-254z" />
<glyph unicode="&#xfb02;" horiz-adv-x="1138" d="M172 0l190 860h-147l45 205h146l28 131q39 168 124 235.5t245 67.5h168l-45 -205h-70q-78 0 -117 -26.5t-51 -87.5l-26 -115h215l-46 -205h-215l-190 -860h-254zM754 0l327 1479h254l-327 -1479h-254z" />
</font>
</defs>
</svg>
