<svg xmlns="http://www.w3.org/2000/svg" viewBox="0 0 63.73 91.5">
    <defs>
        <style>.cls-1{fill:#767c97;}</style>
    </defs>
    <title>SOFichier 8</title>
    <g id="Calque_2" data-name="Calque 2">
        <g id="Premier_plan" data-name="Premier plan">
            <path class="cls-1" d="M54.35,29.52h0v0Z"/>
            <path class="cls-1"
                  d="M63.71,57.36c.13-.54-.37-.89-.4-1.42,0-.9.48-1.77.1-2.66A6.14,6.14,0,0,1,63,50.87,13.91,13.91,0,0,0,62.49,48c0-.19-.11-.47-.4-.31-.51.29-.43,0-.38-.23.18-1.26-.65-2.3-.85-3.49,0-.24.38-1-.57-1l-.09-.28a.75.75,0,0,1,.18-.3c.42-.4.38-.44-.26-.54-.15,0-.25-.08-.26-.19-.18-1.3-1.19-2.29-1.09-3.76.1-1,0-2.22-1.4-2.58a.51.51,0,0,1-.16-.09c-.09-.18-.17-.37-.26-.56a.84.84,0,0,1,.09-.25c.41-.64,0-1-.12-1.57-.28-1.37-1.57-2.16-1.89-3.5-.11-.4-.47-.07-.68.18,0,0,0,.07,0,.1l0-.09h0c-.06-.58-.09-1.18-.2-1.75-.09-.42,0-1-.74-1-.15-.5-.37-.94-1-1-.22,0-.44-.13-.44-.35a2.76,2.76,0,0,0-.08-1.18c-.33-.81-.36.43-.59.14-.1-.12-.18-.24-.27-.36-.36-.57-.73-1.13-1.09-1.69a18.83,18.83,0,0,0-.76-2.06c-.73-1.38-2-2.36-2.51-3.93-.2-.58-.6-1.65-1.86-1.26a.61.61,0,0,1,0,.12l-.08-.11s0,0,0,0a8,8,0,0,1-1-2.72c0-.2-.11-.42-.37-.37s-.25.31-.27.52,0,.32,0,.48l-.45-.55c0-.87-.12-1.7-1-2.1-.47.28-.47,0-.39-.32.14-.69-.12-1-.85-.79a9.7,9.7,0,0,0-2.92-4.08c-.38-.38-.63-.05-.93.18l-.66-.72a.73.73,0,0,1-.1-.28c-.3-2.16-2.16-3-3.5-4.26l-.21.54a2.57,2.57,0,0,1,.76.82c-.61-.62-1-1-1-1l0,0c-.7.35-1.61.46-2.09,1.08-1.06,1.37-2.45,2.41-3.59,3.7-.39.46-1.13.72-.47,1.62,0,0,0,.07,0,.1l-.24.28-.08,0c-2,.29-2.26,2.37-3.66,3.29a1.18,1.18,0,0,0-.51.86,2.11,2.11,0,0,1-.14,1l-.92,1.17A8.83,8.83,0,0,0,19,14.67c.12-.18.36-.32.25-.59,0-.12-.24-.11-.34,0s-.15.4,0,.63c-.7.65-1.7,1.08-1.65,2.27l0,0v0h0a2.28,2.28,0,0,1,.11.35l-.33.46a1.65,1.65,0,0,1-.33-.05c-.76.44-1.6.82-1.46,1.93,0,.26-.17.31-.41.33-1.27.11-.91,1.29-1.35,1.94.69-.14.8-.94,1.38-1.08l-1.16,1.73a2.74,2.74,0,0,1-1,.17c-.22,0-.33.31-.42.53a10.82,10.82,0,0,1-1.55,2.83c-.22.25-.39.48-.14.83-.28.28-.51.6-.8.85-.53.46-1.1.81-.85,1.76a1.27,1.27,0,0,1-.56,1.42,2.06,2.06,0,0,0-1.32,2.39c0,.19.16.49-.16.48-1,0-.8.78-1,1.26-.63,1.19-1.09,2.46-1.71,3.66-.52,1-.37,2.18-1.16,3.05-.44.52.91.08.48.59-.22.27-.72.25-1,.57a.92.92,0,0,0-.15.43c-.31,1.31-.1,2.71-.72,3.94-.14.3-.25.65.4.65l0,0h0c-.17.59-1.23.79-1,1.49.3,1.12-.35,2-.53,3a2,2,0,0,0,.07,1v0c-.28,1.05,0,2.14-.31,3.2a3.14,3.14,0,0,0,.2,2.87A1,1,0,0,1,.35,61c-.16.14-.3.76.43.42A.56.56,0,0,1,1,61.37c0,.17,0,.33.06.49a2.3,2.3,0,0,1-.36.74,1.34,1.34,0,0,0,.45,2h0a3.28,3.28,0,0,1,.54,1c0,.17.07.34.12.51a5.76,5.76,0,0,1-.18,2,1.28,1.28,0,0,0,.26.89,46.22,46.22,0,0,0,2.35,4.79c.75.89.6,2.11,1.27,3,.23.27.38.36.71.11a5.78,5.78,0,0,0,1.35,2.26A8,8,0,0,1,9.3,81.31c0,.09.19.13.3.18a2.27,2.27,0,0,1,1.21,1.09,8.69,8.69,0,0,0,.84,1.15,13.44,13.44,0,0,0,1.06.94c.74.6,1.49,1.18,2.27,1.72a10.22,10.22,0,0,0,1.49.72c.35.19.4-.1.5-.35,0,0-.06-.06-.09-.09l.11.06v0a4.15,4.15,0,0,0,1.32,1.07c.06.66.57.86,1,1.11.2.12.52-.1.33-.28a1.8,1.8,0,0,1-.32-.7l.73.33a1.5,1.5,0,0,0,.37.46,9.6,9.6,0,0,0,2.65,1.43,8.83,8.83,0,0,0,2.12.55,9.12,9.12,0,0,1,2.13.41c.35.14.53-.16.21-.54-.06-.07-.15-.12-.21-.19l1,.13.4.24a9,9,0,0,0,.91.35,7.1,7.1,0,0,0,2,.38c.89,0,1.69-.47,2.59-.4a2.13,2.13,0,0,0,2.13-.68h.07a.87.87,0,0,0,.73.53,5.66,5.66,0,0,0,3.51-1.17l0-.07h.07a6.49,6.49,0,0,0,.89-.25v0h0v0a1.5,1.5,0,0,1,.15-.36c.46-.16.91-.33,1.36-.51l.59.07A2.28,2.28,0,0,0,45.84,88c.92-1.15,2.16-1.41,3.45-1.85a1.23,1.23,0,0,0,.52-.3c.19-.21.1-.42-.19-.44l-.54-.09.75-.55h0c1,.09,1.53-.62,2.26-1A10.48,10.48,0,0,0,54.19,82c.63-.64,1.12-1.39,1.72-2.05a9.41,9.41,0,0,0,2.19-3.27c.22-.89,1.1-1.43,1.59-2.22.19-.27.57-.7.1-.94s-.6.29-.8.58l-.91,1.46a.06.06,0,0,0,0,0c.46-.75.88-1.52,1.27-2.31a3.62,3.62,0,0,0,.43-.24c1.11-.57,1.22-1.8,1.66-2.77.62-1.22.42-2.7,1.33-3.85a1.13,1.13,0,0,0,.24-.68c0-.9,0-1.8.07-2.68a14.47,14.47,0,0,1,.58-2.6C62.89,59.37,63.49,58.39,63.71,57.36ZM53.38,26.8c.14.26.31.52,0,.85a.37.37,0,0,1-.2-.08C53,27.3,53.29,27.06,53.38,26.8ZM1,63.55H.9a.55.55,0,0,1,0-.18H1C1,63.44,1,63.5,1,63.55Zm.27,1,0,0,.05-.12S1.3,64.48,1.28,64.51ZM44.52,88.22a1,1,0,0,1-.19-.08c.05,0,.08-.13.14-.15s.15.05.12.15S44.54,88.23,44.52,88.22ZM57.77,36.44s0,0,0,0v0Zm-1.92-4.52c.07,0,.21.11.26.21a.3.3,0,0,1,0,.43h-.14l-.24-.49C55.69,32,55.74,32,55.85,31.92ZM42,11.29s.07,0,.1,0a.22.22,0,0,1,0,.11s-.07.05-.1,0S42,11.36,42,11.29ZM40.42,9.2c.19.08.33.21.27.44a.17.17,0,0,1-.2.11c-.07-.08-.13-.16-.2-.23A.42.42,0,0,1,40.42,9.2ZM39,7.39a1.16,1.16,0,0,1,0,.18s-.1,0-.1,0a.77.77,0,0,1-.07-.16Zm-1-.76c.22,0,.43.22.26.42,0,0,0,.08-.07.13l-.49-.56A.6.6,0,0,1,38.08,6.63Zm-1-.85-.37-.41A.65.65,0,0,1,37,5.78ZM34,2.16c0,.17.11.32.16.49l-.31-.32A.31.31,0,0,1,34,2.16ZM28.25,4a.45.45,0,0,1,.39-.26l-.56.6A1.54,1.54,0,0,1,28.25,4ZM26.3,6.17c.22-.25.37-.6.72-.67-.22.23-.44.48-.66.73ZM11,26.91a.32.32,0,0,1-.3,0A.25.25,0,0,1,11,26.91ZM9.83,28.75l.16-.12-.24.42A.42.42,0,0,1,9.83,28.75Zm-1.61,3s0,0,.07,0L8.17,32h0c-.05,0-.12-.07-.18-.11ZM6.54,35.09c.08-.17.13-.39.31-.47l-.26.57-.25.13a.28.28,0,0,1,0-.09C6.31,35.1,6.41,35.08,6.54,35.09ZM5.41,37.47v.1l-.09-.06ZM1.8,49.2h0v0h0Zm-1,8.2a.28.28,0,0,1,.14-.16c0,.24,0,.49,0,.74s0,.64,0,1A2.59,2.59,0,0,1,.76,57.4Zm1.63,11a.59.59,0,0,1,.06-.14c.08.28.17.56.26.83C2.4,69,2.2,68.82,2.39,68.43Zm3.91,8.1h0a3.13,3.13,0,0,0,.2.3,2.07,2.07,0,0,1-.25.15C6.19,76.83,6,76.69,6.3,76.53Zm8.13,8.65s.09,0,.15.06-.13.1-.17.09S14.34,85.2,14.43,85.18Zm.2.06h0l.7.48A1.91,1.91,0,0,1,14.63,85.24Zm9.14,4.38.62.17C24.09,89.89,23.89,89.83,23.77,89.62Zm1.69.43.49.1C25.83,90.3,25.63,90.19,25.46,90.05Zm11.84.23h-.21l.18,0Zm15.14-7.74h0l.28-.26C52.63,82.39,52.55,82.52,52.44,82.54Zm.34-.32a.45.45,0,0,1,.49-.1h0C53.13,82.23,53,82.42,52.78,82.22Zm1.79-1.82s-.08,0-.12.07l.37-.41a.26.26,0,0,1,.21,0s0,.08,0,.11C55,80.41,54.78,80.42,54.57,80.4Zm1.82-2.32.2-.26A.73.73,0,0,1,56.39,78.08Zm1.68-2.42a.74.74,0,0,1-.25,1,.2.2,0,0,1-.29-.16h0c.15-.23.29-.47.44-.71Zm2.51-5.11.1-.17C60.85,70.56,60.65,70.52,60.58,70.55ZM63,53.74a.41.41,0,0,1-.26.52c0-.43-.07-.85-.12-1.27.16.26.11.6.41.76Z"/>
            <path class="cls-1" d="M17,86.76v0s0,0,0,0h0Z"/>
            <path class="cls-1" d="M44.78,15.05s0,0,0,0a0,0,0,0,0,0,0h0Z"/>
            <path class="cls-1" d="M32.1.6v0h0Z"/>
            <path class="cls-1" d="M32.29,0l0,0V0Z"/>
            <path class="cls-1" d="M41.66,10.29h0Z"/>
            <path class="cls-1" d="M51,22.66l-.74-1.12C50.08,22.34,50.7,22.39,51,22.66Z"/>
            <path class="cls-1"
                  d="M42.25,89.8c.28,0,.52-.11.48-.38-.07-.47-.35-.17-.54-.14a5,5,0,0,0-.63.18C41.71,89.81,42,89.78,42.25,89.8Z"/>
            <path class="cls-1" d="M16.69,17.68v0h0Z"/>
            <path class="cls-1" d="M16.33,17.15c-.15.33.17.39.36.53l.55-.75C16.84,16.77,16.51,16.78,16.33,17.15Z"/>
            <path class="cls-1"
                  d="M20.35,12.74c0-.06.08-.19,0-.28a.18.18,0,0,0-.32,0,.38.38,0,0,0-.08.32C20.05,12.88,20.2,12.88,20.35,12.74Z"/>
            <path class="cls-1" d="M59.58,38.82s0-.07,0-.11l-.09,0s0,.09,0,.11S59.57,38.94,59.58,38.82Z"/>
        </g>
    </g>
</svg>