<svg width="32" height="33" viewBox="0 0 32 33" fill="none" xmlns="http://www.w3.org/2000/svg">
<path d="M3.14648 9.66664C3.11007 7.43073 3.94064 5.26753 5.46408 3.63054C6.98753 1.99354 9.08554 1.00987 11.3183 0.88573C13.5511 0.761592 15.7452 1.50663 17.4407 2.96465C19.1362 4.42268 20.2015 6.48047 20.4132 8.70664C20.4265 8.83578 20.478 8.95803 20.5611 9.05777C20.6442 9.15751 20.7552 9.23023 20.8798 9.26664C22.1118 9.63839 23.1916 10.3964 23.9599 11.4288C24.7282 12.4611 25.1442 13.7131 25.1465 15V15.6666C25.1465 16.0203 25.006 16.3594 24.756 16.6094C24.5059 16.8595 24.1668 17 23.8132 17H14.4798C14.1262 17 13.7871 16.8595 13.537 16.6094C13.287 16.3594 13.1465 16.0203 13.1465 15.6666V15C13.1484 13.7439 13.5444 12.5201 14.2788 11.501C15.0132 10.482 16.0488 9.71912 17.2398 9.31997C17.3934 9.27337 17.5239 9.17075 17.6054 9.03245C17.6869 8.89414 17.7135 8.73026 17.6798 8.5733C17.4004 7.1125 16.5873 5.80801 15.3988 4.91389C14.2103 4.01978 12.7315 3.60007 11.2505 3.73653C9.76947 3.87298 8.39229 4.55582 7.38716 5.65204C6.38202 6.74827 5.82093 8.17938 5.81315 9.66664V31.6666C5.81315 32.0203 5.67267 32.3594 5.42262 32.6094C5.17258 32.8595 4.83344 33 4.47982 33C4.1262 33 3.78706 32.8595 3.53701 32.6094C3.28696 32.3594 3.14648 32.0203 3.14648 31.6666V9.66664Z" fill="#59B9FF"/>
<path d="M19.6932 27.9599C20.3948 28.8543 20.891 29.8922 21.1465 30.9999C21.1465 31.5303 20.9358 32.039 20.5607 32.4141C20.1856 32.7892 19.6769 32.9999 19.1465 32.9999C18.6161 32.9999 18.1073 32.7892 17.7323 32.4141C17.3572 32.039 17.1465 31.5303 17.1465 30.9999C17.402 29.8922 17.8982 28.8543 18.5998 27.9599C18.6647 27.8768 18.7476 27.8095 18.8423 27.7633C18.937 27.717 19.0411 27.693 19.1465 27.693C19.2519 27.693 19.3559 27.717 19.4507 27.7633C19.5454 27.8095 19.6283 27.8768 19.6932 27.9599Z" fill="#59B9FF"/>
<path d="M19.6932 19.9599C20.3948 20.8543 20.891 21.8922 21.1465 22.9999C21.1465 23.5303 20.9358 24.039 20.5607 24.4141C20.1856 24.7892 19.6769 24.9999 19.1465 24.9999C18.6161 24.9999 18.1073 24.7892 17.7323 24.4141C17.3572 24.039 17.1465 23.5303 17.1465 22.9999C17.402 21.8922 17.8982 20.8543 18.5998 19.9599C18.6647 19.8768 18.7476 19.8095 18.8423 19.7633C18.937 19.717 19.0411 19.693 19.1465 19.693C19.2519 19.693 19.3559 19.717 19.4507 19.7633C19.5454 19.8095 19.6283 19.8768 19.6932 19.9599Z" fill="#59B9FF"/>
<path d="M26.1067 27.4799C26.2081 27.4649 26.3117 27.474 26.409 27.5064C26.5063 27.5389 26.5945 27.5937 26.6667 27.6666C27.5689 28.3841 28.2981 29.2955 28.8 30.3333C28.8796 30.8349 28.7653 31.3481 28.4803 31.7686C28.1953 32.189 27.7611 32.4853 27.2656 32.5973C26.7702 32.7093 26.2507 32.6286 25.8126 32.3715C25.3745 32.1145 25.0506 31.7004 24.9067 31.2133C24.9068 30.0793 25.1572 28.9593 25.64 27.9333C25.6726 27.8241 25.7326 27.7252 25.8143 27.6458C25.896 27.5665 25.9967 27.5094 26.1067 27.4799Z" fill="#59B9FF"/>
<path d="M24.3334 19.6666C24.4388 19.6414 24.5489 19.6429 24.6536 19.6708C24.7584 19.6987 24.8545 19.7523 24.9334 19.8266C25.8173 20.5522 26.5318 21.4624 27.0267 22.4933C27.1434 23.0114 27.0495 23.5546 26.7657 24.0034C26.4819 24.4522 26.0315 24.7699 25.5134 24.8866C24.9953 25.0033 24.4521 24.9095 24.0033 24.6257C23.5545 24.3418 23.2368 23.8914 23.1201 23.3733C23.1263 22.2343 23.3812 21.1103 23.8667 20.08C23.9049 19.9783 23.9674 19.8874 24.0488 19.8154C24.1301 19.7434 24.2278 19.6923 24.3334 19.6666Z" fill="#59B9FF"/>
<path d="M11.5869 27.6666C11.6675 27.5952 11.7638 27.5435 11.8679 27.5157C11.9721 27.4879 12.0813 27.4848 12.1869 27.5066C12.2924 27.5323 12.3901 27.5834 12.4715 27.6554C12.5528 27.7274 12.6153 27.8183 12.6535 27.92C13.1137 28.9422 13.3458 30.0524 13.3335 31.1733C13.1513 31.6024 12.8249 31.9543 12.4107 32.1683C11.9966 32.3823 11.5207 32.4449 11.0653 32.3453C10.6099 32.2456 10.2036 31.9901 9.9166 31.6227C9.62962 31.2554 9.47997 30.7993 9.49353 30.3333C9.98847 29.3024 10.7029 28.3922 11.5869 27.6666Z" fill="#59B9FF"/>
<path d="M12.7733 24.88C12.2594 24.7591 11.8136 24.4413 11.5318 23.9949C11.25 23.5485 11.1548 23.0092 11.2667 22.4933C11.7659 21.4651 12.4797 20.5558 13.36 19.8266C13.4389 19.7523 13.535 19.6987 13.6398 19.6708C13.7445 19.6429 13.8546 19.6414 13.96 19.6666C14.0642 19.691 14.161 19.74 14.2422 19.8097C14.3234 19.8793 14.3867 19.9674 14.4267 20.0666C14.9122 21.097 15.1671 22.2209 15.1733 23.36C15.1183 23.6188 15.012 23.864 14.8609 24.0813C14.7097 24.2985 14.5167 24.4833 14.2931 24.6249C14.0696 24.7665 13.82 24.862 13.559 24.9058C13.298 24.9496 13.0309 24.9408 12.7733 24.88Z" fill="#59B9FF"/>
</svg>
