<svg width="16" height="16" viewBox="0 0 16 16" fill="none" xmlns="http://www.w3.org/2000/svg">
<g clip-path="url(#clip0_9253_1061)">
<path d="M13.6697 11.5001C13.6697 11.5001 13.6697 11.5301 13.6697 11.5401C13.6722 11.555 13.6722 11.5702 13.6697 11.5851L12.9797 15.5851C12.9601 15.6991 12.9015 15.8028 12.814 15.8785C12.7264 15.9542 12.6154 15.9972 12.4997 16.0001H12.3997C12.335 15.9881 12.2732 15.9634 12.218 15.9275C12.1629 15.8915 12.1153 15.8451 12.0782 15.7907C12.041 15.7364 12.0149 15.6752 12.0015 15.6107C11.988 15.5463 11.9874 15.4798 11.9997 15.4151L12.6797 11.4601V8.5001C12.6669 8.36778 12.6052 8.24497 12.5068 8.15562C12.4083 8.06627 12.2801 8.01677 12.1472 8.01677C12.0143 8.01677 11.8861 8.06627 11.7876 8.15562C11.6892 8.24497 11.6275 8.36778 11.6147 8.5001V11.5001C11.6147 11.6327 11.562 11.7599 11.4683 11.8537C11.3745 11.9474 11.2473 12.0001 11.1147 12.0001C10.9821 12.0001 10.8549 11.9474 10.7611 11.8537C10.6674 11.7599 10.6147 11.6327 10.6147 11.5001V7.16511C10.6147 7.02321 10.5583 6.88714 10.458 6.7868C10.3577 6.68647 10.2216 6.63011 10.0797 6.63011C9.93781 6.63011 9.80173 6.68647 9.7014 6.7868C9.60107 6.88714 9.5447 7.02321 9.5447 7.16511V11.5001C9.5447 11.6327 9.49202 11.7599 9.39825 11.8537C9.30449 11.9474 9.17731 12.0001 9.0447 12.0001C8.91209 12.0001 8.78491 11.9474 8.69115 11.8537C8.59738 11.7599 8.5447 11.6327 8.5447 11.5001V5.8351C8.5447 5.69321 8.48833 5.55714 8.388 5.4568C8.28767 5.35647 8.15159 5.30011 8.0097 5.30011C7.86781 5.30011 7.73173 5.35647 7.6314 5.4568C7.53107 5.55714 7.4747 5.69321 7.4747 5.8351V11.5001C7.4747 11.5001 7.4747 11.5351 7.4747 11.5501C7.47705 11.5834 7.47705 11.6168 7.4747 11.6501C7.46607 11.6796 7.45434 11.7081 7.4397 11.7351C7.42427 11.7637 7.40583 11.7905 7.3847 11.8151C7.36392 11.8409 7.34046 11.8643 7.3147 11.8851L7.2747 11.9201L6.2747 12.5551H6.2197L6.1747 12.5801C6.12469 12.5973 6.07252 12.6074 6.0197 12.6101C5.9652 12.6079 5.91131 12.5978 5.8597 12.5801H5.8247C5.7712 12.5571 5.72213 12.525 5.6797 12.4851L4.6097 11.5001C4.50296 11.4031 4.36391 11.3494 4.2197 11.3494C4.07548 11.3494 3.93644 11.4031 3.8297 11.5001C3.74036 11.5928 3.69021 11.7164 3.6897 11.8451C3.68997 11.9113 3.70337 11.9767 3.72912 12.0376C3.75487 12.0986 3.79246 12.1538 3.8397 12.2001L6.6897 15.1501C6.78282 15.2438 6.8351 15.3705 6.8351 15.5026C6.8351 15.6347 6.78282 15.7614 6.6897 15.8551C6.59701 15.9444 6.47343 15.9946 6.3447 15.9951C6.27735 15.9948 6.21074 15.981 6.14888 15.9544C6.08702 15.9277 6.03117 15.8889 5.9847 15.8401L3.1297 12.9051C2.8488 12.6239 2.69102 12.2426 2.69102 11.8451C2.69102 11.4476 2.8488 11.0664 3.1297 10.7851C3.42547 10.5149 3.81159 10.3651 4.2122 10.3651C4.6128 10.3651 4.99893 10.5149 5.2947 10.7851L6.0497 11.5001L6.4647 11.2301V5.8351C6.47719 5.44227 6.6399 5.0692 6.91928 4.79276C7.19866 4.51632 7.57344 4.35758 7.96638 4.34925C8.35932 4.34092 8.74049 4.48363 9.03134 4.74797C9.32219 5.01232 9.50056 5.37816 9.5297 5.7701C9.70169 5.70212 9.88477 5.66652 10.0697 5.6651C10.4608 5.65822 10.8392 5.8044 11.124 6.07247C11.4089 6.34054 11.5778 6.70929 11.5947 7.10011C11.7693 7.03572 11.9536 7.00189 12.1397 7.00011C12.3392 6.99611 12.5375 7.03197 12.7229 7.10556C12.9084 7.17915 13.0773 7.28901 13.2198 7.4287C13.3623 7.56838 13.4755 7.73509 13.5527 7.91907C13.63 8.10304 13.6697 8.30057 13.6697 8.5001V11.5001ZM7.6697 3.3351C8.06263 3.33249 8.44957 3.43148 8.79298 3.62246C9.1364 3.81343 9.42462 4.08992 9.6297 4.42511C9.7025 4.52521 9.80985 4.59475 9.93097 4.62028C10.0521 4.6458 10.1784 4.62549 10.2854 4.56328C10.3924 4.50106 10.4725 4.40137 10.5103 4.28348C10.548 4.1656 10.5407 4.0379 10.4897 3.9251C10.1937 3.44324 9.77895 3.0454 9.28521 2.76964C8.79147 2.49388 8.23523 2.34943 7.6697 2.3501C6.81822 2.33536 5.99556 2.65853 5.38178 3.24888C4.768 3.83923 4.41308 4.64869 4.3947 5.5001C4.39605 6.05998 4.54803 6.60918 4.8347 7.09011C4.87895 7.16474 4.94187 7.22658 5.01726 7.26954C5.09265 7.31249 5.17793 7.33509 5.2647 7.33511C5.35444 7.33508 5.44252 7.3109 5.5197 7.26511C5.57683 7.23161 5.62674 7.1871 5.66652 7.13415C5.70631 7.08121 5.73518 7.02089 5.75146 6.95669C5.76775 6.8925 5.77111 6.82571 5.76137 6.7602C5.75162 6.6947 5.72896 6.63178 5.6947 6.57511C5.49887 6.25069 5.39515 5.87904 5.3947 5.5001C5.40782 4.91349 5.65317 4.35604 6.07688 3.95014C6.5006 3.54423 7.06806 3.32304 7.6547 3.3351H7.6697ZM3.4997 8.3251C3.58991 8.32357 3.67802 8.29765 3.7547 8.2501C3.86789 8.18164 3.94933 8.07111 3.98119 7.94272C4.01305 7.81433 3.99274 7.67855 3.9247 7.56511C3.61408 7.03115 3.4213 6.4369 3.35932 5.82228C3.29733 5.20766 3.36758 4.58689 3.56533 4.00167C3.76308 3.41644 4.08377 2.8803 4.50585 2.42924C4.92793 1.97819 5.44164 1.62268 6.01248 1.38657C6.58331 1.15046 7.19806 1.03923 7.81543 1.06034C8.43281 1.08145 9.03852 1.23441 9.5919 1.50896C10.1453 1.78351 10.6335 2.17329 11.0238 2.65211C11.4141 3.13094 11.6974 3.68773 11.8547 4.2851C11.8866 4.41368 11.9683 4.52434 12.0817 4.59277C12.1951 4.66121 12.3311 4.68183 12.4597 4.6501C12.5883 4.61819 12.6989 4.53655 12.7674 4.42312C12.8358 4.30969 12.8564 4.17373 12.8247 4.0451C12.6372 3.3041 12.2924 2.61215 11.8136 2.01627C11.3349 1.4204 10.7335 0.934569 10.0503 0.591803C9.36713 0.249037 8.61815 0.0573693 7.85429 0.0298258C7.09043 0.00228239 6.32959 0.139509 5.62348 0.432179C4.91737 0.724849 4.28255 1.1661 3.76215 1.72595C3.24175 2.2858 2.84798 2.95112 2.60759 3.67669C2.36721 4.40227 2.28585 5.17109 2.36903 5.93091C2.45222 6.69073 2.69801 7.42373 3.0897 8.0801C3.13218 8.1519 3.19194 8.21193 3.26355 8.25473C3.33517 8.29752 3.41635 8.32171 3.4997 8.3251Z" fill="#3D466C"/>
</g>
<defs>
<clipPath id="clip0_9253_1061">
<rect width="16" height="16" fill="white"/>
</clipPath>
</defs>
</svg>
