<svg width="200" height="200" viewBox="0 0 200 200" fill="none" xmlns="http://www.w3.org/2000/svg">
<mask id="mask0_2524_31249" style="mask-type:alpha" maskUnits="userSpaceOnUse" x="0" y="0" width="200" height="200">
<circle cx="100" cy="100" r="100" fill="#F8F9FA"/>
</mask>
<g mask="url(#mask0_2524_31249)">
<circle cx="100" cy="100" r="100" fill="#E8F3FF"/>
<mask id="mask1_2524_31249" style="mask-type:alpha" maskUnits="userSpaceOnUse" x="0" y="0" width="200" height="200">
<circle cx="100" cy="100" r="100" fill="#F8F9FA"/>
</mask>
<g mask="url(#mask1_2524_31249)">
<ellipse cx="100" cy="156.5" rx="152" ry="68.5" fill="#C7DFFF"/>
</g>
<g clip-path="url(#clip0_2524_31249)">
<rect y="81.6667" width="200" height="36.6667" fill="#B5C2D1"/>
<rect opacity="0.15" x="3.3335" y="105" width="193.333" height="10" fill="white"/>
<rect x="20" y="70" width="160" height="63.3333" rx="11.6667" fill="#CE1C04"/>
<path d="M166.667 100C166.667 136.828 136.828 166.667 100 166.667C63.1726 166.667 33.3335 136.828 33.3335 100C33.3335 63.1727 63.1726 33.3335 100 33.3335C136.828 33.3335 166.667 63.1727 166.667 100Z" fill="#EB2004"/>
<g filter="url(#filter0_i_2524_31249)">
<path d="M158.333 99.9998C158.333 132.198 132.236 158.333 99.9998 158.333C67.764 158.333 41.6665 132.236 41.6665 99.9998C41.6665 67.764 67.764 41.6665 99.9998 41.6665C132.236 41.6665 158.333 67.764 158.333 99.9998Z" fill="white"/>
</g>
<path d="M65.8567 111.5L65.285 109.832H62.0067L61.435 111.5H60.0933L63.1383 103.194H64.1533L67.1983 111.5H65.8567ZM63.675 105.072L62.38 108.759H64.935L63.675 105.072ZM70.2433 111.5V104.489L68.6217 105.912V104.594L70.2433 103.194H71.4333V111.5H70.2433ZM76.464 111.5V104.489L74.8424 105.912V104.594L76.464 103.194H77.654V111.5H76.464ZM85.5897 111.5L85.0181 109.832H81.7397L81.1681 111.5H79.8264L82.8714 103.194H83.8864L86.9314 111.5H85.5897ZM83.4081 105.072L82.1131 108.759H84.6681L83.4081 105.072ZM92.8814 111.5L92.3097 109.832H89.0314L88.4597 111.5H87.1181L90.1631 103.194H91.1781L94.2231 111.5H92.8814ZM90.6997 105.072L89.4047 108.759H91.9597L90.6997 105.072ZM65.5067 121.19C65.5067 121.564 65.4406 121.898 65.3083 122.194C65.1839 122.481 65.0128 122.73 64.795 122.94C64.5772 123.142 64.3206 123.298 64.025 123.407C63.7372 123.516 63.43 123.57 63.1033 123.57C62.7767 123.57 62.4656 123.516 62.17 123.407C61.8822 123.298 61.6294 123.142 61.4117 122.94C61.1939 122.73 61.0228 122.481 60.8983 122.194C60.7739 121.898 60.7117 121.564 60.7117 121.19V117.504C60.7117 117.13 60.7739 116.8 60.8983 116.512C61.0228 116.216 61.1939 115.967 61.4117 115.765C61.6294 115.555 61.8822 115.396 62.17 115.287C62.4656 115.178 62.7767 115.124 63.1033 115.124C63.43 115.124 63.7372 115.178 64.025 115.287C64.3206 115.396 64.5772 115.555 64.795 115.765C65.0128 115.967 65.1839 116.216 65.3083 116.512C65.4406 116.8 65.5067 117.13 65.5067 117.504V121.19ZM64.3167 117.539C64.3167 117.134 64.2078 116.807 63.99 116.559C63.78 116.31 63.4844 116.185 63.1033 116.185C62.7222 116.185 62.4267 116.31 62.2167 116.559C62.0067 116.807 61.9017 117.134 61.9017 117.539V121.155C61.9017 121.56 62.0067 121.886 62.2167 122.135C62.4267 122.384 62.7222 122.509 63.1033 122.509C63.4844 122.509 63.78 122.384 63.99 122.135C64.2078 121.886 64.3167 121.56 64.3167 121.155V117.539ZM71.7274 121.19C71.7274 121.564 71.6613 121.898 71.529 122.194C71.4046 122.481 71.2335 122.73 71.0157 122.94C70.7979 123.142 70.5413 123.298 70.2457 123.407C69.9579 123.516 69.6507 123.57 69.324 123.57C68.9974 123.57 68.6863 123.516 68.3907 123.407C68.1029 123.298 67.8501 123.142 67.6324 122.94C67.4146 122.73 67.2435 122.481 67.119 122.194C66.9946 121.898 66.9324 121.564 66.9324 121.19V117.504C66.9324 117.13 66.9946 116.8 67.119 116.512C67.2435 116.216 67.4146 115.967 67.6324 115.765C67.8501 115.555 68.1029 115.396 68.3907 115.287C68.6863 115.178 68.9974 115.124 69.324 115.124C69.6507 115.124 69.9579 115.178 70.2457 115.287C70.5413 115.396 70.7979 115.555 71.0157 115.765C71.2335 115.967 71.4046 116.216 71.529 116.512C71.6613 116.8 71.7274 117.13 71.7274 117.504V121.19ZM70.5374 117.539C70.5374 117.134 70.4285 116.807 70.2107 116.559C70.0007 116.31 69.7051 116.185 69.324 116.185C68.9429 116.185 68.6474 116.31 68.4374 116.559C68.2274 116.807 68.1224 117.134 68.1224 117.539V121.155C68.1224 121.56 68.2274 121.886 68.4374 122.135C68.6474 122.384 68.9429 122.509 69.324 122.509C69.7051 122.509 70.0007 122.384 70.2107 122.135C70.4285 121.886 70.5374 121.56 70.5374 121.155V117.539ZM77.9481 121.19C77.9481 121.564 77.882 121.898 77.7497 122.194C77.6253 122.481 77.4542 122.73 77.2364 122.94C77.0186 123.142 76.762 123.298 76.4664 123.407C76.1786 123.516 75.8714 123.57 75.5447 123.57C75.2181 123.57 74.907 123.516 74.6114 123.407C74.3236 123.298 74.0709 123.142 73.8531 122.94C73.6353 122.73 73.4642 122.481 73.3397 122.194C73.2153 121.898 73.1531 121.564 73.1531 121.19V117.504C73.1531 117.13 73.2153 116.8 73.3397 116.512C73.4642 116.216 73.6353 115.967 73.8531 115.765C74.0709 115.555 74.3236 115.396 74.6114 115.287C74.907 115.178 75.2181 115.124 75.5447 115.124C75.8714 115.124 76.1786 115.178 76.4664 115.287C76.762 115.396 77.0186 115.555 77.2364 115.765C77.4542 115.967 77.6253 116.216 77.7497 116.512C77.882 116.8 77.9481 117.13 77.9481 117.504V121.19ZM76.7581 117.539C76.7581 117.134 76.6492 116.807 76.4314 116.559C76.2214 116.31 75.9259 116.185 75.5447 116.185C75.1636 116.185 74.8681 116.31 74.6581 116.559C74.4481 116.807 74.3431 117.134 74.3431 117.539V121.155C74.3431 121.56 74.4481 121.886 74.6581 122.135C74.8681 122.384 75.1636 122.509 75.5447 122.509C75.9259 122.509 76.2214 122.384 76.4314 122.135C76.6492 121.886 76.7581 121.56 76.7581 121.155V117.539ZM84.1688 121.19C84.1688 121.564 84.1027 121.898 83.9704 122.194C83.846 122.481 83.6749 122.73 83.4571 122.94C83.2393 123.142 82.9827 123.298 82.6871 123.407C82.3993 123.516 82.0921 123.57 81.7654 123.57C81.4388 123.57 81.1277 123.516 80.8321 123.407C80.5443 123.298 80.2916 123.142 80.0738 122.94C79.856 122.73 79.6849 122.481 79.5604 122.194C79.436 121.898 79.3738 121.564 79.3738 121.19V117.504C79.3738 117.13 79.436 116.8 79.5604 116.512C79.6849 116.216 79.856 115.967 80.0738 115.765C80.2916 115.555 80.5443 115.396 80.8321 115.287C81.1277 115.178 81.4388 115.124 81.7654 115.124C82.0921 115.124 82.3993 115.178 82.6871 115.287C82.9827 115.396 83.2393 115.555 83.4571 115.765C83.6749 115.967 83.846 116.216 83.9704 116.512C84.1027 116.8 84.1688 117.13 84.1688 117.504V121.19ZM82.9788 117.539C82.9788 117.134 82.8699 116.807 82.6521 116.559C82.4421 116.31 82.1466 116.185 81.7654 116.185C81.3843 116.185 81.0888 116.31 80.8788 116.559C80.6688 116.807 80.5638 117.134 80.5638 117.539V121.155C80.5638 121.56 80.6688 121.886 80.8788 122.135C81.0888 122.384 81.3843 122.509 81.7654 122.509C82.1466 122.509 82.4421 122.384 82.6521 122.135C82.8699 121.886 82.9788 121.56 82.9788 121.155V117.539ZM90.3895 121.19C90.3895 121.564 90.3234 121.898 90.1911 122.194C90.0667 122.481 89.8956 122.73 89.6778 122.94C89.46 123.142 89.2034 123.298 88.9078 123.407C88.62 123.516 88.3128 123.57 87.9861 123.57C87.6595 123.57 87.3484 123.516 87.0528 123.407C86.765 123.298 86.5123 123.142 86.2945 122.94C86.0767 122.73 85.9056 122.481 85.7811 122.194C85.6567 121.898 85.5945 121.564 85.5945 121.19V117.504C85.5945 117.13 85.6567 116.8 85.7811 116.512C85.9056 116.216 86.0767 115.967 86.2945 115.765C86.5123 115.555 86.765 115.396 87.0528 115.287C87.3484 115.178 87.6595 115.124 87.9861 115.124C88.3128 115.124 88.62 115.178 88.9078 115.287C89.2034 115.396 89.46 115.555 89.6778 115.765C89.8956 115.967 90.0667 116.216 90.1911 116.512C90.3234 116.8 90.3895 117.13 90.3895 117.504V121.19ZM89.1995 117.539C89.1995 117.134 89.0906 116.807 88.8728 116.559C88.6628 116.31 88.3673 116.185 87.9861 116.185C87.605 116.185 87.3095 116.31 87.0995 116.559C86.8895 116.807 86.7845 117.134 86.7845 117.539V121.155C86.7845 121.56 86.8895 121.886 87.0995 122.135C87.3095 122.384 87.605 122.509 87.9861 122.509C88.3673 122.509 88.6628 122.384 88.8728 122.135C89.0906 121.886 89.1995 121.56 89.1995 121.155V117.539ZM96.6102 121.19C96.6102 121.564 96.5441 121.898 96.4118 122.194C96.2874 122.481 96.1163 122.73 95.8985 122.94C95.6807 123.142 95.4241 123.298 95.1285 123.407C94.8407 123.516 94.5335 123.57 94.2068 123.57C93.8802 123.57 93.5691 123.516 93.2735 123.407C92.9857 123.298 92.733 123.142 92.5152 122.94C92.2974 122.73 92.1263 122.481 92.0018 122.194C91.8774 121.898 91.8152 121.564 91.8152 121.19V117.504C91.8152 117.13 91.8774 116.8 92.0018 116.512C92.1263 116.216 92.2974 115.967 92.5152 115.765C92.733 115.555 92.9857 115.396 93.2735 115.287C93.5691 115.178 93.8802 115.124 94.2068 115.124C94.5335 115.124 94.8407 115.178 95.1285 115.287C95.4241 115.396 95.6807 115.555 95.8985 115.765C96.1163 115.967 96.2874 116.216 96.4118 116.512C96.5441 116.8 96.6102 117.13 96.6102 117.504V121.19ZM95.4202 117.539C95.4202 117.134 95.3113 116.807 95.0935 116.559C94.8835 116.31 94.588 116.185 94.2068 116.185C93.8257 116.185 93.5302 116.31 93.3202 116.559C93.1102 116.807 93.0052 117.134 93.0052 117.539V121.155C93.0052 121.56 93.1102 121.886 93.3202 122.135C93.5302 122.384 93.8257 122.509 94.2068 122.509C94.588 122.509 94.8835 122.384 95.0935 122.135C95.3113 121.886 95.4202 121.56 95.4202 121.155V117.539Z" fill="#04103D"/>
<g clip-path="url(#clip1_2524_31249)">
<path d="M140.829 112.5C140.829 120.784 134.114 127.5 125.83 127.5C117.546 127.5 110.831 120.784 110.831 112.5C110.831 104.216 117.546 97.5001 125.83 97.5001C134.114 97.5001 140.829 104.216 140.829 112.5Z" stroke="#D2DBE8" stroke-width="1.66667"/>
<path d="M125.831 98.3335V126.667" stroke="#D2DBE8" stroke-width="0.833333" stroke-linecap="round"/>
<path d="M139.998 112.5L111.664 112.5" stroke="#D2DBE8" stroke-width="0.833333" stroke-linecap="round"/>
<path d="M135.848 122.517L115.813 102.483" stroke="#D2DBE8" stroke-width="0.833333" stroke-linecap="round"/>
<path d="M115.815 122.518L135.85 102.483" stroke="#D2DBE8" stroke-width="0.833333" stroke-linecap="round"/>
<path d="M138.328 112.502C138.328 119.391 132.716 125.004 125.828 125.004C118.939 125.004 113.328 119.391 113.328 112.502C113.328 105.612 118.939 100 125.828 100C132.716 100 138.328 105.612 138.328 112.502Z" fill="white"/>
<path d="M127.82 116.147C125.789 117.265 123.262 116.519 122.184 114.489C121.066 112.459 121.811 109.931 123.842 108.854C125.872 107.735 128.4 108.481 129.477 110.511C130.596 112.542 129.85 115.069 127.82 116.147Z" fill="#CE1C04"/>
<path d="M136.664 106.667L126.664 109.037L129.521 113.334L136.664 106.667Z" fill="#CE1C04"/>
</g>
<path d="M71.6665 70.0002H64.1665V85.0002H71.6665V70.0002Z" fill="#C2D3E6"/>
<path d="M80.8335 70.0002H73.3335V85.0002H80.8335V70.0002Z" fill="#C2D3E6"/>
<path d="M90 70.0002H82.5V85.0002H90V70.0002Z" fill="#C2D3E6"/>
<path d="M99.1665 70.0002H91.6665V85.0002H99.1665V70.0002Z" fill="#C2D3E6"/>
<path d="M108.333 70.0002H100.833V85.0002H108.333V70.0002Z" fill="#C2D3E6"/>
<path d="M117.5 70.0002H110V85.0002H117.5V70.0002Z" fill="#9DABBA"/>
<path d="M126.667 70.0002H119.167V85.0002H126.667V70.0002Z" fill="#9DABBA"/>
<path d="M135.833 70.0002H128.333V85.0002H135.833V70.0002Z" fill="#9DABBA"/>
<rect x="61.6668" y="67.5001" width="76.6667" height="20" stroke="#C2D3E5" stroke-width="1.66667"/>
<rect x="88.3335" y="141.667" width="23.3333" height="8.33333" rx="4.16667" fill="#C2D3E6"/>
<rect x="55.8333" y="97.5001" width="46.6667" height="30" stroke="#04103D" stroke-width="1.66667"/>
</g>
</g>
<defs>
<filter id="filter0_i_2524_31249" x="41.6665" y="41.6665" width="116.667" height="116.667" filterUnits="userSpaceOnUse" color-interpolation-filters="sRGB">
<feFlood flood-opacity="0" result="BackgroundImageFix"/>
<feBlend mode="normal" in="SourceGraphic" in2="BackgroundImageFix" result="shape"/>
<feColorMatrix in="SourceAlpha" type="matrix" values="0 0 0 0 0 0 0 0 0 0 0 0 0 0 0 0 0 0 127 0" result="hardAlpha"/>
<feOffset dy="2.68531"/>
<feComposite in2="hardAlpha" operator="arithmetic" k2="-1" k3="1"/>
<feColorMatrix type="matrix" values="0 0 0 0 0.321569 0 0 0 0 0.352941 0 0 0 0 0.380392 0 0 0 0.3 0"/>
<feBlend mode="normal" in2="shape" result="effect1_innerShadow_2524_31249"/>
</filter>
<clipPath id="clip0_2524_31249">
<rect width="200" height="200" fill="white"/>
</clipPath>
<clipPath id="clip1_2524_31249">
<rect width="31.6667" height="31.6667" fill="white" transform="translate(109.998 96.6667)"/>
</clipPath>
</defs>
</svg>
