<svg xmlns="http://www.w3.org/2000/svg" viewBox="0 0 1200 1200"><defs><style>.cls-1{fill:#fff;}.cls-2{fill:#f4f8ff;}.cls-3{fill:#767c97;}.cls-4{fill:#e5e5e5;}.cls-5{fill:#bbf9bc;}.cls-6{fill:#efefef;}</style></defs><title>e-mail success</title><g id="Calque_2" data-name="Calque 2"><g id="ëÎÓÈ_1" data-name="ëÎÓÈ 1"><rect class="cls-1" width="1200" height="1200"/><path class="cls-2" d="M360.08,1034.4c-21-4.58-273.16-45.81-254.6-349.91s41.86-395.56,139.9-429S581.74,63.69,768.74,214.23s388.81,285.56,308.73,525.93-93.19,320.56-302.12,308.29S459.87,1056.17,360.08,1034.4Z"/></g><g id="ëÎÓÈ_2" data-name="ëÎÓÈ 2"><path class="cls-3" d="M605.43,724.85c42-11.36,83.74-22.61,124.74-37.27,14.66-5.24,29.31-11,42.68-19.05,10.5-6.33,22.54-15.28,25.32-28,4.42-20.27-20.1-33.7-35.34-40-21.75-9-45.44-11.23-68.74-12.13-51-2-102.12,3.68-153-1-12.84-1.2-27.61-1.69-39.2-7.85a46.19,46.19,0,0,1-21.43-24.14c-9.35-24.85,8-47.08,26.06-62.33,2.5-2.11-1.38-3.62-3.18-2.1-14.53,12.28-29.21,28.2-30.39,48.23-1,17.32,9.12,33.89,24,42.39,8.9,5.09,18.89,6.35,28.9,7.68,12.23,1.62,24.54,2.55,36.87,3,24.91,1,49.84.14,74.75-.44,25.63-.59,51.41-1,77,1.38,22.63,2.15,47.64,7.49,66,21.77,8.42,6.56,16.1,16.88,12.35,28-2.05,6.11-6.59,11.17-11.42,15.26-12,10.17-27.08,16.62-41.6,22.26-44,17.11-89.63,28.83-135.11,41.13-3,.8-2.12,4,.86,3.19Z"/><rect class="cls-4" x="315" y="736.36" width="564.63" height="225.06" rx="63.99"/><rect class="cls-5" x="320.37" y="725.18" width="564.63" height="225.06" rx="63.99"/><path class="cls-3" d="M821.22,948.47H414.65c-9.85,0-19.71.08-29.56,0-34.92-.27-62.18-29.21-62.27-63.72-.06-24.59,0-49.19,0-73.78,0-7.79-.16-15.6,0-23.39a62.69,62.69,0,0,1,31.51-52.87c14-7.86,28.45-7.77,43.7-7.77H817.18a73.51,73.51,0,0,1,18.74,2,63.25,63.25,0,0,1,43.8,42c3.18,10.21,2.83,20.55,2.83,31.07v79c0,13.38-1.9,26.07-9,37.79a61.77,61.77,0,0,1-52.36,29.7c-2.75,0-3.72,3.56-.43,3.53,37.49-.41,66.66-31,66.66-68.12V806.07c0-9,.59-18.32-.77-27.21a66,66,0,0,0-33.88-47.59c-14.35-7.68-29.14-7.85-44.72-7.85H491.32c-35.05,0-70.1-.06-105.16,0-31.45.05-59.85,21.05-66.75,52.25-2.1,9.52-1.48,19.54-1.48,29.23v78.66c0,15,3.64,29.24,12.62,41.47A66.55,66.55,0,0,0,382.13,952c2.64.07,5.28,0,7.92,0H820.79C823.54,952,824.5,948.47,821.22,948.47Z"/><circle class="cls-4" cx="602" cy="837.18" r="89.3"/><circle class="cls-1" cx="597.1" cy="841.26" r="82.05" transform="translate(-419.97 668.61) rotate(-45)"/><path class="cls-3" d="M688.88,837.82c-.28,36.4-23.14,70.2-57.71,82.5-35,12.45-74.78-.19-97.41-29.25-22.21-28.51-24.69-69.13-6-100.07,19.21-31.71,57-48,93.18-39.49,39.73,9.33,67.58,45.86,67.89,86.31,0,1.42,4.84.53,4.83-1.29-.3-38.77-25.73-73.89-62.83-85.65-35.53-11.26-75.6.36-99.55,28.91-24.82,29.57-27.8,72.92-7.32,105.63,20.29,32.41,59.62,48.18,96.79,40.29a92.33,92.33,0,0,0,72.91-89.18C693.72,835.13,688.9,836,688.88,837.82Z"/><path class="cls-3" d="M558.42,830.23l34.28,34.28c1.95,2,6.67.59,8.36-1.09l49.15-49.15c4-4-5.48-3.86-7.75-1.59q-24.57,24.57-49.15,49.15l8.36-1.1-34.28-34.28c-2.38-2.38-11.53,1.22-9,3.78Z"/><path class="cls-4" d="M701.12,541.21l-1.17-1.1L588.08,448.89s-68.39,74-69.19,63.1c-.19-2.55,15.24-115.65,15.24-115.65L385.76,374.45a2.84,2.84,0,0,1-.42-5.52L795.22,238.71a2.91,2.91,0,0,1,3.54,1.77,3.23,3.23,0,0,1,.32,1.57,3,3,0,0,1,0,2.2l-94.44,295-.54,1.34Z"/><path class="cls-1" d="M687.34,516.12,562.84,426.6s-.75-1-2.7,2.65c-14.55,27.2-40.64,91.06-41.25,82.74-.19-2.55,15.24-115.65,15.24-115.65l-120-24.25a3.47,3.47,0,0,1-.36-6.71L793.38,245c1.14-.37-87.62,265.84-87.62,265.84A11.73,11.73,0,0,1,687.34,516.12Z"/><path class="cls-6" d="M534,397.56,518.89,512c6.3,3.38,40-82.21,40-82.21l2.44-3L798.76,240.48,537.12,394.9C536.38,395.36,534.09,396.68,534,397.56Z"/><path class="cls-3" d="M586.07,448.23C568,467.79,549.66,487.88,529.23,505a58.93,58.93,0,0,1-7,5.35c-.5.31-1.61.78-1.78,1s.93.4.88,0c-.25-2.12-5.1-1-4.83,1.29,1,8.69,23.35-12.07,24.77-13.39,13.65-12.66,26.59-26.1,39.39-39.61,3.17-3.35,6.33-6.7,9.46-10.09,2-2.2-2.6-2.85-4-1.32Z"/><path class="cls-3" d="M531.53,397.75l-13.2,100.11-1.89,14.33c-.09.72.45,1.15,1,1.4,3.84,1.62,7-3.46,8.71-6,4-6.19,7.18-13,10.32-19.63,7.55-16,14.38-32.37,21-48.78,2.25-5.54,3.57-9.93,8.27-13.62l20.51-16.09,78.46-61.55L752,279.52l31.9-25c5.19-4.07,11-7.87,15.79-12.39.22-.21.48-.38.71-.56,2.31-1.81-.77-3.56-2.65-2.45l-90.94,53.67L565.4,376.2l-22.5,13.28c-3.35,2-9.21,4.48-11.23,7.82-1.37,2.26,3.53,2.28,4.61.51,1.36-2.25,6.34-4.14,8.44-5.39l18.93-11.17,62.19-36.7L767.3,261.06l32.52-19.19-2.65-2.46L759,269.33,675.71,334.7q-41,32.12-81.91,64.25l-25.86,20.28c-3.74,2.94-9,6-11.36,10.35-1.77,3.29-2.86,7.15-4.26,10.61q-4.62,11.35-9.43,22.63c-6.38,14.92-12.4,31.19-21.59,44.67a23.39,23.39,0,0,0-1.84,2.42c-.75,1.52-.89-.24.83.49.35.46.69.93,1,1.4l13.2-100.11,1.89-14.33C536.73,395,531.81,395.62,531.53,397.75Z"/><path class="cls-3" d="M703,539.78c-4.32-4.07-9.18-7.63-13.78-11.38l-32.87-26.81-75.71-61.73L563,425.47a3,3,0,0,0-4.17,1.12q-6.78,16.5-13.95,32.82c-6.87,15.72-13.44,32.25-22.57,46.84-.54.85-2.94,3.93-2.91,4s2.94.63,2.55,1c.08-.08,0-.46,0-.56a6.74,6.74,0,0,0,.15-2c.51-5.8,1.28-11.58,2-17.35,2.31-18.78,4.8-37.53,7.29-56.29q2.58-19.45,5.22-38.9c.12-.95-.83-1.54-1.64-1.66L442.63,380.9l-49.29-7.27c-.92-.14-8.9-.33-7.46-3,.29-.55,3.36-1.06,3.91-1.24l64.76-20.57,112.92-35.88L688,274.65l87.82-27.9L787.72,243c2.07-.65,4.53-1.9,6.7-2.12.28,0,.94-.49,1.21-.39,1.6.58,1.14,2.79,1,4-.36,2.32-1.53,4.78-2.25,7l-27.63,86.3L728,458.59q-12.31,38.51-24.65,77c-.5,1.56-1,3.11-1.59,4.63l1.85-1.41-3,.66c-3,.68-2.09,4.13.93,3.46,3.83-.86,4.91-2,6-5.34s2.07-6.45,3.11-9.68q6.3-19.69,12.61-39.39,19.23-60.09,38.48-120.18,16.68-52.14,33.38-104.26c2.05-6.42,4.55-12.85,6.2-19.38,2.65-10.5-7.4-7.47-12.66-5.8l-72.43,23L596.48,300,474.77,338.64l-79.62,25.29c-3.42,1.09-12.36,2.42-13.94,6.35-2.28,5.68,4.9,6.16,8.44,6.68l19.41,2.87,115.62,17.06,8.63,1.27-1.63-1.65c-4.34,32-8.67,63.94-12.6,96-.71,5.81-1.62,11.67-2,17.52-.22,3.61,2.36,5,5.5,2.57,4.23-3.25,6.82-9.91,9.18-14.47,4.55-8.81,8.69-17.83,12.75-26.87q9.81-21.84,18.89-44l-4.17,1.12L607,467.22,682,528.44c5.74,4.68,11.83,9.13,17.23,14.2C700.91,544.18,705.05,541.73,703,539.78Z"/></g></g></svg>