<svg height="250" viewBox="0 0 250 250" width="250" xmlns="http://www.w3.org/2000/svg"><g fill="none"><path d="m74.5645833 215.516667c-4.4125-.954167-57.4291666-9.547917-53.5229166-72.933334 3.90625-63.3854163 8.8020833-82.4479163 29.4145833-89.4229163s70.710417-39.9729167 110.027083-8.5958334c10.208334 8.1458334 20.60625 16.0270834 30.541667 24.5520834 13.65 11.7166666 27.6875 25.24375 34.391667 42.9666663 3.159988 8.36668 4.345639 17.349967 3.464583 26.25-1.027083 10.460417-2.472917 20.635417-5.10625 30.833334-.895833 3.472222-1.792361 6.944444-2.689583 10.416666-.5375 2.083334-1.079167 4.179167-1.927084 6.141667-5.452083 12.645833-12.329166 20.94375-23.852083 27.677083-10 5.833334-22.391667 5.689584-33.4375 5.045834-43.922917-2.560417-66.3229167 1.60625-87.3041667-2.93125z" fill="#f4f8ff"/><g transform="translate(59.221622 61.28503)"><path d="m19.342961 132.973303c-1.4145833-.675-1.9375-1.458333-1.25-2.370833 4.7208333-6.335417 25.9354167-5.922917 36.2270833-5.810417 12.9458334.141667 26.4145834.110417 38.0708334 1.783333 4.8791666.702084 15.9333333 1.4125 17.8270833 3.591667 4.966667 5.725-30.3041667 6.922917-36.0125 6.94375-9.525.03125-46.7791667-.270833-54.8625-4.1375z" fill="#e3e3e3"/><path d="m75.0950443 70.1587198c10.9041667 7.9166666 24.5833334 23.5229166 24.5833334 41.4875002l-33.9770834 8.333333-35.2375-8.333333c0-18.0145836 13.7125-33.6625002 24.6666667-41.5520836l.625-.4166666c1.3729167-.9145834 1.4020833-3.0666667.0541667-4.025l-.6875-.4791667c-10.9541667-7.8895833-24.6666667-23.5416667-24.6666667-41.5520833h69.2145833c0 17.9645833-13.6708333 33.5770833-24.5833333 41.4875l-.7895833.6666666c-.5504483.4825667-.8617381 1.1821422-.8517168 1.9141009.0100214.7319586.3403469 1.4227497.9038001 1.8900658z" fill="#fff"/><path d="m98.8408777 106.13997c.5544708 1.157805.8312472 2.428979.8083333 3.7125-.0833333 4.791666-6.3083333 6.041666-10.2083333 6.31875-1.5604167.110416-3.125.19375-4.6854167.26875-9.8604167.475-19.7729167.991666-29.63125.183333-4.375-.360417-9.0145833-1.116667-13.2041667-1.354167-3.1604166-.179166-7.5916666-.1875-9.96875-2.56875-7.71875-7.745833 15.05625-18.7354162 19.3166667-22.0833329 6.9-5.4333333 13.7270833-16.1333333 9.2520833-24.8895833-1.825-3.5791667-23.7604166-20.5541667-17.5708333-24.2833334 2.5645833-1.5416666 11.6895833 3.8020834 14.6104167 4.375 9.2604166 1.8541667 18.0104166-.6041666 26.3104166-4.53125 4.1958334-1.9833333.8458334 5.3854167.3125 6.3791667-2.5270833 4.70625-6.5270833 8.125-10.3041666 11.8458333-3.5229167 3.48125-6.7916667 7.8791667-6.6208334 12.9895834.2229167 6.7770833 3.01875 13.3083333 8.3083334 17.8291666 6.9375 5.93125 19.1375 7.0291667 23.275 15.8083336z" fill="#f7e080"/><path d="m98.8887943 106.36497c.5220277 1.139731.781873 2.382005.7604167 3.635416-.0791667 4.7-5.9333333 5.916667-9.5833333 6.1875-1.4583334.110417-2.9375.189584-4.40625.264584-9.2729167.464583-18.59375.970833-27.8625.179166-4.1208334-.352083-8.4770834-1.09375-12.4166667-1.325-2.9708333-.175-7.1395833-.185416-9.375-2.51875-7.2666667-7.585416 14.1479167-18.3499996 18.15625-21.6354162 6.4895833-5.3208334 12.9166667-15.8020834 8.7-24.375-1.7166667-3.5020834-22.3479167-20.1354167-16.5291667-23.78125 2.4145834-1.5104167 10.99375 3.725 13.7395834 4.29375 8.7125 1.8020833 16.93125-.6 24.7395833-4.4458334 3.9458333-1.9416666.7958333 5.275.2958333 6.25-2.3770833 4.6083334-6.1395833 7.9520834-9.6895833 11.6041667-3.3125 3.4083333-6.3854167 7.7083333-6.2270833 12.7229167.2083333 6.6375 2.8395833 13.0333333 7.8125 17.4625 6.5229166 5.8041666 17.9958333 6.88125 21.8854166 15.4812502z" fill="#ffeea7"/><path d="m74.6283777 70.3566364c10.1145833 7.3708334 18.9291666 17.8583334 22.7083333 29.9229166 1.1809811 3.720924 1.7954958 7.598336 1.8229167 11.502083l.4354166-.3875-30.2270833 7.414584-2.65625.652083c-.2833333.070833-.8333333.09375-1.0791667.264583.3104167-.21875.49375.066667.1854167-.0625-.2141675-.069243-.4336532-.120804-.65625-.154166l-2.4208333-.572917-18.0791667-4.277083-13.8979167-3.285417.1958334.208333c.06875-14.9791662 9.2416666-28.5416662 20.25625-38.0062496 1.1666666-1.0027777 2.3680555-1.9645833 3.6041666-2.8854166.8708334-.6458334 1.94375-1.1479167 2.3291667-2.2395834.4479167-1.275-.1145833-2.4375-1.1479167-3.1895833-1.0333333-.7520833-2.0645833-1.5083333-3.0625-2.3125-5.4896966-4.3944057-10.260248-9.6183246-14.1395833-15.4833333-4.68125-7.1375-7.8-15.375-7.8395833-23.9854167l-.7.4166667h69.2145833l-.3083333-.2229167c-.075 16.1020833-10.6479167 30.6791667-22.9541667 40.2083333-.99375.76875-2.5 1.5645834-3.0270833 2.76875-.7125 1.6020834.2604166 2.76875 1.44375 3.7083334.2770833.2208333 1.2083333-.1770834.9333333-.3958334-.3729167-.2958333-.80625-.575-1.1041667-.95-.6392856-.8381872-.6561942-1.9955789-.0416666-2.8520833.76875-1.01875 2.13125-1.7354167 3.125-2.5145833 2.7384642-2.1649738 5.3102948-4.5327571 7.69375-7.0833334 5.2916666-5.6583333 9.76875-12.21875 12.45-19.5208333 1.6089551-4.3132868 2.4549123-8.873699 2.5000003-13.4770833 0-.16875-.15625-.2229167-.3062503-.2229167h-69.2270834c-.2458333 0-.7.1083333-.6979166.4166667.0666666 14.68125 8.8979166 28.025 19.5583333 37.4854166 1.2041667 1.0694445 2.4458333 2.0951389 3.725 3.0770834.8083333.625 2.0354167 1.2229166 2.6333333 2.06875.4792291.7040998.5497762 1.609323.1854167 2.3791666-.2895833.6041667-.8333333.8875-1.3479167 1.25-1.19375.8333334-2.34375 1.75625-3.4666666 2.6916667-5.33474 4.4073462-9.9621236 9.6066536-13.7208334 15.4166667-4.5166666 7.0458333-7.5270833 15.1333332-7.575 23.5833332 0 .129167.0708334.18125.19375.208333l11.6520834 2.754167 18.9270833 4.477083c1.4875.352084 3.0083333.847917 4.5229167 1.06875.8229166.120834 1.80625-.30625 2.5958333-.5l17.4229167-4.272916c4.7354166-1.160417 9.5270833-2.191667 14.2270833-3.489584l.2416667-.058333c.1875-.047917.4375003-.16875.4354163-.3875-.0625-13.5895832-7.6854163-25.9958332-17.158333-35.2395832-2.3247528-2.2768849-4.8095808-4.3843588-7.4354167-6.30625-.2958333-.2083334-1.21875.1895833-.9416666.3916666z" fill="#767c97"/><ellipse cx="64.376294" cy="5.312886" fill="#def3f9" rx="39.016667" ry="5"/><path d="m103.903378 5.1733031c-.035417-.87083334-1.264584-1.3625-1.925-1.63125-1.685417-.68541667-3.5062503-1.05416667-5.2895837-1.38125-6.1979166-1.13541667-12.5395833-1.56458334-18.825-1.85625-8.2541666-.38333334-16.5333333-.4-24.7916666-.07708333-6.5458334.25625-13.1395834.6625-19.6083334 1.74583333-1.96875.32916666-3.9583333.70208333-5.84375 1.36041666-.8583333.3-2.2208333.73541667-2.6479166 1.63958334-.9395834 1.98333333 4.375 2.91666666 5.3520833 3.125 5.7916667 1.27708333 11.8 1.7125 17.7083333 2.05625 8.1729167.4770833 16.375.5625 24.5583334.33125 6.93125-.19375 13.89375-.56666667 20.7645833-1.54791667 2.2028349-.27978905 4.3851963-.70220403 6.5333333-1.26458333 1.1687497-.325 2.5833337-.69791667 3.5020837-1.54375.278226-.21379635.46029-.52922311.50625-.87708334.016666-.43541666-.995834-.24166666-1.010417.11666667-.03125.80208333-1.3625 1.18541667-1.954167 1.39583333-1.7729163.625-3.658333.97916667-5.508333 1.2875-5.9625.99791667-12.0291667 1.41041667-18.0625 1.68125-7.81875.35208334-15.6604167.37083334-23.48125.08541667-6.3395833-.23125-12.7083333-.61458333-18.9854167-1.56458333-2.0170143-.27408355-4.013221-.6840437-5.975-1.22708334-.8520833-.25-2.41875-.60208333-2.9166666-1.45833333-.9625-1.60416667 4.9708333-2.57291667 5.7020833-2.70833333 5.6375-1.11041667 11.43125-1.52916667 17.1604167-1.84791667 7.7666666-.42916666 15.5583333-.50416666 23.3333333-.29583333 6.65.17708333 13.3333333.53333333 19.9229167 1.40416666 2.2291404.26920491 4.4415844.66217279 6.6270833 1.17708334 1.2.29791666 2.691667.60625 3.679167 1.40833333.2551.1636046.423914.43248443.460416.73333333.014584.35833334 1.014584.15 1.014584-.26666666z" fill="#767c97"/><path d="m101.132544 23.8941364c-7.4999997 2.23125-33.3687497 8.2395834-73.2750028-.1958333-1.4592806-.310193-2.5020737-1.5997805-2.5-3.0916667v-15.6708333c52.2083365 7.3770833 78.0312528 0 78.0312528 0v15.9291667c0 1.3975135-.917149 2.6293507-2.25625 3.0291666z" fill="#9fcded"/><path d="m101.209628 21.7295531c-7.2375003 1.9770833-32.210417 7.2916667-70.7312503-.1729167-1.40625-.2729166-2.4104167-1.4166666-2.4104167-2.7375v-13.46666664c14.825 1.92291667 27.4458333 2.70833334 37.8770833 2.87291667 25.0270834.38333333 37.4458337-3.28958333 37.4458337-3.28958333v14.1104167c0 1.2395833-.885417 2.33125-2.18125 2.6833333z" fill="#bbdff5"/><path d="m101.034628 23.5274698c-9.2562503 2.7458333-19.0583337 3.78125-28.672917 4.0708333-8.6013791.2320185-17.2081456-.1718589-25.75-1.2083333-5.1458333-.6083334-10.26875-1.425-15.35625-2.41875-2.18125-.4270834-5.2541667-.5375-5.3833333-3.4-.0229167-.5125 0-1.0416667 0-1.5479167v-14.11875l-.68125.41666666c16.2666666 2.29166667 32.725 3.61041667 49.1666666 3.21666667 8.475-.20833333 17.0125-.80416667 25.3520834-2.39166667 1.2666663-.24166666 2.5479163-.48958333 3.7916663-.84375l-.610416-.33333333v14.40208337c0 1.65.095833 3.4791666-1.845834 4.1666666-.604166.2083334-.416666.9479167.195834.7333334 1.622916-.5666667 2.647916-1.8604167 2.672916-3.5979167.014584-1.0041667 0-2.0083333 0-3.0125v-12.75625c0-.31458334-.354166-.40625-.610416-.33333334-3.797917 1.08125-7.8187503 1.575-11.7270837 2.03541667-11.7958333 1.3875-23.75 1.47708333-35.5979166.89791667-10.2-.49791667-20.3520834-1.53125-30.45-2.95625-.2354167-.03333334-.68125.1125-.68125.41666666v13.10416664c0 1.7958334-.3166667 3.8854167 1.19375 5.2083334.7083333.625 1.5666666.7875 2.4604166.9729166 1.4625.3041667 2.9284723.5923611 4.3979167.8645834 2.6791667.5 5.3673611.9465277 8.0645833 1.3395833 15.71875 2.2916667 31.8854167 2.8583333 47.6354167.5 4.2681959-.6025881 8.4889415-1.5034037 12.63125-2.6958333.616667-.18125.427083-.9166667-.195833-.73125z" fill="#767c97"/><path d="m101.132544 129.58372c-7.4999997 2.229166-33.3687497 8.239583-73.2750005-.197917-1.4585174-.310031-2.5010909-1.598478-2.5-3.089583v-12.052084c.0024101-.908646.3957962-1.772296 1.0797485-2.370505.6839524-.598209 1.5922924-.873095 2.493169-.754495 38.6 5.077084 62.0833333 1.99375 70.70625.347917.924547-.176322 1.87956.068893 2.604792.668821.725233.599929 1.145208 1.492052 1.145208 2.433262v11.991667c-.002792 1.3944-.918517 2.622419-2.254167 3.022917z" fill="#9fcded"/><path d="m101.213794 127.031636c-7.2291663 1.922917-32.1666663 7.104167-70.6249997-.16875-1.40625-.264583-2.4104166-1.379166-2.4104166-2.664583v-10.389583c0-1.645834 1.6208333-2.916667 3.4458333-2.708334 37.2104167 4.375 59.8520833 1.71875 68.1583333.3 1.8749997-.320833 3.6166667.964584 3.6166667 2.675v10.3375c-.008333 1.214584-.89375 2.275-2.185417 2.61875z" fill="#bbdff5"/><g fill="#767c97"><path d="m101.034628 129.217053c-8.6625003 2.56875-17.804167 3.622917-26.8020837 4.002083-7.9782182.315565-15.9687514.06982-23.9125-.735416-4.8041666-.475-9.5861111-1.126389-14.3458333-1.954167-2.6020833-.45-5.2583333-.852083-7.81875-1.504167-1.50625-.383333-2.2604167-1.545833-2.2916667-3.047916-.0645833-3.902084-.1458333-7.854167 0-11.754167.0333334-.885417.3645834-1.7375 1.1083334-2.26875 1.125-.808333 2.5708333-.352083 3.83125-.19375 2.5652778.322222 5.1347222.617361 7.7083333.885417 4.6361111.479166 9.2805556.860416 13.9333333 1.14375 12.9833334.775 26.0958334.80625 39.0270834-.714584 1.8291666-.213888 3.6527778-.466666 5.4708333-.758333.7395833-.120833 1.48125-.247917 2.21875-.383333 1.666667-.308334 3.3625.347916 3.675 2.2125.285417 1.695833.039583 3.604166.039583 5.314583v6.6875c0 1.341667-.452083 2.58125-1.845833 3.06875-.604167.208333-.416667.947917.195833.73125 1.547917-.539583 2.610417-1.766667 2.672917-3.445833.025-.65625 0-1.316667 0-1.972917v-7.916667c0-2.052083.15-4.33125-2.139583-5.297916-1.666667-.7-3.8895837.10625-5.6083337.370833-12.0833333 1.860417-24.41875 2.108333-36.6125 1.666667-10.05625-.360417-20.04375-1.3625-30.0291666-2.564584-1.68125-.208333-3.3479167.252084-4.225 1.829167-.4166667.7625-.4416667 1.55625-.4416667 2.39375v7.4375c0 1.695833-.4166667 4.227083.5291667 5.745833 1.1354166 1.816667 3.6541666 1.875 5.5395833 2.239584 2.7125.530555 5.4347222 1.009028 8.1666667 1.435416 9.0686075 1.428269 18.2303563 2.184495 27.4104166 2.2625 11.0270834.066667 22.26875-.833333 32.95625-3.683333.5972227-.158333 1.1923607-.325694 1.7854167-.502083.616667-.179167.427083-.914584-.195833-.729167z"/><path d="m111.099211 43.2024698c-1.866697 2.4357075-4.053829 4.6081233-6.502083 6.4583333-.195834.1479167.714583.0583333.908333-.0875 2.479717-1.8780372 4.69482-4.0819287 6.585417-6.5520833.05-.0645834-.810417-.0520834-.991667.1833333z"/><path d="m121.932544 57.2066364c-2.678579 1.1448328-5.499021 1.9240458-8.385416 2.3166667-.254167.0354167-1.0875.48125-.439584.39375 3.236052-.4372833 6.398491-1.3083029 9.402084-2.5895833.60625-.2583334-.341667-.2208334-.577084-.1208334z"/><path d="m127.765878 77.4524698c-2.869865-1.2238133-5.89146-2.055593-8.983334-2.4729167-.2625-.0354167-1.166666.4020833-.625.4729167 3.027078.4109439 5.984956 1.2280217 8.79375 2.4291666.254167.10625 1.172917-.2833333.814584-.4354166z"/><path d="m117.507544 94.2608031c-2.310719-2.1056116-4.896032-3.8884896-7.685416-5.3-.416667-.2083333-1.15.3979167-.577084.6895833 2.722906 1.390832 5.245671 3.1427517 7.5 5.2083334.3375.3083333 1.208334-.19375.772917-.5875z"/><path d="m16.9700443 39.6462198c2.0382829 2.6584926 4.4265724 5.0292624 7.1 7.0479166.3395834.25625 1.2291667-.225.7791667-.5645833-2.6198888-1.9822967-4.9598208-4.3096145-6.95625-6.91875-.2645833-.3458333-1.2270833.0375-.9229167.4354167z"/><path d="m5.54712767 54.8024698c3.09762137 1.3254109 6.36069393 2.224578 9.70000003 2.6729166.2291666.03125 1.1541666-.35625.6479166-.4166666-3.2360468-.43747-6.39804739-1.3106643-9.39999996-2.5958334-.275-.1166666-1.06875.2979167-.94791667.3479167z"/><path d="m.72837767 76.8399698c2.96510938-1.2678064 6.0877219-2.1297483 9.28333333-2.5625.5645833-.075.7666667-.8520834.0833333-.7583334-3.37958463.454975-6.68188257 1.3660504-9.81666663 2.7083334-.625.26875-.075.8333333.45.6145833z"/><path d="m11.836711 94.9212198c2.4153191-2.2102188 5.1191026-4.0828237 8.0375-5.5666667.6104167-.3104167.0666667-.90625-.4583333-.6395833-2.9969728 1.5218656-5.7748258 3.4412751-8.2583334 5.70625-.5020833.4583333.2854167.8583333.6791667.5z"/></g></g></g></svg>