<svg xmlns="http://www.w3.org/2000/svg" viewBox="0 0 1200 1200"><defs><style>.cls-1{fill:#fff;}.cls-2{fill:#f4f8ff;}.cls-3{fill:#efefef;}.cls-4{fill:#767c97;}.cls-5{fill:#f9f9f9;}.cls-6{fill:#f9ab98;}</style></defs><title>vip-access</title><g id="Calque_2" data-name="Calque 2"><g id="_ÎÓÈ_1_1_" data-name="—ÎÓÈ_1_1_"><rect class="cls-1" width="1200" height="1200"/><path class="cls-2" d="M357.89,1034.74C336.71,1030.16,82.25,988.9,101,684.56S143.23,288.69,242.16,255.2,581.57,63.27,770.28,213.93s392.34,285.78,311.53,526.34-94,320.81-304.87,308.53S458.6,1056.53,357.89,1034.74Z"/></g><g id="_ÎÓÈ_2" data-name="—ÎÓÈ_2"><path class="cls-3" d="M196.46,915.9c-13.27-2.48-16-2.24-13.12-9,4.66-10.76,67.66-4,322.49-6.47,116.88-1.12,344.79,0,344.79,0,44.54,2.29,144.8-2.14,163.51,6.05,49.09,21.53-268.22,20.26-319.71,20.79C608.59,928.15,272.27,930,196.46,915.9Z"/><path class="cls-1" d="M600,300h0c-124.26,0-225,100.74-225,225V900H825V525C825,400.74,724.26,300,600,300Z"/><path class="cls-4" d="M827.45,888.12V694.82c0-2.55-4.9-1.86-4.9.36V888.47c0,2.56,4.9,1.86,4.9-.35Z"/><path class="cls-4" d="M372.55,701.81V890c0,2.56,4.9,1.87,4.9-.35V701.46c0-2.56-4.9-1.86-4.9.35Z"/><path class="cls-4" d="M827.45,643.82c0-39.65.1-79.3,0-119-.2-78-41.05-151.79-107.52-192.85-67.29-41.56-153.92-44.79-224.17-8.48C426.29,359.44,379,430.32,373.17,508.38c-1.54,20.79-.62,41.92-.62,62.74v78.57c0,2.56,4.9,1.86,4.9-.35q0-61.26,0-122.53c0-72.81,34.42-141.93,94-184.26,64.73-46,151.46-53.33,223.18-19.43C765.2,356.47,814.15,426.39,821.56,504c2,21,1,42.4,1,63.43v76.73c0,2.55,4.9,1.86,4.9-.36Z"/><path class="cls-5" d="M600,337.5h0c-103.55,0-187.5,83.95-187.5,187.5V900h375V525C787.5,421.45,703.55,337.5,600,337.5Z"/><path class="cls-4" d="M790,658.83V534.38c0-26.35-2.81-52-12.29-76.84a190.36,190.36,0,0,0-65.07-85.27c-60.76-44.54-144.94-48.42-209.62-9.84a191.7,191.7,0,0,0-73.05,78.47c-13.67,27.29-19.87,57.1-19.87,87.52V663.24c0,2.55,4.9,1.86,4.9-.35V540.74c0-22.86.81-45.28,7.18-67.49a186.26,186.26,0,0,1,59.46-91.18c58.31-48.64,143-56.33,209.1-18.77a188,188,0,0,1,73.67,76.6c14.19,27.38,20.69,57.56,20.69,88.28v131c0,2.55,4.9,1.86,4.9-.35Z"/><path class="cls-4" d="M790,888.12V704.83c0-2.56-4.9-1.87-4.9.35V888.47c0,2.55,4.9,1.86,4.9-.35Z"/><path class="cls-4" d="M410.05,711.18V889c0,2.56,4.9,1.87,4.9-.35V710.83c0-2.56-4.9-1.87-4.9.35Z"/><path class="cls-1" d="M600,384.94h0A121.88,121.88,0,0,0,478.12,506.82v37.5H721.88v-37.5A121.88,121.88,0,0,0,600,384.94Z"/><path class="cls-4" d="M600.21,383.14a125.79,125.79,0,0,0-92.48,41c-21.72,23.91-32.05,54.45-32.05,86.47v33.85c0,1.26,1.16,1.62,2.24,1.62H721.67c1,0,2.65-.82,2.65-2,0-22.75,1.84-46.42-3.92-68.63a124.33,124.33,0,0,0-63.59-78.92,126.1,126.1,0,0,0-56.6-13.45c-2.78,0-3.69,3.58-.42,3.6a120.69,120.69,0,0,1,91.68,43.18c19.72,23.68,28,52.33,28,82.75v31.82l2.65-2H478.33l2.24,1.62c0-21-1.69-42.92,2.8-63.56a120.39,120.39,0,0,1,60.41-79.9,119.06,119.06,0,0,1,56-13.94C602.57,386.74,603.48,383.14,600.21,383.14Z"/><rect class="cls-1" x="520.31" y="606.58" width="159.37" height="37.97"/><path class="cls-4" d="M682.14,644.37v-38c0-1.26-1.17-1.62-2.25-1.62H520.52c-1,0-2.66.83-2.66,2v38c0,1.26,1.17,1.63,2.25,1.63H679.48c2.78,0,3.69-3.6.41-3.6H520.52l2.24,1.62v-38l-2.65,2H679.48l-2.24-1.62v38C677.24,647.28,682.14,646.59,682.14,644.37Z"/><rect class="cls-1" x="567.91" y="715" width="64.26" height="137.56"/><rect class="cls-1" x="478.59" y="715" width="64.26" height="137.56"/><rect class="cls-1" x="657.62" y="715" width="64.26" height="137.56"/><path class="cls-4" d="M565.46,737.56V852.73c0,1.26,1.16,1.63,2.24,1.63H632c1,0,2.65-.83,2.65-2V736.67c0-2.56-4.9-1.87-4.9.35V852.73l2.66-2H568.11l2.24,1.62V737.21c0-2.56-4.89-1.86-4.89.35Z"/><path class="cls-4" d="M476.14,728.49V852.73c0,1.26,1.17,1.63,2.25,1.63h64.25c1,0,2.66-.83,2.66-2V737.31c0-2.56-4.9-1.86-4.9.35V852.73l2.66-2H478.8l2.24,1.62V728.14c0-2.56-4.9-1.86-4.9.35Z"/><path class="cls-4" d="M655.17,734.66V852.73c0,1.26,1.17,1.63,2.24,1.63h64.26c1,0,2.65-.83,2.65-2V722.61c0-2.56-4.89-1.86-4.89.35V852.73l2.65-2H657.82l2.25,1.62V734.31c0-2.56-4.9-1.86-4.9.35Z"/><circle class="cls-4" cx="456.89" cy="596.58" r="18.99"/><path class="cls-4" d="M465.65,653.06l-5.55-16.77a7.48,7.48,0,1,0-6.59-.06L448,653.06Z"/><path class="cls-4" d="M602.42,536.71V392.09c0-2.07-4.84-1.08-4.84.58V537.29c0,2.07,4.84,1.08,4.84-.58Z"/><path class="cls-4" d="M493.07,469.77h212c1.89,0,5.11-2.84,1.86-2.84h-212c-1.89,0-5.11,2.84-1.86,2.84Z"/><path class="cls-4" d="M278.86,901.8H894.6c8.3,0,16.75.47,25,0,.36,0,.72,0,1.08,0,2.78,0,3.69-3.6.42-3.6H305.4c-8.3,0-16.75-.47-25,0-.36,0-.72,0-1.08,0-2.78,0-3.69,3.6-.42,3.6Z"/><rect class="cls-5" x="200" y="601.58" width="46.72" height="300.51"/><path class="cls-5" d="M200,901.84c0,5.37,10.46,9.73,23.36,9.73s23.36-4.36,23.36-9.73Z"/><path class="cls-4" d="M197.56,615.06V897.52c0,2.5,4.88,1.76,4.88-.38V614.68c0-2.49-4.88-1.75-4.88.38Z"/><path class="cls-4" d="M249.16,615.82V601.38c0-1.24-1.17-1.55-2.22-1.55H200.22c-2.74,0-3.72,3.49-.44,3.49H246.5c-.74-.52-1.48-1-2.23-1.55V616.2c0,2.5,4.89,1.75,4.89-.38Z"/><path class="cls-4" d="M249.16,900.14V626.56c0-2.5-4.89-1.76-4.89.38V900.52c0,2.5,4.89,1.76,4.89-.38Z"/><path class="cls-4" d="M197.59,903c.66,7.2,11.47,9.5,17.08,10.34,9.47,1.42,20.4.8,28.93-3.91,2.87-1.58.29-4.36-2.18-3-6.95,3.84-15.7,4.37-23.45,3.48-4.66-.54-15-2-15.55-8.2-.22-2.31-5.06-1.12-4.83,1.29Z"/><ellipse class="cls-5" cx="223.36" cy="601.83" rx="23.36" ry="9.73"/><path class="cls-4" d="M197.59,602.47c.95,10.35,20.25,11.15,27.4,10.9,6.5-.22,24.4-2.16,24.16-12-.24-10-19-11.18-25.6-11.17-7.4,0-25.05,1.5-26,11.74-.24,2.57,4.69,2,4.9-.33.67-7.22,15.67-7.73,20.72-7.72,4.56,0,21.52,1,21,8.42-.5,7.23-17.4,7.46-22.12,7.31-5.34-.18-19-1.13-19.64-8.49C202.2,598.87,197.36,600.06,197.59,602.47Z"/><path class="cls-4" d="M285.75,610.62c-9.51-4.27-22.6-1.56-27.16,8.63-4.7,10.46,3.7,19.72,13.63,21.83,2.44.52,4.84-2.94,1.64-3.62-7.37-1.56-13.47-8.25-11.17-16.1,2.58-8.79,12.76-10.78,20.29-7.4,2.1.94,5.59-2.08,2.77-3.34Z"/><path class="cls-4" d="M257.23,624.52h-8.1c-1.06,0-2.54.82-2.66,2s1.28,1.63,2.25,1.63h8.1c1.06,0,2.54-.82,2.65-2s-1.27-1.63-2.24-1.63Z"/><rect class="cls-5" x="953.28" y="601.58" width="46.72" height="299.99"/><path class="cls-5" d="M1000,901.84c0,5.37-10.46,9.73-23.36,9.73s-23.36-4.36-23.36-9.73Z"/><path class="cls-4" d="M997.56,615.06v281.8c0,2.49,4.88,1.75,4.88-.38V614.68c0-2.49-4.88-1.75-4.88.38Z"/><path class="cls-4" d="M955.73,615.82V601.38l-2.67,1.94h46.72c2.74,0,3.72-3.49.44-3.49H953.5c-.93,0-2.66.81-2.66,1.94V616.2c0,2.5,4.89,1.75,4.89-.38Z"/><path class="cls-4" d="M955.73,899.81V626.53c0-2.5-4.89-1.76-4.89.38V900.19c0,2.5,4.89,1.76,4.89-.38Z"/><path class="cls-4" d="M997.55,902.52c-.56,6-11.92,7.19-16.23,7.54-7.27.59-15.48,0-22-3.57-1.93-1.06-6.11,1.54-3.7,2.87,8.84,4.89,20,5.46,29.83,3.82,5.88-1,16.3-3.58,17-11,.24-2.56-4.69-2-4.9.33Z"/><ellipse class="cls-5" cx="976.64" cy="601.83" rx="23.36" ry="9.73"/><path class="cls-4" d="M997.55,602c-.67,7.22-15.67,7.74-20.72,7.72-4.56,0-21.52-1-21-8.42.5-7.22,17.4-7.46,22.12-7.3,5.34.17,19,1.13,19.64,8.48.22,2.31,5.06,1.13,4.83-1.29-.95-10.34-20.25-11.15-27.4-10.9-6.5.22-24.4,2.16-24.16,12,.24,10,19,11.18,25.6,11.17,7.4,0,25-1.5,26-11.74C1002.69,599.1,997.76,599.7,997.55,602Z"/><path class="cls-4" d="M915.86,614.44a14.57,14.57,0,0,1,18.47,9.63,14.1,14.1,0,0,1-11.23,18c-2.68.43-3.66,4.17-.4,3.66,10.46-1.66,19.11-10.57,16.77-21.72s-14.31-16.11-24.53-13c-3,.89-2.07,4.33.92,3.43Z"/><path class="cls-4" d="M939.9,628.13H948c1.06,0,2.54-.82,2.65-2s-1.27-1.63-2.24-1.63h-8.1c-1.07,0-2.54.82-2.66,2s1.27,1.63,2.25,1.63Z"/><path class="cls-6" d="M922.31,626.43c-1.84-7.6-7.35-11.48-12.31-8.68-.82.46-82.76,46.16-199.77,68.77A677.69,677.69,0,0,1,597.61,698.8c-92.91,2.17-202-15.56-307.32-80.88-4.9-3-10.49.57-12.48,8.07s.37,16,5.27,19.09a550.48,550.48,0,0,0,226.71,79.18,606.74,606.74,0,0,0,72,4.23q7.86,0,15.77-.2a697.62,697.62,0,0,0,115.56-12.78c119.05-23.1,202.65-69.79,203.48-70.26C921.6,642.45,924.14,634,922.31,626.43Z"/><path class="cls-4" d="M924.72,625.78c-2.24-7.94-8.36-12.53-16.22-8.66-1.4.68-2.75,1.48-4.12,2.21-9.51,5-19.22,9.57-29,13.95a761.58,761.58,0,0,1-126.07,43.39C645.94,702.52,536.15,706.1,432.86,678a529.36,529.36,0,0,1-79.17-28.44q-19.51-8.82-38.26-19.2-9.66-5.34-19.07-11.07c-4.11-2.5-7.43-4.81-12.31-3.17-8.76,2.93-10.94,14.48-8.4,22.38,1.5,4.7,4.45,7,8.5,9.52q9.77,6,19.76,11.54a549.5,549.5,0,0,0,74.46,34.46c108.48,40.63,227.08,44.35,340,21.6A789.08,789.08,0,0,0,859,673.26c14.15-5.74,28.15-11.88,41.88-18.56,5.68-2.76,11.67-5.37,17-8.72,6.82-4.24,8.27-12.79,6.77-20.2-.31-1.54-5.16-.36-4.83,1.3,1.34,6.61.38,14.43-5.85,18.14-2.21,1.31-4.56,2.43-6.85,3.6C896.63,654.22,885.85,659.2,875,664a780.73,780.73,0,0,1-122.67,41.67C642.66,733,525.84,736.16,417,703.5a547.08,547.08,0,0,1-73.32-27.87q-17.46-8.11-34.32-17.43-8.47-4.68-16.76-9.65c-5.6-3.35-10.8-5.92-12.46-12.69-1-4.3-.78-18.84,7.28-17.34,2.39.45,5.46,3.28,7.61,4.57q5.34,3.21,10.77,6.3,18.31,10.43,37.41,19.39a530.16,530.16,0,0,0,73.08,27.88c94.51,28.27,195.52,29.87,292.06,11.42a776.4,776.4,0,0,0,136.47-39.42q22-8.58,43.45-18.6c7.26-3.41,14.29-7.33,21.55-10.74,5.36-2.51,8.7,2.72,10.12,7.76C920.33,628.65,925.16,627.35,924.72,625.78Z"/></g></g></svg>