<svg width="32" height="32" viewBox="0 0 32 32" fill="none" xmlns="http://www.w3.org/2000/svg">
<g clip-path="url(#clip0_9307_979)">
<path d="M27.3401 23.0002C27.3401 23.0002 27.3401 23.0602 27.3401 23.0802C27.3452 23.11 27.3452 23.1404 27.3401 23.1702L25.9601 31.1702C25.9209 31.3983 25.8037 31.6057 25.6287 31.757C25.4536 31.9084 25.2315 31.9943 25.0001 32.0002H24.8001C24.6706 31.9762 24.5472 31.9268 24.4368 31.855C24.3265 31.7831 24.2314 31.6901 24.1571 31.5814C24.0827 31.4727 24.0306 31.3504 24.0037 31.2215C23.9767 31.0926 23.9755 30.9596 24.0001 30.8302L25.3601 22.9202V17.0002C25.3345 16.7356 25.2112 16.4899 25.0143 16.3112C24.8174 16.1325 24.561 16.0335 24.2951 16.0335C24.0292 16.0335 23.7729 16.1325 23.576 16.3112C23.3791 16.4899 23.2558 16.7356 23.2301 17.0002V23.0002C23.2301 23.2654 23.1248 23.5198 22.9372 23.7073C22.7497 23.8949 22.4953 24.0002 22.2301 24.0002C21.9649 24.0002 21.7106 23.8949 21.523 23.7073C21.3355 23.5198 21.2301 23.2654 21.2301 23.0002V14.3302C21.2301 14.0464 21.1174 13.7743 20.9167 13.5736C20.7161 13.3729 20.4439 13.2602 20.1601 13.2602C19.8764 13.2602 19.6042 13.3729 19.4035 13.5736C19.2029 13.7743 19.0901 14.0464 19.0901 14.3302V23.0002C19.0901 23.2654 18.9848 23.5198 18.7972 23.7073C18.6097 23.8949 18.3553 24.0002 18.0901 24.0002C17.8249 24.0002 17.5706 23.8949 17.383 23.7073C17.1955 23.5198 17.0901 23.2654 17.0901 23.0002V11.6702C17.0901 11.3864 16.9774 11.1143 16.7767 10.9136C16.5761 10.7129 16.3039 10.6002 16.0201 10.6002C15.7364 10.6002 15.4642 10.7129 15.2635 10.9136C15.0629 11.1143 14.9501 11.3864 14.9501 11.6702V23.0002C14.9501 23.0002 14.9501 23.0702 14.9501 23.1002C14.9548 23.1668 14.9548 23.2336 14.9501 23.3002C14.9329 23.3592 14.9094 23.4162 14.8801 23.4702C14.8493 23.5273 14.8124 23.581 14.7701 23.6302C14.7286 23.6817 14.6816 23.7287 14.6301 23.7702L14.5501 23.8402L12.5501 25.1102H12.4401L12.3501 25.1602C12.2501 25.1946 12.1458 25.2148 12.0401 25.2202C11.9311 25.2158 11.8233 25.1956 11.7201 25.1602H11.6501C11.5431 25.1142 11.445 25.0499 11.3601 24.9702L9.22013 23.0002C9.00664 22.8063 8.72856 22.6988 8.44013 22.6988C8.1517 22.6988 7.87362 22.8063 7.66013 23.0002C7.48145 23.1856 7.38116 23.4327 7.38013 23.6902C7.38068 23.8225 7.40748 23.9534 7.45898 24.0753C7.51047 24.1972 7.58564 24.3076 7.68013 24.4002L13.3801 30.3002C13.5664 30.4876 13.6709 30.741 13.6709 31.0052C13.6709 31.2694 13.5664 31.5228 13.3801 31.7102C13.1948 31.8889 12.9476 31.9892 12.6901 31.9902C12.5554 31.9897 12.4222 31.962 12.2985 31.9087C12.1748 31.8554 12.0631 31.7777 11.9701 31.6802L6.26013 25.8102C5.69833 25.2477 5.38277 24.4852 5.38277 23.6902C5.38277 22.8952 5.69833 22.1327 6.26013 21.5702C6.85168 21.0298 7.62392 20.7302 8.42513 20.7302C9.22634 20.7302 9.99859 21.0298 10.5901 21.5702L12.1001 23.0002L12.9301 22.4602V11.6702C12.9551 10.8845 13.2805 10.1384 13.8393 9.58552C14.3981 9.03265 15.1476 8.71516 15.9335 8.6985C16.7194 8.68183 17.4817 8.96725 18.0634 9.49594C18.6451 10.0246 19.0019 10.7563 19.0601 11.5402C19.4041 11.4042 19.7703 11.333 20.1401 11.3302C20.9224 11.3164 21.679 11.6088 22.2488 12.1449C22.8186 12.6811 23.1564 13.4186 23.1901 14.2002C23.5393 14.0714 23.908 14.0038 24.2801 14.0002C24.6791 13.9922 25.0757 14.0639 25.4466 14.2111C25.8176 14.3583 26.1554 14.578 26.4403 14.8574C26.7253 15.1368 26.9517 15.4702 27.1062 15.8381C27.2607 16.2061 27.3402 16.6011 27.3401 17.0002V23.0002ZM15.3401 6.67021C16.126 6.66499 16.8999 6.86295 17.5867 7.24491C18.2735 7.62687 18.85 8.17985 19.2601 8.85021C19.4057 9.05042 19.6204 9.18951 19.8627 9.24056C20.1049 9.2916 20.3575 9.25098 20.5715 9.12655C20.7855 9.00213 20.9458 8.80273 21.0213 8.56696C21.0967 8.33119 21.0821 8.0758 20.9801 7.85021C20.3881 6.88648 19.5586 6.0908 18.5712 5.53928C17.5837 4.98776 16.4712 4.69886 15.3401 4.70021C13.6372 4.67072 11.9919 5.31705 10.7643 6.49776C9.53674 7.67847 8.8269 9.29738 8.79013 11.0002C8.79283 12.12 9.09679 13.2184 9.67013 14.1802C9.75864 14.3295 9.88447 14.4532 10.0353 14.5391C10.186 14.625 10.3566 14.6702 10.5301 14.6702C10.7096 14.6702 10.8858 14.6218 11.0401 14.5302C11.1544 14.4632 11.2542 14.3742 11.3338 14.2683C11.4134 14.1624 11.4711 14.0418 11.5037 13.9134C11.5362 13.785 11.543 13.6514 11.5235 13.5204C11.504 13.3894 11.4587 13.2636 11.3901 13.1502C10.9985 12.5014 10.791 11.7581 10.7901 11.0002C10.8164 9.82697 11.3071 8.71208 12.1545 7.90028C13.0019 7.08847 14.1369 6.64607 15.3101 6.67021H15.3401ZM7.00013 16.6502C7.18055 16.6471 7.35678 16.5953 7.51013 16.5002C7.7365 16.3633 7.89939 16.1422 7.96312 15.8854C8.02684 15.6287 7.98621 15.3571 7.85013 15.1302C7.22889 14.0623 6.84333 12.8738 6.71936 11.6446C6.5954 10.4153 6.73588 9.17379 7.13139 8.00333C7.5269 6.83287 8.16827 5.76059 9.01243 4.85849C9.8566 3.95639 10.884 3.24536 12.0257 2.77314C13.1674 2.30092 14.3968 2.07846 15.6316 2.12068C16.8664 2.1629 18.0778 2.46883 19.1845 3.01792C20.2913 3.56702 21.2677 4.34657 22.0483 5.30423C22.8289 6.26188 23.3955 7.37547 23.7101 8.57021C23.774 8.82736 23.9372 9.04867 24.1641 9.18554C24.391 9.32241 24.6629 9.36365 24.9201 9.30021C25.1773 9.23638 25.3986 9.0731 25.5355 8.84624C25.6723 8.61937 25.7136 8.34746 25.6501 8.09021C25.2751 6.6082 24.5855 5.2243 23.628 4.03255C22.6706 2.8408 21.4678 1.86914 20.1014 1.18361C18.735 0.498074 17.237 0.114739 15.7093 0.0596517C14.1816 0.00456479 12.6599 0.279018 11.2477 0.864358C9.83548 1.4497 8.56583 2.33221 7.52503 3.4519C6.48424 4.5716 5.69669 5.90224 5.21592 7.35339C4.73515 8.80454 4.57242 10.3422 4.7388 11.8618C4.90518 13.3815 5.39676 14.8475 6.18013 16.1602C6.26508 16.3038 6.38462 16.4239 6.52784 16.5095C6.67106 16.595 6.83342 16.6434 7.00013 16.6502Z" fill="white"/>
</g>
<defs>
<clipPath id="clip0_9307_979">
<rect width="32" height="32" fill="white"/>
</clipPath>
</defs>
</svg>
