<svg id="_2" data-name="2" xmlns="http://www.w3.org/2000/svg" viewBox="0 0 2000 2000"><defs><style>.cls-1{fill:#fff;}.cls-2{fill:#767c97;}.cls-3{fill:#ff8f7f;}.cls-4{fill:#ffe07b;}.cls-5{fill:#96e296;}.cls-6{fill:#eee;}</style></defs><rect class="cls-1" x="445.27" y="250" width="979.57" height="713.99" rx="10"/><path class="cls-2" d="M445.27,432.54a3,3,0,0,1-3-3V260.33A13.35,13.35,0,0,1,455.61,247H1414.5a13.35,13.35,0,0,1,13.34,13.33V391.18a3,3,0,1,1-6,0V260.33a7.34,7.34,0,0,0-7.34-7.33H455.61a7.34,7.34,0,0,0-7.34,7.33V429.54A3,3,0,0,1,445.27,432.54Z"/><path class="cls-2" d="M445.27,675.76a3,3,0,0,1-3-3V641.58a3,3,0,1,1,6,0v31.18A3,3,0,0,1,445.27,675.76Z"/><path class="cls-2" d="M1178,967H455.61a13.36,13.36,0,0,1-13.34-13.34V870a3,3,0,0,1,6,0v83.65a7.34,7.34,0,0,0,7.34,7.34H1178a3,3,0,0,1,0,6Z"/><path class="cls-2" d="M1399,337.19H471.1a3,3,0,0,1,0-6H1399a3,3,0,0,1,0,6Z"/><ellipse class="cls-3" cx="492.52" cy="292.59" rx="17.52" ry="17.5"/><ellipse class="cls-4" cx="546.75" cy="292.59" rx="17.52" ry="17.5"/><ellipse class="cls-5" cx="600.98" cy="292.59" rx="17.52" ry="17.5"/><rect class="cls-6" x="989.8" y="674.83" width="361.04" height="251.33" rx="10"/><rect class="cls-6" x="989.8" y="371.37" width="361.04" height="251.33" rx="10"/><rect class="cls-6" x="519.28" y="371.37" width="361.04" height="251.33" rx="10"/><rect class="cls-6" x="519.28" y="674.83" width="361.04" height="251.33" rx="10"/><path class="cls-1" d="M1136.2,497.82H1136a737.27,737.27,0,0,0-105.71-.64,3,3,0,1,1-.39-6,741.84,741.84,0,0,1,106.56.64,3,3,0,0,1-.22,6Z"/><path class="cls-1" d="M1081.33,571.12c-14.69,0-25.9-.14-26.15-.15a3,3,0,0,1,0-6h0c.53,0,54.19.72,80.73-1a3,3,0,1,1,.38,6C1121.76,570.91,1099,571.12,1081.33,571.12Z"/><path class="cls-1" d="M1026.87,426.73a3,3,0,0,1,0-6c71-1.25,143.09-1.52,214.2-.77a3,3,0,0,1-.06,6c-71.06-.75-143.07-.49-214,.77Z"/><rect class="cls-1" x="1164.82" y="463.98" width="137.22" height="102.87" rx="10"/><path class="cls-1" d="M1217.47,734.48H1107.8a3,3,0,0,1,0-6h109.67a3,3,0,0,1,0,6Z"/><path class="cls-1" d="M1228.06,806.34H1089.44a3,3,0,0,1,0-6h138.62a3,3,0,0,1,0,6Z"/><path class="cls-1" d="M1089.44,872.23a3,3,0,0,1-.11-6c19.45-.7,93.28-.47,111.89-.14a3,3,0,0,1,0,6h-.06c-18.57-.33-92.19-.57-111.56.14Z"/><path class="cls-1" d="M832.39,874h0l-96-1.09a3,3,0,1,1,.07-6l96,1.09a3,3,0,0,1,0,6Z"/><path class="cls-1" d="M716.43,805.54a3,3,0,1,1,0-6l57.48,0,60.08,0h0a3,3,0,1,1,0,6l-60.07,0-57.48,0Z"/><path class="cls-1" d="M837.21,732.65h-.07l-49.6-1.17a3,3,0,0,1,.07-6h.07l49.6,1.18a3,3,0,0,1-.07,6Z"/><path class="cls-1" d="M845,424.13h0c-16.09-.07-77.1-.14-136.09-.22s-120-.14-136.12-.21a3,3,0,0,1,0-6h0c16.09.07,77.1.14,136.09.21s120,.15,136.12.22a3,3,0,0,1,0,6Z"/><path class="cls-1" d="M817.06,474.46c-8.33,0-16.66-.26-24.93-.77a3,3,0,1,1,.37-6,400.12,400.12,0,0,0,49.34,0,3,3,0,1,1,.37,6C833.87,474.2,825.46,474.46,817.06,474.46Z"/><path class="cls-1" d="M660.23,474.46c-8.33,0-16.66-.26-24.93-.77a3,3,0,1,1,.37-6,400,400,0,0,0,49.33,0,3,3,0,0,1,.38,6C677,474.2,668.63,474.46,660.23,474.46Z"/><path class="cls-1" d="M1251,831.18c51.63-103.27,72.21-127.49,124.65-261.62,16.39-41.9,49.4-81.73,93.36-91.45a83.5,83.5,0,0,1,100.93,91.78c-3.79,30.46-23.73,56.12-35.65,84.41-17,40.45-7.92,105.09,8.89,145.64,0,0,27.36,40,40.28,148.26,10.89,91.27-367.64-14.57-367.64-14.57Z"/><path class="cls-6" d="M1590.23,1049.36c-.4-45.75-.22-91.9-8.59-137.06-7.53-40.67-23.47-92.2-58.8-117.49a85.06,85.06,0,0,0-18.56-10.07c-35-13.62-75.3-.17-105.21,19.76-28.77,19.17-51.42,47.86-61.73,81-1.44,4.64-2.51,9.4-3.7,14.1-49.78-14.72-88.34-54.32-88.34-54.32-92.84,197.44-65.85,315-56,454.88,6.17,87.66,19.12,174.69,34.52,261.16,7.45,41.79,12.29,84,21.5,125.53,6.35,28.59,12.35,58.2,24.68,84.93,3.89,8.45,11.38,26.75,22.57,28.12,28.26,3.44,38-63.06,43.53-81.48q12.87-43.14,21.67-87.2c10.93,45.36,22.83,90.49,38.26,134.5,5.09,14.53,14.56,31.67,29.92,30.61,13.76-1,21.34-16,26-29,42-115.56,70.76-235.52,93.44-356.23C1567.79,1292.18,1591.3,1170.77,1590.23,1049.36Z"/><path class="cls-2" d="M1294.75,1803a21.85,21.85,0,0,1-2.53-.15c-12.06-1.48-19.57-18-24-27.9-.31-.69-.61-1.34-.89-1.94-11.52-25-17.57-52.42-23.42-79l-1.46-6.58c-5.79-26.09-9.92-52.89-13.92-78.79-2.37-15.39-4.83-31.3-7.6-46.87-18.22-102.28-29.21-185.36-34.57-261.47-1.28-18.29-2.89-36.43-4.44-54q-.88-10-1.75-20a3,3,0,1,1,6-.51q.86,10,1.75,20c1.55,17.57,3.16,35.74,4.45,54.08,5.34,75.89,16.3,158.77,34.48,260.84,2.79,15.64,5.25,31.58,7.63,47,4,25.81,8.1,52.51,13.85,78.41l1.46,6.59c5.78,26.22,11.76,53.34,23,77.74.28.61.59,1.27.9,2,3.71,8.16,10.6,23.36,19.31,24.42,20.84,2.55,31.41-42.35,37.07-66.47,1.23-5.22,2.28-9.72,3.23-12.89,6.25-21,11.79-42.08,16.47-62.76a3,3,0,0,1,5.86,1.32c-4.71,20.81-10.29,42.06-16.58,63.16-.9,3-1.93,7.41-3.14,12.54C1329.55,1758.64,1319.13,1803,1294.75,1803Z"/><path class="cls-2" d="M1424.61,1799.34c-9.46,0-22.06-6-31.4-32.65-21.17-60.39-35.9-123.66-50.13-184.84l-68.57-294.66a3,3,0,0,1,5.85-1.36l68.56,294.66c14.2,61,28.89,124.13,49.95,184.21,3.89,11.11,12.6,29.63,26.88,28.6,9.53-.65,17-9.24,23.44-27,37.35-102.67,67-215.71,93.31-355.76l1.85-9.84c21.59-114.81,43.91-233.54,42.88-351.3l-.07-8.79c-.34-42.15-.69-85.74-8.47-127.75-10.54-56.89-29.92-95.78-57.6-115.6a81.84,81.84,0,0,0-17.9-9.71c-13.9-5.41-51.72-14.35-102.46,19.46-29.14,19.41-50.63,47.6-60.52,79.37-1.07,3.42-2,7-2.81,10.51-.28,1.14-.57,2.29-.85,3.43a3,3,0,0,1-3.76,2.14c-42.5-12.57-76.4-42.45-86.57-52.1-32,69-51.73,133.4-60.13,196.81a3,3,0,0,1-5.95-.79c8.64-65.2,29.06-131.4,62.44-202.4a3,3,0,0,1,4.87-.82c.37.39,37,37.63,84,52.62l.08-.33c.88-3.57,1.79-7.26,2.91-10.86,10.3-33.08,32.64-62.4,62.92-82.58,16.57-11,34.44-19,51.7-22.89,20.49-4.67,39.43-3.72,56.27,2.83a87.86,87.86,0,0,1,19.21,10.44c29,20.74,49.18,60.91,60,119.38,7.88,42.53,8.23,86.38,8.57,128.79l.07,8.78c1,118.36-21.34,237.37-43,352.47l-1.85,9.84c-26.37,140.37-56.11,253.72-93.57,356.7-4.64,12.76-12.66,29.84-28.66,31C1425.66,1799.33,1425.14,1799.34,1424.61,1799.34Z"/><path class="cls-1" d="M1534.75,857.33c-8-16.72-19.66-30.79-36.56-38.08-21.94-9.47-48.17-4.65-68.51,7.9-51.6,31.86-80.57,108.44-91,165.17-7.29,39.72-3.08,83.18,20.1,116.27s68,52.42,105.92,38.57c35.4-12.93,56.37-49.41,68.42-85.1a346.65,346.65,0,0,0,15-156.85C1545.91,889.06,1541.8,872.15,1534.75,857.33Z"/><path class="cls-2" d="M1438.58,1154.66a93.38,93.38,0,0,1-33.43-6.39,106.92,106.92,0,0,1-48.8-38c-21.63-30.89-28.95-73-20.59-118.53,11-60.07,41.06-135.52,92.35-167.18,22.85-14.11,50.16-17.21,71.27-8.1,16.08,6.93,28.89,20.24,38.08,39.55,6.5,13.66,11.08,30.06,13.62,48.75A350,350,0,0,1,1536,1063c-10.76,31.9-31.69,72.88-70.23,87A79.09,79.09,0,0,1,1438.58,1154.66Zm34.6-337.34a80.78,80.78,0,0,0-41.92,12.38c-23,14.22-43.17,38.46-59.83,72-13.36,26.93-23.93,59.29-29.77,91.12-8.06,44-1.1,84.45,19.61,114,23.8,34,67.84,50.1,102.43,37.47,36.31-13.26,56.26-52.58,66.6-83.23a344,344,0,0,0,14.84-155.5c-2.46-18.08-6.87-33.89-13.1-47h0c-8.54-18-20.33-30.27-35-36.61A59.94,59.94,0,0,0,1473.18,817.32Z"/><path class="cls-2" d="M1440.69,1332.61c-19.92,0-40.57-13.67-51.52-34.62s-12.24-45.06-12.59-66a3,3,0,0,1,3-3h0a3,3,0,0,1,3,3c.34,20.24,1.56,43.49,11.91,63.31,8.75,16.74,28.19,33.65,50.24,31.18a3,3,0,0,1,.67,6A41.3,41.3,0,0,1,1440.69,1332.61Z"/><path class="cls-2" d="M1283.54,1026a3.07,3.07,0,0,1-1.29-.29c-9.39-4.49-19.75-9.06-29.76-13.48s-20.47-9-30-13.57c-2.09-1-5.26-2.52-6.73-5.7-1.35-2.93.52-10.12,9.49-36.65,1.5-4.44,2.8-8.28,3.53-10.69l1.06-3.45c3.13-10.22,6.37-20.78,9.51-31.19a3,3,0,1,1,5.74,1.73c-3.14,10.42-6.38,21-9.51,31.22l-1.06,3.45c-.76,2.49-2.07,6.37-3.59,10.85-3.17,9.37-9.69,28.67-9.59,32.45.61,1,2.12,1.79,3.74,2.56,9.39,4.5,19.76,9.07,29.78,13.5,9,4,18.35,8.1,27,12.17,6.25-16.36,10.71-34.94,14.66-51.44,1.71-7.1,3.31-13.8,5-20a3,3,0,0,1,5.8,1.55c-1.64,6.13-3.24,12.8-4.93,19.86-4.25,17.71-9.06,37.79-16.09,55.25a3,3,0,0,1-1.7,1.68A3.14,3.14,0,0,1,1283.54,1026Zm-62.14-35.13Z"/><path class="cls-2" d="M1096.39,1181.55a3,3,0,0,1-.56-6c65.36-12.56,134.23-28.85,195.06-62.61,35.62-19.78,67-45.81,90.7-75.28,26.18-32.53,42.2-67.69,47.61-104.51a3,3,0,0,1,5.94.87c-5.58,37.89-22,74-48.88,107.4-24.19,30.07-56.16,56.61-92.46,76.77-61.56,34.17-131,50.59-196.84,63.26A3.66,3.66,0,0,1,1096.39,1181.55Z"/><path class="cls-5" d="M1439.77,523.27a66.4,66.4,0,0,1-6.5-3.34c-23.67-14-33.48-45.63-26.06-72.08S1436.36,399.92,1462,390c14.65-5.68,27.75-4.37,28.74-5.68-7.91,10.35-7.74,25.45-1.59,36.93s17.38,19.58,29.49,24.38c42.29,16.77,79.58,29.7,95.79,75.41,19.93,56.19-16.94,119-57.2,156.27-57.43,53.15-57.58-23.85-55.79-66.58,1.15-27.71-8.68-59.26-33.23-74.89C1459.46,530.25,1449.21,527.56,1439.77,523.27Z"/><path class="cls-2" d="M1251,834.18a3.07,3.07,0,0,1-1.34-.32,3,3,0,0,1-1.34-4c15.07-30.13,27.7-53.91,38.83-74.9,27.17-51.17,48.62-91.59,85.72-186.46,8.78-22.45,21.56-42.78,37-58.79,17.25-17.92,37.49-29.85,58.53-34.5a86.51,86.51,0,0,1,104.56,95.08c-2.59,20.81-12.57,39.53-22.22,57.64-4.77,9-9.7,18.22-13.64,27.56-15.76,37.4-12.12,96.31,8.86,143.25a3,3,0,1,1-5.48,2.45,230.1,230.1,0,0,1-18.64-75.55c-2-27.64,1.39-52.7,9.73-72.48,4-9.59,9-19,13.88-28,9.82-18.44,19.1-35.85,21.55-55.56a80.49,80.49,0,0,0-97.3-88.48c-20.17,4.46-38.84,15.49-55.51,32.81-14.86,15.44-27.21,35.08-35.7,56.8-37.22,95.19-58.75,135.75-86,187.1-11.12,21-23.72,44.7-38.76,74.77A3,3,0,0,1,1251,834.18Z"/><path class="cls-2" d="M1362,806.12a75.48,75.48,0,0,1-29.81-6.47,76.47,76.47,0,0,1-38.37-37,3,3,0,0,1,5.42-2.58,70.39,70.39,0,0,0,35.31,34.08c20.14,8.6,39.38,7.89,58.84-2.16a3,3,0,0,1,2.75,5.33C1384.79,803.18,1373.47,806.12,1362,806.12Z"/><path class="cls-1" d="M1300.21,1174.58,1135,1227.36s-27.54-26.92-41.53-40.69c-21.3-21-43.85-40.62-65.08-61.67L931,1028.48c61.76-8.11,122.45-22.16,184.2-30.27C1174.37,1056.25,1241.05,1116.54,1300.21,1174.58Z"/><path class="cls-2" d="M1135,1230.36a3,3,0,0,1-2.1-.86c-.27-.26-27.7-27.07-41.54-40.69-10.34-10.18-21.17-20.23-31.64-30-11.07-10.28-22.52-20.9-33.44-31.73l-97.39-96.52a3,3,0,0,1,1.72-5.11c30.81-4,61.89-9.67,92-15.11s61.29-11.09,92.24-15.15a3,3,0,0,1,2.49.83c29.56,29,61.53,59.06,92.45,88.13s63,59.19,92.56,88.23a3,3,0,0,1-1.18,5l-165.22,52.79A3.14,3.14,0,0,1,1135,1230.36ZM937.44,1030.64l93.06,92.23c10.86,10.76,22.27,21.35,33.3,31.59,10.51,9.75,21.37,19.83,31.77,30.07,12.11,11.92,34.63,33.94,40.24,39.42l158.74-50.72c-28.55-27.92-59.22-56.74-88.91-84.66-30.57-28.75-62.18-58.47-91.49-87.19-30.34,4-60.92,9.56-90.51,14.92C995.46,1021.39,966.4,1026.65,937.44,1030.64Z"/><path class="cls-5" d="M1252.37,1163c-23.89,7.9-111.37,30.16-111.37,30.16-12.46-4.06-118.59-104.68-162.42-151.4,37.07-8.84,103.82-18.81,125.94-23.48C1159.93,1067.62,1201.45,1112.79,1252.37,1163Z"/><path class="cls-2" d="M1397.07,658.33a17.45,17.45,0,0,1-14.6-8.15c-4.36-6.86-4-16.92.69-22.91a3,3,0,0,1,4.71,3.73c-3.16,4-3.31,11.28-.34,16a11.18,11.18,0,0,0,12.4,5c4.5-1.33,8.53-5.74,10.26-11.25a3,3,0,0,1,5.73,1.79c-2.35,7.49-7.83,13.31-14.3,15.22A16.51,16.51,0,0,1,1397.07,658.33Z"/><path class="cls-2" d="M1079.71,1187.82c-14.6,0-29-8.23-34.54-20.56a24.22,24.22,0,0,1,.06-19.29,31.39,31.39,0,0,1,12.54-14.69,3,3,0,1,1,3.1,5.13c-8.37,5.06-14.67,16.59-10.23,26.38,5.27,11.64,20.86,19,34.74,16.52a3,3,0,0,1,1.08,5.91A38.32,38.32,0,0,1,1079.71,1187.82Z"/><path class="cls-2" d="M1137.7,945.33a94.09,94.09,0,0,1-14.54-1.13c-29.14-4.56-54.07-22.27-66.68-47.36-16-31.89-12.57-64.82-9.23-96.67,2.69-25.52,5.46-51.91-2.19-77-5.19-17-19.14-34.41-37.19-39.1a3,3,0,0,1-4.25,1.63l-5.92-3.2a3,3,0,0,1,1.42-5.64h.06c11.61.22,22.85,5,32.5,13.91a69.77,69.77,0,0,1,19.12,30.66c8,26.28,5.17,53.29,2.42,79.41-3.4,32.41-6.62,63,8.62,93.34,11.75,23.37,35,39.87,62.25,44.13,26.93,4.21,53.81-4.27,71.89-22.68,24.19-24.63,37.47-50,52.23-85.57a3,3,0,0,1,5.55,2.31c-15,36.22-28.63,62.15-53.5,87.46C1184.1,936.25,1161.45,945.33,1137.7,945.33Z"/><path class="cls-1" d="M983.4,540.29l8.45,30.5a7.86,7.86,0,0,1-5.41,9.72L968,585.61a7.87,7.87,0,0,1-9.64-5.56l-8.45-30.49a41.15,41.15,0,0,0,17,70.45l38.51,135.16a19.37,19.37,0,0,0,23.44,13.44h0a19.36,19.36,0,0,0,13.84-23.91l-37.58-135.26a41.16,41.16,0,0,0-21.71-69.15Z"/><path class="cls-2" d="M1023.93,772.23a22.21,22.21,0,0,1-21.4-16.24l-38-133.54a44.16,44.16,0,0,1-16.54-75.14,3,3,0,0,1,4.87,1.44l8.45,30.5a4.88,4.88,0,0,0,6,3.46l18.43-5.1a4.71,4.71,0,0,0,2.88-2.27,5,5,0,0,0,.44-3.75l-8.45-30.5a3,3,0,0,1,3.43-3.75,44.17,44.17,0,0,1,24.51,72.93l37.13,133.62a22.35,22.35,0,0,1-16,27.62A22.64,22.64,0,0,1,1023.93,772.23ZM948.41,555.34a38.18,38.18,0,0,0,19.24,61.77,3,3,0,0,1,2.14,2.08l38.51,135.16a16.36,16.36,0,0,0,31.49-8.85l-37.58-135.26a3,3,0,0,1,.76-2.91,38.18,38.18,0,0,0-15.3-62.86L994.74,570a10.86,10.86,0,0,1-1,8.26,10.67,10.67,0,0,1-6.52,5.15l-18.43,5.1a10.88,10.88,0,0,1-13.33-7.65Z"/><path class="cls-2" d="M998.65,718.43a38.24,38.24,0,0,1-8.66-.93c-7.56-1.77-13.69-6.18-16.83-12.1-3.75-7.08-2.58-15.89,2.77-20.95a3,3,0,1,1,4.12,4.35c-3.37,3.2-4.06,9.13-1.59,13.79,2.3,4.33,7.11,7.71,12.89,9.06,4.79,1.12,10.33,1,17.46-.26a3,3,0,0,1,1.08,5.9A63,63,0,0,1,998.65,718.43Z"/><path class="cls-5" d="M649.2,679.7c-15.33,1.75-50.56,19.89-51.94,18.73a100.83,100.83,0,0,0-24.45-15.25c-1.48-.65.11-41.43-5-57.16-25.56-8.88-32.93-8.07-58.68-1.18-3.43,16.91-6.24,54.41-9.11,55.37a105.69,105.69,0,0,0-23.92,11.56c-3.8,2.47-60-17.48-60-17.48-20.52,18.38-23,24.11-29.58,53.74l47,33.38a116.17,116.17,0,0,0,0,23.51c.4,4.06-27.77,18-50.64,31.79,3.85,18.76,18.61,45.12,27.44,53.25,15.24-6.2,50.61-16.54,50.61-16.54,3.65,2.88,23.72,14.72,23.72,14.72l9.88,49.62c8.72,3,12.17,6.21,21.42,7.75,12.2,2,19.89.24,38.49-4.34,0,0,3.29-27.44,9-48.47,13.65-4.06,22.93-9,33.87-18.05,19.56,4.15,55.32,20.05,55.32,20.05,18.95-20,19.3-21.81,26.26-48.65-10.93-10.54-47.48-32.6-47.08-35.66a107.93,107.93,0,0,0,0-28.56c21.74-9.19,47.13-35.89,47.13-35.89C668.9,705.68,660.52,690.86,649.2,679.7Zm-76,78.22c11.35,22.32-1.82,51.21-23.62,60.21a36.38,36.38,0,0,1-22.75,1.73c-20-4.85-37.56-15.48-40.16-37.9C480.74,730.92,551.43,715.18,573.18,757.92Z"/><path class="cls-5" d="M585.58,453.13c-12.35.05-42,11.4-43,10.36a80.74,80.74,0,0,0-18.11-14.27c-1.13-.65,3.71-33,1-45.92C506,394,500,394,478.93,397.22c-4.21,13.16-9.73,42.75-12.1,43.26a85,85,0,0,0-20,7.11c-3.24,1.63-46.23-19.17-46.23-19.17-17.94,12.83-20.45,17.18-28.24,40.17l34.45,30.68a94,94,0,0,0-2.06,18.7c0,3.27-23.67,11.92-43.07,20.87,1.42,15.26,10.85,37.52,17.16,44.76,12.67-3.6,41.72-8.73,41.72-8.73,2.66,2.61,17.59,13.79,17.59,13.79L441.62,629c6.67,3.12,9.14,6,16.37,8,9.52,2.69,15.8,1.93,31-.09,0,0,5-21.54,11.42-37.77a70,70,0,0,0,28.53-11.4c15.2,5,42.26,20.8,42.26,20.8,16.83-14.26,17.26-15.67,25.16-36.41-7.78-9.34-34.93-30.1-34.34-32.5A86.55,86.55,0,0,0,564.48,517c18.11-5.41,40.65-24.43,40.65-24.43C599,475.52,593.61,463,585.58,453.13Zm-67.34,55.59c7.08,18.75-5.94,40.58-24.07,45.83a29.14,29.14,0,0,1-18.25-.61c-15.47-5.61-28.52-15.6-28.63-33.67C447.06,479.14,504.68,472.8,518.24,508.72Z"/><path class="cls-5" d="M823.76,502.85c-13.4,1.38-44.31,16.89-45.51,15.86a88.38,88.38,0,0,0-21.2-13.54c-1.29-.58.48-36.16-3.84-49.93-22.23-8-28.67-7.36-51.21-1.59-3.15,14.73-6,47.44-8.47,48.25a92.29,92.29,0,0,0-21,9.87C669.2,513.89,620.31,496,620.31,496,602.23,511.81,600,516.79,594,542.58l40.7,29.58a101.9,101.9,0,0,0-.22,20.52c.32,3.55-24.4,15.49-44.49,27.28,3.18,16.41,15.82,39.56,23.45,46.73,13.36-5.27,44.33-14,44.33-14,3.16,2.54,20.57,13.07,20.57,13.07l8.16,43.4c7.58,2.68,10.57,5.53,18.63,7,10.62,1.88,17.36.39,33.63-3.44,0,0,3.13-23.92,8.32-42.22a76.38,76.38,0,0,0,29.74-15.44c17,3.8,48.1,18,48.1,18,16.73-17.29,17.05-18.86,23.38-42.22-9.45-9.3-41.15-28.91-40.77-31.57a94.63,94.63,0,0,0,.23-24.93c19.06-7.82,41.47-30.88,41.47-30.88C840.72,525.71,833.54,512.69,823.76,502.85Zm-67.09,67.57c9.71,19.58-2.06,44.68-21.18,52.33a31.74,31.74,0,0,1-19.87,1.3c-17.38-4.42-32.63-13.86-34.69-33.46C676.24,546,738.09,532.9,756.67,570.42Z"/><path class="cls-2" d="M372,936.58a3,3,0,0,1-2.64-4.44L394,886.9a3,3,0,1,1,5.26,2.87L374.59,935A3,3,0,0,1,372,936.58Z"/><path class="cls-2" d="M320,917.81a3,3,0,0,1-2.07-5.17L368,864.82a3,3,0,0,1,4.14,4.34L322,917A3,3,0,0,1,320,917.81Z"/><path class="cls-2" d="M300,869.53a3,3,0,0,1-.94-5.85L351,846.6a3,3,0,0,1,1.88,5.7l-51.89,17.08A3.08,3.08,0,0,1,300,869.53Z"/><path class="cls-2" d="M358.27,451.58a3,3,0,0,1-1.17-.24l-36.82-15.53a3,3,0,0,1,2.34-5.53l36.81,15.53a3,3,0,0,1-1.16,5.77Z"/><path class="cls-2" d="M374.37,432.72a3,3,0,0,1-2.49-1.31L339.81,384a3,3,0,1,1,5-3.36L376.85,428a3,3,0,0,1-.8,4.17A3,3,0,0,1,374.37,432.72Z"/></svg>