<svg xmlns="http://www.w3.org/2000/svg" viewBox="0 0 1200 1200"><defs><style>.cls-1{fill:#fff}.cls-3{fill:#e3e3e3}.cls-4{fill:#767c97}.cls-6{fill:#cfcfcf}</style></defs><g id="Calque_2" data-name="Calque 2"><g id="_ÎÓÈ_1_1_" data-name="—ÎÓÈ_1_1_"><path class="cls-1" d="M0 0h1200v1200H0z"/><path d="M357.91 1035.48C336.73 1030.9 82.25 989.65 101 685.4s42.25-395.75 141.19-429.23S581.6 64.3 770.32 214.91c49 39.1 98.91 76.93 146.6 117.85C982.44 389 1049.82 453.93 1082 539a278.86 278.86 0 0116.63 126c-4.93 50.21-11.87 99.05-24.51 148q-6.45 25-12.91 50c-2.58 10-5.18 20.06-9.25 29.48-26.17 60.7-59.18 100.53-114.49 132.85-48 28-107.48 27.31-160.5 24.22-210.83-12.29-318.35 7.71-419.06-14.07z" fill="#f4f8ff"/></g><g id="_ÎÓÈ_2" data-name="—ÎÓÈ_2"><path class="cls-3" d="M997.17 503.56H712.6a17.83 17.83 0 00-17.83 17.83v72.5L673 615.67l21.77 21.77v71.17a17.83 17.83 0 0017.83 17.83h284.57a17.83 17.83 0 0017.83-17.83V521.39a17.83 17.83 0 00-17.83-17.83z"/><path class="cls-1" d="M982.17 488.56H697.6a17.83 17.83 0 00-17.83 17.83v72.5L658 600.67l21.77 21.77v71.17a17.83 17.83 0 0017.83 17.83h284.57a17.83 17.83 0 0017.83-17.83V506.39a17.83 17.83 0 00-17.83-17.83z"/><path class="cls-4" d="M982.37 486.74H718.51c-6.71 0-13.44-.15-20.15 0-7.55.16-14.62 3.66-18.47 10.34-3 5.25-2.57 11-2.57 16.83V578.43c0 1.28.42-.34.24-.1-4.5 6-11.07 11.07-16.35 16.35l-5.21 5.24a1.43 1.43 0 00-.18 1.83l10.54 10.54c3.47 3.47 8.47 7.09 11.21 11.2-.79-1.18-.22 0-.22 1.22V690c0 4.36 0 8.51 2.06 12.55 3.48 6.9 10.53 10.61 18.1 10.73 38.92.66 77.91 0 116.84 0h154.22c4.31 0 8.63.12 12.94 0 11.57-.29 20.66-8.66 20.94-20.38.44-18.18 0-36.43 0-54.61V517.52c0-4.91.57-10.35-.38-15.2-1.78-9.18-10-15.22-19.08-15.57-2.4-.09-4.9 3.49-1.64 3.61 9.29.36 15.92 7.3 16.2 16.54.05 1.74 0 3.49 0 5.23V693.33c-.2 8-5.27 15.49-13.79 16.24-3.18.28-6.46 0-9.65 0H697.97c-8.88-.35-15.42-7.44-15.75-16.2-.33-9 0-18.12 0-27.15v-39.13c0-1.89.46-4.35-.49-6s-3.09-3.09-4.39-4.39l-7.29-7.29-9.84-9.84-.18 1.83 15-15c2.66-2.66 7.09-5.33 7.22-9.3.56-15.92 0-31.95 0-47.88v-20.75c0-9.4 4.89-17.69 15.21-18.09 5.23-.21 10.51 0 15.74 0h246.66c7 0 14.17.49 21.15 0h1c2.76 0 3.63-3.64.36-3.64z"/><path class="cls-4" d="M969.31 613.29H710.73c-1.64 0-5.18 2.47-2 2.47h258.63c1.64 0 5.18-2.47 1.95-2.47zM936.92 640.19H710c-2.75 0-3.72 3.51-.44 3.51h226.92c2.75 0 3.72-3.51.44-3.51zM907.22 668H710c-2.74 0-3.73 3.48-.44 3.48h197.22c2.74 0 3.72-3.48.44-3.48zM967.87 585.84H710c-2.8 0-3.67 3.65-.4 3.65h257.87c2.8 0 3.67-3.65.4-3.65z"/><rect x="706" y="515.33" width="206.74" height="43.52" rx="11.5" fill="#cbe7f4"/><path class="cls-1" d="M893.34 533.41H726.18c-5.63 0-7.33 7.37-.78 7.37h167.16c5.63 0 7.33-7.37.78-7.37z"/><path class="cls-4" d="M952.79 628.43a5.25 5.25 0 01.9-2.81 6.9 6.9 0 012.61-2.36 8.19 8.19 0 014-.92 8.4 8.4 0 013.74.8 6.08 6.08 0 012.51 2.14 5.21 5.21 0 01.87 2.93 4.47 4.47 0 01-.51 2.18 6.6 6.6 0 01-1.21 1.61c-.46.46-1.3 1.22-2.5 2.29a8.6 8.6 0 00-.8.79 2.67 2.67 0 00-.45.63 2.72 2.72 0 00-.23.57c-.06.19-.14.52-.25 1a1.63 1.63 0 01-1.75 1.52 1.81 1.81 0 01-1.28-.5 2 2 0 01-.51-1.49 5.24 5.24 0 011.4-3.7 22.12 22.12 0 011.71-1.61c.63-.55 1.08-1 1.36-1.24a4.09 4.09 0 00.71-.93 2.35 2.35 0 00.29-1.11 2.6 2.6 0 00-.87-2 3.17 3.17 0 00-2.25-.81 3.12 3.12 0 00-2.37.8 6.57 6.57 0 00-1.3 2.39c-.33 1.11-1 1.65-1.89 1.65a1.89 1.89 0 01-1.39-.58 1.76 1.76 0 01-.54-1.24zm7.08 16.08a2.31 2.31 0 01-1.55-.58 2 2 0 01-.66-1.62 2 2 0 01.65-1.55 2.16 2.16 0 011.58-.63 2.12 2.12 0 011.55.64 2.27 2.27 0 010 3.16 2.23 2.23 0 01-1.57.58z"/><path class="cls-1" d="M963.36 755.49H713.74a15.64 15.64 0 00-15.64 15.64v35.6l-19.1 19.1 19.1 19.1v90.43A15.64 15.64 0 00713.74 951h249.62A15.64 15.64 0 00979 935.36V771.13a15.64 15.64 0 00-15.64-15.64z"/><path class="cls-6" d="M963.56 753.67H720.93c-6.55 0-12.86-.38-18.45 4-6.19 4.85-6.83 11.62-6.83 18.83V801c0 1.84.39 4.1 0 5.9.34-1.57-.23-.23-1.06.6q-1.85 1.83-3.68 3.68l-13.94 13.94a1.43 1.43 0 00-.18 1.83l10.6 10.59 6.15 6.15c.75.75 2.58 3.27 2.11 1.58.58 2.1 0 5.17 0 7.32v15.7c0 22.26-.46 44.58 0 66.84.22 10.69 8.24 17.61 18.64 17.73 4.51.06 9 0 13.54 0h215.43c12.67 0 31.7 3.2 37.18-12 1.71-4.75 1-10.65 1-15.61v-143c0-4.66.54-9.78-.26-14.41-1.45-8.31-8.85-13.78-17-14.13-2.4-.1-4.9 3.47-1.64 3.61 8.11.35 13.74 6.35 14 14.39.06 1.69 0 3.39 0 5.07v103.13c0 18 .11 36 0 54 0 8.52-4.9 15.17-13.94 15.28-4.44.05-8.89 0-13.34 0H719.4c-6.36 0-12.44 0-16.51-6.29s-2.34-16.44-2.34-23.35v-70.46c0-1.5.44-3.84-.24-5.24-.51-1-2-2-2.86-2.85l-7-7q-4.6-4.61-9.2-9.2l-.18 1.83 12-12c2.42-2.41 7-5.4 7.55-8.91.86-5.71 0-12.16 0-17.93 0-5.54-.21-11.13 0-16.67.3-7.87 5.42-13.5 13.41-13.79 1.57-.06 3.15 0 4.72 0h244.41c2.84-.02 3.67-3.66.4-3.66z"/><path class="cls-6" d="M962.3 868.21H727.38c-1.64 0-5.18 2.47-2 2.47h234.97c1.64 0 5.19-2.47 1.95-2.47zM961.22 892.6H726.63c-2.75 0-3.72 3.51-.44 3.51h234.59c2.75 0 3.72-3.51.44-3.51zM857.83 917.91h-131.2c-2.74 0-3.73 3.48-.44 3.48h131.19c2.74 0 3.73-3.48.45-3.48zM912.53 842.69H726.61c-2.8 0-3.67 3.66-.4 3.66h185.92c2.8 0 3.68-3.66.4-3.66zM893.13 799.34H728.29c-4.22 0-5.49 5.52-.58 5.52h164.84c4.22 0 5.49-5.52.58-5.52z"/><path class="cls-1" d="M963.36 251H713.74a15.64 15.64 0 00-15.64 15.64v95.6l-19.1 19.1 19.1 19.1v30.43a15.64 15.64 0 0015.64 15.64h249.62A15.64 15.64 0 00979 430.87V266.64A15.64 15.64 0 00963.36 251z"/><path class="cls-6" d="M963.56 249.18H719.4c-1.78 0-3.57-.06-5.35 0-9.17.3-17.48 6.81-18.34 16.28-1 11-.06 22.46-.06 33.48V351c0 3.55.63 7.77 0 11.29.18-1 .56-.69-.36-.05a29.16 29.16 0 00-3.47 3.47l-9.69 9.69-5.13 5.19a1.43 1.43 0 00-.18 1.83l8.51 8.5c3.36 3.37 7.48 6.62 10.38 10.39.54.7-.22-1.31 0-.33a9.84 9.84 0 010 1.8v24.9c0 5 .31 9.76 3.57 13.91a18.23 18.23 0 0014.4 6.74c2.87.06 5.74 0 8.61 0h237c5.11 0 9.91-.21 14.4-3.25 6.53-4.43 7.86-11.16 7.86-18.38V274.48c0-4.36.55-9.5-.92-13.67-2.47-7-9-11.3-16.35-11.61-2.4-.11-4.9 3.47-1.64 3.6a14.3 14.3 0 0114 14.17c.05 1.28 0 2.57 0 3.85V419c0 4 .13 8 0 11.94-.29 8.78-6.58 13.74-14.85 13.78-33.86.15-67.72 0-101.58 0H732.43c-10.59 0-27.88 3.12-31.41-10.52-1-3.75-.47-8.12-.47-11.95V405.4c0-2.42.49-4.74-.89-6.68-2.76-3.9-7.27-7.27-10.64-10.65q-3.91-3.9-7.81-7.81l-.18 1.83 14.56-14.55c2.65-2.65 5-3.94 5-7.66V270.8c0-6.54.52-13.29 7.32-16.68 2.82-1.4 5.72-1.3 8.73-1.3h223.67c7.24 0 14.61.42 21.83 0h1c2.86 0 3.69-3.64.42-3.64z"/><path class="cls-6" d="M962.3 361.89H727.38c-1.64 0-5.18 2.46-2 2.46h234.97c1.64 0 5.19-2.46 1.95-2.46zM912.22 386.27H726.63c-2.75 0-3.72 3.51-.44 3.51h185.59c2.75 0 3.72-3.51.44-3.51zM857.83 411.58h-131.2c-2.74 0-3.73 3.48-.44 3.48h131.19c2.74 0 3.73-3.48.45-3.48zM960.7 336.37H726.61c-2.8 0-3.67 3.65-.4 3.65H960.3c2.8 0 3.67-3.65.4-3.65zM893.13 294H726.79c-4.22 0-5.49 5.53-.58 5.53h166.34c4.22 0 5.49-5.53.58-5.53z"/><rect class="cls-3" x="185" y="374.73" width="400" height="480.53" rx="21.18"/><rect class="cls-1" x="200" y="359.73" width="400" height="480.53" rx="21.18"/><path class="cls-3" d="M306.15 792.68c14.76 5.71 30.49 8.49 46.05 10.94 20.74 3.25 41.27 6.62 62.33 6.86 34 .37 67.48-4.76 100.79-11-.75-4.12-1.51-8.26-2.25-12.42-5.19-29.07-11-58-18.26-86.65-12.16-47.53-44.3-175.75-120.06-137.74-47.6 23.88-77.25 113.39-95.69 212.11 7.15 8.12 16.8 13.92 27.09 17.9z"/><path d="M306.15 792.68c14.76 5.71 30.49 8.49 46.05 10.94 20.74 3.25 41.27 6.62 62.33 6.86 33.63.37 66.81-4.66 99.8-10.77-.93-5.28-1.88-10.59-2.81-16-4.88-28.3-10.32-56.51-17.22-84.36-11.47-46.23-44.22-170.35-113.4-134.02-46.61 24.45-75.17 117.42-92.5 217.89a78.48 78.48 0 0017.75 9.46z" fill="#f9f9f9"/><path class="cls-1" d="M412.7 628.94a17.19 17.19 0 007.71.39 25.69 25.69 0 009-4.26A110.22 110.22 0 00443 614.4a49.79 49.79 0 015-3.82 18.85 18.85 0 003.91-4.2c2-2.63 4.73-6.27 5.43-9.55.31-1.47-1.16-2.87-2-4-1.19-1.57-2.47-3.07-3.64-4.67a110.42 110.42 0 00-12.53-14.61C421 556 397.65 551.23 374.75 562.72c-13.41 6.72-24.37 18-33 30.08-1.3 1.83-1.48 2.58-.8 4.62s1.32 3.82 2.13 5.67a37.22 37.22 0 006.17 10.1 91.32 91.32 0 0015.17 13.28 20.65 20.65 0 003.18 2.32 14.73 14.73 0 005 .93 25.42 25.42 0 0010.15-1.72 45.31 45.31 0 008.11-4.23c2.17-1.38 4.49-4.46 7.38-3.15 1.66.75 3.16 2.37 4.66 3.43a38.9 38.9 0 005.58 3.35 24.35 24.35 0 004.22 1.54z"/><path class="cls-1" d="M345.87 501.63c.69-52.62 24.42-95 53-94.6s51.19 43.34 50.49 96c0 1.22-.09 7.28-.12 9.44-.38 29.17-3.13 49.47-7.66 63.56-9.3 29-44.39 40.65-44.39 40.65s-35.6-12.38-44.42-38.5c-4.82-14.3-7.44-35.54-7-67.08 0-2.1.08-8.19.1-9.47z"/><path d="M348.66 580.37c-13.8 1.55-30.53-.6-42.31-7.4-20.2-11.65-19.71-38.42-18.24-58.75a188.41 188.41 0 0119.51-71c8.23-16.35 19.11-31.72 33.8-42.65a75.65 75.65 0 0127.35-13c10.38-2.49 19.54-.5 29.77-.48 15.6 0 30.77 5.3 44.76 12.19 8.9 4.39 18 10.09 21.79 19.28 10 24.38-22.06 47.85-42.87 50.77a54.25 54.25 0 01-33.43-6.3c-8-4.41-20.17-13.45-20.34-23.51.24 14.1-7.54 28-6.85 41.69.91 17.84 2.86 35.19 2 53.14-.6 11.99 1.96 44.13-14.94 46.02z" fill="#f9ab98"/><path class="cls-4" d="M433.88 587.12A69.73 69.73 0 01412.83 607a92 92 0 01-9.45 5.17c-1.63.77-4.25 2.51-6.09 2.6.52 0-.35-.33-1-.67-1-.53-2.17-.91-3.22-1.38a100.34 100.34 0 01-9.83-5.08c-8.36-4.9-16-11-21.9-18.69-1.32-1.72-5.92.16-4.43 2.12 6.34 8.29 14.64 14.8 23.66 19.95a112 112 0 0010.43 5.3c2.21 1 4.47 2.22 7 1.78 5.64-1 11.71-5 16.49-7.93 9.2-5.58 17.42-12.69 23.46-21.66 1.71-2.53-2.81-3.22-4-1.39z"/><path class="cls-3" d="M447.25 613.16c-3.65 4.25-6.88 8.74-11.77 11.52-5.76 3.27-11 5.46-17.68 5.91-6.3.43-10.9-4.89-14.93-9.32-2.2-2.43-3.12-4.6-10.85 2-3.37 2.87-5.78 6.09-10.29 6.34-4.11.23-12.19 2.17-15.74 0-7.63-4.65-13.32-12.1-18.62-19.11-3.66-4.84-10.59.07-11.23 4.53-.9 6.36 6.94 12.81 11.18 16.62 5.14 4.62 11.18 8.25 18.05 9.5 11.18 2 20.13-3.21 28.44-9.54 6.32 5.85 14.45 10.67 23.1 9.86 9.27-.88 17.71-5.51 24.94-11.15 4.35-3.39 9.09-7 11.62-12 .83-1.65 2.68-5.59 1-7.17s-6.03.63-7.22 2.01z"/><path class="cls-4" d="M342.78 607.12c7.23 10.14 15.93 22.24 29.13 24.45 11.79 2 19.74-6.78 27.95-13.65l-4.15.65c5.43 6.37 13.87 13.8 22.81 13.2 14.27-1 26.71-15 35-25.3 1.16-1.44-3.58-.94-4.44.13A101.68 101.68 0 01435.4 621c-4.88 4.07-12.18 9.92-18.9 7.9-6.34-1.9-12.05-7.13-16.28-12.09-.8-.95-3.42 0-4.15.64-3.48 2.92-6.69 6.21-10.39 8.86-5.79 4.16-11.83 3.57-17.89.29-8.79-4.78-14.79-13.29-20.49-21.25-.8-1.11-5.47.44-4.52 1.77zM472.08 629.61c16.15 6.15 33.64 13.26 45.43 26.41 4.71 5.26 9.4 12.38 8.75 19.8-.69 7.92-7.6 12.27-14.62 14.31-17.59 5.13-39.26 1.35-50.71-13.93a33.4 33.4 0 01-6-13.09c-1-4.74.68-8.51.63-13.07-.07-6.31-6.73-6.52-11.48-7.68-1.45-.35-5.66 1.87-3 2.52s6.33.64 8.34 2.59c2.84 2.75.16 7.87.07 11.22-.21 7.43 3.3 14.9 7.91 20.57 9.22 11.31 24.29 15.91 38.47 15.59 10.91-.25 26.17-2.71 32.73-12.67s-.6-21.69-7.6-29.09c-12-12.63-29.12-19.68-45.05-25.74-1.39-.53-5.78 1.53-3.87 2.26zM395.05 554c-.92 2.75 2.1 4.94 3.81 6.55 2.52 2.36 4.85 4.85 7.83 6.66 4.5 2.74 10.11 3.56 14.69.52 2-1.35 15.34-16.84 8-18.07a7.24 7.24 0 00-2.73.26 132 132 0 01-15.65 2.6c-2.76.27-5.52.44-8.29.47-2.31 0-5-.53-7.19.49a.91.91 0 00-.47.52z"/><path class="cls-1" d="M347.73 676.09a24.19 24.19 0 002.64-14.16c-1-10.57-7.73-18.57-14.94-17.86s-12.22 9.85-11.19 20.43a24.37 24.37 0 005.16 13.16z"/><path class="cls-4" d="M304.76 794.31c15.64 5.91 32.09 8.77 48.55 11.36 18.38 2.89 36.82 5.82 55.45 6.44 35.95 1.2 71.77-4.41 107-10.94 1-.19 2.18-1.16 2-2.29-6.57-35.94-13.42-71.72-22.58-107.1-7.15-27.62-15.29-55.26-27.81-81a147.64 147.64 0 00-18-29l-4.27-5.24c-1.41-1.73-1.19-1-.51-2.68 2.08-5.2 2.85-11.36 3.74-16.86 2.49-15.35 3.14-30.95 3.35-46.48.19-14.48-.19-28.79-3-43-4.4-22.07-14.74-50.36-37.34-59.76-20-8.34-38.66 5.7-49.1 22-15.5 24.24-18.62 53.38-18.94 81.47-.19 15.7.15 31.52 2.42 47.09a123.77 123.77 0 003.48 16.72c.73 2.53 2.12 4.42.5 6.72s-3.85 4-5.79 5.8c-5 4.65-8.4 10.47-11.86 16.29-4.7 7.92-9.09 16-13 24.34a405.28 405.28 0 00-19.75 52.37c-5.57 18-10.33 36.31-14.51 54.71q-3.24 14.28-6.06 28.67c-.62 3.17-2.85 8.66-2 11.72.67 2.36 5.64 5.71 7.51 7.2a79.9 79.9 0 0020.5 11.43c2 .8 5.63-2.12 2.79-3.25a73.37 73.37 0 01-21.44-12.51c-1.8-1.58-4.16-3.13-4.25-5.75-.07-1.71.72-3.84 1.05-5.53.91-4.72 1.85-9.45 2.83-14.16 3.78-18.23 8-36.37 13-54.31 9.56-34.48 21.63-68.61 40.75-99 3.51-5.59 7.17-9.33 11.75-13.88 3.34-3.32 4.95-5.19 3.49-9.74-3.55-11.08-5-22.84-5.81-34.4-2.11-29.36-2.31-61.12 7.41-89.22 6.48-18.71 21.46-46.95 45.46-43.43s35.79 33.47 40.7 53.65c3.55 14.54 4.56 29.33 4.37 44.25-.19 14.62-.59 29.25-2.44 43.77a166.72 166.72 0 01-3.05 17.31c-.82 3.44-3.23 7.12-1.08 10.13 2.34 3.29 5.15 6.33 7.7 9.46a94.21 94.21 0 018.36 12.81c14.18 24.76 23.06 52.41 30.57 79.81 8.49 31 15.4 62.35 21.26 93.93 1.6 8.65 3.14 17.32 4.72 26l2-2.29c-35 6.48-70.72 12.16-106.41 10.66-17.31-.72-34.45-3.37-51.54-6.06-16.74-2.63-33.47-5.4-49.38-11.42-2.05-.83-5.65 2.1-2.79 3.19z"/><path class="cls-4" d="M350 676.32c5.72-11.08 2.17-36.17-14.89-33.84-16.5 2.26-15.73 26.16-8 36.21 1.26 1.64 5.88-.2 4.43-2.07a25.08 25.08 0 01-4.85-18.45c.59-4.77 3.27-12.47 9.19-12.41 5.5.06 9.2 6.3 10.74 10.83a24.82 24.82 0 01-1.25 19.27c-1.21 2.35 3.66 2.25 4.59.46z"/><path class="cls-4" d="M335.06 664.24c2.94 12.77 4.54 26.3 10.25 38.23 5.61 11.74 15.8 19.68 28.28 23.21 28.15 8 56.5-10.8 68.28-36.1 3.24-7 5.18-15 3-22.62-1.07-3.76-3.57-5.75-5.9-8.71a11.71 11.71 0 01-.66-13.33c1.43-2.38-3.48-2.62-4.65-.68a14.57 14.57 0 00-.57 13.9c1.24 2.46 3.36 4 5 6.18 2.71 3.58 3.08 8.59 2.63 12.93-1.39 13.36-11.25 25.71-21.16 34.1-11.19 9.49-25 14.56-39.72 11.73-12.57-2.42-23.5-9.77-29.37-21.25-6.1-12-7.6-26-10.58-38.88-.55-2.38-5.39-1.11-4.83 1.29zM348.73 518.9c-1.55-21.82.43-44 7.64-64.79 4.95-14.22 12.37-29.63 24.58-39 11.57-8.88 25.77-8.08 36.88 1 12 9.83 18.94 25.22 23.19 39.8 5.76 19.73 6.27 39.79 5.55 60.17-.12 3.46 7.2 2.21 7.3-.7.72-20.28.32-40.31-5.2-60-4.43-15.79-11.83-32.23-24.78-42.85a37.12 37.12 0 00-40.82-4.53c-14.85 7.59-24.3 22.94-30.58 37.84-10 23.7-12.81 49.47-11 75 .21 2.9 7.48 1.26 7.25-1.94z"/><path class="cls-4" d="M390.24 565.89c-13.26-.6-23.52-10-30.55-20.58-5.84-8.76-10.72-19.54-11.27-30.2-.1-1.91-4.94-.84-4.83 1.3.61 11.67 6.31 23.54 13 32.9 7.58 10.58 18.45 19.16 31.88 19.77 2.14.1 5-3.05 1.75-3.19z"/><path class="cls-4" d="M391.48 563.86c-5.38-.21-18.51-10.22-15.52 1.45 1.43 5.57 5.81 5.57 11.3 5.79 2.52.11 6.05-.57 7.35-3.06 1.18-2.28-.88-4.04-3.13-4.18z"/><path class="cls-4" d="M392.43 562.53c-4.73-.41-8.69-4.26-13.58-4.19-5.44.07-6.81 4.45-4.81 9 2.39 5.49 10.54 5.68 15.61 4.83 2.6-.43 5.89-1.63 7.2-4.13 1.6-3.07-1.08-5.07-3.89-5.49-1.48-.22-5.66 2.16-3 2.56 2 .3 4.27 2.54.9 4.28-1 .53-2.59.35-3.7.31a16.08 16.08 0 01-5.17-.66 6 6 0 01-3.64-4.41 10.18 10.18 0 01-.39-2.11c0-.34.27-2.13-.23-1.63s.19.11.75.33 1.35.43 2 .67c1.21.44 2.39 1 3.59 1.45a21.91 21.91 0 006.42 1.82c1.84.19 5.18-2.35 1.94-2.63zM360.62 509.6c-.34 13.33-7.75 24-14.1 23.84S332.3 522.35 332.63 509s8.75-24 15.1-23.85 13.27 11.12 12.89 24.45z"/><path class="cls-4" d="M358.2 510.24c-.24 5.07-4.49 26.65-13.48 21-7.12-4.5-9.87-14.94-9.67-22.83a32 32 0 013.53-13.85c1.74-3.35 5.3-9.49 9.78-7.73 7.95 3.15 9.86 16.3 9.84 23.45 0 .72 4.83.06 4.83-1.29 0-8.9-3.95-26.95-16.47-24.46-10.91 2.18-16.1 15.24-16.34 25.18-.22 8.72 4.51 25.71 16.08 24.68 11.85-1.06 16.26-15.53 16.73-25.4.03-.69-4.76-.14-4.83 1.25zM467.88 512.28c-.33 13.33-5.75 24-12.1 23.85s-8.92-11-8.59-24.37 3.46-24.06 9.8-23.9 11.23 11.14 10.89 24.42z"/><path class="cls-4" d="M465.47 512.93c-.15 3.6-2.94 25.92-10.7 21.11-2.76-1.71-3.75-6.72-4.29-9.57a65 65 0 01-.84-14.21c.12-3.39 1.5-24.22 8.23-20.57 7 3.8 7.65 16.53 7.6 23.24 0 .69 4.82.05 4.83-1.29.06-7.92-1.72-26.36-13.66-24.59-11 1.63-11.64 16.73-11.86 25.36-.19 7.43-.4 26.23 11.37 24.53 11.31-1.63 13.76-16 14.15-25.3.02-.64-4.78-.08-4.83 1.29z"/><path class="cls-1" d="M578.82 835.09H221.18A21.17 21.17 0 01200 813.92V695.09h400v118.83a21.17 21.17 0 01-21.18 21.17z"/><path d="M578.82 840.09H221.18A21.17 21.17 0 01200 818.92V700.09h400v118.83a21.17 21.17 0 01-21.18 21.17z" fill="#bbdff5"/><path class="cls-1" d="M421.44 800.35h-179c-5.5 0-7.44 7-.88 7h179c5.5 0 7.44-7 .88-7zM522.44 770.35h-280c-5.5 0-7.44 7-.88 7h280c5.5 0 7.44-7 .88-7zM558.44 740.35h-316c-5.5 0-7.44 7-.88 7h316c5.5 0 7.44-7 .88-7z"/><path class="cls-4" d="M579 838.38H232c-6 0-13.07.82-18.63-1.9-9.86-4.81-11-14.25-11-23.67V425.63c0-14.85-.32-29.73 0-44.57.23-10.59 7.68-19.15 18.55-19.44h355.56c11.86 0 20.86 8.13 21.07 20.3.27 16.06 0 32.15 0 48.22V818.91c-.23 10.64-7.66 19.12-18.54 19.47-2.83.1-3.65 3.88-.37 3.77 14.7-.47 23.81-11.95 23.81-25.95V396.54c0-5.07.08-10.14 0-15.2-.19-13.94-10.8-23.38-24.43-23.49-19.5-.16-39 0-58.5 0h-295c-13.86 0-26.51 8.1-26.93 23.21-.11 3.64 0 7.3 0 10.94v421.75c0 9.13 1.11 17.9 9.27 23.89 6.76 5 14.42 4.51 22.23 4.51h349.55c2.84 0 3.64-3.77.36-3.77zM134.7 326.09a146.61 146.61 0 0030.67 24.41c1.55.93 5.93-1.26 3.79-2.53a143.5 143.5 0 01-30-23.87c-1.32-1.37-5.91.48-4.46 2zM125.24 368.39a147.21 147.21 0 0038.81 6.2c1.83.05 5.14-2.64 1.89-2.72a142.89 142.89 0 01-37.74-6.09c-1.52-.46-5.66 1.8-3 2.61zM189.09 333.12a162.29 162.29 0 01-15.25-40.05c-.48-2.06-5.32-.81-4.83 1.29a165.93 165.93 0 0015.64 40.82c.93 1.73 5.58.05 4.44-2.06zM211.57 330a144.63 144.63 0 017.67-37.72c.43-1.23-4.31-.65-4.79.74a146.34 146.34 0 00-7.71 38.27c-.07 1 4.72.34 4.83-1.29z"/></g></g></svg>