<svg xmlns="http://www.w3.org/2000/svg" viewBox="0 0 1200 1200"><defs><style>.cls-1{fill:#fff;}.cls-2{fill:#f4f8ff;}.cls-3{fill:#e5e5e5;}.cls-4{fill:#9fcded;}.cls-5{fill:#bbdff5;}.cls-6{fill:#767c97;}.cls-7{fill:#fff0a9;}.cls-8{opacity:0.5;}</style></defs><title>not-found</title><g id="Calque_2" data-name="Calque 2"><g id="ëÎÓÈ_1" data-name="ëÎÓÈ 1"><rect class="cls-1" width="1200" height="1200"/></g><g id="ëÎÓÈ_8" data-name="ëÎÓÈ 8"><path class="cls-2" d="M891.35,1069.19c25.35-4.8,329.89-48,307.47-366.85s-50.55-414.7-169-449.78-406.21-201.07-632-43.24S-71.75,508.7,25,760.71s112.55,336.06,364.87,323.2S770.83,1092,891.35,1069.19Z"/><path class="cls-3" d="M507.78,838.61c-31.07.29-62.13.19-92.93-1.39-12.17-.62-47.52-4.82-42.35-24.46,3.31-12.53,28.13-20.34,38.94-22.71,22.31-4.88,46.74-4.33,69.9-6,71.18-5.11,142.77-7.73,214.3-7.69,32,0,65.33.18,97.74,1.49,29.48,1.19,68.74.13,92.09,12.62.83.45,1.64.91,2.44,1.39,4.62,2.8,7.76,6.84,6.6,10.81-1,3.4-4.88,6.21-9,8.59-27.21,15.88-62,19.22-97.65,21.42-62.94,3.9-126,4.79-189.07,4.9C568.62,837.65,538.2,838.32,507.78,838.61Z"/><path class="cls-3" d="M165.75,840.35a168.07,168.07,0,0,1-28.58-2c-13.45-2.33-8.4-17.74-6.47-26.75,3.69-17.23,9.72-16.28,26.46-19.24A323.16,323.16,0,0,1,223,787.45a271.7,271.7,0,0,1,30.08,2.14c14.66,2.08,29,3.35,43.59,5.14-1.74,7.2-6.35,13.39-11.47,18.75-27.51,28.83-54.32,27.59-91.46,26.75C184.46,840,175.1,840.35,165.75,840.35Z"/><path class="cls-3" d="M1008.28,760.06c-4.16,2.67-8.49,5.2-12.89,7.63-19.48,10.77-40.06,21.46-67.36,24.24-4.8.49-9.87-.74-14.35,1-5.13,2-10,5.7-14.93,8.22-9.82,5-20.1,9.4-31,11.49-3.59.69-6.68,2-7.49-2.23-.49-2.58,1.22-5.38,2.8-7.23,3.72-4.34,9.71-6.53,14.73-8.93,11.45-5.48,21.74-10.05,26.26-20.78,6.88-16.38,16.46-30.38,31.69-41.45,14.15-10.29,32.4-18.12,51.16-24.2,9.76-3.17,21.15-7.14,34.39-5.85,18.43,1.79,25.25,15.26,20.28,24.86C1034.48,740.54,1022.29,751.09,1008.28,760.06Z"/><path class="cls-3" d="M496,624a152.65,152.65,0,0,0-13.34,38.73c-6.05,31,1,62.21,7.16,92.61,1.19,5.85,3.66,12.28,4.06,18.2.21,3.07-.28,2.86-3.5,3.7-2.89.75-5.82,1.42-8.73,2.09q-9.23,2.11-18.51,3.91c-11,2.12-22.16,3.92-33.37,5-9.89.94-20.6,0-30,3.77-2.93,1.18-5.83,2.87-7.47,5.57-5.46,9,9.35,17.15,15.94,19.62,15.06,5.65,32.36,4.38,48.15,4.44,23,.08,46-1.68,68.95-1.68,15.49-.79,32-2.22,44.3-11.6,11.72-8.9,16.29-22,19.51-35.82,3.76-16.13,11.85-32.59,12.22-49.29.38-17.43-8.78-33.4-16.09-49.24a330.56,330.56,0,0,1-18.72-53.32c-4.53-16.92-5.3-37.71-12-53.71-4.08-9.72-8.19-3.69-15.08,2.08A173.39,173.39,0,0,0,496,624Z"/><path class="cls-1" d="M496,624a152.65,152.65,0,0,0-13.34,38.73c-6.05,31,1,62.21,7.16,92.61,1.19,5.85,3.66,12.28,4.06,18.2.21,3.07-.28,2.86-3.5,3.7-2.89.75-5.82,1.42-8.73,2.09q-9.23,2.11-18.51,3.91c-11,2.12-22.16,3.92-33.37,5-9.89.94-20.6,0-30,3.77-2.93,1.18-5.82,2.87-7.47,5.57-7.66,12.57,14.25,12.15,20.69,12.89,13,1.48,128.3,2.87,149.7-10.05,9.76-5.9,12.87-18.62,16.89-29.3q4.71-12.57,10-24.92c3.39-8,9-16.58,11.38-24.85,1.94-6.89-2.21-16.84-4.68-23.26-3.17-8.24-7.26-16.07-11-24.08a330.56,330.56,0,0,1-18.72-53.32c-4.53-16.92-5.3-37.71-12-53.71-4.08-9.72-8.19-3.69-15.08,2.08A173.39,173.39,0,0,0,496,624Z"/><path class="cls-3" d="M578.89,719.26c.81,10.27-1.68,21.82-4,31.77a152.71,152.71,0,0,1-10.93,30.84c-4.35,9-11.15,17.39-17,25.42-4.13,5.66-9.28,9.79-16.33,10.39q-21.76,1.83-43.6,2.55c.78,0,3.14-3.47,3.63-4a49.28,49.28,0,0,1,4.32-4.79c1.71-1.44,3.07-1,5.37-.93,11.86.31,29,.45,37.5-9a166.08,166.08,0,0,0,21.89-29.83c6.49-11.58,10.55-24.13,14.33-36.79C574.66,732.72,577.18,719.26,578.89,719.26Z"/><path class="cls-4" d="M490.24,757.44a7.67,7.67,0,0,1,2.66-.4c24.76.36,48.08,9.5,70.79,19.83,3,1.35,6.24,2,9.32,3.17l10.49,3.81a3.24,3.24,0,0,0,1.85.29c1.32-.31,1.72-3.77,2-4.88.63-2.23,1.2-4.47,1.73-6.73,2.27-9.75,5.93-19.11,8.66-28.74.75-2.63,6.54-16.39,6.62-18.21.05-1.15-3.68-11.8-4.25-14.51A84.42,84.42,0,0,0,596,697.55c-3.16-8-7.14-15.71-10.75-23.55a330.56,330.56,0,0,1-18.72-53.32c-4.53-16.92-5.3-37.71-12-53.71-4.08-9.72-8.19-3.69-15.08,2.08A173.39,173.39,0,0,0,496,624a152.65,152.65,0,0,0-13.34,38.73c-6.05,31,1,62.21,7.16,92.61C489.91,756,490.07,756.73,490.24,757.44Z"/><path class="cls-5" d="M490.24,757.44a7.67,7.67,0,0,1,2.66-.4c25.47.37,49.41,10,72.75,20.72C568.93,779.27,576,780,576,780c.91-2.51,2.63-6.49,3.54-8.9q4.71-12.57,10-24.92c3.39-8,9-16.58,11.38-24.85,1.94-6.89-2.21-16.84-4.68-23.26-3.17-8.24-7.26-16.07-11-24.08a330.56,330.56,0,0,1-18.72-53.32c-4.53-16.92-5.3-37.71-12-53.71-4.08-9.72-8.19-3.69-15.08,2.08A173.39,173.39,0,0,0,496,624a152.65,152.65,0,0,0-13.34,38.73c-6.05,31,1,62.21,7.16,92.61C489.91,756,490.07,756.73,490.24,757.44Z"/><path class="cls-4" d="M565.9,777.57a152.61,152.61,0,0,0,9-26.54c2.36-9.95,4.85-21.5,4-31.77-1.71,0-4.23,13.46-4.87,15.62-3.78,12.66-7.84,25.21-14.33,36.79-.56,1-1.16,2-1.75,3C560.54,775.76,563.22,776.68,565.9,777.57Z"/><path class="cls-6" d="M490.47,758.29c5.88-1.42,14.17.83,19.95,1.93a154,154,0,0,1,17.31,4.4c12.14,3.81,23.51,9.25,35.27,14,1.53.62,4-.17,5.25-1.18.51-.42.77-1,1.27-1.43l-5.25,1.19c2.28,1.09,4.11,2.82,6.4,3.92a47.88,47.88,0,0,0,12.34,4.1c1.33.21,6.16-1.94,4.68-2.18-3.47-.54-7-2-10.25-3.34-2.91-1.14-5-3.1-7.81-4.43-1.45-.69-4.09.22-5.25,1.19-.5.41-.8,1-1.27,1.43l5.25-1.19c-13.63-5.52-26.79-11.78-41-15.77-11.14-3.13-25.79-7.15-37.35-4.36-3.32.8-2.89,2.52.46,1.71Z"/><path class="cls-6" d="M576.09,718.58c-.58,25-6.54,51.63-20.48,72.71-3.46,5.22-7.25,10.28-11.06,15.25-4.38,5.72-8.69,8.62-16,9.37-13.71,1.42-27.52,2.58-41.3,3.09-3.14.12-4.46,4.07-.57,3.93,8.05-.3,16.08-.88,24.11-1.57,7.23-.62,14.85-.68,22-2.08,11.66-2.29,17.91-12.95,24.35-21.89,16.45-22.85,24-51.36,24.69-79.31.06-2.82-5.69-1.9-5.74.5Z"/><path class="cls-6" d="M535.62,701A67.17,67.17,0,0,0,564,669.75c1.25-2.8-4.45-2.51-5.38-.44a62.72,62.72,0,0,1-26.66,29.41c-3.33,1.88,1.51,3.47,3.68,2.24Z"/><path class="cls-6" d="M549,560.18c-3.48.77-6,3-8.58,5.31-4.33,3.77-8.71,7.48-12.82,11.49a176.59,176.59,0,0,0-20.56,24c-12.79,17.9-22.34,38.38-26.88,60-4.92,23.38-2.41,47.31,1.85,70.57,2.13,11.67,4.63,23.22,7.48,34.73.43,1.75,2.39,7.25,1.49,8.91-.26.47-4.33,1.27-5.48,1.54q-8.32,2-16.7,3.7a369.9,369.9,0,0,1-36.54,5.84c-10.34,1-21.09.19-31.1,3.44-5.67,1.84-13.22,5.8-12.94,12.81.25,6.08,6.65,10.5,11.4,13.22,16.66,9.56,37.2,7.8,55.66,7.78,23.78,0,47.8-.59,71.54-1.79,20.2-1,41.83-4.7,54.29-22.37,6.4-9.06,8.91-19.8,11.92-30.29,3.64-12.69,4.89-28.46,14.1-38.59,2.33-2.55-3.16-2.9-4.65-1.27-5.86,6.44-8.32,14.25-10.44,22.53-2.65,10.34-5.26,20.73-8.47,30.91-3.08,9.75-8.15,19.12-16.56,25.26-8.19,6-18.36,8.23-28.28,9.33-20.57,2.28-41.83,1.76-62.53,2.36-11,.32-22,.36-32.93.36-10.25,0-20.69-.34-30.54-3.44-6.16-1.94-13.87-5.49-17.41-11.19-7.21-11.63,14-14.14,20.9-14.52a377.35,377.35,0,0,0,59.64-8.36c5-1.08,10-2.17,14.89-3.47,1.91-.5,4.35-.92,5.45-2.77,1.33-2.24.16-6.09-.31-8.38-1.07-5.18-2.69-10.22-3.76-15.4-4.59-22.08-9.37-44.55-9-67.22.41-24,7.58-47.35,19.32-68.23a169.93,169.93,0,0,1,20.36-28.73q5.56-6.34,11.74-12.13c2.08-1.95,4.21-3.82,6.37-5.68,2.53-2.18,5.61-6.12,9-6.87,3.51-.78,2.59-4.1-.89-3.32Z"/><path class="cls-3" d="M550.54,558a499.09,499.09,0,0,1,139.79-34.71c25.32-2.48,52-3.19,76.8,3.57,27.51,7.52,42.93,28.25,59,50.76.94,1.31,1.91,2.79,1.7,4.38-.17,1.23-1.21,2.11-1.8,3.2a345.3,345.3,0,0,1-48.75,68.57c-25,27.64-55.75,50.08-90.67,63.45-25.05,9.6-51.08,13.31-77.57,16.36C597.19,716.15,580.89,677,574.5,657,566.3,631.4,550.54,558,550.54,558Z"/><path class="cls-1" d="M792.62,592.84A62.08,62.08,0,0,0,801,594a85.16,85.16,0,0,0,8.75.14c.44,0,6.28-.09,6.3-.54,0,.58-1.19,1.51-1.56,1.94-1.15,1.34-2.13,2.8-3.21,4.2-1.44,1.86-2.88,3.72-4.34,5.57q-4.37,5.54-8.89,10.94t-9.22,10.64q-4.71,5.24-9.62,10.27T769.14,647q-5.16,4.82-10.58,9.35-3.24,2.71-6.57,5.31a282.37,282.37,0,0,1-90,47.05c-19.51,6-39.62,9.72-59.56,13.92,0,0-1.17-2-3.66-7-3.4-6.72-6.55-13.56-9.56-20.45A399.21,399.21,0,0,1,574.49,657c-8.2-25.65-24-99-24-99a499.09,499.09,0,0,1,139.79-34.71c22.66-2.22,46.43-3,68.93,1.7a8,8,0,0,0-1.69,3,41.17,41.17,0,0,0-1.43,7.56c-.56,5-.92,10.55.28,15.51a35.48,35.48,0,0,1,1,3.87,13.32,13.32,0,0,0,.68,3.79c1.3,3.11,2.41,6.23,3.71,9.35a41.24,41.24,0,0,0,10.08,14.68A44.11,44.11,0,0,0,792.62,592.84Z"/><path class="cls-3" d="M898.54,420.48c-22.07-16.71-63.91,1.36-93.45,40.36-.68.91-4.09,5.4-5.29,7a294,294,0,0,0-20.74,30.67c-2.34,4.07-4.54,8.22-6.48,12.49-.84,1.86-1.54,3.77-2.37,5.62-1.28,2.9-4.34,4.85-7.22,5.89a8.48,8.48,0,0,0-5.42,5.46,41.17,41.17,0,0,0-1.43,7.56c-.56,5-.92,10.55.28,15.51a49.19,49.19,0,0,0,3.78,10.24,63.26,63.26,0,0,0,8.93,13.19c5.76,6.63,12.53,10.48,20.93,13.11,7.58,2.38,17.12.57,24.5-1.68,6.4-2,12-5.73,17.43-9.6,4.7-3.36,9.48-6.58,13.89-10.33,8.78-7.47,16.55-16.1,23.88-25q5.12-6.21,10-12.63l5.29-7C914.55,482.36,920.6,437.19,898.54,420.48Z"/><path class="cls-1" d="M898.54,420.48l-.39-.29a31.34,31.34,0,0,0-10.32-4.82c-8.35-2.16-17.27-1-25.41,1.5-22.23,6.84-41.16,23.46-55.34,41.41-.67.84-1.33,1.7-2,2.56s-4.09,5.4-5.29,7a294,294,0,0,0-20.74,30.67c-2.34,4.07-4.54,8.22-6.48,12.49-.84,1.86-1.54,3.77-2.37,5.62-1.28,2.9-4.34,4.85-7.22,5.89a8.48,8.48,0,0,0-5.42,5.46,41.17,41.17,0,0,0-1.43,7.56c-.56,5-.92,10.55.28,15.51a49.19,49.19,0,0,0,3.78,10.24,63.26,63.26,0,0,0,8.93,13.19c5.76,6.63,12.53,10.48,20.93,13.11,4.3,1.35,8.64-.31,12.89-1.2A37.52,37.52,0,0,0,816,580.93c28.9-19.16,50.14-50.85,67.09-80.54A152.15,152.15,0,0,0,893,480,198.41,198.41,0,0,0,901.92,450c1.09-5.06,1.33-10.62,1.89-15.79C904.55,427.45,903.72,424.27,898.54,420.48Z"/><path class="cls-6" d="M835.14,575.13c14-9.16,25.49-22.06,36-35,12.47-15.39,24.55-31.36,32.23-49.76,10-24,16.3-68.36-18.45-75.25-13.58-2.7-27.9,1.72-40,7.81-16.86,8.52-31.36,21.62-43.09,36.31-12.14,15.21-23.78,31.25-32.58,48.65-2.69,5.31-3.81,12-10.13,13.62s-13.71-.43-20.16-.88a255,255,0,0,0-34,.15c-53.28,3.49-106.1,16.15-155.51,36.3-.55.23-2,.82-1.79,1.66,9.47,44,18.31,88.7,35.8,130.37C590,704.7,597,720.54,606.38,734.62c.37.54,1.72.32,2.2.27,19.95-2.19,39.34-4.7,58.66-10.35a263,263,0,0,0,51.92-20.94c33-17.89,59.88-46.17,82.21-75.9q9.51-12.65,17.83-26.14c4.23-6.88,9.71-14.24,12-22,.59-1.94-4.52-.21-5,.16-16.17,11.49-40.3,7.33-54-6.16-12.48-12.3-17.34-31.14-11.41-47.71.53-1.48-5-.81-5.64.86-7.19,20.1,1.29,43.73,19.44,55,16.62,10.33,40.08,9.91,56.06-1.45l-5,.16c-1.81,6-5.93,11.75-9.11,17.12q-7.17,12.06-15.34,23.49a362.78,362.78,0,0,1-33.69,40.53c-13.11,13.62-27.46,26.28-43.62,36.17-15.59,9.54-32.69,16.71-50.06,22.31-21.11,6.81-42.32,9.81-64.28,12.22l2.2.26c-8.5-12.7-14.84-27-20.85-41a361,361,0,0,1-14.71-39.2c-7.23-24.32-12.59-49.26-18.12-74q-2.35-10.55-4.64-21.1l-1.79,1.66A494.39,494.39,0,0,1,685.54,525,334,334,0,0,1,723,522.9c10.37.07,21.11,2.62,31.4,1.79,5.08-.41,12.72-1.5,15.35-6.35,5.38-9.93,9.64-20.11,15.85-29.67,18.69-28.78,44.39-64,80.42-70.76,13.87-2.6,28.14,1.86,35,14.84,7.37,13.87,5.38,31.17,1.2,45.67-5.86,20.38-17.51,37.61-30.3,54.23-11.85,15.4-24.8,31.21-41.24,41.94-2.49,1.63,3.21,1.36,4.46.54Z"/><path class="cls-6" d="M808.2,542.39a12.53,12.53,0,0,1-1.55-6.81c.08-1,.35-2.81,1.24-3.5,1.59-1.25,4.88.26,6.32,1.21,2.58,1.71,2.88,4.29,3.29,7.12.56,3.85,2.72,5.44,5,8.51.77,1,5-.41,4.15-1.64-1.86-2.53-4.07-4.17-4.59-7.39a20.66,20.66,0,0,0-1.07-5.18c-1.71-3.84-6.72-5.49-10.66-5.31-7.78.35-9.89,8-6.54,14.18.72,1.33,5-.18,4.44-1.19Z"/><path class="cls-6" d="M798.81,541.84c10.26,7.22,38.09,16.75,42.2-2.41.55-2.53-5.23-1.74-5.73.55-3,14.21-25.16,3.62-32-1.21-1.83-1.29-6.94,1.31-4.44,3.07Z"/><path class="cls-6" d="M809.59,536.26a23.27,23.27,0,0,0,1.87,6.15c.49,1.06,3.82,0,3.41-.92a23.09,23.09,0,0,1-1.87-6.14c-.16-1-3.59-.22-3.41.91Z"/><path class="cls-6" d="M772.72,658.05c7.22,37.7,17.15,74.79,44.59,103.08,9.15,9.43,19.6,19.18,30.58,26.46,7.85,5.2,17.89,9.38,26.36,3.08,2.41-1.79-3.24-1.39-4.44-.5-4.62,3.43-12.74-2.09-16.59-4.64a118.49,118.49,0,0,1-12.5-9.83c-9.62-8.41-19.13-16.9-27.17-26.89-21.17-26.3-28.93-59.83-35.15-92.28-.29-1.52-6-.18-5.68,1.52Z"/><path class="cls-7" d="M840.09,682.11a3.24,3.24,0,0,0-.19,1.8c1.61,10.47,9.47,4.88,14.72,1.64l22.87-14.12,22.71-14q5.67-3.51,11.35-7c2.38-1.46,2.81-1.31,2.53-4a28.09,28.09,0,0,0-1.71-6.28c-14.76,6.72-29.65,13.5-42.71,23.12C864.51,667,840.89,680.38,840.09,682.11Z"/><path class="cls-7" d="M933.32,663c-3.9,1.35-7.42,2.53-11.06,3.89-1.87.7-3,2.11-1.75,4.53a16.82,16.82,0,0,0,4.31,4.35c14.76,11.15,50.11-10.66,78.79-48.62s40-77.92,25.24-89.07c-2-1.52-7.58-5-9.64-2.32-2.29,3,.84,10.09.83,13.51a104.64,104.64,0,0,1-3.3,25.52C1012.47,591.48,979.36,647.07,933.32,663Z"/><path class="cls-6" d="M836.86,682.67c1.5,15.5,16.19,5.33,23.76.66l56.51-34.87c2.4-1.48-3.27-1-4.38-.26l-40.3,24.87q-9.54,5.88-19.07,11.76c-1.81,1.12-4.37,3.37-6.5,3.56-3.63.31-4.06-4.43-4.33-7.24-.12-1.16-5.84-.09-5.69,1.52Z"/><path class="cls-6" d="M916.3,667.09c8,28.62,46.72,2.87,59.11-7.42,15.59-13,28.89-28.74,39.92-45.71,9.82-15.11,18.72-32.11,21.89-50,2.22-12.53,1.07-27.69-14.08-30-1.36-.2-6.55,2.07-3.64,2.5,16.76,2.52,13.59,24.16,10.42,35.75-5.56,20.33-16.85,39.25-29.55,55.88-12,15.69-26.11,30.64-42.93,41.17-11.54,7.21-30.31,14.67-35.46-3.7-.4-1.44-6.08.09-5.68,1.52Z"/><path class="cls-6" d="M938.79,658.28c-7.28-6-5-17.77-2.91-25.65,3.87-14.31,11.45-27.63,20-39.61s18.76-23.33,30.65-32.21c6.88-5.14,19.71-14.46,28.48-8.37,1.49,1,6.57-1.23,5.31-2.11-7.78-5.4-18.49-1.65-26.1,2.19-14,7-25.74,18.52-35.66,30.39-11.49,13.75-21.62,29.6-27.21,46.72-3,9-6.57,23.61,2.11,30.75,1.38,1.14,6.59-1,5.31-2.1Z"/><path class="cls-1" d="M841.43,681.21l66.27-40.89-.66,3.33c-1.53,11,.3,19.55,6,23.83,14.77,11.16,50.11-10.65,78.79-48.61s40-77.92,25.24-89.08-50.11,10.66-78.79,48.62c-12.87,17-22.24,34.47-27.33,49.53L845,668.61a19.28,19.28,0,0,0-7.36,9.74C836.65,681.83,838.35,683.11,841.43,681.21Zm164.36-136.54c11.58,8.74,2.7,40.07-19.78,69.83s-50.2,46.85-61.77,38.11-2.7-40.07,19.78-69.83S994.22,535.92,1005.79,544.67Z"/><path class="cls-6" d="M843.61,681.32l66.27-40.89-5,.37c-2.75,13.94-.34,31.34,17.13,30.77,16.05-.53,31.16-11.35,42.91-21.32A204.26,204.26,0,0,0,1012,591.34c8-14.92,18.71-37,13.1-54.47-4-12.63-17.56-12.46-28.19-9.06-18.24,5.85-33.87,19.77-46.72,33.47C932.82,579.84,917.62,602,909,626c-.8,2.24-.15,1.36-1.61,2.69a31.84,31.84,0,0,1-4.67,2.88l-15.63,9.65-38.19,23.56c-2.93,1.81-6.25,3.47-8.75,5.87-2.05,2-8,9-4.94,11.93,2,1.88,5.93,0,7.9-.94,3.38-1.64-1.9-1.5-3.29-.82,1-.47,1.14-4.4,1.8-5.67a18.09,18.09,0,0,1,5.6-6.41c.39-.28.82-.49,1.22-.75,2.92-1.91,5.94-3.66,8.9-5.49l29.78-18.38c8-5,16.14-9.85,24.13-14.89,3.22-2,3.46-4.66,4.95-8.35a174.86,174.86,0,0,1,14.73-28.31c11.94-18.8,26.81-36.46,44.54-50.08,9.1-7,27.2-20.55,38.92-11.7,10.88,8.22,5.77,27.39,2.35,37.9-6.78,20.83-18.9,40.14-32.69,57-13.27,16.23-30,33.75-50,41.41-6,2.31-13.45,3.55-18.79-1-7.3-6.23-6.33-17.82-4.66-26.25.33-1.68-4.47,0-5,.37l-66.28,40.89C836.86,682.57,842.52,682,843.61,681.32Z"/><path class="cls-6" d="M1003.12,545.65c5.55,4.57,5.4,12.8,4.38,19.29-1.49,9.43-5.29,18.51-9.64,26.94-10.79,20.88-26.73,41.14-46.41,54.32-6.06,4.06-15.64,10.21-23.13,6.33-5.47-2.84-6.5-9.67-6.29-15.22.8-21.65,15.34-43.57,28.51-59.74,8.1-10,17.35-19.32,28-26.5,6.6-4.43,16.8-10.79,24.54-5.42,1.32.92,6.21-1.36,5.35-2-13.93-9.67-35.59,7.19-45.41,15.79-20.24,17.73-39,43-45.29,69.57-1.66,7.07-3.12,16.63,1.93,22.73,4.32,5.21,11.81,4.82,17.77,3.32,22.55-5.67,41-26.6,54-44.67,9.07-12.65,17.21-26.93,20.81-42.2,1.87-7.9,3.28-18.72-3.78-24.54C1007.26,542.69,1002.21,544.9,1003.12,545.65Z"/><g class="cls-8"><ellipse class="cls-1" cx="965.01" cy="598.64" rx="67.64" ry="26.31" transform="translate(-94.35 1007.74) rotate(-52.93)"/></g><path class="cls-6" d="M1003.13,545.7c12.5,10.29.28,35.36-5.29,46.13-10.75,20.81-26.77,41.15-46.43,54.24-5.9,3.93-15.32,9.95-22.71,6.58-5.77-2.64-6.89-9.67-6.67-15.34.84-21.66,15.37-43.5,28.54-59.65,8.11-9.95,17.34-19.29,28-26.45,6.48-4.34,16.91-10.8,24.52-5.51,1.43,1,6.46-1.27,5.32-2.06-14.4-10-36.41,7.67-46.4,16.62-19.74,17.68-38.11,42.55-44.29,68.74-1.67,7.07-3.1,16.72,2,22.83,4.32,5.22,11.82,4.95,17.81,3.45,23-5.76,42.06-27.7,55-46.25,8.58-12.3,16.29-26,19.76-40.75,1.86-7.9,3.26-18.82-3.82-24.64C1007.13,542.55,1002,544.73,1003.13,545.7Z"/><path class="cls-6" d="M703.26,595.85c2.92,19.78,9.82,40,22.48,55.78,11.35,14.12,26.79,25,43.56,31.67A106.63,106.63,0,0,0,823,689.94c10-1.27,20.57-3.39,29.61-7.92,6.75-3.39,22.26-17.74,28-6.7,1.1,2.13,6.66.36,5.69-1.52-8.36-16.21-29,2.75-38.78,6.77-20.32,8.38-44.71,8.93-65.6,2.6A105.37,105.37,0,0,1,733.22,652C719.36,636,712,615,709,594.33c-.33-2.18-6-.83-5.69,1.52Z"/><path class="cls-3" d="M800.45,452.77c-1.87,6.8,5.16,12.22,10,15.11,13.87,8.25,30.16,9.49,45.74,12a345.38,345.38,0,0,0,49.27,4.06l.74.58c11.62-24.75,2.26-53.62-20.91-64.49s-51.08.28-62.79,24.78l-.12-.05a36.57,36.57,0,0,0-12,.28C806.21,445.9,801.75,448.06,800.45,452.77Z"/><path class="cls-4" d="M799.65,444.59c-1.87,6.79,5.16,12.21,10,15.1,13.87,8.26,30.17,9.49,45.74,12a344,344,0,0,0,49.27,4.07c.25.19.5.38.74.58,11.62-24.75,2.26-53.63-20.91-64.5s-51.07.28-62.79,24.79l-.12-.06a36.85,36.85,0,0,0-12,.28C805.41,437.72,801,439.87,799.65,444.59Z"/><path class="cls-5" d="M799.65,444.59c-1.87,6.79,5.08,12.34,10,15.1,9.67,5.41,24.71,6.48,43.52,7.44,13.44.69,25,.91,41.48,1.16.24.2,13-45.59-10.16-56.46s-51.07.28-62.79,24.79l-.12-.06a36.85,36.85,0,0,0-12,.28C805.41,437.72,801,439.87,799.65,444.59Z"/><path class="cls-6" d="M824.38,436.59c11.27-23.06,38.91-35.33,62-21.19,20.88,12.77,25.76,40,16.17,61.31l5.48-1.47c-24.73-19.82-54.12-32.32-84.77-39.75-1.7-.42-6.66,2.19-3.51,2.95,30,7.28,58.8,19.58,83,39,1.44,1.16,4.75.16,5.48-1.46,11.4-25.33,1.79-57.74-25.87-67.23-25.24-8.66-52.35,5.44-63.68,28.63C818,438.87,823.53,438.33,824.38,436.59Z"/><path class="cls-6" d="M906.71,474.53a414.63,414.63,0,0,1-68.59-7.06c-9.79-1.82-19.86-4.51-28.14-10.28-3.47-2.42-7.39-5.82-7.76-10.33-.78-9.54,10.86-9.78,17.55-9.08,1.32.14,6.53-2.14,3.65-2.44-8-.84-21.09-.65-25.66,7.6-5.77,10.42,9.16,18.31,16.71,21.48,12.88,5.4,27.16,6.68,40.85,8.76A359.72,359.72,0,0,0,903.06,477c1.29,0,6.47-2.39,3.65-2.44Z"/><path class="cls-6" d="M879.93,413.39a34,34,0,0,0,3.46-12.85c.13-2-5.54-.82-5.65.83a34,34,0,0,1-3.46,12.85c-.54,1.1,1.94,1,2.38.95,1.15-.15,2.72-.65,3.27-1.78Z"/><path class="cls-6" d="M905.82,408a57.14,57.14,0,0,1-39.44-25.94c-1-1.6-6.35.48-5.68,1.53a59.43,59.43,0,0,0,41.53,27.07c1.47.23,6.59-2.19,3.59-2.66Z"/><path class="cls-6" d="M906.64,386.45a72.57,72.57,0,0,1-51.33,12.21c-2.65-.36-5.85,3.39-2,3.9a81.1,81.1,0,0,0,57.06-13.74c3.17-2.18-1.53-3.87-3.71-2.37Z"/><path class="cls-6" d="M923.86,401.6c4.18-6.23,2.81-14.2-3.78-18.12-1.57-.93-6.54,1.38-5.31,2.11,5.75,3.42,7.67,10.43,3.86,16.11-1.3,1.94,4.31,1.27,5.23-.1Z"/><path class="cls-6" d="M872.29,374a17.87,17.87,0,0,0-23.6,6.4c-1.67,2.62,4.11,2.7,5.43.63a10.31,10.31,0,0,1,13.78-3.77c2.18,1.1,7.17-1.86,4.39-3.26Z"/><path class="cls-6" d="M857,367.36c-11.12-.54-21.86,6.93-20.92,18.92.12,1.49,5.84.38,5.69-1.52-.55-6.88,3.89-15,11.66-14.65,1.21.06,3.15-.09,4-1.08.62-.7.94-1.6-.45-1.67Z"/><path class="cls-6" d="M928.91,411.22a17.51,17.51,0,0,0,6.31-20.37c-.59-1.55-6.2.19-5.69,1.52a15.85,15.85,0,0,1-5,18.44c-2.38,1.76,3.27,1.26,4.42.41Z"/><path class="cls-7" d="M252,693.11c17.14,26.42,37.67,55.2,68.66,60.8-41,52.75-110.51,81.91-176.91,74.25,5.1.59,9.34-41.78,12.27-46.94,6.55-11.5,20.48-12.64,31.81-18.28C216.75,748.55,240.48,723.38,252,693.11Z"/><path class="cls-6" d="M249.37,694.21c16.9,26,37.06,54.85,69.55,61.21l-.89-1.54c-40.52,51.55-107.26,80-172.52,72.78l-2.87,3.07c7.16-.26,8.1-9.63,9.28-15,2.15-9.89,3.27-20,5.68-29.85,3.36-13.75,20.46-15.52,31.35-20.79a134.57,134.57,0,0,0,37.28-27,131.58,131.58,0,0,0,28.62-44.27c.69-1.76-5-1.1-5.67.74a128.26,128.26,0,0,1-34,48.9,131.87,131.87,0,0,1-24.34,17.27c-7.9,4.34-16.59,6.44-24.63,10.4-5.34,2.63-11,6.56-13.36,12.25-1.75,4.14-2.18,9.12-3,13.5-1.14,6.37-2.19,12.76-3.55,19.08-.57,2.66-1.16,5.33-2,7.93a18.09,18.09,0,0,0-1,2.91c-.24,2.25-2.83,1,1.53.88-1.27,0-6.12,2.71-2.87,3.07,68.34,7.54,138.75-21.6,181.3-75.72.61-.78-.16-1.4-.89-1.54-31.62-6.19-51.36-35.16-67.76-60.4C253.67,690.49,248.14,692.31,249.37,694.21Z"/><path class="cls-6" d="M244.85,729.37c3.71,4.15,5,10.16,7.11,15.21a78.6,78.6,0,0,0,6.74,13.21A47.84,47.84,0,0,0,281.77,776c1.54.59,6.72-1.75,4.58-2.57a46.42,46.42,0,0,1-24.15-20.8c-4.48-7.94-6-18.61-12-25.42-1.17-1.32-6.58.69-5.3,2.12Z"/><path class="cls-6" d="M231.91,753.89a47.47,47.47,0,0,0,13.29,33.92c1,1.1,6.32-.95,5.35-2a46.76,46.76,0,0,1-13-33.46c0-1-5.66-.21-5.69,1.52Z"/><path class="cls-6" d="M222.37,767.11a64.25,64.25,0,0,0,8.43,33.07c1.16,2.06,6.62,0,5.23-2.43a60.63,60.63,0,0,1-7.92-31.14c0-2.82-5.7-1.88-5.74.5Z"/><path class="cls-6" d="M201.2,765.79c-2.24,13.92-2.63,33.44,8.93,43.65,1.74,1.54,7.1-.75,5.23-2.4-11.07-9.78-10.57-28.49-8.43-41.8.42-2.61-5.36-1.76-5.73.55Z"/></g></g></svg>