<svg xmlns="http://www.w3.org/2000/svg" viewBox="0 0 1200 1200"><defs><style>.cls-1{fill:#fff;}.cls-2{fill:#f4f8ff;}.cls-3{fill:#e3e3e3;}.cls-4{fill:#f7e080;}.cls-5{fill:#ffeea7;}.cls-6{fill:#767c97;}.cls-7{fill:#def3f9;}.cls-8{fill:#9fcded;}.cls-9{fill:#bbdff5;}</style></defs><title>wait</title><g id="Calque_2" data-name="Calque 2"><g id="_ÎÓÈ_1_1_" data-name="—ÎÓÈ_1_1_"><rect class="cls-1" width="1200" height="1200"/><path class="cls-2" d="M357.91,1034.48C336.73,1029.9,82.25,988.65,101,684.4s42.25-395.75,141.19-429.23S581.6,63.3,770.32,213.91c49,39.1,98.91,76.93,146.6,117.85C982.44,388,1049.82,452.93,1082,538a278.86,278.86,0,0,1,16.63,126c-4.93,50.21-11.87,99.05-24.51,148q-6.45,25-12.91,50c-2.58,10-5.18,20.06-9.25,29.48-26.17,60.7-59.18,100.53-114.49,132.85-48,28-107.48,27.31-160.5,24.22C566.14,1036.26,458.62,1056.26,357.91,1034.48Z"/></g><g id="_ÎÓÈ_2" data-name="—ÎÓÈ_2"><path class="cls-3" d="M377.11,932.44c-6.79-3.24-9.3-7-6-11.38,22.66-30.41,124.49-28.43,173.89-27.89,62.14.68,126.79.53,182.74,8.56,23.42,3.37,76.48,6.78,85.57,17.24,23.84,27.48-145.46,33.23-172.86,33.33C594.73,952.45,415.91,951,377.11,932.44Z"/><path class="cls-1" d="M644.72,630.93c52.34,38,118,112.91,118,199.14l-163.09,40-169.14-40c0-86.47,65.82-161.58,118.4-199.45l3-2c6.59-4.39,6.73-14.72.26-19.32L548.85,607c-52.58-37.87-118.4-113-118.4-199.45H762.68c0,86.23-65.62,161.17-118,199.14l-3.79,3.2a12,12,0,0,0,.25,18.26Z"/><path class="cls-4" d="M758.7,803.64a39.62,39.62,0,0,1,3.88,17.82c-.4,23-30.28,29-49,30.33-7.49.53-15,.93-22.49,1.29-47.33,2.28-94.91,4.76-142.23.88-21-1.73-43.27-5.36-63.38-6.5-15.17-.86-36.44-.9-47.85-12.33-37.05-37.18,72.27-89.93,92.72-106,33.12-26.08,65.89-77.44,44.41-119.47C566,592.48,460.71,511,490.42,493.1c12.31-7.4,56.11,18.25,70.13,21C605,523,647,511.2,686.84,492.35c20.14-9.52,4.06,25.85,1.5,30.62-12.13,22.59-31.33,39-49.46,56.86-16.91,16.71-32.6,37.82-31.78,62.35,1.07,32.53,14.49,63.88,39.88,85.58C680.28,756.23,738.84,761.5,758.7,803.64Z"/><path class="cls-5" d="M758.93,804.72a40.25,40.25,0,0,1,3.65,17.45c-.38,22.56-28.48,28.4-46,29.7-7,.53-14.1.91-21.15,1.27-44.51,2.23-89.25,4.66-133.74.86-19.78-1.69-40.69-5.25-59.6-6.36-14.26-.84-34.27-.89-45-12.09C422.21,799.14,525,747.47,544.24,731.7c31.15-25.54,62-75.85,41.76-117-8.24-16.81-107.27-96.65-79.34-114.15,11.59-7.25,52.77,17.88,65.95,20.61,41.82,8.65,81.27-2.88,118.75-21.34,18.94-9.32,3.82,25.32,1.42,30-11.41,22.12-29.47,38.17-46.51,55.7-15.9,16.36-30.65,37-29.89,61.07,1,31.86,13.63,62.56,37.5,83.82C685.19,758.27,740.26,763.44,758.93,804.72Z"/><path class="cls-6" d="M642.48,631.88c48.55,35.38,90.86,85.72,109,143.63a186.84,186.84,0,0,1,8.75,55.21l2.09-1.86L617.23,864.45l-12.75,3.13c-1.36.34-4,.45-5.18,1.27,1.49-1.05,2.37.32.89-.3a19.76,19.76,0,0,0-3.15-.74l-11.62-2.75-86.78-20.53-66.71-15.77.94,1c.33-71.9,44.36-137,97.23-182.43q8.4-7.22,17.3-13.85c4.18-3.1,9.33-5.51,11.18-10.75,2.15-6.12-.55-11.7-5.51-15.31s-9.91-7.24-14.7-11.1A324.53,324.53,0,0,1,470.5,522c-22.47-34.26-37.44-73.8-37.63-115.13l-3.36,2H761.74l-1.48-1.07c-.36,77.29-51.11,147.26-110.18,193-4.77,3.69-12,7.51-14.53,13.29-3.42,7.69,1.25,13.29,6.93,17.8,1.33,1.06,5.8-.85,4.48-1.9-1.79-1.42-3.87-2.76-5.3-4.56a11.51,11.51,0,0,1-.2-13.69c3.69-4.89,10.23-8.33,15-12.07a334.33,334.33,0,0,0,36.93-34c25.4-27.16,46.89-58.65,59.76-93.7a190.43,190.43,0,0,0,12-64.69c0-.81-.75-1.07-1.47-1.07H431.39c-1.18,0-3.36.52-3.35,2,.32,70.47,42.71,134.52,93.88,179.93q8.67,7.7,17.88,14.77c3.88,3,9.77,5.87,12.64,9.93a11.53,11.53,0,0,1,.89,11.42c-1.39,2.9-4,4.26-6.47,6-5.73,4-11.25,8.43-16.64,12.92a324.91,324.91,0,0,0-65.86,74C442.68,751,428.23,789.82,428,830.38c0,.62.34.87.93,1l55.93,13.22,90.85,21.49c7.14,1.69,14.44,4.07,21.71,5.13,3.95.58,8.67-1.47,12.46-2.4l83.63-20.51c22.73-5.57,45.73-10.52,68.29-16.75l1.16-.28c.9-.23,2.1-.81,2.09-1.86-.3-65.23-36.89-124.78-82.36-169.15A327.15,327.15,0,0,0,647,630C645.58,629,641.15,630.91,642.48,631.88Z"/><ellipse class="cls-7" cx="593.27" cy="319.67" rx="187.28" ry="24"/><path class="cls-6" d="M783,319c-.17-4.18-6.07-6.54-9.24-7.83-8.09-3.29-16.83-5.06-25.39-6.63-29.75-5.45-60.19-7.51-90.36-8.91-39.62-1.84-79.36-1.92-119-.37-31.42,1.23-63.07,3.18-94.12,8.38-9.45,1.58-19,3.37-28.05,6.53-4.12,1.44-10.66,3.53-12.71,7.87-4.51,9.52,21,14,25.69,15,27.8,6.13,56.64,8.22,85,9.87,39.23,2.29,78.6,2.7,117.88,1.59,33.27-.93,66.69-2.72,99.67-7.43A246.42,246.42,0,0,0,763.73,331c5.61-1.56,12.4-3.35,16.81-7.41a6.36,6.36,0,0,0,2.43-4.21c.08-2.09-4.78-1.16-4.85.56-.15,3.85-6.54,5.69-9.38,6.7-8.51,3-17.56,4.7-26.44,6.18-28.62,4.79-57.74,6.77-86.7,8.07-37.53,1.69-75.17,1.78-112.71.41-30.43-1.11-61-2.95-91.13-7.51a217.06,217.06,0,0,1-28.68-5.89c-4.09-1.2-11.61-2.89-14-7-4.62-7.7,23.86-12.35,27.37-13,27.06-5.33,54.87-7.34,82.37-8.87,37.28-2.06,74.68-2.42,112-1.42,31.92.85,64,2.56,95.63,6.74A290.69,290.69,0,0,1,758.26,310c5.76,1.43,12.92,2.91,17.66,6.76a4.88,4.88,0,0,1,2.21,3.52C778.2,322,783,321,783,319Z"/><path class="cls-8" d="M769.7,408.86c-36,10.71-160.17,39.55-351.72-.94a15.15,15.15,0,0,1-12-14.84V317.86c250.6,35.41,374.55,0,374.55,0v76.46A15.17,15.17,0,0,1,769.7,408.86Z"/><path class="cls-9" d="M770.07,398.47c-34.74,9.49-154.61,35-339.51-.83-6.75-1.31-11.57-6.8-11.57-13.14V319.86c71.16,9.23,131.74,13,181.81,13.79,120.13,1.84,179.74-15.79,179.74-15.79v67.73C780.54,391.54,776.29,396.78,770.07,398.47Z"/><path class="cls-6" d="M769.23,407.1c-44.43,13.18-91.48,18.15-137.63,19.54A838.41,838.41,0,0,1,508,420.84c-24.7-2.92-49.29-6.84-73.71-11.61-10.47-2.05-25.22-2.58-25.84-16.32-.11-2.46,0-5,0-7.43V317.71l-3.27,2c78.08,11,157.08,17.33,236,15.44,40.68-1,81.66-3.86,121.69-11.48,6.08-1.16,12.23-2.35,18.2-4.05l-2.93-1.6v69.13c0,7.92.46,16.7-8.86,20-2.9,1-2,4.55.94,3.52,7.79-2.72,12.71-8.93,12.83-17.27.07-4.82,0-9.64,0-14.46V317.71c0-1.51-1.7-1.95-2.93-1.6-18.23,5.19-37.53,7.56-56.29,9.77-56.62,6.66-114,7.09-170.87,4.31C504,327.8,455.27,322.84,406.8,316c-1.13-.16-3.27.54-3.27,2v62.9c0,8.62-1.52,18.65,5.73,25,3.4,3,7.52,3.78,11.81,4.67q10.53,2.19,21.11,4.15,19.29,3.6,38.71,6.43c75.45,11,153.05,13.72,228.65,2.4a443.08,443.08,0,0,0,60.63-12.94C773.13,409.74,772.22,406.21,769.23,407.1Z"/><path class="cls-8" d="M769.7,916.17c-36,10.7-160.17,39.55-351.72-.95a15.15,15.15,0,0,1-12-14.83V842.54a15.17,15.17,0,0,1,17.15-15c185.28,24.37,298,9.57,339.39,1.67a15.16,15.16,0,0,1,18,14.89v57.56A15.18,15.18,0,0,1,769.7,916.17Z"/><path class="cls-9" d="M770.09,903.92c-34.7,9.23-154.4,34.1-339-.81-6.75-1.27-11.57-6.62-11.57-12.79V840.45c0-7.9,7.78-14,16.54-13,178.61,21,287.29,8.25,327.16,1.44,9-1.54,17.36,4.63,17.36,12.84v49.62C780.54,897.18,776.29,902.27,770.09,903.92Z"/><path class="cls-6" d="M769.23,914.41c-41.58,12.33-85.46,17.39-128.65,19.21a817.68,817.68,0,0,1-114.78-3.53q-34.59-3.42-68.86-9.38c-12.49-2.16-25.24-4.09-37.53-7.22-7.23-1.84-10.85-7.42-11-14.63-.31-18.73-.7-37.7,0-56.42.16-4.25,1.75-8.34,5.32-10.89,5.4-3.88,12.34-1.69,18.39-.93q18.47,2.32,37,4.25,33.38,3.45,66.88,5.49c62.32,3.72,125.26,3.87,187.33-3.43q13.17-1.54,26.26-3.64c3.55-.58,7.11-1.19,10.65-1.84,8-1.48,16.14,1.67,17.64,10.62,1.37,8.14.19,17.3.19,25.51v32.1c0,6.44-2.17,12.39-8.86,14.73-2.9,1-2,4.55.94,3.51,7.43-2.59,12.53-8.48,12.83-16.54.12-3.15,0-6.32,0-9.47v-38c0-9.85.72-20.79-10.27-25.43-8-3.36-18.67.51-26.92,1.78-58,8.93-117.21,10.12-175.74,8-48.27-1.73-96.21-6.54-144.14-12.31-8.07-1-16.07,1.21-20.28,8.78-2,3.66-2.12,7.47-2.12,11.49v35.7c0,8.14-2,20.29,2.54,27.58,5.45,8.72,17.54,9,26.59,10.75q19.53,3.82,39.2,6.89A894.54,894.54,0,0,0,603.41,938c52.93.32,106.89-4,158.19-17.68q4.3-1.14,8.57-2.41C773.13,917.05,772.22,913.52,769.23,914.41Z"/><path class="cls-6" d="M817.54,501.54a163.58,163.58,0,0,1-31.21,31c-.94.71,3.43.28,4.36-.42a166.06,166.06,0,0,0,31.61-31.45c.24-.31-3.89-.25-4.76.88Z"/><path class="cls-6" d="M869.54,568.76a155.87,155.87,0,0,1-40.25,11.12c-1.22.17-5.22,2.31-2.11,1.89a174.61,174.61,0,0,0,45.13-12.43c2.91-1.24-1.64-1.06-2.77-.58Z"/><path class="cls-6" d="M897.54,665.94a166.81,166.81,0,0,0-43.12-11.87c-1.26-.17-5.6,1.93-3,2.27A163.18,163.18,0,0,1,893.63,668c1.22.51,5.63-1.36,3.91-2.09Z"/><path class="cls-6" d="M848.3,746.62a166.15,166.15,0,0,0-36.89-25.44c-2-1-5.52,1.91-2.77,3.31a163.13,163.13,0,0,1,36,25c1.62,1.48,5.8-.93,3.71-2.82Z"/><path class="cls-6" d="M365.72,484.47A178.43,178.43,0,0,0,399.8,518.3c1.63,1.23,5.9-1.08,3.74-2.71a175,175,0,0,1-33.39-33.21c-1.27-1.66-5.89.18-4.43,2.09Z"/><path class="cls-6" d="M310.89,557.22a178.86,178.86,0,0,0,46.56,12.83c1.1.15,5.54-1.71,3.11-2a173.81,173.81,0,0,1-45.12-12.46c-1.32-.56-5.13,1.43-4.55,1.67Z"/><path class="cls-6" d="M287.76,663a172.08,172.08,0,0,1,44.56-12.3c2.71-.36,3.68-4.09.4-3.64a181.09,181.09,0,0,0-47.12,13c-3,1.29-.36,4,2.16,2.95Z"/><path class="cls-6" d="M341.08,749.79a173.89,173.89,0,0,1,38.58-26.72c2.93-1.49.32-4.35-2.2-3.07a179.3,179.3,0,0,0-39.64,27.39c-2.41,2.2,1.37,4.12,3.26,2.4Z"/></g></g></svg>