<svg width="28" height="28" viewBox="0 0 28 28" fill="none" xmlns="http://www.w3.org/2000/svg">
<circle cx="20" cy="8" r="8" fill="#E8F6B1"/>
<g clip-path="url(#clip0_1988_2364)">
<path d="M12 22.75C11.9258 22.75 11.8533 22.772 11.7917 22.8132C11.73 22.8544 11.6819 22.913 11.6535 22.9815C11.6252 23.05 11.6177 23.1254 11.6322 23.1982C11.6467 23.2709 11.6824 23.3377 11.7348 23.3902C11.7873 23.4426 11.8541 23.4783 11.9268 23.4928C11.9996 23.5073 12.075 23.4998 12.1435 23.4715C12.212 23.4431 12.2706 23.395 12.3118 23.3333C12.353 23.2717 12.375 23.1992 12.375 23.125C12.375 23.0255 12.3355 22.9302 12.2652 22.8598C12.1948 22.7895 12.0995 22.75 12 22.75Z" fill="#2E88FF" stroke="#2E88FF" stroke-width="1.5" stroke-linecap="round" stroke-linejoin="round"/>
<path d="M12 19.75V12.25" stroke="#2E88FF" stroke-width="1.5" stroke-linecap="round"/>
<path d="M13.621 5.76001C13.4722 5.45702 13.2414 5.20181 12.9549 5.02333C12.6684 4.84485 12.3376 4.75024 12 4.75024C11.6624 4.75024 11.3316 4.84485 11.0451 5.02333C10.7586 5.20181 10.5278 5.45702 10.379 5.76001L0.90601 25.058C0.79198 25.29 0.738946 25.5472 0.751916 25.8053C0.764886 26.0635 0.843432 26.3141 0.980137 26.5334C1.11684 26.7528 1.3072 26.9337 1.53324 27.0591C1.75927 27.1845 2.01353 27.2502 2.27201 27.25H21.728C21.9865 27.2502 22.2407 27.1845 22.4668 27.0591C22.6928 26.9337 22.8832 26.7528 23.0199 26.5334C23.1566 26.3141 23.2351 26.0635 23.2481 25.8053C23.2611 25.5472 23.208 25.29 23.094 25.058L13.621 5.76001Z" stroke="#2E88FF" stroke-width="1.5" stroke-linecap="round" stroke-linejoin="round"/>
</g>
<defs>
<clipPath id="clip0_1988_2364">
<rect width="24" height="24" fill="white" transform="translate(0 4)"/>
</clipPath>
</defs>
</svg>
