<svg width="24" height="22" viewBox="0 0 24 22" fill="none" xmlns="http://www.w3.org/2000/svg">
<path d="M0.75 11.47L10.86 1.35001C11.009 1.20012 11.1868 1.08206 11.3828 1.00298C11.5787 0.923908 11.7887 0.885473 12 0.890008C12.4238 0.891823 12.8299 1.06071 13.13 1.36001L23.25 11.47" stroke="#3D466C" stroke-width="1.5" stroke-linecap="round" stroke-linejoin="round"/>
<path d="M20.04 8.26V21.11H3.95999V8.25" stroke="#3D466C" stroke-width="1.5" stroke-linecap="round" stroke-linejoin="round"/>
<path d="M15.21 21.11V16.29C15.21 15.4387 14.8718 14.6222 14.2698 14.0202C13.6678 13.4182 12.8514 13.08 12 13.08C11.1487 13.08 10.3322 13.4182 9.7302 14.0202C9.1282 14.6222 8.79001 15.4387 8.79001 16.29V21.11" stroke="#3D466C" stroke-width="1.5" stroke-linecap="round" stroke-linejoin="round"/>
<path d="M12 9.73001C13.1819 9.73001 14.14 8.7719 14.14 7.59001C14.14 6.40812 13.1819 5.45001 12 5.45001C10.8181 5.45001 9.85999 6.40812 9.85999 7.59001C9.85999 8.7719 10.8181 9.73001 12 9.73001Z" stroke="#3D466C" stroke-width="1.5" stroke-linecap="round" stroke-linejoin="round"/>
</svg>
