<svg width="28" height="28" viewBox="0 0 28 28" fill="none" xmlns="http://www.w3.org/2000/svg">
<circle cx="20" cy="8" r="8" fill="#E8F6B1"/>
<g clip-path="url(#clip0_1988_2519)">
<path d="M12.75 13.807C12.7497 12.6848 12.4348 11.5852 11.8409 10.6331C11.247 9.68102 10.3981 8.91452 9.39043 8.4207C8.38279 7.92688 7.25687 7.72553 6.14053 7.83951C5.0242 7.95349 3.9622 8.37825 3.07516 9.06553C2.18812 9.7528 1.51159 10.6751 1.12241 11.7275C0.733232 12.78 0.647 13.9206 0.87351 15.0196C1.10002 16.1186 1.63019 17.1321 2.40381 17.945C3.17744 18.7578 4.1635 19.3374 5.25 19.6179V25.754C5.25 26.1518 5.40804 26.5333 5.68934 26.8146C5.97065 27.0959 6.35218 27.254 6.75 27.254C7.14783 27.254 7.52936 27.0959 7.81066 26.8146C8.09197 26.5333 8.25 26.1518 8.25 25.754V19.6179C9.53819 19.2853 10.6793 18.534 11.4939 17.4821C12.3085 16.4302 12.7503 15.1374 12.75 13.807V13.807Z" stroke="#2E88FF" stroke-width="1.5" stroke-linecap="round" stroke-linejoin="round"/>
<path d="M13.5632 19.7499C14.3468 19.6418 15.101 19.379 15.7822 18.9769L20.6892 23.8829C20.9721 24.1562 21.351 24.3074 21.7443 24.304C22.1376 24.3005 22.5138 24.1428 22.7919 23.8647C23.0701 23.5866 23.2278 23.2103 23.2312 22.817C23.2346 22.4237 23.0834 22.0448 22.8102 21.7619L17.9002 16.8559C18.5739 15.7149 18.8509 14.383 18.688 13.068C18.5251 11.753 17.9315 10.5289 16.9998 9.58676C16.0682 8.64458 14.8508 8.03731 13.5377 7.8597C12.2247 7.68209 10.8897 7.94413 9.74121 8.60494" stroke="#2E88FF" stroke-width="1.5" stroke-linecap="round" stroke-linejoin="round"/>
<path d="M5.25 13.057C5.25 13.4548 5.40804 13.8364 5.68934 14.1177C5.97064 14.399 6.35218 14.557 6.75 14.557C7.14782 14.557 7.52936 14.399 7.81066 14.1177C8.09196 13.8364 8.25 13.4548 8.25 13.057C8.25 12.6592 8.09196 12.2777 7.81066 11.9963C7.52936 11.715 7.14782 11.557 6.75 11.557C6.35218 11.557 5.97064 11.715 5.68934 11.9963C5.40804 12.2777 5.25 12.6592 5.25 13.057V13.057Z" stroke="#2E88FF" stroke-width="1.5" stroke-linecap="round" stroke-linejoin="round"/>
<path d="M6.75 11.557V7C6.75 6.40326 6.98705 5.83097 7.40901 5.40901C7.83097 4.98705 8.40326 4.75 9 4.75C9.59674 4.75 10.169 4.98705 10.591 5.40901C11.0129 5.83097 11.25 6.40326 11.25 7V7.989" stroke="#2E88FF" stroke-width="1.5" stroke-linecap="round" stroke-linejoin="round"/>
</g>
<defs>
<clipPath id="clip0_1988_2519">
<rect width="24" height="24" fill="white" transform="translate(0 4)"/>
</clipPath>
</defs>
</svg>
