<?xml version="1.0" encoding="UTF-8"?>
<svg width="16px" height="16px" viewBox="0 0 16 16" version="1.1" xmlns="http://www.w3.org/2000/svg" xmlns:xlink="http://www.w3.org/1999/xlink">
    <!-- Generator: sketchtool 59.1 (101010) - https://sketch.com -->
    <title>D2819FDE-EF6D-48AF-ADF9-4900A8D00D74</title>
    <desc>Created with sketchtool.</desc>
    <g id="Demande-Toulouse" stroke="none" stroke-width="1" fill="none" fill-rule="evenodd">
        <g id="0120070-Demande-/-Conformité-Assainissement" transform="translate(-444.000000, -582.000000)" fill="#030F40">
            <g id="Group" transform="translate(319.000000, 168.000000)">
                <g id="Hashtag-Copy" transform="translate(39.000000, 404.000000)">
                    <g id="Assets-/-Icons-/-Line-/-close" transform="translate(86.000000, 10.000000)">
                        <path d="M0.146446609,0.145779943 C0.341708755,-0.0494822032 0.658291245,-0.0494822032 0.853553391,0.145779943 L0.853553391,0.145779943 L8,7.29233333 L15.1464466,0.145779943 C15.320013,-0.0277864092 15.5894374,-0.0470715594 15.7843055,0.0879244921 L15.8535534,0.145779943 C16.0488155,0.341042089 16.0488155,0.657624578 15.8535534,0.852886724 L15.8535534,0.852886724 L8.707,7.99933333 L15.8535534,15.1457799 C16.0271197,15.3193463 16.0464049,15.5887707 15.9114088,15.7836388 L15.8535534,15.8528867 C15.6582912,16.0481489 15.3417088,16.0481489 15.1464466,15.8528867 L15.1464466,15.8528867 L8,8.70633333 L0.853553391,15.8528867 C0.679987039,16.0264531 0.410562638,16.0457382 0.215694497,15.9107422 L0.146446609,15.8528867 C-0.0488155365,15.6576246 -0.0488155365,15.3410421 0.146446609,15.1457799 L0.146446609,15.1457799 L7.293,7.99933333 L0.146446609,0.852886724 C-0.0271197425,0.679320372 -0.0464048927,0.409895971 0.0885911588,0.21502783 Z" id="icon-fill-color"></path>
                    </g>
                </g>
            </g>
        </g>
    </g>
</svg>