<?xml version="1.0" encoding="UTF-8"?>
<svg width="218px" height="119px" viewBox="0 0 218 119" version="1.1" xmlns="http://www.w3.org/2000/svg" xmlns:xlink="http://www.w3.org/1999/xlink">
    <!-- Generator: Sketch 48.2 (47327) - http://www.bohemiancoding.com/sketch -->
    <title>Combined Shape</title>
    <desc>Created with Sketch.</desc>
    <defs></defs>
    <g id="DESKTOP_TSME_SANSLIEN_00" stroke="none" stroke-width="1" fill="none" fill-rule="evenodd" transform="translate(-261.000000, -440.000000)">
        <g id="FACTURE" transform="translate(-32.000000, 254.000000)" fill="#AADC14" fill-rule="nonzero">
            <g id="Group" transform="translate(293.000000, 186.000000)">
                <path d="M212,113.379284 L212,109 L218,114 L212,119 L212,115.38304 C115.692923,121.284628 60.3451896,84.7830202 46.3303982,5.99433766 C45.0287811,5.90713986 44,4.82371228 44,3.5 C44,2.11928813 45.1192881,1 46.5,1 C47.8807119,1 49,2.11928813 49,3.5 C49,4.20533924 48.7078998,4.84245482 48.2380671,5.29697899 C61.966999,83.2826251 116.429078,119.271137 211.999994,113.379285 Z M5.81124845,11.4157524 C6.45388146,13.5177103 5.20041366,15.1160276 3.43316247,15.6563306 C2.40226594,15.9715073 1.61082373,15.9206817 0.684305801,15.4280434 L1.54354477,13.8331364 C1.9456186,14.0469228 2.30974493,14.1844729 2.92560519,13.9961855 C3.83600732,13.7178476 4.26136289,13.002216 3.92572017,11.9043781 L1.99372795,5.58511632 L3.854697,5.01616098 L5.81124845,11.4157524 Z M14.4539232,12.1991078 L12.7536133,12.7189447 L12.5571395,12.0763079 C12.2492938,12.6974544 11.6803347,13.134917 11.0376979,13.3313908 C10.341508,13.5442374 9.70961636,13.4885514 9.20265372,13.2189946 C8.46843196,12.8286019 8.12059404,12.2176021 7.88728142,11.4544709 L6.52424453,6.99617815 L8.26471919,6.46406165 L9.55407841,10.6813656 C9.84469588,11.6319326 10.5454048,11.7690568 11.0943237,11.6012354 C11.6432426,11.4334141 12.160866,10.9238083 11.8702485,9.97324136 L10.5808893,5.75593738 L12.321364,5.22382088 L14.4539232,12.1991078 Z M20.9855252,7.80128837 C21.4562436,9.34093903 20.3693197,10.4784277 18.7225629,10.9818917 C17.624725,11.3175345 16.5971545,11.4999371 15.4433774,10.886463 L16.2334578,9.40053802 C16.985161,9.80022572 17.7594631,9.6513359 18.2949938,9.48760774 C18.8974658,9.30341357 19.4653163,8.91020899 19.3056813,8.38806659 C19.199258,8.03997166 18.9381446,7.85628772 18.3728529,7.97055601 L17.2422694,8.19909259 C15.9469335,8.46335936 15.0025927,8.15184625 14.6096451,6.86657266 C14.1675791,5.42063987 15.2020586,4.25526604 16.6212148,3.82138643 C17.7056644,3.48983692 18.6733714,3.39893479 19.5351653,3.82352312 L18.7956535,5.23542903 C18.283489,4.99674194 17.6348831,5.07792319 17.0324111,5.26211736 C16.3362213,5.47496396 16.1399163,5.88633285 16.2463396,6.23442778 C16.3241105,6.48880484 16.5212671,6.75060108 17.1535002,6.61586677 L18.2840837,6.38733018 C19.7040071,6.09961285 20.6253232,6.62312091 20.9855252,7.80128837 Z M26.1151034,8.6339272 L25.1645364,8.92454468 C23.7453802,9.35842429 22.8359179,8.53849847 22.5330208,7.54776674 L21.4769742,4.09359396 L20.7406196,4.31872017 L20.3353924,2.99328178 L21.071747,2.76815557 L20.4413936,0.706362515 L22.1818683,0.174246012 L22.8122217,2.23603907 L24.0439422,1.85946431 L24.4491694,3.1849027 L23.2174489,3.56147746 L24.2407498,6.9085441 C24.363546,7.3101921 24.6205662,7.48048778 25.0356024,7.35359846 L25.6648509,7.16121788 L26.1151034,8.6339272 Z M32.4844273,3.46589885 L28.1198524,4.80028331 C28.394097,5.69729718 29.1435829,6.18550088 30.1209264,5.886697 C30.8840576,5.65338438 31.1934378,5.3245624 31.5001749,4.74767388 L32.8730246,5.4552073 C32.3803863,6.38172523 31.8162876,6.97873836 30.5577906,7.36349953 C28.9110338,7.8669636 27.1019989,7.60021873 26.2383329,4.77529448 C25.5424882,2.49928916 26.3812612,0.837440812 28.1886772,0.28485829 C30.1299758,-0.30865627 31.6616933,0.77485727 32.2470215,2.68937939 L32.4844273,3.46589885 Z M30.406434,2.79827322 C30.2989021,2.4944363 30.2014324,2.31928017 30.0165554,2.09764874 C29.7022303,1.73991733 29.2198269,1.55069011 28.6307432,1.73079108 C28.0416595,1.91089205 27.7475434,2.33752509 27.686997,2.80986621 C27.6576617,3.09698891 27.6748018,3.29670425 27.7555572,3.60872759 L30.406434,2.79827322 Z M15.2606749,32.8662941 L13.5202002,33.3984106 L11.387641,26.4231238 L13.1281157,25.8910073 L15.2606749,32.8662941 Z M12.7772088,24.6953583 L10.9965694,25.2397544 L10.5626897,23.8205982 L12.3433292,23.2762021 L12.7772088,24.6953583 Z M22.0100683,29.851218 C21.5906819,30.6821422 20.9618592,31.2111053 19.997904,31.505816 C18.6055242,31.9315092 16.6492184,31.7097896 15.7855524,28.8848653 C14.9218864,26.0599411 16.4238466,24.7955631 17.8162263,24.3698699 C18.7801815,24.0751592 19.5931984,24.1486681 20.4055324,24.6030175 L19.5875669,26.1413869 C19.1073808,25.8636437 18.7503322,25.7971282 18.2951312,25.9362971 C17.8800949,26.0631864 17.6038017,26.3086942 17.4435684,26.6943952 C17.2781331,27.110966 17.3009009,27.6163941 17.5260271,28.3527488 C17.7511533,29.0891035 18.019003,29.5342422 18.3890985,29.7870848 C18.7376192,30.0172441 19.1039628,30.0662781 19.5189991,29.9393888 C19.9742002,29.8002199 20.2330119,29.545417 20.4757921,29.0466407 L22.0100683,29.851218 Z M25.3688162,29.7759252 L23.6283415,30.3080417 L21.4957823,23.3327548 L23.236257,22.8006383 L25.3688162,29.7759252 Z M22.8853501,21.6049894 L21.1047106,22.1493855 L20.670831,20.7302293 L22.4514705,20.1858331 L22.8853501,21.6049894 Z M30.1794848,17.8817008 L31.7392487,24.5636389 L30.4539751,24.9565864 L28.0239739,18.5407066 L30.1794848,17.8817008 Z M33.0135164,27.4387058 L31.0186647,28.0485932 L30.4128705,26.0671297 L32.4077222,25.4572424 L33.0135164,27.4387058 Z" id="Combined-Shape"></path>
            </g>
        </g>
    </g>
</svg>