<?xml version="1.0" standalone="no"?>
<!DOCTYPE svg PUBLIC "-//W3C//DTD SVG 1.1//EN" "http://www.w3.org/Graphics/SVG/1.1/DTD/svg11.dtd" >
<svg xmlns="http://www.w3.org/2000/svg">
<metadata></metadata>
<defs>
<font id="tradegothicboldoblique" horiz-adv-x="1024" >
<font-face units-per-em="2048" ascent="1638" descent="-410" />
<missing-glyph horiz-adv-x="569" />
<glyph horiz-adv-x="2048" />
<glyph horiz-adv-x="2048" />
<glyph unicode="&#xd;" horiz-adv-x="681" />
<glyph unicode=" "  horiz-adv-x="569" />
<glyph unicode="&#x09;" horiz-adv-x="569" />
<glyph unicode="&#xa0;" horiz-adv-x="569" />
<glyph unicode="!" horiz-adv-x="569" d="M139 0l64 291h291l-64 -291h-291zM303 500l160 979h299l-275 -979h-184z" />
<glyph unicode="&#x22;" horiz-adv-x="681" d="M254 926l123 553h225l-123 -553h-225zM612 926l123 553h226l-123 -553h-226z" />
<glyph unicode="#" horiz-adv-x="1138" d="M135 422l43 192h219l92 250h-192l41 193h217l154 422h196l-151 -422h202l154 422h197l-152 -422h176l-41 -193h-200l-93 -250h177l-44 -192h-202l-154 -422h-196l151 422h-203l-153 -422h-197l152 422h-193zM596 614h203l92 250h-203z" />
<glyph unicode="$" horiz-adv-x="1138" d="M96 260l211 160q82 -162 219 -191l95 422q-168 51 -259.5 161t-56.5 271q39 176 179.5 281.5t318.5 114.5l28 131h160l-28 -131q219 -39 342 -217l-195 -154q-80 133 -197 145l-84 -376q43 -16 78 -32t72 -36.5t64.5 -43t53 -50t41 -59t26 -68.5t9 -82t-13.5 -96 q-39 -180 -188.5 -293t-335.5 -117l-51 -233h-160l51 235q-102 0 -213 77t-166 181zM543 1104q-12 -63 27.5 -111t109.5 -71l76 344q-74 -2 -135.5 -45t-77.5 -117zM684 225q82 0 144.5 49.5t78.5 126.5q6 23 7 42.5t-4 35t-11 28.5t-18.5 25.5t-21.5 20.5t-28.5 18.5 t-29.5 16.5t-33 16z" />
<glyph unicode="%" horiz-adv-x="1820" d="M316.5 1110q33.5 152 164.5 260.5t285 108.5t237.5 -108.5t50 -260.5t-165.5 -260.5t-285.5 -108.5t-236.5 108.5t-49.5 260.5zM399 -20l1186 1519h174l-1186 -1519h-174zM516 1110q-14 -68 25 -118t106.5 -50t129 50t75.5 118t-23.5 118t-106.5 50t-130.5 -50 t-75.5 -118zM1094.5 368.5q33.5 151.5 166 260t286 108.5t236.5 -108.5t49 -260t-165 -260t-284.5 -108.5t-237.5 108.5t-50.5 260zM1296.5 368.5q-14.5 -67.5 23.5 -117.5t106.5 -50t130 50t76 117.5t-24.5 118t-106.5 50.5t-129 -50.5t-76 -118z" />
<glyph unicode="&#x26;" horiz-adv-x="1366" d="M156 389q33 143 115.5 236.5t224.5 173.5q-41 94 -52.5 163.5t5.5 167.5q41 180 170 274.5t290 94.5q150 0 227.5 -96t47.5 -238q-10 -47 -28.5 -88t-53.5 -81t-58.5 -65.5t-77 -64.5t-75 -54t-82.5 -56q84 -162 197 -301q149 190 196 288l215 -63q-137 -225 -258 -369 q86 -72 187 -82l-56 -249q-109 0 -182.5 31.5t-157.5 119.5q-188 -152 -403 -151q-219 0 -326.5 105t-64.5 304zM446 426q-23 -102 26.5 -157.5t137.5 -55.5q55 0 112.5 22.5t96.5 59.5q-125 135 -225 315q-61 -41 -97.5 -83t-50.5 -101zM688 1048.5q8 -42.5 35 -114.5 q8 6 46 33.5t51.5 38t43 37t43 45t28.5 46t21 56.5q10 53 -15.5 95t-84.5 42q-61 0 -105 -45t-61 -115q-10 -76 -2 -118.5z" />
<glyph unicode="'" horiz-adv-x="454" d="M319 926l123 553h226l-123 -553h-226z" />
<glyph unicode="(" horiz-adv-x="681" d="M250 663.5q98 444.5 463 835.5h241q-180 -195 -303 -392.5t-176 -442.5q-29 -129 -33 -248t16.5 -223.5t50.5 -188.5t75 -176h-242q-190 391 -92 835.5z" />
<glyph unicode=")" horiz-adv-x="681" d="M20 -172q182 195 304 392.5t178 443.5q29 129 32 247.5t-17.5 223t-50.5 188.5t-75 176h242q193 -391 94.5 -835.5t-465.5 -835.5h-242z" />
<glyph unicode="*" d="M385 1128l94 183l242 -140l10 11l6 297h205l-125 -297l6 -11l303 140l13 -183l-308 -36l-6 -13l170 -213l-180 -116l-70 274h-12l-192 -274l-127 116l264 213l-2 13z" />
<glyph unicode="+" horiz-adv-x="1228" d="M154 432l55 250h432l96 432h250l-96 -432h432l-55 -250h-432l-97 -432h-250l97 432h-432z" />
<glyph unicode="," horiz-adv-x="569" d="M90 -303l172 303h-123l64 291h291l-64 -291l-197 -303h-143z" />
<glyph unicode="-" horiz-adv-x="681" d="M186 444l50 226h503l-49 -226h-504z" />
<glyph unicode="." horiz-adv-x="569" d="M139 0l64 291h291l-64 -291h-291z" />
<glyph unicode="/" horiz-adv-x="569" d="M-123 -20l893 1519h250l-893 -1519h-250z" />
<glyph unicode="0" horiz-adv-x="1138" d="M182 492l111 495q53 240 213 376t396.5 136t335.5 -136t46 -376l-110 -495q-53 -240 -212 -376t-396.5 -136t-337 136t-46.5 376zM460 280.5q38 -67.5 156.5 -67.5t187 67.5t107.5 241.5l97 434q37 174 -1 242t-157 68t-187.5 -68t-105.5 -242l-96 -434 q-39 -174 -1 -241.5z" />
<glyph unicode="1" horiz-adv-x="1138" d="M481 0l250 1130h-227l37 162q41 8 77.5 18.5t62.5 18.5t53.5 24.5t40.5 23.5t39 30t32 28t32.5 32.5t30.5 31.5h162l-332 -1499h-258z" />
<glyph unicode="2" horiz-adv-x="1138" d="M82 0l53 240q233 182 363.5 287.5t237 196.5t154.5 145.5t74.5 99.5t36.5 94q20 92 -17.5 147.5t-133.5 55.5q-100 0 -168 -54.5t-86 -140.5l-12 -53h-271l17 69q37 170 190.5 291t360.5 121q223 0 330.5 -111.5t62.5 -318.5q-23 -96 -85.5 -193.5t-156.5 -185.5 t-181 -158.5t-201.5 -158.5t-174.5 -140h590l-51 -233h-932z" />
<glyph unicode="3" horiz-adv-x="1138" d="M166 434h270q-25 -115 16.5 -168t153.5 -53q102 0 172 60.5t92 158.5q27 123 -32.5 176.5t-214.5 55.5l51 233q143 0 213.5 44t93.5 146q16 80 -22.5 129.5t-129.5 49.5q-76 0 -136 -48.5t-81 -123.5h-270q45 197 195.5 301t345.5 104q207 0 310 -105.5t60 -295.5 q-23 -100 -89 -189.5t-160 -132.5q195 -84 133 -356q-45 -211 -207 -325.5t-371 -114.5q-244 0 -342 120.5t-51 333.5z" />
<glyph unicode="4" horiz-adv-x="1138" d="M86 389l53 238l815 852h281l-195 -881h207l-47 -209h-207l-86 -389h-258l86 389h-649zM358 598h424l127 578h-4z" />
<glyph unicode="5" horiz-adv-x="1138" d="M152 291.5q2 64.5 14 132.5h270q-27 -100 17.5 -155.5t146.5 -55.5q127 0 195.5 79t105.5 243q31 141 -4 212.5t-147 71.5q-133 0 -244 -114h-223l172 774h854l-52 -234h-620l-68 -307q145 90 287 90q227 0 297 -129t16 -371q-121 -549 -616 -548q-106 0 -186 24.5 t-124 67.5t-68.5 99t-22.5 120.5z" />
<glyph unicode="6" horiz-adv-x="1138" d="M182 492l111 495q53 240 213 376t395 136q197 0 296.5 -105t70.5 -302h-271q14 76 -28.5 125t-118.5 49q-119 0 -187.5 -68t-105.5 -242l-31 -137q176 115 342 115q186 0 261 -125t34 -313q-53 -238 -204.5 -377t-393.5 -139q-238 0 -337 136t-46 376zM460 280.5 q38 -67.5 156 -67.5q104 0 175 71.5t100 200.5q25 119 -19.5 179.5t-142.5 60.5q-57 0 -115.5 -31t-136.5 -90l-16 -82q-39 -174 -1 -241.5z" />
<glyph unicode="7" horiz-adv-x="1138" d="M301 0l686 1245h-649l51 234h934l-31 -136l-696 -1343h-295z" />
<glyph unicode="8" horiz-adv-x="1138" d="M166 420q61 272 295 356q-76 43 -102.5 132t-4.5 190q43 197 193.5 299t353.5 102t308.5 -102.5t62.5 -298.5q-23 -100 -89.5 -189.5t-160.5 -132.5q196 -84 135 -356q-47 -213 -210 -326.5t-382 -113.5t-332.5 113.5t-66.5 326.5zM438 428q-47 -215 178.5 -215 t272.5 215q25 102 -23.5 164.5t-151 62.5t-177 -62.5t-99.5 -164.5zM618 1075q-16 -78 27 -132t122 -54t145.5 54t82.5 132q18 80 -22.5 135.5t-122.5 55.5t-147.5 -55.5t-84.5 -135.5z" />
<glyph unicode="9" horiz-adv-x="1138" d="M199 387h270q-14 -76 29 -125t118 -49q119 0 187.5 67.5t107.5 241.5l29 137q-176 -115 -342 -114q-186 0 -261 125t-34 313q53 238 204.5 377t393.5 139q238 0 337 -136t46 -376l-110 -495q-53 -240 -212 -376t-397 -136q-197 0 -296 105t-70 302zM578 993 q-27 -119 17 -179t142 -60q57 0 115.5 30.5t136.5 89.5l19 82q37 174 -1 242t-157 68q-104 0 -174 -72t-98 -201z" />
<glyph unicode=":" horiz-adv-x="569" d="M139 0l64 291h291l-64 -291h-291zM276 614l64 291h291l-64 -291h-291z" />
<glyph unicode=";" horiz-adv-x="569" d="M90 -303l172 303h-123l64 291h291l-64 -291l-197 -303h-143zM276 614l64 291h291l-64 -291h-291z" />
<glyph unicode="&#x3c;" horiz-adv-x="1228" d="M160 459l43 196l1220 478l-53 -240l-872 -336l723 -336l-54 -239z" />
<glyph unicode="=" horiz-adv-x="1228" d="M98 182l56 250h1114l-56 -250h-1114zM209 682l55 250h1114l-55 -250h-1114z" />
<glyph unicode="&#x3e;" horiz-adv-x="1228" d="M53 -18l53 239l871 336l-721 336l53 240l1008 -478l-43 -196z" />
<glyph unicode="?" horiz-adv-x="909" d="M262 0l64 291h290l-63 -291h-291zM281 1176q74 152 200.5 237.5t283.5 85.5t249 -93t57 -255q-14 -63 -78.5 -143t-133 -144.5t-132 -139.5t-76.5 -130l-22 -102h-226l46 200q8 41 95 136.5t174 194.5t99 148q10 51 -20.5 85t-81.5 34q-63 0 -128 -56t-85 -124z" />
<glyph unicode="@" horiz-adv-x="1638" d="M234.5 434q-33.5 139 5.5 303q47 211 190 387t344 275.5t412 99.5q135 0 252.5 -44t199.5 -123t116 -196.5t3 -254.5q-29 -127 -93.5 -233.5t-140 -170t-159.5 -107.5t-148.5 -61.5t-107.5 -17.5q-45 0 -70.5 28.5t-15.5 77.5l-4 2q-51 -47 -113.5 -77.5t-116.5 -30.5 q-131 0 -204.5 107.5t-40.5 252.5q41 193 191.5 338.5t334.5 145.5q160 0 215 -127l47 102h185l-213 -500q-31 -80 -33 -80q-8 -39 22 -38q80 0 164 89t117 242q53 240 -69 372t-361 132q-254 0 -445.5 -166t-248.5 -424q-59 -266 70.5 -425.5t393.5 -159.5q233 0 437 143 h188q-139 -152 -314 -233.5t-364 -81.5q-160 0 -293 56t-216 157.5t-116.5 240.5zM774 686q-16 -76 15.5 -123t105.5 -47q96 0 176 74t100 170q16 74 -18 120t-106 46q-92 0 -172 -74t-101 -166z" />
<glyph unicode="A" horiz-adv-x="1138" d="M27 0l694 1479h362l29 -1479h-270l-2 311h-391l-150 -311h-272zM555 561h281l-7 598h-4z" />
<glyph unicode="B" horiz-adv-x="1138" d="M127 0l328 1479h397q230 -1 332 -97q73 -69 73 -184q0 -46 -12 -100q-45 -197 -250 -307q102 -76 134 -154q16 -40 16 -93q0 -52 -15 -118q-47 -213 -202.5 -319.5t-386.5 -106.5h-414zM461 233h119q109 0 180 58.5t94 157.5q7 30 7 56q-1 62 -39 100q-54 54 -169 54h-98 zM608 893h99q94 0 162.5 49t86.5 125q6 26 6 49q0 50 -28 82q-40 47 -135 47h-113z" />
<glyph unicode="C" horiz-adv-x="1138" d="M207 475l119 529q109 496 575 496h1q379 0 378 -327q0 -76 -20 -169l-3 -5h-282l10 41q10 48 10 84q0 52 -21 79q-36 46 -127 46t-148.5 -46t-82.5 -163l-135 -602q-10 -48 -11 -84q0 -52 22 -79q36 -46 127.5 -46t148.5 46.5t82 162.5l22 99h283l-14 -62 q-109 -496 -575 -496l-1 1q-379 0 -379 325q0 76 21 170z" />
<glyph unicode="D" horiz-adv-x="1138" d="M127 0l328 1479h393q250 0 352 -120q68 -80 69 -226q0 -74 -18 -166l-102 -455q-68 -272 -223.5 -392t-405.5 -120h-393zM465 250h98q123 0 200 67.5t111 227.5l87 389q16 71 16 124q1 64 -23 102q-42 68 -174 69h-98z" />
<glyph unicode="E" d="M127 0l328 1479h774l-55 -250h-492l-76 -340h375l-55 -250h-375l-86 -389h512l-55 -250h-795z" />
<glyph unicode="F" horiz-adv-x="909" d="M127 0l328 1479h737l-55 -250h-455l-76 -340h357l-56 -250h-356l-141 -639h-283z" />
<glyph unicode="G" horiz-adv-x="1138" d="M207 475l119 529q109 495 573 495h2q361 0 361 -338q0 -74 -17 -164h-282q13 61 13 107q0 145 -130 145q-90 0 -147.5 -46t-82.5 -163l-135 -602q-10 -48 -10 -84q0 -52 21 -79q36 -46 129 -46q80 0 138 55.5t79 149.5l20 90h-199l52 234h481l-168 -758h-147l-17 123 q-158 -143 -295 -143q-379 0 -379 325q0 76 21 170z" />
<glyph unicode="H" horiz-adv-x="1251" d="M143 0l328 1479h283l-131 -590h399l131 590h283l-328 -1479h-283l142 639h-400l-141 -639h-283z" />
<glyph unicode="I" horiz-adv-x="569" d="M143 0l328 1479h283l-328 -1479h-283z" />
<glyph unicode="J" horiz-adv-x="681" d="M16 -14l56 250q8 0 34.5 -3.5t40.5 -3.5q94 0 133 30t58 112l246 1108h282l-258 -1166q-35 -152 -153.5 -242.5t-298.5 -90.5q-78 0 -140 6z" />
<glyph unicode="K" horiz-adv-x="1138" d="M127 0l328 1479h282l-135 -611h4l502 611h309l-512 -596l228 -883h-318l-158 621l-147 -168l-100 -453h-283z" />
<glyph unicode="L" horiz-adv-x="909" d="M127 0l328 1479h282l-272 -1229h455l-56 -250h-737z" />
<glyph unicode="M" horiz-adv-x="1593" d="M143 0l328 1479h395l41 -971h4l471 971h396l-328 -1479h-242l258 1163h-4l-559 -1163h-213l-43 1163h-4l-258 -1163h-242z" />
<glyph unicode="N" horiz-adv-x="1251" d="M143 0l328 1479h309l199 -877h4l195 877h258l-328 -1479h-270l-222 954h-4l-211 -954h-258z" />
<glyph unicode="O" horiz-adv-x="1138" d="M207 475l119 529q109 496 575 496h1q379 0 378 -327q0 -76 -20 -169l-119 -529q-109 -496 -576 -496q-379 0 -379 326q0 76 21 170zM481 438q-10 -48 -11 -84q0 -52 22 -79q36 -46 127.5 -46t148.5 46.5t82 162.5l135 602q10 48 10 84q0 52 -21 79q-36 46 -127 46 t-148.5 -46t-82.5 -163z" />
<glyph unicode="P" horiz-adv-x="1138" d="M143 0l328 1479h408q259 0 363 -115q72 -79 71 -204q-1 -57 -15 -124q-48 -213 -203 -327.5t-413 -114.5h-125l-131 -594h-283zM610 827h152q209 0 255 209q8 38 8 69q0 140 -171 140h-152z" />
<glyph unicode="Q" horiz-adv-x="1138" d="M207 475l119 529q109 496 575 496h1q378 -1 378 -327q0 -76 -20 -169l-119 -529q-39 -176 -123 -289q53 -47 137 -49l-55 -246q-172 0 -264 146q-117 -57 -271 -57q-379 0 -379 325q0 76 21 170zM481 438q-10 -48 -10 -84q0 -52 21 -79q36 -46 129 -46q68 0 110 23 q-47 97 -98 117l55 245q113 -16 168 -135h4l125 561q10 48 10 84q0 52 -21 79q-36 46 -127 46t-148.5 -46t-82.5 -163z" />
<glyph unicode="R" horiz-adv-x="1138" d="M127 0l328 1479h409q250 0 350 -115q68 -78 69 -202q0 -58 -15 -126q-66 -293 -307 -377l133 -659h-303l-113 602h-135l-133 -602h-283zM594 836h145q201 0 247 204q9 38 9 70q0 135 -164 135h-145z" />
<glyph unicode="S" horiz-adv-x="1138" d="M154 395l290 60v-18q0 -109 46 -165q50 -60 120 -59q76 0 135.5 47t77.5 129q4 19 4 36q1 35 -15 67q-24 48 -72 85t-107.5 72t-117.5 77t-103 89q-44 47 -64 117q-10 34 -10 72q0 39 10 81q41 195 180.5 304.5t354.5 109.5q182 0 277 -97t97 -261l-268 -74 q-12 104 -51 151.5t-113 47.5t-124 -43t-68 -119q-2 -11 -2 -21q-1 -33 19 -64q26 -40 74 -70.5t108.5 -68.5t118 -78t101.5 -98t61 -130q7 -31 7 -68q0 -48 -12 -105q-41 -193 -192.5 -307t-370.5 -114q-178 0 -280.5 102t-110.5 313z" />
<glyph unicode="T" d="M313 1229l56 250h942l-56 -250h-329l-273 -1229h-282l272 1229h-330z" />
<glyph unicode="U" horiz-adv-x="1251" d="M242 442l229 1037h283l-230 -1035q-9 -41 -9 -74q0 -141 161 -141q201 0 248 215l229 1035h283l-230 -1037q-53 -236 -205.5 -349t-380.5 -113t-330 114q-67 74 -67 200q0 67 19 148z" />
<glyph unicode="V" horiz-adv-x="1138" d="M358 1479h279l27 -1057h4l491 1057h277l-705 -1479h-321z" />
<glyph unicode="W" horiz-adv-x="1705" d="M356 0l19 1479h262l-16 -967h4l417 967h273l-10 -967h4l411 967h265l-652 -1479h-272l18 1012h-4l-448 -1012h-271z" />
<glyph unicode="X" horiz-adv-x="1138" d="M18 0l570 778l-207 701h303l115 -443l311 443h303l-514 -701l221 -778h-305l-129 522l-362 -522h-306z" />
<glyph unicode="Y" horiz-adv-x="1138" d="M352 1479h301l117 -596l371 596h301l-598 -881l-133 -598h-283l133 598z" />
<glyph unicode="Z" d="M68 0l53 240l778 989h-502l56 250h819l-53 -238l-779 -991h572l-56 -250h-888z" />
<glyph unicode="[" horiz-adv-x="681" d="M70 -152l360 1631h479l-26 -123h-254l-307 -1385h253l-26 -123h-479z" />
<glyph unicode="\" horiz-adv-x="569" d="M213 1499h250l221 -1519h-250z" />
<glyph unicode="]" horiz-adv-x="681" d="M68 -152l26 123h254l307 1385h-254l27 123h479l-360 -1631h-479z" />
<glyph unicode="^" horiz-adv-x="1228" d="M252 655l579 824h222l215 -824h-244l-137 578l-395 -578h-240z" />
<glyph unicode="_" d="M-57 -256l22 102h1024l-22 -102h-1024z" />
<glyph unicode="`" horiz-adv-x="569" d="M295 1548h317l123 -299h-207z" />
<glyph unicode="a" d="M121 246q16 76 59 138t100.5 108.5t143.5 87.5t169 69.5t198 61.5l18 82q5 22 5 40q0 39 -20 61q-30 32 -89.5 32t-110 -39.5t-64.5 -98.5h-258q53 174 187.5 260.5t304.5 86.5q198 -1 268 -91q47 -60 47 -150q0 -45 -12 -97l-156 -707q-7 -29 -7 -63q0 -13 1 -27h-258 q0 16 2 52t4 57q-158 -129 -336 -129q-121 0 -174 68q-33 43 -33 110q0 40 11 88zM387 289q-4 -18 -4 -34q1 -32 17 -52q24 -31 77 -31q92 0 217 102l60 271q-334 -106 -367 -256z" />
<glyph unicode="b" d="M123 0l328 1479h258l-103 -467q109 68 171.5 95.5t113.5 27.5q147 0 191 -114q20 -53 20 -127q0 -86 -27 -202l-59 -270q-49 -221 -141.5 -331.5t-239.5 -110.5q-80 0 -147.5 48t-92.5 107h-4l-31 -135h-237zM436 252q57 -80 139 -80q59 0 105.5 56.5t79.5 209.5l53 238 q21 85 21 140q0 15 -2 28q-8 59 -28 78.5t-59 19.5q-82 0 -174 -80z" />
<glyph unicode="c" d="M190 401l70 312q94 422 504 422q332 0 331 -278q0 -58 -14 -128h-256l11 49q4 18 4 34q0 39 -24 63q-34 34 -102.5 34t-117.5 -33.5t-64 -97.5l-98 -442q-3 -17 -3 -32q-1 -40 23 -65q32 -34 102.5 -34t119.5 33.5t61 97.5l17 70h258l-2 -5q-92 -422 -501 -422l-1 1 q-335 0 -335 281q0 63 17 140z" />
<glyph unicode="d" d="M190 94q-21 52 -21 126q0 86 28 202l59 270q49 221 141 332t240 111q51 0 101 -28t130 -95l103 467h258l-328 -1479h-237l30 135h-4q-51 -59 -140 -107t-169 -48q-147 0 -191 114zM437 270q7 -59 28.5 -78.5t60.5 -19.5q82 0 172 80l136 610q-55 80 -138 80 q-59 0 -105 -56.5t-81 -209.5l-53 -238q-21 -87 -21 -142q0 -14 1 -26z" />
<glyph unicode="e" d="M186 375l80 364q41 182 176.5 289t321.5 107q180 -1 271 -105q65 -75 66 -183q0 -43 -11 -91l-58 -260h-561l-33 -148q-6 -29 -6 -52q0 -42 20 -68q32 -40 101 -40q78 0 125 43t61 113h258q-47 -174 -172 -269t-317 -95q-186 0 -274 106q-60 73 -61 181q0 50 13 108z M516 705h303l15 61q7 30 7 54q0 106 -124 106q-152 0 -187 -160z" />
<glyph unicode="f" horiz-adv-x="569" d="M133 0l191 856h-117l45 209h117l24 106q41 184 130 256t239 72q37 0 121 -12l-47 -213h-74q-88 0 -109 -94l-26 -115h153l-45 -209h-153l-191 -856h-258z" />
<glyph unicode="g" d="M2 -190q4 14 9 26t15.5 24.5t18.5 23t23.5 21.5t23.5 17t27.5 17.5t26 15.5t28 15.5t23.5 13.5q-76 52 -76 124q0 16 4 33q10 41 47 80t68.5 59.5t81.5 47.5q-78 59 -96 153q-7 34 -7 73q0 71 21 161q94 420 475 420q82 0 154.5 -35t107.5 -94q68 66 126 97.5t128 31.5 l-51 -226q-6 2 -22.5 6.5t-30 7.5t-23.5 3q-12 0 -25.5 -3t-34 -10.5t-32.5 -11.5q0 -147 -13 -196q-47 -213 -164.5 -326t-304.5 -113q-61 0 -104 15q-6 -6 -21.5 -18.5t-24.5 -24t-13 -23.5q-4 -25 20.5 -38t69.5 -15t102 -5t117.5 -6.5t115 -19.5t94.5 -42t56 -78 q8 -26 8 -57t-8 -67q-31 -139 -179.5 -209.5t-379.5 -70.5q-203 0 -302 54q-82 45 -82 118q0 15 3 31zM260 -139q-2 -7 -2 -13q0 -33 47 -50q55 -19 172 -19q195 0 215 88q6 29 -10.5 42t-71.5 17l-276 25q-2 -2 -11.5 -9.5t-11.5 -9.5t-9 -8t-10 -9t-8 -9t-8.5 -10.5 t-6.5 -10.5t-5 -12zM479 684q-13 -58 -13 -100q0 -109 89 -109q86 0 128 46.5t73 189.5q12 56 12 97q0 118 -100 118q-74 0 -117 -55.5t-72 -186.5z" />
<glyph unicode="h" d="M123 0l328 1479h258l-109 -492q186 147 313 148q121 0 165 -68q25 -39 25 -107q0 -49 -13 -112l-189 -848h-258l182 819q6 27 6 49q0 74 -73 74q-55 0 -191 -100l-186 -842h-258z" />
<glyph unicode="i" horiz-adv-x="569" d="M156 0l247 1114h259l-248 -1114h-258zM444 1307l54 233h258l-54 -233h-258z" />
<glyph unicode="j" horiz-adv-x="569" d="M-82 -387l51 227q82 0 122 24.5t52 78.5l260 1171h259l-269 -1204q-33 -152 -138 -227.5t-245 -75.5q-51 0 -92 6zM444 1307l54 233h258l-54 -233h-258z" />
<glyph unicode="k" d="M135 0l328 1479h258l-176 -797h4l371 432h288l-340 -377l115 -737h-272l-72 522l-170 -182l-76 -340h-258z" />
<glyph unicode="l" horiz-adv-x="569" d="M156 0l327 1479h258l-327 -1479h-258z" />
<glyph unicode="m" horiz-adv-x="1478" d="M123 0l248 1114h250l-29 -127q63 47 103 73.5t97.5 50.5t108.5 24q70 0 112 -45.5t48 -122.5q92 82 163.5 125t147.5 43q184 0 185 -180q0 -50 -15 -115l-186 -840h-258l188 848q5 22 5 38q0 56 -52 56q-35 0 -92 -32.5t-92 -67.5l-187 -842h-258l189 848q4 21 4 38 q0 56 -53 56q-39 0 -93.5 -31.5t-89.5 -68.5l-186 -842h-258z" />
<glyph unicode="n" d="M123 0l248 1114h250l-29 -127q100 72 174 110t147 38q121 0 165 -68q25 -39 25 -107q0 -49 -13 -112l-189 -848h-258l182 819q6 27 6 49q0 74 -73 74q-55 0 -191 -100l-186 -842h-258z" />
<glyph unicode="o" d="M190 401l70 312q94 422 504 422q333 0 333 -278q0 -64 -18 -144l-69 -312q-92 -422 -502 -422q-335 0 -335 281q0 64 17 141zM434 336q-3 -17 -3 -32q-1 -40 23 -65q32 -34 102.5 -34t119.5 33.5t61 97.5l99 442q4 18 4 34q0 39 -24 63q-34 34 -102.5 34t-118 -34 t-63.5 -97z" />
<glyph unicode="p" d="M35 -393l336 1507h237l-30 -135h4q51 59 140 107.5t169 48.5q147 0 191 -114q20 -53 20 -127q0 -87 -27 -202l-59 -270q-49 -221 -141.5 -331.5t-239.5 -110.5q-51 0 -102.5 27.5t-129.5 94.5l-110 -495h-258zM436 252q57 -80 139 -80q59 0 105.5 56.5t79.5 209.5l53 238 q21 85 21 140q0 15 -2 28q-7 59 -27.5 78.5t-59.5 19.5q-82 0 -174 -80z" />
<glyph unicode="q" d="M190 94q-21 52 -21 126q0 86 28 202l59 270q49 221 141 332t240 111q80 0 147.5 -48.5t92.5 -107.5h4l30 135h238l-336 -1507h-258l111 495q-109 -68 -171.5 -95t-113.5 -27q-147 0 -191 114zM437 270q7 -59 28.5 -78.5t60.5 -19.5q82 0 172 80l136 610q-55 80 -138 80 q-59 0 -105 -56.5t-81 -209.5l-53 -238q-21 -87 -21 -142q0 -14 1 -26z" />
<glyph unicode="r" horiz-adv-x="681" d="M123 0l248 1114h252l-33 -147h4q63 86 136 127t167 41l-61 -279q-94 29 -131 29q-59 0 -101.5 -37t-54.5 -86l-168 -762h-258z" />
<glyph unicode="s" horiz-adv-x="909" d="M111 297l245 63q0 -80 38 -126t112 -46q59 0 98 27t49 72q3 14 3 28q0 27 -13 49q-20 34 -59 56t-88.5 49t-96.5 53.5t-83 68.5t-50 96q-7 26 -6 58q0 35 8 78q33 150 154 231t268 81q139 0 223.5 -75t104.5 -204l-232 -82q-10 76 -48 114t-97 38q-45 0 -81 -29t-46 -72 q-2 -8 -1 -16q1 -29 23 -57q30 -34 80 -60t107 -61t105 -73t72 -100q13 -35 13 -74q0 -32 -8 -67q-35 -162 -156.5 -249.5t-287.5 -87.5q-66 0 -113 11t-95 43t-84 97.5t-58 165.5z" />
<glyph unicode="t" horiz-adv-x="569" d="M160 201l145 655h-102l45 209h102l68 303h258l-68 -303h166l-45 -209h-166l-127 -569q-2 -10 -2 -18q0 -27 20 -43q26 -20 81 -21q35 0 51 2l-47 -217q-63 -10 -150 -10q-133 0 -195 53q-43 37 -42 104q0 29 8 64z" />
<glyph unicode="u" d="M182 266l189 848h258l-183 -819q-6 -27 -6 -48q0 -75 74 -75q53 0 188 100l189 842h258l-248 -1114h-250l29 127q-100 -72 -175 -109.5t-147 -37.5q-121 0 -166 68q-25 38 -25 102q0 50 15 116z" />
<glyph unicode="v" horiz-adv-x="909" d="M272 1114h258l11 -717h4l329 717h259l-551 -1114h-254z" />
<glyph unicode="w" horiz-adv-x="1366" d="M274 1114h242l-6 -696h4l305 696h221l2 -696h5l296 696h242l-510 -1114h-241l-5 696h-4l-290 -696h-242z" />
<glyph unicode="x" horiz-adv-x="909" d="M12 0l432 573l-161 541h274l74 -319l221 319h274l-403 -543l174 -571h-274l-88 360l-248 -360h-275z" />
<glyph unicode="y" horiz-adv-x="909" d="M-20 -389l49 225q25 -4 75 -4q76 0 142.5 52.5t77.5 95.5q8 41 8 114q0 52 -4 121l-58 899h262l11 -737h4l325 737h263l-545 -1110q-109 -227 -222.5 -312t-308.5 -85q-24 0 -79 4z" />
<glyph unicode="z" horiz-adv-x="909" d="M63 0l50 221l612 668h-424l51 225h742l-50 -221l-622 -668h473l-49 -225h-783z" />
<glyph unicode="{" horiz-adv-x="681" d="M125 604l29 123q145 0 174 129l88 399q27 117 110.5 180.5t178.5 63.5h161l-26 -123h-64q-55 0 -88 -28.5t-49 -96.5l-88 -397q-35 -160 -203 -186v-4q156 -27 121 -187l-90 -401q-14 -68 5 -96.5t77 -28.5h63l-28 -123h-162q-92 0 -149.5 63.5t-30.5 180.5l88 403 q16 72 -15.5 100.5t-101.5 28.5z" />
<glyph unicode="|" horiz-adv-x="454" d="M98 -20l336 1519h250l-336 -1519h-250z" />
<glyph unicode="}" horiz-adv-x="681" d="M109 -172l28 123h64q55 0 88 28.5t47 96.5l88 397q35 160 203 186l2 5q-156 27 -121 186l88 401q16 68 -4.5 96.5t-75.5 28.5h-63l26 123h162q94 0 151.5 -63.5t30.5 -180.5l-90 -403q-16 -72 16.5 -100.5t100.5 -28.5l-27 -123q-145 0 -174 -129l-88 -399 q-27 -117 -111.5 -180.5t-179.5 -63.5h-161z" />
<glyph unicode="~" horiz-adv-x="1228" d="M229 555q141 190 320 190q63 0 149 -36.5t166 -74.5t131 -38q35 0 77 27.5t67.5 53.5t72.5 79l33 -201q-53 -57 -90 -92t-99.5 -65.5t-125.5 -30.5q-41 0 -82 12t-64.5 24.5t-64.5 38.5q-131 74 -244 74q-102 0 -209 -158z" />
<glyph unicode="&#xa1;" horiz-adv-x="569" d="M55 -365l275 979h184l-160 -979h-299zM322 823l65 291h291l-66 -291h-290z" />
<glyph unicode="&#xa2;" horiz-adv-x="1138" d="M160 -287l155 316q-164 100 -104 372l70 312q94 422 520 422q43 0 61 -5l127 254h182l-145 -294q176 -82 117 -361h-256l10 49q12 49 -14 82l-314 -653q8 -2 25 -2q176 0 205 131l16 70h258l-2 -5q-47 -217 -179 -319t-347 -102q-20 0 -70 4l-133 -271h-182zM455 336 q-6 -33 2 -60l297 633h-4q-168 0 -197 -131z" />
<glyph unicode="&#xa3;" horiz-adv-x="1138" d="M43 -20l55 249q92 2 161 93.5t101 238.5q9 41 15 90h-197l39 180h170q6 166 29 269q43 190 186 294.5t320 104.5q244 0 336 -113.5t45 -324.5h-259q14 104 -17.5 158.5t-129.5 54.5q-80 0 -137.5 -50t-75.5 -134q-18 -82 -27 -259h271l-39 -180h-246q-14 -63 -52 -176 t-77 -172q57 -43 110.5 -66.5t123.5 -23.5q74 0 118.5 57.5t77.5 175.5h246q-20 -100 -53 -176.5t-86.5 -145.5t-138.5 -106.5t-195 -37.5q-106 0 -174 24.5t-183 108.5q-100 -74 -166.5 -103.5t-150.5 -29.5z" />
<glyph unicode="&#xa4;" horiz-adv-x="1138" d="M111 328l141 114q-68 111 -27 297.5t158 296.5l-88 115l143 119l92 -119q59 47 143.5 73.5t173.5 26.5t161.5 -26.5t111.5 -73.5l142 119l94 -119l-142 -115q68 -111 27 -297t-158 -297l88 -114l-143 -119l-92 119q-57 -47 -142 -74t-174.5 -27t-162 27t-111.5 74 l-141 -119zM454.5 739q-28.5 -129 28 -216t183.5 -87t222 87t123.5 216t-27.5 216t-183 87t-222.5 -87t-124 -216z" />
<glyph unicode="&#xa5;" horiz-adv-x="1138" d="M209 418l41 180h323l-32 147h-258l39 181h176l-133 553h249l142 -660l424 660h250l-379 -553h176l-39 -181h-258l-99 -147h324l-41 -180h-332l-92 -418h-241l92 418h-332z" />
<glyph unicode="&#xa6;" horiz-adv-x="454" d="M98 -20l129 581h250l-129 -581h-250zM305 918l129 581h250l-129 -581h-250z" />
<glyph unicode="&#xa7;" d="M176 2l164 109q12 -47 54 -79t106 -32q43 0 79.5 26.5t47.5 71.5q10 47 -27 114t-95.5 135.5t-115.5 138t-92 145.5t-21 135q29 129 96.5 189.5t176.5 76.5q-37 61 -48.5 106.5t3.5 123.5q20 98 114.5 167.5t210.5 69.5q104 0 172 -39t119 -125l-164 -110 q-63 102 -145 102q-43 0 -76 -24.5t-41 -61.5q-8 -43 30 -103.5t96.5 -126t115.5 -135t90 -153.5t16 -160q-20 -96 -96 -155.5t-178 -77.5q80 -113 53 -240q-27 -123 -128 -192.5t-226 -69.5q-61 0 -107.5 12.5t-80 40t-54 52t-49.5 69.5zM485 821q-14 -61 84 -192 q119 -164 174 -164q37 0 65 25.5t36 64.5q6 27 -12.5 62.5t-83.5 125.5q-106 154 -166 154q-31 0 -59.5 -21.5t-37.5 -54.5z" />
<glyph unicode="&#xa8;" horiz-adv-x="569" d="M248 1266l51 233h246l-51 -233h-246zM637 1266l51 233h246l-51 -233h-246z" />
<glyph unicode="&#xa9;" horiz-adv-x="1638" d="M192.5 420q-32.5 141 6.5 319q39 174 136 319.5t227 241t282.5 147.5t307.5 52t284 -51t217 -149.5t120.5 -239.5t-6.5 -320q-39 -174 -136 -319.5t-227 -240.5t-282.5 -147t-307.5 -52t-284 51t-217 149.5t-120.5 239.5zM432 739q-57 -254 66 -416.5t356 -162.5 q231 0 428 162.5t252 416.5t-69 417t-353 163q-233 0 -428 -163t-252 -417zM592 745q43 195 183 319t335 124q139 0 220 -81t73 -230h-176q2 68 -42 99.5t-116 31.5q-98 0 -168 -69t-96 -189q-25 -115 16 -191t135 -76q168 1 215 142h185q-57 -152 -179 -237t-259 -85 q-190 0 -279.5 126t-46.5 316z" />
<glyph unicode="&#xaa;" horiz-adv-x="614" d="M236 967q12 55 47.5 100t96 79t122 56.5t147.5 46.5l10 45q14 61 -55 62q-39 0 -67.5 -20.5t-34.5 -51.5h-185q33 113 127 168q82 47 197 47q129 0 177 -53t26 -150l-94 -424q-4 -20 -2 -53h-177q0 2 4 66q-88 -78 -210 -78q-78 0 -113 40t-16 120zM426 993q-6 -27 7 -39 t38 -12q70 1 125 62l25 118q-57 -20 -90 -34.5t-66 -40t-39 -54.5z" />
<glyph unicode="&#xab;" horiz-adv-x="1138" d="M246 557l323 328h226l-324 -328l178 -328h-225zM664 557l323 328h225l-323 -328l178 -328h-225z" />
<glyph unicode="&#xac;" horiz-adv-x="1228" d="M209 682l55 250h1114l-166 -750h-249l110 500h-864z" />
<glyph unicode="&#xad;" horiz-adv-x="681" d="M186 444l50 226h503l-49 -226h-504z" />
<glyph unicode="&#xae;" horiz-adv-x="1638" d="M192.5 420q-32.5 141 6.5 319q39 174 136 319.5t227 241t282.5 147.5t307.5 52t284 -51t217 -149.5t120.5 -239.5t-6.5 -320q-39 -174 -136 -319.5t-227 -240.5t-282.5 -147t-307.5 -52t-284 51t-217 149.5t-120.5 239.5zM432 739q-57 -254 66 -416.5t356 -162.5 q231 0 428 162.5t252 416.5t-69 417t-353 163q-233 0 -428 -163t-252 -417zM582 324l184 833h313q172 0 245 -57.5t42 -194.5q-45 -207 -256 -221l113 -360h-199l-102 342h-84l-76 -342h-180zM870 813h158q76 0 107.5 23.5t46.5 87.5q10 49 -19.5 67.5t-122.5 18.5h-127z " />
<glyph unicode="&#xaf;" horiz-adv-x="569" d="M219 1311l33 151h713l-33 -151h-713z" />
<glyph unicode="&#xb0;" horiz-adv-x="819" d="M382 1206q28 123 132 208t228 85t190.5 -85t39 -208t-131 -208t-228.5 -85t-191.5 85t-38.5 208zM509 1206q-17 -76 19.5 -127t109.5 -51t131 51t75.5 127t-19.5 127t-109.5 51t-131 -51t-75.5 -127z" />
<glyph unicode="&#xb1;" horiz-adv-x="1228" d="M57 0l56 250h1114l-56 -250h-1114zM188 590l56 250h432l61 274h250l-61 -274h432l-55 -250h-433l-61 -275h-250l62 275h-433z" />
<glyph unicode="&#xb2;" horiz-adv-x="681" d="M164 598l33 154q342 252 436 334.5t108 150.5q10 49 -12 80t-82 31q-63 0 -103 -31t-48 -74l-9 -33h-184l10 43q23 100 120 173t233 73q145 0 216.5 -66.5t43.5 -191.5q-12 -57 -49 -114.5t-96.5 -111.5t-109.5 -93t-126 -93.5t-109 -78.5h367l-33 -152h-606z" />
<glyph unicode="&#xb3;" horiz-adv-x="681" d="M211 860h184q-14 -66 10.5 -94.5t96.5 -28.5q61 0 104 34t56 89q16 72 -22 101.5t-136 29.5l35 152q86 0 129 24.5t57 85.5q8 39 -17.5 67t-76.5 28q-45 0 -82 -29t-47 -72h-185q29 123 125.5 187.5t223.5 64.5q133 0 201.5 -62.5t41.5 -176.5q-12 -61 -54 -114.5 t-103 -80.5q129 -49 92 -213q-29 -127 -132.5 -196.5t-240.5 -69.5q-158 0 -223.5 72.5t-36.5 201.5z" />
<glyph unicode="&#xb4;" horiz-adv-x="569" d="M387 1249l258 299h318l-369 -299h-207z" />
<glyph unicode="&#xb6;" horiz-adv-x="1138" d="M266 1112q43 186 167 276.5t353 90.5h660l-39 -172h-139l-328 -1479h-225l327 1479h-139l-328 -1479h-225l207 930q-172 0 -249 95t-42 259z" />
<glyph unicode="&#xb7;" horiz-adv-x="569" d="M253 557q13 61 67.5 108.5t122 47.5t101.5 -47.5t20.5 -108.5t-69 -108.5t-122 -47.5t-100 47.5t-20.5 108.5z" />
<glyph unicode="&#xb8;" horiz-adv-x="569" d="M-88 -416l57 86q98 -35 148 -35q43 0 83 19.5t48 60.5q8 33 -12.5 54.5t-55.5 21.5q-31 0 -94 -16l-35 41l162 184h109l-115 -125l4 -4q25 14 68 14q72 0 117.5 -44t29.5 -115q-20 -96 -109.5 -144.5t-193.5 -48.5q-94 0 -211 51z" />
<glyph unicode="&#xb9;" horiz-adv-x="681" d="M426 598l149 676h-137l25 110q90 16 133 42t86 73h127l-199 -901h-184z" />
<glyph unicode="&#xba;" horiz-adv-x="614" d="M276 1061l41 186q55 252 321.5 252t211.5 -252l-41 -186q-57 -254 -323.5 -254t-209.5 254zM455 1036q-16 -78 65.5 -78t97.5 78l52 234q18 78 -64 78q-86 0 -100 -78z" />
<glyph unicode="&#xbb;" horiz-adv-x="1138" d="M174 229l322 328l-177 328h226l176 -328l-322 -328h-225zM592 229l321 328l-176 328h226l176 -328l-322 -328h-225z" />
<glyph unicode="&#xbc;" horiz-adv-x="1708" d="M309 -20l1166 1519h196l-1165 -1519h-197zM434 598l150 676h-138l25 110q90 16 133 42t86 73h127l-199 -901h-184zM961 233l32 144l520 510h183l-113 -510h135l-32 -144h-136l-51 -233h-184l51 233h-405zM1190 377h209l59 268h-4z" />
<glyph unicode="&#xbd;" horiz-adv-x="1708" d="M272 -20l1166 1519h196l-1165 -1519h-197zM434 598l150 676h-138l25 110q90 16 133 42t86 73h127l-199 -901h-184zM1014 0l35 154q340 252 434 334.5t108 150.5q10 49 -12.5 80t-81.5 31q-63 0 -102 -31t-49 -74l-9 -33h-184l10 43q23 100 121 173t234 73 q143 0 214.5 -66.5t45.5 -191.5q-14 -57 -51 -114.5t-96.5 -112t-110 -93t-126 -93t-108.5 -78.5h367l-33 -152h-606z" />
<glyph unicode="&#xbe;" horiz-adv-x="1708" d="M264 860h185q-14 -66 10 -94.5t96 -28.5q61 0 104 34t56 89q16 72 -22 101.5t-136 29.5l35 152q86 0 129 24.5t57 85.5q8 39 -17.5 67t-76.5 28q-45 0 -82 -29t-47 -72h-184q29 123 125 187.5t223 64.5q133 0 201.5 -62.5t42.5 -176.5q-12 -61 -54.5 -114.5t-103.5 -80.5 q129 -49 92 -213q-29 -127 -132 -196.5t-241 -69.5q-158 0 -223.5 72.5t-36.5 201.5zM350 -20l1166 1519h196l-1165 -1519h-197zM961 233l32 144l520 510h183l-113 -510h135l-32 -144h-136l-51 -233h-184l51 233h-405zM1190 377h209l59 268h-4z" />
<glyph unicode="&#xbf;" horiz-adv-x="909" d="M86 -37q14 63 77.5 143t133.5 144.5t132.5 139.5t74.5 130l22 103h226l-43 -201q-10 -41 -96.5 -136.5t-174.5 -194.5t-98 -148q-12 -51 19.5 -85t82.5 -34q61 0 127 56t84 124l221 -65q-72 -152 -198.5 -238t-283 -86t-250 93t-56.5 255zM539 823l65 291h291l-66 -291 h-290z" />
<glyph unicode="&#xc0;" horiz-adv-x="1138" d="M27 0l694 1479h362l29 -1479h-270l-2 311h-391l-150 -311h-272zM555 561h281l-7 598h-4zM649 1862h318l123 -299h-207z" />
<glyph unicode="&#xc1;" horiz-adv-x="1138" d="M27 0l694 1479h362l29 -1479h-270l-2 311h-391l-150 -311h-272zM555 561h281l-7 598h-4zM741 1563l258 299h318l-369 -299h-207z" />
<glyph unicode="&#xc2;" horiz-adv-x="1138" d="M27 0l694 1479h362l29 -1479h-270l-2 311h-391l-150 -311h-272zM553 1563l301 299h258l166 -299h-231l-95 168l-168 -168h-231zM555 561h281l-7 598h-4z" />
<glyph unicode="&#xc3;" horiz-adv-x="1138" d="M27 0l694 1479h362l29 -1479h-270l-2 311h-391l-150 -311h-272zM543 1575q43 109 116.5 179.5t176.5 70.5q59 0 149 -38t117 -38q37 0 69 24.5t48 63.5h133q-49 -113 -116 -180.5t-167 -67.5q-57 0 -149.5 36t-135.5 36q-74 0 -112 -86h-129zM555 561h281l-7 598h-4z" />
<glyph unicode="&#xc4;" horiz-adv-x="1138" d="M27 0l694 1479h362l29 -1479h-270l-2 311h-391l-150 -311h-272zM555 561h281l-7 598h-4zM602 1579l51 233h246l-51 -233h-246zM991 1579l51 233h246l-51 -233h-246z" />
<glyph unicode="&#xc5;" horiz-adv-x="1138" d="M27 0l694 1479h362l29 -1479h-270l-2 311h-391l-150 -311h-272zM555 561h281l-7 598h-4zM743 1769q18 90 96.5 155t168.5 65t141 -65.5t33 -154.5q-20 -90 -100.5 -154.5t-170.5 -64.5t-139 64.5t-29 154.5zM854 1769q-10 -47 12.5 -77.5t69.5 -30.5q45 0 85 31.5 t50 76.5q8 45 -17.5 77t-70.5 32t-83 -31.5t-46 -77.5z" />
<glyph unicode="&#xc6;" horiz-adv-x="2048" d="M29 0l1085 1479h1090l-56 -250h-602l-76 -340h453l-55 -250h-453l-86 -389h627l-55 -250h-910l80 360h-483l-256 -360h-303zM770 610h356l144 643h-37z" />
<glyph unicode="&#xc7;" horiz-adv-x="1138" d="M197 -416l57 86q98 -35 147 -35q43 0 83 19.5t48 60.5q8 33 -12 54.5t-55 21.5q-31 0 -94 -16l-35 41l147 168q-375 41 -276 491l119 529q109 496 575.5 495.5t358.5 -495.5l-3 -5h-282l10 41q25 117 -11 163t-127 46t-148.5 -46t-82.5 -163l-135 -602q-25 -117 11 -163 t127.5 -46t148.5 46.5t82 162.5l22 99h283l-14 -62q-106 -481 -553 -495l-96 -105l4 -4q25 14 67 14q72 0 118 -44t30 -115q-20 -96 -109.5 -144.5t-193.5 -48.5q-94 0 -211 51z" />
<glyph unicode="&#xc8;" d="M127 0l328 1479h774l-55 -250h-492l-76 -340h375l-55 -250h-375l-86 -389h512l-55 -250h-795zM592 1862h317l123 -299h-207z" />
<glyph unicode="&#xc9;" d="M127 0l328 1479h774l-55 -250h-492l-76 -340h375l-55 -250h-375l-86 -389h512l-55 -250h-795zM684 1563l258 299h318l-369 -299h-207z" />
<glyph unicode="&#xca;" d="M127 0l328 1479h774l-55 -250h-492l-76 -340h375l-55 -250h-375l-86 -389h512l-55 -250h-795zM496 1563l301 299h258l166 -299h-232l-94 168l-168 -168h-231z" />
<glyph unicode="&#xcb;" d="M127 0l328 1479h774l-55 -250h-492l-76 -340h375l-55 -250h-375l-86 -389h512l-55 -250h-795zM545 1579l51 233h246l-51 -233h-246zM934 1579l51 233h246l-51 -233h-246z" />
<glyph unicode="&#xcc;" horiz-adv-x="569" d="M143 0l328 1479h283l-328 -1479h-283zM365 1862h317l123 -299h-207z" />
<glyph unicode="&#xcd;" horiz-adv-x="569" d="M143 0l328 1479h283l-328 -1479h-283zM457 1563l258 299h317l-368 -299h-207z" />
<glyph unicode="&#xce;" horiz-adv-x="569" d="M143 0l328 1479h283l-328 -1479h-283zM268 1563l301 299h258l166 -299h-231l-94 168l-168 -168h-232z" />
<glyph unicode="&#xcf;" horiz-adv-x="569" d="M143 0l328 1479h283l-328 -1479h-283zM317 1579l52 233h245l-51 -233h-246zM707 1579l51 233h246l-52 -233h-245z" />
<glyph unicode="&#xd0;" horiz-adv-x="1138" d="M127 0l141 639h-110l55 250h111l131 590h393q250 0 352.5 -120t50.5 -392l-102 -455q-68 -272 -223.5 -392t-405.5 -120h-393zM465 250h98q123 0 200 67.5t111 227.5l87 389q35 158 -7.5 226.5t-173.5 68.5h-98l-76 -340h180l-55 -250h-180z" />
<glyph unicode="&#xd1;" horiz-adv-x="1251" d="M143 0l328 1479h309l199 -877h4l195 877h258l-328 -1479h-270l-222 954h-4l-211 -954h-258zM600 1575q43 109 117 179.5t176 70.5q59 0 149.5 -38t116.5 -38q37 0 69 24.5t48 63.5h133q-49 -113 -115.5 -180.5t-167.5 -67.5q-57 0 -149 36t-135 36q-74 0 -113 -86h-129z " />
<glyph unicode="&#xd2;" horiz-adv-x="1138" d="M207 475l119 529q109 496 575.5 495.5t358.5 -495.5l-119 -529q-109 -496 -576 -496t-358 496zM481 438q-25 -117 11 -163t127.5 -46t148.5 46.5t82 162.5l135 602q25 117 -11 163t-127 46t-148.5 -46t-82.5 -163zM649 1862h318l123 -299h-207z" />
<glyph unicode="&#xd3;" horiz-adv-x="1138" d="M207 475l119 529q109 496 575.5 495.5t358.5 -495.5l-119 -529q-109 -496 -576 -496t-358 496zM481 438q-25 -117 11 -163t127.5 -46t148.5 46.5t82 162.5l135 602q25 117 -11 163t-127 46t-148.5 -46t-82.5 -163zM741 1563l258 299h318l-369 -299h-207z" />
<glyph unicode="&#xd4;" horiz-adv-x="1138" d="M207 475l119 529q109 496 575.5 495.5t358.5 -495.5l-119 -529q-109 -496 -576 -496t-358 496zM481 438q-25 -117 11 -163t127.5 -46t148.5 46.5t82 162.5l135 602q25 117 -11 163t-127 46t-148.5 -46t-82.5 -163zM553 1563l301 299h258l166 -299h-231l-95 168l-168 -168 h-231z" />
<glyph unicode="&#xd5;" horiz-adv-x="1138" d="M207 475l119 529q109 496 575.5 495.5t358.5 -495.5l-119 -529q-109 -496 -576 -496t-358 496zM481 438q-25 -117 11 -163t127.5 -46t148.5 46.5t82 162.5l135 602q25 117 -11 163t-127 46t-148.5 -46t-82.5 -163zM543 1575q43 109 116.5 179.5t176.5 70.5q59 0 149 -38 t117 -38q37 0 69 24.5t48 63.5h133q-49 -113 -116 -180.5t-167 -67.5q-57 0 -149.5 36t-135.5 36q-74 0 -112 -86h-129z" />
<glyph unicode="&#xd6;" horiz-adv-x="1138" d="M207 475l119 529q109 496 575.5 495.5t358.5 -495.5l-119 -529q-109 -496 -576 -496t-358 496zM481 438q-25 -117 11 -163t127.5 -46t148.5 46.5t82 162.5l135 602q25 117 -11 163t-127 46t-148.5 -46t-82.5 -163zM602 1579l51 233h246l-51 -233h-246zM991 1579l51 233 h246l-51 -233h-246z" />
<glyph unicode="&#xd7;" horiz-adv-x="1228" d="M96 176l465 381l2 2l-297 381l217 174l295 -379l465 379l137 -174l-467 -383l297 -381l-215 -176l-297 381l-462 -381z" />
<glyph unicode="&#xd8;" horiz-adv-x="1138" d="M-23 -160l236 320q-49 117 -6 315l119 529q109 496 575 495q162 0 258 -61l105 139h213l-213 -287q33 -113 -4 -286l-119 -529q-109 -496 -576 -495q-150 0 -235 51l-140 -191h-213zM496 274q29 -45 125 -45q90 0 147 46.5t82 162.5l100 449h-4zM504 537h4l475 647 q-27 66 -137 65q-90 0 -147.5 -46t-82.5 -163z" />
<glyph unicode="&#xd9;" horiz-adv-x="1251" d="M242 442l229 1037h283l-230 -1035q-47 -215 152 -215q201 0 248 215l229 1035h283l-230 -1037q-53 -236 -205.5 -349t-380 -113t-330 113.5t-48.5 348.5zM707 1862h317l123 -299h-207z" />
<glyph unicode="&#xda;" horiz-adv-x="1251" d="M242 442l229 1037h283l-230 -1035q-47 -215 152 -215q201 0 248 215l229 1035h283l-230 -1037q-53 -236 -205.5 -349t-380 -113t-330 113.5t-48.5 348.5zM799 1563l258 299h317l-368 -299h-207z" />
<glyph unicode="&#xdb;" horiz-adv-x="1251" d="M242 442l229 1037h283l-230 -1035q-47 -215 152 -215q201 0 248 215l229 1035h283l-230 -1037q-53 -236 -205.5 -349t-380 -113t-330 113.5t-48.5 348.5zM610 1563l301 299h258l166 -299h-231l-94 168l-168 -168h-232z" />
<glyph unicode="&#xdc;" horiz-adv-x="1251" d="M242 442l229 1037h283l-230 -1035q-47 -215 152 -215q201 0 248 215l229 1035h283l-230 -1037q-53 -236 -205.5 -349t-380 -113t-330 113.5t-48.5 348.5zM659 1579l52 233h245l-51 -233h-246zM1049 1579l51 233h246l-52 -233h-245z" />
<glyph unicode="&#xdd;" horiz-adv-x="1138" d="M352 1479h301l117 -596l371 596h301l-598 -881l-133 -598h-283l133 598zM741 1563l258 299h318l-369 -299h-207z" />
<glyph unicode="&#xde;" horiz-adv-x="1138" d="M143 0l328 1479h283l-60 -271h125q256 0 361.5 -114.5t58.5 -327.5t-202.5 -327.5t-413.5 -114.5h-125l-72 -324h-283zM549 557h151q209 0 256.5 209t-161.5 209h-152z" />
<glyph unicode="&#xdf;" d="M123 0l237 1071q43 197 154 302.5t324 105.5q176 0 247.5 -106.5t28.5 -305.5q-18 -80 -69.5 -153.5t-122.5 -108.5q96 -57 117.5 -158.5t-15.5 -253.5q-45 -199 -152.5 -306t-242.5 -107q-80 0 -144 30l52 234q33 -18 77 -19q59 0 97.5 48.5t60.5 154.5q16 78 16 135.5 t-36.5 89t-114.5 31.5l47 209q70 4 118 51t66 129q41 180 -94 180q-57 0 -94 -34.5t-47 -85.5l-252 -1133h-258z" />
<glyph unicode="&#xe0;" d="M121 246q16 76 59 138t100.5 108.5t143.5 87.5t169 69.5t198 61.5l18 82q14 68 -15.5 100.5t-89 32.5t-110 -39.5t-64.5 -98.5h-258q53 174 187.5 260.5t304.5 86.5q197 0 267.5 -90.5t35.5 -247.5l-156 -707q-10 -41 -6 -90h-258q0 16 2 52t4 57q-158 -129 -336 -129 q-121 0 -174 67.5t-22 198.5zM387 289q-12 -55 12.5 -86t77.5 -31q92 0 217 102l60 271q-334 -106 -367 -256zM522 1548h318l123 -299h-207z" />
<glyph unicode="&#xe1;" d="M121 246q16 76 59 138t100.5 108.5t143.5 87.5t169 69.5t198 61.5l18 82q14 68 -15.5 100.5t-89 32.5t-110 -39.5t-64.5 -98.5h-258q53 174 187.5 260.5t304.5 86.5q197 0 267.5 -90.5t35.5 -247.5l-156 -707q-10 -41 -6 -90h-258q0 16 2 52t4 57q-158 -129 -336 -129 q-121 0 -174 67.5t-22 198.5zM387 289q-12 -55 12.5 -86t77.5 -31q92 0 217 102l60 271q-334 -106 -367 -256zM614 1249l258 299h318l-369 -299h-207z" />
<glyph unicode="&#xe2;" d="M121 246q16 76 59 138t100.5 108.5t143.5 87.5t169 69.5t198 61.5l18 82q14 68 -15.5 100.5t-89 32.5t-110 -39.5t-64.5 -98.5h-258q53 174 187.5 260.5t304.5 86.5q197 0 267.5 -90.5t35.5 -247.5l-156 -707q-10 -41 -6 -90h-258q0 16 2 52t4 57q-158 -129 -336 -129 q-121 0 -174 67.5t-22 198.5zM387 289q-12 -55 12.5 -86t77.5 -31q92 0 217 102l60 271q-334 -106 -367 -256zM426 1249l301 299h258l166 -299h-231l-95 168l-168 -168h-231z" />
<glyph unicode="&#xe3;" d="M121 246q16 76 59 138t100.5 108.5t143.5 87.5t169 69.5t198 61.5l18 82q14 68 -15.5 100.5t-89 32.5t-110 -39.5t-64.5 -98.5h-258q53 174 187.5 260.5t304.5 86.5q197 0 267.5 -90.5t35.5 -247.5l-156 -707q-10 -41 -6 -90h-258q0 16 2 52t4 57q-158 -129 -336 -129 q-121 0 -174 67.5t-22 198.5zM387 289q-12 -55 12.5 -86t77.5 -31q92 0 217 102l60 271q-334 -106 -367 -256zM418 1262q41 109 114.5 179t176.5 70q59 0 149 -37.5t117 -37.5q37 0 69 24.5t48 63.5h133q-49 -113 -115 -180.5t-168 -67.5q-57 0 -149.5 36t-135.5 36 q-74 0 -110 -86h-129z" />
<glyph unicode="&#xe4;" d="M121 246q16 76 59 138t100.5 108.5t143.5 87.5t169 69.5t198 61.5l18 82q14 68 -15.5 100.5t-89 32.5t-110 -39.5t-64.5 -98.5h-258q53 174 187.5 260.5t304.5 86.5q197 0 267.5 -90.5t35.5 -247.5l-156 -707q-10 -41 -6 -90h-258q0 16 2 52t4 57q-158 -129 -336 -129 q-121 0 -174 67.5t-22 198.5zM387 289q-12 -55 12.5 -86t77.5 -31q92 0 217 102l60 271q-334 -106 -367 -256zM475 1266l51 233h246l-51 -233h-246zM864 1266l51 233h246l-51 -233h-246z" />
<glyph unicode="&#xe5;" d="M121 246q16 76 59 138t100.5 108.5t143.5 87.5t169 69.5t198 61.5l18 82q14 68 -15.5 100.5t-89 32.5t-110 -39.5t-64.5 -98.5h-258q53 174 187.5 260.5t304.5 86.5q197 0 267.5 -90.5t35.5 -247.5l-156 -707q-10 -41 -6 -90h-258q0 16 2 52t4 57q-158 -129 -336 -129 q-121 0 -174 67.5t-22 198.5zM387 289q-12 -55 12.5 -86t77.5 -31q92 0 217 102l60 271q-334 -106 -367 -256zM616 1456q18 90 96.5 154.5t168.5 64.5t141 -65.5t33 -153.5q-20 -90 -100.5 -154.5t-170.5 -64.5t-139 64.5t-29 154.5zM727 1456q-10 -47 12.5 -77.5 t69.5 -30.5q45 0 85 31.5t50 76.5q8 45 -17.5 77t-70.5 32t-82 -32t-47 -77z" />
<glyph unicode="&#xe6;" horiz-adv-x="1593" d="M150 246q16 76 59 138t99.5 108.5t141.5 87.5t164.5 69.5t190.5 61.5l18 82q29 133 -90 133q-59 0 -109.5 -39t-64.5 -99h-258q35 117 113 198t166 115t180 34q94 0 163.5 -34t102.5 -93q141 127 303 127q166 0 254 -105.5t51 -273.5l-57 -260h-561l-33 -148 q-18 -80 14.5 -120t100.5 -40q78 0 125 43t61 113h258q-47 -174 -172 -269t-317 -95q-123 0 -199 45t-109 98q-137 -90 -223 -116.5t-176 -26.5q-121 0 -174 67.5t-22 198.5zM416 289q-12 -55 12.5 -86t77.5 -31q101 0 203 102l59 271q-319 -113 -352 -256zM1061 705h303 l14 61q35 160 -116.5 160t-186.5 -160z" />
<glyph unicode="&#xe7;" d="M139 -416l58 86q98 -35 147 -35q43 0 83 19.5t48 60.5q8 33 -12.5 54.5t-54.5 21.5q-31 0 -95 -16l-34 41l147 170q-317 39 -236 415l70 312q94 422 504 422q401 0 317 -406h-256l11 49q14 63 -20 97t-102.5 34t-117.5 -33.5t-64 -97.5l-98 -442q-12 -63 20.5 -97 t102.5 -34t119 33.5t61 97.5l17 70h258l-2 -5q-90 -410 -480 -421l-96 -105l4 -4q25 14 68 14q72 0 118 -44t29 -115q-20 -96 -109 -144.5t-194 -48.5q-94 0 -211 51z" />
<glyph unicode="&#xe8;" d="M186 375l80 364q41 182 176.5 289t321.5 107q180 0 271 -104.5t55 -274.5l-58 -260h-561l-33 -148q-18 -80 14.5 -120t100.5 -40q78 0 125 43t61 113h258q-47 -174 -172 -269t-317 -95q-186 0 -274.5 106.5t-47.5 288.5zM516 705h303l15 61q35 160 -117 160t-187 -160z M522 1548h318l123 -299h-207z" />
<glyph unicode="&#xe9;" d="M186 375l80 364q41 182 176.5 289t321.5 107q180 0 271 -104.5t55 -274.5l-58 -260h-561l-33 -148q-18 -80 14.5 -120t100.5 -40q78 0 125 43t61 113h258q-47 -174 -172 -269t-317 -95q-186 0 -274.5 106.5t-47.5 288.5zM516 705h303l15 61q35 160 -117 160t-187 -160z M614 1249l258 299h318l-369 -299h-207z" />
<glyph unicode="&#xea;" d="M186 375l80 364q41 182 176.5 289t321.5 107q180 0 271 -104.5t55 -274.5l-58 -260h-561l-33 -148q-18 -80 14.5 -120t100.5 -40q78 0 125 43t61 113h258q-47 -174 -172 -269t-317 -95q-186 0 -274.5 106.5t-47.5 288.5zM426 1249l301 299h258l166 -299h-231l-95 168 l-168 -168h-231zM516 705h303l15 61q35 160 -117 160t-187 -160z" />
<glyph unicode="&#xeb;" d="M186 375l80 364q41 182 176.5 289t321.5 107q180 0 271 -104.5t55 -274.5l-58 -260h-561l-33 -148q-18 -80 14.5 -120t100.5 -40q78 0 125 43t61 113h258q-47 -174 -172 -269t-317 -95q-186 0 -274.5 106.5t-47.5 288.5zM475 1266l51 233h246l-51 -233h-246zM516 705h303 l15 61q35 160 -117 160t-187 -160zM864 1266l51 233h246l-51 -233h-246z" />
<glyph unicode="&#xec;" horiz-adv-x="569" d="M156 0l247 1114h259l-248 -1114h-258zM295 1548h317l123 -299h-207z" />
<glyph unicode="&#xed;" horiz-adv-x="569" d="M156 0l247 1114h259l-248 -1114h-258zM387 1249l258 299h318l-369 -299h-207z" />
<glyph unicode="&#xee;" horiz-adv-x="569" d="M156 0l247 1114h259l-248 -1114h-258zM199 1249l301 299h258l166 -299h-232l-94 168l-168 -168h-231z" />
<glyph unicode="&#xef;" horiz-adv-x="569" d="M156 0l247 1114h259l-248 -1114h-258zM248 1266l51 233h246l-51 -233h-246zM637 1266l51 233h246l-51 -233h-246z" />
<glyph unicode="&#xf0;" d="M186 375l64 293q88 397 498 397q51 0 86 -8q0 59 -21 131l-244 -78l-26 152l209 67q-4 8 -70 121l248 29q14 -20 49 -76l238 76l28 -152l-201 -65q96 -268 25 -594l-63 -293q-88 -395 -498 -395t-322 395zM432 328q-12 -59 21.5 -91t103.5 -32t118 31.5t60 91.5l88 389 q12 59 -21.5 91t-103 32t-118 -32t-60.5 -91z" />
<glyph unicode="&#xf1;" d="M123 0l248 1114h250l-29 -127q100 72 174 110t147 38q121 0 165 -68t12 -219l-189 -848h-258l182 819q27 123 -67 123q-55 0 -191 -100l-186 -842h-258zM418 1262q41 109 114.5 179t176.5 70q59 0 149 -37.5t117 -37.5q37 0 69 24.5t48 63.5h133q-49 -113 -115 -180.5 t-168 -67.5q-57 0 -149.5 36t-135.5 36q-74 0 -110 -86h-129z" />
<glyph unicode="&#xf2;" d="M190 401l70 312q94 422 504 422t315 -422l-69 -312q-92 -422 -502 -422t-318 422zM434 336q-12 -63 20.5 -97t102.5 -34t119 33.5t61 97.5l99 442q14 63 -20 97t-102.5 34t-118 -34t-63.5 -97zM522 1548h318l123 -299h-207z" />
<glyph unicode="&#xf3;" d="M190 401l70 312q94 422 504 422t315 -422l-69 -312q-92 -422 -502 -422t-318 422zM434 336q-12 -63 20.5 -97t102.5 -34t119 33.5t61 97.5l99 442q14 63 -20 97t-102.5 34t-118 -34t-63.5 -97zM614 1249l258 299h318l-369 -299h-207z" />
<glyph unicode="&#xf4;" d="M190 401l70 312q94 422 504 422t315 -422l-69 -312q-92 -422 -502 -422t-318 422zM426 1249l301 299h258l166 -299h-231l-95 168l-168 -168h-231zM434 336q-12 -63 20.5 -97t102.5 -34t119 33.5t61 97.5l99 442q14 63 -20 97t-102.5 34t-118 -34t-63.5 -97z" />
<glyph unicode="&#xf5;" d="M190 401l70 312q94 422 504 422t315 -422l-69 -312q-92 -422 -502 -422t-318 422zM418 1262q41 109 114.5 179t176.5 70q59 0 149 -37.5t117 -37.5q37 0 69 24.5t48 63.5h133q-49 -113 -115 -180.5t-168 -67.5q-57 0 -149.5 36t-135.5 36q-74 0 -110 -86h-129zM434 336 q-12 -63 20.5 -97t102.5 -34t119 33.5t61 97.5l99 442q14 63 -20 97t-102.5 34t-118 -34t-63.5 -97z" />
<glyph unicode="&#xf6;" d="M190 401l70 312q94 422 504 422t315 -422l-69 -312q-92 -422 -502 -422t-318 422zM434 336q-12 -63 20.5 -97t102.5 -34t119 33.5t61 97.5l99 442q14 63 -20 97t-102.5 34t-118 -34t-63.5 -97zM475 1266l51 233h246l-51 -233h-246zM864 1266l51 233h246l-51 -233h-246z " />
<glyph unicode="&#xf7;" horiz-adv-x="1228" d="M154 432l55 250h1114l-55 -250h-1114zM440 100q18 80 89 137.5t151 57.5q78 0 122 -57.5t27 -137.5q-16 -74 -87.5 -134t-145.5 -60q-82 0 -128 58t-28 136zM642 1014q17 80 89 137t152 57q76 0 121 -58t28 -136q-16 -74 -88 -134.5t-145 -60.5q-82 0 -128 57.5 t-29 137.5z" />
<glyph unicode="&#xf8;" d="M-43 -229l256 335q-63 100 -23 295l70 312q94 422 504 422q121 0 201 -39l147 194h182l-227 -299q53 -98 12 -278l-69 -312q-92 -422 -502 -421q-114 -1 -186 32l-183 -241h-182zM455 428h4l344 457q-33 25 -90 24q-68 0 -117 -33.5t-64 -97.5zM481 221q29 -16 76 -16 q70 0 119 33.5t61 97.5l70 313h-4z" />
<glyph unicode="&#xf9;" d="M182 266l189 848h258l-183 -819q-27 -123 68 -123q53 0 188 100l189 842h258l-248 -1114h-250l29 127q-100 -72 -175 -109.5t-147 -37.5q-121 0 -166 67.5t-10 218.5zM504 1548h317l123 -299h-207z" />
<glyph unicode="&#xfa;" d="M182 266l189 848h258l-183 -819q-27 -123 68 -123q53 0 188 100l189 842h258l-248 -1114h-250l29 127q-100 -72 -175 -109.5t-147 -37.5q-121 0 -166 67.5t-10 218.5zM596 1249l258 299h317l-368 -299h-207z" />
<glyph unicode="&#xfb;" d="M182 266l189 848h258l-183 -819q-27 -123 68 -123q53 0 188 100l189 842h258l-248 -1114h-250l29 127q-100 -72 -175 -109.5t-147 -37.5q-121 0 -166 67.5t-10 218.5zM408 1249l301 299h258l166 -299h-232l-94 168l-168 -168h-231z" />
<glyph unicode="&#xfc;" d="M182 266l189 848h258l-183 -819q-27 -123 68 -123q53 0 188 100l189 842h258l-248 -1114h-250l29 127q-100 -72 -175 -109.5t-147 -37.5q-121 0 -166 67.5t-10 218.5zM457 1266l51 233h246l-52 -233h-245zM846 1266l51 233h246l-51 -233h-246z" />
<glyph unicode="&#xfd;" horiz-adv-x="909" d="M-20 -389l49 225q25 -4 75 -4q76 0 142.5 52.5t77.5 95.5q14 70 4 235l-58 899h262l11 -737h4l325 737h263l-545 -1110q-109 -227 -222.5 -312t-308.5 -85q-24 0 -79 4zM557 1249l258 299h318l-369 -299h-207z" />
<glyph unicode="&#xfe;" d="M35 -393l416 1872h254l-107 -480h4q35 43 123 89.5t166 46.5q147 0 191 -114t-7 -329l-59 -270q-49 -221 -141.5 -331.5t-239.5 -110.5q-51 0 -102.5 27.5t-129.5 94.5l-110 -495h-258zM436 252q57 -80 139 -80q59 0 105.5 56.5t79.5 209.5l53 238q27 109 19.5 168 t-28 78.5t-59.5 19.5q-82 0 -174 -80z" />
<glyph unicode="&#xff;" horiz-adv-x="909" d="M-20 -389l49 225q25 -4 75 -4q76 0 142.5 52.5t77.5 95.5q14 70 4 235l-58 899h262l11 -737h4l325 737h263l-545 -1110q-109 -227 -222.5 -312t-308.5 -85q-24 0 -79 4zM418 1266l51 233h246l-51 -233h-246zM807 1266l51 233h246l-51 -233h-246z" />
<glyph unicode="&#x152;" horiz-adv-x="1933" d="M244 559l86 391q59 270 247.5 409.5t454.5 139.5q102 0 229.5 -10t208.5 -10h670l-55 -250h-608l-76 -340h457l-56 -250h-456l-86 -389h626l-55 -250h-846q-70 0 -174 -10t-190 -10q-231 0 -335 154.5t-42 424.5zM530 586q-43 -201 4.5 -279t208.5 -78q131 0 194.5 64.5 t94.5 202.5l107 487q31 137 -4 201.5t-166 64.5q-162 0 -244 -77.5t-125 -278.5z" />
<glyph unicode="&#x153;" horiz-adv-x="1593" d="M190 401l70 312q94 422 492 422q197 0 262 -148q135 147 332 148q172 0 261 -105.5t52 -273.5l-57 -260h-570l-33 -148q-18 -78 19 -119t104 -41q78 0 125 43t62 113h258q-47 -174 -172 -269t-318 -95q-92 0 -157.5 39.5t-96.5 107.5q-131 -147 -327 -147 q-190 0 -271.5 103t-34.5 318zM434 336q-12 -63 20.5 -97t102.5 -34t119 33.5t61 97.5l99 442q14 63 -20 97t-102.5 34t-118 -34t-63.5 -97zM1077 705h312l14 61q35 160 -117 160q-78 0 -128 -42t-66 -118z" />
<glyph unicode="&#x178;" horiz-adv-x="1138" d="M352 1479h301l117 -596l371 596h301l-598 -881l-133 -598h-283l133 598zM602 1579l51 233h246l-51 -233h-246zM991 1579l51 233h246l-51 -233h-246z" />
<glyph unicode="&#x2c6;" horiz-adv-x="569" d="M199 1249l301 299h258l166 -299h-232l-94 168l-168 -168h-231z" />
<glyph unicode="&#x2dc;" horiz-adv-x="569" d="M190 1262q41 109 115 179t176 70q59 0 149.5 -37.5t117.5 -37.5q37 0 68.5 24.5t47.5 63.5h133q-49 -113 -114.5 -180.5t-167.5 -67.5q-57 0 -149.5 36t-135.5 36q-74 0 -111 -86h-129z" />
<glyph unicode="&#x2000;" horiz-adv-x="994" />
<glyph unicode="&#x2001;" horiz-adv-x="1989" />
<glyph unicode="&#x2002;" horiz-adv-x="994" />
<glyph unicode="&#x2003;" horiz-adv-x="1989" />
<glyph unicode="&#x2004;" horiz-adv-x="663" />
<glyph unicode="&#x2005;" horiz-adv-x="497" />
<glyph unicode="&#x2006;" horiz-adv-x="331" />
<glyph unicode="&#x2007;" horiz-adv-x="331" />
<glyph unicode="&#x2008;" horiz-adv-x="248" />
<glyph unicode="&#x2009;" horiz-adv-x="397" />
<glyph unicode="&#x200a;" horiz-adv-x="110" />
<glyph unicode="&#x2010;" horiz-adv-x="681" d="M186 444l50 226h503l-49 -226h-504z" />
<glyph unicode="&#x2011;" horiz-adv-x="681" d="M186 444l50 226h503l-49 -226h-504z" />
<glyph unicode="&#x2012;" horiz-adv-x="681" d="M186 444l50 226h503l-49 -226h-504z" />
<glyph unicode="&#x2013;" d="M104 471l39 172h1024l-39 -172h-1024z" />
<glyph unicode="&#x2014;" horiz-adv-x="2048" d="M104 471l39 172h2048l-39 -172h-2048z" />
<glyph unicode="&#x2018;" horiz-adv-x="454" d="M283 905l63 291l197 303h143l-172 -303h123l-64 -291h-290z" />
<glyph unicode="&#x2019;" horiz-adv-x="454" d="M297 885l172 303h-123l64 291h290l-63 -291l-197 -303h-143z" />
<glyph unicode="&#x201a;" horiz-adv-x="454" d="M33 -303l172 303h-123l63 291h291l-63 -291l-197 -303h-143z" />
<glyph unicode="&#x201c;" horiz-adv-x="909" d="M283 905l63 291l197 303h143l-172 -303h123l-64 -291h-290zM737 905l64 291l196 303h144l-172 -303h123l-64 -291h-291z" />
<glyph unicode="&#x201d;" horiz-adv-x="909" d="M297 885l172 303h-123l64 291h290l-63 -291l-197 -303h-143zM752 885l172 303h-123l63 291h291l-63 -291l-197 -303h-143z" />
<glyph unicode="&#x201e;" horiz-adv-x="909" d="M33 -303l172 303h-123l63 291h291l-63 -291l-197 -303h-143zM487 -303l172 303h-122l63 291h291l-64 -291l-196 -303h-144z" />
<glyph unicode="&#x2022;" d="M305 739.5q35 153.5 166 261t284.5 107.5t238.5 -107.5t50.5 -261t-167 -262t-286 -108.5t-237.5 108.5t-49 262z" />
<glyph unicode="&#x2026;" horiz-adv-x="2048" d="M197 0l63 291h291l-64 -291h-290zM879 0l63 291h291l-64 -291h-290zM1561 0l63 291h291l-64 -291h-290z" />
<glyph unicode="&#x202f;" horiz-adv-x="397" />
<glyph unicode="&#x2039;" horiz-adv-x="681" d="M201 557l323 328h226l-324 -328l178 -328h-225z" />
<glyph unicode="&#x203a;" horiz-adv-x="681" d="M180 229l322 328l-176 328h225l176 -328l-321 -328h-226z" />
<glyph unicode="&#x205f;" horiz-adv-x="497" />
<glyph unicode="&#x20ac;" horiz-adv-x="1138" d="M166 473l98 180h105l32 148h-161l96 180h104l23 98q41 186 210 303t378 117q223 0 352 -123l-125 -231q-51 59 -128 90t-163 31q-106 0 -184 -68t-98 -162l-13 -55h496l-96 -180h-439l-32 -148h389l-99 -180h-331l-2 -10q-27 -119 20 -184.5t162 -65.5q100 0 178 17.5 t162 66.5l-53 -242q-154 -72 -359 -71q-213 0 -314.5 118.5t-58.5 311.5l13 59h-162z" />
<glyph unicode="&#x2122;" horiz-adv-x="2048" d="M354 1307l39 172h699l-39 -172h-236l-147 -672h-230l148 672h-234zM1040 635l187 844h313l80 -512l303 512h313l-186 -844h-217l127 573h-4l-328 -573h-166l-73 573h-5l-127 -573h-217z" />
<glyph unicode="&#xe000;" horiz-adv-x="1116" d="M0 0v1116h1116v-1116h-1116z" />
<glyph unicode="&#xfb01;" d="M133 0l191 856h-117l45 209h117l24 106q41 184 130 256t239 72q37 0 121 -12l-47 -213h-74q-88 0 -109 -94l-26 -115h153l-45 -209h-153l-191 -856h-258zM659 0l236 1065h258l-235 -1065h-259zM938 1257l51 234h258l-51 -234h-258z" />
<glyph unicode="&#xfb02;" d="M133 0l191 856h-117l45 209h117l24 106q41 184 130 256t239 72q37 0 121 -12l-47 -213h-74q-88 0 -109 -94l-26 -115h153l-45 -209h-153l-191 -856h-258zM659 0l328 1479h258l-327 -1479h-259z" />
</font>
</defs>
</svg>
