<svg id="Calque_1" data-name="Calque 1" xmlns="http://www.w3.org/2000/svg" xmlns:xlink="http://www.w3.org/1999/xlink" viewBox="0 0 195 145"><defs><linearGradient id="Dégradé_sans_nom" x1="48.18" y1="122.6" x2="48.02" y2="123.19" gradientTransform="matrix(131.3 0 0 -91.65 -6254.4 11304.25)" gradientUnits="userSpaceOnUse"><stop offset="0" stop-color="#fff" stop-opacity="0"/><stop offset=".95" stop-color="#fff"/></linearGradient><linearGradient id="Dégradé_sans_nom_2" x1="41.12" y1="122.73" x2="41.11" y2="123.8" gradientTransform="matrix(6.5 0 0 -38.35 -221.1 4840)" gradientUnits="userSpaceOnUse"><stop offset="0" stop-color="#010101" stop-opacity="0"/><stop offset=".95" stop-color="#010101"/></linearGradient><linearGradient id="Dégradé_sans_nom_3" x1="44.48" y1="123.57" x2="45.48" y2="123.57" gradientTransform="matrix(13.65 0 0 -21.45 -585.1 2743.1)" xlink:href="#Dégradé_sans_nom_2"/><linearGradient id="Dégradé_sans_nom_4" x1="47.04" y1="123.75" x2="46.97" y2="122.8" gradientTransform="matrix(32.5 0 0 -23.4 -1480.8 2981.65)" xlink:href="#Dégradé_sans_nom_2"/><linearGradient id="Dégradé_sans_nom_27" x1="22.75" y1="101.25" x2="22.75" y2="103.2" gradientUnits="userSpaceOnUse"><stop offset="0" stop-color="#010101" stop-opacity="0"/><stop offset="1" stop-color="#010101"/></linearGradient><linearGradient id="Dégradé_sans_nom_85" x1="159.36" y1="37.16" x2="155.69" y2="16.36" gradientUnits="userSpaceOnUse"><stop offset="0" stop-color="#b8bcc9"/><stop offset=".22" stop-color="#bdc1cd"/><stop offset=".48" stop-color="#cccfd8"/><stop offset=".76" stop-color="#e4e5ea"/><stop offset="1" stop-color="#fff"/></linearGradient><linearGradient id="Dégradé_sans_nom_57" x1="123.32" y1="28.6" x2="190.31" y2="16.79" gradientUnits="userSpaceOnUse"><stop offset="0" stop-color="#abafbf" stop-opacity="0"/><stop offset="1" stop-color="#abafbf"/></linearGradient><linearGradient id="Dégradé_sans_nom_94" x1="47.95" y1="123.59" x2="47.74" y2="123.3" gradientTransform="matrix(84.5 0 0 -21.45 -3898.15 2661.85)" gradientUnits="userSpaceOnUse"><stop offset="0" stop-color="#b8bcc9"/><stop offset=".2" stop-color="#c6c9d4"/><stop offset=".72" stop-color="#e7e8ed"/><stop offset="1" stop-color="#f4f4f7"/></linearGradient><linearGradient id="Dégradé_sans_nom_94-2" x1="82.83" y1="46.56" x2="71.79" y2="30.73" xlink:href="#Dégradé_sans_nom_94"/><linearGradient id="Dégradé_sans_nom_9" x1="46.11" y1="125.6" x2="45.79" y2="124.2" gradientTransform="matrix(18.2 0 0 -11.7 -757.35 1495.1)" xlink:href="#Dégradé_sans_nom"/><linearGradient id="Dégradé_sans_nom_10" x1="18.81" y1="141.95" x2="20.21" y2="141.08" gradientTransform="matrix(17.55 0 0 -9.1 -725.5 1175.3)" xlink:href="#Dégradé_sans_nom"/><linearGradient id="Dégradé_sans_nom_94-3" x1="50.14" y1="35.06" x2="38.27" y2="18.03" xlink:href="#Dégradé_sans_nom_94"/><linearGradient id="Dégradé_sans_nom_11" x1="46.99" y1="124.9" x2="46" y2="123.56" gradientTransform="matrix(20.8 0 0 -17.55 -916.6 2199.7)" xlink:href="#Dégradé_sans_nom"/><linearGradient id="Dégradé_sans_nom_12" x1="32.75" y1="155.91" x2="33.41" y2="154.28" gradientTransform="matrix(16.25 0 0 -11.7 -693.65 1480.15)" xlink:href="#Dégradé_sans_nom"/><linearGradient id="Dégradé_sans_nom_73" x1="24.18" y1="61.58" x2="26.7" y2="49.72" gradientUnits="userSpaceOnUse"><stop offset="0" stop-color="#f4f4f7"/><stop offset=".46" stop-color="#dbdce3"/><stop offset="1" stop-color="#b8bcc9"/></linearGradient><linearGradient id="Dégradé_sans_nom_13" x1="44.66" y1="125.81" x2="45.07" y2="124.45" gradientTransform="matrix(13.65 0 0 -10.4 -588.35 1352.75)" xlink:href="#Dégradé_sans_nom"/><linearGradient id="Dégradé_sans_nom_14" x1="5.37" y1="139.66" x2="7.38" y2="138.95" gradientTransform="matrix(11.05 0 0 -7.15 -463.55 953)" xlink:href="#Dégradé_sans_nom"/><linearGradient id="Dégradé_sans_nom_73-2" x1="6.56" y1="54.12" x2="9.02" y2="42.54" xlink:href="#Dégradé_sans_nom_73"/><linearGradient id="Dégradé_sans_nom_15" x1="44.48" y1="125.92" x2="44.89" y2="124.43" gradientTransform="matrix(13 0 0 -10.4 -574.7 1344.95)" xlink:href="#Dégradé_sans_nom"/><linearGradient id="Dégradé_sans_nom_16" x1="5.36" y1="139.65" x2="7.37" y2="138.93" gradientTransform="matrix(11.05 0 0 -7.15 -481.1 945.85)" xlink:href="#Dégradé_sans_nom"/><linearGradient id="Dégradé_sans_nom_17" x1="44.52" y1="126.47" x2="43.73" y2="125.21" gradientTransform="matrix(10.4 0 0 -7.8 -446.65 1054.4)" xlink:href="#Dégradé_sans_nom"/><linearGradient id="Dégradé_sans_nom_18" x1="25.15" y1="155.78" x2="26.06" y2="154.26" gradientTransform="matrix(8.45 0 0 -5.85 -351.1 813.9)" xlink:href="#Dégradé_sans_nom"/><linearGradient id="Dégradé_sans_nom_94-4" x1="87.67" y1="15.21" x2="80.15" y2="4.42" xlink:href="#Dégradé_sans_nom_94"/><linearGradient id="Dégradé_sans_nom_19" x1="45.48" y1="125.26" x2="45.96" y2="123.75" gradientTransform="matrix(18.2 0 0 -14.95 -750.85 1864.3)" xlink:href="#Dégradé_sans_nom"/><linearGradient id="Dégradé_sans_nom_20" x1="5.02" y1="139.34" x2="7.11" y2="138.59" gradientTransform="matrix(14.95 0 0 -10.4 -594.85 1304.65)" xlink:href="#Dégradé_sans_nom"/><linearGradient id="Dégradé_sans_nom_21" x1="46.54" y1="125.24" x2="46.1" y2="123.94" gradientTransform="matrix(20.8 0 0 -13.65 -820.4 1702.45)" xlink:href="#Dégradé_sans_nom"/><linearGradient id="Dégradé_sans_nom_22" x1="21.12" y1="143.71" x2="22.41" y2="142.73" gradientTransform="matrix(18.85 0 0 -10.4 -725.5 1303.35)" xlink:href="#Dégradé_sans_nom"/><style>.cls-1,.cls-3{fill:#abafbf}.cls-1{opacity:.24;isolation:isolate}</style></defs><g id="Demande-Toulouse"><g id="_0031-_-Annulation-Modif-Demande-Rdvz-_Email_" data-name="0031-/-Annulation-Modif-Demande-Rdvz-(Email)"><g id="Group-3"><g id="Group"><g id="Group-Copy"><path id="Path" class="cls-1" d="M58.69 16.1C53 17.09 47.23 18.26 42 20.67a70.59 70.59 0 00-11.1 6.73C20.14 34.9 9.18 43.5 4.69 55.77a34.36 34.36 0 0031.94 46.13 30.52 30.52 0 01-2.88-44.76A42 42 0 0146 48.62c14.35-7 30.76-8.63 46.72-8s22-3.14 38-1.83C127.1 30 132.45 28 127.39 19.88 120 8 112 10 99.27 11.11c-13.58 1.23-27.15 2.66-40.58 4.99z"/><path id="Path-2" data-name="Path" d="M56.13 14.13c-5.72 1-11.47 2.16-16.75 4.57a71.2 71.2 0 00-11.11 6.74c-10.72 7.5-21.69 16.1-26.18 28.37a34.37 34.37 0 0032 46.14 30.5 30.5 0 01-2.92-44.75 42.1 42.1 0 0112.22-8.52c14.36-7 30.79-8.62 46.75-8s25.24 2.32 41.16 3.66c-3.56-8.84-1.37-16.34-6.41-24.41-7.44-11.88-15.45-9.88-28.14-8.77-13.61 1.21-27.18 2.64-40.62 4.97z" fill="url(#Dégradé_sans_nom)"/><path id="Rectangle" class="cls-3" d="M42.9 99.95h6.5v38.35h-6.5z"/><path id="Rectangle-2" data-name="Rectangle" fill="url(#Dégradé_sans_nom_2)" d="M42.9 99.95h6.5v38.35h-6.5z"/><path id="Path-3" data-name="Path" class="cls-3" d="M63.7 88.46v15.39H20.8V88.46a8 8 0 018-8h26.92a8 8 0 017.98 8z"/><path id="Path-4" data-name="Path" d="M28.93 81.75a6.84 6.84 0 014.82 2 6.76 6.76 0 012 4.79v14.66H22.1V88.53a6.81 6.81 0 016.83-6.78z" fill="url(#Dégradé_sans_nom_3)"/><path id="Path-5" data-name="Path" d="M63.7 88.47v15.38H37.39V87.56a9.15 9.15 0 00-6.19-7.11h24.55a8 8 0 017.95 8.02z" fill="url(#Dégradé_sans_nom_4)"/><path id="Rectangle-3" data-name="Rectangle" class="cls-3" d="M8.78 101.25h27.95a1 1 0 011 1 1 1 0 01-1 1H8.78a1 1 0 01-1-1 1 1 0 011-1z"/><path id="Rectangle-4" data-name="Rectangle" d="M8.78 101.25h27.95a1 1 0 011 1 1 1 0 01-1 1H8.78a1 1 0 01-1-1 1 1 0 011-1z" fill="url(#Dégradé_sans_nom_27)"/><path id="Path-6" data-name="Path" class="cls-1" d="M29.46 135.35c-3.63.63-7.23 1.45-10.9 1.78-2.38.22-5 .34-6.74 1.94a2.2 2.2 0 00-.76 1.34c-.1 1.11 1.09 1.88 2.17 2.29a33.19 33.19 0 009.87 1.75c5.46.34 10.94.35 16.42.35h16.3c4.82 0 10.16-.19 13.61-3.45a4.09 4.09 0 001.4-2.36 3.64 3.64 0 00-2.38-3.5c-2.43-1.08-6.07-.85-8.7-1.14q-5.19-.51-10.4-.59a108.58 108.58 0 00-19.89 1.59z"/><path id="Shape" class="cls-3" d="M52.13 90.86c-.06.2-.23.79-.28 1L51.29 94a.7.7 0 000 .29.22.22 0 00.25.25 1 1 0 00.59-.26 2.39 2.39 0 00.77-1.84 2.45 2.45 0 00-1.09-2.11 3.27 3.27 0 00-1.7-.41 3.22 3.22 0 00-3.41 3.3 2.92 2.92 0 003.18 3.08 4.77 4.77 0 001.45-.22 4.21 4.21 0 001.07-.51l.58.86a4.79 4.79 0 01-1.19.56 6.54 6.54 0 01-2 .31 4.18 4.18 0 01-3.14-1.16 4.08 4.08 0 01-1.1-2.89 4.26 4.26 0 011.16-3 4.61 4.61 0 013.5-1.34 3.52 3.52 0 013.79 3.5 3.31 3.31 0 01-.9 2.36 2.49 2.49 0 01-1.79.8.94.94 0 01-.81-.39.75.75 0 01-.09-.29 1.55 1.55 0 01-1.27.61c-.94 0-1.54-.73-1.54-1.84 0-1.65 1.05-3 2.32-3a1 1 0 011.05.55l.1-.35zm-2 2.91a3.9 3.9 0 00.37-1.51c0-.4-.21-.67-.55-.67a1.1 1.1 0 00-.93.7 3.52 3.52 0 00-.38 1.46c0 .52.19.79.55.79s.73-.28.99-.77z"/><path id="Path-7" data-name="Path" class="cls-3" d="M191.1 21.3l-59.76 20.8-9.14-19.84 68.9-.96z"/><path id="Path-8" data-name="Path" fill="url(#Dégradé_sans_nom_85)" d="M191.1 21.3l-59.76 20.8-9.14-19.84 68.9-.96z"/><path id="Path-9" data-name="Path" fill="url(#Dégradé_sans_nom_57)" d="M125.25 29.1l52.05-3.47 13.8-4.33-68.9.96 3.05 6.84z"/><path id="Path-10" data-name="Path" class="cls-3" d="M109.85.5l84.5 21.45-73.51-8.78L109.85.5z"/><path id="Path-11" data-name="Path" class="cls-3" d="M71.5 25.85l49.31-12.35 73.54 8.45-122.85 3.9z"/><path id="Path-12" data-name="Path" fill="url(#Dégradé_sans_nom_94)" d="M109.85.5l84.5 21.45-73.51-8.78L109.85.5z"/><path id="Rectangle-5" data-name="Rectangle" fill="url(#Dégradé_sans_nom_94-2)" d="M68.63 32.93l17.69.54-.33 10.89-17.7-.54.34-10.89z"/><path id="Path-13" data-name="Path" fill="url(#Dégradé_sans_nom_9)" d="M85.78 44.7l-17.53-.55.33-11.15 17.87.42-.67 11.28z"/><path id="Path-14" data-name="Path" fill="url(#Dégradé_sans_nom_10)" d="M68.9 33l8.5 9.1 9.05-8.41L68.9 33z"/><path id="Rectangle-6" data-name="Rectangle" fill="url(#Dégradé_sans_nom_94-3)" d="M38.57 17.82l15.97 7.62-4.7 9.83-15.98-7.63 4.71-9.82z"/><path id="Path-15" data-name="Path" fill="url(#Dégradé_sans_nom_11)" d="M49.58 35.6L33.8 27.93l4.65-9.88 16.15 7.69-5.02 9.86z"/><path id="Path-16" data-name="Path" fill="url(#Dégradé_sans_nom_12)" d="M38.35 18.05l4.2 11.7 12.05-4.06-16.25-7.64z"/><path id="Rectangle-7" data-name="Rectangle" fill="url(#Dégradé_sans_nom_73)" d="M18.77 54.17l10.99-3.79 2.34 6.76-10.98 3.79-2.35-6.76z"/><path id="Path-17" data-name="Path" fill="url(#Dégradé_sans_nom_13)" d="M32.5 57.27l-11.25 3.68-2.4-6.56 11.44-3.84 2.21 6.72z"/><path id="Path-18" data-name="Path" fill="url(#Dégradé_sans_nom_14)" d="M18.85 54.14l7.44 3.56 3.61-7.15-11.05 3.59z"/><path id="Rectangle-8" data-name="Rectangle" fill="url(#Dégradé_sans_nom_73-2)" d="M1.28 46.88l10.73-3.7 2.29 6.6-10.73 3.71-2.29-6.61z"/><path id="Path-19" data-name="Path" fill="url(#Dégradé_sans_nom_15)" d="M14.3 49.47L3.58 53.15 1.3 46.59l10.89-3.84 2.11 6.72z"/><path id="Path-20" data-name="Path" fill="url(#Dégradé_sans_nom_16)" d="M1.3 46.99l7.44 3.56 3.61-7.15L1.3 46.99z"/><path id="Rectangle-9" data-name="Rectangle" class="cls-3" d="M6.66 71.79l8.32 2.7-1.66 5.12L5 76.91l1.66-5.12z"/><path id="Path-21" data-name="Path" fill="url(#Dégradé_sans_nom_17)" d="M13.06 79.8l-8.51-2.69L6.26 72l8.69 2.68-1.89 5.12z"/><path id="Path-22" data-name="Path" fill="url(#Dégradé_sans_nom_18)" d="M6.5 71.35l2.84 5.85 5.61-2.93-8.45-2.92z"/><path id="Rectangle-10" data-name="Rectangle" fill="url(#Dégradé_sans_nom_94-4)" d="M74.76 8.17l14.72-5.78 3.57 9.06-14.72 5.78-3.57-9.06z"/><path id="Path-23" data-name="Path" fill="url(#Dégradé_sans_nom_19)" d="M92.95 11.66L78.3 17.4l-3.55-8.99 14.88-5.96 3.32 9.21z"/><path id="Path-24" data-name="Path" fill="url(#Dégradé_sans_nom_20)" d="M74.75 8.2l10.42 4.65 4.53-10.4L74.75 8.2z"/><path id="Rectangle-11" data-name="Rectangle" class="cls-3" d="M131.24.76l19.11 1.88-1.16 11.76-19.1-1.88L131.24.76z"/><path id="Path-25" data-name="Path" fill="url(#Dégradé_sans_nom_21)" d="M149.25 14.15L130 12.27 131.17.5l19.63 1.76-1.55 11.89z"/><path id="Path-26" data-name="Path" fill="url(#Dégradé_sans_nom_22)" d="M131.3 1.15l8.49 10.4 10.36-8.39-18.85-2.01z"/><path id="Path-27" data-name="Path" fill="#fff" d="M71.5 25.85l49.31-12.35 73.54 8.45-122.85 3.9z"/></g></g></g></g></g></svg>