<?xml version="1.0" encoding="UTF-8"?>
<svg width="24px" height="24px" viewBox="0 0 24 24" version="1.1" xmlns="http://www.w3.org/2000/svg" xmlns:xlink="http://www.w3.org/1999/xlink">
    <!-- Generator: sketchtool 59.1 (101010) - https://sketch.com -->
    <title>A1028EB9-76D3-4072-A787-0CCC2E4BAB4F</title>
    <desc>Created with sketchtool.</desc>
    <g id="Demande-Toulouse" stroke="none" stroke-width="1" fill="none" fill-rule="evenodd">
        <g id="014010-Demande-/-Demande-de-Rdvz-en-Ligne" transform="translate(-387.000000, -330.000000)" fill="#030F40">
            <g id="Group" transform="translate(318.000000, 166.000000)">
                <g id="Content-/-Message-Copy" transform="translate(40.000000, 139.000000)">
                    <g id="Icon-/-Info" transform="translate(29.000000, 25.000000)">
                        <path d="M18.7500385,10.5742018 C21.6495335,10.5742018 24.0000385,12.9247068 24.0000385,15.8242018 C24.0000385,17.4977062 22.5466602,19.9909152 20.4162839,22.7957407 L19.9320385,23.4239582 C19.6477645,23.7877992 19.2117657,24.0004453 18.7500385,24.0004453 C18.2883113,24.0004453 17.8523125,23.7877992 17.56829,23.4242799 C15.1806704,20.371803 13.5000385,17.6219561 13.5000385,15.8242018 C13.5000385,12.9247068 15.8505436,10.5742018 18.7500385,10.5742018 Z M18.7500385,12.0742018 C16.6789707,12.0742018 15.0000385,13.7531339 15.0000385,15.8242018 C15.0000385,17.0365434 16.4051122,19.4191322 18.317159,21.9387053 L18.7500385,22.5004453 L19.1836043,21.9375106 L19.5856398,21.3993384 C21.2910179,19.0801638 22.5000385,16.9496831 22.5000385,15.8242018 C22.5000385,13.7531339 20.8211063,12.0742018 18.7500385,12.0742018 Z M15.7500385,0.000201758481 C15.7548232,0.000201758481 15.7595974,0.000246562192 15.7643607,0.000335772955 C16.0433801,0.00179972537 16.321958,0.0554137181 16.5855815,0.16084424 L16.5855815,0.16084424 L22.5855385,2.56082703 C23.4399046,2.90251223 24.000019,3.73000461 24.000019,4.65020176 L24.000019,4.65020176 L24.000019,9.00020176 C24.000019,9.41441532 23.6642423,9.75020176 23.2500287,9.75020176 C22.8358152,9.75020176 22.500019,9.41441532 22.500019,9.00020176 L22.500019,9.00020176 L22.500019,4.65020176 C22.500019,4.34332011 22.3133017,4.06746136 22.0284955,3.95355928 L22.0284955,3.95355928 L16.5,1.742 L16.5000385,8.25020176 C16.5000385,8.62989752 16.2178846,8.94369272 15.8518091,8.99335514 L15.7500385,9.00020176 C15.335825,9.00020176 15.0000385,8.66441532 15.0000385,8.25020176 L15.0000385,8.25020176 L15,1.741 L9.08553853,4.10857648 C9.05755224,4.11976899 9.02939728,4.13037748 9.00109123,4.14040195 L9,19.026 L11.4093705,18.0628943 C11.7618839,17.9218155 12.1580508,18.0671771 12.340176,18.3885929 L12.384346,18.4805337 C12.5382501,18.8650938 12.3512666,19.3016052 11.9667065,19.4555093 L11.9667065,19.4555093 L9.08553853,20.6085765 C8.82666585,20.712107 8.55336063,20.7656678 8.27954998,20.7692568 L8.25003853,20.7692018 C8.24022464,20.7692018 8.23045478,20.7690133 8.22073237,20.7686397 C7.94737074,20.7657936 7.67370429,20.7122242 7.41449552,20.6085593 L7.41449552,20.6085593 L1.41453854,18.2085765 C0.560170489,17.8668905 1.90251383e-05,17.0393967 1.90251383e-05,16.1192018 L1.90251383e-05,16.1192018 L1.90251383e-05,1.75000166 C-0.00249116849,1.25074954 0.243534246,0.782955033 0.656332962,0.50213958 C1.0691399,0.221318531 1.59461262,0.164296368 2.05762213,0.349860482 L2.05762213,0.349860482 L7.97153853,2.71582704 C8.15032148,2.78732741 8.34975557,2.78732741 8.52843912,2.7158668 L8.52843912,2.7158668 L14.9145385,0.160827039 C15.1781409,0.0554049708 15.456708,0.00179527715 15.7355354,-4.24447803e-14 Z M1.50001903,1.74237239 L1.50001903,16.1192018 C1.50001903,16.426073 1.68676568,16.7019383 1.97158153,16.8158442 L1.97158153,16.8158442 L7.5,19.027 L7.5,4.138 L7.41445492,4.10854303 L1.50001903,1.74237239 Z M18.7500385,14.6992018 L18.8726197,14.7058031 C19.4362776,14.7668819 19.8750385,15.2443028 19.8750385,15.8242018 L19.873,15.788 L19.8750385,15.8242018 C19.8750385,16.4041007 19.4362776,16.8815216 18.8726197,16.9426004 L18.834,16.944 L18.7500385,16.9502018 C18.1701395,16.9502018 17.6927187,16.5114408 17.6316399,15.9477829 L17.6250385,15.8252018 C17.6250385,15.8126806 17.6253454,15.8002311 17.6259519,15.7878604 C17.6447391,15.1834174 18.1408415,14.6992018 18.7500385,14.6992018 L18.7500385,14.6992018 Z" id="Combined-Shape"></path>
                    </g>
                </g>
            </g>
        </g>
    </g>
</svg>