<?xml version="1.0" encoding="UTF-8"?>
<svg width="48px" height="48px" viewBox="0 0 48 48" version="1.1" xmlns="http://www.w3.org/2000/svg" xmlns:xlink="http://www.w3.org/1999/xlink">
    <!-- Generator: Sketch 53.2 (72643) - https://sketchapp.com -->
    <title>icon / Time continu Copy 2</title>
    <desc>Created with Sketch.</desc>
    <g id="icon-/-Time-continu-Copy-2" stroke="none" stroke-width="1" fill="none" fill-rule="evenodd">
        <g id="Shape-2" transform="translate(11.000000, 2.000000)" fill="#000000" fill-rule="nonzero">
            <path d="M21,0 L5,0 C2.24,0 0,2.24 0,5 L0,39 C0,41.76 2.24,44 5,44 L21,44 C23.76,44 26,41.76 26,39 L26,5 C26,2.24 23.76,0 21,0 Z M13,42 C11.34,42 10,40.66 10,39 C10,37.34 11.34,36 13,36 C14.66,36 16,37.34 16,39 C16,40.66 14.66,42 13,42 Z M22,34 L4,34 L4,6 L22,6 L22,34 Z" id="Shape" fill="#020D41"></path>
        </g>
    </g>
</svg>