<?xml version="1.0" encoding="UTF-8"?>
<svg width="16px" height="17px" viewBox="0 0 16 17" version="1.1" xmlns="http://www.w3.org/2000/svg" xmlns:xlink="http://www.w3.org/1999/xlink">
    <!-- Generator: sketchtool 59.1 (101010) - https://sketch.com -->
    <title>E578116B-3989-4E4A-BC93-82455908D7FA</title>
    <desc>Created with sketchtool.</desc>
    <g id="Demande-Toulouse" stroke="none" stroke-width="1" fill="none" fill-rule="evenodd">
        <g id="0121032-Demande-/-Conformité-Assainissement" transform="translate(-373.000000, -513.000000)" fill="#030F40">
            <g id="Group" transform="translate(318.000000, 228.000000)">
                <g id="Icon-/-Pdf" transform="translate(55.000000, 285.000000)">
                    <path d="M15.1464559,6.91312932 L7.82845577,14.2317959 C6.26636391,15.7938878 3.7336865,15.7938878 2.17157854,14.2317798 C0.609470579,12.6696719 0.609470579,10.1369946 2.17157854,8.57488665 L8.18222572,2.5649063 C8.81602223,1.90879775 9.7455308,1.64815772 10.6196044,1.87694632 C11.493678,2.10573492 12.1762904,2.78834731 12.405079,3.66242088 C12.6338676,4.53649446 12.3732276,5.46600301 11.7233361,6.09368918 L5.70704049,12.1132112 C5.32095996,12.4861116 4.69725282,12.4807901 4.31145821,12.0951167 C3.92566359,11.7094433 3.92014595,11.0857379 4.29905697,10.6932995 L10.3036375,4.68682786 C10.4988672,4.49153324 10.4988145,4.17495076 10.3035199,3.9797211 C10.1082253,3.78449144 9.79164277,3.7845441 9.5964131,3.97983872 L3.58574631,9.99250535 C2.82183803,10.783577 2.83287331,12.0309879 3.60446255,12.8023346 C4.37605178,13.5736813 5.62346605,13.5843245 6.40810457,12.8262558 L12.4243434,6.80678863 C13.327896,5.93421674 13.692792,4.63290477 13.372488,3.40920177 C13.0521839,2.18549877 12.0965266,1.22984141 10.8728235,0.909537371 C9.70232497,0.603159594 8.46081934,0.923694557 7.58602399,1.74840357 L1.46449135,7.86776027 C-0.488160516,9.82041208 -0.488160516,12.9862544 1.46447174,14.9388866 C3.417104,16.8915188 6.58294641,16.8915188 8.53557867,14.9388866 L15.8535949,7.62020389 C16.0488482,7.42493285 16.0488338,7.10835036 15.8535627,6.91309711 C15.6582917,6.71784386 15.3417092,6.71785828 15.1464559,6.91312932 Z" id="Path"></path>
                </g>
            </g>
        </g>
    </g>
</svg>