<svg xmlns="http://www.w3.org/2000/svg" viewBox="0 0 570.67 204.09">
    <defs>
        <style>.cls-1{fill:#030f40;}</style>
    </defs>
    <title>SOFichier 1</title>
    <g id="Calque_2" data-name="Calque 2">
        <g id="Premier_plan" data-name="Premier plan">
            <path class="cls-1"
                  d="M14.34,57.61a12.59,12.59,0,0,0,9.11-3.26c2.84-2.6,4.45-6.8,4.54-11.82a1.09,1.09,0,0,0-1.09-1.11H20.35a1.09,1.09,0,0,0-1.09,1.09A8.88,8.88,0,0,1,17.75,48h0a4.06,4.06,0,0,1-3.41,1.57A4.08,4.08,0,0,1,10.8,48C9.15,45.72,8.72,41.78,8.72,28.8s.43-16.91,2.07-19.14A4.07,4.07,0,0,1,14.34,8a4,4,0,0,1,3.41,1.49,9.14,9.14,0,0,1,1.44,5.57,1.08,1.08,0,0,0,1.09,1.08h6.55a1.08,1.08,0,0,0,1.08-1.1c-.08-4.91-1.58-9-4.21-11.58A12.86,12.86,0,0,0,14.34,0,12.83,12.83,0,0,0,4.24,4.24C.18,8.72,0,15.37,0,28.8S.18,48.89,4.24,53.36A12.81,12.81,0,0,0,14.34,57.61Z"/>
            <path class="cls-1"
                  d="M56.23,37.64c0-9.31-.26-15.69-3.71-19.47h0c-2.16-2.31-4.88-3.39-8.57-3.39a11.26,11.26,0,0,0-8.54,3.37c-3.46,3.55-3.74,10-3.74,18,0,9.17.61,14.76,3.81,18,2.28,2.37,4.84,3.38,8.55,3.38s6.68-1.12,8.64-3.24C54.88,52,56,48.92,56.08,45A1.09,1.09,0,0,0,55,43.86H48.9A1.09,1.09,0,0,0,47.81,45a6.13,6.13,0,0,1-1.08,3.75A3.43,3.43,0,0,1,44,49.87a3.17,3.17,0,0,1-2.57-1.25c-1.12-1.44-1.41-4.86-1.44-9.9H55.15A1.08,1.08,0,0,0,56.23,37.64ZM40,31.9c0-3.31.27-6.91,1.34-8.19A3.22,3.22,0,0,1,44,22.43a3.37,3.37,0,0,1,2.68,1.29c1,1.2,1.23,4.55,1.26,8.18Z"/>
            <path class="cls-1"
                  d="M80.43,54.17a12.45,12.45,0,0,0,3.67-9,12.59,12.59,0,0,0-1.84-6.89,13.6,13.6,0,0,0-6-4.89l-5-2.52a6.71,6.71,0,0,1-2.79-2.13,4.72,4.72,0,0,1-.55-2.37,4.25,4.25,0,0,1,1.13-3,3.6,3.6,0,0,1,2.66-1,3.33,3.33,0,0,1,2.55,1c.82.88,1.15,2,1.15,4a1.08,1.08,0,0,0,1.09,1.08h6.09a1.08,1.08,0,0,0,1.09-1.08c0-4-1.19-7.21-3.51-9.45a11.66,11.66,0,0,0-8.46-3.14,11.75,11.75,0,0,0-8.54,3.29,12,12,0,0,0-3.59,8.76,11.05,11.05,0,0,0,1.37,5.73,13.76,13.76,0,0,0,5.85,5l5.09,2.58a8,8,0,0,1,3.09,2.44,5.26,5.26,0,0,1,.82,3,4.57,4.57,0,0,1-1.21,3.2,3.82,3.82,0,0,1-3,1.12,4,4,0,0,1-2.71-1,5.49,5.49,0,0,1-1.38-4.06,1.08,1.08,0,0,0-1.09-1.08H60.32a1.08,1.08,0,0,0-1.09,1.08,12.79,12.79,0,0,0,3.66,9.44,11.85,11.85,0,0,0,8.7,3.38A11.82,11.82,0,0,0,80.43,54.17Z"/>
            <path class="cls-1"
                  d="M125.82,56.9V16.47a1.09,1.09,0,0,0-1.09-1.09h-6a1.09,1.09,0,0,0-1.09,1.09v.06c-.18-.14-.37-.27-.54-.38a9.19,9.19,0,0,0-4.84-1.38A8.63,8.63,0,0,0,105,18c-2.85,3.29-3.39,8.62-3.39,17.31s.54,13.94,3.4,17.24a8.77,8.77,0,0,0,7.29,3.18,7.83,7.83,0,0,0,4.66-1.22,4.82,4.82,0,0,0,.57-.39V57.2c0,3.36-.38,5.21-1.24,6.2a3.38,3.38,0,0,1-2.55,1.09,3.52,3.52,0,0,1-2.55-.94c-.74-.79-1.08-2.06-1.08-4A1.09,1.09,0,0,0,109,58.48h-6.09a1.09,1.09,0,0,0-1.09,1.09c0,4.1,1,7.05,3.31,9.31A12.36,12.36,0,0,0,113.77,72a11.85,11.85,0,0,0,8.55-3.3C124.84,66.09,125.82,62.78,125.82,56.9Zm-8.34-13.48a5.36,5.36,0,0,1-1.21,3.73,3.47,3.47,0,0,1-2.5,1,3,3,0,0,1-2.5-1.26c-1.26-1.6-1.36-5.81-1.36-11.58s.1-10,1.34-11.56a3,3,0,0,1,2.52-1.29,3.47,3.47,0,0,1,2.5,1,4.91,4.91,0,0,1,1.21,3.73Z"/>
            <path class="cls-1"
                  d="M143.38,57.61c3.69,0,6.68-1.12,8.64-3.24,2.21-2.37,3.33-5.45,3.41-9.4a1.06,1.06,0,0,0-.3-.78,1.11,1.11,0,0,0-.78-.33h-6.09A1.09,1.09,0,0,0,147.17,45a6.19,6.19,0,0,1-1.08,3.75,3.46,3.46,0,0,1-2.71,1.17,3.18,3.18,0,0,1-2.57-1.25c-1.12-1.44-1.4-4.86-1.44-9.9H154.5a1.08,1.08,0,0,0,1.09-1.08c0-9.31-.26-15.69-3.71-19.47h0c-2.15-2.31-4.87-3.39-8.56-3.39a11.28,11.28,0,0,0-8.55,3.37c-3.46,3.55-3.73,10-3.73,18,0,9.17.61,14.76,3.81,18C137.12,56.6,139.68,57.61,143.38,57.61Zm-2.66-33.9a3.2,3.2,0,0,1,2.59-1.28A3.34,3.34,0,0,1,146,23.72c1,1.2,1.23,4.55,1.26,8.18h-7.86C139.41,28.59,139.64,25,140.72,23.71Z"/>
            <path class="cls-1"
                  d="M181.61,38.28a13.51,13.51,0,0,0-6-4.89l-5.05-2.52a6.66,6.66,0,0,1-2.78-2.13,4.72,4.72,0,0,1-.55-2.37,4.24,4.24,0,0,1,1.12-3,3.62,3.62,0,0,1,2.66-1,3.3,3.3,0,0,1,2.55,1c.83.88,1.16,2,1.16,4a1.08,1.08,0,0,0,1.09,1.08h6.09A1.08,1.08,0,0,0,183,27.36c0-4-1.19-7.21-3.52-9.45A11.64,11.64,0,0,0,171,14.77a11.79,11.79,0,0,0-8.54,3.29,12,12,0,0,0-3.59,8.76,11.15,11.15,0,0,0,1.37,5.73,13.82,13.82,0,0,0,5.85,5l5.09,2.58a7.81,7.81,0,0,1,3.09,2.44,5.18,5.18,0,0,1,.82,3,4.61,4.61,0,0,1-1.2,3.2,3.83,3.83,0,0,1-3,1.12,4,4,0,0,1-2.71-1,5.53,5.53,0,0,1-1.38-4.06,1.08,1.08,0,0,0-1.08-1.08h-6.09a1.08,1.08,0,0,0-1.09,1.08,12.78,12.78,0,0,0,3.65,9.44,13,13,0,0,0,17.54-.06,12.41,12.41,0,0,0,3.67-9A12.59,12.59,0,0,0,181.61,38.28Z"/>
            <path class="cls-1"
                  d="M186,22.35h3.4V44.64c0,4.32,1.29,7.57,3.81,9.66,2.93,2.49,6.43,2.7,9.77,2.7a1.08,1.08,0,0,0,1.08-1.09V50.35A1.08,1.08,0,0,0,203,49.27c-3.67,0-5.24-1.46-5.24-4.86V22.35h5a1.09,1.09,0,0,0,1.09-1.09V16.47a1.09,1.09,0,0,0-1.09-1.09h-5V5.66a1.08,1.08,0,0,0-1.08-1.09h-6.17a1.09,1.09,0,0,0-1.09,1.09v9.72H186a1.09,1.09,0,0,0-1.09,1.09v4.79A1.09,1.09,0,0,0,186,22.35Z"/>
            <path class="cls-1"
                  d="M218.83,57.61c3.69,0,6.68-1.12,8.64-3.24,2.21-2.37,3.33-5.45,3.41-9.4a1.06,1.06,0,0,0-.3-.78,1.11,1.11,0,0,0-.78-.33h-6.09A1.09,1.09,0,0,0,222.62,45a6.22,6.22,0,0,1-1.08,3.75,3.46,3.46,0,0,1-2.71,1.17,3.18,3.18,0,0,1-2.57-1.25c-1.12-1.44-1.4-4.86-1.44-9.9H230A1.08,1.08,0,0,0,231,37.64c0-9.31-.26-15.7-3.71-19.47h0c-2.15-2.31-4.88-3.39-8.56-3.39a11.28,11.28,0,0,0-8.55,3.37c-3.46,3.55-3.73,10-3.73,18,0,9.17.6,14.76,3.8,18A10.83,10.83,0,0,0,218.83,57.61Zm-2.66-33.9a3.2,3.2,0,0,1,2.59-1.28,3.35,3.35,0,0,1,2.67,1.29c1,1.2,1.23,4.55,1.26,8.18h-7.87C214.86,28.59,215.09,25,216.17,23.71Z"/>
            <path class="cls-1"
                  d="M255.23,54.17a12.45,12.45,0,0,0,3.67-9,12.59,12.59,0,0,0-1.84-6.89,13.49,13.49,0,0,0-6-4.89l-5-2.52a6.6,6.6,0,0,1-2.78-2.13,4.72,4.72,0,0,1-.55-2.37,4.24,4.24,0,0,1,1.12-3,3.62,3.62,0,0,1,2.66-1,3.3,3.3,0,0,1,2.55,1c.82.88,1.16,2,1.16,4a1.08,1.08,0,0,0,1.09,1.08h6.09a1.08,1.08,0,0,0,1.09-1.08c0-4-1.19-7.21-3.52-9.45a11.64,11.64,0,0,0-8.46-3.14,11.79,11.79,0,0,0-8.54,3.29,12,12,0,0,0-3.59,8.76,11.15,11.15,0,0,0,1.37,5.73,13.82,13.82,0,0,0,5.85,5l5.09,2.58a7.81,7.81,0,0,1,3.09,2.44,5.18,5.18,0,0,1,.82,3,4.61,4.61,0,0,1-1.2,3.2,3.83,3.83,0,0,1-3,1.12,4,4,0,0,1-2.71-1,5.53,5.53,0,0,1-1.38-4.06,1.08,1.08,0,0,0-1.08-1.08h-6.09A1.08,1.08,0,0,0,234,44.79a12.78,12.78,0,0,0,3.65,9.44,13,13,0,0,0,17.54-.06Z"/>
            <path class="cls-1"
                  d="M286.9,57.61a8.94,8.94,0,0,0,4.82-1.3,5.72,5.72,0,0,0,.56-.39V70.68a1.09,1.09,0,0,0,1.09,1.09h6.17a1.08,1.08,0,0,0,1.08-1.09V16.47a1.08,1.08,0,0,0-1.08-1.09h-6a1.09,1.09,0,0,0-1.09,1.09v.19a5.27,5.27,0,0,0-.69-.51,9.64,9.64,0,0,0-12.22,1.9c-2.68,3.17-3.15,8.37-3.15,18.14s.47,15,3.15,18.13A9.07,9.07,0,0,0,286.9,57.61Zm-.79-34a3,3,0,0,1,2.46-1.22,3.35,3.35,0,0,1,2.43.9,5.11,5.11,0,0,1,1.28,3.8v18A5.29,5.29,0,0,1,291,49.05a3.28,3.28,0,0,1-2.43.82,3,3,0,0,1-2.47-1.23c-1.29-1.76-1.39-6.08-1.39-12.45S284.81,25.42,286.11,23.65Z"/>
            <path class="cls-1"
                  d="M329.61,15.38h-6.17a1.09,1.09,0,0,0-1.09,1.09v29c0,2.75-1.32,4.39-3.55,4.39s-3.64-1.64-3.64-4.39v-29a1.08,1.08,0,0,0-1.08-1.09h-6.17a1.09,1.09,0,0,0-1.09,1.09v29c0,4.31.74,6.8,2.63,8.86A9.34,9.34,0,0,0,317,57.61a9.14,9.14,0,0,0,4.85-1.39,6.67,6.67,0,0,0,.76-.56v.25A1.09,1.09,0,0,0,323.67,57h5.94a1.09,1.09,0,0,0,1.09-1.09V16.47A1.09,1.09,0,0,0,329.61,15.38Z"/>
            <rect class="cls-1" x="336.67" y="1.22" width="9.41" height="9.33" rx="1.09" ry="1.09"/>
            <rect class="cls-1" x="337.2" y="15.38" width="8.34" height="41.62" rx="1.09" ry="1.09"/>
            <path class="cls-1"
                  d="M377.27,14.77c-4.13,0-7.13,1.34-9.16,4.07-2.61,3.35-3.12,8.9-3.12,17.35s.51,14,3.11,17.32c2,2.76,5,4.1,9.17,4.1s7.2-1.34,9.23-4.08c2.56-3.28,3.05-8.62,3.05-17.34s-.49-14.06-3-17.33C384.47,16.11,381.44,14.77,377.27,14.77Zm2.62,33.87h0a3.14,3.14,0,0,1-2.62,1.22,3,3,0,0,1-2.55-1.23c-1.29-1.76-1.39-6.08-1.39-12.45s.1-10.77,1.4-12.54a3,3,0,0,1,2.54-1.22,3.12,3.12,0,0,1,2.62,1.23c1.25,1.71,1.32,5.87,1.32,12.53S381.14,46.93,379.89,48.64Z"/>
            <path class="cls-1"
                  d="M406.73,22.5c2.28,0,3.64,1.65,3.64,4.4v29A1.08,1.08,0,0,0,411.45,57h6.17a1.09,1.09,0,0,0,1.09-1.09v-29c0-4.31-.74-6.8-2.63-8.87a9.36,9.36,0,0,0-7.52-3.26,9.14,9.14,0,0,0-4.85,1.39,8,8,0,0,0-.76.55v-.24a1.09,1.09,0,0,0-1.09-1.09h-5.94a1.09,1.09,0,0,0-1.09,1.09V55.91A1.09,1.09,0,0,0,395.92,57h6.17a1.09,1.09,0,0,0,1.09-1.09v-29C403.18,24.15,404.51,22.5,406.73,22.5Z"/>
            <path class="cls-1"
                  d="M423,22.35h3.4V44.64c0,4.32,1.29,7.57,3.81,9.66,2.93,2.49,6.43,2.7,9.77,2.7A1.09,1.09,0,0,0,441,55.91V50.35a1.08,1.08,0,0,0-1.09-1.08c-3.67,0-5.23-1.46-5.23-4.86V22.35h5a1.09,1.09,0,0,0,1.09-1.09V16.47a1.09,1.09,0,0,0-1.09-1.09h-5V5.66a1.09,1.09,0,0,0-1.09-1.09h-6.17a1.09,1.09,0,0,0-1.09,1.09v9.72H423a1.09,1.09,0,0,0-1.09,1.09v4.79A1.09,1.09,0,0,0,423,22.35Z"/>
            <path class="cls-1"
                  d="M473,56.23a5.4,5.4,0,0,0,.72-.51v.19A1.09,1.09,0,0,0,474.8,57h6a1.09,1.09,0,0,0,1.09-1.09V1.7A1.09,1.09,0,0,0,480.81.61h-6.16a1.09,1.09,0,0,0-1.09,1.09V16.45c-.19-.14-.37-.26-.55-.37a9.8,9.8,0,0,0-12.21,2c-2.68,3.17-3.16,8.37-3.16,18.14s.48,15,3.16,18.14A9.6,9.6,0,0,0,473,56.23Zm-5.61-7.59c-1.3-1.76-1.39-6.08-1.39-12.45s.1-10.77,1.39-12.54a3,3,0,0,1,2.47-1.22,3.37,3.37,0,0,1,2.43.9,5.11,5.11,0,0,1,1.28,3.8v18a5.29,5.29,0,0,1-1.28,3.88,3.31,3.31,0,0,1-2.43.82A3,3,0,0,1,467.38,48.64Z"/>
            <path class="cls-1"
                  d="M499.46,57.61c3.69,0,6.68-1.12,8.64-3.24,2.21-2.37,3.33-5.45,3.41-9.4a1.06,1.06,0,0,0-.3-.78,1.11,1.11,0,0,0-.78-.33h-6.09A1.09,1.09,0,0,0,503.25,45a6.22,6.22,0,0,1-1.08,3.75,3.46,3.46,0,0,1-2.71,1.17,3.18,3.18,0,0,1-2.57-1.25c-1.12-1.44-1.4-4.86-1.44-9.9h15.13a1.08,1.08,0,0,0,1.09-1.08c0-9.31-.26-15.7-3.71-19.47h0c-2.15-2.31-4.87-3.39-8.56-3.39a11.28,11.28,0,0,0-8.55,3.37c-3.46,3.55-3.73,10-3.73,18,0,9.17.6,14.76,3.8,18A10.85,10.85,0,0,0,499.46,57.61Zm-2.66-33.9a3.2,3.2,0,0,1,2.59-1.28,3.35,3.35,0,0,1,2.67,1.29c1,1.2,1.23,4.55,1.26,8.18h-7.86C495.49,28.59,495.72,25,496.8,23.71Z"/>
            <path class="cls-1"
                  d="M534.55,54.31c2.82,2.37,6.25,2.69,9.22,2.69a1.09,1.09,0,0,0,1.09-1.09V50.35a1.08,1.08,0,0,0-1.09-1.08c-3.34,0-4.77-1.46-4.77-4.86V1.7A1.09,1.09,0,0,0,537.91.61h-6.17a1.08,1.08,0,0,0-1.08,1.09V44.64C530.66,48.93,532,52.19,534.55,54.31Z"/>
            <path class="cls-1"
                  d="M567.25,17.85l0,0a11.64,11.64,0,0,0-8.46-3.06A12,12,0,0,0,550.39,18c-2.26,2.27-3.36,5.26-3.36,9.15a1.08,1.08,0,0,0,1.08,1.09h6.17a1.09,1.09,0,0,0,1.09-1.09c0-1.89.31-2.93,1.13-3.8a3,3,0,0,1,2.27-1c.88,0,3.56,0,3.56,4.55v5.16h-3c-4.1,0-6.74.85-9.1,2.94a12.78,12.78,0,0,0-3.86,9.72c0,4.15,1,7.45,2.79,9.55a9.36,9.36,0,0,0,7.58,3.34,8.22,8.22,0,0,0,5.33-1.69c.17-.14.35-.29.51-.45v.44A1.09,1.09,0,0,0,563.72,57h5.87a1.08,1.08,0,0,0,1.08-1.09V27.28A12.93,12.93,0,0,0,567.25,17.85ZM562.33,45c0,3.08-1.51,5.08-3.86,5.08-3.07,0-3.71-3-3.71-5.54a6.86,6.86,0,0,1,1.48-4.61,4.7,4.7,0,0,1,3.68-1.16h2.41Z"/>
            <path class="cls-1" d="M312.83,128.3v0h0v0Z"/>
            <path class="cls-1"
                  d="M323.91,157.36a7.55,7.55,0,0,1-.53-3,16.65,16.65,0,0,0-.59-3.56c-.05-.23-.14-.58-.49-.38-.62.35-.53,0-.47-.28.22-1.55-.79-2.82-1-4.27-.05-.3.46-1.26-.7-1.17,0-.12-.07-.23-.11-.34a.85.85,0,0,1,.22-.37c.52-.5.47-.55-.32-.66-.18,0-.3-.1-.32-.23-.21-1.6-1.45-2.81-1.32-4.61.11-1.18,0-2.71-1.72-3.15a.64.64,0,0,1-.2-.11c-.1-.23-.2-.46-.31-.69a.68.68,0,0,1,.11-.31c.5-.77,0-1.27-.15-1.91-.35-1.67-1.92-2.64-2.32-4.28-.13-.49-.57-.08-.83.22,0,0,0,.08,0,.12l-.07-.11,0,0c-.08-.71-.11-1.43-.25-2.13-.1-.52,0-1.24-.9-1.23-.19-.61-.46-1.15-1.24-1.25-.26,0-.54-.16-.53-.43a3.53,3.53,0,0,0-.09-1.45c-.41-1-.46.52-.74.17-.11-.14-.21-.29-.32-.44-.45-.69-.89-1.38-1.34-2.06a21.62,21.62,0,0,0-.92-2.52c-.89-1.69-2.45-2.89-3.08-4.8-.24-.72-.73-2-2.27-1.55a1,1,0,0,1,.07.15.76.76,0,0,1-.11-.14s0,0,0,0c-.4-1.1-1.18-2-1.2-3.31,0-.26-.13-.53-.45-.46s-.31.37-.33.63,0,.4,0,.6l-.55-.68c0-1.06-.15-2.08-1.22-2.57-.57.35-.57,0-.48-.39.18-.84-.13-1.21-1-1-.6-2.1-2.11-3.54-3.57-5-.46-.46-.78-.06-1.14.22l-.81-.88a1,1,0,0,1-.12-.34c-.36-2.65-2.64-3.66-4.28-5.21l-.26.66a3,3,0,0,1,.93,1c-.74-.75-1.18-1.17-1.19-1.17l0,0c-.87.42-2,.55-2.57,1.31-1.3,1.68-3,3-4.38,4.53-.48.56-1.39.88-.59,2a.27.27,0,0,1,.05.13l-.29.33-.09,0c-2.42.37-2.77,2.91-4.48,4a1.43,1.43,0,0,0-.62,1.06,2.8,2.8,0,0,1-.17,1.27l-1.14,1.43a10.29,10.29,0,0,0-1.5,1.36c.14-.22.44-.39.3-.72-.07-.15-.29-.14-.41,0-.3.22-.19.49,0,.77-.85.79-2.08,1.31-2,2.78l0,0,0,0h0a3,3,0,0,1,.13.44c-.13.18-.27.36-.4.55a1.83,1.83,0,0,1-.41-.06c-.93.54-2,1-1.79,2.37.05.31-.21.37-.5.39-1.55.14-1.11,1.58-1.65,2.38.85-.17,1-1.15,1.7-1.33-.48.7-.95,1.41-1.42,2.13a3.51,3.51,0,0,1-1.22.2c-.26,0-.4.37-.52.65a13.18,13.18,0,0,1-1.88,3.46c-.27.31-.48.59-.18,1-.34.34-.62.73-1,1-.65.56-1.35,1-1,2.14a1.56,1.56,0,0,1-.7,1.74A2.54,2.54,0,0,0,255,133c0,.23.19.6-.19.58-1.21,0-1,1-1.27,1.54-.78,1.46-1.34,3-2.09,4.48-.64,1.19-.45,2.67-1.42,3.73-.54.64,1.11.1.59.72-.28.33-.89.31-1.17.7a1.21,1.21,0,0,0-.19.52c-.37,1.6-.11,3.31-.88,4.82-.16.38-.29.8.5.8l0,0h0c-.21.72-1.49,1-1.27,1.82.38,1.37-.43,2.44-.64,3.67a2.37,2.37,0,0,0,.08,1.21v0c-.34,1.29,0,2.62-.37,3.91a3.77,3.77,0,0,0,.24,3.51,1.25,1.25,0,0,1-.13,1.8c-.19.17-.37.93.53.51a.69.69,0,0,1,.31-.08c0,.2.05.4.07.6a2.4,2.4,0,0,1-.43.9,1.63,1.63,0,0,0,.55,2.43h0a3.8,3.8,0,0,1,.67,1.29c.05.2.09.41.14.62a7.15,7.15,0,0,1-.21,2.48,1.54,1.54,0,0,0,.32,1.09c1,1.93,1.62,4.07,2.86,5.85.92,1.09.74,2.58,1.56,3.69.28.34.47.44.87.14a7.06,7.06,0,0,0,1.66,2.77,10,10,0,0,1,2.06,2.51c.06.12.23.17.37.23a2.79,2.79,0,0,1,1.48,1.33,11,11,0,0,0,1,1.41,14.24,14.24,0,0,0,1.3,1.15c.9.73,1.82,1.45,2.78,2.1a12.28,12.28,0,0,0,1.82.89c.43.22.49-.14.6-.44,0,0-.06-.07-.1-.11a.57.57,0,0,1,.13.08v0a5.14,5.14,0,0,0,1.62,1.31c.07.8.69,1.05,1.23,1.36.25.15.64-.12.41-.34a2.18,2.18,0,0,1-.39-.86l.89.41a1.7,1.7,0,0,0,.45.55,11.72,11.72,0,0,0,3.24,1.75,10.3,10.3,0,0,0,2.59.67,11,11,0,0,1,2.6.51c.44.17.65-.19.26-.67-.06-.07-.18-.14-.25-.22l1.19.16.48.28c.36.16.73.31,1.12.44a8.72,8.72,0,0,0,2.43.45c1.09,0,2.06-.57,3.17-.48a2.61,2.61,0,0,0,2.6-.83h.09a1.08,1.08,0,0,0,.89.64,6.89,6.89,0,0,0,4.29-1.43l0-.09h.09a6.93,6.93,0,0,0,1.08-.3v0h0l0,0a2.67,2.67,0,0,1,.18-.44c.56-.2,1.11-.41,1.66-.63l.73.09a2.73,2.73,0,0,0,2.67-.85c1.14-1.4,2.65-1.72,4.22-2.26a1.61,1.61,0,0,0,.64-.36c.23-.26.13-.51-.23-.55s-.45-.06-.67-.1c.32-.22.62-.45.92-.67h0c1.18.11,1.87-.76,2.77-1.2a12.87,12.87,0,0,0,2.53-2.07c.76-.78,1.37-1.7,2.11-2.5a11.61,11.61,0,0,0,2.67-4c.27-1.1,1.35-1.76,1.95-2.72.22-.34.69-.85.11-1.15s-.73.35-1,.71l-1.11,1.79a.13.13,0,0,1,0-.06c.55-.92,1.07-1.86,1.55-2.82a4.35,4.35,0,0,0,.52-.29c1.37-.7,1.5-2.21,2-3.39.76-1.49.51-3.3,1.63-4.72a1.31,1.31,0,0,0,.29-.83c0-1.1,0-2.2.09-3.27a17.3,17.3,0,0,1,.71-3.18c-.93-1.3-.2-2.5.07-3.76.16-.65-.45-1.08-.49-1.73C323.75,159.51,324.37,158.45,323.91,157.36Zm-76.45,6.91a3.28,3.28,0,0,1-.17-1.88.32.32,0,0,1,.17-.19c0,.3,0,.6,0,.9S247.45,163.88,247.46,164.27Zm.13,5.65h-.13c0-.07,0-.14,0-.21h.14A1.52,1.52,0,0,1,247.59,169.92Zm.34,1.16-.05,0,.06-.15S248,171.06,247.93,171.08Zm.65-18.64h0l0-.08,0,0S248.58,152.42,248.58,152.44Zm.7,23.44.08-.17c.1.34.21.68.32,1C249.3,176.6,249.05,176.36,249.28,175.88ZM253,138.14l-.1-.07L253,138ZM254,186.33c-.1-.18-.37-.35,0-.54h0c.08.13.16.25.25.37C254.25,186.22,254.12,186.27,254,186.33Zm.4-51.09-.32.15s-.06-.08-.05-.11.15-.18.3-.17c.1-.21.17-.48.38-.57C254.63,134.77,254.53,135,254.43,135.24Zm1.93-4,0,0c-.07,0-.15-.09-.22-.14l.32-.19.08,0C256.45,131.11,256.4,131.2,256.36,131.29Zm1.93-3.57a.53.53,0,0,1,.1-.37l.19-.14Zm1.1-2.6a.33.33,0,0,1,.37,0A.4.4,0,0,1,259.39,125.12Zm4.6,71.43c-.11,0-.09-.16,0-.18s.12,0,.18.07S264,196.57,264,196.55Zm.26-.11h0c.28.2.57.39.86.58A2.23,2.23,0,0,1,264.25,196.44Zm11.19,5.36.75.21C275.82,202.13,275.58,202.05,275.44,201.8Zm2.06.52.6.13C278,202.63,277.71,202.49,277.5,202.32Zm1.1-102.51-.08-.07c.28-.31.46-.73.88-.82Zm2.1-2.31a2.74,2.74,0,0,1,.21-.42.58.58,0,0,1,.48-.31Zm7-2.46a.4.4,0,0,1,.18-.21c.05.22.14.4.2.61Zm3.5,3.72a.79.79,0,0,1,.45.51Zm.53,103.86.22,0s0,0,0,0Zm1.53-101.8a.6.6,0,0,0-.09.15l-.6-.68a.77.77,0,0,1,.37,0C293.2,100.35,293.46,100.57,293.26,100.82Zm.8.63a.22.22,0,0,1-.13,0,1.18,1.18,0,0,1-.07-.2l.25-.06A.87.87,0,0,1,294.06,101.45Zm2.07,2.53c0,.13-.14.15-.25.14l-.24-.29a.47.47,0,0,1,.16-.38C296,103.54,296.2,103.71,296.13,104Zm1.67,2.22c-.13,0-.13-.12,0-.2s.08,0,.13,0,0,.09,0,.12S297.82,106.21,297.8,106.2Zm3,93.89a.62.62,0,0,1-.22-.1c.05-.06.09-.16.16-.18s.18.06.15.18S300.84,200.1,300.81,200.09Zm9.69-7h0c.12-.1.24-.2.35-.31C310.73,193,310.63,193.12,310.5,193.14Zm.42-.39a.52.52,0,0,1,.59-.12h0C311.35,192.76,311.21,193,310.92,192.75ZM311.7,126a.48.48,0,0,1-.25-.1c-.27-.33.09-.62.2-.94C311.82,125.29,312,125.6,311.7,126Zm1.4,64.51a.67.67,0,0,0-.14.09l.45-.5a.36.36,0,0,1,.25,0s0,.1,0,.14C313.61,190.53,313.36,190.55,313.1,190.52Zm1.82-58.5h-.17c-.1-.2-.19-.4-.29-.59a.26.26,0,0,1,.2-.19c.09,0,.26.13.32.25A.36.36,0,0,1,314.92,132Zm2.1,4.74v0l0,0Zm.05,49.13a.24.24,0,0,1-.35-.19v0l.54-.86.12-.1A.9.9,0,0,1,317.07,185.89Zm3.38-7.41.13-.21C320.78,178.49,320.54,178.44,320.45,178.48Zm2.94-20.56a.5.5,0,0,1-.32.63c-.05-.52-.09-1-.15-1.55.19.32.14.73.51.93Z"/>
            <path class="cls-1" d="M267.11,198.3l0,0s0,0,0,0v0Z"/>
            <path class="cls-1" d="M301.13,110.6s0,0,0,0l0,0v0Z"/>
            <path class="cls-1" d="M285.62,92.92v0h0Z"/>
            <path class="cls-1" d="M285.85,92.21a.05.05,0,0,0,0,0v0Z"/>
            <path class="cls-1" d="M297.31,104.78h0l0,0Z"/>
            <path class="cls-1" d="M307.85,118.54c-.24,1,.52,1,.91,1.36Z"/>
            <path class="cls-1"
                  d="M298,202c.35,0,.65-.14.6-.47-.09-.57-.44-.2-.66-.17a5.23,5.23,0,0,0-.77.23C297.38,202,297.7,202,298,202Z"/>
            <path class="cls-1" d="M266.78,113.81l0,0h.05Z"/>
            <path class="cls-1" d="M266.33,113.17c-.18.4.21.48.45.64l.67-.91C267,112.7,266.55,112.71,266.33,113.17Z"/>
            <path class="cls-1"
                  d="M271.25,107.78c0-.08.1-.24,0-.35a.23.23,0,0,0-.39,0,.45.45,0,0,0-.1.39C270.89,107.94,271.07,107.94,271.25,107.78Z"/>
            <path class="cls-1" d="M319.23,139.67s0-.09-.05-.13l-.11.05s0,.11,0,.15S319.22,139.82,319.23,139.67Z"/>
            <path class="cls-1"
                  d="M388.1,157.61v-.31a13.44,13.44,0,0,0,.33-4c-.34-2.17,1.66-4.4-.14-6.47-.05,0,0-.32,0-.44,1.12-2.53.37-5.39.68-8.09.47-4.07-.51-8.22-.07-12.36a14.26,14.26,0,0,0,0-1.85c0-.84-.4-1-.86-.91V123a22.28,22.28,0,0,0,.59-9.14l0,0a12.16,12.16,0,0,0,.31-5.64,12.36,12.36,0,0,1,0-3.22c.13-1.83.14-3.66.13-5.49,0-.49,0-.86,0-1.44a4.17,4.17,0,0,0-.5-1.72,4.33,4.33,0,0,0-2.76-2.16,4.84,4.84,0,0,0-1.1-.15l-.88,0-1.8,0a22.11,22.11,0,0,0-3.73.28,4.27,4.27,0,0,0-3,2.34,4.49,4.49,0,0,0-.4,1.84,15.68,15.68,0,0,1-.11,1.57c-.35,2.75.05,5.52-.49,8.2-.14.66,0,1.31.69.86.2-.9-.24-1.9.15-2.88a1.52,1.52,0,0,1,.23.48v2.53a.73.73,0,0,1-.22.09,18.33,18.33,0,0,0-.63,4.52,8,8,0,0,0,.81,2.24c-.56.24-.63.84-.8,1.57-.33,1.48.4,2.72.27,4.08-.33,3.41-.6,6.81.27,10.16a2.74,2.74,0,0,1,0,1.14c-.84,4.23.21,8.69-.84,12.89a1.65,1.65,0,0,0,.33,1.25c.19.34.11,1.05.54,1a.39.39,0,0,0,.27-.2v5.15c-.43-.83-.16-2.1-.85-3.1a26.16,26.16,0,0,1-.18,5.1c0,.65-.24,1.32.32,1.88a2.63,2.63,0,0,1,.71,1.27v1a4.33,4.33,0,0,1-.46,1.25c-.28.5-.48.72.14,1.08.45.25.18,1,0,1.41a3.33,3.33,0,0,0-.54,1.65c.1,1.57.54.14.81.18,0-.18,0-.37.06-.55v1c-.28,1.16.13,2.59-.67,3.54.25.4-.18,1.55.67,1.27v1c-.75,1.88-.28,4.18-1,6.06-.25.52-.23,1.28.21,1.54s.59-.48.79-.93c0,.62-.08,1.22-.16,1.8a8.68,8.68,0,0,0-1.88,3.13,8.66,8.66,0,0,1-5,5.48,12.06,12.06,0,0,1-8.29.27,9.54,9.54,0,0,1-5.83-5.75c-.45-1.22-.87-2.67-1.24-3.76-.32-.79-.73-1.15-.1-1.88.27-.29.19-.64.05-1a4.22,4.22,0,0,1,.18-2.89,4.91,4.91,0,0,0,.31-1.55c.08-1.91-.73-3.71-.35-5.67a.85.85,0,0,0-.23-.53c-.32.1-.5.07-.61,0v-1l.06-.24a2.28,2.28,0,0,0,.05-1.56c-.05-.1-.07-.18-.11-.27v-1.44a2.33,2.33,0,0,1,.59-.58.79.79,0,0,0,.08-1.34,1.55,1.55,0,0,1-.05-2.4c.4-.37.48-3.51.08-3.79a.43.43,0,0,0-.61.16,1,1,0,0,0-.09.18v-1.6a3.61,3.61,0,0,0,.8-1.69,22.53,22.53,0,0,0,.19-4.79l-.69.35c0,.36.05.79-.3.92V146a1.81,1.81,0,0,1,.28-.63,16.77,16.77,0,0,0-.28-2.65V140.8c.47.32,1,.54.82-.62a18.84,18.84,0,0,1-.1-8.45c.6-2.25-.33-4.51.24-6.72.19-.73-.18-1.14-.71-1.18h0a14,14,0,0,0,.62-5.11c-.22-3.22.43-6.46-.07-9.69a8.1,8.1,0,0,1-.22-3.17,8.48,8.48,0,0,0-.29-5.07,2.81,2.81,0,0,1-.29-.31v-1.8a2.74,2.74,0,0,0,.39-1.79,3.37,3.37,0,0,0-1.22-2.12,3.85,3.85,0,0,0-2.5-.81c-.69,0-1.38.06-2.09.13h.06a3,3,0,0,1-1.72.39c-.53,0-1.05,0-1.58,0l-.79-.07a4.58,4.58,0,0,0-1,0,3.88,3.88,0,0,0-3,2.46,3.69,3.69,0,0,0-.2,1.58,8.8,8.8,0,0,1,0,1.26c-.07,1.44.83-.1.92.53v3.55l0,0c-.31.08-.29-.31-.34-.58s-.06-.67-.37-.55a.77.77,0,0,0-.21.55c.59,3.59-.78,7.38.58,10.89a2.52,2.52,0,0,1-.15,1.54,16,16,0,0,0-.09,7.57l0,0h0l0,0a7.53,7.53,0,0,0-.09,3.83c.46,2,1.19,4.1,0,6.16a1.46,1.46,0,0,0-.05,1.11,5.27,5.27,0,0,1,0,2.92,1.33,1.33,0,0,0,0,.88,5.37,5.37,0,0,1,.08,4.72l-.06-.19v0a.87.87,0,0,1,.05.19v0c-.17,1.88.1,3.8-.29,5.66-.09.43-.28,1,.11,1.21.21.1.55-.32.83-.51h0v1.24a.55.55,0,0,1-.13.17c-1.09.9-1,2-.39,3.29.25.54-.09,1-.08,1.35.08,1.91-1.11,3.65-.37,5.61.12.09.32.1.27.39,0,.07-.17.08-.27.12,0,.53.07,1.06.08,1.59.1,4.4-.14,8.83.69,13.15.1.13.22.33.1.48s-.23-.07-.31-.22c-.95,1.1-.65,2.7-.46,4.16a.6.6,0,0,0,.53.54c.2,0,.31-.23.25-.45a4.46,4.46,0,0,1,.15-2.69,31.78,31.78,0,0,0,.47,4.13,1.23,1.23,0,0,1-.19.4c-.84,1.23-.43,2.54.4,3.73a6.34,6.34,0,0,1,1.18,2.74,4.44,4.44,0,0,0,1.45,2.68,16.31,16.31,0,0,1,3.28,3.63,11.88,11.88,0,0,0,5.16,4.15,37.18,37.18,0,0,0,6.26,2,56.22,56.22,0,0,0,6.47.89c1.92.25,3.65-.63,5.5-.76a2,2,0,0,0,.12-.45c1.09-.4,2.05.23,3.14-.22.2-.09.49-.26.5-.37s-.26-.17-.49-.15-.88.37-.76-.17c0,0,.07-.09.15-.14.49-.16,1-.33,1.46-.52a2.07,2.07,0,0,0,1.26-.15c2.31-1.6,4.86-2.41,7-4.21l-.68-.68a19.37,19.37,0,0,0,1.74-2,2.32,2.32,0,0,1,1.15-.54c.49-.57,1.39-1,1.35-1.79,0-.55-.61.14-1,.13l.38-.67a13.68,13.68,0,0,0,3.89-9.66c0-.67.07-.7-.6-.6a.27.27,0,0,1-.24-.07c0-.48.05-1,.07-1.45.57-.23.74-.91,1-1.55.36-1.05.34-1.09-.5-1.07-.35,0-.32-.26-.27-.56a6.77,6.77,0,0,1,.3-1.31,9.59,9.59,0,0,0,.16-5.59l0,0a11.52,11.52,0,0,0,.23-3.42,1,1,0,0,0-.19-.57c-.22-.19-.43,0-.55.27a2.29,2.29,0,0,0-.1.23v-1.42a9.2,9.2,0,0,0,1.12-4.4c0-.6.28-1.37-.15-1.69S388.47,157.4,388.1,157.61Zm0-49.77c0-.15.09-.25.15-.16a1.65,1.65,0,0,1,.13.53c-.14,0-.25-.09-.28-.31Zm0,2.69a1.76,1.76,0,0,1,0,1.22Zm0,5.85a1,1,0,0,1,.09.63,1.24,1.24,0,0,1-.09.45Zm0,19.6a5.83,5.83,0,0,0,.06.73,11.91,11.91,0,0,1-.06,3.27Zm-12.88-34.07,0-.16.05.17Zm-23,14.89a.4.4,0,0,1,.17.28c0,.29-.07.39-.17.42ZM339.06,109c-.07-.14,0-.22.07-.22a.61.61,0,0,1,0,.15Zm0,9.46-.07-.07.09,0Zm.45,45.45c0,.11-.08.21-.14.23-.32.1-.44-.3-.48-.69s.08-.61.34-.65a.25.25,0,0,1,.28.14Zm0-7c-.11,0-.18,0-.15-.2a.57.57,0,0,1,.15-.31Zm0-37-.07-.06.07,0Zm1.1-23.91c-.05-.11.06-.24.38-.4a1.48,1.48,0,0,1,.48-.15A3.5,3.5,0,0,0,340.63,95.92Zm1.81,93.21c.18.34.38.67.57,1A.85.85,0,0,1,342.44,189.13Zm7.34,8.29a8.32,8.32,0,0,1-.77-.68,23.51,23.51,0,0,0,2.71,1.74A6.22,6.22,0,0,1,349.78,197.42ZM352.31,172l-.07-.4s.08,0,.13-.06.05.26.06.39S352.35,172,352.31,172Zm-.09-1.93v-1.94a.13.13,0,0,1,.2,0c.3.23.12.65,0,1S352.3,169.74,352.22,170.05Zm2.55,15.59,0,0,0,0Zm.53.65-.44-.61c.43.4.94.68,1.07,1.27Q355.6,186.64,355.3,186.29Zm3.05,1.94,0-.06.06.1Zm6.32,13.13.78,0C365.28,201.55,364.92,201.47,364.67,201.36ZM364.34,190a5.18,5.18,0,0,1,2.64-.41A12,12,0,0,1,364.34,190Zm4.9,11.13c-.66,0-1.31.45-2,.23-.06,0,0-.11,0-.2.64-.08,1.28-.17,1.91-.3a1.37,1.37,0,0,1,.49.2A1.8,1.8,0,0,1,369.24,201.13Zm5.33-19c0,.06-.1.08-.15.12l0-.2c0-.06.07-.16.1-.17S374.66,182,374.57,182.15Zm.83-26.92a2.1,2.1,0,0,1,0-1.56Zm0-9.41a.41.41,0,0,1-.21.24l-.13,0,0-.19c0-.3-.07-.61.19-.74,0,0,.12.09.17.18Zm12.3-49Zm-2.1-1.62,0,0c.07-.1.32,0,.51.19A3.66,3.66,0,0,0,385.6,95.2Zm1.34,89.5c.19-.63.33-1.27.47-1.93l0,0A12.13,12.13,0,0,1,386.94,184.7Zm1-3.5a1.77,1.77,0,0,1-.49,1.53,2,2,0,0,1,0-.25c.07-.33.14-.65.19-1a1.73,1.73,0,0,1,.19-.31S388,181.17,388,181.2Zm.19-9.95a1.06,1.06,0,0,1-.07.42V171A.63.63,0,0,1,388.17,171.25Z"/>
            <path class="cls-1" d="M402.49,148.12l0,0,0,0h0v0h0l0,0Z"/>
            <path class="cls-1"
                  d="M455.17,195.86c-.34.12-.38-.1-.41-.34a4.65,4.65,0,0,1-.06-1.11,6.44,6.44,0,0,0-1.3-4.38l0,0a7.71,7.71,0,0,0-.67-2.72.72.72,0,0,0-.33-.39c-.26-.07-.4.15-.45.39a1.55,1.55,0,0,0,0,.21l-.37-1.1a6.48,6.48,0,0,0-.08-3.77c-.16-.45-.1-1.15-.59-1.26s-.4.68-.71,1l-.08-.24a9,9,0,0,0-.72-3.19c-.89-1.57.42-3.94-1.82-5-.06,0-.09-.25-.07-.35.4-2.32-1.06-4.3-1.47-6.49-.62-3.3-2.64-6.2-3.29-9.55a10.44,10.44,0,0,0-.48-1.43c-.23-.65-.63-.61-1.06-.43l-.05-.17c0-.58-.08-1.21-.11-1.71a1.39,1.39,0,0,1,0-.46l.48-.1a6.81,6.81,0,0,0,1.72-.91A6.52,6.52,0,0,0,444.8,151v0a6.07,6.07,0,0,0,3.59-3.18,16.23,16.23,0,0,1,1.51-2.3c1.81-2.6,2.52-5.72,3.19-8.69a17.43,17.43,0,0,0,.57-6,20.82,20.82,0,0,1-.07-5.4c.3-2.28-.15-4.54.16-6.8.09-.56-.09-1.08-.75-.64-.14.76.37,1.54.05,2.37a1,1,0,0,1-.24-.34c-.05-.71-.11-1.41-.19-2.09a.67.67,0,0,1,.21-.09,12,12,0,0,0,.08-3.79c-.21-.71-.83-1.09-1.21-1.64.51-.32.46-.83.49-1.46-.09-1.28-1.05-2.06-1.37-3.15-.7-2.74-2.21-5.54-4.85-6.87a2,2,0,0,1-.69-.66,9.43,9.43,0,0,0-2-1.86,18.64,18.64,0,0,0-2.43-1.26c-1.71-.69-3.42-1.21-5.07-2a1.23,1.23,0,0,0-1.1.15c-.3.14-.88,0-.9.4a.39.39,0,0,0,.13.28,39,39,0,0,0-4.16-.33c.69-.39,1.7-.1,2.57-.68a29.49,29.49,0,0,1-4.24-.37c-.53,0-1.08-.25-1.54.31a1.89,1.89,0,0,1-1,.71h-.85a2.86,2.86,0,0,1-1-.46c-.4-.28-.59-.48-.87.14-.21.46-.79.18-1.16,0s-.78-.57-1.35-.53c-1.28.1-.11.53-.14.8.14,0,.3,0,.44.06h-.79c-1-.27-2.12.13-2.9-.67-.33.25-1.26-.17-1,.67H415c-1.54-.75-3.41-.28-5-1-.45-.22-1.13-.2-1.31.29s.46.54.83.73H408.1a3,3,0,0,0-1.05-.54,2.37,2.37,0,0,0-2.38.81,4.43,4.43,0,0,0-.93,1.91,4.08,4.08,0,0,0-.1,1l0,.85c0,1.12,0,2.25-.06,3.39-.27,5,.09,10-.11,15a11.73,11.73,0,0,0,.3,3.42c.21.7.67,1,0,1.6-.27.24-.19.52-.05.83a2.86,2.86,0,0,1-.19,2.36,3.63,3.63,0,0,0-.3,1.27c-.09,1.56.73,3,.35,4.63,0,.12.18.45.23.43a.77.77,0,0,1,.61,0v.83c0,.07-.05.13-.06.19-.13.44-.29.93-.05,1.28.05.08.06.14.11.22v1.17a2.12,2.12,0,0,1-.59.48c-.4.22-.69.71-.08,1.09a1.13,1.13,0,0,1,.05,2c-.41.31-.48,2.88-.08,3.11a.49.49,0,0,0,.61-.14.75.75,0,0,0,.09-.15v1.31a2.63,2.63,0,0,0-.8,1.39,15,15,0,0,0-.19,3.91l.69-.29c0-.29-.05-.65.3-.75v.23a1.34,1.34,0,0,1-.28.51,11.31,11.31,0,0,0,.28,2.17v1.59c-.47-.26-1-.44-.82.51a12.65,12.65,0,0,1,.1,6.9c-.6,1.84.33,3.69-.24,5.5-.19.59.18.92.71,1h0a9.46,9.46,0,0,0-.62,4.17c.21,2.64-.43,5.29.07,7.93a5.39,5.39,0,0,1,.21,2.58,5.81,5.81,0,0,0,.3,4.15,3.47,3.47,0,0,1,.29.25v1.49c-1.25,1.87-1.28,4-1,6.2l0,.05v-.09a2,2,0,0,1,.39,1.4,20.36,20.36,0,0,1-.19,2.58,3.8,3.8,0,0,0,.94,3.05,4.56,4.56,0,0,0,2.35,1.17c.76.15.71-.12.59-.34s-.27-.49,0-.51h2.88l0,0c.06.32-.26.29-.48.35s-.55.06-.45.36a.54.54,0,0,0,.45.21,9.69,9.69,0,0,1,2.22-.15l1.13.07.56,0a4.24,4.24,0,0,0,.71,0,3.53,3.53,0,0,0,2.48-1.39,2.75,2.75,0,0,0,.43-2.6,1.79,1.79,0,0,1,.15-1.27,10.66,10.66,0,0,0,.1-6.18l0,0,0,0a5.07,5.07,0,0,0,.09-3.13c-.46-1.67-1.19-3.35,0-5a1,1,0,0,0,0-.91,3.69,3.69,0,0,1,0-2.39.83.83,0,0,0,0-.72,3.71,3.71,0,0,1-.07-3.86l.06.16a.06.06,0,0,0,0,0,.66.66,0,0,1,0-.15l0,0c.18-1.54-.1-3.11.3-4.63.09-.35.28-.83-.11-1-.21-.08-.55.26-.83.42h0v-1a.88.88,0,0,1,.12-.15c1.1-.73,1-1.66.4-2.68-.25-.44.09-.82.08-1.1-.09-1.57,1.11-3,.36-4.58-.12-.08-.31-.09-.26-.32,0-.06.17-.07.27-.1,0-.44-.08-.87-.09-1.31l0-1.27h1.31c.72,0,1.44,0,2.16-.07a25,25,0,0,0,4.29-.57c.11-.11.27-.22.39-.09s-.06.22-.18.29a2.21,2.21,0,0,0,1.25.69l.35,0h.25l0,0s0,0,.15,0a.66.66,0,0,0,.34.06.28.28,0,0,0,.22-.37,1.92,1.92,0,0,1-.19-.48,3.33,3.33,0,0,1-1.07-.36l0,0h1.42l.59,1.86a1.33,1.33,0,0,1-.13.4c-.76,1.12-.38,2.07.33,3a3.19,3.19,0,0,1,.76,2.23,3.38,3.38,0,0,0,.67,2.31,6.07,6.07,0,0,1,1.36,3.62c.12,3.67,2.23,6.59,3.2,9.92a36.16,36.16,0,0,1,1.37,5c.19,1.51,1.29,2.66,1.5,4.15a1.53,1.53,0,0,0,.45,0c.43.86-.21,1.69.13,2.54.07.16.21.39.32.4s.18-.21.18-.4-.28-.72.23-.64c0,0,.06,0,.08.05l.42,1.3c-.07.36-.22.72-.05,1,1.14,2,1,4.26,1.43,6.4l.9-.29h0c.05.13.13.23.18.35v0h0a3.22,3.22,0,0,0,1.07,1.29,3.51,3.51,0,0,1,.64,1,10.33,10.33,0,0,0,1,.46.9.9,0,0,0,.89-.09c.36-.3-.31-.45-.48-.79h.65a14.66,14.66,0,0,0,3.76.92c.38,0,.75.07,1.14.09l.57,0a3.76,3.76,0,0,0,.74-.06,3.82,3.82,0,0,0,2.49-1.59c.37-.58.38-.59-.25-.79a.31.31,0,0,1-.19-.18,3.33,3.33,0,0,0,.43-1.11c.55-.12.79-.76.83-1.43C456,195.51,456,195.62,455.17,195.86Zm-2-71.9-.06.14,0-.14Zm-1.07,12.72h0c.1.06,0,.26-.11.45Zm-4.27,10.41,0-.05c.08-.09.2-.1.2,0a1.5,1.5,0,0,1-.16.43A.28.28,0,0,1,447.81,147.09Zm-1.37,1.63a1.09,1.09,0,0,1-.71.72C446,149.2,446.21,149,446.44,148.72Zm-3.7,3c0,.17-.22.26-.38.35a.9.9,0,0,1-.36.12ZM403.92,112,404,112l0,.1Zm.52-7.46v2.22A2.48,2.48,0,0,1,404.44,104.58Zm0,11.18h0v0Zm0,11.9a.7.7,0,0,1-.13,0,3,3,0,0,1-.06-.32s.08,0,.12-.06A1.94,1.94,0,0,1,404.42,127.66Zm0-12c-.08-.47-.31-1,.05-1.37v.75Zm-.15,14.83c-.3-.19-.12-.53,0-.84l.23-.77v1.58A.15.15,0,0,1,404.24,130.52Zm0,41.67c0-.24.07-.31.17-.34v.57A.31.31,0,0,1,404.27,172.19Zm.15,26a1.61,1.61,0,0,1,0-.45,3.31,3.31,0,0,0,.18.84C404.52,198.64,404.45,198.52,404.42,198.23ZM406,96.08s-.11,0-.17,0l.09-.16c.06,0,.14-.05.17,0S406.17,96,406,96.08Zm8.51,105,.13,0,.09.08C414.64,201.23,414.55,201.21,414.53,201.1Zm3-7,.08.06-.09,0ZM417.2,193l-.07,0V193Zm23-71.65s-.09.06-.15,0-.1-.07-.14-.11c.15,0,.26,0,.29.05Zm0,7h-.1l.05,0Zm-.07-7.94c0,.09,0,.19,0,.29C440,120.67,440,120.56,440.1,120.46ZM440,119.1l0,.26c-.12,0-.11-.08-.11-.14A.17.17,0,0,1,440,119.1Zm-1.21-5.22c.11.3.23.59.32.9a.49.49,0,0,0-.11-.14A.71.71,0,0,1,438.74,113.88ZM435.56,96h.16c.26,0,.51,0,.56.29,0,0-.08.1-.17.14l-.45-.09a.42.42,0,0,1-.14-.22Zm-1.41,12.34s0,0-.07,0-.05-.06-.06-.11Zm-2.58-.94.26.07a.47.47,0,0,1,0,.14.35.35,0,0,1,0,.12c-.19.17-.25,0-.31-.29Zm-.05,0v0c-.14-.05-.32,0-.44-.1Zm-2.27-11.67-1,0H428A1.34,1.34,0,0,1,429.25,95.67ZM424.56,107H425a1.43,1.43,0,0,1,.1.28s-.07,0-.09,0-.33.22-.47-.1A.77.77,0,0,1,424.56,107Zm-.43,0c0,.18-.11.11-.17,0Zm-3.39,0a.59.59,0,0,1-.7,0Zm-2.92,0c0,.24,0,.3-.27,0Zm-.69,5.71a.31.31,0,0,1,.13-.06c.33,0,.45.07.49.16s-.08.15-.34.16a.66.66,0,0,1-.28,0Zm0,1.67c.11,0,.18,0,.15,0s-.08,0-.15.07Zm0,8.83.07,0h-.07Zm0,5.78c.11,0,.14.05.09.13s-.06.06-.09.09Zm0,7.65c.08,0,.17.05.17.07s-.07.09-.17.1Zm0,26.5v-.42c.11,0,.18,0,.15.16A.49.49,0,0,1,417.13,163.16Zm.28-5.26a.28.28,0,0,1-.28-.12V157c0-.09.08-.17.13-.19.33-.08.45.24.49.57S417.67,157.86,417.41,157.9Zm4.27-13.53a.36.36,0,0,1,0-.2c.06-.3.16-.11.25,0l.22.22Zm.81,0,0-.13a.3.3,0,0,1,.1-.07v.12Zm3.46,0v0Zm.21,0-.18,0c.14-.08.28-.31.4,0Zm.88-.43v-.08l0,0Zm1.53.42c.21-.43.43-.29.65,0C429,144.34,428.8,144.36,428.57,144.36Zm2.55,18.94.27.86C431.07,163.94,430.92,163.68,431.12,163.3Zm.71-19.35s0-.06-.06-.09l0-.1s0,0,0,0S431.88,144,431.83,144Zm1.88,27.44.73,2.29A6.15,6.15,0,0,1,433.71,171.39Zm3.41-30.85c-.13-.26.05-.27.22-.3Zm.69,43.65.18.56C437.77,184.67,437.77,184.41,437.81,184.19Zm.95,3.88a1,1,0,0,1-.1-.29c0-.55-.54-1-.39-1.56,0,0,.08-.06.16-.08l.49,1.52A1,1,0,0,1,438.76,188.07Zm-.71-49.5-.12-.06v0c0-.08,0-.15.25-.07a.45.45,0,0,1,.14.11l-.06.11A.49.49,0,0,1,438.05,138.57Zm2.1-8.42h-.22c-.32.33-.75.64-.71,1,0,.21.53.4.75.61a.94.94,0,0,0-.84.27c-.38.3.31.68.14,1a1.93,1.93,0,0,0-.2,2.39.18.18,0,0,1-.07.26,2.27,2.27,0,0,0-.77,1.33,1.36,1.36,0,0,1-1,1.14c-.15,0,0,.23.18.4s0,.26.39.46a.79.79,0,0,0,.25.08,9.12,9.12,0,0,1-.63,1c-.25-.41.13-.51-.35-1.06,0,.51-.5.61-.75.84s-.36.06,0,.5.36.58.34.72l-.11.13a.72.72,0,0,1-.56-.08c-.29-.12-.46-.24-.08.27s-.05.28-.25.21-.54-.29-.62-.16c-.19.31.31.44.48.65.05,0,.08,0,.13,0s-.11.11-.17.15c-.39-.06-.45.46-1.06-.09.05.26-.38,0,.11.73l-.2.13c-.76-.48-1,.17-1.68-.37-.19-.16-.34-.09-.24.38s.29.48.46.63l-.42.12c-.4-.49-.75-.93-1.05-.71a2.82,2.82,0,0,1-1.79.41c-1.36-.18-2.87.13-4.32-.05a1.12,1.12,0,0,0-1,.3c-.21.21-.29.67-.47,0-.07-.26-.15-.18-.24-.05-.24.35-.47.15-.69-.18a.61.61,0,0,0-.37-.31c-.46-.08-.89.74-1.35.36,0,0-.13.17-.13.22a2.33,2.33,0,0,1,0,.61h-.25l0-.06c-.13-.12-.27-.28-.37-.05,0,.06-.05.07-.07.11h-.34a3,3,0,0,1-.14-.59c-.06-.39-.21-.68-.32-.08-.14.77-.4.8-.57.05a.5.5,0,0,0-.46-.34c-.2,0-.13.06-.25.26a1.68,1.68,0,0,0-.13.62s0,.05,0,.08h-.37a4.47,4.47,0,0,1,.27-.8.07.07,0,0,1,0,0c.12-.25.35-.33.15-.32a5.6,5.6,0,0,0-.7.2c0,.08.05.12-.3.3v-.06a.84.84,0,0,1,.28-.23h0l0,0c0-.14-.16-.34-.28-.56v-.46c.47.07,1,.13.82-.15-.53-.68-.85-1.35-.1-2,.6-.53-.33-1.07.24-1.6.19-.17-.18-.27-.71-.28h0c.5-.39.74-.79.62-1.22-.22-.76.43-1.54-.07-2.31-.16-.24-.47-.5-.21-.75.43-.43.29-.82-.3-1.21l-.29-.08v-.43c1.24-.55,1.27-1.17,1-1.81h0v0c-.33-.11-.39-.25-.39-.41,0-.5.39-1,.39-1.5,0-.21-.14-.4-.1-.6.08-.35-.82,0-.91-.13v-.84h0c.31,0,.29.07.34.14s.06.16.37.13c.1,0,.23-.09.21-.13-.59-.86.78-1.76-.59-2.6-.18-.12,0-.24.15-.37a1.12,1.12,0,0,0,.1-1.8h0a.56.56,0,0,0,.09-.92c-.46-.48-1.19-1,0-1.47.18-.07.16-.17,0-.26-.29-.23-.25-.46,0-.7.08-.07.14-.13,0-.21-.75-.41-.76-.65-.07-1.12l.06,0a0,0,0,0,0,0,0s0,0,0,0h0c.18-.44-.1-.9.3-1.35.09-.1.28-.24-.11-.28a3.39,3.39,0,0,0-.83.12h0v-.3l.12,0c1.1-.21,1-.49.4-.78-.25-.13.09-.24.08-.32-.09-.46,1.11-.87.36-1.34-.12,0-.31,0-.26-.09a1.25,1.25,0,0,1,.27,0,3,3,0,0,1-.09-.38c-.09-1,.15-2.11-.68-3.14-.11,0-.21-.08-.09-.11a.37.37,0,0,1,.3,0c1-.26.73-.62.73-1,0-.08-.22-.13-.45-.14s-.34,0-.32.09c.11.25,0,.45-.37.63v-1a1.23,1.23,0,0,1,.25-.08c1.06-.24,1,.1.6-.3-.17-.16-.27-.32-.25-.37a.85.85,0,0,1,.3.21c.28.25.27.4.25.07s.24-.4.43-.42a.75.75,0,0,1,.54.23c1,1,2-.12,3,0a3.12,3.12,0,0,1,1.52.22c.43.27.85-.42,1.28-.16l.05-.42c.28-.15.45.71.72.64a.2.2,0,0,0,.14-.17.32.32,0,0,0-.1-.31c-.07-.08-.22.06-.16-.41,0,0,0,0,.05-.06h.38c.09.18.17.43.28.36.66-.47,1.27.37,1.9.6v-1c.23,0,.43,0,.65,0a1.23,1.23,0,0,1,.21.62c.17.07.3.63.48.2s0-.45-.06-.78h.19a3.34,3.34,0,0,0,.92,1,2.23,2.23,0,0,0,1.22.26c.15,0,.15,0,.3-.6a.55.55,0,0,1,.09-.23l.32.1a1.71,1.71,0,0,0,0,1c.09.41.09.4.4-.37.13-.34.18-.28.22-.2a.93.93,0,0,1,.16.4c.05.85.49.77,1,.74l0,0a.7.7,0,0,0,.48.61.26.26,0,0,0,.21-.07.89.89,0,0,0,.3-.47s0-.08,0-.12a2.73,2.73,0,0,1,.25.23c-.2.71-.31,1.24-.06,1.49.08.09,0,.4.34.17s.37-.49.62-.78l.05.06c0,.38,0,.8.33.92.56.3-.89,1.66.89,1.22,0,0,0,.07,0,.12-.76,1,.18,1.26.08,2a2.24,2.24,0,0,0,.43,1.33,1.72,1.72,0,0,1,.36,1.38.77.77,0,0,0,.08.42c0,.19.43.15.89.06a.09.09,0,0,0,0,0c-.58.82-1,1.55-.3,2.22h0c-.42.48-.65.91-.19,1.34.23.21.14.5.07.75a17.13,17.13,0,0,0-.05,2.58,2.39,2.39,0,0,0,.21,1.7,1.49,1.49,0,0,1,.22,1.55c-.38.63,0,1.31-.59,1.9-.14.14,0,.3.68.25.22-.2-.2-.46.19-.67a.53.53,0,0,1,.23.13C440.19,129.75,440.17,130,440.15,130.15Zm-22.65-4.31.1,0c.07,0,0,.05-.08.05Zm.06-2.25v0l.08,0Zm22.72,1.09c-.11,0-.09-.07,0-.14v.14Zm4.26,40.94a5.45,5.45,0,0,0,.25.55,7.58,7.58,0,0,1,.8,2.55Zm6.22,35.14h1.13a3.29,3.29,0,0,0,.44,0v0A8.23,8.23,0,0,1,450.76,200.76Zm1.63,0,.17-.09a3.11,3.11,0,0,0,.69-.23,2.4,2.4,0,0,1,.4-.06s.09.09.07.11A1.06,1.06,0,0,1,452.39,200.77Zm1.48-7.51-.17-.5a.44.44,0,0,1,.13.14A.78.78,0,0,1,453.87,193.26Z"/>
            <path class="cls-1" d="M401.76,148.08v0Z"/>
            <path class="cls-1"
                  d="M52.32,195.86c-.34.12-.38-.1-.41-.34a4.65,4.65,0,0,1-.06-1.11A6.45,6.45,0,0,0,50.54,190l0,0a7.71,7.71,0,0,0-.67-2.72.77.77,0,0,0-.33-.39c-.26-.07-.4.15-.45.39a1.55,1.55,0,0,0,0,.21l-.37-1.1a6.56,6.56,0,0,0-.08-3.77c-.16-.45-.11-1.15-.59-1.26s-.4.68-.71,1l-.08-.24a8.75,8.75,0,0,0-.73-3.19c-.88-1.57.43-3.94-1.82-5-.05,0-.08-.25-.07-.35.41-2.32-1-4.3-1.46-6.49-.62-3.3-2.64-6.2-3.3-9.55a9.2,9.2,0,0,0-.47-1.43c-.23-.65-.63-.61-1.06-.43l-.06-.17c0-.58-.07-1.21-.1-1.71a1.39,1.39,0,0,1,.05-.46l.48-.1a6.81,6.81,0,0,0,1.72-.91A6.52,6.52,0,0,0,42,151v0a6.07,6.07,0,0,0,3.59-3.18,16.23,16.23,0,0,1,1.51-2.3c1.8-2.6,2.52-5.72,3.19-8.69a17.43,17.43,0,0,0,.57-6,20.83,20.83,0,0,1-.08-5.4c.3-2.28-.14-4.54.17-6.8.09-.56-.09-1.08-.75-.64-.14.76.37,1.54.05,2.37a1,1,0,0,1-.24-.34c-.05-.71-.12-1.41-.19-2.09a.67.67,0,0,1,.21-.09,12,12,0,0,0,.08-3.79c-.21-.71-.83-1.09-1.21-1.64.51-.32.46-.83.48-1.46-.08-1.28-1-2.06-1.36-3.15-.7-2.74-2.21-5.54-4.85-6.87a2,2,0,0,1-.69-.66,9.43,9.43,0,0,0-2-1.86A18.14,18.14,0,0,0,38,97.22c-1.7-.69-3.41-1.21-5.06-2a1.23,1.23,0,0,0-1.1.15c-.3.14-.88,0-.9.4a.39.39,0,0,0,.13.28,39.15,39.15,0,0,0-4.17-.33c.7-.39,1.71-.1,2.58-.68a29.49,29.49,0,0,1-4.24-.37c-.53,0-1.08-.25-1.54.31a1.92,1.92,0,0,1-1,.71h-.85a2.86,2.86,0,0,1-1-.46c-.41-.28-.59-.48-.87.14-.21.46-.8.18-1.16,0s-.79-.57-1.35-.53c-1.29.1-.11.53-.14.8.14,0,.3,0,.44.06h-.8c-.94-.27-2.11.13-2.89-.67-.33.25-1.27-.17-1,.67h-.81c-1.54-.75-3.41-.28-5-1-.45-.22-1.13-.2-1.31.29s.46.54.83.73H5.25a3,3,0,0,0-1-.54,2.37,2.37,0,0,0-2.38.81,4.45,4.45,0,0,0-.94,1.91,4.57,4.57,0,0,0-.09,1l0,.85c0,1.12,0,2.25-.05,3.39-.27,5,.09,10-.11,15a11.73,11.73,0,0,0,.3,3.42c.21.7.67,1,0,1.6-.27.24-.19.52,0,.83a2.86,2.86,0,0,1-.19,2.36,3.88,3.88,0,0,0-.31,1.27c-.08,1.56.74,3,.36,4.63,0,.12.18.45.23.43a.77.77,0,0,1,.61,0v.83a.82.82,0,0,0-.06.19c-.13.44-.29.93-.06,1.28a2.39,2.39,0,0,1,.12.22v1.17a2.18,2.18,0,0,1-.6.48c-.39.22-.68.71-.07,1.09a1.13,1.13,0,0,1,0,2c-.41.31-.48,2.88-.08,3.11a.49.49,0,0,0,.61-.14s.05-.1.09-.15v1.31a2.63,2.63,0,0,0-.8,1.39,15,15,0,0,0-.19,3.91l.68-.29c0-.29,0-.65.31-.75v.23a1.34,1.34,0,0,1-.28.51,11.31,11.31,0,0,0,.28,2.17v1.59c-.48-.26-1-.44-.83.51a12.55,12.55,0,0,1,.11,6.9c-.61,1.84.33,3.69-.24,5.5-.19.59.17.92.71,1h0a9.32,9.32,0,0,0-.62,4.17c.21,2.64-.43,5.29.07,7.93A5.39,5.39,0,0,1,1,181.35a5.76,5.76,0,0,0,.3,4.15,3.47,3.47,0,0,1,.29.25v1.49c-1.25,1.87-1.28,4-1,6.2l0,.05v-.09A2,2,0,0,1,1,194.8a22.39,22.39,0,0,1-.19,2.58,3.8,3.8,0,0,0,.94,3.05,4.56,4.56,0,0,0,2.35,1.17c.76.15.71-.12.59-.34s-.27-.49,0-.51H7.56l0,0c.06.32-.26.29-.47.35s-.55.06-.45.36a.53.53,0,0,0,.45.21,9.69,9.69,0,0,1,2.22-.15l1.12.07.57,0a4.27,4.27,0,0,0,.71,0,3.53,3.53,0,0,0,2.48-1.39,2.75,2.75,0,0,0,.43-2.6,1.79,1.79,0,0,1,.15-1.27,10.75,10.75,0,0,0,.1-6.18l0,0,0,0a5.07,5.07,0,0,0,.09-3.13c-.46-1.67-1.2-3.35,0-5a1,1,0,0,0,0-.91,3.63,3.63,0,0,1,0-2.39.83.83,0,0,0,0-.72,3.71,3.71,0,0,1-.07-3.86l.06.16a.06.06,0,0,0,0,0,.66.66,0,0,1,0-.15l0,0c.18-1.54-.1-3.11.3-4.63.09-.35.27-.83-.11-1-.21-.08-.55.26-.84.42h0v-1a.57.57,0,0,1,.12-.15c1.1-.73,1-1.66.4-2.68-.25-.44.09-.82.08-1.1-.09-1.57,1.11-3,.36-4.58-.12-.08-.32-.09-.26-.32,0-.06.17-.07.27-.1,0-.44-.08-.87-.09-1.31l0-1.27h1.32c.72,0,1.44,0,2.16-.07a25,25,0,0,0,4.29-.57c.11-.11.27-.22.39-.09s-.06.22-.18.29a2.21,2.21,0,0,0,1.25.69l.35,0H25l0,0s0,0,.15,0a.65.65,0,0,0,.34.06.28.28,0,0,0,.22-.37,1.92,1.92,0,0,1-.19-.48,3.33,3.33,0,0,1-1.07-.36l-.06,0H25.8l.59,1.86a1.33,1.33,0,0,1-.13.4c-.76,1.12-.38,2.07.33,3a3.19,3.19,0,0,1,.76,2.23,3.42,3.42,0,0,0,.66,2.31A6,6,0,0,1,29.38,169c.12,3.67,2.23,6.59,3.19,9.92A34.85,34.85,0,0,1,34,184c.19,1.51,1.29,2.66,1.5,4.15a1.53,1.53,0,0,0,.45,0c.43.86-.21,1.69.13,2.54.07.16.21.39.32.4s.18-.21.18-.4-.28-.72.23-.64c0,0,.06,0,.08.05l.42,1.3c-.07.36-.22.72,0,1,1.14,2,1,4.26,1.42,6.4l.91-.29h0c.05.13.13.23.18.35v0h0a3.14,3.14,0,0,0,1.07,1.29,3.51,3.51,0,0,1,.64,1,9.43,9.43,0,0,0,1.05.46.9.9,0,0,0,.89-.09c.36-.3-.31-.45-.48-.79h.65a14.66,14.66,0,0,0,3.76.92c.38,0,.75.07,1.13.09l.58,0a3.82,3.82,0,0,0,.74-.06,3.77,3.77,0,0,0,2.48-1.59c.38-.58.39-.59-.24-.79a.31.31,0,0,1-.19-.18,3.33,3.33,0,0,0,.43-1.11c.55-.12.79-.76.83-1.43C53.12,195.51,53.11,195.62,52.32,195.86Zm-2-71.9-.06.14-.05-.14Zm-1.07,12.72h0c.1.06,0,.26-.11.45ZM45,147.09l0-.05c.08-.09.21-.1.21,0a1.5,1.5,0,0,1-.16.43A.28.28,0,0,1,45,147.09Zm-1.37,1.63a1.08,1.08,0,0,1-.72.72C43.12,149.2,43.36,149,43.59,148.72Zm-3.7,3c0,.17-.22.26-.39.35a.81.81,0,0,1-.35.12ZM1.07,112l.05-.09,0,.1Zm.52-7.46v2.22A2.48,2.48,0,0,1,1.59,104.58Zm0,11.18h0v0Zm0,11.9a.7.7,0,0,1-.13,0c0-.1-.05-.21-.07-.32a.85.85,0,0,1,.13-.06C1.52,127.44,1.55,127.55,1.57,127.66Zm0-12c-.08-.47-.31-1,.05-1.37v.75Zm-.15,14.83c-.3-.19-.12-.53,0-.84l.23-.77v1.58A.15.15,0,0,1,1.39,130.52Zm0,41.67c0-.24.08-.31.18-.34v.57A.32.32,0,0,1,1.41,172.19Zm.16,26a1.61,1.61,0,0,1,0-.45,2.93,2.93,0,0,0,.18.84C1.67,198.64,1.59,198.52,1.57,198.23ZM3.17,96.08s-.11,0-.17,0l.09-.16c.06,0,.14-.05.17,0S3.32,96,3.17,96.08Zm8.51,105,.13,0a.57.57,0,0,1,.08.08C11.79,201.23,11.7,201.21,11.68,201.1Zm3-7,.08.06-.09,0ZM14.35,193l-.07,0V193Zm23-71.65s-.09.06-.15,0-.1-.07-.14-.11c.15,0,.26,0,.29.05Zm0,7h-.1l.05,0Zm-.07-7.94c0,.09,0,.19,0,.29C37.12,120.67,37.1,120.56,37.25,120.46Zm-.15-1.36,0,.26c-.12,0-.12-.08-.11-.14A.17.17,0,0,1,37.1,119.1Zm-1.21-5.22c.11.3.23.59.32.9a.49.49,0,0,0-.11-.14A.71.71,0,0,1,35.89,113.88ZM32.71,96h.16c.25,0,.51,0,.56.29,0,0-.08.1-.17.14l-.45-.09a.42.42,0,0,1-.14-.22ZM31.3,108.29l-.07,0c-.05,0-.06-.06-.06-.11Zm-2.58-.94.26.07a1.27,1.27,0,0,1,0,.14.35.35,0,0,1,0,.12c-.19.17-.25,0-.31-.29Zm0,0v0c-.14-.05-.32,0-.45-.1ZM26.4,95.67l-1,0h-.17A1.34,1.34,0,0,1,26.4,95.67ZM21.71,107h.47a2.68,2.68,0,0,1,.1.28s-.07,0-.09,0-.33.22-.47-.1C21.7,107.18,21.71,107.1,21.71,107Zm-.43,0c0,.18-.11.11-.17,0Zm-3.39,0a.59.59,0,0,1-.7,0ZM15,107c0,.24,0,.3-.27,0Zm-.69,5.71a.31.31,0,0,1,.13-.06c.33,0,.45.07.48.16s-.08.15-.33.16a.66.66,0,0,1-.28,0Zm0,1.67c.11,0,.18,0,.15,0a.3.3,0,0,1-.15.07Zm0,8.83.07,0h-.07Zm0,5.78c.11,0,.13.05.09.13s-.06.06-.09.09Zm0,7.65c.08,0,.17.05.17.07s-.07.09-.17.1Zm0,26.5v-.42c.11,0,.18,0,.15.16A.49.49,0,0,1,14.28,163.16Zm.28-5.26a.28.28,0,0,1-.28-.12V157c0-.09.08-.17.13-.19.33-.08.45.24.48.57S14.81,157.86,14.56,157.9Zm4.26-13.53a.53.53,0,0,1,0-.2c.06-.3.16-.11.25,0l.22.22Zm.82,0,0-.13a.23.23,0,0,1,.1-.07v.12Zm3.46,0v0Zm.21,0-.18,0c.14-.08.28-.31.4,0Zm.88-.43v-.08l0,0Zm1.53.42c.21-.43.43-.29.65,0C26.15,144.34,26,144.36,25.72,144.36Zm2.54,18.94.28.86A.61.61,0,0,1,28.26,163.3ZM29,144s0-.06-.06-.09l0-.1s0,0,0,0S29,144,29,144Zm1.88,27.44.73,2.29A6.15,6.15,0,0,1,30.86,171.39Zm3.41-30.85c-.13-.26,0-.27.22-.3ZM35,184.19l.18.56C34.92,184.67,34.91,184.41,35,184.19Zm.95,3.88a1,1,0,0,1-.1-.29c0-.55-.54-1-.4-1.56,0,0,.09-.06.17-.08l.49,1.52A1.16,1.16,0,0,1,35.91,188.07Zm-.71-49.5-.12-.06v0c0-.08,0-.15.25-.07a.33.33,0,0,1,.13.11.54.54,0,0,1-.05.11A.49.49,0,0,1,35.2,138.57Zm2.1-8.42h-.22c-.32.33-.75.64-.71,1,0,.21.53.4.75.61a.94.94,0,0,0-.84.27c-.38.3.31.68.14,1a1.94,1.94,0,0,0-.21,2.39.17.17,0,0,1-.06.26,2.27,2.27,0,0,0-.77,1.33,1.36,1.36,0,0,1-1,1.14c-.15,0,0,.23.18.4s0,.26.39.46a.79.79,0,0,0,.25.08,10.8,10.8,0,0,1-.63,1c-.25-.41.13-.51-.35-1.06,0,.51-.5.61-.75.84s-.36.06,0,.5.36.58.33.72a1.13,1.13,0,0,1-.1.13.72.72,0,0,1-.56-.08c-.29-.12-.46-.24-.09.27s0,.28-.24.21-.54-.29-.62-.16c-.19.31.31.44.48.65.05,0,.08,0,.13,0s-.11.11-.17.15c-.39-.06-.45.46-1.06-.09.05.26-.38,0,.1.73l-.19.13c-.76-.48-1,.17-1.68-.37-.19-.16-.34-.09-.24.38s.29.48.46.63c-.14.05-.28.08-.42.12-.4-.49-.75-.93-1-.71a2.83,2.83,0,0,1-1.8.41c-1.35-.18-2.87.13-4.32-.05a1.1,1.1,0,0,0-1,.3c-.21.21-.29.67-.47,0-.07-.26-.15-.18-.24-.05-.24.35-.47.15-.69-.18a.61.61,0,0,0-.37-.31c-.46-.08-.89.74-1.35.36,0,0-.13.17-.13.22a2.9,2.9,0,0,1,0,.61h-.25l-.05-.06c-.13-.12-.27-.28-.37-.05,0,.06-.05.07-.07.11h-.34a3,3,0,0,1-.14-.59c-.06-.39-.21-.68-.32-.08-.14.77-.41.8-.57.05a.51.51,0,0,0-.46-.34c-.21,0-.14.06-.25.26a1.71,1.71,0,0,0-.14.62l0,.08h-.37a4.47,4.47,0,0,1,.27-.8.07.07,0,0,1,0,0c.12-.25.34-.33.14-.32a6,6,0,0,0-.69.2c0,.08.05.12-.3.3v-.06a.84.84,0,0,1,.28-.23h0l0,0c0-.14-.16-.34-.28-.56v-.46c.47.07,1,.13.82-.15-.53-.68-.85-1.35-.1-2,.6-.53-.33-1.07.24-1.6.19-.17-.18-.27-.71-.28h0c.51-.39.75-.79.63-1.22-.22-.76.43-1.54-.07-2.31-.17-.24-.47-.5-.22-.75.44-.43.3-.82-.29-1.21l-.29-.08v-.43c1.24-.55,1.27-1.17,1-1.81h0v0c-.33-.11-.39-.25-.4-.41,0-.5.4-1,.4-1.5,0-.21-.14-.4-.1-.6.08-.35-.82,0-.91-.13v-.84h0c.31,0,.29.07.34.14s.06.16.37.13c.1,0,.23-.09.21-.13-.59-.86.78-1.76-.59-2.6-.19-.12,0-.24.15-.37a1.12,1.12,0,0,0,.1-1.8h0a.56.56,0,0,0,.09-.92c-.46-.48-1.2-1,0-1.47.18-.07.16-.17,0-.26-.29-.23-.26-.46,0-.7.08-.07.14-.13,0-.21-.75-.41-.76-.65-.07-1.12l.06,0a0,0,0,0,0,0,0s0,0,0,0h0c.18-.44-.1-.9.3-1.35.09-.1.27-.24-.11-.28a3.53,3.53,0,0,0-.84.12h0v-.3l.12,0c1.1-.21,1-.49.4-.78-.25-.13.09-.24.08-.32-.09-.46,1.11-.87.36-1.34-.12,0-.32,0-.26-.09a1.25,1.25,0,0,1,.27,0,3,3,0,0,1-.09-.38c-.09-1,.15-2.11-.68-3.14-.11,0-.22-.08-.09-.11a.34.34,0,0,1,.29,0c1-.26.74-.62.74-1,0-.08-.22-.13-.45-.14s-.34,0-.32.09c.11.25,0,.45-.37.63v-1a1.23,1.23,0,0,1,.25-.08c1.06-.24,1,.1.6-.3-.17-.16-.27-.32-.25-.37a.85.85,0,0,1,.3.21c.28.25.27.4.25.07s.24-.4.43-.42a.75.75,0,0,1,.54.23c1,1,2-.12,3,0a3.06,3.06,0,0,1,1.51.22c.44.27.86-.42,1.29-.16l.05-.42c.28-.15.45.71.72.64a.21.21,0,0,0,.14-.17.35.35,0,0,0-.1-.31c-.07-.08-.22.06-.16-.41,0,0,0,0,0-.06h.38c.1.18.18.43.29.36.66-.47,1.27.37,1.9.6v-1c.23,0,.43,0,.65,0a1.34,1.34,0,0,1,.21.62c.17.07.3.63.48.2s0-.45-.06-.78H27a3.34,3.34,0,0,0,.92,1,2.23,2.23,0,0,0,1.22.26c.15,0,.14,0,.3-.6a.55.55,0,0,1,.09-.23l.32.1a1.71,1.71,0,0,0,0,1c.08.41.09.4.4-.37.13-.34.18-.28.22-.2a.82.82,0,0,1,.15.4c.06.85.49.77,1,.74l0,0a.7.7,0,0,0,.48.61.26.26,0,0,0,.21-.07.89.89,0,0,0,.3-.47s0-.08,0-.12a2.73,2.73,0,0,1,.25.23c-.2.71-.31,1.24-.06,1.49.08.09,0,.4.34.17s.37-.49.62-.78l0,.06c0,.38,0,.8.33.92.56.3-.88,1.66.89,1.22,0,0,0,.07,0,.12-.76,1,.18,1.26.08,2a2.24,2.24,0,0,0,.43,1.33,1.72,1.72,0,0,1,.36,1.38.87.87,0,0,0,.07.42c.05.19.44.15.89.06v0c-.57.82-.95,1.55-.3,2.22h0c-.42.48-.65.91-.19,1.34.23.21.14.5.07.75a17.13,17.13,0,0,0-.05,2.58,2.39,2.39,0,0,0,.21,1.7,1.51,1.51,0,0,1,.22,1.55c-.38.63,0,1.31-.59,1.9-.14.14,0,.3.68.25.22-.2-.2-.46.19-.67a.53.53,0,0,1,.23.13C37.34,129.75,37.32,130,37.3,130.15Zm-22.65-4.31.09,0c.08,0,0,.05-.07.05S14.65,125.85,14.65,125.84Zm.06-2.25v0l.08,0Zm22.71,1.09c-.1,0-.08-.07,0-.14a.66.66,0,0,1,0,.14Zm4.27,40.94a5.45,5.45,0,0,0,.25.55,7.58,7.58,0,0,1,.8,2.55Zm6.22,35.14H49a3,3,0,0,0,.43,0v0A8.23,8.23,0,0,1,47.91,200.76Zm1.63,0,.17-.09a3.29,3.29,0,0,0,.69-.23,2.4,2.4,0,0,1,.4-.06s.08.09.07.11A1.07,1.07,0,0,1,49.54,200.77ZM51,193.26l-.17-.5a.44.44,0,0,1,.13.14A.78.78,0,0,1,51,193.26Z"/>
            <path class="cls-1"
                  d="M516.29,174.86h0a2.9,2.9,0,0,0-1.44-.91,3.73,3.73,0,0,0-.88-.12l-.71,0a.77.77,0,0,0-.47.19c-.15.22,0,.43.23.55l.18.11h-1.16a6.41,6.41,0,0,0-3.61-1.13c-.27,0-.47-.08-.83-.07a.76.76,0,0,0-.77.34c-.22.5.74.45.9.86l-.37,0A3,3,0,0,0,506,175a2.25,2.25,0,0,0-1.31,1.39c-.16.47-.3.9-.46,1.39s-.37.84-.56,1.25a2.49,2.49,0,0,0,0,2.63c0,.05-.06.25-.15.32a10.32,10.32,0,0,0-1.82,2.64,6.84,6.84,0,0,1-1.89,2.45,14.93,14.93,0,0,1-3.92,2.24,7.77,7.77,0,0,1-4.7.23c-.45-.13-.92-.18-1.37-.3s-.81.14-.95.59l-.17-.08c-2-1.58-3.13-3.39-4.75-5.32h0a12.13,12.13,0,0,0-1.21-4.28,6.29,6.29,0,0,1-.52-2.51c-.22-2.93-.66-5.88-.73-8.87a29.81,29.81,0,0,0-.43-5.88,15.66,15.66,0,0,1-.34-5.35c.32-2.25-.1-4.52.44-6.72.13-.54,0-1.07-.7-.7-.2.74.25,1.56-.14,2.36a1.12,1.12,0,0,1-.23-.39c0-.68,0-1.37,0-2.08l.22-.07a12.49,12.49,0,0,0,.63-3.7c0-.72-.55-1.21-.8-1.84.56-.19.63-.68.8-1.28.35-1.21-.38-2.23-.24-3.35.36-2.79.67-5.55-.1-8.32a1.84,1.84,0,0,1,0-.93c1-3.4.13-7.15,1.62-10.39a1.27,1.27,0,0,0-.18-1c-.15-.29,0-.85-.41-.89a.39.39,0,0,0-.3.13,28.64,28.64,0,0,1,1-4.13c.21.78-.34,1.7.19,2.65a9,9,0,0,1,1.33-3.78c.21-.46.62-.8.35-1.44a1.63,1.63,0,0,1-.08-1.27q.19-.3.39-.57l.07-.08a2.16,2.16,0,0,1,1-.48c.48-.1.71,0,.5-.69s.49-.65.89-.69.92.09,1.36-.18c1-.59-.12-.54-.23-.78a3,3,0,0,0-.39.13l.73-.34c1-.14,2-.77,2.84-.08.28-.3,1.2.06.95-.75.27,0,.53,0,.81,0a12.25,12.25,0,0,0,2.33.71,3.66,3.66,0,0,1,2.09,1.17.87.87,0,0,0,1.19.32c.45-.34-.06-.68-.31-1a9.87,9.87,0,0,1,1.25.8,6.07,6.07,0,0,0,1.27,2.71,10.9,10.9,0,0,1,2.44,5.83l.19,1.81a5.27,5.27,0,0,0,.47,2.15,4.2,4.2,0,0,0,3.94,2.22l3.77,0h1.89a4.47,4.47,0,0,0,2.26-.45,3.66,3.66,0,0,0,1.62-1.59,3.07,3.07,0,0,0,.29-2c-.25-.83-.77-1-.15-1.68.24-.28.11-.55-.07-.85a3.24,3.24,0,0,1-.24-2.42,3.36,3.36,0,0,0,0-1.34c-.32-1.61-1.56-2.79-1.84-4.44,0-.13-.35-.35-.39-.32-.28.21-.45.26-.58.23-.1-.23-.21-.45-.31-.68s0-.19-.05-.27c-.08-.46-.17-1-.55-1.16l-.22-.14c-.2-.34-.39-.69-.61-1a2.58,2.58,0,0,1,.25-.72c.2-.39.14-1-.58-1a1.22,1.22,0,0,1-1.33-1.54c.12-.53-1.82-2.46-2.28-2.26a.5.5,0,0,0-.28.57,1.27,1.27,0,0,0,.06.18c-.33-.28-.68-.55-1-.81a2.5,2.5,0,0,0-.72-1.49,9.21,9.21,0,0,0-3.54-2l0,.74c.26.14.64.22.57.6h0l-.11,0a1.32,1.32,0,0,1-.45-.52,8.48,8.48,0,0,0-2.26-.5c-.47-.14-.95-.27-1.45-.38.37-.39.72-.93-.31-.93-2.47,0-4.73.2-7.07-.49-1.94-.55-3.74.58-5.66.44-.65-.05-.9.39-.79.92h0a7,7,0,0,0-4.23.91c-2.35,1.34-5,2.55-6.57,4.91-.51.73-.8,1.65-1.58,2.16a5.86,5.86,0,0,0-1.44,1.68,6.27,6.27,0,0,0-.54,2.08,2.75,2.75,0,0,1,.15.36c-.21.44-.42.9-.61,1.37-1.86,1.27-2.59,3.48-2.76,5.73v0a2.3,2.3,0,0,1,.1,1.47c-.3,1.73-.91,3.38-1.11,5.14-.07.7,0,1.39-.09,2.08-.18,1.18.83,0,.87.51-.07.93-.13,1.91-.19,2.91,0,0,0,0,0,0-.32,0-.28-.28-.32-.5s0-.56-.34-.48a.57.57,0,0,0-.23.44c.4,3-1,6.06.25,9,.19.4,0,.82-.16,1.25a10.6,10.6,0,0,0-.16,6.21l0,0,0,0a5,5,0,0,0-.09,3.14c.45,1.68,1.18,3.36,0,5.06a1,1,0,0,0,0,.9,3.72,3.72,0,0,1,0,2.4.86.86,0,0,0,0,.72,3.76,3.76,0,0,1,.11,3.88l-.06-.16s0,0,0,0,0,.11.05.16v0c-.15,1.54.14,3.11-.21,4.65-.08.35-.26.85.13,1,.21.08.54-.27.82-.43h0c0,.34,0,.69,0,1a.42.42,0,0,1-.12.15c-1.08.76-.91,1.7-.3,2.71.27.43-.05.83,0,1.11.17,1.56-1,3.07-.07,4.63.12.07.32.06.29.3,0,.06-.17.09-.26.13.07.43.15.86.2,1.3.45,3.58.78,7.36,2.64,10.55.14.08.3.2.22.35s-.23,0-.35-.08c-.61,1.15,0,2.33.56,3.42a.51.51,0,0,0,.61.27.29.29,0,0,0,.16-.44,3.07,3.07,0,0,1-.5-2.13A25.46,25.46,0,0,0,472,190a1.63,1.63,0,0,1-.08.37c-.55,1.28.15,2.18,1.13,2.9a3.63,3.63,0,0,1,1.59,1.85,3.24,3.24,0,0,0,1.73,1.8,9,9,0,0,1,3.33,2.24,9.37,9.37,0,0,0,4.82,2.55c1.78.4,3.58.5,5.34.72s3.55.11,5.32.32c1.57.19,3-.68,4.49-.76a2.29,2.29,0,0,0,.07-.44c.9-.35,1.72.3,2.62-.07.17-.07.4-.22.41-.34s-.23-.16-.43-.16-.72.3-.65-.22a.17.17,0,0,1,.07-.1c.42-.14.83-.29,1.23-.46.39,0,.77.18,1.08-.05,1.87-1.37,4-1.89,5.9-3.28l-.65-.7a19.54,19.54,0,0,0,1.56-1.59,1.69,1.69,0,0,1,1-.28c.44-.43,1.28-.66,1.24-1.36,0-.48-.56,0-.94,0l.37-.54a11.45,11.45,0,0,0,4.33-7.36c.09-.55.14-.56-.52-.61a.3.3,0,0,1-.23-.11c.1-.38.2-.77.29-1.15.57-.09.87-.59,1.16-1.06.51-.81.5-.85-.32-1-.35-.06-.29-.27-.2-.5a5,5,0,0,1,.45-1,4.12,4.12,0,0,0,.53-1.1,2.72,2.72,0,0,0,0-1.42A3.25,3.25,0,0,0,516.29,174.86Zm0-62.58a2.64,2.64,0,0,1,.15.29s-.07.06-.11.09-.11-.2-.15-.3A.38.38,0,0,1,516.28,112.28Zm-.76-2.73c.34.08.29.47.3.79v.84c-.15-.51-.31-1-.49-1.52A.15.15,0,0,1,515.52,109.55Zm-2.39,12,0,0v0Zm-.71,0,.62,0c-.47.08-1,.31-1.38,0Zm-3,.44,0,.07-.08,0Zm-5-4.38q.08.53.12,1.05a3.06,3.06,0,0,0,.32,1.09,1.36,1.36,0,0,1-.57-1.28A5,5,0,0,1,504.38,117.63Zm-3.21-8.38a.48.48,0,0,1,0,.17l-.16-.06s-.08-.12-.06-.15S501.08,109.11,501.17,109.25ZM483,112.54a1.64,1.64,0,0,1-.49,1.25C482.64,113.35,482.81,112.94,483,112.54Zm-1.85,7.5a.42.42,0,0,1,.24-.18l.13,0v.16c0,.25,0,.5-.27.57,0,0-.12-.09-.16-.18Zm-.47-22.81c.23-.13.33-.09.4,0-.17.09-.35.17-.52.27A.34.34,0,0,1,480.66,97.23ZM467,138.33l-.08-.06.09,0Zm.13-7.77c-.07-.11,0-.18.08-.18s0,.09,0,.13Zm.3,8.91-.07-.05.07,0Zm.32,29.93c0,.14,0,.27,0,.41s-.17,0-.16-.15A.51.51,0,0,1,467.78,169.4Zm.36,6.37c-.31.12-.48-.19-.55-.51s0-.51.29-.57a.26.26,0,0,1,.29.09c0,.26.05.53.08.79C468.22,175.66,468.19,175.75,468.14,175.77Zm.24-56.13c-.11,0-.11-.19,0-.45a2.55,2.55,0,0,1,.13-.29C468.43,119.14,468.41,119.39,468.38,119.64Zm7.22,75.22.66.67C475.86,195.49,475.58,195.31,475.6,194.86Zm4.68-38.73,0-.14h.11Zm.23,13.15c0-.16,0-.32,0-.48h0C480.62,168.84,480.61,169.05,480.51,169.28Zm1.3,10.81v0c0-.14.06-.25.13-.18a1.32,1.32,0,0,1,.22.39A.27.27,0,0,1,481.81,180.09Zm.91,3c-.12-.31-.23-.63-.34-1A1.19,1.19,0,0,1,482.72,183.12Zm.32,17c-.18-.1-.35-.21-.52-.32a20.67,20.67,0,0,0,2.21.85A4.39,4.39,0,0,1,483,200.12Zm1.51-13.59-.05-.08a.72.72,0,0,1,.38.35.87.87,0,0,1,.17.33C484.88,186.93,484.71,186.74,484.55,186.53Zm11.15,15.26.59-.07C496.17,201.92,495.91,201.88,495.7,201.79Zm3.71-.24c-.55,0-1.07.43-1.62.19,0,0-.05-.1-.05-.18.53-.08,1-.18,1.55-.29a1.38,1.38,0,0,1,.42.21A.82.82,0,0,1,499.41,201.55Zm2-14.87A10.07,10.07,0,0,1,499,188.9a2.82,2.82,0,0,0,.46-.38,26.59,26.59,0,0,1,2-1.86Zm13.3,1.8c.21-.48.39-1,.57-1.48l0,0A12.08,12.08,0,0,1,514.68,188.48Zm.65-1.5c0-.07,0-.14,0-.2.1-.27.21-.52.3-.79a1,1,0,0,1,.2-.21s.12,0,.12,0A1.29,1.29,0,0,1,515.33,187Zm1.94-8.85a3.21,3.21,0,0,0,0-.54.26.26,0,0,1,.09.17A.54.54,0,0,1,517.27,178.13Z"/>
            <path class="cls-1" d="M466.59,148.07a.86.86,0,0,0,0,.16h.12v-.07l.05.13c0-.11.09-.26-.11-.27l0,.05Z"/>
            <path class="cls-1" d="M466.42,148.18l.05,0,0,0Z"/>
            <path class="cls-1" d="M466.36,148.11a.4.4,0,0,0,0,.11l.06-.15Z"/>
            <path class="cls-1"
                  d="M567.89,188.68a4.34,4.34,0,0,0-1.58-.19l-1.29.06a17.06,17.06,0,0,1-2.57-.11,11.15,11.15,0,0,0-1.53,0c-.7,0-.79.4-.76.87H560a15.28,15.28,0,0,0-7.57-.6l0,0a8.44,8.44,0,0,0-4.68-.31,8.17,8.17,0,0,1-2.66,0c-.56,0-1.12-.08-1.68-.1h-.64l0-1.84c0-1,0-1.92,0-2.88a26.85,26.85,0,0,0-.2-6,16.84,16.84,0,0,1-.25-5.42c.34-2.28-.06-4.58.49-6.8.13-.55,0-1.09-.7-.72-.2.76.25,1.58-.14,2.39a.86.86,0,0,1-.23-.4v-2.09a.63.63,0,0,1,.22-.07,13.15,13.15,0,0,0,.62-3.75c0-.73-.56-1.22-.8-1.86.56-.19.63-.69.79-1.3a3.48,3.48,0,0,0-.05-1.73,4.22,4.22,0,0,1-.21-1.36l.07-.24a14.42,14.42,0,0,0,3.29.24,13.5,13.5,0,0,0,3.9-.58,2,2,0,0,1,.94,0c3.51.84,7.21-.21,10.69.85a1.2,1.2,0,0,0,1-.34c.23-.17,1-.15.87-.59a.49.49,0,0,0-.22-.25,3.21,3.21,0,0,0,2.86-2.75,1.68,1.68,0,0,1-.06,1.24c-.2.51-.49,1-.72,1.6a5.87,5.87,0,0,0,1.51-2.27,4.53,4.53,0,0,0,.26-1.22c0-.33.08-.66.09-1,0-.54.24-1.1-.32-1.56a2,2,0,0,1-.71-1.05v-.86c.08-.34.22-.7.35-1.14s.19-.89-.5-.87c-.5,0-.6-.57-.83-1a1.78,1.78,0,0,0-1.19-1.2c-1.62-.17-.19.49-.35.74.14.07.3.12.43.2a3.66,3.66,0,0,0-.81-.18c-.94-.35-2.14.12-2.93-.71-.32.25-1.28-.17-1.05.67h-.82c-1.57-.75-3.46-.28-5-1-.47-.22-1.15-.2-1.34.29s.47.54.85.73h-1.52a4.2,4.2,0,0,0-3-1c-1,.11-2.08.17-3.13.21l-1.57,0h-.53l-.27,0,0-.2s.06-.84.08-1.45l0-1.9,0-3.81c0-2.55-.07-5.09,0-7.63a11.71,11.71,0,0,0-.3-3.47c-.21-.71-.67-1,0-1.62.27-.24.19-.53,0-.85a2.93,2.93,0,0,1,.19-2.39,3.7,3.7,0,0,0,.31-1.28c.08-1.59-.74-3.08-.36-4.71,0-.12-.17-.44-.23-.43-.32.08-.5.06-.6,0v-.84l.06-.2c.12-.44.28-.94.05-1.29a1.2,1.2,0,0,1-.11-.23v-1.21a.56.56,0,0,1,.59-.11,2,2,0,0,1,.41.16c.08,0,0,0-.06-.34s.25-.58.63-.59a1.27,1.27,0,0,1,1,.54c.31.41,2.92.48,3.15.08a.49.49,0,0,0-.14-.61.75.75,0,0,0-.15-.09h1.33a2.71,2.71,0,0,0,1.41.8,15.4,15.4,0,0,0,4,.19l-.29-.69c-.29,0-.66,0-.76-.3h.24a1.41,1.41,0,0,1,.51.28,11.62,11.62,0,0,0,2.2-.28h1.61c-.26.47-.44,1,.52.82a13,13,0,0,1,7-.1,4.85,4.85,0,0,0,1.4.21,3.55,3.55,0,0,0,1.7-.41A6.48,6.48,0,0,0,570.4,105c.41-.73,0-1.24-.52-1.25v0a9.65,9.65,0,0,0,.62-4.24,6.83,6.83,0,0,0-.36-2.31,4.25,4.25,0,0,0-1.59-2,3.93,3.93,0,0,0-2.41-.65,11.4,11.4,0,0,0-2,.19,5.57,5.57,0,0,1-2.62.21,5.93,5.93,0,0,0-4.21.3,2.26,2.26,0,0,1-.25.28h-1.51c-1.89-1.24-4-1.27-6.29-1h0a2.1,2.1,0,0,1-1.42.39c-1.75,0-3.47-.39-5.23-.4-.71,0-1.39.15-2.09.1-1.19-.08.08.83-.44.91h-2.94s0,0,0,0c-.06-.32.26-.29.48-.35s.56-.06.46-.36a.55.55,0,0,0-.46-.21,17.69,17.69,0,0,1-4.54,0,9.34,9.34,0,0,0-1.23,0,3.59,3.59,0,0,0-1.4.44A2.79,2.79,0,0,0,529,97.27a5.7,5.7,0,0,1-.48,1.36,11,11,0,0,0-.11,6.29l0,0h0l0,0a5.2,5.2,0,0,0-.09,3.17c.46,1.69,1.2,3.4,0,5.1a1.05,1.05,0,0,0,0,.92,3.75,3.75,0,0,1,0,2.43.9.9,0,0,0,0,.72,3.84,3.84,0,0,1,.08,3.92l-.07-.16s0,0,0,0a.75.75,0,0,1,0,.16l0,0c-.18,1.56.1,3.16-.3,4.7-.09.35-.27.84.11,1,.21.09.55-.27.84-.42h0v1a.44.44,0,0,1-.12.15c-1.1.74-1,1.69-.4,2.72.25.45-.09.84-.07,1.12.08,1.58-1.12,3-.37,4.65.12.07.32.08.26.32,0,.06-.17.07-.27.1,0,.44.08.88.09,1.32.09,3.64-.15,7.32.68,10.9.11.11.22.27.09.39s-.22,0-.29-.18c-1,.9-.74,2.16-.73,3.34a.52.52,0,0,0,.44.49.28.28,0,0,0,.32-.33,3.5,3.5,0,0,1,.37-2.17v3.43a1.32,1.32,0,0,1-.25.28,2.41,2.41,0,0,0-.6,3,3.23,3.23,0,0,1,0,2.39,3.52,3.52,0,0,0-.07,2.44,6.13,6.13,0,0,1,.19,3.92c-1,3.57.13,7.05,0,10.57a37.12,37.12,0,0,1-.23,5.27c-.27,1.52.42,3,.17,4.47,0,0,.26.11.41.17.15,1-.71,1.57-.64,2.5,0,.17.08.44.18.48s.24-.15.3-.33-.06-.78.41-.55c0,0,0,0,.06.08v1.38c-.18.33-.43.62-.36,1,.47,2.3-.37,4.42-.6,6.62h1a3.23,3.23,0,0,0,.7,2,3.24,3.24,0,0,1,.33,1.14c.5.46,1.24,1.29,2,.88.29-.18.07-.31-.14-.47a.85.85,0,0,1-.3-.37,3.71,3.71,0,0,0,.67.06h.12a17.46,17.46,0,0,0,8.35.91c.54-.06.57,0,.44-.66a.34.34,0,0,1,0-.25h1.21c.22.53.76.7,1.27.9.88.35.91.34.9-.5,0-.36.21-.32.46-.27a4.64,4.64,0,0,1,1.08.3,6.71,6.71,0,0,0,4.63.16l0,0a8.23,8.23,0,0,0,2.84.23.73.73,0,0,0,.47-.19c.16-.22,0-.43-.23-.55l-.18-.11h1.17a6.57,6.57,0,0,0,3.65,1.13c.49,0,1.14.27,1.4-.15s-.51-.6-.68-1h.25a9.11,9.11,0,0,0,3.3.33,6.67,6.67,0,0,1,2.71.48,2.87,2.87,0,0,0,1.45.09,1.66,1.66,0,0,0,1.22-1.17c0-.06.23-.14.35-.17a2.38,2.38,0,0,0,1.57-1.1,3.5,3.5,0,0,0,.49-2,24.09,24.09,0,0,1,0-3.4,10.68,10.68,0,0,0,.11-1.29,3.89,3.89,0,0,0-.34-1.64A4,4,0,0,0,567.89,188.68Zm-2.09-38.34v-1.27a1.44,1.44,0,0,1,0,1.28Zm-4.48,3.44,0,.13-.16,0c-.25,0-.51.06-.61-.2,0,0,.07-.12.14-.17h.44A.43.43,0,0,1,561.32,153.78ZM548.9,142c.06,0,.15,0,.16,0s0,.16-.18.14-.09-.07-.13-.11Zm-6.65-9.38,0,.08,0-.09Zm27.48-34.54c0,.28,0,.37-.12.39a3.73,3.73,0,0,0-.12-.58A.33.33,0,0,1,569.73,98.07Zm-25.32-2.61c.11,0,.2.07.31.09H544C544,95.44,544.14,95.42,544.41,95.46Zm-2.67,18.43a.13.13,0,0,1,.19,0c.3.18.12.53,0,.84s-.15.53-.22.79ZM542,117l-.13.06c0-.11-.05-.22-.07-.33l.13-.06C541.9,116.82,541.93,116.93,542,117Zm-.21,11.77v0h0Zm0,.73,0-.63c.08.47.31,1,0,1.39Zm0,8.38a2.61,2.61,0,0,1,0,2.25Zm-12.7,48a1,1,0,0,1-.28.35,1.6,1.6,0,0,1,0-.31c.14-.54-.21-1.12.1-1.64,0,0,.1,0,.18,0Zm0-3.1c-.18-.15-.11-.4,0-.6ZM529,171a6.67,6.67,0,0,1,0-2.44Zm0-10.14a.62.62,0,0,1,0-.92Zm0-22.22c0,.09-.08.17-.13.18-.33.09-.45-.24-.48-.56s.08-.51.33-.54a.26.26,0,0,1,.28.11Zm0-5.84c-.11,0-.18,0-.15-.16a.49.49,0,0,1,.15-.26ZM528.6,101l-.08-.06.09,0Zm.44,1.15-.07,0,.07,0Zm3.89-6.91,0-.1c.11-.07.18,0,.18.07S533,95.18,532.93,95.19Zm5.35,105.5c-.52,0-1.11.05-1.6,0h1.6Zm1.37.23a1.35,1.35,0,0,1-1.32-.21l.14-.05h.91a1.66,1.66,0,0,1,.27.13S539.67,200.91,539.65,200.92ZM541.74,184v-.47h0C541.86,183.58,541.84,183.79,541.74,184Zm.12-13.29-.05-.14h.11Zm5.57,18.58c-.12,0-.21-.1-.13-.16a1.19,1.19,0,0,1,.44-.13.28.28,0,0,1-.25.29Zm.45,11.44a.65.65,0,0,1-.35-.08h.53A.37.37,0,0,1,547.88,200.74Zm1.78-11.44a1.18,1.18,0,0,1,1,0Zm4.85,0a.7.7,0,0,1,.52-.1.84.84,0,0,1,.37.1Zm15.13,5.82v-2.59a3.8,3.8,0,0,0-.06-.59c0,.15.08.31.11.46A7.52,7.52,0,0,1,569.64,195.12Z"/>
            <polygon class="cls-1"
                     points="528.08 147.94 528.08 147.93 528.07 147.93 528.07 148.36 528.07 148.36 528.07 148.35 528.08 147.94"/>
            <path class="cls-1"
                  d="M106.25,188.68a4.34,4.34,0,0,0-1.58-.19l-1.28.06a17.14,17.14,0,0,1-2.58-.11,11.15,11.15,0,0,0-1.53,0c-.7,0-.79.4-.76.87h-.18a15.28,15.28,0,0,0-7.57-.6l0,0a8.44,8.44,0,0,0-4.68-.31,8.17,8.17,0,0,1-2.66,0c-.56,0-1.12-.08-1.68-.1h-.64l0-1.84c0-1,0-1.92,0-2.88a26.26,26.26,0,0,0-.2-6,16.84,16.84,0,0,1-.25-5.42c.35-2.28-.05-4.58.49-6.8.13-.55,0-1.09-.7-.72-.2.76.25,1.58-.14,2.39a1,1,0,0,1-.23-.4v-2.09a.63.63,0,0,1,.22-.07,12.81,12.81,0,0,0,.62-3.75c0-.73-.56-1.22-.8-1.86.56-.19.63-.69.8-1.3a3.6,3.6,0,0,0-.06-1.73,4.89,4.89,0,0,1-.21-1.36l.07-.24a14.42,14.42,0,0,0,3.29.24,13.4,13.4,0,0,0,3.9-.58,2,2,0,0,1,.95,0c3.5.84,7.2-.21,10.68.85a1.2,1.2,0,0,0,1-.34c.23-.17,1-.15.87-.59a.49.49,0,0,0-.22-.25,3.22,3.22,0,0,0,2.87-2.75,1.71,1.71,0,0,1-.07,1.25c-.2.5-.49,1-.71,1.59a6.1,6.1,0,0,0,1.51-2.27,5,5,0,0,0,.25-1.22c0-.33.08-.66.09-1,0-.54.24-1.1-.32-1.56a2.06,2.06,0,0,1-.71-1.05v-.86c.08-.34.22-.7.35-1.14s.2-.89-.5-.87c-.49,0-.6-.57-.83-1a1.78,1.78,0,0,0-1.19-1.2c-1.61-.17-.19.49-.35.74.14.07.3.12.43.2a3.42,3.42,0,0,0-.81-.18c-.93-.35-2.14.12-2.92-.71-.33.25-1.28-.17-1.06.67h-.82c-1.56-.75-3.46-.28-5-1-.46-.22-1.15-.2-1.34.29s.47.54.85.73H89.42a4.18,4.18,0,0,0-3-1c-1.05.11-2.09.17-3.13.21l-1.58,0h-.53l-.27,0,0-.2a12.34,12.34,0,0,0,.08-1.45l0-1.9,0-3.81c0-2.55-.07-5.09,0-7.63a11.38,11.38,0,0,0-.3-3.47c-.21-.71-.67-1,0-1.62.26-.24.18-.53,0-.85a2.89,2.89,0,0,1,.18-2.39,3.49,3.49,0,0,0,.31-1.28c.08-1.59-.74-3.08-.36-4.71a.61.61,0,0,0-.22-.43c-.32.08-.51.06-.61,0v-.84l.06-.2c.12-.44.28-.94,0-1.29a1.2,1.2,0,0,1-.11-.23v-1.21a.57.57,0,0,1,.59-.11,2,2,0,0,1,.41.16c.08,0,0,0-.06-.34s.25-.58.63-.59a1.25,1.25,0,0,1,1,.54c.31.41,2.92.48,3.15.08a.49.49,0,0,0-.14-.61,1.1,1.1,0,0,0-.14-.09h1.32a2.71,2.71,0,0,0,1.41.8,15.45,15.45,0,0,0,4,.19l-.29-.69c-.29,0-.66,0-.76-.3h.24a1.55,1.55,0,0,1,.52.28,11.62,11.62,0,0,0,2.19-.28h1.62c-.27.47-.45,1,.51.82a13,13,0,0,1,7-.1,4.9,4.9,0,0,0,1.4.21,3.53,3.53,0,0,0,1.7-.41,6.48,6.48,0,0,0,2.38-2.49c.41-.73,0-1.24-.51-1.25v0a9.8,9.8,0,0,0,.63-4.24,6.87,6.87,0,0,0-.37-2.31,4.3,4.3,0,0,0-1.58-2,4,4,0,0,0-2.41-.65,11.4,11.4,0,0,0-2,.19,5.61,5.61,0,0,1-2.63.21,5.93,5.93,0,0,0-4.21.3,1.67,1.67,0,0,1-.25.28H93.9c-1.89-1.24-4.05-1.27-6.29-1h0a2.12,2.12,0,0,1-1.42.39c-1.76,0-3.48-.39-5.24-.4-.71,0-1.39.15-2.09.1-1.19-.08.08.83-.43.91h-3s0,0,0,0c-.06-.32.26-.29.48-.35s.56-.06.46-.36a.54.54,0,0,0-.45-.21,17.69,17.69,0,0,1-4.54,0,9.55,9.55,0,0,0-1.24,0,3.64,3.64,0,0,0-1.4.44,2.79,2.79,0,0,0-1.44,2.25,5.29,5.29,0,0,1-.48,1.36,11,11,0,0,0-.11,6.29l0,0h0l0,0a5.12,5.12,0,0,0-.09,3.17c.45,1.69,1.19,3.4,0,5.1a1.05,1.05,0,0,0,0,.92,3.75,3.75,0,0,1,0,2.43.9.9,0,0,0,0,.72,3.81,3.81,0,0,1,.08,3.92l-.06-.16s0,0,0,0a.75.75,0,0,1,0,.16l0,0c-.17,1.56.1,3.16-.29,4.7-.09.35-.28.84.1,1,.21.09.56-.27.84-.42h0v1a.35.35,0,0,1-.12.15c-1.1.74-1,1.69-.4,2.72.25.45-.09.84-.07,1.12.08,1.58-1.12,3-.37,4.65.12.07.32.08.26.32,0,.06-.17.07-.26.1,0,.44.07.88.08,1.32.1,3.64-.14,7.32.68,10.9.11.11.22.27.1.39s-.23,0-.3-.18c-1,.9-.73,2.16-.73,3.34a.52.52,0,0,0,.44.49.28.28,0,0,0,.32-.33,3.57,3.57,0,0,1,.37-2.17v3.43a.94.94,0,0,1-.25.28,2.39,2.39,0,0,0-.59,3,3.33,3.33,0,0,1,0,2.39,3.52,3.52,0,0,0-.08,2.44,6.2,6.2,0,0,1,.2,3.92c-1,3.57.12,7.05,0,10.57a34.38,34.38,0,0,1-.23,5.27c-.27,1.52.42,3,.17,4.47,0,0,.26.11.42.17.14,1-.72,1.57-.65,2.5,0,.17.08.44.18.48s.24-.15.3-.33-.06-.78.41-.55c0,0,0,0,.06.08v1.38c-.18.33-.43.62-.36,1,.47,2.3-.36,4.42-.59,6.62h1a3.18,3.18,0,0,0,.71,2,3.46,3.46,0,0,1,.32,1.14c.5.46,1.24,1.29,2,.88.29-.18.07-.31-.14-.47a.82.82,0,0,1-.29-.37,3.52,3.52,0,0,0,.66.06h.12a17.46,17.46,0,0,0,8.35.91c.54-.06.57,0,.44-.66a.34.34,0,0,1,0-.25h1.22c.22.53.76.7,1.27.9.87.35.9.34.89-.5,0-.36.22-.32.46-.27a4.73,4.73,0,0,1,1.09.3,6.65,6.65,0,0,0,4.63.16l0,0a8.15,8.15,0,0,0,2.83.23.78.78,0,0,0,.48-.19c.15-.22,0-.43-.23-.55l-.19-.11h1.18a6.51,6.51,0,0,0,3.64,1.13c.49,0,1.14.27,1.4-.15s-.51-.6-.68-1h.25a9.11,9.11,0,0,0,3.3.33,6.64,6.64,0,0,1,2.71.48,2.87,2.87,0,0,0,1.45.09,1.66,1.66,0,0,0,1.22-1.17c0-.06.23-.14.35-.17a2.38,2.38,0,0,0,1.57-1.1,3.42,3.42,0,0,0,.49-2,24.09,24.09,0,0,1,0-3.4,10.68,10.68,0,0,0,.11-1.29,3.74,3.74,0,0,0-.34-1.64A4,4,0,0,0,106.25,188.68Zm-2.09-38.34v-1.27a1.44,1.44,0,0,1,0,1.28Zm-4.68,3.23a.41.41,0,0,1,.2.21l0,.13-.16,0c-.25,0-.51.06-.61-.2,0,0,.07-.12.15-.17ZM87.26,142c.06,0,.15,0,.17,0s0,.16-.18.14-.09-.07-.14-.11Zm-6.65-9.38,0,.08,0-.09Zm27.48-34.54c0,.28,0,.37-.12.39a2.85,2.85,0,0,0-.12-.58A.33.33,0,0,1,108.09,98.07ZM82.77,95.46c.12,0,.21.07.31.09h-.75C82.36,95.44,82.5,95.42,82.77,95.46ZM80.1,113.89a.14.14,0,0,1,.2,0c.29.18.11.53,0,.84s-.15.52-.22.79Zm.21,3.15-.12.06c0-.11-.06-.22-.08-.33l.13-.06C80.27,116.82,80.29,116.93,80.31,117Zm-.21,11.77,0,0h0Zm0,.73,0-.63c.08.47.31,1,0,1.39Zm0,8.38a2.61,2.61,0,0,1,0,2.25Zm-12.7,48a1.1,1.1,0,0,1-.27.35,1.1,1.1,0,0,1,0-.31c.14-.54-.21-1.12.1-1.64,0,0,.1,0,.18,0Zm0-3.1c-.17-.15-.1-.4,0-.6Zm0-11.79a6.67,6.67,0,0,1,0-2.44Zm0-10.14a.62.62,0,0,1,0-.92Zm0-22.22c0,.09-.07.17-.13.18-.32.09-.45-.24-.48-.56s.08-.51.33-.54a.26.26,0,0,1,.28.11Zm0-5.84c-.11,0-.17,0-.15-.16a.49.49,0,0,1,.15-.26ZM67,101l-.07-.06.08,0Zm.13,3.63h0l0,0Zm.31-2.48-.06,0,.06,0Zm3.9-6.91-.06-.1c.11-.07.18,0,.18.07S71.34,95.18,71.3,95.19Zm5.34,105.5c-.52,0-1.11.05-1.6,0h1.6Zm1.37.23a1.35,1.35,0,0,1-1.32-.21l.14-.05h.91a1.66,1.66,0,0,1,.27.13S78,200.91,78,200.92ZM80.1,184v-.47h0C80.22,183.58,80.2,183.79,80.1,184Zm.13-13.29-.06-.14h.11Zm5.56,18.58c-.12,0-.21-.1-.13-.16a1.19,1.19,0,0,1,.44-.13.28.28,0,0,1-.25.29Zm.45,11.44a.65.65,0,0,1-.35-.08h.53A.37.37,0,0,1,86.24,200.74ZM88,189.3a1.18,1.18,0,0,1,1,0Zm4.85,0a.7.7,0,0,1,.52-.1.89.89,0,0,1,.38.1ZM108,195.12v-2.59a2.88,2.88,0,0,0-.06-.59c0,.15.08.31.11.46A7.52,7.52,0,0,1,108,195.12Z"/>
            <polygon class="cls-1"
                     points="66.44 147.94 66.44 147.93 66.43 147.93 66.43 148.36 66.44 148.36 66.44 148.35 66.44 147.94"/>
            <path class="cls-1"
                  d="M231.31,177.66c-.36,0-.31-.26-.25-.52a6.21,6.21,0,0,1,.35-1.2,7.57,7.57,0,0,0,.21-5.14l0,0a8.6,8.6,0,0,0,.15-3.16.89.89,0,0,0-.21-.53c-.23-.16-.42,0-.54.29a2,2,0,0,1-.1.21c0-.44,0-.89-.06-1.31a7,7,0,0,0,.74-4.16c-.06-.55.08-1.32-.39-1.55s-.49.68-.83.92a2.33,2.33,0,0,0-.05-.28v-1.71a6.13,6.13,0,0,0-.42-2,13,13,0,0,1-.54-3.06,2.67,2.67,0,0,0-1.88-2.41,1.06,1.06,0,0,1-.18-.37,5.19,5.19,0,0,0-.63-1.82,9.8,9.8,0,0,0-1.21-1.53c-.49-.44-1-.89-1.5-1.3a18,18,0,0,1-1.51-1.23,15.79,15.79,0,0,0-5.14-2.72,33.88,33.88,0,0,1-5.29-2.15,12,12,0,0,0-1.56-.66c-.72-.28-1,0-1.11.48l-.19-.08a21.9,21.9,0,0,0-7.4-3.85l0,0a28.65,28.65,0,0,0-3.73-3.13,4.35,4.35,0,0,1-1.46-2.22,29.78,29.78,0,0,1-1.17-9.55c.06-2.07.34-4.2.46-6.37a8.17,8.17,0,0,1,2.1-5.28c1.61-1.66,3.66-3.18,6-3,.55,0,1.09-.14.63-.79-.85-.11-1.6.51-2.54.42a1,1,0,0,1,.35-.36,12.85,12.85,0,0,1,2.27-.45.81.81,0,0,1,.1.21c1.36.18,2.62.62,4,.78a19.38,19.38,0,0,0,2.12-.24c0,.6.46.85.91,1.3.85.87,2.08,1,2.74,2.07,1.6,2.6,2,5.42,3,8.38a3.13,3.13,0,0,1,.1,1.08,3.2,3.2,0,0,0,1.7,2.79,3.63,3.63,0,0,0,1.71.45h1.5c1,0,2,0,3,0q.74,0,1.47.15a5.67,5.67,0,0,0,1.82,0,1.51,1.51,0,0,0,1.12-1c.19-.37.72-1,.32-1.16a.53.53,0,0,0-.35,0,3.17,3.17,0,0,0,.67-2.08c0-.86-.11-1.69-.18-2.5.5.75.33,1.84,1,2.89-.33-2-.07-3.31-.22-4.85-.08-.6.06-1.28-.6-1.69a2.44,2.44,0,0,1-1-1.21c0-.2-.08-.42-.13-.61a4.05,4.05,0,0,1,.1-1.36c.12-.52.24-.8-.45-.9-.49-.08-.48-.77-.46-1.24a2.66,2.66,0,0,0-.17-1.63c-.78-1.28-.52.14-.79.22.05.15.13.32.17.48-.12-.25-.26-.49-.39-.73-.23-1.12-1.33-2-1.25-3.21-.41-.16-.79-1.26-1.27-.48-.18-.21-.38-.41-.57-.62-.63-1.86-2.66-2.88-3.86-4.41-.35-.46-1.09-.81-1.5-.47s.3.74.54,1.14c-.49-.28-1-.54-1.52-.78a4.3,4.3,0,0,0-2.89-2.1,68.43,68.43,0,0,0-7.72-1,25.47,25.47,0,0,0-16.5,4.55,9.54,9.54,0,0,0-2.79,2.85c-.39.76-.27,1.26-1.22,1.38-.38,0-.52.36-.64.73a4.27,4.27,0,0,1-1.64,2.2,4.57,4.57,0,0,0-1,1.16c-.89,1.65-.71,3.52-1.56,5.17a.74.74,0,0,0,.08.54c.34,0,.5.06.59.17-.07.27-.12.56-.19.84-.05.09-.09.18-.14.26a1.9,1.9,0,0,0-.33,1.4c0,.11,0,.18.07.28-.07.41-.12.84-.18,1.26a1.94,1.94,0,0,1-.68.48.7.7,0,0,0-.2,1.23,1.4,1.4,0,0,1-.1,2.24c-.43.33-.5,3.28-.08,3.52a.46.46,0,0,0,.61-.17s0-.11.09-.16c0,.49,0,1,0,1.47a3.06,3.06,0,0,0-.72,1.59,13.69,13.69,0,0,0,.23,4.46l.63-.42c0-.32-.15-.72.19-.87l0,.28a1.43,1.43,0,0,1-.2.58,11.18,11.18,0,0,0,.67,2.36c.12.6.25,1.19.4,1.75-.53-.17-1.15-.23-.63.77,1.27,2.46,2.63,4.57,3.76,7.07a6.19,6.19,0,0,0,2.23,2.34,17.3,17.3,0,0,1,2.57,1.91.76.76,0,0,0,1.3-.05h0a9.63,9.63,0,0,0,4,2.55c2.82.92,5.33,2.64,8.26,3.29a6.81,6.81,0,0,1,2.77.9,8.82,8.82,0,0,0,4.27,1.72,2.79,2.79,0,0,1,.39-.1,14.31,14.31,0,0,1,1.37.94c.9,2.26,2,3.77,2.93,5.94l0,0,0-.09a2,2,0,0,1,.77,1.34,32.37,32.37,0,0,1,.24,5.67,21.46,21.46,0,0,1,.16,2.27c-.07,1.31.82-.09.92.47v.8c0,.87,0,1.68,0,2.46l0,0c-.32.06-.29-.29-.34-.54s0-.61-.35-.51a.67.67,0,0,0-.22.5,13.66,13.66,0,0,1-.35,4.89,29.5,29.5,0,0,0-.79,4.71c0,.48-.45.78-.82,1.08a46.07,46.07,0,0,1-5.29,3.66l0,0,0,0a9.24,9.24,0,0,0-3.32.44A9.37,9.37,0,0,1,204,190a3.17,3.17,0,0,1-2.54-1.2,1.24,1.24,0,0,0-.87-.38,2.79,2.79,0,0,1-2.11-1.28,1,1,0,0,0-.54-.5,3.09,3.09,0,0,1-2.3-3.32l.11.12a0,0,0,0,0,0,0,.45.45,0,0,1-.1-.13v0a12.12,12.12,0,0,1-.81-4.9c0-.38.2-.92-.2-1.06-.21-.09-.53.32-.79.52h0c0-.37-.05-.75-.07-1.14a.46.46,0,0,1,.11-.16,1.45,1.45,0,0,0,.51-1.7,2.2,2.2,0,0,0-1.52-1.35c-.57-.15-.85-.63-1.23-.74s-1.07-.22-1.45-.3l-1.27-.3a4,4,0,0,0-2.58.06c-.09.12-.1.32-.36.26-.07,0-.08-.17-.11-.26-.49,0-1,.07-1.47.08a4.23,4.23,0,0,0-3.31,1.56,4.13,4.13,0,0,0-.81,1.72,4.3,4.3,0,0,0-.07,1l.05.77a20.84,20.84,0,0,0,1.2,6c.13.11.26.27.17.42s-.24,0-.33-.15c-.79,1.16-.25,2.56.15,3.86a.57.57,0,0,0,.6.4c.2,0,.27-.26.19-.45a3.7,3.7,0,0,1-.26-2.45,25,25,0,0,0,1.08,3.6,1.39,1.39,0,0,1-.13.44c-.62,1.28,0,2.43,1,3.32a5.44,5.44,0,0,1,1.66,2.21,3.79,3.79,0,0,0,1.89,2.08,13.57,13.57,0,0,1,3.76,2.48,10.9,10.9,0,0,0,5.51,2.56c2,.38,4,.43,5.95.64s4,.07,5.94.25c1.75.15,3.29-.75,5-.86a1.79,1.79,0,0,0,.1-.45c1-.38,1.89.28,2.89-.13.18-.07.45-.23.47-.34s-.25-.18-.46-.17-.82.33-.71-.2a.24.24,0,0,1,.11-.12c.46-.15.92-.3,1.36-.47.42,0,.83.16,1.18-.08,2.15-1.43,4.55-2,6.62-3.63l-.67-.69h0a18.8,18.8,0,0,0,1.57-1.79,2,2,0,0,1,1.12-.51c.46-.52,1.3-.92,1.23-1.66-.07-.52-.56.1-1,.09.13-.22.25-.44.37-.66A12.85,12.85,0,0,0,231.4,182c0-.61.08-.64-.58-.57a.31.31,0,0,1-.24-.08c.06-.44.11-.88.15-1.34.55-.19.76-.78,1-1.33C232.17,177.73,232.14,177.69,231.31,177.66Zm-.27-3.84a.35.35,0,0,1,.07.2.74.74,0,0,1-.08.38C231,174.21,231,174,231,173.82Zm-.78-59.36a1.7,1.7,0,0,1,.19,1.45c0-.5-.13-1-.2-1.45ZM228,122.22a3.31,3.31,0,0,0,.45-.12.47.47,0,0,1,.3.13l0,.13-.17.09c-.28.13-.61.21-.76,0C227.81,122.38,227.9,122.27,228,122.22ZM216,95.86s.14.07.15.1-.06.15-.23.07-.07-.09-.11-.14Zm-10.08-1.17c-.87,0-1.72.06-2.55.14A2.83,2.83,0,0,1,205.91,94.69Zm-7.14,14.07.07.08-.15.06Zm-1.17-13.2-.09.06v-.08Zm-14,14.67a.13.13,0,0,1-.21,0c-.22-.3.09-.61.31-.9s.39-.5.58-.75C184.07,109.1,183.83,109.65,183.63,110.23Zm1.2-2.93a.37.37,0,0,1-.14,0,2.3,2.3,0,0,1,.1-.35h.14Zm9-9.53.05-.07,0,0Zm.66,24.73c0-.18,0-.34,0-.52h0C194.57,122,194.55,122.26,194.45,122.5Zm0-25.11-.61.26c.43-.32.82-.8,1.42-.67C195,97.11,194.76,97.25,194.49,97.39Zm2.72,36.75,0,0c-.08-.11-.07-.23,0-.2a1.45,1.45,0,0,1,.41.27A.28.28,0,0,1,197.21,134.14ZM198,149.5c-.25-.1-.3-.2-.29-.3l.59.24A.33.33,0,0,1,198,149.5Zm1-13.7a1.59,1.59,0,0,1,.91.64C199.54,136.23,199.24,136,199,135.8Zm5.53,3-.87-.38a.84.84,0,0,1,.56.14,1.07,1.07,0,0,1,.35.26Zm13.59,28.41c0-.14.05-.25.07-.38l.06.86C218.09,167.67,218.05,167.52,218.07,167.22Zm-33.57,6h-.2a3.1,3.1,0,0,0-.69.08c-.1,0-.2,0-.23-.08-.2-.28.17-.53.6-.59s.6.07.65.31A.25.25,0,0,1,184.5,173.2Zm2.09,21.14.7.78C186.87,195,186.57,194.82,186.59,194.34Zm3.94-21.14h-.46c0-.11,0-.17.18-.15a.55.55,0,0,1,.28.15Zm3.65,26.44a23.58,23.58,0,0,0,2.8.94A6.18,6.18,0,0,1,194.18,199.64Zm15,1.92.68-.08C209.74,201.69,209.44,201.65,209.2,201.56Zm4-13.32.06,0-.07,0Zm.2,13c-.61,0-1.19.45-1.81.22,0,0,0-.1,0-.18.6-.09,1.16-.21,1.73-.33a1.26,1.26,0,0,1,.48.21A1.59,1.59,0,0,1,213.35,201.25Zm.52-14v-.1l.09,0Zm3.61-7.34c0-.13,0-.2.1-.19a.53.53,0,0,1,0,.14Zm2.69-34.34.56.26a6.6,6.6,0,0,1,2.48,1.78A22.36,22.36,0,0,0,220.17,145.54Zm9.46,40.76c.16-.56.3-1.13.42-1.72h0A14.74,14.74,0,0,1,229.63,186.3Zm1-3.17a1.6,1.6,0,0,1-.48,1.4c0-.05,0-.11,0-.16.07-.33.13-.65.19-1a1.41,1.41,0,0,1,.18-.27S230.58,183.11,230.58,183.13Z"/>
            <path class="cls-1" d="M227.29,193h0Z"/>
            <path class="cls-1" d="M164.85,193h0Z"/>
            <path class="cls-1"
                  d="M168.87,177.66c-.36,0-.31-.26-.25-.52a8,8,0,0,1,.35-1.2,7.57,7.57,0,0,0,.21-5.14l0,0a8.6,8.6,0,0,0,.15-3.16.89.89,0,0,0-.21-.53c-.23-.16-.42,0-.54.29a2,2,0,0,1-.1.21c0-.44,0-.89-.06-1.31a7,7,0,0,0,.74-4.16c-.06-.55.08-1.32-.39-1.55s-.49.68-.83.92a2.33,2.33,0,0,0-.05-.28v-1.71a6.13,6.13,0,0,0-.42-2,13,13,0,0,1-.54-3.06,2.67,2.67,0,0,0-1.88-2.41,1.06,1.06,0,0,1-.18-.37,5.19,5.19,0,0,0-.63-1.82,9.8,9.8,0,0,0-1.21-1.53c-.49-.44-1-.89-1.5-1.3a18,18,0,0,1-1.51-1.23,15.79,15.79,0,0,0-5.14-2.72,33.88,33.88,0,0,1-5.29-2.15,12,12,0,0,0-1.56-.66c-.72-.28-1,0-1.11.48l-.19-.08a21.9,21.9,0,0,0-7.4-3.85l0,0a28.65,28.65,0,0,0-3.73-3.13,4.35,4.35,0,0,1-1.46-2.22A29.78,29.78,0,0,1,133,122c.06-2.07.34-4.2.46-6.37a8.17,8.17,0,0,1,2.1-5.28c1.61-1.66,3.66-3.18,6-3,.55,0,1.09-.14.63-.79-.84-.11-1.6.51-2.54.42a1,1,0,0,1,.35-.36,12.85,12.85,0,0,1,2.27-.45.81.81,0,0,1,.1.21c1.36.18,2.62.62,3.95.78a19.38,19.38,0,0,0,2.12-.24c0,.6.46.85.91,1.3.85.87,2.09,1,2.74,2.07,1.6,2.6,2,5.42,3,8.38a3.13,3.13,0,0,1,.1,1.08,3.2,3.2,0,0,0,1.7,2.79,3.63,3.63,0,0,0,1.71.45h1.5c1,0,2,0,3,0q.74,0,1.47.15a5.67,5.67,0,0,0,1.82,0,1.55,1.55,0,0,0,1.13-1c.18-.37.71-1,.31-1.16a.53.53,0,0,0-.35,0,3.11,3.11,0,0,0,.67-2.08c0-.86-.11-1.69-.18-2.5.5.75.33,1.84,1,2.89-.33-2-.07-3.31-.22-4.85-.08-.6.06-1.28-.6-1.69a2.44,2.44,0,0,1-1-1.21c0-.2-.08-.42-.13-.61a4.05,4.05,0,0,1,.1-1.36c.12-.52.24-.8-.45-.9-.49-.08-.48-.77-.46-1.24a2.73,2.73,0,0,0-.16-1.63c-.79-1.28-.53.14-.8.22,0,.15.13.32.17.48-.12-.25-.26-.49-.39-.73-.22-1.12-1.33-2-1.25-3.21-.41-.16-.79-1.26-1.27-.48-.18-.21-.38-.41-.57-.62-.63-1.86-2.66-2.88-3.86-4.41-.35-.46-1.09-.81-1.5-.47s.3.74.54,1.14c-.49-.28-1-.54-1.52-.78a4.3,4.3,0,0,0-2.89-2.1,68.43,68.43,0,0,0-7.72-1,25.47,25.47,0,0,0-16.5,4.55,9.66,9.66,0,0,0-2.79,2.85c-.39.76-.27,1.26-1.22,1.38-.38,0-.52.36-.64.73a4.27,4.27,0,0,1-1.64,2.2,4.57,4.57,0,0,0-1,1.16c-.89,1.65-.71,3.52-1.56,5.17a.74.74,0,0,0,.08.54c.34,0,.5.06.59.17-.07.27-.12.56-.19.84,0,.09-.09.18-.14.26a1.9,1.9,0,0,0-.33,1.4,2.86,2.86,0,0,1,.07.28c-.07.41-.12.84-.18,1.26a1.94,1.94,0,0,1-.68.48.7.7,0,0,0-.2,1.23,1.4,1.4,0,0,1-.1,2.24c-.43.33-.5,3.28-.08,3.52a.46.46,0,0,0,.61-.17s.05-.11.09-.16c0,.49,0,1,0,1.47a3.06,3.06,0,0,0-.72,1.59,13.69,13.69,0,0,0,.23,4.46l.63-.42c0-.32-.15-.72.19-.87l0,.28a1.43,1.43,0,0,1-.2.58,11.18,11.18,0,0,0,.67,2.36c.12.6.25,1.19.4,1.75-.54-.17-1.14-.23-.63.77,1.27,2.46,2.63,4.57,3.76,7.07a6.19,6.19,0,0,0,2.23,2.34,17.3,17.3,0,0,1,2.57,1.91.76.76,0,0,0,1.3-.05v0a9.55,9.55,0,0,0,4,2.56c2.82.92,5.33,2.64,8.26,3.29a6.81,6.81,0,0,1,2.77.9,8.82,8.82,0,0,0,4.27,1.72,2.79,2.79,0,0,1,.39-.1,14.31,14.31,0,0,1,1.37.94c.9,2.26,2,3.77,2.93,5.94l0,0,0-.09a2,2,0,0,1,.77,1.34,32.37,32.37,0,0,1,.24,5.67,21.46,21.46,0,0,1,.16,2.27c-.07,1.31.82-.09.92.47v.8c0,.87,0,1.68,0,2.46l0,0c-.32.06-.29-.29-.34-.54s0-.61-.35-.51a.67.67,0,0,0-.22.5,13.66,13.66,0,0,1-.35,4.89,29.69,29.69,0,0,0-.79,4.71c0,.48-.45.78-.82,1.08A46.07,46.07,0,0,1,147.7,189l0,0,0,0a9.24,9.24,0,0,0-3.32.44,9.37,9.37,0,0,1-2.78.52,3.17,3.17,0,0,1-2.54-1.2,1.22,1.22,0,0,0-.87-.38,2.79,2.79,0,0,1-2.11-1.28,1,1,0,0,0-.54-.5,3.09,3.09,0,0,1-2.3-3.32l.11.12a0,0,0,0,0,0,0,.45.45,0,0,1-.1-.13v0a12.12,12.12,0,0,1-.81-4.9c.05-.38.2-.92-.2-1.06-.21-.09-.53.32-.79.52h0c0-.37-.06-.75-.08-1.14a.46.46,0,0,1,.11-.16,1.45,1.45,0,0,0,.51-1.7,2.2,2.2,0,0,0-1.52-1.35c-.57-.15-.85-.63-1.23-.74s-1.07-.22-1.45-.3l-1.27-.3a4,4,0,0,0-2.58.06c-.09.12-.1.32-.36.26-.06,0-.08-.17-.11-.26-.49,0-1,.07-1.47.08a4.23,4.23,0,0,0-3.31,1.56,4.13,4.13,0,0,0-.81,1.72,4.3,4.3,0,0,0-.07,1l0,.77a20.84,20.84,0,0,0,1.2,6c.13.11.26.27.17.42s-.24,0-.33-.15c-.79,1.16-.25,2.56.15,3.86a.57.57,0,0,0,.6.4c.2,0,.27-.26.19-.45a3.76,3.76,0,0,1-.26-2.45,25,25,0,0,0,1.08,3.6,1.39,1.39,0,0,1-.13.44c-.62,1.28,0,2.43,1,3.32a5.51,5.51,0,0,1,1.65,2.21,3.79,3.79,0,0,0,1.89,2.08,13.57,13.57,0,0,1,3.76,2.48,10.9,10.9,0,0,0,5.51,2.56c2,.38,4,.43,5.95.64s4,.07,5.94.25c1.75.15,3.29-.75,5-.86a1.79,1.79,0,0,0,.1-.45c1-.38,1.89.28,2.89-.13.19-.07.45-.23.47-.34s-.25-.18-.46-.17-.82.33-.71-.2a.24.24,0,0,1,.11-.12c.47-.15.92-.3,1.36-.47.42,0,.83.16,1.18-.08,2.15-1.43,4.56-2,6.62-3.63l-.66-.69h0a20.19,20.19,0,0,0,1.56-1.79,2,2,0,0,1,1.12-.51c.46-.52,1.3-.92,1.23-1.66-.07-.52-.56.1-1,.09.13-.22.25-.44.37-.66A12.91,12.91,0,0,0,169,182c0-.61.07-.64-.59-.57a.31.31,0,0,1-.24-.08c.06-.44.11-.88.15-1.34.55-.19.76-.78,1-1.33C169.73,177.73,169.7,177.69,168.87,177.66Zm-.27-3.84a.35.35,0,0,1,.07.2.74.74,0,0,1-.08.38C168.6,174.21,168.6,174,168.6,173.82Zm-.78-59.36a1.7,1.7,0,0,1,.19,1.45c0-.5-.13-1-.2-1.45Zm-2.28,7.76a3.31,3.31,0,0,0,.45-.12.47.47,0,0,1,.3.13l0,.13-.17.09c-.28.13-.61.21-.76,0C165.37,122.38,165.46,122.27,165.54,122.22Zm-12-26.36s.14.07.15.1-.06.15-.23.07-.07-.09-.11-.14Zm-10.08-1.17c-.87,0-1.72.06-2.55.14A2.83,2.83,0,0,1,143.47,94.69Zm-7.14,14.07.07.08-.15.06Zm-1.17-13.2-.09.06v-.08Zm-14,14.67a.13.13,0,0,1-.21,0c-.22-.3.09-.61.31-.9s.39-.5.58-.75C121.63,109.1,121.4,109.65,121.19,110.23Zm1.2-2.93a.37.37,0,0,1-.14,0,2.3,2.3,0,0,1,.1-.35h.14Zm9-9.53.05-.07,0,0ZM132,122.5c0-.17,0-.34,0-.52h0C132.13,122,132.11,122.26,132,122.5Zm0-25.11-.61.26c.43-.32.82-.8,1.42-.67C132.58,97.11,132.32,97.25,132.05,97.39Zm2.72,36.75,0,0c-.08-.11-.07-.23,0-.2a1.57,1.57,0,0,1,.4.27A.28.28,0,0,1,134.77,134.14Zm.74,15.36c-.25-.1-.3-.2-.29-.3l.59.24A.33.33,0,0,1,135.51,149.5Zm1-13.7a1.59,1.59,0,0,1,.91.64C137.1,136.23,136.8,136,136.51,135.8Zm5.53,3-.87-.38a.84.84,0,0,1,.56.14,1.07,1.07,0,0,1,.35.26Zm13.59,28.41c0-.14.05-.25.07-.38l.06.86C155.65,167.67,155.61,167.52,155.63,167.22Zm-33.57,6h-.2a3.1,3.1,0,0,0-.69.08c-.1,0-.2,0-.23-.08-.2-.28.17-.53.6-.59s.6.07.65.31A.25.25,0,0,1,122.06,173.2Zm2.09,21.14.7.78C124.43,195,124.13,194.82,124.15,194.34Zm3.94-21.14h-.46c0-.11,0-.17.18-.15a.62.62,0,0,1,.29.15Zm3.65,26.44a23.58,23.58,0,0,0,2.8.94A6.18,6.18,0,0,1,131.74,199.64Zm15,1.92.68-.08C147.3,201.69,147,201.65,146.76,201.56Zm4-13.32.06,0-.07,0Zm.2,13c-.61,0-1.19.45-1.81.22,0,0,0-.1,0-.18.59-.09,1.15-.21,1.72-.33a1.26,1.26,0,0,1,.48.21A1.59,1.59,0,0,1,150.91,201.25Zm.52-14v-.1l.09,0Zm3.61-7.34c0-.13,0-.2.1-.19a.53.53,0,0,1,0,.14Zm2.69-34.34.56.26a6.6,6.6,0,0,1,2.48,1.78A22.36,22.36,0,0,0,157.73,145.54Zm9.46,40.76c.16-.56.3-1.13.42-1.72h0A14.74,14.74,0,0,1,167.19,186.3Zm.95-3.17a1.6,1.6,0,0,1-.48,1.4c0-.05,0-.11,0-.16.07-.33.13-.65.19-1a1.41,1.41,0,0,1,.18-.27S168.14,183.11,168.14,183.13Z"/>
        </g>
    </g>
</svg>