<svg xmlns="http://www.w3.org/2000/svg" viewBox="0 0 284.96 23.86">
    <defs>
        <style>.cls-1{fill:#030f40;}</style>
    </defs>
    <title>SOFichier 7</title>
    <g id="Calque_2" data-name="Calque 2">
        <g id="Premier_plan" data-name="Premier plan">
            <path class="cls-1"
                  d="M277.53,0c-10.3,0-15.66,2.86-20.38,5.38C253.2,7.48,250.34,9,243.75,9s-9.45-1.52-13.4-3.62C225.62,2.86,220.26,0,210,0s-15.65,2.86-20.37,5.38c-4,2.1-6.8,3.62-13.38,3.62s-9.45-1.52-13.4-3.62C158.09,2.86,152.73,0,142.44,0s-15.65,2.86-20.38,5.38C118.12,7.48,115.26,9,108.68,9S99.24,7.48,95.3,5.38C90.57,2.86,85.22,0,74.93,0S59.28,2.86,54.55,5.38C50.61,7.48,47.76,9,41.18,9S31.74,7.48,27.8,5.38C23.08,2.86,17.72,0,7.43,0a7.43,7.43,0,0,0,0,14.86c6.59,0,9.44,1.52,13.38,3.63,4.73,2.51,10.08,5.37,20.37,5.37S56.82,21,61.55,18.49c3.94-2.11,6.79-3.63,13.38-3.63s9.43,1.52,13.38,3.63C93,21,98.39,23.86,108.68,23.86s15.65-2.86,20.37-5.37c3.95-2.11,6.8-3.63,13.39-3.63s9.44,1.52,13.39,3.63c4.73,2.51,10.08,5.37,20.38,5.37s15.64-2.86,20.37-5.37c3.95-2.11,6.8-3.63,13.38-3.63s9.45,1.52,13.4,3.63c4.73,2.51,10.08,5.37,20.39,5.37s15.66-2.86,20.38-5.37c3.95-2.11,6.8-3.63,13.4-3.63a7.43,7.43,0,1,0,0-14.86Z"/>
        </g>
    </g>
</svg>